<svg xmlns="http://www.w3.org/2000/svg" width="400" height="400" viewBox="0 0 300 300"><defs><clipPath id="a"><path d="M150 0a150 150 0 100 300 150 150 0 000-300zm0 0"/></clipPath><clipPath id="b"><path d="M64 58h172v184H64zm0 0"/></clipPath><clipPath id="c"><path d="M150 0a150 150 0 100 300 150 150 0 000-300zm0 0"/></clipPath></defs><g clip-path="url(#a)"><path fill="#e31e1f" d="M0 0h300v300H0z"/></g><g clip-path="url(#b)"><g clip-path="url(#c)"><path d="M179.5 63.6c2.4 0 3.9.7 3.9 1.7s-1.5 1.9-3.9 1.9-3.8-.8-3.8-1.8 1.4-1.8 3.8-1.8m-59 0c2.4 0 3.8.8 3.8 1.8s-1.4 1.8-3.8 1.8-3.9-1-3.9-2 1.5-1.6 3.9-1.6m-.4-5.3c-3 0-7.8 1-7.7 3.2-8.1-1.4-9 2-8.5 5 .8-1.2 1.7-1.9 2.5-2a5 5 0 013.3.9c1.2.7 2.5 1.8 3 2.5-2.8.7-5 .3-7.3-.1-1.1-.2-2.7-.8-3.6-1.5-1-.6-1.2-1.2-2.6-2.7-1.8-1.8-3.6-1.3-3 1.5 1.3 2.5 3.5 3.6 6.2 4 1.4.3 3.4.8 5.6.8 2.2 0 4.8-.4 6.1 0-.8.4-1.7 1.3-3.6 1.7-1.8.3-4.7-1.1-6.4-1.5.2 1.4 2 2.8 5.7 3.5 6 1.3 10.9 2.3 14.2 4 3.3 1.9 5.3 4 6.8 5.8 3 3.5 3.1 6.2 3.3 6.8.6 5.5-1.3 8.6-5 9.6-1.7.5-5-.4-6.1-1.8a9.8 9.8 0 01-2-7.4c.3-1.5 2-5.3.6-6-6.6-3.7-14.5-7.3-20.2-9.5-1.6-.6-2.9 1.6-3.4 2.4a31.4 31.4 0 01-22.4-14.8c-2.7-4.8-7.1 0-6.4 4.5 1.2 5 5 8.7 9.7 11.3a34.2 34.2 0 0016.6 5c3.2.6 3.1 4.8-.7 5.6-7.6 0-13.6-.2-19.3-5.7-4.3-4-6.7.8-5.5 3.4 2.1 8.2 13.8 10.5 25.7 7.9 4.5-.8 1.8 4.1.5 4.2-5 3.5-13.8 7-21.6 0-3.5-2.8-6-.5-4.6 3.4 3.4 10.3 16.7 8.2 25.7 3.1 2.4-1.3 4.5 1.7 1.7 4-11.3 8-17 8-22 5-6.5-2.5-7 4.5-3.2 6.9 4.2 2.5 14.9.6 22.7-4.3 3.4-2.5 3.6 1.4 1.4 3-9.3 8-13 10.1-22.7 8.8-4.8-.4-4.7 5.6-1 7.9 5.2 3.2 15.3-2.1 23.2-8.6 3.3-1.8 3.8 1.1 2.2 4.5-4.8 6.1-9.3 9.7-13.6 11.3a17 17 0 01-11.5.4c-3.6-1.2-4 2.5-2 5.9 1.2 2 6.1 2.7 11.5.8a35.1 35.1 0 0015-11.6c3.5-3 3 1 1.5 3.9-8 12.5-15.1 17.2-24.7 16.4-4.2-.8-5.2 2.5-2.5 5.6 4.8 3.9 10.7 3.8 15.8-.1 4.6-4.4 13.4-14 18-19.1 3.3-2.6 4.4 0 3.4 5.2-.9 3-3 6.2-9 8.5-4 2.3-1 5.5 2 5.6 1.7 0 5.1-2 7.7-4.9 3.4-3.8 3.6-6.4 5.5-12.3 1.8-3 5-1.6 5 1.5-1.6 6-2.9 7-6 9.5-2.9 2.7 2.1 3.6 3.8 2.5 4.8-3.3 6.6-7.5 8.2-11.4 1.2-2.8 4.6-1.4 3 3.1-3.7 11-10 15.2-20.8 17.4-1 .2-1.7.8-1.3 2.1l4.3 4.4c-6.7 2-12.1 3-18.8 5l-9.3-6.2c-.9-2-1.3-5-6.1-2.9-3.3-1.5-4.8-1-6.7.6 2.7 0 3.8.8 4.9 2 1.3 3.5 4.4 3.9 7.6 2.9l5.3 4.8-10.5-.3c-3.6-4-6.6-3.8-9.2-.7-2 .4-2.9.4-4.3 2.8 2.2-.9 3.6-1.1 4.5-.2 4 2.3 6.5 1.8 8.4 0l11 .7c-1.4 1.2-3.3 1.8-4.7 3-5.7-1.6-8.6.6-9.6 5.2-.8 1.9-1.2 3.8-.8 5.8a7.2 7.2 0 013-4.4c5 1.3 7-.8 7.3-3.8 2.4-2 6-2.4 8.5-4.4l7.1 2.4c1 3 3.3 4.3 7 3.5 4.5.1 3.7 2 4.1 3.4 1.2-2 1.2-4.1-1.6-6-1-2.7-3.2-4-6.1-2.4-2.7-.7-3.4-1.9-6.2-2.6 7-2.2 11.8-2.7 18.7-5 1.7 1.7 3 2.9 4.8 4.3.9.6 1.8.7 2.3 0 4.3-6.2 6.2-11.7 10.2-15.8 1.6-1.7 3.5-4 5.7-4.6 1-.3 2.3 0 3.2.8.8 1 1.5 2.6 1.2 5.2-.4 3.6-1.3 4.7-2.3 6.9-1 2.1-2.2 3.5-3.5 5.1-2.6 3.3-6 5.3-8 6.6-3.9 2.6-5.6 1.4-8.6 1.3-4 .4-5 2.4-1.8 5 3 1.6 5.8 1.8 8 1.4 1.9-.4 4.1-2.8 5.7-4.1 1.8-2.1 4.8.3 2.8 2.7-3.7 4.4-7.4 7.3-12 7.2-4.7.7-3.8 3.4-.7 4.7 5.7 2.3 10.9-2 13.5-5 2-2.2 3.5-2.3 3.1 1.2-2 6.1-4.7 8.5-9.2 8.8-3.6-.3-3.7 2.5-1 4.4 6 4.2 10.4-3 12.4-7.2 1.5-4 3.7-2 4 1.1 0 4.3-2 7.8-7.1 12.1 4 6.3 8.5 12.8 12.5 19 4-6.2 8.6-12.6 12.5-19-5.1-4.3-7-7.8-7-12 .2-3.3 2.4-5.1 3.9-1.2 2 4.3 6.4 11.4 12.4 7.2 2.7-1.9 2.6-4.7-1-4.4-4.5-.3-7.2-2.7-9.2-8.8-.3-3.5 1-3.4 3.1-1.2 2.6 3 7.8 7.3 13.5 5 3.1-1.3 4-4-.8-4.7-4.5.1-8.2-2.8-11.9-7.2-2-2.4 1-4.8 2.8-2.7 1.6 1.3 3.8 3.7 5.7 4.1 2.2.4 5 .2 8-1.4 3.3-2.6 2.2-4.6-1.8-5-3 .1-4.7 1.3-8.7-1.3-2-1.3-5.3-3.3-7.9-6.6-1.3-1.6-2.5-3-3.5-5.1-1-2.2-1.9-3.3-2.3-7-.3-2.5.4-4.1 1.2-5 .9-1 2.2-1.2 3.2-.9 2.2.6 4.1 2.9 5.7 4.6 4 4.1 5.9 9.6 10.2 15.8.5.7 1.4.6 2.3 0l4.8-4.2c7 2.2 11.8 2.7 18.7 4.9-2.8.7-3.5 1.9-6.2 2.6-2.9-1.5-5.1-.3-6.1 2.4-2.8 1.9-2.8 4-1.6 6 .4-1.5-.4-3.3 4-3.4 3.8.8 6-.5 7-3.5l7.2-2.4c2.4 2 6 2.4 8.5 4.4.3 3 2.2 5.1 7.3 3.8 1.6 1 2.5 2.6 3 4.4.4-2 0-4-.8-5.8-1-4.6-4-6.8-9.6-5.2-1.4-1.2-3.3-1.8-4.7-3l11-.7c2 1.8 4.5 2.3 8.4 0 1-1 2.3-.7 4.5.2-1.4-2.4-2.3-2.4-4.3-2.8-2.6-3-5.6-3.3-9.2.7l-10.5.3 5.3-4.8c3.2 1 6.3.6 7.6-3 1-1.1 2.2-1.8 4.9-2-1.9-1.5-3.4-2-6.7-.5-4.8-2.2-5.2 1-6.1 3l-9.3 6.1c-6.7-2-12.1-3-18.8-5l4.4-4.4c.3-1.3-.3-2-1.4-2.1-10.9-2.2-17-6.5-20.8-17.4-1.6-4.5 1.8-5.9 3-3 1.6 3.8 3.4 8 8.2 11.3 1.7 1.1 6.7.2 3.8-2.5-3.1-2.5-4.4-3.6-6-9.5 0-3.1 3.2-4.5 5-1.5 1.9 6 2 8.5 5.5 12.3 2.6 3 6 5 7.6 4.9 3 0 6.1-3.3 2-5.6-5.9-2.3-8-5.5-8.9-8.5-1-5.2 0-7.8 3.3-5.2a500 500 0 0018 19.1c5.2 3.9 11.1 4 15.9 0 2.7-3 1.7-6.3-2.5-5.5-9.6.8-16.8-3.9-24.7-16.4-1.6-2.9-2-6.9 1.4-3.9 4 5.2 9.7 9.7 15.1 11.6 5.4 2 10.3 1.2 11.5-.8 2-3.4 1.6-7.1-2-6a17 17 0 01-11.5-.3 33.6 33.6 0 01-13.6-11.3c-1.6-3.4-1.1-6.3 2.2-4.5 7.9 6.5 18 11.8 23.1 8.6 3.8-2.3 4-8.3-1-7.9-9.6 1.3-13.3-.8-22.6-8.9-2.2-1.5-2-5.4 1.4-3 7.8 5 18.5 7 22.7 4.4 3.8-2.4 3.3-9.4-3.1-7-5.1 3.1-10.8 3-22-4.9-2.9-2.3-.8-5.3 1.6-4 9 5 22.3 7.2 25.7-3 1.4-4-1-6.3-4.6-3.6-7.8 7-16.7 3.6-21.6 0-1.3 0-4-4.9.5-4.1 11.9 2.6 23.6.3 25.7-7.9 1.2-2.6-1.2-7.3-5.5-3.4-5.7 5.5-11.7 5.7-19.3 5.7-3.8-.8-3.9-5-.7-5.6 6 .1 12-2.4 16.6-5 4.6-2.6 8.5-6.2 9.7-11.3.7-4.5-3.7-9.3-6.4-4.5-4 7-12.7 13.6-22.4 14.8-.5-.8-1.8-3-3.4-2.4-5.7 2.2-13.6 5.8-20.2 9.4-1.4.8.3 4.6.6 6 .3 3.8-.8 6.1-2 7.5-1.2 1.4-4.4 2.3-6.1 1.8-3.6-1-5.6-4-5-9.6.2-.6.4-3.3 3.3-6.8 1.5-1.7 3.5-4 6.8-5.7 3.3-1.8 8.3-2.8 14.2-4 3.7-.8 5.5-2.2 5.7-3.6-1.7.4-4.6 1.8-6.4 1.5-1.9-.4-2.8-1.3-3.6-1.8 1.3-.3 3.9 0 6.1 0 2.2 0 4.2-.4 5.6-.6 2.7-.5 4.9-1.6 6.2-4.1.6-2.8-1.2-3.3-3-1.5-1.4 1.5-1.7 2-2.6 2.7-1 .7-2.5 1.3-3.6 1.5-2.2.4-4.5.8-7.3.1.5-.7 1.8-1.8 3-2.5a5 5 0 013.3-1c.8.2 1.7.9 2.5 2 .5-3-.4-6.3-8.5-5 .1-2.1-4.7-3.1-7.7-3-1.6 0-5 1-7.4 2-3.9 1.2-7.7 2-12.2 2.4 2.6 2.2 3 2.3 5.7 4.2a19 19 0 00-8.4 6.3c3.5.2 4.6 0 5.8.4-4.8 1.4-7 2.2-9.6 4.8 1 .1 2.3.4 2.8.6.6.2.4.5 0 1-1.1.6-5.3 5.6-6.6 6.8-1.2-1.2-5.5-6.2-6.6-6.8-.4-.5-.6-.8 0-1l2.8-.6c-2.6-2.6-4.8-3.4-9.6-4.8 1.2-.5 2.3-.2 5.8-.4A19 19 0 00134 67c2.6-1.9 3.1-2 5.7-4.2a54 54 0 01-12.2-2.3 23.6 23.6 0 00-7.4-2.2"/></g></g></svg>