<svg xmlns="http://www.w3.org/2000/svg" width="400" height="400" viewBox="0 0 300 300"><defs><clipPath id="a"><path d="M150 0a150 150 0 100 300 150 150 0 000-300zm0 0"/></clipPath><clipPath id="b"><path d="M0 0h150v300H0zm0 0"/></clipPath><clipPath id="c"><path d="M150 0a150 150 0 100 300 150 150 0 000-300zm0 0"/></clipPath><clipPath id="d"><path d="M75 75h150v150H75zm0 0"/></clipPath><clipPath id="e"><path d="M0 150a150 150 0 10300 0 150 150 0 00-300 0m108.1 0a60 60 0 11120 0 60 60 0 01-120 0"/></clipPath><clipPath id="f"><path d="M150 114h68v72h-68zm0 0"/></clipPath><clipPath id="g"><path d="M150 0a150 150 0 100 300 150 150 0 000-300zm0 0"/></clipPath></defs><g clip-path="url(#a)"><path fill="#fff" d="M0 0h300v300H0z"/></g><g clip-path="url(#b)"><g clip-path="url(#c)"><path d="M-75 300h225V0H-75zm0 0" fill="#006133"/></g></g><g clip-path="url(#d)"><g clip-path="url(#e)"><path d="M150 75a75 75 0 110 150 75 75 0 010-150" fill="#d21034"/></g></g><g clip-path="url(#f)"><g clip-path="url(#g)"><path d="M150 172l26-8.4 16 22v-27.2l25.8-8.4-25.9-8.4v-27.3l-16 22L150 128l16 22" fill="#d21034"/></g></g></svg>