<svg xmlns="http://www.w3.org/2000/svg" width="400" height="400" viewBox="0 0 300 300"><defs><clipPath id="a"><path d="M150 0a150 150 0 100 300 150 150 0 000-300zm0 0"/></clipPath><clipPath id="b"><path d="M0 150h300v150H0zm0 0"/></clipPath><clipPath id="c"><path d="M150 0a150 150 0 100 300 150 150 0 000-300zm0 0"/></clipPath><clipPath id="d"><path d="M124 96h52v49h-52zm0 0"/></clipPath><clipPath id="e"><path d="M150 0a150 150 0 100 300 150 150 0 000-300zm0 0"/></clipPath><clipPath id="f"><path d="M113 75h115v153H113zm0 0"/></clipPath><clipPath id="g"><path d="M150 0a150 150 0 100 300 150 150 0 000-300zm0 0"/></clipPath><clipPath id="h"><path d="M205 216h31v31h-31zm0 0"/></clipPath><clipPath id="i"><path d="M150 0a150 150 0 100 300 150 150 0 000-300zm0 0"/></clipPath><clipPath id="j"><path d="M214 221h3v3h-3zm0 0"/></clipPath><clipPath id="k"><path d="M150 0a150 150 0 100 300 150 150 0 000-300zm0 0"/></clipPath><clipPath id="l"><path d="M104 78h118v145H104zm0 0"/></clipPath><clipPath id="m"><path d="M150 0a150 150 0 100 300 150 150 0 000-300zm0 0"/></clipPath><clipPath id="n"><path d="M156 186h59v41h-59zm0 0"/></clipPath><clipPath id="o"><path d="M150 0a150 150 0 100 300 150 150 0 000-300zm0 0"/></clipPath><clipPath id="p"><path d="M119 139h93v85h-93zm0 0"/></clipPath><clipPath id="q"><path d="M150 0a150 150 0 100 300 150 150 0 000-300zm0 0"/></clipPath><clipPath id="r"><path d="M132 159h86v69h-86zm0 0"/></clipPath><clipPath id="s"><path d="M150 0a150 150 0 100 300 150 150 0 000-300zm0 0"/></clipPath><clipPath id="t"><path d="M221 227h3v3h-3zm0 0"/></clipPath><clipPath id="u"><path d="M150 0a150 150 0 100 300 150 150 0 000-300zm0 0"/></clipPath><clipPath id="v"><path d="M228 234h3v3h-3zm0 0"/></clipPath><clipPath id="w"><path d="M150 0a150 150 0 100 300 150 150 0 000-300zm0 0"/></clipPath></defs><g clip-path="url(#a)"><path fill="#ce1125" d="M0 0h300v300H0z"/></g><g clip-path="url(#b)"><g clip-path="url(#c)"><path d="M-75 300h450V150H-75zm0 0"/></g></g><g clip-path="url(#d)"><g clip-path="url(#e)"><path d="M124.3 114.7H144L150 96l6 18.7h19.7l-15.9 11.5 6 18.6-15.8-11.5-15.9 11.5 6-18.6" fill="#f8d515"/></g></g><g clip-path="url(#f)"><g clip-path="url(#g)"><path d="M218.8 113.2a78 78 0 015.8 14.2l-14.3 4.3a62.6 62.6 0 00-4.7-11.4zm-19.3-23.5a77.8 77.8 0 0110.8 10.8l-11.6 9.5a63.2 63.2 0 00-8.7-8.7l9.5-11.6m-26.9-14.3a78 78 0 0114.2 5.8l-7.1 13.2a63 63 0 00-11.4-4.7l4.3-14.3m-45.2 149.2a78 78 0 01-14.2-5.8l7.1-13.2a63.1 63.1 0 0011.4 4.7l-4.3 14.3m30.2 3c-5 .5-10.2.5-15.2 0l1.4-14.9c4.1.4 8.3.4 12.4 0l1.4 15m29.2-9a78 78 0 01-14.2 6l-4.3-14.4a63.1 63.1 0 0011.4-4.7l7 13.2m23.6-19.3a77.7 77.7 0 01-10.8 10.8l-9.5-11.6a63 63 0 008.7-8.7l11.6 9.5m14.3-26.9a78 78 0 01-5.8 14.2l-13.2-7.1a62.6 62.6 0 004.7-11.4l14.3 4.3m3-30.2c.5 5 .5 10.2 0 15.2l-15-1.4c.5-4.1.5-8.3 0-12.4l15-1.4" fill="#f8d515"/></g></g><g clip-path="url(#h)"><g clip-path="url(#i)"><path d="M205.6 224.9l7.3-8.6c3.8 3.7 9 7.4 12.7 10.7 3.8 3.3 6.7 6.1 9 9.9 3.4 5.5-.4 11.8-5.7 8.1-3-2-4.7-7.3-9.1-11.8-3.3-2.8-5.8-5.7-14-7-.4-.1-.5-1-.2-1.3" fill="#f8d515"/></g></g><g clip-path="url(#j)"><g clip-path="url(#k)"><path d="M216.4 222.3c0 .4-.2.7-.5.9a1 1 0 01-1 0 1 1 0 01-.5-.9 1 1 0 112 0"/></g></g><g clip-path="url(#l)"><g clip-path="url(#m)"><path d="M157.5 78.8L156.1 92a58.3 58.3 0 11-43 103l-8.5 10.4A71.4 71.4 0 00150 222a71.8 71.8 0 007.5-143.3" fill="#f8d515"/></g></g><g clip-path="url(#n)"><g clip-path="url(#o)"><path d="M156.4 197.8l20.2 12 4.4 17 23.3-1.7 10.2-12-37.9-26.2"/></g></g><g clip-path="url(#p)"><g clip-path="url(#q)"><path d="M204.7 223.7c-26-17.3-42.6-26.7-67.6-40.9-9.8-5.5-25-19.5-13-43 .8 15.4 61.6 57.6 87.3 76" fill="#f8d515"/></g></g><g clip-path="url(#r)"><g clip-path="url(#s)"><path d="M141 167.5c20.1 19 45.4 34.3 67.9 51.4" fill="none" stroke-width="1.5" stroke-linecap="round" stroke="#000"/></g></g><g clip-path="url(#t)"><g clip-path="url(#u)"><path d="M223.8 228.8a1 1 0 01-1.5.8 1 1 0 010-1.7 1 1 0 011 0c.3.2.5.5.5.9"/></g></g><g clip-path="url(#v)"><g clip-path="url(#w)"><path d="M230.3 235.4a1 1 0 01-1.5.9 1 1 0 01-.5-1c0-.3.2-.6.5-.8a1 1 0 011 0c.4.2.5.5.5.9"/></g></g></svg>