<svg xmlns="http://www.w3.org/2000/svg" width="400" height="400" viewBox="0 0 300 300"><defs><clipPath id="a"><path d="M0 0h300v118H0zm0 0"/></clipPath><clipPath id="b"><path d="M150 0a150 150 0 100 300 150 150 0 000-300zm0 0"/></clipPath><clipPath id="c"><path d="M0 117h300v66H0zm0 0"/></clipPath><clipPath id="d"><path d="M150 0a150 150 0 100 300 150 150 0 000-300zm0 0"/></clipPath><clipPath id="e"><path d="M150 0a150 150 0 100 300 150 150 0 000-300zm0 0"/></clipPath><clipPath id="f"><path d="M61 182h178v118H61zm0 0"/></clipPath><clipPath id="g"><path d="M150 0a150 150 0 100 300 150 150 0 000-300zm0 0"/></clipPath><clipPath id="h"><path d="M52 19h196v99H52zm0 0"/></clipPath><clipPath id="i"><path d="M150 0a150 150 0 100 300 150 150 0 000-300zm0 0"/></clipPath></defs><g clip-path="url(#a)"><g clip-path="url(#b)"><path d="M-75 117.4h450V0H-75zm0 0"/></g></g><g clip-path="url(#c)"><g clip-path="url(#d)"><path d="M-75 182.6h450v-65.2H-75zm0 0" fill="#0071c5"/></g></g><g clip-path="url(#e)"><path d="M-75 0v300h450V0L150 300" fill="#ce1125"/></g><g clip-path="url(#f)"><g clip-path="url(#g)"><path d="M238 182.6H62L150 300" fill="#fff"/></g></g><g clip-path="url(#h)"><g clip-path="url(#i)"><path d="M199 107.7L240.3 80l-49 9.7 27.8-41.5L177.7 76l9.7-48.9-27.7 41.5-9.7-49-9.7 49L112.6 27l9.7 49-41.5-27.8 27.7 41.5L59.6 80l41.5 27.7-49 9.7h195.7" fill="#fbd115"/></g></g></svg>