<svg xmlns="http://www.w3.org/2000/svg" width="400" height="400" viewBox="0 0 300 300"><defs><clipPath id="a"><path d="M150 0a150 150 0 100 300 150 150 0 000-300zm0 0"/></clipPath><clipPath id="b"><path d="M0 100h300v101H0zm0 0"/></clipPath><clipPath id="c"><path d="M150 0a150 150 0 100 300 150 150 0 000-300zm0 0"/></clipPath><clipPath id="d"><path d="M115 148h37v32h-37zm0 0"/></clipPath><clipPath id="e"><path d="M150 0a150 150 0 100 300 150 150 0 000-300zm0 0"/></clipPath><clipPath id="f"><path d="M111 144h45v40h-45zm0 0"/></clipPath><clipPath id="g"><path d="M150 0a150 150 0 100 300 150 150 0 000-300zm0 0"/></clipPath><clipPath id="h"><path d="M126 149h26v40h-26zm0 0"/></clipPath><clipPath id="i"><path d="M150 0a150 150 0 100 300 150 150 0 000-300zm0 0"/></clipPath><clipPath id="j"><path d="M122 145h34v48h-34zm0 0"/></clipPath><clipPath id="k"><path d="M150 0a150 150 0 100 300 150 150 0 000-300zm0 0"/></clipPath><clipPath id="l"><path d="M148 149h19v42h-19zm0 0"/></clipPath><clipPath id="m"><path d="M150 0a150 150 0 100 300 150 150 0 000-300zm0 0"/></clipPath><clipPath id="n"><path d="M144 145h26v50h-26zm0 0"/></clipPath><clipPath id="o"><path d="M150 0a150 150 0 100 300 150 150 0 000-300zm0 0"/></clipPath><clipPath id="p"><path d="M140 150h13v42h-13zm0 0"/></clipPath><clipPath id="q"><path d="M150 0a150 150 0 100 300 150 150 0 000-300zm0 0"/></clipPath><clipPath id="r"><path d="M137 146h19v50h-19zm0 0"/></clipPath><clipPath id="s"><path d="M150 0a150 150 0 100 300 150 150 0 000-300zm0 0"/></clipPath><clipPath id="t"><path d="M108 140h42v13h-42zm0 0"/></clipPath><clipPath id="u"><path d="M150 0a150 150 0 100 300 150 150 0 000-300zm0 0"/></clipPath><clipPath id="v"><path d="M104 137h50v19h-50zm0 0"/></clipPath><clipPath id="w"><path d="M150 0a150 150 0 100 300 150 150 0 000-300zm0 0"/></clipPath><clipPath id="x"><path d="M111 126h40v26h-40zm0 0"/></clipPath><clipPath id="y"><path d="M150 0a150 150 0 100 300 150 150 0 000-300zm0 0"/></clipPath><clipPath id="z"><path d="M107 122h48v34h-48zm0 0"/></clipPath><clipPath id="A"><path d="M150 0a150 150 0 100 300 150 150 0 000-300zm0 0"/></clipPath><clipPath id="B"><path d="M120 115h32v37h-32zm0 0"/></clipPath><clipPath id="C"><path d="M150 0a150 150 0 100 300 150 150 0 000-300zm0 0"/></clipPath><clipPath id="D"><path d="M116 111h40v45h-40zm0 0"/></clipPath><clipPath id="E"><path d="M150 0a150 150 0 100 300 150 150 0 000-300zm0 0"/></clipPath><clipPath id="F"><path d="M126 149h25v21h-25zm0 0"/></clipPath><clipPath id="G"><path d="M150 0a150 150 0 100 300 150 150 0 000-300zm0 0"/></clipPath><clipPath id="H"><path d="M144 150h8v29h-8zm0 0"/></clipPath><clipPath id="I"><path d="M150 0a150 150 0 100 300 150 150 0 000-300zm0 0"/></clipPath><clipPath id="J"><path d="M134 149h17v27h-17zm0 0"/></clipPath><clipPath id="K"><path d="M150 0a150 150 0 100 300 150 150 0 000-300zm0 0"/></clipPath><clipPath id="L"><path d="M109 148h42v19h-42zm0 0"/></clipPath><clipPath id="M"><path d="M150 0a150 150 0 100 300 150 150 0 000-300zm0 0"/></clipPath><clipPath id="N"><path d="M105 144h50v26h-50zm0 0"/></clipPath><clipPath id="O"><path d="M150 0a150 150 0 100 300 150 150 0 000-300zm0 0"/></clipPath><clipPath id="P"><path d="M122 149h29v12h-29zm0 0"/></clipPath><clipPath id="Q"><path d="M150 0a150 150 0 100 300 150 150 0 000-300zm0 0"/></clipPath><clipPath id="R"><path d="M121 144h29v8h-29zm0 0"/></clipPath><clipPath id="S"><path d="M150 0a150 150 0 100 300 150 150 0 000-300zm0 0"/></clipPath><clipPath id="T"><path d="M124 134h27v17h-27zm0 0"/></clipPath><clipPath id="U"><path d="M150 0a150 150 0 100 300 150 150 0 000-300zm0 0"/></clipPath><clipPath id="V"><path d="M130 126h21v25h-21zm0 0"/></clipPath><clipPath id="W"><path d="M150 0a150 150 0 100 300 150 150 0 000-300zm0 0"/></clipPath><clipPath id="X"><path d="M133 109h19v42h-19zm0 0"/></clipPath><clipPath id="Y"><path d="M150 0a150 150 0 100 300 150 150 0 000-300zm0 0"/></clipPath><clipPath id="Z"><path d="M130 105h26v50h-26zm0 0"/></clipPath><clipPath id="aa"><path d="M150 0a150 150 0 100 300 150 150 0 000-300zm0 0"/></clipPath><clipPath id="ab"><path d="M147 108h13v42h-13zm0 0"/></clipPath><clipPath id="ac"><path d="M150 0a150 150 0 100 300 150 150 0 000-300zm0 0"/></clipPath><clipPath id="ad"><path d="M144 104h19v50h-19zm0 0"/></clipPath><clipPath id="ae"><path d="M150 0a150 150 0 100 300 150 150 0 000-300zm0 0"/></clipPath><clipPath id="af"><path d="M148 111h26v40h-26zm0 0"/></clipPath><clipPath id="ag"><path d="M150 0a150 150 0 100 300 150 150 0 000-300zm0 0"/></clipPath><clipPath id="ah"><path d="M144 107h34v48h-34zm0 0"/></clipPath><clipPath id="ai"><path d="M150 0a150 150 0 100 300 150 150 0 000-300zm0 0"/></clipPath><clipPath id="aj"><path d="M148 120h37v32h-37zm0 0"/></clipPath><clipPath id="ak"><path d="M150 0a150 150 0 100 300 150 150 0 000-300zm0 0"/></clipPath><clipPath id="al"><path d="M144 116h45v40h-45zm0 0"/></clipPath><clipPath id="am"><path d="M150 0a150 150 0 100 300 150 150 0 000-300zm0 0"/></clipPath><clipPath id="an"><path d="M148 148h32v37h-32zm0 0"/></clipPath><clipPath id="ao"><path d="M150 0a150 150 0 100 300 150 150 0 000-300zm0 0"/></clipPath><clipPath id="ap"><path d="M144 144h40v45h-40zm0 0"/></clipPath><clipPath id="aq"><path d="M150 0a150 150 0 100 300 150 150 0 000-300zm0 0"/></clipPath><clipPath id="ar"><path d="M150 147h42v13h-42zm0 0"/></clipPath><clipPath id="as"><path d="M150 0a150 150 0 100 300 150 150 0 000-300zm0 0"/></clipPath><clipPath id="at"><path d="M146 144h50v19h-50zm0 0"/></clipPath><clipPath id="au"><path d="M150 0a150 150 0 100 300 150 150 0 000-300zm0 0"/></clipPath><clipPath id="av"><path d="M149 148h40v26h-40zm0 0"/></clipPath><clipPath id="aw"><path d="M150 0a150 150 0 100 300 150 150 0 000-300zm0 0"/></clipPath><clipPath id="ax"><path d="M145 144h48v34h-48zm0 0"/></clipPath><clipPath id="ay"><path d="M150 0a150 150 0 100 300 150 150 0 000-300zm0 0"/></clipPath><clipPath id="az"><path d="M148 121h8v29h-8zm0 0"/></clipPath><clipPath id="aA"><path d="M150 0a150 150 0 100 300 150 150 0 000-300zm0 0"/></clipPath><clipPath id="aB"><path d="M149 124h17v27h-17zm0 0"/></clipPath><clipPath id="aC"><path d="M150 0a150 150 0 100 300 150 150 0 000-300zm0 0"/></clipPath><clipPath id="aD"><path d="M149 130h25v21h-25zm0 0"/></clipPath><clipPath id="aE"><path d="M150 0a150 150 0 100 300 150 150 0 000-300zm0 0"/></clipPath><clipPath id="aF"><path d="M139 122h12v29h-12zm0 0"/></clipPath><clipPath id="aG"><path d="M150 0a150 150 0 100 300 150 150 0 000-300zm0 0"/></clipPath><clipPath id="aH"><path d="M149 133h42v19h-42zm0 0"/></clipPath><clipPath id="aI"><path d="M150 0a150 150 0 100 300 150 150 0 000-300zm0 0"/></clipPath><clipPath id="aJ"><path d="M145 130h50v26h-50zm0 0"/></clipPath><clipPath id="aK"><path d="M150 0a150 150 0 100 300 150 150 0 000-300zm0 0"/></clipPath><clipPath id="aL"><path d="M149 139h29v12h-29zm0 0"/></clipPath><clipPath id="aM"><path d="M150 0a150 150 0 100 300 150 150 0 000-300zm0 0"/></clipPath><clipPath id="aN"><path d="M150 148h29v8h-29zm0 0"/></clipPath><clipPath id="aO"><path d="M150 0a150 150 0 100 300 150 150 0 000-300zm0 0"/></clipPath><clipPath id="aP"><path d="M149 149h27v17h-27zm0 0"/></clipPath><clipPath id="aQ"><path d="M150 0a150 150 0 100 300 150 150 0 000-300zm0 0"/></clipPath><clipPath id="aR"><path d="M149 149h21v25h-21zm0 0"/></clipPath><clipPath id="aS"><path d="M150 0a150 150 0 100 300 150 150 0 000-300zm0 0"/></clipPath><clipPath id="aT"><path d="M149 149h12v29h-12zm0 0"/></clipPath><clipPath id="aU"><path d="M150 0a150 150 0 100 300 150 150 0 000-300zm0 0"/></clipPath><clipPath id="aV"><path d="M133 133h34v34h-34zm0 0"/></clipPath><clipPath id="aW"><path d="M150 0a150 150 0 100 300 150 150 0 000-300zm0 0"/></clipPath><clipPath id="aX"><path d="M128 128h44v44h-44zm0 0"/></clipPath><clipPath id="aY"><path d="M150 0a150 150 0 100 300 150 150 0 000-300zm0 0"/></clipPath><clipPath id="aZ"><path d="M152 146h7v3h-7zm0 0"/></clipPath><clipPath id="ba"><path d="M150 0a150 150 0 100 300 150 150 0 000-300zm0 0"/></clipPath><clipPath id="bb"><path d="M151 145h9v3h-9zm0 0"/></clipPath><clipPath id="bc"><path d="M150 0a150 150 0 100 300 150 150 0 000-300zm0 0"/></clipPath><clipPath id="bd"><path d="M150 143h11v10h-11zm0 0"/></clipPath><clipPath id="be"><path d="M150 0a150 150 0 100 300 150 150 0 000-300zm0 0"/></clipPath><clipPath id="bf"><path d="M154 146h3v3h-3zm0 0"/></clipPath><clipPath id="bg"><path d="M150 0a150 150 0 100 300 150 150 0 000-300zm0 0"/></clipPath><clipPath id="bh"><path d="M152 148h7v2h-7zm0 0"/></clipPath><clipPath id="bi"><path d="M150 0a150 150 0 100 300 150 150 0 000-300zm0 0"/></clipPath><clipPath id="bj"><path d="M146 152h8v3h-8zm0 0"/></clipPath><clipPath id="bk"><path d="M150 0a150 150 0 100 300 150 150 0 000-300zm0 0"/></clipPath><clipPath id="bl"><path d="M145 155h10v3h-10zm0 0"/></clipPath><clipPath id="bm"><path d="M150 0a150 150 0 100 300 150 150 0 000-300zm0 0"/></clipPath><clipPath id="bn"><path d="M146 157h8v1h-8zm0 0"/></clipPath><clipPath id="bo"><path d="M150 0a150 150 0 100 300 150 150 0 000-300zm0 0"/></clipPath><clipPath id="bp"><path d="M145 157h10v3h-10zm0 0"/></clipPath><clipPath id="bq"><path d="M150 0a150 150 0 100 300 150 150 0 000-300zm0 0"/></clipPath><clipPath id="br"><path d="M147 159h6v3h-6zm0 0"/></clipPath><clipPath id="bs"><path d="M150 0a150 150 0 100 300 150 150 0 000-300zm0 0"/></clipPath><clipPath id="bt"><path d="M139 143h11v10h-11zm0 0"/></clipPath><clipPath id="bu"><path d="M150 0a150 150 0 100 300 150 150 0 000-300zm0 0"/></clipPath><clipPath id="bv"><path d="M140 145h9v3h-9zm0 0"/></clipPath><clipPath id="bw"><path d="M150 0a150 150 0 100 300 150 150 0 000-300zm0 0"/></clipPath><clipPath id="bx"><path d="M141 146h7v3h-7zm0 0"/></clipPath><clipPath id="by"><path d="M150 0a150 150 0 100 300 150 150 0 000-300zm0 0"/></clipPath><clipPath id="bz"><path d="M143 146h3v3h-3zm0 0"/></clipPath><clipPath id="bA"><path d="M150 0a150 150 0 100 300 150 150 0 000-300zm0 0"/></clipPath><clipPath id="bB"><path d="M141 148h7v2h-7zm0 0"/></clipPath><clipPath id="bC"><path d="M150 0a150 150 0 100 300 150 150 0 000-300zm0 0"/></clipPath></defs><g clip-path="url(#a)"><path fill="#74acdf" d="M0 0h300v300H0z"/></g><g clip-path="url(#b)"><g clip-path="url(#c)"><path d="M-90 200h480V100H-90zm0 0" fill="#fff"/></g></g><g clip-path="url(#d)"><g clip-path="url(#e)"><path d="M138 156.6c-5.4 2-7 6.4-11.8 7.9-4.8 1.5-6.4 5.2-8 6.5-1.5 1.4-3.1.6-3.2 1.2 0 .7 2 1.2 4.3-.2 2.5-1.5 2.4-3.7 8.3-5.6 5.9-2 6-5.3 11.6-6.8m9.3-11l-27.8 30s-.5.5-.2.9c.4.3 1-.2 1-.2l30-27.9" fill="#f6b40e"/></g></g><g clip-path="url(#f)"><g clip-path="url(#g)"><path d="M138 156.6c-5.4 2-7 6.4-11.8 7.9-4.8 1.5-6.4 5.2-8 6.5-1.5 1.4-3.1.6-3.2 1.2 0 .7 2 1.2 4.3-.2 2.5-1.5 2.4-3.7 8.3-5.6 5.9-2 6-5.3 11.6-6.8m9.3-11l-27.8 30s-.5.5-.2.9c.4.3 1-.2 1-.2l30-27.9" fill="none" stroke-width=".7" stroke="#853409"/></g></g><g clip-path="url(#h)"><g clip-path="url(#i)"><path d="M141.4 160.7c-4.2 3.9-4 8.5-7.8 11.8-3.9 3.2-4 7.2-4.9 9-1 2-2.7 1.8-2.5 2.4.2.6 2.2.4 3.9-1.9 1.7-2.2.8-4.3 5.5-8.3 4.7-4 3.6-7.2 8-10.6m4.5-13.9l-14.2 38.4s-.3.7.2.9c.4.2.7-.5.7-.5l17.1-37.2" fill="#f6b40e"/></g></g><g clip-path="url(#j)"><g clip-path="url(#k)"><path d="M141.4 160.7c-4.2 3.9-4 8.5-7.8 11.8-3.9 3.2-4 7.2-4.9 9-1 2-2.7 1.8-2.5 2.4.2.6 2.2.4 3.9-1.9 1.7-2.2.8-4.3 5.5-8.3 4.7-4 3.6-7.2 8-10.6m4.5-13.9l-14.2 38.4s-.3.7.2.9c.4.2.7-.5.7-.5l17.1-37.2" fill="none" stroke-width=".7" stroke="#853409"/></g></g><g clip-path="url(#l)"><g clip-path="url(#m)"><path d="M151.5 163.7c-.2 5.6 3.3 8.8 2.8 13.8-.4 5 2.3 8 3 9.9.6 2-.7 3.1-.2 3.4.6.3 1.9-1.3 1.5-4-.4-2.9-2.6-3.7-2-9.9.4-6.1-2.6-7.6-1.8-13.2m-6.7-13l17 37.3s.4.7.8.5c.5-.2.2-1 .2-1L152 149.3" fill="#f6b40e"/></g></g><g clip-path="url(#n)"><g clip-path="url(#o)"><path d="M151.5 163.7c-.2 5.6 3.3 8.8 2.8 13.8-.4 5 2.3 8 3 9.9.6 2-.7 3.1-.2 3.4.6.3 1.9-1.3 1.5-4-.4-2.9-2.6-3.7-2-9.9.4-6.1-2.6-7.6-1.8-13.2m-6.7-13l17 37.3s.4.7.8.5c.5-.2.2-1 .2-1L152 149.3" fill="none" stroke-width=".7" stroke="#853409"/></g></g><g clip-path="url(#p)"><g clip-path="url(#q)"><path d="M146.1 163.2c-2.3 5.2-.3 9.4-2.7 13.9-2.3 4.5-.8 8.2-1 10.2-.1 2-1.8 2.6-1.4 3.1.4.5 2.2-.4 2.9-3.2.7-2.7-1-4.3 1.8-9.8 2.9-5.5.6-8 3.4-13M148 150l1.6 40.9s0 .8.5.8.5-.8.5-.8l1.6-40.9" fill="#f6b40e"/></g></g><g clip-path="url(#r)"><g clip-path="url(#s)"><path d="M146.1 163.2c-2.3 5.2-.3 9.4-2.7 13.9-2.3 4.5-.8 8.2-1 10.2-.1 2-1.8 2.6-1.4 3.1.4.5 2.2-.4 2.9-3.2.7-2.7-1-4.3 1.8-9.8 2.9-5.5.6-8 3.4-13M148 150l1.6 40.9s0 .8.5.8.5-.8.5-.8l1.6-40.9" fill="none" stroke-width=".7" stroke="#853409"/></g></g><g clip-path="url(#t)"><g clip-path="url(#u)"><path d="M136.8 146.1c-5.2-2.3-9.4-.3-13.9-2.7-4.5-2.3-8.2-.8-10.2-1-2-.1-2.6-1.8-3.1-1.4-.5.4.4 2.2 3.2 2.9 2.7.7 4.3-1 9.8 1.8 5.5 2.9 8 .6 13 3.4M150 148l-40.9 1.6s-.8 0-.8.5.8.5.8.5l40.9 1.6" fill="#f6b40e"/></g></g><g clip-path="url(#v)"><g clip-path="url(#w)"><path d="M136.8 146.1c-5.2-2.3-9.4-.3-13.9-2.7-4.5-2.3-8.2-.8-10.2-1-2-.1-2.6-1.8-3.1-1.4-.5.4.4 2.2 3.2 2.9 2.7.7 4.3-1 9.8 1.8 5.5 2.9 8 .6 13 3.4M150 148l-40.9 1.6s-.8 0-.8.5.8.5.8.5l40.9 1.6" fill="none" stroke-width=".7" stroke="#853409"/></g></g><g clip-path="url(#x)"><g clip-path="url(#y)"><path d="M139.3 141.4c-3.9-4.2-8.5-4-11.8-7.8-3.2-3.9-7.2-4-9-4.9-2-1-1.8-2.7-2.4-2.5-.6.2-.4 2.2 1.9 3.9 2.2 1.7 4.3.8 8.3 5.5 4 4.7 7.2 3.6 10.6 8m13.9 4.5L112.4 134s-.7-.3-.9.2c-.2.4.5.7.5.7l37.2 17.1" fill="#f6b40e"/></g></g><g clip-path="url(#z)"><g clip-path="url(#A)"><path d="M139.3 141.4c-3.9-4.2-8.5-4-11.8-7.8-3.2-3.9-7.2-4-9-4.9-2-1-1.8-2.7-2.4-2.5-.6.2-.4 2.2 1.9 3.9 2.2 1.7 4.3.8 8.3 5.5 4 4.7 7.2 3.6 10.6 8m13.9 4.5L112.4 134s-.7-.3-.9.2c-.2.4.5.7.5.7l37.2 17.1" fill="none" stroke-width=".7" stroke="#853409"/></g></g><g clip-path="url(#B)"><g clip-path="url(#C)"><path d="M143.4 138c-2-5.4-6.4-7-7.9-11.8-1.5-4.8-5.2-6.4-6.5-8-1.4-1.5-.6-3.1-1.2-3.2-.7 0-1.2 2 .2 4.3 1.5 2.5 3.7 2.4 5.6 8.3 2 5.9 5.3 6 6.8 11.6m11 9.3l-30-27.8s-.5-.5-.9-.2c-.3.4.2 1 .2 1l27.9 30" fill="#f6b40e"/></g></g><g clip-path="url(#D)"><g clip-path="url(#E)"><path d="M143.4 138c-2-5.4-6.4-7-7.9-11.8-1.5-4.8-5.2-6.4-6.5-8-1.4-1.5-.6-3.1-1.2-3.2-.7 0-1.2 2 .2 4.3 1.5 2.5 3.7 2.4 5.6 8.3 2 5.9 5.3 6 6.8 11.6m11 9.3l-30-27.8s-.5-.5-.9-.2c-.3.4.2 1 .2 1l27.9 30" fill="none" stroke-width=".7" stroke="#853409"/></g></g><g clip-path="url(#F)"><g clip-path="url(#G)"><path d="M149.2 149.3l-19.1 20.6 20.6-19.2m-13.2 7.3c-5 2.3-6 6-10.8 7.4 4.1-.2 5.7-4.4 11.1-6.4" fill="#853409"/></g></g><g clip-path="url(#H)"><g clip-path="url(#I)"><path d="M149 150l1 28.1 1-28m-4.2 14.4c-1.8 5.1 0 8.5-2.4 12.9 2.8-3.1 1-7.2 3.3-12.4" fill="#853409"/></g></g><g clip-path="url(#J)"><g clip-path="url(#K)"><path d="M149 149.6l-9.8 26.4 11.7-25.6m-9.4 11.8c-3.7 4-3.2 7.9-7.1 11 3.7-1.9 3.6-6.3 7.8-10.2" fill="#853409"/></g></g><g clip-path="url(#L)"><g clip-path="url(#M)"><path d="M136.3 151.5c-5.6-.2-8.8 3.3-13.8 2.8s-8 2.3-9.9 3c-2 .6-3.1-.7-3.4-.2-.3.6 1.3 1.9 4 1.5 2.9-.4 3.7-2.6 9.9-2 6.1.4 7.6-2.6 13.2-1.8m13-6.7l-37.3 17s-.7.4-.5.8c.2.5 1 .2 1 .2l38.3-14.2" fill="#f6b40e"/></g></g><g clip-path="url(#N)"><g clip-path="url(#O)"><path d="M136.3 151.5c-5.6-.2-8.8 3.3-13.8 2.8s-8 2.3-9.9 3c-2 .6-3.1-.7-3.4-.2-.3.6 1.3 1.9 4 1.5 2.9-.4 3.7-2.6 9.9-2 6.1.4 7.6-2.6 13.2-1.8m13-6.7l-37.3 17s-.7.4-.5.8c.2.5 1 .2 1 .2l38.3-14.2" fill="none" stroke-width=".7" stroke="#853409"/></g></g><g clip-path="url(#P)"><g clip-path="url(#Q)"><path d="M149.6 149L124 160.8l26.3-9.8m-15 1.7c-5.4.3-7.8 3.3-12.7 2.7 3.9 1.4 7-1.8 12.7-1.7" fill="#853409"/></g></g><g clip-path="url(#R)"><g clip-path="url(#S)"><path d="M150 149l-28.1 1 28 1m-14.4-4.2c-5.1-1.8-8.5 0-12.9-2.4 3.1 2.8 7.1 1 12.4 3.3" fill="#853409"/></g></g><g clip-path="url(#T)"><g clip-path="url(#U)"><path d="M150.4 149l-26.4-9.8 25.6 11.7m-11.8-9.4c-4-3.7-7.9-3.2-11-7.1 1.9 3.7 6.3 3.6 10.2 7.8" fill="#853409"/></g></g><g clip-path="url(#V)"><g clip-path="url(#W)"><path d="M150.7 149.2l-20.6-19.1 19.2 20.6m-7.3-13.2c-2.3-5-6-6-7.4-10.8.2 4.1 4.4 5.7 6.4 11.1" fill="#853409"/></g></g><g clip-path="url(#X)"><g clip-path="url(#Y)"><path d="M148.5 136.3c.2-5.6-3.3-8.8-2.8-13.8s-2.3-8-3-9.9c-.6-2 .7-3.1.2-3.4-.6-.3-1.9 1.3-1.5 4 .4 2.9 2.6 3.7 2 9.9-.4 6.1 2.6 7.6 1.8 13.2m6.7 13l-17-37.3s-.4-.7-.8-.5c-.5.2-.2 1-.2 1l14.2 38.3" fill="#f6b40e"/></g></g><g clip-path="url(#Z)"><g clip-path="url(#aa)"><path d="M148.5 136.3c.2-5.6-3.3-8.8-2.8-13.8s-2.3-8-3-9.9c-.6-2 .7-3.1.2-3.4-.6-.3-1.9 1.3-1.5 4 .4 2.9 2.6 3.7 2 9.9-.4 6.1 2.6 7.6 1.8 13.2m6.7 13l-17-37.3s-.4-.7-.8-.5c-.5.2-.2 1-.2 1l14.2 38.3" fill="none" stroke-width=".7" stroke="#853409"/></g></g><g clip-path="url(#ab)"><g clip-path="url(#ac)"><path d="M153.9 136.8c2.3-5.2.3-9.4 2.7-13.9 2.3-4.5.8-8.2 1-10.2.1-2 1.8-2.6 1.4-3.1-.4-.5-2.2.4-2.9 3.2-.7 2.7 1 4.3-1.8 9.8-2.9 5.5-.6 8-3.4 13M152 150l-1.6-40.9s0-.8-.5-.8-.5.8-.5.8l-1.6 40.9" fill="#f6b40e"/></g></g><g clip-path="url(#ad)"><g clip-path="url(#ae)"><path d="M153.9 136.8c2.3-5.2.3-9.4 2.7-13.9 2.3-4.5.8-8.2 1-10.2.1-2 1.8-2.6 1.4-3.1-.4-.5-2.2.4-2.9 3.2-.7 2.7 1 4.3-1.8 9.8-2.9 5.5-.6 8-3.4 13M152 150l-1.6-40.9s0-.8-.5-.8-.5.8-.5.8l-1.6 40.9" fill="none" stroke-width=".7" stroke="#853409"/></g></g><g clip-path="url(#af)"><g clip-path="url(#ag)"><path d="M158.6 139.3c4.2-3.9 4-8.5 7.8-11.8 3.9-3.2 4-7.2 4.9-9 1-2 2.7-1.8 2.5-2.4-.2-.6-2.2-.4-3.9 1.9-1.7 2.2-.8 4.3-5.5 8.3-4.7 4-3.6 7.2-8 10.6m-4.5 13.9l14.2-38.4s.3-.7-.2-.9c-.4-.2-.7.5-.7.5L148 149.2" fill="#f6b40e"/></g></g><g clip-path="url(#ah)"><g clip-path="url(#ai)"><path d="M158.6 139.3c4.2-3.9 4-8.5 7.8-11.8 3.9-3.2 4-7.2 4.9-9 1-2 2.7-1.8 2.5-2.4-.2-.6-2.2-.4-3.9 1.9-1.7 2.2-.8 4.3-5.5 8.3-4.7 4-3.6 7.2-8 10.6m-4.5 13.9l14.2-38.4s.3-.7-.2-.9c-.4-.2-.7.5-.7.5L148 149.2" fill="none" stroke-width=".7" stroke="#853409"/></g></g><g clip-path="url(#aj)"><g clip-path="url(#ak)"><path d="M162 143.4c5.4-2 7-6.4 11.8-7.9 4.8-1.5 6.4-5.2 8-6.5 1.5-1.4 3.1-.6 3.2-1.2 0-.7-2-1.2-4.3.2-2.5 1.5-2.4 3.7-8.3 5.6-5.9 2-6 5.3-11.6 6.8m-9.3 11l27.8-30s.5-.5.2-.9c-.4-.3-1 .2-1 .2l-30 27.9" fill="#f6b40e"/></g></g><g clip-path="url(#al)"><g clip-path="url(#am)"><path d="M162 143.4c5.4-2 7-6.4 11.8-7.9 4.8-1.5 6.4-5.2 8-6.5 1.5-1.4 3.1-.6 3.2-1.2 0-.7-2-1.2-4.3.2-2.5 1.5-2.4 3.7-8.3 5.6-5.9 2-6 5.3-11.6 6.8m-9.3 11l27.8-30s.5-.5.2-.9c-.4-.3-1 .2-1 .2l-30 27.9" fill="none" stroke-width=".7" stroke="#853409"/></g></g><g clip-path="url(#an)"><g clip-path="url(#ao)"><path d="M156.6 162c2 5.4 6.4 7 7.9 11.8 1.5 4.8 5.2 6.4 6.5 8 1.4 1.5.6 3.1 1.2 3.2.7 0 1.2-2-.2-4.3-1.5-2.5-3.7-2.4-5.6-8.3-2-5.9-5.3-6-6.8-11.6m-11-9.3l30 27.8s.5.5.9.2c.3-.4-.2-1-.2-1l-27.9-30" fill="#f6b40e"/></g></g><g clip-path="url(#ap)"><g clip-path="url(#aq)"><path d="M156.6 162c2 5.4 6.4 7 7.9 11.8 1.5 4.8 5.2 6.4 6.5 8 1.4 1.5.6 3.1 1.2 3.2.7 0 1.2-2-.2-4.3-1.5-2.5-3.7-2.4-5.6-8.3-2-5.9-5.3-6-6.8-11.6m-11-9.3l30 27.8s.5.5.9.2c.3-.4-.2-1-.2-1l-27.9-30" fill="none" stroke-width=".7" stroke="#853409"/></g></g><g clip-path="url(#ar)"><g clip-path="url(#as)"><path d="M163.2 153.9c5.2 2.3 9.4.3 13.9 2.7 4.5 2.3 8.2.8 10.2 1 2 .1 2.6 1.8 3.1 1.4.5-.4-.4-2.2-3.2-2.9-2.7-.7-4.3 1-9.8-1.8-5.5-2.9-8-.6-13-3.4M150 152l40.9-1.6s.8 0 .8-.5-.8-.5-.8-.5l-40.9-1.6" fill="#f6b40e"/></g></g><g clip-path="url(#at)"><g clip-path="url(#au)"><path d="M163.2 153.9c5.2 2.3 9.4.3 13.9 2.7 4.5 2.3 8.2.8 10.2 1 2 .1 2.6 1.8 3.1 1.4.5-.4-.4-2.2-3.2-2.9-2.7-.7-4.3 1-9.8-1.8-5.5-2.9-8-.6-13-3.4M150 152l40.9-1.6s.8 0 .8-.5-.8-.5-.8-.5l-40.9-1.6" fill="none" stroke-width=".7" stroke="#853409"/></g></g><g clip-path="url(#av)"><g clip-path="url(#aw)"><path d="M160.7 158.6c3.9 4.2 8.5 4 11.8 7.8 3.2 3.9 7.2 4 9 4.9 2 1 1.8 2.7 2.4 2.5.6-.2.4-2.2-1.9-3.9-2.2-1.7-4.3-.8-8.3-5.5-4-4.7-7.2-3.6-10.6-8m-13.9-4.5l38.4 14.2s.7.3.9-.2c.2-.4-.5-.7-.5-.7L150.8 148" fill="#f6b40e"/></g></g><g clip-path="url(#ax)"><g clip-path="url(#ay)"><path d="M160.7 158.6c3.9 4.2 8.5 4 11.8 7.8 3.2 3.9 7.2 4 9 4.9 2 1 1.8 2.7 2.4 2.5.6-.2.4-2.2-1.9-3.9-2.2-1.7-4.3-.8-8.3-5.5-4-4.7-7.2-3.6-10.6-8m-13.9-4.5l38.4 14.2s.7.3.9-.2c.2-.4-.5-.7-.5-.7L150.8 148" fill="none" stroke-width=".7" stroke="#853409"/></g></g><g clip-path="url(#az)"><g clip-path="url(#aA)"><path d="M151 150l-1-28.1-1 28m4.2-14.4c1.8-5.1 0-8.5 2.4-12.9-2.8 3.1-1 7.1-3.3 12.4" fill="#853409"/></g></g><g clip-path="url(#aB)"><g clip-path="url(#aC)"><path d="M151 150.4l9.8-26.4-11.7 25.6m9.4-11.8c3.7-4 3.2-7.9 7.1-11-3.7 1.9-3.6 6.3-7.8 10.2" fill="#853409"/></g></g><g clip-path="url(#aD)"><g clip-path="url(#aE)"><path d="M150.8 150.7l19.1-20.6-20.6 19.2m13.2-7.3c5-2.3 6-6 10.8-7.4-4.1.2-5.7 4.4-11.1 6.4" fill="#853409"/></g></g><g clip-path="url(#aF)"><g clip-path="url(#aG)"><path d="M151 149.6L139.2 124l9.8 26.3m-1.7-15c-.3-5.4-3.3-7.8-2.7-12.7-1.4 3.9 1.8 7 1.7 12.7" fill="#853409"/></g></g><g clip-path="url(#aH)"><g clip-path="url(#aI)"><path d="M163.7 148.5c5.6.2 8.8-3.3 13.8-2.8 5 .4 8-2.3 9.9-3 2-.6 3.1.7 3.4.2.3-.6-1.3-1.9-4-1.5-2.9.4-3.7 2.6-9.9 2-6.1-.4-7.6 2.6-13.2 1.8m-13 6.7l37.3-17s.7-.4.5-.8c-.2-.5-1-.2-1-.2L149.3 148" fill="#f6b40e"/></g></g><g clip-path="url(#aJ)"><g clip-path="url(#aK)"><path d="M163.7 148.5c5.6.2 8.8-3.3 13.8-2.8 5 .4 8-2.3 9.9-3 2-.6 3.1.7 3.4.2.3-.6-1.3-1.9-4-1.5-2.9.4-3.7 2.6-9.9 2-6.1-.4-7.6 2.6-13.2 1.8m-13 6.7l37.3-17s.7-.4.5-.8c-.2-.5-1-.2-1-.2L149.3 148" fill="none" stroke-width=".7" stroke="#853409"/></g></g><g clip-path="url(#aL)"><g clip-path="url(#aM)"><path d="M150.4 151l25.6-11.7-26.3 9.8m15-1.7c5.4-.3 7.8-3.3 12.7-2.7-3.9-1.4-7 1.8-12.7 1.7" fill="#853409"/></g></g><g clip-path="url(#aN)"><g clip-path="url(#aO)"><path d="M150 151l28.1-1-28-1m14.4 4.2c5.1 1.8 8.5 0 12.9 2.4-3.1-2.8-7.2-1-12.4-3.3" fill="#853409"/></g></g><g clip-path="url(#aP)"><g clip-path="url(#aQ)"><path d="M149.6 151l26.4 9.8-25.6-11.7m11.8 9.4c4 3.7 7.9 3.2 11 7.1-1.9-3.7-6.3-3.6-10.2-7.8" fill="#853409"/></g></g><g clip-path="url(#aR)"><g clip-path="url(#aS)"><path d="M149.3 150.8l20.6 19.1-19.2-20.6m7.3 13.2c2.3 5 6 6 7.4 10.8-.2-4.1-4.4-5.7-6.4-11.1" fill="#853409"/></g></g><g clip-path="url(#aT)"><g clip-path="url(#aU)"><path d="M149 150.4l11.7 25.6-9.8-26.3m1.7 15c.3 5.4 3.3 7.8 2.7 12.7 1.4-3.9-1.8-7-1.7-12.7" fill="#853409"/></g></g><g clip-path="url(#aV)"><g clip-path="url(#aW)"><path d="M150 133.3a16.7 16.7 0 110 33.4 16.7 16.7 0 010-33.4" fill="#f6b40e"/></g></g><g clip-path="url(#aX)"><g clip-path="url(#aY)"><path d="M150 133.3a16.7 16.7 0 110 33.4 16.7 16.7 0 010-33.4zm0 0" fill="none" stroke-width=".9" stroke="#853409"/></g></g><g clip-path="url(#aZ)"><g clip-path="url(#ba)"><path d="M155.7 146.7c1 0 2.1.5 2.2 1-1.2 1.4-3.3 1.3-4.6.3.6-1 1.5-1.3 2.4-1.3m0-.3c-1.2 0-2.2.5-2.9 1.6 1.3 1.1 4.1 1.2 6-.2a4.4 4.4 0 00-3.1-1.4" fill="#843511"/></g></g><g clip-path="url(#bb)"><g clip-path="url(#bc)"><path d="M155.9 145.6c-1.7 0-2 .4-2.8 1-.8.7-1.2.6-1.3.7-.1.1 0 .5.3.4l1.5-1c.8-.7 1.5-.7 2.3-.7 2.3 0 3.6 2 3.8 1.8.3-.1-1.2-2.2-3.8-2.2" fill="#853409"/></g></g><g clip-path="url(#bd)"><g clip-path="url(#be)"><path d="M160.5 146.4c-3-2.6-6.7-3-8.7-1a5 5 0 00-1 2.1c-.2 1.5.2 3 1.4 4.7l-.5.2c-1-2-1.4-4-1-5.8a8.7 8.7 0 01.3-1.5c2.8-2.3 6.7-2.5 9.5 1.3" fill="#853409"/></g></g><g clip-path="url(#bf)"><g clip-path="url(#bg)"><path d="M155.6 146.5a1.2 1.2 0 110 2.3 1.2 1.2 0 010-2.3" fill="#853409"/></g></g><g clip-path="url(#bh)"><g clip-path="url(#bi)"><path d="M159 148.5c-2.2 1.6-4.4 1.5-5.7.7-1.2-.7-1.2-1-1-1 .3 0 .5.3 1.5.8s2.6.5 5.2-.5" fill="#853409"/></g></g><g clip-path="url(#bj)"><g clip-path="url(#bk)"><path d="M147.4 152.3a1.2 1.2 0 00.3 2.3c.4 0 .7-.2 1-.5.4.3 1 .4 1.3.4h.1c.4 0 1 0 1.4-.4.3.3.6.5 1 .5a1.2 1.2 0 00.2-2.3.8.8 0 01-.3 1.5.8.8 0 01-.7-.7 2 2 0 01-1.6 1 2 2 0 01-1.6-1 .8.8 0 01-.8.7.8.8 0 01-.8-.8c0-.3.2-.6.5-.7" fill="#853409"/></g></g><g clip-path="url(#bl)"><g clip-path="url(#bm)"><path d="M148.7 155.7c-1.3 0-1.8 1.2-3 2 .7-.3 1.2-.8 2.1-1.3.9-.5 1.7 0 2.2 0 .5 0 1.3-.5 2.2 0 .9.5 1.4 1 2 1.2-1.1-.7-1.6-1.9-3-1.9l-1.2.4-1.3-.4" fill="#853409"/></g></g><g clip-path="url(#bn)"><g clip-path="url(#bo)"><path d="M148.3 157.2a9 9 0 00-2.2.4c2.3-.5 2.9.3 3.9.3s1.5-.8 3.8-.3c-2.5-.7-3-.2-3.8-.2l-1.7-.2" fill="#853409"/></g></g><g clip-path="url(#bp)"><g clip-path="url(#bq)"><path d="M146.3 157.6h-.5c2.7.3 1.4 1.9 4.2 1.9 2.8 0 1.5-1.6 4.2-1.8-2.8-.3-1.9 1.4-4.2 1.4-2.2 0-1.5-1.5-3.8-1.5" fill="#853409"/></g></g><g clip-path="url(#br)"><g clip-path="url(#bs)"><path d="M152.3 161.8a2.3 2.3 0 10-4.6 0 2.4 2.4 0 012.3-1.8c1.1 0 2 .7 2.3 1.8" fill="#853409"/></g></g><g clip-path="url(#bt)"><g clip-path="url(#bu)"><path d="M139.6 146.4c3-2.6 6.7-3 8.8-1a5 5 0 011 2.1c.2 1.5-.3 3-1.4 4.7l.5.2c1-2 1.4-4 1-5.8a8 8 0 00-.4-1.5c-2.8-2.3-6.6-2.5-9.5 1.3" fill="#853409"/></g></g><g clip-path="url(#bv)"><g clip-path="url(#bw)"><path d="M144.3 145.6c1.6 0 2 .4 2.8 1 .7.7 1.1.6 1.3.7 0 .1 0 .5-.3.4-.3-.1-.8-.4-1.5-1-.8-.7-1.6-.7-2.3-.7-2.4 0-3.6 2-3.9 1.8-.2-.1 1.3-2.2 3.9-2.2" fill="#853409"/></g></g><g clip-path="url(#bx)"><g clip-path="url(#by)"><path d="M144.2 146.7c1 0 2.1.5 2.2 1-1.2 1.4-3.3 1.3-4.6.3.6-1 1.5-1.3 2.4-1.3m0-.3c-1.2 0-2.3.5-2.9 1.6 1.3 1.1 4.1 1.2 6-.2a4.4 4.4 0 00-3.1-1.4" fill="#843511"/></g></g><g clip-path="url(#bz)"><g clip-path="url(#bA)"><path d="M144.3 146.5c.7 0 1.2.6 1.2 1.2a1.2 1.2 0 11-2.3 0c0-.6.5-1.2 1.1-1.2" fill="#853409"/></g></g><g clip-path="url(#bB)"><g clip-path="url(#bC)"><path d="M141.2 148.5c2.2 1.6 4.3 1.5 5.6.7 1.3-.7 1.3-1 1-1l-1.5.8c-1 .5-2.6.5-5.1-.5" fill="#853409"/></g></g></svg>