<svg xmlns="http://www.w3.org/2000/svg" width="400" height="400" viewBox="0 0 300 300"><defs><clipPath id="a"><path d="M150 0a150 150 0 100 300 150 150 0 000-300zm0 0"/></clipPath><clipPath id="b"><path d="M0 199h300v18H0zm0 0"/></clipPath><clipPath id="c"><path d="M150 0a150 150 0 100 300 150 150 0 000-300zm0 0"/></clipPath><clipPath id="d"><path d="M0 234h300v19H0zm0 0"/></clipPath><clipPath id="e"><path d="M150 0a150 150 0 100 300 150 150 0 000-300zm0 0"/></clipPath><clipPath id="f"><path d="M26 28h96v94H26zm0 0"/></clipPath><clipPath id="g"><path d="M150 0a150 150 0 100 300 150 150 0 000-300zm0 0"/></clipPath><clipPath id="h"><path d="M19 21h110v108H19zm0 0"/></clipPath><clipPath id="i"><path d="M150 0a150 150 0 100 300 150 150 0 000-300zm0 0"/></clipPath><clipPath id="j"><path d="M31 32h87v85H31zm0 0"/></clipPath><clipPath id="k"><path d="M150 0a150 150 0 100 300 150 150 0 000-300zm0 0"/></clipPath></defs><g clip-path="url(#a)"><path fill="#4d8fc8" d="M0 0h300v300H0z"/></g><g clip-path="url(#b)"><g clip-path="url(#c)"><path d="M0 217h300v-17.7H0zm0 0" fill-rule="evenodd" fill="#f5d129"/></g></g><g clip-path="url(#d)"><g clip-path="url(#e)"><path d="M0 252.3h300v-17.7H0zm0 0" fill-rule="evenodd" fill="#f5d129"/></g></g><g clip-path="url(#f)"><g clip-path="url(#g)"><path d="M74.2 28l11.1 35.7 36.2 11-36.2 10.9-11 35.6L63 85.6 27 74.6l36.2-11" fill-rule="evenodd" fill="#fff"/></g></g><g clip-path="url(#h)"><g clip-path="url(#i)"><path d="M74.2 28l11.1 35.7 36.2 11-36.2 10.9-11 35.6L63 85.6 27 74.6l36.2-11zm0 0" fill="none" stroke-width=".2" stroke="#fff" stroke-miterlimit="22.9"/></g></g><g clip-path="url(#j)"><g clip-path="url(#k)"><path d="M74.2 32.3l10.1 32.4 32.9 10-32.9 9.9-10 32.4L64 84.6l-32.9-10 33-10" fill-rule="evenodd" fill="#e44f4f"/></g></g></svg>