<svg xmlns="http://www.w3.org/2000/svg" width="400" height="400" viewBox="0 0 300 300"><defs><clipPath id="a"><path d="M150 0a150 150 0 100 300 150 150 0 000-300zm0 0"/></clipPath><clipPath id="b"><path d="M0 0h200v150H0zm0 0"/></clipPath><clipPath id="c"><path d="M0 150h200V8.5A150 150 0 000 150"/></clipPath><clipPath id="d"><path d="M0 0h200v150H0zm0 0"/></clipPath><clipPath id="e"><path d="M50 38.2V75L27.3 63.7A149.7 149.7 0 0020.1 75H50L189.5 5.3A150.1 150.1 0 0050 38.2M50 75l150 75h50V75zM10.5 94.7A149.7 149.7 0 002.1 175H50V75zm0 0"/></clipPath><clipPath id="f"><path d="M0 0h250v175H0zm0 0"/></clipPath><clipPath id="g"><path d="M50 38.2V75L27.3 63.7A149.7 149.7 0 0020.1 75H50L189.5 5.3A150.1 150.1 0 0050 38.2M50 75l150 75h50V75zM10.5 94.7A149.7 149.7 0 002.1 175H50V75zm0 0"/></clipPath><clipPath id="h"><path d="M0 0h250v175H0zm0 0"/></clipPath><clipPath id="i"><path d="M150 0a150 150 0 100 300 150 150 0 000-300zm0 0"/></clipPath><clipPath id="j"><path d="M0 0h274v199H0zm0 0"/></clipPath><clipPath id="k"><path d="M150 0a150 150 0 100 300 150 150 0 000-300zm0 0"/></clipPath><clipPath id="l"><path d="M0 0h211v161H0zm0 0"/></clipPath><clipPath id="m"><path d="M150 0a150 150 0 100 300 150 150 0 000-300zm0 0"/></clipPath><clipPath id="n"><path d="M0 0h225v175H0zm0 0"/></clipPath><clipPath id="o"><path d="M150 0a150 150 0 100 300 150 150 0 000-300zm0 0"/></clipPath><clipPath id="p"><path d="M0 0h300v200H0zm0 0"/></clipPath><clipPath id="q"><path d="M150 0a150 150 0 100 300 150 150 0 000-300zm0 0"/></clipPath><clipPath id="r"><path d="M6 180h88v86H6zm0 0"/></clipPath><clipPath id="s"><path d="M150 0a150 150 0 100 300 150 150 0 000-300zm0 0"/></clipPath><clipPath id="t"><path d="M254 109h42v42h-42zm0 0"/></clipPath><clipPath id="u"><path d="M150 0a150 150 0 100 300 150 150 0 000-300zm0 0"/></clipPath></defs><g clip-path="url(#a)"><path fill="#00008a" d="M0 0h300v300H0z"/></g><g clip-path="url(#b)"><g clip-path="url(#c)"><path d="M200 0l-300 150m0-150l300 150" stroke-width="35.2" stroke="#fff"/></g></g><g clip-path="url(#d)"><g clip-path="url(#e)"><path d="M200 0l-300 150m0-150l300 150"/></g></g><g clip-path="url(#f)"><g clip-path="url(#g)"><path d="M200 0l-300 150m0-150l300 150" fill="none" stroke-width="18.8" stroke="red"/></g></g><g clip-path="url(#h)"><g clip-path="url(#i)"><path d="M-100 75h350M50 0v175"/></g></g><g clip-path="url(#j)"><g clip-path="url(#k)"><path d="M-100 75h350M50 0v175" fill="none" stroke-width="46.9" stroke="#fff"/></g></g><g clip-path="url(#l)"><g clip-path="url(#m)"><path d="M-100 75h310.5M50 0v160.5"/></g></g><g clip-path="url(#n)"><g clip-path="url(#o)"><path d="M-100 75h310.5M50 0v160.5" fill="none" stroke-width="28.1" stroke="red"/></g></g><g clip-path="url(#p)"><g clip-path="url(#q)"><path d="M-100 150h300V0h100v200h-400" fill="#00008a"/></g></g><g clip-path="url(#r)"><g clip-path="url(#s)"><path d="M50 180l8.7 27 26.5-10-15.7 23.6L93.9 235l-28.3 2.5 4 28L50 245l-19.5 20.5 3.9-28L6 235l24.4-14.4-15.7-23.7 26.5 10" fill="#fff"/></g></g><g clip-path="url(#t)"><g clip-path="url(#u)"><path d="M275 109.8l4.1 12.9 12.7-4.8-7.5 11.2 11.6 7-13.5 1 1.9 13.5-9.3-9.8-9.3 9.8 1.9-13.4L254 136l11.6-6.9-7.5-11.2 12.7 4.8" fill="#fff"/></g></g></svg>