<svg xmlns="http://www.w3.org/2000/svg" width="400" height="400" viewBox="0 0 300 300"><defs><clipPath id="a"><path d="M150 0a150 150 0 100 300 150 150 0 000-300zm0 0"/></clipPath><clipPath id="b"><path d="M0 100h300v100H0zm0 0"/></clipPath><clipPath id="c"><path d="M150 0a150 150 0 100 300 150 150 0 000-300zm0 0"/></clipPath><clipPath id="d"><path d="M0 200h300v100H0zm0 0"/></clipPath><clipPath id="e"><path d="M150 0a150 150 0 100 300 150 150 0 000-300zm0 0"/></clipPath><clipPath id="f"><path d="M95 105h91v90H95zm0 0"/></clipPath><clipPath id="g"><path d="M150 0a150 150 0 100 300 150 150 0 000-300zm0 0"/></clipPath><clipPath id="h"><path d="M112 112h76v76h-76zm0 0"/></clipPath><clipPath id="i"><path d="M150 0a150 150 0 100 300 150 150 0 000-300zm0 0"/></clipPath><clipPath id="j"><path d="M165 125h51v50h-51zm0 0"/></clipPath><clipPath id="k"><path d="M150 0a150 150 0 100 300 150 150 0 000-300zm0 0"/></clipPath></defs><g clip-path="url(#a)"><path fill="#0097c3" d="M0 0h300v300H0z"/></g><g clip-path="url(#b)"><g clip-path="url(#c)"><path d="M-150 200h600V100h-600zm0 0" fill="#df0034"/></g></g><g clip-path="url(#d)"><g clip-path="url(#e)"><path d="M-150 300h600V200h-600zm0 0" fill="#00ad64"/></g></g><g clip-path="url(#f)"><g clip-path="url(#g)"><path d="M140.5 105a45 45 0 110 90 45 45 0 010-90" fill="#fff"/></g></g><g clip-path="url(#h)"><g clip-path="url(#i)"><path d="M150 112.5a37.5 37.5 0 110 75 37.5 37.5 0 010-75" fill="#df0034"/></g></g><g clip-path="url(#j)"><g clip-path="url(#k)"><path d="M208.2 167.7l-13-6.2-4.7 13.5-4.8-13.4-12.9 6 6.2-12.8-13.5-4.8 13.4-4.8-6-12.9 12.8 6.2 4.8-13.5 4.8 13.4 12.9-6-6.2 12.8 13.5 4.8-13.4 4.8" fill="#fff"/></g></g></svg>