<svg xmlns="http://www.w3.org/2000/svg" width="400" height="400" viewBox="0 0 300 300"><defs><clipPath id="a"><path d="M150 0a150 150 0 100 300 150 150 0 000-300zm0 0"/></clipPath><clipPath id="b"><path d="M75 0h150v300H75zm0 0"/></clipPath><clipPath id="c"><path d="M150 0a150 150 0 100 300 150 150 0 000-300zm0 0"/></clipPath><clipPath id="d"><path d="M148 77h67v146h-67zm0 0"/></clipPath><clipPath id="e"><path d="M150 0a150 150 0 100 300 150 150 0 000-300zm0 0"/></clipPath><clipPath id="f"><path d="M85 77h67v146H85zm0 0"/></clipPath><clipPath id="g"><path d="M150 0a150 150 0 100 300 150 150 0 000-300zm0 0"/></clipPath></defs><g clip-path="url(#a)"><path fill="#00257e" d="M0 0h300v300H0z"/></g><g clip-path="url(#b)"><g clip-path="url(#c)"><path d="M75 300h150V0H75zm0 0" fill="#ffc625"/></g></g><g clip-path="url(#d)"><g clip-path="url(#e)"><path d="M150 77.3c4.9 13.3 9.8 27.2 20.5 37.8-3.3-1.1-9.1-2.1-12.8-2V169l15.8 2.3c.5 0 .7-.9.7-2.1 1.5-17.4 5.7-32 10.4-47 .3-2.1 6.3-10 1.7-8.6-.6 0-6.7 2.6-5.8 1.4 8.4-8.7 20.7-15 32.6-16.8 1-.3 1.7.2.8 1.5-15.9 24.3-29.1 53-29 87.2-6.1 0-21-3.7-27.2-3.7v39.5h-7.8l-1.8-110.2"/></g></g><g clip-path="url(#f)"><g clip-path="url(#g)"><path d="M150 77.3c-4.9 13.3-9.8 27.2-20.5 37.8 3.3-1.1 9.1-2.1 12.8-2V169l-15.8 2.3c-.5 0-.7-.9-.7-2.1-1.5-17.4-5.7-32-10.4-47-.3-2.1-6.3-10-1.7-8.6.6 0 6.7 2.6 5.8 1.4a59.7 59.7 0 00-32.6-16.8c-1-.3-1.7.2-.8 1.5 15.9 24.3 29.1 53 29 87.2 6.1 0 21-3.7 27.2-3.7v39.5h7.8l1.8-110.2"/></g></g></svg>