<svg xmlns="http://www.w3.org/2000/svg" width="400" height="400" viewBox="0 0 300 300"><defs><clipPath id="a"><path d="M150 0a150 150 0 100 300 150 150 0 000-300zm0 0"/></clipPath><clipPath id="b"><path d="M0 200h300v100H0zm0 0"/></clipPath><clipPath id="c"><path d="M150 0a150 150 0 100 300 150 150 0 000-300zm0 0"/></clipPath><clipPath id="d"><path d="M0 0h67v300H0zm0 0"/></clipPath><clipPath id="e"><path d="M150 0a150 150 0 100 300 150 150 0 000-300zm0 0"/></clipPath><clipPath id="f"><path d="M0 0h34v79H0zm0 0"/></clipPath><clipPath id="g"><path d="M150 0a150 150 0 100 300 150 150 0 000-300zm0 0"/></clipPath><clipPath id="h"><path d="M0 63h34v88H0zm0 0"/></clipPath><clipPath id="i"><path d="M150 0a150 150 0 100 300 150 150 0 000-300zm0 0"/></clipPath><clipPath id="j"><path d="M33 0h34v79H33zm0 0"/></clipPath><clipPath id="k"><path d="M150 0a150 150 0 100 300 150 150 0 000-300zm0 0"/></clipPath><clipPath id="l"><path d="M33 63h34v88H33zm0 0"/></clipPath><clipPath id="m"><path d="M150 0a150 150 0 100 300 150 150 0 000-300zm0 0"/></clipPath><clipPath id="n"><path d="M8 9h16v26H8zm0 0"/></clipPath><clipPath id="o"><path d="M150 0a150 150 0 100 300 150 150 0 000-300zm0 0"/></clipPath><clipPath id="p"><path d="M43 9h16v26H43zm0 0"/></clipPath><clipPath id="q"><path d="M150 0a150 150 0 100 300 150 150 0 000-300zm0 0"/></clipPath><clipPath id="r"><path d="M14 19h4v6h-4zm0 0"/></clipPath><clipPath id="s"><path d="M150 0a150 150 0 100 300 150 150 0 000-300zm0 0"/></clipPath><clipPath id="t"><path d="M49 19h4v6h-4zm0 0"/></clipPath><clipPath id="u"><path d="M150 0a150 150 0 100 300 150 150 0 000-300zm0 0"/></clipPath><clipPath id="v"><path d="M58 54h3v6h-3zm0 0"/></clipPath><clipPath id="w"><path d="M150 0a150 150 0 100 300 150 150 0 000-300zm0 0"/></clipPath><clipPath id="x"><path d="M40 54h4v5h-4zm0 0"/></clipPath><clipPath id="y"><path d="M150 0a150 150 0 100 300 150 150 0 000-300zm0 0"/></clipPath><clipPath id="z"><path d="M23 54h4v5h-4zm0 0"/></clipPath><clipPath id="A"><path d="M150 0a150 150 0 100 300 150 150 0 000-300zm0 0"/></clipPath><clipPath id="B"><path d="M5 54h4v5H5zm0 0"/></clipPath><clipPath id="C"><path d="M150 0a150 150 0 100 300 150 150 0 000-300zm0 0"/></clipPath><clipPath id="D"><path d="M0 221h34v79H0zm0 0"/></clipPath><clipPath id="E"><path d="M150 0a150 150 0 100 300 150 150 0 000-300zm0 0"/></clipPath><clipPath id="F"><path d="M0 149h34v88H0zm0 0"/></clipPath><clipPath id="G"><path d="M150 0a150 150 0 100 300 150 150 0 000-300zm0 0"/></clipPath><clipPath id="H"><path d="M33 221h34v79H33zm0 0"/></clipPath><clipPath id="I"><path d="M150 0a150 150 0 100 300 150 150 0 000-300zm0 0"/></clipPath><clipPath id="J"><path d="M33 149h34v88H33zm0 0"/></clipPath><clipPath id="K"><path d="M150 0a150 150 0 100 300 150 150 0 000-300zm0 0"/></clipPath><clipPath id="L"><path d="M43 265h15v26H43zm0 0"/></clipPath><clipPath id="M"><path d="M150 0a150 150 0 100 300 150 150 0 000-300zm0 0"/></clipPath><clipPath id="N"><path d="M8 265h16v26H8zm0 0"/></clipPath><clipPath id="O"><path d="M150 0a150 150 0 100 300 150 150 0 000-300zm0 0"/></clipPath><clipPath id="P"><path d="M49 275h4v6h-4zm0 0"/></clipPath><clipPath id="Q"><path d="M150 0a150 150 0 100 300 150 150 0 000-300zm0 0"/></clipPath><clipPath id="R"><path d="M14 275h4v6h-4zm0 0"/></clipPath><clipPath id="S"><path d="M150 0a150 150 0 100 300 150 150 0 000-300zm0 0"/></clipPath><clipPath id="T"><path d="M5 240h4v6H5zm0 0"/></clipPath><clipPath id="U"><path d="M150 0a150 150 0 100 300 150 150 0 000-300zm0 0"/></clipPath><clipPath id="V"><path d="M23 241h4v5h-4zm0 0"/></clipPath><clipPath id="W"><path d="M150 0a150 150 0 100 300 150 150 0 000-300zm0 0"/></clipPath><clipPath id="X"><path d="M40 241h4v5h-4zm0 0"/></clipPath><clipPath id="Y"><path d="M150 0a150 150 0 100 300 150 150 0 000-300zm0 0"/></clipPath><clipPath id="Z"><path d="M57 241h4v5h-4zm0 0"/></clipPath><clipPath id="aa"><path d="M150 0a150 150 0 100 300 150 150 0 000-300zm0 0"/></clipPath></defs><g clip-path="url(#a)"><path fill="#c7303d" d="M0 0h300v300H0z"/></g><g clip-path="url(#b)"><g clip-path="url(#c)"><path d="M0 300h600V200H0zm0 0" fill="#49a656"/></g></g><g clip-path="url(#d)"><g clip-path="url(#e)"><path d="M0 300h66.7V0H0zm0 0" fill="#fff"/></g></g><g clip-path="url(#f)"><g clip-path="url(#g)"><path d="M31.9 68.9h1.7v9.8H32zM0 73.8h2.9v4.9H0zM23.2 54H26v5h-3zm0-9.8H26v4.9H29V54h2.9v5h-3v4.8h-2.8v5h-3v-5h-2.8V59h-3v-4.9h3v-5h2.9zM5.8 54h2.9v5H5.8zm0-9.8h2.9v4.9h2.9V54h2.9v5h-3v4.8H8.8v5H5.8v-5H2.9V59H0v-4.9h2.9v-5h2.9zm26-9.9h1.8v9.9H32zm0-34.4h1.8v9.8H32zM0 34.4h2.9v5H0zM0 5h2.9v5H0zm14.5 14.8h2.9v4.9h-3zm0-9.9h2.9v5h2.9v4.9h2.9v4.9h-3v5h-2.8v4.8h-3v-4.9h-2.8v-5H8.7v-4.8h2.9v-5h2.9zm-3-9.8h8.8v5h2.9v4.8H26v5H29v4.9h2.9v4.9h-3v5h-2.8v4.8h-3v5h-2.8v4.9h-3v4.9h-2.8v-5h-3v-4.9H8.8v-4.9H5.8v-4.9H2.9v-5H0v-4.8h2.9v-5h2.9V9.9h2.9V5h2.9" fill="#c7303d"/></g></g><g clip-path="url(#h)"><g clip-path="url(#i)"><path d="M20.3 147.5h2.9v3h-3zm5.8-14.7H29v4.9h2.9v5h1.7v7.8H32v-3h-3v-4.9h-2.8zm5.8-9.9h1.7v5H32zM0 108.2h2.9v5H0zm0-19.7h2.9v-4.9h2.9v-5h2.9v-4.8h2.9v-5h2.9V64h2.9v5h2.9v4.9h2.9v4.9H26v4.9H29v5h2.9v4.8h1.7v19.7H32v5h-3v4.8h-2.8v5h-3v4.9h-2.8v4.9h-3v12.8h-5.7v-3H8.7v-4.9H5.8v-4.9H2.9v-5H0V118h2.9v5h2.9v4.9h2.9v4.9h2.9v-5h2.9V123h2.9V118h2.9v-4.9h2.9v-5H26v-4.8h-3v-5h-2.8v-4.9h-8.7v5h5.8v4.9h-3v4.9h-2.8v5H8.7v-5H5.8v-5H2.9v-4.8H0" fill="#c7303d"/></g></g><g clip-path="url(#j)"><g clip-path="url(#k)"><path d="M34.8 68.9H33v9.8h1.8zm31.9 4.9h-3v4.9h3zM43.5 54h-3v5h3zm0-9.8h-3v4.9h-2.8V54h-3v5h3v4.8h2.9v5h2.9v-5h2.9V59h2.9v-4.9h-3v-5h-2.8zM60.9 54h-3v5h3zm0-9.8h-3v4.9h-2.8V54h-3v5h3v4.8H58v5h2.9v-5h2.9V59h2.9v-4.9h-3v-5H61zm-26.1-9.9H33v9.9h1.8zm0-34.4H33v9.8h1.8zm31.9 34.4h-3v5h3zm0-29.5h-3v5h3zM52.2 19.7h-3v4.9h3zm0-9.9h-3v5h-2.8v4.9h-3v4.9h3v5h2.9v4.8h2.9v-4.9H55v-5H58v-4.8h-3v-5h-2.8zM55 0h-8.7v5h-3v4.8h-2.8v5h-3v4.9h-2.8v4.9h2.9v5h2.9v4.8h2.9v5h2.9v4.9h2.9v4.9h2.9v-5H55v-4.9H58v-4.9h2.9v-4.9h2.9v-5h2.9v-4.8h-3v-5H61V9.9h-3V5h-2.8" fill="#c7303d"/></g></g><g clip-path="url(#l)"><g clip-path="url(#m)"><path d="M46.4 147.5h-3v3h3zm-5.8-14.7h-3v4.9h-2.8v5H33v7.8h1.8v-3h2.9v-4.9h2.9zm-5.8-9.9H33v5h1.8zm31.9-14.7h-3v5h3zm0-19.7h-3v-4.9H61v-5h-3v-4.8h-2.8v-5h-3V64h-2.8v5h-3v4.9h-2.8v4.9h-3v4.9h-2.8v5h-3v4.8H33v19.7h1.8v5h2.9v4.8h2.9v5h2.9v4.9h2.9v4.9h2.9v12.8H55v-3H58v-4.9h2.9v-4.9h2.9v-5h2.9V118h-3v5H61v4.9h-3v4.9h-2.8v-5h-3V123h-2.8V118h-3v-4.9h-2.8v-5h-3v-4.8h3v-5h2.9v-4.9H55v5h-5.8v4.9h2.9v4.9H55v5H58v-5h2.9v-5h2.9v-4.8h2.9" fill="#c7303d"/></g></g><g clip-path="url(#n)"><g clip-path="url(#o)"><path d="M17.5 34.3h-2.9v-5h-2.9v-4.9H8.8v-4.9h3v-5h2.8V9.8h3v4.9h2.8v5h3v4.8h-3v5h-2.9" fill="#fbfbfb"/></g></g><g clip-path="url(#p)"><g clip-path="url(#q)"><path d="M52.3 34.3h-2.9v-5h-2.9v-4.9h-2.9v-4.9h3v-5h2.8V9.8h3v4.9h2.8v5h2.9v4.8h-2.9v5h-2.9" fill="#fbfbfb"/></g></g><g clip-path="url(#r)"><g clip-path="url(#s)"><path d="M14.6 24.4h3v-4.9h-3zm0 0" fill="#c7303d"/></g></g><g clip-path="url(#t)"><g clip-path="url(#u)"><path d="M49.3 24.6h2.9v-5h-3zm0 0" fill="#c7303d"/></g></g><g clip-path="url(#v)"><g clip-path="url(#w)"><path d="M58.1 59.3H61v-5h-2.9zm0 0" fill="#fff"/></g></g><g clip-path="url(#x)"><g clip-path="url(#y)"><path d="M40.5 59h2.9v-5h-3zm0 0" fill="#fff"/></g></g><g clip-path="url(#z)"><g clip-path="url(#A)"><path d="M23.3 59h3v-5h-3zm0 0" fill="#fffcfc"/></g></g><g clip-path="url(#B)"><g clip-path="url(#C)"><path d="M6 59h2.8v-5H6zm0 0" fill="#fff"/></g></g><g clip-path="url(#D)"><g clip-path="url(#E)"><path d="M31.9 231.1h1.7v-9.8H32zM0 226.2h2.9v-4.9H0zM23.2 246H26v-5h-3zm0 9.8H26v-4.9H29V246h2.9v-5h-3v-4.8h-2.8v-5h-3v5h-2.8v4.9h-3v4.9h3v5h2.9zM5.8 246h2.9v-5H5.8zm0 9.8h2.9v-4.9h2.9V246h2.9v-5h-3v-4.8H8.8v-5H5.8v5H2.9v4.9H0v4.9h2.9v5h2.9zm26 9.9h1.8v-9.9H32zm0 34.4h1.8v-9.8H32zM0 265.6h2.9v-5H0zM0 295h2.9v-5H0zm14.5-14.8h2.9v-4.9h-3zm0 9.9h2.9v-5h2.9v-4.9h2.9v-4.9h-3v-5h-2.8v-4.8h-3v4.9h-2.8v5H8.7v4.8h2.9v5h2.9zm-3 9.8h8.8v-5h2.9v-4.8H26v-5H29v-4.9h2.9v-4.9h-3v-5h-2.8v-4.8h-3v-5h-2.8v-4.9h-3v-4.9h-2.8v5h-3v4.9H8.8v4.9H5.8v4.9H2.9v5H0v4.8h2.9v5h2.9v4.9h2.9v4.9h2.9" fill="#c7303d"/></g></g><g clip-path="url(#F)"><g clip-path="url(#G)"><path d="M20.3 152.5h2.9v-3h-3zm5.8 14.7H29v-4.9h2.9v-5h1.7v-7.8H32v3h-3v4.9h-2.8zm5.8 9.9h1.7v-5H32zM0 191.8h2.9v-5H0zm0 19.7h2.9v4.9h2.9v5h2.9v4.8h2.9v5h2.9v4.9h2.9v-5h2.9v-4.9h2.9v-4.9H26v-4.9H29v-5h2.9v-4.8h1.7v-19.7H32v-5h-3v-4.8h-2.8v-5h-3v-4.9h-2.8v-4.9h-3v-12.8h-5.7v3H8.7v4.9H5.8v4.9H2.9v5H0V182h2.9v-5h2.9v-4.9h2.9v-4.9h2.9v5h2.9v4.9h2.9v4.9h2.9v4.9h2.9v4.9H26v5h-3v4.8h-2.8v5h-8.7v-5h5.8v-4.9h-3v-4.9h-2.8v-5H8.7v5H5.8v5H2.9v4.8H0" fill="#c7303d"/></g></g><g clip-path="url(#H)"><g clip-path="url(#I)"><path d="M34.8 231.1H33v-9.8h1.8zm31.9-4.9h-3v-4.9h3zM43.5 246h-3v-5h3zm0 9.8h-3v-4.9h-2.8V246h-3v-5h3v-4.8h2.9v-5h2.9v5h2.9v4.9h2.9v4.9h-3v5h-2.8zm17.4-9.8h-3v-5h3zm0 9.8h-3v-4.9h-2.8V246h-3v-5h3v-4.8H58v-5h2.9v5h2.9v4.9h2.9v4.9h-3v5H61zm-26.1 9.9H33v-9.9h1.8zm0 34.4H33v-9.8h1.8zm31.9-34.4h-3v-5h3zm0 29.5h-3v-5h3zm-14.5-14.8h-3v-4.9h3zm0 9.9h-3v-5h-2.8v-4.9h-3v-4.9h3v-5h2.9v-4.8h2.9v4.9H55v5H58v4.8h-3v5h-2.8zM55 300h-8.7v-5h-3v-4.8h-2.8v-5h-3v-4.9h-2.8v-4.9h2.9v-5h2.9v-4.8h2.9v-5h2.9v-4.9h2.9v-4.9h2.9v5H55v4.9H58v4.9h2.9v4.9h2.9v5h2.9v4.8h-3v5H61v4.9h-3v4.9h-2.8" fill="#c7303d"/></g></g><g clip-path="url(#J)"><g clip-path="url(#K)"><path d="M46.4 152.5h-3v-3h3zm-5.8 14.7h-3v-4.9h-2.8v-5H33v-7.8h1.8v3h2.9v4.9h2.9zm-5.8 9.9H33v-5h1.8zm31.9 14.7h-3v-5h3zm0 19.7h-3v4.9H61v5h-3v4.8h-2.8v5h-3v4.9h-2.8v-5h-3v-4.9h-2.8v-4.9h-3v-4.9h-2.8v-5h-3v-4.8H33v-19.7h1.8v-5h2.9v-4.8h2.9v-5h2.9v-4.9h2.9v-4.9h2.9v-12.8H55v3H58v4.9h2.9v4.9h2.9v5h2.9V182h-3v-5H61v-4.9h-3v-4.9h-2.8v5h-3v4.9h-2.8v4.9h-3v4.9h-2.8v4.9h-3v5h3v4.8h2.9v5H55v-5h-5.8v-4.9h2.9v-4.9H55v-5H58v5h2.9v5h2.9v4.8h2.9" fill="#c7303d"/></g></g><g clip-path="url(#L)"><g clip-path="url(#M)"><path d="M49.2 265.7H52v5H55v4.9h2.9v4.9h-3v5h-2.8v4.8h-3v-4.9h-2.8v-4.9h-3v-5h3v-4.8h2.9" fill="#fbfbfb"/></g></g><g clip-path="url(#N)"><g clip-path="url(#O)"><path d="M14.4 265.7h2.9v5h2.9v4.9H23v4.9h-3v5h-2.8v4.8h-3v-4.9h-2.8v-4.9h-3v-5h3v-4.8h2.9" fill="#fbfbfb"/></g></g><g clip-path="url(#P)"><g clip-path="url(#Q)"><path d="M49.2 280.5H52v-5h-3zm0 0" fill="#c7303d"/></g></g><g clip-path="url(#R)"><g clip-path="url(#S)"><path d="M14.5 280.3h2.9v-4.9h-3zm0 0" fill="#c7303d"/></g></g><g clip-path="url(#T)"><g clip-path="url(#U)"><path d="M5.7 245.6h2.9v-4.9h-3zm0 0" fill="#fff"/></g></g><g clip-path="url(#V)"><g clip-path="url(#W)"><path d="M23.3 246h2.9v-5h-3zm0 0" fill="#fff"/></g></g><g clip-path="url(#X)"><g clip-path="url(#Y)"><path d="M40.5 246h2.9v-5h-3zm0 0" fill="#fffcfc"/></g></g><g clip-path="url(#Z)"><g clip-path="url(#aa)"><path d="M57.9 246h2.8v-5H58zm0 0" fill="#fff"/></g></g></svg>