<svg xmlns="http://www.w3.org/2000/svg" width="400" height="400" viewBox="0 0 300 300"><defs><clipPath id="a"><path d="M150 0a150 150 0 100 300 150 150 0 000-300zm0 0"/></clipPath><clipPath id="b"><path d="M0 0h186v125H0zm0 0"/></clipPath><clipPath id="c"><path d="M150 0a150 150 0 100 300 150 150 0 000-300zm0 0"/></clipPath><clipPath id="d"><path d="M150 0a150 150 0 100 300 150 150 0 000-300zm0 0"/></clipPath><clipPath id="e"><path d="M60 66h128v127H60zm0 0"/></clipPath><clipPath id="f"><path d="M150 0a150 150 0 100 300 150 150 0 000-300zm0 0"/></clipPath><clipPath id="g"><path d="M46 121h16v18H46zm0 0"/></clipPath><clipPath id="h"><path d="M150 0a150 150 0 100 300 150 150 0 000-300zm0 0"/></clipPath><clipPath id="i"><path d="M185 121h16v18h-16zm0 0"/></clipPath><clipPath id="j"><path d="M150 0a150 150 0 100 300 150 150 0 000-300zm0 0"/></clipPath><clipPath id="k"><path d="M114 192h18v16h-18zm0 0"/></clipPath><clipPath id="l"><path d="M150 0a150 150 0 100 300 150 150 0 000-300zm0 0"/></clipPath><clipPath id="m"><path d="M114 52h18v16h-18zm0 0"/></clipPath><clipPath id="n"><path d="M150 0a150 150 0 100 300 150 150 0 000-300zm0 0"/></clipPath><clipPath id="o"><path d="M90 110h67v58H90zm0 0"/></clipPath><clipPath id="p"><path d="M150 0a150 150 0 100 300 150 150 0 000-300zm0 0"/></clipPath><clipPath id="q"><path d="M90 91h67v58H90zm0 0"/></clipPath><clipPath id="r"><path d="M150 0a150 150 0 100 300 150 150 0 000-300zm0 0"/></clipPath></defs><g clip-path="url(#a)"><path fill="#f8f8f8" d="M0 0h300v300H0z"/></g><g clip-path="url(#b)"><g clip-path="url(#c)"><path d="M0 124.3V0h185.5" fill="#f8d90f"/></g></g><g clip-path="url(#d)"><path d="M450 0v300H0" fill="#012a86"/></g><g clip-path="url(#e)"><g clip-path="url(#f)"><path d="M123.8 73.8a55.9 55.9 0 10.1 111.7 55.9 55.9 0 00-.1-111.7m0 119a62.8 62.8 0 01-44.7-108 62.8 62.8 0 0189.4 0c12 12 18.5 28 18.5 44.8a62.8 62.8 0 01-63.2 63.2"/></g></g><g clip-path="url(#g)"><g clip-path="url(#h)"><path d="M61.3 138.4l-15-8.6 14.8-8.4"/></g></g><g clip-path="url(#i)"><g clip-path="url(#j)"><path d="M185.5 138.4l15.1-8.6-14.9-8.4"/></g></g><g clip-path="url(#k)"><g clip-path="url(#l)"><path d="M131.9 192l-8.6 15.1-8.3-14.8"/></g></g><g clip-path="url(#m)"><g clip-path="url(#n)"><path d="M131.9 67.8l-8.6-15.1-8.3 14.9"/></g></g><g clip-path="url(#o)"><g clip-path="url(#p)"><path d="M123.8 167.9l-33.2-57.2h66" fill="#dc161d"/></g></g><g clip-path="url(#q)"><g clip-path="url(#r)"><path d="M124 91.6l-33.2 57.1h66" fill="#dc161d"/></g></g></svg>