<svg xmlns="http://www.w3.org/2000/svg" width="400" height="400" viewBox="0 0 300 300"><defs><clipPath id="a"><path d="M150 0a150 150 0 100 300 150 150 0 000-300zm0 0"/></clipPath><clipPath id="b"><path d="M9 0h291v300H9zm0 0"/></clipPath><clipPath id="c"><path d="M150 0a150 150 0 100 300 150 150 0 000-300zm0 0"/></clipPath><clipPath id="d"><path d="M0 5h20v53H0zm0 0"/></clipPath><clipPath id="e"><path d="M150 0a150 150 0 100 300 150 150 0 000-300zm0 0"/></clipPath><clipPath id="f"><path d="M2 43h56v52H2zm0 0"/></clipPath><clipPath id="g"><path d="M150 0a150 150 0 100 300 150 150 0 000-300zm0 0"/></clipPath><clipPath id="h"><path d="M40 80h55v53H40zm0 0"/></clipPath><clipPath id="i"><path d="M150 0a150 150 0 100 300 150 150 0 000-300zm0 0"/></clipPath><clipPath id="j"><path d="M77 118h56v52H77zm0 0"/></clipPath><clipPath id="k"><path d="M150 0a150 150 0 100 300 150 150 0 000-300zm0 0"/></clipPath><clipPath id="l"><path d="M115 155h55v53h-55zm0 0"/></clipPath><clipPath id="m"><path d="M150 0a150 150 0 100 300 150 150 0 000-300zm0 0"/></clipPath><clipPath id="n"><path d="M152 193h56v52h-56zm0 0"/></clipPath><clipPath id="o"><path d="M150 0a150 150 0 100 300 150 150 0 000-300zm0 0"/></clipPath><clipPath id="p"><path d="M190 230h55v53h-55zm0 0"/></clipPath><clipPath id="q"><path d="M150 0a150 150 0 100 300 150 150 0 000-300zm0 0"/></clipPath><clipPath id="r"><path d="M227 268h56v32h-56zm0 0"/></clipPath><clipPath id="s"><path d="M150 0a150 150 0 100 300 150 150 0 000-300zm0 0"/></clipPath></defs><g clip-path="url(#a)"><path fill="#002294" d="M0 0h300v300H0z"/></g><g clip-path="url(#b)"><g clip-path="url(#c)"><path d="M9 0h300v300" fill="#fdca00"/></g></g><g clip-path="url(#d)"><g clip-path="url(#e)"><path d="M19.6 25.3L3 37.5l6.3 19.7L-7.4 45l-16.8 12.2 6.4-19.7-16.7-12.2H-14l6.4-19.7 6.4 19.7" fill="#fff"/></g></g><g clip-path="url(#f)"><g clip-path="url(#g)"><path d="M57.1 62.8L40.4 75l6.3 19.7L30 82.5 13.2 94.7 19.6 75 3 62.8h20.7L30 43.1l6.4 19.7" fill="#fff"/></g></g><g clip-path="url(#h)"><g clip-path="url(#i)"><path d="M94.6 100.3L78 112.5l6.3 19.7L67.5 120l-16.8 12.2 6.4-19.7-16.7-12.2H61l6.4-19.7 6.4 19.7" fill="#fff"/></g></g><g clip-path="url(#j)"><g clip-path="url(#k)"><path d="M132.1 137.8L115.4 150l6.4 19.7-16.8-12.2-16.7 12.2 6.4-19.7-16.8-12.2h20.7l6.4-19.7 6.4 19.7" fill="#fff"/></g></g><g clip-path="url(#l)"><g clip-path="url(#m)"><path d="M169.6 175.3l-16.8 12.2 6.4 19.7-16.7-12.2-16.8 12.2 6.4-19.7-16.7-12.2H136l6.4-19.7 6.4 19.7" fill="#fff"/></g></g><g clip-path="url(#n)"><g clip-path="url(#o)"><path d="M207.1 212.8L190.4 225l6.4 19.7-16.8-12.2-16.7 12.2 6.4-19.7-16.8-12.2h20.7l6.4-19.6 6.4 19.6" fill="#fff"/></g></g><g clip-path="url(#p)"><g clip-path="url(#q)"><path d="M244.6 250.3L228 262.5l6.4 19.7-16.8-12.2-16.7 12.2 6.4-19.7-16.8-12.2h20.7l6.4-19.7 6.4 19.7" fill="#fff"/></g></g><g clip-path="url(#r)"><g clip-path="url(#s)"><path d="M282.1 287.8h-20.7l-6.4-19.7-6.4 19.7h-20.7l16.7 12.2h20.8" fill="#fff"/></g></g></svg>