<svg xmlns="http://www.w3.org/2000/svg" width="400" height="400" viewBox="0 0 300 300"><defs><clipPath id="a"><path d="M150 0a150 150 0 100 300 150 150 0 000-300zm0 0"/></clipPath><clipPath id="b"><path d="M0 36h300v228H0zm0 0"/></clipPath><clipPath id="c"><path d="M150 0a150 150 0 100 300 150 150 0 000-300zm0 0"/></clipPath><clipPath id="d"><path d="M75 75h150v150H75zm0 0"/></clipPath><clipPath id="e"><path d="M150 0a150 150 0 100 300 150 150 0 000-300zm0 0"/></clipPath><clipPath id="f"><path d="M75 117h150v108H75zm0 0"/></clipPath><clipPath id="g"><path d="M75 150a75 75 0 10150 0 75 75 0 00-150 0"/></clipPath><clipPath id="h"><path d="M109 119h8v9h-8zm0 0"/></clipPath><clipPath id="i"><path d="M150 0a150 150 0 100 300 150 150 0 000-300zm0 0"/></clipPath><clipPath id="j"><path d="M119 120h8v8h-8zm0 0"/></clipPath><clipPath id="k"><path d="M150 0a150 150 0 100 300 150 150 0 000-300zm0 0"/></clipPath><clipPath id="l"><path d="M133 122h8v8h-8zm0 0"/></clipPath><clipPath id="m"><path d="M150 0a150 150 0 100 300 150 150 0 000-300zm0 0"/></clipPath><clipPath id="n"><path d="M177 138h4v3h-4zm0 0"/></clipPath><clipPath id="o"><path d="M150 0a150 150 0 100 300 150 150 0 000-300zm0 0"/></clipPath><clipPath id="p"><path d="M178 138h3v5h-3zm0 0"/></clipPath><clipPath id="q"><path d="M150 0a150 150 0 100 300 150 150 0 000-300zm0 0"/></clipPath><clipPath id="r"><path d="M198 147h8v8h-8zm0 0"/></clipPath><clipPath id="s"><path d="M150 0a150 150 0 100 300 150 150 0 000-300zm0 0"/></clipPath><clipPath id="t"><path d="M189 141h10v10h-10zm0 0"/></clipPath><clipPath id="u"><path d="M150 0a150 150 0 100 300 150 150 0 000-300zm0 0"/></clipPath><clipPath id="v"><path d="M206 152h8v8h-8zm0 0"/></clipPath><clipPath id="w"><path d="M150 0a150 150 0 100 300 150 150 0 000-300zm0 0"/></clipPath><clipPath id="x"><path d="M82 120h7v9h-7zm0 0"/></clipPath><clipPath id="y"><path d="M150 0a150 150 0 100 300 150 150 0 000-300zm0 0"/></clipPath><clipPath id="z"><path d="M214 158h7v8h-7zm0 0"/></clipPath><clipPath id="A"><path d="M150 0a150 150 0 100 300 150 150 0 000-300zm0 0"/></clipPath><clipPath id="B"><path d="M100 119h8v8h-8zm0 0"/></clipPath><clipPath id="C"><path d="M150 0a150 150 0 100 300 150 150 0 000-300zm0 0"/></clipPath><clipPath id="D"><path d="M91 120h7v8h-7zm0 0"/></clipPath><clipPath id="E"><path d="M150 0a150 150 0 100 300 150 150 0 000-300zm0 0"/></clipPath><clipPath id="F"><path d="M166 130h7v9h-7zm0 0"/></clipPath><clipPath id="G"><path d="M150 0a150 150 0 100 300 150 150 0 000-300zm0 0"/></clipPath><clipPath id="H"><path d="M156 126h8v10h-8zm0 0"/></clipPath><clipPath id="I"><path d="M150 0a150 150 0 100 300 150 150 0 000-300zm0 0"/></clipPath><clipPath id="J"><path d="M182 136h8v10h-8zm0 0"/></clipPath><clipPath id="K"><path d="M150 0a150 150 0 100 300 150 150 0 000-300zm0 0"/></clipPath><clipPath id="L"><path d="M147 124h8v8h-8zm0 0"/></clipPath><clipPath id="M"><path d="M150 0a150 150 0 100 300 150 150 0 000-300zm0 0"/></clipPath><clipPath id="N"><path d="M174 134h7v8h-7zm0 0"/></clipPath><clipPath id="O"><path d="M150 0a150 150 0 100 300 150 150 0 000-300zm0 0"/></clipPath><clipPath id="P"><path d="M170 123h7v6h-7zm0 0"/></clipPath><clipPath id="Q"><path d="M150 0a150 150 0 100 300 150 150 0 000-300zm0 0"/></clipPath><clipPath id="R"><path d="M85 133h7v7h-7zm0 0"/></clipPath><clipPath id="S"><path d="M150 0a150 150 0 100 300 150 150 0 000-300zm0 0"/></clipPath><clipPath id="T"><path d="M168 144h5v5h-5zm0 0"/></clipPath><clipPath id="U"><path d="M150 0a150 150 0 100 300 150 150 0 000-300zm0 0"/></clipPath><clipPath id="V"><path d="M101 162h3v3h-3zm0 0"/></clipPath><clipPath id="W"><path d="M150 0a150 150 0 100 300 150 150 0 000-300zm0 0"/></clipPath><clipPath id="X"><path d="M92 164h7v7h-7zm0 0"/></clipPath><clipPath id="Y"><path d="M150 0a150 150 0 100 300 150 150 0 000-300zm0 0"/></clipPath><clipPath id="Z"><path d="M83 172h6v5h-6zm0 0"/></clipPath><clipPath id="aa"><path d="M150 0a150 150 0 100 300 150 150 0 000-300zm0 0"/></clipPath><clipPath id="ab"><path d="M118 150h6v6h-6zm0 0"/></clipPath><clipPath id="ac"><path d="M150 0a150 150 0 100 300 150 150 0 000-300zm0 0"/></clipPath><clipPath id="ad"><path d="M108 172h6v6h-6zm0 0"/></clipPath><clipPath id="ae"><path d="M150 0a150 150 0 100 300 150 150 0 000-300zm0 0"/></clipPath><clipPath id="af"><path d="M106 180h6v5h-6zm0 0"/></clipPath><clipPath id="ag"><path d="M150 0a150 150 0 100 300 150 150 0 000-300zm0 0"/></clipPath><clipPath id="ah"><path d="M116 186h8v6h-8zm0 0"/></clipPath><clipPath id="ai"><path d="M150 0a150 150 0 100 300 150 150 0 000-300zm0 0"/></clipPath><clipPath id="aj"><path d="M147 159h6v6h-6zm0 0"/></clipPath><clipPath id="ak"><path d="M150 0a150 150 0 100 300 150 150 0 000-300zm0 0"/></clipPath><clipPath id="al"><path d="M140 166h5v5h-5zm0 0"/></clipPath><clipPath id="am"><path d="M150 0a150 150 0 100 300 150 150 0 000-300zm0 0"/></clipPath><clipPath id="an"><path d="M144 172h4v3h-4zm0 0"/></clipPath><clipPath id="ao"><path d="M150 0a150 150 0 100 300 150 150 0 000-300zm0 0"/></clipPath><clipPath id="ap"><path d="M156 166h6v6h-6zm0 0"/></clipPath><clipPath id="aq"><path d="M150 0a150 150 0 100 300 150 150 0 000-300zm0 0"/></clipPath><clipPath id="ar"><path d="M146 180h8v7h-8zm0 0"/></clipPath><clipPath id="as"><path d="M150 0a150 150 0 100 300 150 150 0 000-300zm0 0"/></clipPath><clipPath id="at"><path d="M148 207h3v3h-3zm0 0"/></clipPath><clipPath id="au"><path d="M150 0a150 150 0 100 300 150 150 0 000-300zm0 0"/></clipPath><clipPath id="av"><path d="M164 189h5v5h-5zm0 0"/></clipPath><clipPath id="aw"><path d="M150 0a150 150 0 100 300 150 150 0 000-300zm0 0"/></clipPath><clipPath id="ax"><path d="M169 197h6v6h-6zm0 0"/></clipPath><clipPath id="ay"><path d="M150 0a150 150 0 100 300 150 150 0 000-300zm0 0"/></clipPath><clipPath id="az"><path d="M176 191h6v5h-6zm0 0"/></clipPath><clipPath id="aA"><path d="M150 0a150 150 0 100 300 150 150 0 000-300zm0 0"/></clipPath><clipPath id="aB"><path d="M185 189h5v5h-5zm0 0"/></clipPath><clipPath id="aC"><path d="M150 0a150 150 0 100 300 150 150 0 000-300zm0 0"/></clipPath><clipPath id="aD"><path d="M184 195h7v6h-7zm0 0"/></clipPath><clipPath id="aE"><path d="M150 0a150 150 0 100 300 150 150 0 000-300zm0 0"/></clipPath><clipPath id="aF"><path d="M185 204h5v5h-5zm0 0"/></clipPath><clipPath id="aG"><path d="M150 0a150 150 0 100 300 150 150 0 000-300zm0 0"/></clipPath><clipPath id="aH"><path d="M192 190h6v5h-6zm0 0"/></clipPath><clipPath id="aI"><path d="M150 0a150 150 0 100 300 150 150 0 000-300zm0 0"/></clipPath><clipPath id="aJ"><path d="M198 186h6v6h-6zm0 0"/></clipPath><clipPath id="aK"><path d="M150 0a150 150 0 100 300 150 150 0 000-300zm0 0"/></clipPath><clipPath id="aL"><path d="M203 180h6v6h-6zm0 0"/></clipPath><clipPath id="aM"><path d="M150 0a150 150 0 100 300 150 150 0 000-300zm0 0"/></clipPath><clipPath id="aN"><path d="M199 173h7v6h-7zm0 0"/></clipPath><clipPath id="aO"><path d="M150 0a150 150 0 100 300 150 150 0 000-300zm0 0"/></clipPath><clipPath id="aP"><path d="M210 174h6v5h-6zm0 0"/></clipPath><clipPath id="aQ"><path d="M150 0a150 150 0 100 300 150 150 0 000-300zm0 0"/></clipPath></defs><g clip-path="url(#a)"><path fill="#009b39" d="M0 0h300v300H0z"/></g><g clip-path="url(#b)"><g clip-path="url(#c)"><path d="M-27.9 150L150 263.6 327.9 150 150 36.4zm0 0" fill="#fddf00"/></g></g><g clip-path="url(#d)"><g clip-path="url(#e)"><path d="M150 75a75 75 0 110 150 75 75 0 010-150" fill="#002776"/></g></g><g clip-path="url(#f)"><g clip-path="url(#g)"><path d="M-75 300a182.1 182.1 0 11364.3 0h-10.7a171.4 171.4 0 10-342.9 0" fill="#fff"/></g></g><g clip-path="url(#h)"><g clip-path="url(#i)"><path d="M110 126.8l6.4.2v-1.3l-5.2-.2.1-1.8 4 .1.1-1.2-4-.2V121l4.9.2v-1.3l-6-.3" fill="#009b39"/></g></g><g clip-path="url(#j)"><g clip-path="url(#k)"><path d="M119 127.2h1.3l.4-4.8 1 5h1.1l1.8-4.7-.4 5h1.2l.7-7-1.8-.2-1.9 4.7-1-5-1.7-.1" fill="#009b39"/></g></g><g clip-path="url(#l)"><g clip-path="url(#m)"><path d="M133.8 128.8l5.3 1 .2-1.3-4-.7.2-1.6 3.3.6.3-1.2-3.4-.6.2-1 4 .6.2-1.2-5.2-.9" fill="#009b39"/></g></g><g clip-path="url(#n)"><g clip-path="url(#o)"><path d="M178.1 138l2.5 1.2-.4.9-2.5-1zm0 0" fill="#009b39"/></g></g><g clip-path="url(#p)"><g clip-path="url(#q)"><path d="M179.6 138.8l1 .4-1.4 3.2-1-.4zm0 0" fill="#009b39"/></g></g><g clip-path="url(#r)"><g clip-path="url(#s)"><path d="M200 151.2c-.3.6 0 1.2 1 1.8.8.5 1.4.5 1.6.1.8-1.2-3.7-3-2.3-5.1 1.2-1.9 3.2-.4 4 0 .8.5 2 1.8 1 3.3l-1.3-.8c.5-.7 0-1.3-.7-1.7-.7-.5-1.2-.7-1.6 0-.7 1 3.8 2.8 2.4 5-1 1.5-2.7.9-3.9.1-1-.6-2.5-2.1-1.5-3.6" fill="#009b39"/></g></g><g clip-path="url(#t)"><g clip-path="url(#u)"><path d="M189.6 147.7l5.6 3.1.7-1.1-4.5-2.6.9-1.6 3.5 2 .6-1-3.5-2 .7-1.3 4.2 2.4.7-1.1-5.3-3" fill="#009b39"/></g></g><g clip-path="url(#v)"><g clip-path="url(#w)"><path d="M207.7 156.2c-.4.6 0 1.3.8 1.9.8.6 1.4.6 1.7.2.8-1.2-3.6-3.2-2-5.2 1.2-1.8 3.2-.3 4 .2.7.6 1.9 2 .8 3.3l-1.3-.9c.5-.6 0-1.2-.6-1.7s-1.2-.7-1.6 0c-.7.9 3.6 3 2.1 5-1 1.6-2.7.8-3.9 0-1-.7-2.3-2.3-1.3-3.7" fill="#009b39"/></g></g><g clip-path="url(#x)"><g clip-path="url(#y)"><path d="M85.6 122.4c2.4 0 2.4 4.3 0 4.3s-2.4-4.3 0-4.3m3.2 1.7c-.3-2-1.9-3.3-3.6-3.1-1.8.2-3 2-2.8 4 .2 1.9 1.9 3.3 3.6 3 1.8-.1 3-1.9 2.8-3.9" fill="#009b39"/></g></g><g clip-path="url(#z)"><g clip-path="url(#A)"><path d="M218.8 160c2 1.4-.5 5-2.5 3.6s.5-5 2.5-3.6m1.6 3.3c1-1.8.4-3.8-1.2-4.7-1.6-.8-3.6 0-4.5 1.7-1 1.8-.4 3.9 1.2 4.7 1.6.8 3.6 0 4.5-1.7" fill="#009b39"/></g></g><g clip-path="url(#B)"><g clip-path="url(#C)"><path d="M103.8 125.5h-1.6V121h2c1 0 1.5.8 1.8 1.3v1.3c0 .6-.2 1-.6 1.4-.7.5-1.1.5-1.6.5m3-4.5c-.9-1.3-2.4-1.3-2.4-1.3h-3.6l.1 7.2 3.6-.1c.7 0 1.6-.5 2.2-1.3.6-.7.6-1.6.6-2.2 0-.5 0-1.3-.6-2.3" fill="#009b39"/></g></g><g clip-path="url(#D)"><g clip-path="url(#E)"><path d="M96.2 123c-.3.2-1 .2-1 .2l-2.3.2-.1-1.9 2.1-.1h.7l.6.2s.3.3.3.6c0 .4-.2.7-.3.8m.8 1s.7-.5 1-1.4a2 2 0 00-.7-1.9c-.2-.2-.7-.7-1.5-.7l-4.3.3.4 7.1h1.3l-.2-2.7 2.3-.2h.5s.8 1.2.8 1.9v.8H98s0-1.3-.3-2L97 124" fill="#009b39"/></g></g><g clip-path="url(#F)"><g clip-path="url(#G)"><path d="M169.8 132.4c2.3.6 1.2 4.8-1.1 4.2-2.4-.6-1.3-4.8 1-4.2m2.7 2.6c.3-2-1-3.8-2.7-4-1.7-.3-3.4 1.1-3.7 3-.2 2 1 3.8 2.7 4 1.8.3 3.4-1 3.7-3" fill="#009b39"/></g></g><g clip-path="url(#H)"><g clip-path="url(#I)"><path d="M161.8 130.9c-.4.1-1.1-.1-1.1-.1l-2.2-.6.5-1.8 2 .5.8.3s.3 0 .5.4c0 0 .2.3 0 .7-.1.3-.4.5-.5.6m.4 1.3s.9-.4 1.3-1.2a2 2 0 000-2c0-.2-.4-.8-1-1a306 306 0 00-4.3-1.2l-2 6.9 1.3.3.7-2.6 2.2.7h.6s.2 1.4 0 2.1l-.1.8 1.2.4s.4-1.2.3-2c0-.9-.2-1.2-.2-1.2" fill="#009b39"/></g></g><g clip-path="url(#J)"><g clip-path="url(#K)"><path d="M187.8 141.4l-1-.3-2.1-.7.6-1.7 2 .7.7.2s.3.2.4.5a.8.8 0 010 .7c-.1.3-.4.5-.6.6m.3 1.3s1-.3 1.5-1a2 2 0 00.2-2c-.2-.3-.4-1-1-1.2l-4.2-1.5-2.5 6.7 1.2.4 1-2.5 2 .8.6.2s.2 1.4 0 2l-.3.8 1.1.5s.6-1.2.6-2-.2-1.2-.2-1.2" fill="#009b39"/></g></g><g clip-path="url(#L)"><g clip-path="url(#M)"><path d="M153 128.5h-1.1l-2.2-.6.4-1.8 2.1.5.7.2s.3 0 .5.4a.8.8 0 01.1.7c-.1.3-.4.6-.6.6m.5 1.3s.9-.4 1.3-1.2a2 2 0 000-2c-.1-.2-.5-.8-1.2-1l-4.2-1-1.8 6.8 1.3.3.6-2.5 2.2.5.6.1" fill="#009b39"/></g></g><g clip-path="url(#N)"><g clip-path="url(#O)"><path d="M180 138.8l-.6-.2c-.6 1-1.8 1.8-3 1-2-1.3.5-4.9 2.5-3.5.5.3.7.8.8 1.3l.9.3.4.2c0-1.3-.5-2.6-1.7-3.2-1.5-.8-3.5 0-4.5 1.7-.9 1.7-.3 3.8 1.3 4.6 1.5.9 3.5.1 4.5-1.6v-.3l-.7-.3" fill="#009b39"/></g></g><g clip-path="url(#P)"><g clip-path="url(#Q)"><path d="M176 125.8l-1.5 1.1.6 1.9-1.6-1.2-1.6 1.2.6-1.9-1.6-1.1h2l.6-2 .6 2" fill="#fff"/></g></g><g clip-path="url(#R)"><g clip-path="url(#S)"><path d="M85.7 135.5l2 1.4-.8 2.2 1.9-1.3 1.9 1.3-.8-2.2 2-1.4h-2.4l-.7-2.2-.7 2.2" fill="#fff"/></g></g><g clip-path="url(#T)"><g clip-path="url(#U)"><path d="M168.4 145.6l1.3 1-.5 1.4 1.3-.9 1.3 1-.5-1.6 1.4-1H171l-.5-1.5-.5 1.6" fill="#fff"/></g></g><g clip-path="url(#V)"><g clip-path="url(#W)"><path d="M101.4 163.2l.8.5-.3 1 .8-.6.8.6-.3-1 .8-.5h-1l-.3-1-.3 1" fill="#fff"/></g></g><g clip-path="url(#X)"><g clip-path="url(#Y)"><path d="M95.4 164.8l-.7 2.3h-2.3l1.8 1.3-.7 2.3 2-1.4 1.8 1.4-.7-2.3 1.9-1.3H96l-.7-2.3" fill="#fff"/></g></g><g clip-path="url(#Z)"><g clip-path="url(#aa)"><path d="M83.7 174l1.5 1.1-.5 1.9 1.5-1.2 1.6 1.2-.6-1.9 1.6-1.1h-2l-.6-1.9-.6 1.9" fill="#fff"/></g></g><g clip-path="url(#ab)"><g clip-path="url(#ac)"><path d="M119 152.2l1.5 1.1-.6 1.8 1.6-1.1 1.5 1.1-.6-1.8 1.6-1.1h-2l-.5-1.8-.6 1.8" fill="#fff"/></g></g><g clip-path="url(#ad)"><g clip-path="url(#ae)"><path d="M108.9 174.6l1.4 1-.5 1.7 1.4-1 1.4 1-.5-1.7 1.4-1h-1.8l-.5-1.7-.5 1.7" fill="#fff"/></g></g><g clip-path="url(#af)"><g clip-path="url(#ag)"><path d="M106.8 182.4l1.3 1-.5 1.5 1.3-1 1.3 1-.5-1.5 1.3-1h-1.6l-.5-1.5-.5 1.5" fill="#fff"/></g></g><g clip-path="url(#ah)"><g clip-path="url(#ai)"><path d="M117 188.4l1.8 1.4-.7 2.2 1.9-1.4 1.9 1.4-.8-2.2 2-1.4h-2.4l-.7-2.2-.8 2.2" fill="#fff"/></g></g><g clip-path="url(#aj)"><g clip-path="url(#ak)"><path d="M147.4 161.5l1.6 1.1-.6 1.9 1.6-1.2 1.6 1.2-.6-1.9 1.6-1.1h-2l-.6-1.9-.6 1.9" fill="#fff"/></g></g><g clip-path="url(#al)"><g clip-path="url(#am)"><path d="M140.3 168.2l1.3 1-.5 1.5 1.3-1 1.3 1-.5-1.5 1.3-1H143l-.5-1.5-.5 1.5" fill="#fff"/></g></g><g clip-path="url(#an)"><g clip-path="url(#ao)"><path d="M144.9 173.4l.8.6-.3 1 .8-.7.8.6-.3-1 .8-.5h-1l-.3-1-.3 1" fill="#fff"/></g></g><g clip-path="url(#ap)"><g clip-path="url(#aq)"><path d="M156.1 168l1.6 1.2-.6 1.9 1.6-1.2 1.6 1.2-.7-2 1.6-1h-2l-.5-2-.6 2" fill="#fff"/></g></g><g clip-path="url(#ar)"><g clip-path="url(#as)"><path d="M147 183l1.8 1.4-.7 2.2 1.9-1.4 1.9 1.4-.7-2.2 1.9-1.4h-2.4l-.7-2.2-.7 2.2" fill="#fff"/></g></g><g clip-path="url(#at)"><g clip-path="url(#au)"><path d="M149 208.4l.6.4-.3.7.7-.4.6.4-.3-.7.6-.4h-.7l-.2-.8-.3.8" fill="#fff"/></g></g><g clip-path="url(#av)"><g clip-path="url(#aw)"><path d="M164.4 191.4l1.3 1-.5 1.5 1.3-1 1.3 1-.5-1.5 1.3-1H167l-.5-1.5-.5 1.5" fill="#fff"/></g></g><g clip-path="url(#ax)"><g clip-path="url(#ay)"><path d="M169.9 199.6l1.5 1.2-.6 1.9 1.6-1.2 1.6 1.2-.6-1.9 1.6-1.2h-2l-.6-1.8-.6 1.8" fill="#fff"/></g></g><g clip-path="url(#az)"><g clip-path="url(#aA)"><path d="M179.7 194l1.3-.9h-1.6l-.5-1.5-.5 1.5h-1.6l1.3 1-.5 1.5 1.3-1 1.3 1" fill="#fff"/></g></g><g clip-path="url(#aB)"><g clip-path="url(#aC)"><path d="M185.1 190.6l1.3 1-.5 1.5 1.3-1 1.4 1-.5-1.5 1.3-1h-1.7l-.4-1.5-.6 1.5" fill="#fff"/></g></g><g clip-path="url(#aD)"><g clip-path="url(#aE)"><path d="M184.9 197.7l1.6 1.2-.6 1.8 1.5-1.1 1.6 1.1-.6-1.8 1.6-1.2h-2l-.6-1.8-.6 1.8" fill="#fff"/></g></g><g clip-path="url(#aF)"><g clip-path="url(#aG)"><path d="M185.5 205.6l1.3.9-.5 1.5 1.3-1 1.3 1-.5-1.5 1.3-1h-1.6l-.5-1.5-.5 1.6" fill="#fff"/></g></g><g clip-path="url(#aH)"><g clip-path="url(#aI)"><path d="M193 192l1.3 1-.5 1.5 1.3-1 1.3 1-.5-1.6 1.3-1h-1.6l-.5-1.5-.5 1.6" fill="#fff"/></g></g><g clip-path="url(#aJ)"><g clip-path="url(#aK)"><path d="M198.5 188l1.6 1.2-.6 1.9 1.6-1.2 1.6 1.2-.6-1.9 1.6-1.1h-2l-.6-1.9-.6 1.9h-2" fill="#fff"/></g></g><g clip-path="url(#aL)"><g clip-path="url(#aM)"><path d="M203 182.2l1.6 1.2-.6 1.8 1.6-1.1 1.6 1.1-.6-1.8 1.6-1.2h-2l-.6-1.8-.6 1.8" fill="#fff"/></g></g><g clip-path="url(#aN)"><g clip-path="url(#aO)"><path d="M199.5 175.3l1.9 1.4-.8 2.2 2-1.4 1.8 1.4-.7-2.2 1.9-1.4h-2.3l-.8-2.2-.7 2.2" fill="#fff"/></g></g><g clip-path="url(#aP)"><g clip-path="url(#aQ)"><path d="M211 176.4l1.2 1-.5 1.5 1.3-1 1.3 1-.5-1.5 1.4-1h-1.7l-.5-1.5-.4 1.5" fill="#fff"/></g></g></svg>