<svg xmlns="http://www.w3.org/2000/svg" width="400" height="400" viewBox="0 0 300 300"><defs><clipPath id="a"><path d="M150 0a150 150 0 100 300 150 150 0 000-300zm0 0"/></clipPath><clipPath id="b"><path d="M0 20h300v197H0zm0 0"/></clipPath><clipPath id="c"><path d="M150 0a150 150 0 100 300 150 150 0 000-300zm0 0"/></clipPath><clipPath id="d"><path d="M0 91h300v189H0zm0 0"/></clipPath><clipPath id="e"><path d="M150 0a150 150 0 100 300 150 150 0 000-300zm0 0"/></clipPath><clipPath id="f"><path d="M80 200h140v38H80zm0 0"/></clipPath><clipPath id="g"><path d="M150 0a150 150 0 100 300 150 150 0 000-300zm0 0"/></clipPath><clipPath id="h"><path d="M182 210h9v16h-9zm0 0"/></clipPath><clipPath id="i"><path d="M150 0a150 150 0 100 300 150 150 0 000-300zm0 0"/></clipPath><clipPath id="j"><path d="M137 228h14v8h-14zm0 0"/></clipPath><clipPath id="k"><path d="M150 0a150 150 0 100 300 150 150 0 000-300zm0 0"/></clipPath><clipPath id="l"><path d="M154 225h7v10h-7zm0 0"/></clipPath><clipPath id="m"><path d="M150 0a150 150 0 100 300 150 150 0 000-300zm0 0"/></clipPath><clipPath id="n"><path d="M150 223h3v11h-3zm0 0"/></clipPath><clipPath id="o"><path d="M150 0a150 150 0 100 300 150 150 0 000-300zm0 0"/></clipPath><clipPath id="p"><path d="M143 223h4v11h-4zm0 0"/></clipPath><clipPath id="q"><path d="M150 0a150 150 0 100 300 150 150 0 000-300zm0 0"/></clipPath><clipPath id="r"><path d="M108 215h34v18h-34zm0 0"/></clipPath><clipPath id="s"><path d="M150 0a150 150 0 100 300 150 150 0 000-300zm0 0"/></clipPath><clipPath id="t"><path d="M167 217h14v15h-14zm0 0"/></clipPath><clipPath id="u"><path d="M150 0a150 150 0 100 300 150 150 0 000-300zm0 0"/></clipPath><clipPath id="v"><path d="M186 212h3v4h-3zm0 0"/></clipPath><clipPath id="w"><path d="M150 0a150 150 0 100 300 150 150 0 000-300zm0 0"/></clipPath><clipPath id="x"><path d="M189 208h10v15h-10zm0 0"/></clipPath><clipPath id="y"><path d="M150 0a150 150 0 100 300 150 150 0 000-300zm0 0"/></clipPath><clipPath id="z"><path d="M112 213h6v8h-6zm0 0"/></clipPath><clipPath id="A"><path d="M150 0a150 150 0 100 300 150 150 0 000-300zm0 0"/></clipPath><clipPath id="B"><path d="M173 218h2v2h-2zm0 0"/></clipPath><clipPath id="C"><path d="M150 0a150 150 0 100 300 150 150 0 000-300zm0 0"/></clipPath><clipPath id="D"><path d="M97 209h15v9H97zm0 0"/></clipPath><clipPath id="E"><path d="M150 0a150 150 0 100 300 150 150 0 000-300zm0 0"/></clipPath><clipPath id="F"><path d="M108 213h2v2h-2zm0 0"/></clipPath><clipPath id="G"><path d="M150 0a150 150 0 100 300 150 150 0 000-300zm0 0"/></clipPath><clipPath id="H"><path d="M196 212h2v2h-2zm0 0"/></clipPath><clipPath id="I"><path d="M150 0a150 150 0 100 300 150 150 0 000-300zm0 0"/></clipPath><clipPath id="J"><path d="M92 124h117v95H92zm0 0"/></clipPath><clipPath id="K"><path d="M150 0a150 150 0 100 300 150 150 0 000-300zm0 0"/></clipPath><clipPath id="L"><path d="M161 197h13v18h-13zm0 0"/></clipPath><clipPath id="M"><path d="M150 0a150 150 0 100 300 150 150 0 000-300zm0 0"/></clipPath><clipPath id="N"><path d="M165 210h3v4h-3zm0 0"/></clipPath><clipPath id="O"><path d="M150 0a150 150 0 100 300 150 150 0 000-300zm0 0"/></clipPath><clipPath id="P"><path d="M121 203h44v9h-44zm0 0"/></clipPath><clipPath id="Q"><path d="M150 0a150 150 0 100 300 150 150 0 000-300zm0 0"/></clipPath><clipPath id="R"><path d="M133 204h3v3h-3zm0 0"/></clipPath><clipPath id="S"><path d="M150 0a150 150 0 100 300 150 150 0 000-300zm0 0"/></clipPath><clipPath id="T"><path d="M117 194h15v14h-15zm0 0"/></clipPath><clipPath id="U"><path d="M150 0a150 150 0 100 300 150 150 0 000-300zm0 0"/></clipPath><clipPath id="V"><path d="M171 184h26v23h-26zm0 0"/></clipPath><clipPath id="W"><path d="M150 0a150 150 0 100 300 150 150 0 000-300zm0 0"/></clipPath><clipPath id="X"><path d="M183 194h3v3h-3zm0 0"/></clipPath><clipPath id="Y"><path d="M150 0a150 150 0 100 300 150 150 0 000-300zm0 0"/></clipPath><clipPath id="Z"><path d="M189 192h3v3h-3zm0 0"/></clipPath><clipPath id="aa"><path d="M150 0a150 150 0 100 300 150 150 0 000-300zm0 0"/></clipPath><clipPath id="ab"><path d="M117 204h2v2h-2zm0 0"/></clipPath><clipPath id="ac"><path d="M150 0a150 150 0 100 300 150 150 0 000-300zm0 0"/></clipPath><clipPath id="ad"><path d="M138 201h2v2h-2zm0 0"/></clipPath><clipPath id="ae"><path d="M150 0a150 150 0 100 300 150 150 0 000-300zm0 0"/></clipPath><clipPath id="af"><path d="M104 189h19v13h-19zm0 0"/></clipPath><clipPath id="ag"><path d="M150 0a150 150 0 100 300 150 150 0 000-300zm0 0"/></clipPath><clipPath id="ah"><path d="M111 197h3v2h-3zm0 0"/></clipPath><clipPath id="ai"><path d="M150 0a150 150 0 100 300 150 150 0 000-300zm0 0"/></clipPath><clipPath id="aj"><path d="M112 195h3v3h-3zm0 0"/></clipPath><clipPath id="ak"><path d="M150 0a150 150 0 100 300 150 150 0 000-300zm0 0"/></clipPath><clipPath id="al"><path d="M129 198h2v2h-2zm0 0"/></clipPath><clipPath id="am"><path d="M150 0a150 150 0 100 300 150 150 0 000-300zm0 0"/></clipPath><clipPath id="an"><path d="M176 193h2v3h-2zm0 0"/></clipPath><clipPath id="ao"><path d="M150 0a150 150 0 100 300 150 150 0 000-300zm0 0"/></clipPath><clipPath id="ap"><path d="M97 176h15v14H97zm0 0"/></clipPath><clipPath id="aq"><path d="M150 0a150 150 0 100 300 150 150 0 000-300zm0 0"/></clipPath><clipPath id="ar"><path d="M189 180h5v6h-5zm0 0"/></clipPath><clipPath id="as"><path d="M150 0a150 150 0 100 300 150 150 0 000-300zm0 0"/></clipPath><clipPath id="at"><path d="M192 171h13v15h-13zm0 0"/></clipPath><clipPath id="au"><path d="M150 0a150 150 0 100 300 150 150 0 000-300zm0 0"/></clipPath><clipPath id="av"><path d="M197 168h7v7h-7zm0 0"/></clipPath><clipPath id="aw"><path d="M150 0a150 150 0 100 300 150 150 0 000-300zm0 0"/></clipPath><clipPath id="ax"><path d="M214 195h25v7h-25zm0 0"/></clipPath><clipPath id="ay"><path d="M150 0a150 150 0 100 300 150 150 0 000-300zm0 0"/></clipPath><clipPath id="az"><path d="M218 126h32v63h-32zm0 0"/></clipPath><clipPath id="aA"><path d="M150 0a150 150 0 100 300 150 150 0 000-300zm0 0"/></clipPath><clipPath id="aB"><path d="M232 126h15v25h-15zm0 0"/></clipPath><clipPath id="aC"><path d="M150 0a150 150 0 100 300 150 150 0 000-300zm0 0"/></clipPath><clipPath id="aD"><path d="M233 127h10v19h-10zm0 0"/></clipPath><clipPath id="aE"><path d="M150 0a150 150 0 100 300 150 150 0 000-300zm0 0"/></clipPath><clipPath id="aF"><path d="M235 128h4v10h-4zm0 0"/></clipPath><clipPath id="aG"><path d="M150 0a150 150 0 100 300 150 150 0 000-300zm0 0"/></clipPath><clipPath id="aH"><path d="M231 152h1v1h-1zm0 0"/></clipPath><clipPath id="aI"><path d="M150 0a150 150 0 100 300 150 150 0 000-300zm0 0"/></clipPath><clipPath id="aJ"><path d="M218 187h5v3h-5zm0 0"/></clipPath><clipPath id="aK"><path d="M150 0a150 150 0 100 300 150 150 0 000-300zm0 0"/></clipPath><clipPath id="aL"><path d="M217 187h19v6h-19zm0 0"/></clipPath><clipPath id="aM"><path d="M150 0a150 150 0 100 300 150 150 0 000-300zm0 0"/></clipPath><clipPath id="aN"><path d="M216 191h22v7h-22zm0 0"/></clipPath><clipPath id="aO"><path d="M150 0a150 150 0 100 300 150 150 0 000-300zm0 0"/></clipPath><clipPath id="aP"><path d="M61 195h25v7H61zm0 0"/></clipPath><clipPath id="aQ"><path d="M150 0a150 150 0 100 300 150 150 0 000-300zm0 0"/></clipPath><clipPath id="aR"><path d="M50 126h32v63H50zm0 0"/></clipPath><clipPath id="aS"><path d="M150 0a150 150 0 100 300 150 150 0 000-300zm0 0"/></clipPath><clipPath id="aT"><path d="M53 126h15v25H53zm0 0"/></clipPath><clipPath id="aU"><path d="M150 0a150 150 0 100 300 150 150 0 000-300zm0 0"/></clipPath><clipPath id="aV"><path d="M57 127h10v19H57zm0 0"/></clipPath><clipPath id="aW"><path d="M150 0a150 150 0 100 300 150 150 0 000-300zm0 0"/></clipPath><clipPath id="aX"><path d="M61 128h4v10h-4zm0 0"/></clipPath><clipPath id="aY"><path d="M150 0a150 150 0 100 300 150 150 0 000-300zm0 0"/></clipPath><clipPath id="aZ"><path d="M68 152h1v1h-1zm0 0"/></clipPath><clipPath id="ba"><path d="M150 0a150 150 0 100 300 150 150 0 000-300zm0 0"/></clipPath><clipPath id="bb"><path d="M77 187h5v3h-5zm0 0"/></clipPath><clipPath id="bc"><path d="M150 0a150 150 0 100 300 150 150 0 000-300zm0 0"/></clipPath><clipPath id="bd"><path d="M64 187h19v6H64zm0 0"/></clipPath><clipPath id="be"><path d="M150 0a150 150 0 100 300 150 150 0 000-300zm0 0"/></clipPath><clipPath id="bf"><path d="M62 191h22v7H62zm0 0"/></clipPath><clipPath id="bg"><path d="M150 0a150 150 0 100 300 150 150 0 000-300zm0 0"/></clipPath><clipPath id="bh"><path d="M135 185h30v14h-30zm0 0"/></clipPath><clipPath id="bi"><path d="M150 0a150 150 0 100 300 150 150 0 000-300zm0 0"/></clipPath><clipPath id="bj"><path d="M141 161h19v31h-19zm0 0"/></clipPath><clipPath id="bk"><path d="M150 0a150 150 0 100 300 150 150 0 000-300zm0 0"/></clipPath><clipPath id="bl"><path d="M142 135h16v29h-16zm0 0"/></clipPath><clipPath id="bm"><path d="M150 0a150 150 0 100 300 150 150 0 000-300zm0 0"/></clipPath><clipPath id="bn"><path d="M98 101h105v37H98zm0 0"/></clipPath><clipPath id="bo"><path d="M150 0a150 150 0 100 300 150 150 0 000-300zm0 0"/></clipPath><clipPath id="bp"><path d="M148 97h5v12h-5zm0 0"/></clipPath><clipPath id="bq"><path d="M150 0a150 150 0 100 300 150 150 0 000-300zm0 0"/></clipPath><clipPath id="br"><path d="M139 82h23v6h-23zm0 0"/></clipPath><clipPath id="bs"><path d="M150 0a150 150 0 100 300 150 150 0 000-300zm0 0"/></clipPath><clipPath id="bt"><path d="M151 64h13v16h-13zm0 0"/></clipPath><clipPath id="bu"><path d="M150 0a150 150 0 100 300 150 150 0 000-300zm0 0"/></clipPath><clipPath id="bv"><path d="M148 62h6v3h-6zm0 0"/></clipPath><clipPath id="bw"><path d="M150 0a150 150 0 100 300 150 150 0 000-300zm0 0"/></clipPath><clipPath id="bx"><path d="M149 64h4v21h-4zm0 0"/></clipPath><clipPath id="by"><path d="M150 0a150 150 0 100 300 150 150 0 000-300zm0 0"/></clipPath><clipPath id="bz"><path d="M135 84h31v15h-31zm0 0"/></clipPath><clipPath id="bA"><path d="M150 0a150 150 0 100 300 150 150 0 000-300zm0 0"/></clipPath><clipPath id="bB"><path d="M172 231h2v2h-2zm0 0"/></clipPath><clipPath id="bC"><path d="M150 0a150 150 0 100 300 150 150 0 000-300zm0 0"/></clipPath><clipPath id="bD"><path d="M175 230h2v2h-2zm0 0"/></clipPath><clipPath id="bE"><path d="M150 0a150 150 0 100 300 150 150 0 000-300zm0 0"/></clipPath></defs><g clip-path="url(#a)"><path fill="#f7df16" d="M0 0h300v300H0z"/></g><g clip-path="url(#b)"><g clip-path="url(#c)"><path d="M450 145.8v70.9l-600-125V20.8zm0 0" fill="#fff"/></g></g><g clip-path="url(#d)"><g clip-path="url(#e)"><path d="M450 216.7v62.5l-600-125V91.7zm0 0"/></g></g><g clip-path="url(#f)"><g clip-path="url(#g)"><path d="M139.9 237.4a48.8 48.8 0 01-22.7-8.4c-.1 0-.3.7-.3 1.7 0 2.6-1 4-3.7 4.7-2.6.6-6.5-.7-9.7-3.3-3.3-2.8-7-4.9-10.3-5.7a16.6 16.6 0 00-11.6 1.5l-1.2.5c-.4 0-.4-2.8 0-3.7a7.3 7.3 0 014-3c1-.4 1.7-.8 1.7-1 0-.2-.3-.9-.7-1.5-1.2-2.1-.7-4.2 1.4-5.8 2.1-1.6 5.8-2 9-.7l1.7.6c.4 0 .2-.6-1-2.3-1.4-2-1.6-3-1.4-5.3.2-3 2.6-5.4 5.6-5.6 2.4-.2 3.9.6 7.5 4a60.1 60.1 0 0035.8 17.3c3.5.4 10.3.2 14.4-.4a65 65 0 0034-17c2.7-2.5 4-3.2 6.2-3.2 1.9 0 3.2.6 4.6 2.1 1.2 1.4 1.6 2.7 1.5 4.8a6 6 0 01-1.1 3.3c-1.2 1.9-1 2 1.3 1.2 3.2-1.3 7-.7 9.1 1.3 1.9 1.7 2 3.5.6 5.9l-1 1.8c0 .2.5.3 2.4.6 2.5.4 3.9 2.3 3.9 5.1 0 .9-.1 1.5-.2 1.5l-2.1-.7c-3-1.2-4.6-1.5-8-1.5a14 14 0 00-5.3.7c-2.7 1-5.7 2.7-8.1 4.8-2.7 2.4-4.3 3.1-7 3.1-2.3 0-4-.7-4.8-2.1-.5-.7-.5-1.2-.4-2.8v-2c-.2 0-1 .6-2.1 1.3-2.8 2-4.6 2.9-7.7 4.1a75.6 75.6 0 01-34.3 4" fill="#cf1125"/></g></g><g clip-path="url(#h)"><g clip-path="url(#i)"><path d="M184.5 224.9c1.7-.9 4-3.2 4.9-5 .7-1.4.8-2 .9-4.5 0-2.3 0-3-.4-3.8-.4-.8-.6-.9-1.7-.9-1 0-1.3.1-1.8 1-.8 1.1-.9 3.6-.2 4.5.5.6.6.6 1.5.2 1.4-.6 1.6-.5 1.6.2 0 1.8-2.7 5.4-5.4 7.3-.8.5-1.4 1-1.5 1.2-.2.6.8.4 2-.2" fill="#fc0"/></g></g><g clip-path="url(#j)"><g clip-path="url(#k)"><path d="M146.3 235c1.6-.6 2.6-1.6 3.3-3.6l.5-2.2c-.2-.6-.9-.6-1.7 0-.5.5-.6.7-.4 1.7.4 2.3-.5 2.9-4.9 3.4-.4 0-1.7 0-2.8-.2-2.1-.3-2.9 0-2.1.6.2.2.8.4 1.3.5 1.2.3 5.5.1 6.8-.3" fill="#ffd32a"/></g></g><g clip-path="url(#l)"><g clip-path="url(#m)"><path d="M155.4 234.5c.3-.2 1.1-.6 2-.8 1-.4 1.5-.8 2-1.4 1.3-2 1-3.6-.8-5.9-1-1.2-1.5-1.1-2.4.2-.7 1.2-.7 1.3.4 1.5.5.2 1 .5 1.3 1 1.1 2 .8 3.2-.9 3.2-1.5 0-1.9.2-2.3 1.2l-.4 1.2c0 .4.6.3 1.1-.2" fill="#ffd32a"/></g></g><g clip-path="url(#n)"><g clip-path="url(#o)"><path d="M152.4 232.4c.3-.8.4-2.2.4-5 0-2.1-.1-4-.2-4-.3-.3-1.5.5-1.7 1 0 .3 0 .9.3 1.4.4.7.5 1.4.4 4.3-.2 3.7 0 4.4.8 2.3" fill="#ffd32a"/></g></g><g clip-path="url(#p)"><g clip-path="url(#q)"><path d="M145.4 230.6l.4-3.1c0-1 .3-2.4.5-3 .4-1.4 0-1.7-1.2-1l-.8.7.2 2c.1 1.9-.2 5.4-.6 6.7-.1.4 0 .3.5-.2.4-.5.8-1.4 1-2.1" fill="#ffd32a"/></g></g><g clip-path="url(#r)"><g clip-path="url(#s)"><path d="M139.1 231.6c1-.9 1.2-1.5 1.6-4.4l.5-3.6c.2-1-.2-1.1-1.3-.2-.8.6-.8.7-.5 1.6.3 1.2 0 4.3-.6 5.2-.5.7-1.5.9-2.4.4-.4-.2-.4-.5-.3-1 .2-1.2-.4-1.4-2.3-.5-1.7.7-2.3.7-2.1-.3 0-.3 0-.7-.3-.9-.3-.3-.7-.3-3.2 0-.4.1-.6 0-.6-.5l-.1-1c-.1-.2-1.4-.3-2.9-.3-2.8 0-4.9-.6-6.3-1.5-1.5-1-1.6-1.8-.6-3.6.4-1 1-2 1.1-2.6a5 5 0 011.1-1.7l.8-1c0-.4-1.8-.1-2.5.4-.6.3-.7.6-.5 1.3.1 1-.5 2.5-1.7 4-1.3 1.5-3.3.9-5.9-2-1-1-1.3-1.3-1.6-1-.4.4 0 2 .7 2.7.8.7 4 2.2 4.8 2.2.8 0 1 .2 1.6 1.2.6 1.2 4.8 2.5 8.8 2.7 1.3 0 1.4 0 1.5.8.1.8.1.9 2 1 2 0 2.3.1 1.7.7-.1.2-.2.5-.1.8.1.3.5.4 1.9.3l2.2-.3c.4-.1.6 0 1 .7.3.7.6 1 1.3 1 1.3.3 2.5 0 3.2-.6" fill="#ffd32a"/></g></g><g clip-path="url(#t)"><g clip-path="url(#u)"><path d="M175.3 230.1a9.3 9.3 0 004.8-4.5l.8-2c0-.3-1.2-.8-2-.8-.7 0-.8-.5-.5-2 .3-1.2 0-3-.6-3-.2 0-.6.4-.9.8-.4.6-.4.8-.1 1.7.4 1.2 0 2.2-1 3-.6.4-.9.8-.9 1.2l.1.7 1.3-.7 1.3-.7.7.6c.4.3.7.8.7 1.1 0 1.5-4.2 4-7.1 4.2-1.6.2-1.8.1-2.4-.4-.4-.5-.6-.8-.4-1.4l.3-1.6c.3-1.2-.3-1-1.3.4-.7 1.3-1 2.6-.5 3.3.3.6 2.7 1.1 4.4 1 1.1 0 2.2-.3 3.3-.9" fill="#fc0"/></g></g><g clip-path="url(#v)"><g clip-path="url(#w)"><path d="M187.2 214.5c-.6-1-.2-2.2.7-2.2.6 0 .7.2.8 1 0 .7 0 1-.5 1.4-.5.5-.5.5-1-.2" fill="#cf1125"/></g></g><g clip-path="url(#x)"><g clip-path="url(#y)"><path d="M191.6 221c1.5-1.5 2.1-3.4 2.2-6.2v-2.2l1.2-.6c1.7-.8 3.2-2.3 3.2-3.2 0-.9-.4-.9-1 .1-.6.7-1.3 1.2-3.9 2.3-.6.3-.6.5-.8 3.2-.1 3-.6 4.2-2.3 6.4-1 1.2-1.1 1.4-.4 1.4.3 0 1.1-.5 1.8-1.2" fill="#fc0"/></g></g><g clip-path="url(#z)"><g clip-path="url(#A)"><path d="M114.2 219c.5-.6 1.2-1.8 1.6-2.7.3-.8.9-1.8 1.2-2.1.8-.8.3-1.3-.8-1-.7 0-1 .3-1 .8a14 14 0 01-1.6 4.5c-1 1.5-1 1.5-.6 1.5.2 0 .8-.4 1.2-1" fill="#ffd32a"/></g></g><g clip-path="url(#B)"><g clip-path="url(#C)"><path d="M174.9 219.3c.1-.4-.7-.8-1.1-.4-.2.2-.2.4-.1.6.2.4 1 .3 1.2-.2" fill="#fc0"/></g></g><g clip-path="url(#D)"><g clip-path="url(#E)"><path d="M108.6 216.4c1.3-.7 2.7-2.3 2.7-3.4 0-.6-1.2-1.4-2.2-1.4-.4 0-1.2.4-2 .9-2 1.5-4.3 1.2-5.5-.8-1-1.6-2-2.5-3-2.5-1.2 0-1.2.7 0 1.1.5.2 1 .7 1.3 1.4 1.1 2.2 1.8 2.6 4.7 2.9l2 .2v1.1c0 .6.2 1.2.3 1.2.2 0 1-.3 1.7-.7" fill="#ffd32a"/></g></g><g clip-path="url(#F)"><g clip-path="url(#G)"><path d="M108.1 214.5c-.2-.6.1-1.2.7-1.2s.7.4.4 1.2c-.2.5-.9.5-1.1 0" fill="#cf1125"/></g></g><g clip-path="url(#H)"><g clip-path="url(#I)"><path d="M197.9 213.3c.1-.4-.7-.7-1-.4-.2.2-.3.5-.2.6.3.4 1 .3 1.2-.2" fill="#fc0"/></g></g><g clip-path="url(#J)"><g clip-path="url(#K)"><path d="M144.3 218.8l-2.8-.4c-7-.9-15.2-3.7-21.2-7.3a57.7 57.7 0 01-26.6-37.7c-3.6-17.7-1-33 7.3-44.1 1.6-2 3.2-3.7 2.9-3l-1.5 3.4a46.5 46.5 0 00-1.4 30.5A51.2 51.2 0 00140 198l5 1c4.1.7 6.4.6 12-.5a50.2 50.2 0 0039-29.6c3.2-7.8 4.8-19.1 3.7-27.8a49.3 49.3 0 00-4.8-16.7 32 32 0 015.3 6.6c4 6 6.7 13.6 7.7 21.4.8 6.4 0 16.7-1.5 22.7a56.3 56.3 0 01-51.5 43.6 88 88 0 01-10.7.1" fill="#cf1125"/></g></g><g clip-path="url(#L)"><g clip-path="url(#M)"><path d="M168 213.6c.2-.2.5-.8.6-1.3 0-.5.3-1 .5-1l1.4-.4a3.3 3.3 0 001.9-1.3c1-1.4 1-3.2-.5-7.6a304.8 304.8 0 01-1.3-4.2c-.3-.9-.5-.8-1.3.2l-.6.8.7.9c.9 1 2.3 5.4 2.3 7.2 0 1 0 1.7-.4 2.2-.5.8-.3.7-4.2.2-.8-.1-1.4 0-2.2.4-1.5.8-2.1.7-2.5 0-.5-1.1-.9-.7-.9.8v1.3h3l.2 1c0 .6.3 1.2.5 1.3.5.3 2.2 0 2.7-.5" fill="#fc0"/></g></g><g clip-path="url(#N)"><g clip-path="url(#O)"><path d="M165.8 212.3c-.5-.8-.3-1.5.6-1.5.5 0 .8.2 1 .7.5 1.4-.7 2.1-1.6.8" fill="#d30000"/></g></g><g clip-path="url(#P)"><g clip-path="url(#Q)"><path d="M131.5 211.1c.9-.4 1.9-1.1 2.8-2l1.3-1.6 1.6.2c2 .3 2 .3 2 1.2 0 .8 0 .8 1.8 1l3 .1c.7 0 1.2.2 1.4.5.4.5.6.5 3.5.3 2.8-.3 3.3-.2 4.5.2 1 .3 1.9.4 2.6.3 2.1-.2 5-2 5.4-3.2 0-.2.8-.4 1.7-.6 2.1-.4 2.2-.9.3-1.1-.9-.1-2.2-.5-2.9-.7-.7-.3-1.7-.6-2.2-.6-1 0-2 .7-2 1.4 0 .4.1.5 1.4.4 1.1-.2 1.5 0 2.1.4.4.3.7.7.6.9-.3.4-2.7 1.5-3.8 1.7a3 3 0 01-2-.3c-.9-.5-2.3-.5-2.6-.1-.1.2-.4 0-.8-.3l-.7-.6-1.4.6c-1.5.6-2 .6-2-.1 0-.4-.5-.4-2.7-.3-2.5.2-2.7.2-3.2-.3-.4-.5-.4-.7-.1-1.2.3-.4.3-.6 0-.9-.2-.2-.6-.2-1.5 0-2.5.7-3.1.3-3.1-1.6 0-1.6-1.4-2.3-2.7-1.4-2.3 1.6-2.8 3.4-1.3 4.1 1 .6.8 1.2-1 2-2.4 1.3-4.6 1.1-8.8-.6-1-.4-1.3-.2-1 .7.2 1 1 1.4 3.1 1.9 2.3.5 5 .4 6.7-.4" fill="#fc0"/></g></g><g clip-path="url(#R)"><g clip-path="url(#S)"><path d="M133.6 205.8c-.2-.3 0-.6.3-.8.4-.3.6-.3.9 0 .2.2.3.6.2.8-.2.6-1.2.6-1.4 0" fill="#cf1125"/></g></g><g clip-path="url(#T)"><g clip-path="url(#U)"><path d="M130 206.5c1.5-1 1.5-.9 1.7-3.5.1-1.8.1-2-.4-2-.7 0-1 .9-1 2.4 0 1-.2 1.4-.7 1.9-1.3 1.2-4.3.7-4.7-.9-.1-.5 0-1 .7-1.9 1.3-1.8 1-2.3-.6-.9-1.1 1-1.3 1-1.1.2.2-.8-.2-1.1-1.2-.9-.4.1-.7.4-.8 1-.1.6-.3.9-.8 1-.7.2-2-.5-2-1.1 0-.5 1.9-2.8 4.3-5.3 1-1 1.7-1.8 1.7-2s-.5-.2-1.1-.2c-.9 0-1 .1-1 .5 0 .3-1.3 1.9-2.8 3.6-3.1 3.5-3.4 4.2-1.8 5.1 1.2.8 2.8.7 4-.1l1-.7v1.2c0 1.6.4 2.2 1.6 2.9a5 5 0 005-.3" fill="#fc0"/></g></g><g clip-path="url(#V)"><g clip-path="url(#W)"><path d="M174.8 205c0-1.7 0-1.9.5-1.8 3.1.6 4.6.2 6-1.7.6-1 .7-1.2.6-2.8l-.1-1.7 1.5.1c2.7.4 2.8.4 2.6 1.5-.5 3-1.5 4.7-3.8 6.7-1.7 1.4-1.7 2.1 0 1.3 1.4-.6 3-2.3 3.8-4 .7-1.2.8-1.7.8-3.6 0-2 0-2.4.7-2.8.4-.4 1-.5 2-.5 1.4 0 1.6 0 2.2-.7.6-.6.7-1 .5-1.6-.2-1.3 0-1.7 1.5-2.5 2-1 2.7-2 2.7-3.7 0-1.6-.5-2.6-1.2-2.3-.5.2-.6 1.6 0 2.3 0 .3.2.7 0 1-.2.6-1.7 1.4-3 1.6-1.7.3-2.8 1.2-3.7 2.9-1.4 2.7-1.2 2.6-2.4 1.5-1.8-1.7-3.5-1.2-4.2 1.1l-.3 1-.5-1c-.5-1-1.1-1.3-1.7-.7-.5.6-.4 1.4.5 2.7.5.6.8 1.4.8 1.8 0 1.7-1.6 3-3 2.6-.9-.2-1.6-1.3-1.6-2.4 0-1-.7-.8-1 .2-.3 1.6-1 1-1.4-1.4-.2-1.5-.8-1.6-1.5-.2-.4 1-.4 1.1 0 1.5.7.9 1.8 4.2 2 6 .1 2.3.7 2 .7-.4" fill="#fc0"/></g></g><g clip-path="url(#X)"><g clip-path="url(#Y)"><path d="M183.7 195.8c-.6-.4-.3-1.2.5-1.2s1.4.6 1.2 1.2c-.2.5-1 .5-1.7 0" fill="#cf1125"/></g></g><g clip-path="url(#Z)"><g clip-path="url(#aa)"><path d="M189.7 194a1 1 0 011-1.3c.5 0 .6.6.3 1.5-.2.6-1.1.5-1.3-.2" fill="#cf1125"/></g></g><g clip-path="url(#ab)"><g clip-path="url(#ac)"><path d="M118.8 204.8c0-.3 0-.5-.3-.5-.5 0-.8.5-.6.9.2.4.8.1.9-.4" fill="#fc0"/></g></g><g clip-path="url(#ad)"><g clip-path="url(#ae)"><path d="M140 202.4c0-.4-.2-.5-.5-.5-.7.2-.8 1 0 1 .3 0 .5-.1.5-.5" fill="#fc0"/></g></g><g clip-path="url(#af)"><g clip-path="url(#ag)"><path d="M110.6 200.1l.7-1 2.8.2c3.5.2 3.9 0 6.4-3a9 9 0 012-2c.2 0 .4-.3.4-.7 0-1-1.2-1-1.8.1a19 19 0 01-4.1 4.4c-.4.2-1.2.2-1.9.1-1-.1-1.1-.2-.7-.4.7-.4 2.3-2 2.3-2.4 0-.4-1.3-.8-2.1-.7l-2.2 1c-1.4.8-2.5.8-2.5 0 0-.2.6-1 1.4-2a198.3 198.3 0 002.2-2.3c.4-.5.9-.9 1-.9.2 0 .3-.2.3-.4 0-.3-.3-.4-1-.4-1 0-1.1.1-1.7 1.2-.4.7-1 1.6-1.6 2-.8.8-1.1.9-1.8.8-1.4-.2-2.3-1-2.3-1.9 0-.4-.2-.8-.4-1-.6-.1-1.5.5-1.5 1 0 1 .3 1.5 1.9 2.2 1.4.7 1.6 1 1.7 1.7 0 .8.1 1 .8.9 1-.1 1.5.8.9 2-.5.9-.6 2.5-.2 2.5l1-1" fill="#fc0"/></g></g><g clip-path="url(#ah)"><g clip-path="url(#ai)"><path d="M111.8 198c0-.5.2-.5 1-.3.3.2.3.3 0 .4-.5.4-1 .3-1-.1" fill="#f0f"/></g></g><g clip-path="url(#aj)"><g clip-path="url(#ak)"><path d="M112.9 196.8c0-.2 1.2-.9 1.6-.9.5 0 .3.8-.3 1-.9.2-1.3.2-1.3-.1" fill="#cf1125"/></g></g><g clip-path="url(#al)"><g clip-path="url(#am)"><path d="M130.9 198.6c0-.5-1-.5-1.2.1 0 .4 0 .5.6.4.3 0 .6-.2.6-.5" fill="#fc0"/></g></g><g clip-path="url(#an)"><g clip-path="url(#ao)"><path d="M177.6 194.5c0-.6-.7-1-1.1-.5-.4.4 0 1.2.5 1a.8.8 0 00.6-.5" fill="#fc0"/></g></g><g clip-path="url(#ap)"><g clip-path="url(#aq)"><path d="M105 188.8c.7-.6.7-.7.3-2-.4-2-.4-2.2.4-2.4.9-.2 3.3 1 3.8 2 .4.8.4.9-.3 1.5-.7.7-.7 1.5 0 1.5.6 0 2.3-1.6 2.3-2.2 0-.8-1.9-2.7-3.4-3.4a6.7 6.7 0 00-2.9-.6c-1.9 0-2.2.4-1.6 2.6.6 2.7-.3 3-2.4 1a6.6 6.6 0 01-2.1-5.3c0-2.6 1-3.9 3.2-4.2 1.4-.2 1.4-.5-.1-.7-2.2-.4-4 1-4.8 3.7-.8 3 1 6.5 4.2 8.3 1.7 1 2.4 1 3.3.2" fill="#fc0"/></g></g><g clip-path="url(#ar)"><g clip-path="url(#as)"><path d="M192 185.6c.1-.2.3-.6.3-1l.6-1.4.7-1.1c0-.6-.8-.5-1.5 0s-1.2.5-1.2 0c0-.1.3-.4.7-.6 1-.5 1.1-1 .3-1.3-1.1-.5-2.2.4-2.3 1.9 0 1 0 1.1.8 1.5.7.5.8.7.7 1.3-.2 1 .2 1.3.8.7" fill="#fc0"/></g></g><g clip-path="url(#at)"><g clip-path="url(#au)"><path d="M200.1 184.7c.6-.6 1.1-1.2 1.1-1.4 0-.2.5-.7 1.2-1.2 1.8-1.3 2.1-2.6 1.3-4.6-.3-.8-1.3-1.9-3.4-3.8a21.7 21.7 0 00-3.3-2.7c-.6 0-.5 2.2 0 2.3 1.1.4 1.8.8 3.5 2.3 2 1.8 2.8 3.4 2.3 4.4-.4.8-1 .6-2.8-1.3-.9-1-1.8-1.7-2-1.7-.2 0-.3.3-.3.8 0 .6.3 1.2 1.2 2.2 1.5 1.6 1.6 2.6.5 3.4-.4.4-.8.6-.9.6l-.7-1c-.6-1.3-4.3-5.2-4.9-5.2-.2 0-.4.3-.4 1s.2 1 .8 1.3a24 24 0 014.4 4.4 5 5 0 001.1 1.1c.1 0 .7-.4 1.3-1" fill="#fc0"/></g></g><g clip-path="url(#av)"><g clip-path="url(#aw)"><path d="M203.8 174.2c-.3-.8-5.3-5.9-5.8-5.9-.2 0-.3.3-.3 1.1.1 1 .2 1.2.9 1.4.4 0 1.7 1.1 3 2.3 1.1 1.1 2.1 2 2.2 1.9.1 0 0-.4 0-.8" fill="#fc0"/></g></g><g clip-path="url(#ax)"><g clip-path="url(#ay)"><path d="M236.7 195.8c1-.1 2.1.8 1.8 2-.1.2-.5.6-1.1 1-.6.4-1.5.9-2.6 1.3-2.1.8-5 1.4-8.5 1.3h.5a21 21 0 01-7.9-1c-2-.8-3.8-1.3-4-3.1 0-.3.2-.5.3-.6l.7-.4c.7-.1 1.4.2 2 .4 1.3.5 4.1 1.7 8.9 1.7a17 17 0 006.2-1.2c2.3-.7 2.6-1.3 3.7-1.4" fill="#cf1125"/></g></g><g clip-path="url(#az)"><g clip-path="url(#aA)"><path d="M249.4 126.1c.2 0 .3.2.4.4 0 0 .2.4.2 1v2l-.7 5.8c-.7 4.3-1.8 9.2-3 12.2a23 23 0 01-6 7.3c-2.4 2.2-4.8 4.1-5.6 6.1-.2.4-.2.8-.3 1.6l-.2 2.6-.2 7.7v13.7l-.3.1-2 1c-1.5.7-3.4 1.4-5.3 1.3-3.9 0-5.6-1.2-7-1.7a4.2 4.2 0 00-.7-.2c0-3.7.4-29.1.3-33.6 0-1.2 1.2-2.7 2.6-4.1 1.5-1.4 3.3-2.6 4.3-3.4a52 52 0 006.2-7 8.3 8.3 0 011.3-1l1.4-.6 1 .1c.3.2.4.5.4 1l-.4 1.7c-.6 1.4-1.5 3-2.2 3.8-.4.6-.8 1.6-1.2 2.7a36.4 36.4 0 00-1 3.3 10 10 0 00-.3 2.4c0 .1 0 .3.2.5a.5.5 0 00.4 0l.3-.1.5-1c.4-.9 1.7-1.8 3.4-2.8 1.7-1 3.7-2 5.3-3.2.4-.4.5-.8.6-1.4l.4-2c.5-1.7 1.5-4 4-7l.1-.1v-.2c-.6-2.8.2-5.5 1.2-7.2.5-.8 1-1.4 1.5-1.6a.8.8 0 01.4 0" fill="#cf1125"/></g></g><g clip-path="url(#aB)"><g clip-path="url(#aC)"><path d="M245.2 126.7a.8.8 0 01.5.2c.4.3.6.8.6 1.4a11.4 11.4 0 00-.9 6.6c-2.5 3-3.5 5.4-4 7.1l-.4 2.2c-.1.5-.3.7-.4.8-1.5 1.2-3.4 2.2-5.1 3.2-1.4.8-2.7 1.6-3.4 2.5l.2-.6.5-1.9c.3-.7 1-1.6 2-2.3a8 8 0 012.6-1.4l.4-.1v-.3c0-.8.7-2.6 1.6-4.3.9-1.8 2-3.4 3-4l.2-.1v-.3c-.2-5.4 1-7.8 2-8.4l.6-.3" fill="#cf1125"/></g></g><g clip-path="url(#aD)"><g clip-path="url(#aE)"><path d="M241.8 127.8l.4.2.3.8c-.5 1.4-.8 3.5-.7 6.4-1.2.9-2.3 2.5-3.2 4.2-.8 1.6-1.5 3.2-1.6 4.3a9 9 0 00-3.4 2.2c.2-.7.5-1.2.7-1.5a20 20 0 002.7-5.4 6 6 0 001.6-4.6c-.2-2.4.8-4.6 1.8-5.8.6-.6 1-.9 1.4-.8" fill="#cf1125"/></g></g><g clip-path="url(#aF)"><g clip-path="url(#aG)"><path d="M237.9 128.3s.2 0 .3.2c.2.1.5.4.7.8a9 9 0 00-1 5.1c0 1.1-.4 2.3-1 3.2 0-.3-.2-.7-.6-.9a2 2 0 00-1.2-.3c.2-2.8.8-5.5 1.5-7 .4-.7.9-1 1.1-1a.5.5 0 01.2 0" fill="#cf1125"/></g></g><g clip-path="url(#aH)"><g clip-path="url(#aI)"><path d="M232 152.2c0 .1 0 .1 0 0" fill="#cf1125"/></g></g><g clip-path="url(#aJ)"><g clip-path="url(#aK)"><path d="M218.7 187.9l.5.1c.7.3 1.7.8 3.3 1.2h-3.9v-1.3" fill="#cf1125"/></g></g><g clip-path="url(#aL)"><g clip-path="url(#aM)"><path d="M234 187.3c.9-.1 1.7.8 1.4 2 0 .2-.3.6-.8 1s-1.1.9-1.9 1.3a13 13 0 01-6.3 1.3h.3c-2.6 0-4-.2-5.8-1-1.5-.7-2.8-1.2-3-3 0-.4.1-.6.3-.7a1 1 0 01.5-.3c.4-.2 1 .2 1.4.4 1 .4 3.1 1.6 6.6 1.6 1.9.1 3.2-.5 4.6-1.1 1.7-.8 2-1.3 2.8-1.5" fill="#cf1125"/></g></g><g clip-path="url(#aN)"><g clip-path="url(#aO)"><path d="M235.5 191.5c1-.1 1.9.8 1.6 2l-1 1a17.4 17.4 0 01-9.7 2.6h.5c-3 0-4.7-.3-6.8-1.1-1.8-.7-3.3-1.2-3.5-3 0-.3.1-.5.3-.7l.6-.3c.5-.1 1.2.2 1.7.4 1.2.5 3.6 1.7 7.7 1.7a13 13 0 005.4-1.2c2-.7 2.3-1.3 3.2-1.4" fill="#cf1125"/></g></g><g clip-path="url(#aP)"><g clip-path="url(#aQ)"><path d="M63.3 195.8c-1-.1-2.1.8-1.8 2 .1.2.5.6 1.1 1 .6.4 1.5.9 2.6 1.3 2.1.8 5 1.4 8.5 1.3h-.5a21 21 0 007.9-1c2-.8 3.8-1.3 4-3.1 0-.3-.2-.5-.3-.6l-.7-.4c-.7-.1-1.4.2-2 .4-1.3.5-4.1 1.7-8.9 1.7a17 17 0 01-6.2-1.2c-2.3-.7-2.6-1.3-3.7-1.4" fill="#cf1125"/></g></g><g clip-path="url(#aR)"><g clip-path="url(#aS)"><path d="M50.6 126.1c-.2 0-.3.2-.4.4 0 0-.2.4-.2 1v2l.7 5.8c.7 4.3 1.8 9.2 3 12.2a23 23 0 006 7.3c2.4 2.2 4.8 4.1 5.6 6.1.2.4.2.8.3 1.6a44.5 44.5 0 01.2 2.6l.2 7.7v13.7l.3.1 2 1c1.5.7 3.4 1.4 5.3 1.3 3.9 0 5.6-1.2 7-1.7a4.2 4.2 0 01.7-.2c0-3.7-.4-29.1-.3-33.6 0-1.2-1.2-2.7-2.6-4.1-1.5-1.4-3.3-2.6-4.3-3.4a52 52 0 01-3.1-3.2 67.7 67.7 0 01-1.6-1.8 8 8 0 01-1-1.2l-.5-.8a8.6 8.6 0 00-1.3-1l-1.4-.6-1 .1c-.3.2-.4.5-.4 1l.4 1.7c.6 1.4 1.5 3 2.2 3.8a36 36 0 012.5 8.4c0 .1 0 .3-.2.5a.5.5 0 01-.4 0l-.3-.1-.5-1c-.4-.9-1.7-1.8-3.4-2.8-1.7-1-3.7-2-5.3-3.2-.4-.4-.5-.8-.6-1.4l-.4-2c-.5-1.7-1.5-4-4-7l-.1-.1v-.2c.6-2.8-.2-5.5-1.2-7.2-.5-.8-1-1.4-1.5-1.6a.8.8 0 00-.4 0" fill="#cf1125"/></g></g><g clip-path="url(#aT)"><g clip-path="url(#aU)"><path d="M54.8 126.7a.8.8 0 00-.5.2c-.4.3-.6.8-.6 1.4.8 1.8 1.3 4.1.9 6.6 2.5 3 3.5 5.4 4 7.1l.4 2.2c.1.5.3.7.4.8 1.5 1.2 3.4 2.2 5.1 3.2 1.4.8 2.7 1.6 3.4 2.5l-.2-.6a37.4 37.4 0 00-.5-1.9c-.3-.7-1-1.6-2-2.3a8 8 0 00-2.6-1.4l-.4-.1v-.3c0-.8-.7-2.6-1.6-4.3-.9-1.8-2-3.4-3-4l-.2-.1v-.3c.2-5.4-1-7.8-2-8.4l-.6-.3" fill="#cf1125"/></g></g><g clip-path="url(#aV)"><g clip-path="url(#aW)"><path d="M58.2 127.8l-.4.2-.3.8c.5 1.4.8 3.5.7 6.4 1.2.9 2.3 2.5 3.2 4.2.8 1.6 1.5 3.2 1.6 4.3a9 9 0 013.4 2.2c-.2-.7-.5-1.2-.7-1.5A20 20 0 0163 139a6 6 0 01-1.6-4.6c.2-2.4-.8-4.6-1.8-5.8-.6-.6-1-.9-1.4-.8" fill="#cf1125"/></g></g><g clip-path="url(#aX)"><g clip-path="url(#aY)"><path d="M62.1 128.3s-.2 0-.3.2c-.2.1-.5.4-.7.8a9 9 0 011 5.1c0 1.1.4 2.3 1 3.2 0-.3.2-.7.6-.9a2 2 0 011.2-.3c-.2-2.8-.8-5.5-1.5-7-.4-.7-.9-1-1.1-1a.5.5 0 00-.2 0" fill="#cf1125"/></g></g><g clip-path="url(#aZ)"><g clip-path="url(#ba)"><path d="M68 152.2c0 .1 0 .1 0 0" fill="#cf1125"/></g></g><g clip-path="url(#bb)"><g clip-path="url(#bc)"><path d="M81.3 187.9l-.5.1c-.7.3-1.7.8-3.3 1.2h3.9v-1.3" fill="#cf1125"/></g></g><g clip-path="url(#bd)"><g clip-path="url(#be)"><path d="M66 187.3c-.9-.1-1.7.8-1.4 2 0 .2.3.6.8 1s1.1.9 2 1.3a13 13 0 006.2 1.3h-.3c2.6 0 4-.2 5.8-1 1.5-.7 2.8-1.2 3-3 0-.4-.1-.6-.3-.7a1 1 0 00-.5-.3c-.4-.2-1 .2-1.4.4-1 .4-3.1 1.6-6.6 1.6-1.9.1-3.2-.5-4.6-1.1-1.7-.8-2-1.3-2.8-1.5" fill="#cf1125"/></g></g><g clip-path="url(#bf)"><g clip-path="url(#bg)"><path d="M64.5 191.5c-1-.1-1.9.8-1.6 2l1 1a17.4 17.4 0 009.7 2.6H73c3 0 4.7-.3 6.8-1.1 1.8-.7 3.3-1.2 3.5-3 0-.3-.1-.5-.3-.7l-.6-.3c-.5-.1-1.2.2-1.7.4-1.2.5-3.6 1.7-7.7 1.7a13 13 0 01-5.4-1.2c-2-.7-2.3-1.3-3.2-1.4" fill="#cf1125"/></g></g><g clip-path="url(#bh)"><g clip-path="url(#bi)"><path d="M148.2 198.3c-5.2-.5-9.7-3.8-12-8.6-.7-1.7-.6-2 .1-1.5 1.4 1 3.2 1.8 4 1.8.7 0 1.3.3 2.6 1.5 2.5 2.4 5.4 3 4.1 1-.8-1.5-.6-2.5 1.3-5.1.9-1.3 1.8-2.4 2-2.4l1.6 2c1.7 2.3 2.2 4 1.6 5.3-.6 1-.5 1.7 0 1.7.7 0 3-1.4 4.3-2.7.7-.7 1.5-1 2.5-1.3l2.8-1.1c.8-.5 1.5-.8 1.5-.7.4.3-1.8 4-3.2 5.5-2.7 2.9-5.3 4.2-9.3 4.6h-3.9" fill="#cf1125"/></g></g><g clip-path="url(#bj)"><g clip-path="url(#bk)"><path d="M154.8 191.8v-.7c.3-.5-.7-3-2-4.8l-1.8-2.5c-.2-.3-.5-.6-.7-.6-.4 0-3 3.5-4 5.5-.5.7-.8 1.8-.8 2.3 0 .5-.1.9-.3.9-.8 0-2.2-1.6-3-3.2-.9-1.7-1-2-.9-4.5 0-3.3.5-5.3 2.2-9.7 1.2-2.8 1.3-3.3 1.3-5.4 0-2.5-.5-3.8-1.9-5.1-.8-.8-.7-1.1.4-1.1 1 0 2.7.8 3.5 1.7.8 1 1.3.6 1.5-.8 0-.6.5-1.5 1-2 .6-.8.8-1 1.2-.7.8.5 1.8 2.6 1.8 3.7 0 1.4.4 1.4 1.7 0 1.2-1.3 2-1.8 3.3-2 1.2-.2 1.2.3 0 1.4a7 7 0 00-2.1 5.2c0 2 .2 3 1.7 6.2 1.4 3.1 2.1 6.1 2.1 8.7 0 2.7-.5 4.5-1.9 6-1.4 1.6-2 2-2.3 1.5" fill="#cf1125"/></g></g><g clip-path="url(#bl)"><g clip-path="url(#bm)"><path d="M152.8 162.3c-.7-1.3-2.1-3-2.6-3-.4 0-2.5 2.4-2.5 3l-.4.6c-.3.2-.6.1-1.5-.5-1.4-.9-2-2.6-2-5.4 0-2.4.4-4.1 1.7-7.5 1-2.5 1.1-2.9 1-4.7-.1-2.5-.8-4-2.7-6.2-.7-.7-1.3-1.5-1.3-1.6l1.3-.1c1.4 0 2.5.6 3.7 1.9.4.4.8.8 1 .8s.2-.7.4-1.4c.2-1.6.7-2.7 1.3-2.7.6 0 1.2 1.4 1.2 2.7 0 1.6.6 1.7 1.8.3.5-.6 1.4-1.2 2-1.4.9-.3 2.3-.1 2.6.3.1.2-.3.9-1 1.5-2.7 3-3.2 6.3-1.6 10.2 1.3 3.2 1.7 5.4 1.6 8.2-.2 3-.7 4.5-2.1 5.4l-1.2.7-.7-1" fill="#cf1125"/></g></g><g clip-path="url(#bn)"><g clip-path="url(#bo)"><path d="M146.5 136.2c-1.4-1-1.9-2-1.9-4 0-1 .2-1.5.9-2.4 1-1.3.8-1.7-.6-1.3-2.2.6-3.2 0-3.3-1.8 0-1 .2-1.3 1.4-2.8 1-1.2 1.3-1.8 1.1-2-.2-.2-1.3.8-3.7 3.2-2 2-4 4-4.8 4.4-4 2.8-8 3.2-9.8 1.1-.9-1-.8-1.7.2-2.4l1.8-1.5c1.3-1.3 5-4 6.7-4.8 1.5-.8 1.9-1.3 1-1.3-1.3 0-5.3 2.6-8.3 5.4-1 .8-2.2 1.7-2.9 2-1.5.7-4.4 1-5.8.5-.9-.3-2.6-2-2.6-2.5 0-.1.4-.5.9-.7l1.9-1.4c2.4-2.1 7-4.3 10.6-5 1.1-.3.7-.9-.6-.8-2.5.1-7.4 2.4-10.4 4.9-3.5 2.8-8.7 2.5-10.4-.6-.3-.5-.4-1-.3-1.1l2.2-.7c1.3-.3 3.8-1.4 6.3-2.6 3.8-1.9 4.9-2.3 7.5-2.7 1.2-.2 1.2-.7 0-.9-1.4-.1-3.6.6-7.6 2.6-5.1 2.5-6.6 2.9-9.3 2.7a8 8 0 01-5.8-2.6c-1.3-1.3-3.2-4.4-2.8-4.8a27 27 0 006.6.5c3.4 0 4.4 0 6.2-.5 3-1 7.2-3 10-5.1a24 24 0 0115.3-5.7c5.2 0 8.5 1.2 11.4 4.1 1 1 1.8 1.7 2 1.6l.2-4s1.6 0 1.9.4c0 3.2 0 3.5.5 3.5.3 0 .6-.4.8-.8.5-1.1 2.1-2.6 3.9-3.4a22 22 0 0115.5-.2 26 26 0 017 4c2.3 1.8 7.1 4.2 10 5a26.7 26.7 0 0012.7 0c1 0-.7 3.2-2.6 5-3.5 3.4-8 3.4-14.4 0-4-2.2-8.8-3.3-8.8-2.2 0 .3.3.4.7.4 1.3 0 4 1 7.7 2.7 4 2 6.3 2.7 7.7 2.7 1 0 1 .6 0 2-.9 1.4-2.5 2.1-4.8 2.1-2.2 0-3.5-.5-5.4-2.1-3.3-2.8-11.5-5.8-11.2-4.2 0 .3.4.5 1.3.7 2.8.4 6.2 2 9.6 4.6l2.5 1.7c.4.3.4.4 0 1-.5 1.2-2.1 2.1-3.8 2.3-2.2.2-4-.4-6-2-4.2-3.5-8-6-9.3-6-1 0-.6.5 1.2 1.5a33 33 0 016.6 4.6l2.1 1.7c.8.4.7 1 0 2-1 1.2-2.3 1.6-4.1 1.4-3.6-.3-6.4-2-10.8-6.7a30.1 30.1 0 00-3.5-3.2c-.5 0-.2.8 1 2 1.3 1.6 1.6 2.5 1 3.8-.4 1.1-1.2 1.4-2.8 1-1.6-.5-1.9 0-.8 1.3 1.6 2 1.4 4.4-.6 6.1l-1.4 1c-.2 0-.6-.5-1-1-1.3-2-2.4-2-3.6 0l-.8 1.2a59.6 59.6 0 01-1.3-.9" fill="#cf1125"/></g></g><g clip-path="url(#bp)"><g clip-path="url(#bq)"><path d="M152.8 97l-2.2 1.8-1.9-1.5V109h4" fill="#cf1125"/></g></g><g clip-path="url(#br)"><g clip-path="url(#bs)"><path d="M148.7 82.3c-1.8 0-3.8 0-5.5.4-1.3.3-2.4.7-3.3 1.3.1 3.6 17 5 21.6 0-1-.6-2.1-1-3.4-1.3-1.7-.3-3.6-.3-5.3-.4v3h-4" fill="#cf1125"/></g></g><g clip-path="url(#bt)"><g clip-path="url(#bu)"><path d="M152 64.7l-1 9.8 10.2 5-5.2-6.9 7-2.2" fill="#cf1125"/></g></g><g clip-path="url(#bv)"><g clip-path="url(#bw)"><path d="M151 62.1c-1.6 0-2.8.6-2.8 1.3s1.2 1.2 2.7 1.2c1.5 0 2.7-.5 2.7-1.2s-1.2-1.3-2.7-1.3" fill="#cf1125"/></g></g><g clip-path="url(#bx)"><g clip-path="url(#by)"><path d="M152 64.2h-2.6v20.6h2.7zm0 0" fill="#cf1125"/></g></g><g clip-path="url(#bz)"><g clip-path="url(#bA)"><path d="M139.5 85.1c-.4 5.5-1.8 9.3-3.7 13.5l4.6-4.3 3.2 3.8 3.5-3.9 3.6 3.3 3.4-3.4 3.5 4.1 3.1-3.4 5.3 3.8c-2-4.2-4.5-7.8-4.2-13.7-5 3.8-17 4.4-22.3.2" fill="#cf1125"/></g></g><g clip-path="url(#bB)"><g clip-path="url(#bC)"><path d="M174 232c0 .4-.4.7-.8.7s-.7-.3-.7-.7c0-.3.3-.6.7-.6.4 0 .8.3.8.6" fill="#fc0"/></g></g><g clip-path="url(#bD)"><g clip-path="url(#bE)"><path d="M176.6 231.2c0 .3-.4.6-.8.6s-.7-.3-.7-.6c0-.4.3-.7.7-.7.4 0 .8.3.8.7" fill="#fc0"/></g></g></svg>