<svg xmlns="http://www.w3.org/2000/svg" width="400" height="400" viewBox="0 0 300 300"><defs><clipPath id="a"><path d="M150 0a150 150 0 100 300 150 150 0 000-300zm0 0"/></clipPath><clipPath id="b"><path d="M0 0h300v150H0zm0 0"/></clipPath><clipPath id="c"><path d="M150 0a150 150 0 100 300 150 150 0 000-300zm0 0"/></clipPath><clipPath id="d"><path d="M102 100h96v91h-96zm0 0"/></clipPath><clipPath id="e"><path d="M150 0a150 150 0 100 300 150 150 0 000-300zm0 0"/></clipPath></defs><g clip-path="url(#a)"><path fill="#009e48" d="M0 0h300v300H0z"/></g><g clip-path="url(#b)"><g clip-path="url(#c)"><path d="M-75 150h450V0H-75zm0 0" fill="#ee2b2c"/></g></g><g clip-path="url(#d)"><g clip-path="url(#e)"><path d="M102.4 134.6l29.4 21.3-11.2 34.5 29.4-21.3 29.4 21.3-11.2-34.5 29.4-21.3h-36.4L150 100l-11 34.5" fill="#fbd115"/></g></g></svg>