<svg xmlns="http://www.w3.org/2000/svg" width="400" height="400" viewBox="0 0 300 300"><defs><clipPath id="a"><path d="M150 0a150 150 0 100 300 150 150 0 000-300zm0 0"/></clipPath><clipPath id="b"><path d="M0 150a150 150 0 10300 0 150 150 0 00-300 0"/></clipPath><clipPath id="c"><path d="M65 65h170v170H65zm0 0"/></clipPath><clipPath id="d"><path d="M150 0a150 150 0 100 300 150 150 0 000-300zm0 0"/></clipPath><clipPath id="e"><path d="M132 86h36v40h-36zm0 0"/></clipPath><clipPath id="f"><path d="M150 0a150 150 0 100 300 150 150 0 000-300zm0 0"/></clipPath><clipPath id="g"><path d="M135 89h30v34h-30zm0 0"/></clipPath><clipPath id="h"><path d="M150 0a150 150 0 100 300 150 150 0 000-300zm0 0"/></clipPath><clipPath id="i"><path d="M94 151h36v41H94zm0 0"/></clipPath><clipPath id="j"><path d="M150 0a150 150 0 100 300 150 150 0 000-300zm0 0"/></clipPath><clipPath id="k"><path d="M97 155h30v34H97zm0 0"/></clipPath><clipPath id="l"><path d="M150 0a150 150 0 100 300 150 150 0 000-300zm0 0"/></clipPath><clipPath id="m"><path d="M171 152h35v41h-35zm0 0"/></clipPath><clipPath id="n"><path d="M150 0a150 150 0 100 300 150 150 0 000-300zm0 0"/></clipPath><clipPath id="o"><path d="M174 155h29v34h-29zm0 0"/></clipPath><clipPath id="p"><path d="M150 0a150 150 0 100 300 150 150 0 000-300zm0 0"/></clipPath></defs><g clip-path="url(#a)"><path d="M-100 0h500l-500 300h500zm0 0" fill="#ce1125"/><path d="M-100 0v300L400 0v300zm0 0" fill="#1eb539"/></g><g clip-path="url(#b)"><path d="M400 0l-500 300m0-300l500 300" stroke-width="37.5" stroke="#fff"/></g><g clip-path="url(#c)"><g clip-path="url(#d)"><path d="M150 65a85 85 0 110 170 85 85 0 010-170" fill="#fff"/></g></g><g clip-path="url(#e)"><g clip-path="url(#f)"><path d="M132.7 96l5.8 10-5.8 10h11.5l5.8 10 5.8-10h11.5l-5.8-10 5.8-10h-11.5L150 86l-5.8 10" fill="#1eb539"/></g></g><g clip-path="url(#g)"><g clip-path="url(#h)"><path d="M135.8 97.8l4.7 8.2-4.7 8.2h9.5l4.7 8.2 4.7-8.2h9.5l-4.7-8.2 4.7-8.2h-9.5l-4.7-8.2-4.7 8.2" fill="#ce1125"/></g></g><g clip-path="url(#i)"><g clip-path="url(#j)"><path d="M94.6 161.6l5.7 10-5.7 10H106l5.8 10 5.7-10h11.6l-5.8-10 5.8-10h-11.6l-5.7-10-5.8 10" fill="#1eb539"/></g></g><g clip-path="url(#k)"><g clip-path="url(#l)"><path d="M97.7 163.4l4.7 8.2-4.7 8.2h9.4l4.8 8.2 4.7-8.2h9.5l-4.8-8.2 4.8-8.2h-9.5l-4.7-8.2-4.8 8.2" fill="#ce1125"/></g></g><g clip-path="url(#m)"><g clip-path="url(#n)"><path d="M171.1 162l5.8 10-5.8 10h11.6l5.8 10 5.7-10h11.6l-5.8-10 5.8-10h-11.6l-5.7-10-5.8 10" fill="#1eb539"/></g></g><g clip-path="url(#o)"><g clip-path="url(#p)"><path d="M174.3 163.9l4.7 8.2-4.7 8.2h9.4l4.8 8.2 4.7-8.2h9.5l-4.8-8.2 4.8-8.2h-9.5l-4.7-8.2-4.8 8.2" fill="#ce1125"/></g></g></svg>