<svg xmlns="http://www.w3.org/2000/svg" width="400" height="400" viewBox="0 0 300 300"><defs><clipPath id="a"><path d="M0 75h300v150H0zm0 0"/></clipPath><clipPath id="b"><path d="M150 0a150 150 0 100 300 150 150 0 000-300zm0 0"/></clipPath><clipPath id="c"><path d="M0 0h300v75H0zm0 0"/></clipPath><clipPath id="d"><path d="M150 0a150 150 0 100 300 150 150 0 000-300zm0 0"/></clipPath><clipPath id="e"><path d="M0 225h300v75H0zm0 0"/></clipPath><clipPath id="f"><path d="M150 0a150 150 0 100 300 150 150 0 000-300zm0 0"/></clipPath><clipPath id="g"><path d="M148 88h4v4h-4zm0 0"/></clipPath><clipPath id="h"><path d="M150 0a150 150 0 100 300 150 150 0 000-300zm0 0"/></clipPath><clipPath id="i"><path d="M144 84h12v12h-12zm0 0"/></clipPath><clipPath id="j"><path d="M150 0a150 150 0 100 300 150 150 0 000-300zm0 0"/></clipPath><clipPath id="k"><path d="M219 138h7v35h-7zm0 0"/></clipPath><clipPath id="l"><path d="M150 0a150 150 0 100 300 150 150 0 000-300zm0 0"/></clipPath><clipPath id="m"><path d="M215 134h15v43h-15zm0 0"/></clipPath><clipPath id="n"><path d="M150 0a150 150 0 100 300 150 150 0 000-300zm0 0"/></clipPath><clipPath id="o"><path d="M189 141h6v11h-6zm0 0"/></clipPath><clipPath id="p"><path d="M150 0a150 150 0 100 300 150 150 0 000-300zm0 0"/></clipPath><clipPath id="q"><path d="M189 140h7v12h-7zm0 0"/></clipPath><clipPath id="r"><path d="M150 0a150 150 0 100 300 150 150 0 000-300zm0 0"/></clipPath><clipPath id="s"><path d="M107 141h87v34h-87zm0 0"/></clipPath><clipPath id="t"><path d="M150 0a150 150 0 100 300 150 150 0 000-300zm0 0"/></clipPath><clipPath id="u"><path d="M74 139h7v33h-7zm0 0"/></clipPath><clipPath id="v"><path d="M150 0a150 150 0 100 300 150 150 0 000-300zm0 0"/></clipPath><clipPath id="w"><path d="M70 135h15v41H70zm0 0"/></clipPath><clipPath id="x"><path d="M150 0a150 150 0 100 300 150 150 0 000-300zm0 0"/></clipPath><clipPath id="y"><path d="M74 138h7v35h-7zm0 0"/></clipPath><clipPath id="z"><path d="M150 0a150 150 0 100 300 150 150 0 000-300zm0 0"/></clipPath><clipPath id="A"><path d="M70 134h15v43H70zm0 0"/></clipPath><clipPath id="B"><path d="M150 0a150 150 0 100 300 150 150 0 000-300zm0 0"/></clipPath><clipPath id="C"><path d="M74 171h152v5H74zm0 0"/></clipPath><clipPath id="D"><path d="M150 0a150 150 0 100 300 150 150 0 000-300zm0 0"/></clipPath><clipPath id="E"><path d="M70 167h160v13H70zm0 0"/></clipPath><clipPath id="F"><path d="M150 0a150 150 0 100 300 150 150 0 000-300zm0 0"/></clipPath><clipPath id="G"><path d="M188 159h4v13h-4zm0 0"/></clipPath><clipPath id="H"><path d="M150 0a150 150 0 100 300 150 150 0 000-300zm0 0"/></clipPath><clipPath id="I"><path d="M188 159h4v14h-4zm0 0"/></clipPath><clipPath id="J"><path d="M150 0a150 150 0 100 300 150 150 0 000-300zm0 0"/></clipPath><clipPath id="K"><path d="M107 153h87v5h-87zm0 0"/></clipPath><clipPath id="L"><path d="M150 0a150 150 0 100 300 150 150 0 000-300zm0 0"/></clipPath><clipPath id="M"><path d="M107 148h87v4h-87zm0 0"/></clipPath><clipPath id="N"><path d="M150 0a150 150 0 100 300 150 150 0 000-300zm0 0"/></clipPath><clipPath id="O"><path d="M107 147h87v5h-87zm0 0"/></clipPath><clipPath id="P"><path d="M150 0a150 150 0 100 300 150 150 0 000-300zm0 0"/></clipPath><clipPath id="Q"><path d="M107 143h87v4h-87zm0 0"/></clipPath><clipPath id="R"><path d="M150 0a150 150 0 100 300 150 150 0 000-300zm0 0"/></clipPath><clipPath id="S"><path d="M107 142h87v5h-87zm0 0"/></clipPath><clipPath id="T"><path d="M150 0a150 150 0 100 300 150 150 0 000-300zm0 0"/></clipPath><clipPath id="U"><path d="M189 141h6v11h-6zm0 0"/></clipPath><clipPath id="V"><path d="M150 0a150 150 0 100 300 150 150 0 000-300zm0 0"/></clipPath><clipPath id="W"><path d="M189 140h7v12h-7zm0 0"/></clipPath><clipPath id="X"><path d="M150 0a150 150 0 100 300 150 150 0 000-300zm0 0"/></clipPath><clipPath id="Y"><path d="M188 151h37v25h-37zm0 0"/></clipPath><clipPath id="Z"><path d="M150 0a150 150 0 100 300 150 150 0 000-300zm0 0"/></clipPath><clipPath id="aa"><path d="M184 147h45v33h-45zm0 0"/></clipPath><clipPath id="ab"><path d="M150 0a150 150 0 100 300 150 150 0 000-300zm0 0"/></clipPath><clipPath id="ac"><path d="M130 159h3v13h-3zm0 0"/></clipPath><clipPath id="ad"><path d="M150 0a150 150 0 100 300 150 150 0 000-300zm0 0"/></clipPath><clipPath id="ae"><path d="M129 159h5v14h-5zm0 0"/></clipPath><clipPath id="af"><path d="M150 0a150 150 0 100 300 150 150 0 000-300zm0 0"/></clipPath><clipPath id="ag"><path d="M166 159h4v13h-4zm0 0"/></clipPath><clipPath id="ah"><path d="M150 0a150 150 0 100 300 150 150 0 000-300zm0 0"/></clipPath><clipPath id="ai"><path d="M166 159h5v14h-5zm0 0"/></clipPath><clipPath id="aj"><path d="M150 0a150 150 0 100 300 150 150 0 000-300zm0 0"/></clipPath><clipPath id="ak"><path d="M128 151h44v25h-44zm0 0"/></clipPath><clipPath id="al"><path d="M150 0a150 150 0 100 300 150 150 0 000-300zm0 0"/></clipPath><clipPath id="am"><path d="M125 147h51v33h-51zm0 0"/></clipPath><clipPath id="an"><path d="M150 0a150 150 0 100 300 150 150 0 000-300zm0 0"/></clipPath><clipPath id="ao"><path d="M137 159h3v13h-3zm0 0"/></clipPath><clipPath id="ap"><path d="M150 0a150 150 0 100 300 150 150 0 000-300zm0 0"/></clipPath><clipPath id="aq"><path d="M136 159h5v14h-5zm0 0"/></clipPath><clipPath id="ar"><path d="M150 0a150 150 0 100 300 150 150 0 000-300zm0 0"/></clipPath><clipPath id="as"><path d="M159 159h4v13h-4zm0 0"/></clipPath><clipPath id="at"><path d="M150 0a150 150 0 100 300 150 150 0 000-300zm0 0"/></clipPath><clipPath id="au"><path d="M159 159h5v14h-5zm0 0"/></clipPath><clipPath id="av"><path d="M150 0a150 150 0 100 300 150 150 0 000-300zm0 0"/></clipPath><clipPath id="aw"><path d="M129 130h41v22h-41zm0 0"/></clipPath><clipPath id="ax"><path d="M150 0a150 150 0 100 300 150 150 0 000-300zm0 0"/></clipPath><clipPath id="ay"><path d="M125 126h49v30h-49zm0 0"/></clipPath><clipPath id="az"><path d="M150 0a150 150 0 100 300 150 150 0 000-300zm0 0"/></clipPath><clipPath id="aA"><path d="M135 149h30v27h-30zm0 0"/></clipPath><clipPath id="aB"><path d="M150 0a150 150 0 100 300 150 150 0 000-300zm0 0"/></clipPath><clipPath id="aC"><path d="M131 145h38v35h-38zm0 0"/></clipPath><clipPath id="aD"><path d="M150 0a150 150 0 100 300 150 150 0 000-300zm0 0"/></clipPath><clipPath id="aE"><path d="M131 133h38v17h-38zm0 0"/></clipPath><clipPath id="aF"><path d="M150 0a150 150 0 100 300 150 150 0 000-300zm0 0"/></clipPath><clipPath id="aG"><path d="M131 132h38v18h-38zm0 0"/></clipPath><clipPath id="aH"><path d="M150 0a150 150 0 100 300 150 150 0 000-300zm0 0"/></clipPath><clipPath id="aI"><path d="M108 159h4v13h-4zm0 0"/></clipPath><clipPath id="aJ"><path d="M150 0a150 150 0 100 300 150 150 0 000-300zm0 0"/></clipPath><clipPath id="aK"><path d="M107 159h5v14h-5zm0 0"/></clipPath><clipPath id="aL"><path d="M150 0a150 150 0 100 300 150 150 0 000-300zm0 0"/></clipPath><clipPath id="aM"><path d="M75 151h37v25H75zm0 0"/></clipPath><clipPath id="aN"><path d="M150 0a150 150 0 100 300 150 150 0 000-300zm0 0"/></clipPath><clipPath id="aO"><path d="M71 147h45v33H71zm0 0"/></clipPath><clipPath id="aP"><path d="M150 0a150 150 0 100 300 150 150 0 000-300zm0 0"/></clipPath><clipPath id="aQ"><path d="M79 138h4v12h-4zm0 0"/></clipPath><clipPath id="aR"><path d="M150 0a150 150 0 100 300 150 150 0 000-300zm0 0"/></clipPath><clipPath id="aS"><path d="M78 138h5v13h-5zm0 0"/></clipPath><clipPath id="aT"><path d="M150 0a150 150 0 100 300 150 150 0 000-300zm0 0"/></clipPath><clipPath id="aU"><path d="M79 136h4v3h-4zm0 0"/></clipPath><clipPath id="aV"><path d="M150 0a150 150 0 100 300 150 150 0 000-300zm0 0"/></clipPath><clipPath id="aW"><path d="M78 135h5v5h-5zm0 0"/></clipPath><clipPath id="aX"><path d="M150 0a150 150 0 100 300 150 150 0 000-300zm0 0"/></clipPath><clipPath id="aY"><path d="M82 151h24v25H82zm0 0"/></clipPath><clipPath id="aZ"><path d="M150 0a150 150 0 100 300 150 150 0 000-300zm0 0"/></clipPath><clipPath id="ba"><path d="M78 147h32v33H78zm0 0"/></clipPath><clipPath id="bb"><path d="M150 0a150 150 0 100 300 150 150 0 000-300zm0 0"/></clipPath><clipPath id="bc"><path d="M85 153h18v23H85zm0 0"/></clipPath><clipPath id="bd"><path d="M150 0a150 150 0 100 300 150 150 0 000-300zm0 0"/></clipPath><clipPath id="be"><path d="M81 149h26v31H81zm0 0"/></clipPath><clipPath id="bf"><path d="M150 0a150 150 0 100 300 150 150 0 000-300zm0 0"/></clipPath><clipPath id="bg"><path d="M194 151h24v25h-24zm0 0"/></clipPath><clipPath id="bh"><path d="M150 0a150 150 0 100 300 150 150 0 000-300zm0 0"/></clipPath><clipPath id="bi"><path d="M190 147h32v33h-32zm0 0"/></clipPath><clipPath id="bj"><path d="M150 0a150 150 0 100 300 150 150 0 000-300zm0 0"/></clipPath><clipPath id="bk"><path d="M197 153h18v23h-18zm0 0"/></clipPath><clipPath id="bl"><path d="M150 0a150 150 0 100 300 150 150 0 000-300zm0 0"/></clipPath><clipPath id="bm"><path d="M193 149h26v31h-26zm0 0"/></clipPath><clipPath id="bn"><path d="M150 0a150 150 0 100 300 150 150 0 000-300zm0 0"/></clipPath><clipPath id="bo"><path d="M90 153h8v23h-8zm0 0"/></clipPath><clipPath id="bp"><path d="M150 0a150 150 0 100 300 150 150 0 000-300zm0 0"/></clipPath><clipPath id="bq"><path d="M90 152h8v25h-8zm0 0"/></clipPath><clipPath id="br"><path d="M150 0a150 150 0 100 300 150 150 0 000-300zm0 0"/></clipPath><clipPath id="bs"><path d="M141 153h18v23h-18zm0 0"/></clipPath><clipPath id="bt"><path d="M150 0a150 150 0 100 300 150 150 0 000-300zm0 0"/></clipPath><clipPath id="bu"><path d="M137 149h26v31h-26zm0 0"/></clipPath><clipPath id="bv"><path d="M150 0a150 150 0 100 300 150 150 0 000-300zm0 0"/></clipPath><clipPath id="bw"><path d="M146 153h8v23h-8zm0 0"/></clipPath><clipPath id="bx"><path d="M150 0a150 150 0 100 300 150 150 0 000-300zm0 0"/></clipPath><clipPath id="by"><path d="M146 152h8v25h-8zm0 0"/></clipPath><clipPath id="bz"><path d="M150 0a150 150 0 100 300 150 150 0 000-300zm0 0"/></clipPath><clipPath id="bA"><path d="M202 153h8v23h-8zm0 0"/></clipPath><clipPath id="bB"><path d="M150 0a150 150 0 100 300 150 150 0 000-300zm0 0"/></clipPath><clipPath id="bC"><path d="M202 152h8v25h-8zm0 0"/></clipPath><clipPath id="bD"><path d="M150 0a150 150 0 100 300 150 150 0 000-300zm0 0"/></clipPath><clipPath id="bE"><path d="M143 144h14v6h-14zm0 0"/></clipPath><clipPath id="bF"><path d="M150 0a150 150 0 100 300 150 150 0 000-300zm0 0"/></clipPath><clipPath id="bG"><path d="M142 144h15v6h-15zm0 0"/></clipPath><clipPath id="bH"><path d="M150 0a150 150 0 100 300 150 150 0 000-300zm0 0"/></clipPath><clipPath id="bI"><path d="M136 145h28v7h-28zm0 0"/></clipPath><clipPath id="bJ"><path d="M150 0a150 150 0 100 300 150 150 0 000-300zm0 0"/></clipPath><clipPath id="bK"><path d="M136 144h28v8h-28zm0 0"/></clipPath><clipPath id="bL"><path d="M150 0a150 150 0 100 300 150 150 0 000-300zm0 0"/></clipPath><clipPath id="bM"><path d="M136 127h28v17h-28zm0 0"/></clipPath><clipPath id="bN"><path d="M150 0a150 150 0 100 300 150 150 0 000-300zm0 0"/></clipPath><clipPath id="bO"><path d="M132 123h36v25h-36zm0 0"/></clipPath><clipPath id="bP"><path d="M150 0a150 150 0 100 300 150 150 0 000-300zm0 0"/></clipPath><clipPath id="bQ"><path d="M141 134h18v11h-18zm0 0"/></clipPath><clipPath id="bR"><path d="M150 0a150 150 0 100 300 150 150 0 000-300zm0 0"/></clipPath><clipPath id="bS"><path d="M137 130h26v19h-26zm0 0"/></clipPath><clipPath id="bT"><path d="M150 0a150 150 0 100 300 150 150 0 000-300zm0 0"/></clipPath><clipPath id="bU"><path d="M81 159h3v13h-3zm0 0"/></clipPath><clipPath id="bV"><path d="M150 0a150 150 0 100 300 150 150 0 000-300zm0 0"/></clipPath><clipPath id="bW"><path d="M80 159h5v14h-5zm0 0"/></clipPath><clipPath id="bX"><path d="M150 0a150 150 0 100 300 150 150 0 000-300zm0 0"/></clipPath><clipPath id="bY"><path d="M217 138h4v12h-4zm0 0"/></clipPath><clipPath id="bZ"><path d="M150 0a150 150 0 100 300 150 150 0 000-300zm0 0"/></clipPath><clipPath id="ca"><path d="M217 138h5v13h-5zm0 0"/></clipPath><clipPath id="cb"><path d="M150 0a150 150 0 100 300 150 150 0 000-300zm0 0"/></clipPath><clipPath id="cc"><path d="M70 167h160v13H70zm0 0"/></clipPath><clipPath id="cd"><path d="M150 0a150 150 0 100 300 150 150 0 000-300zm0 0"/></clipPath><clipPath id="ce"><path d="M104 159h4v13h-4zm0 0"/></clipPath><clipPath id="cf"><path d="M150 0a150 150 0 100 300 150 150 0 000-300zm0 0"/></clipPath><clipPath id="cg"><path d="M103 159h5v14h-5zm0 0"/></clipPath><clipPath id="ch"><path d="M150 0a150 150 0 100 300 150 150 0 000-300zm0 0"/></clipPath><clipPath id="ci"><path d="M77 134h2v18h-2zm0 0"/></clipPath><clipPath id="cj"><path d="M150 0a150 150 0 100 300 150 150 0 000-300zm0 0"/></clipPath><clipPath id="ck"><path d="M73 130h10v26H73zm0 0"/></clipPath><clipPath id="cl"><path d="M150 0a150 150 0 100 300 150 150 0 000-300zm0 0"/></clipPath><clipPath id="cm"><path d="M77 145h6v7h-6zm0 0"/></clipPath><clipPath id="cn"><path d="M150 0a150 150 0 100 300 150 150 0 000-300zm0 0"/></clipPath><clipPath id="co"><path d="M73 141h14v15H73zm0 0"/></clipPath><clipPath id="cp"><path d="M150 0a150 150 0 100 300 150 150 0 000-300zm0 0"/></clipPath><clipPath id="cq"><path d="M105 141h6v11h-6zm0 0"/></clipPath><clipPath id="cr"><path d="M150 0a150 150 0 100 300 150 150 0 000-300zm0 0"/></clipPath><clipPath id="cs"><path d="M105 140h6v12h-6zm0 0"/></clipPath><clipPath id="ct"><path d="M150 0a150 150 0 100 300 150 150 0 000-300zm0 0"/></clipPath><clipPath id="cu"><path d="M109 140h3v12h-3zm0 0"/></clipPath><clipPath id="cv"><path d="M150 0a150 150 0 100 300 150 150 0 000-300zm0 0"/></clipPath><clipPath id="cw"><path d="M105 136h11v20h-11zm0 0"/></clipPath><clipPath id="cx"><path d="M150 0a150 150 0 100 300 150 150 0 000-300zm0 0"/></clipPath><clipPath id="cy"><path d="M136 97h28v36h-28zm0 0"/></clipPath><clipPath id="cz"><path d="M150 0a150 150 0 100 300 150 150 0 000-300zm0 0"/></clipPath><clipPath id="cA"><path d="M132 93h36v44h-36zm0 0"/></clipPath><clipPath id="cB"><path d="M150 0a150 150 0 100 300 150 150 0 000-300zm0 0"/></clipPath><clipPath id="cC"><path d="M143 101h14v2h-14zm0 0"/></clipPath><clipPath id="cD"><path d="M150 0a150 150 0 100 300 150 150 0 000-300zm0 0"/></clipPath><clipPath id="cE"><path d="M146 99h8v5h-8zm0 0"/></clipPath><clipPath id="cF"><path d="M150 0a150 150 0 100 300 150 150 0 000-300zm0 0"/></clipPath><clipPath id="cG"><path d="M142 95h16v13h-16zm0 0"/></clipPath><clipPath id="cH"><path d="M150 0a150 150 0 100 300 150 150 0 000-300zm0 0"/></clipPath><clipPath id="cI"><path d="M141 105h18v2h-18zm0 0"/></clipPath><clipPath id="cJ"><path d="M150 0a150 150 0 100 300 150 150 0 000-300zm0 0"/></clipPath><clipPath id="cK"><path d="M145 101h10v7h-10zm0 0"/></clipPath><clipPath id="cL"><path d="M150 0a150 150 0 100 300 150 150 0 000-300zm0 0"/></clipPath><clipPath id="cM"><path d="M141 97h18v15h-18zm0 0"/></clipPath><clipPath id="cN"><path d="M150 0a150 150 0 100 300 150 150 0 000-300zm0 0"/></clipPath><clipPath id="cO"><path d="M140 110h20v1h-20zm0 0"/></clipPath><clipPath id="cP"><path d="M150 0a150 150 0 100 300 150 150 0 000-300zm0 0"/></clipPath><clipPath id="cQ"><path d="M145 105h11v10h-11zm0 0"/></clipPath><clipPath id="cR"><path d="M150 0a150 150 0 100 300 150 150 0 000-300zm0 0"/></clipPath><clipPath id="cS"><path d="M141 101h18v18h-18zm0 0"/></clipPath><clipPath id="cT"><path d="M150 0a150 150 0 100 300 150 150 0 000-300zm0 0"/></clipPath><clipPath id="cU"><path d="M145 118h10v5h-10zm0 0"/></clipPath><clipPath id="cV"><path d="M150 0a150 150 0 100 300 150 150 0 000-300zm0 0"/></clipPath><clipPath id="cW"><path d="M141 114h18v13h-18zm0 0"/></clipPath><clipPath id="cX"><path d="M150 0a150 150 0 100 300 150 150 0 000-300zm0 0"/></clipPath><clipPath id="cY"><path d="M143 125h14v7h-14zm0 0"/></clipPath><clipPath id="cZ"><path d="M150 0a150 150 0 100 300 150 150 0 000-300zm0 0"/></clipPath><clipPath id="da"><path d="M139 121h22v15h-22zm0 0"/></clipPath><clipPath id="db"><path d="M150 0a150 150 0 100 300 150 150 0 000-300zm0 0"/></clipPath><clipPath id="dc"><path d="M138 116h24v1h-24zm0 0"/></clipPath><clipPath id="dd"><path d="M150 0a150 150 0 100 300 150 150 0 000-300zm0 0"/></clipPath><clipPath id="de"><path d="M138 123h24v1h-24zm0 0"/></clipPath><clipPath id="df"><path d="M150 0a150 150 0 100 300 150 150 0 000-300zm0 0"/></clipPath><clipPath id="dg"><path d="M143 110h14v9h-14zm0 0"/></clipPath><clipPath id="dh"><path d="M150 0a150 150 0 100 300 150 150 0 000-300zm0 0"/></clipPath><clipPath id="di"><path d="M142 110h15v9h-15zm0 0"/></clipPath><clipPath id="dj"><path d="M150 0a150 150 0 100 300 150 150 0 000-300zm0 0"/></clipPath><clipPath id="dk"><path d="M142 117h16v9h-16zm0 0"/></clipPath><clipPath id="dl"><path d="M150 0a150 150 0 100 300 150 150 0 000-300zm0 0"/></clipPath><clipPath id="dm"><path d="M142 117h16v10h-16zm0 0"/></clipPath><clipPath id="dn"><path d="M150 0a150 150 0 100 300 150 150 0 000-300zm0 0"/></clipPath><clipPath id="do"><path d="M140 124h20v11h-20zm0 0"/></clipPath><clipPath id="dp"><path d="M150 0a150 150 0 100 300 150 150 0 000-300zm0 0"/></clipPath><clipPath id="dq"><path d="M141 131h17v15h-17zm0 0"/></clipPath><clipPath id="dr"><path d="M150 0a150 150 0 100 300 150 150 0 000-300zm0 0"/></clipPath><clipPath id="ds"><path d="M141 131h18v15h-18zm0 0"/></clipPath><clipPath id="dt"><path d="M150 0a150 150 0 100 300 150 150 0 000-300zm0 0"/></clipPath><clipPath id="du"><path d="M217 136h4v3h-4zm0 0"/></clipPath><clipPath id="dv"><path d="M150 0a150 150 0 100 300 150 150 0 000-300zm0 0"/></clipPath><clipPath id="dw"><path d="M217 135h5v5h-5zm0 0"/></clipPath><clipPath id="dx"><path d="M150 0a150 150 0 100 300 150 150 0 000-300zm0 0"/></clipPath><clipPath id="dy"><path d="M193 159h3v13h-3zm0 0"/></clipPath><clipPath id="dz"><path d="M150 0a150 150 0 100 300 150 150 0 000-300zm0 0"/></clipPath><clipPath id="dA"><path d="M192 159h5v14h-5zm0 0"/></clipPath><clipPath id="dB"><path d="M150 0a150 150 0 100 300 150 150 0 000-300zm0 0"/></clipPath><clipPath id="dC"><path d="M216 159h3v13h-3zm0 0"/></clipPath><clipPath id="dD"><path d="M150 0a150 150 0 100 300 150 150 0 000-300zm0 0"/></clipPath><clipPath id="dE"><path d="M215 159h5v14h-5zm0 0"/></clipPath><clipPath id="dF"><path d="M150 0a150 150 0 100 300 150 150 0 000-300zm0 0"/></clipPath><clipPath id="dG"><path d="M131 145h38v1h-38zm0 0"/></clipPath><clipPath id="dH"><path d="M150 0a150 150 0 100 300 150 150 0 000-300zm0 0"/></clipPath><clipPath id="dI"><path d="M142 145h16v6h-16zm0 0"/></clipPath><clipPath id="dJ"><path d="M150 0a150 150 0 100 300 150 150 0 000-300zm0 0"/></clipPath><clipPath id="dK"><path d="M143 142h14v12h-14zm0 0"/></clipPath><clipPath id="dL"><path d="M150 0a150 150 0 100 300 150 150 0 000-300zm0 0"/></clipPath><clipPath id="dM"><path d="M139 138h22v20h-22zm0 0"/></clipPath><clipPath id="dN"><path d="M150 0a150 150 0 100 300 150 150 0 000-300zm0 0"/></clipPath><clipPath id="dO"><path d="M105 145h7v7h-7zm0 0"/></clipPath><clipPath id="dP"><path d="M150 0a150 150 0 100 300 150 150 0 000-300zm0 0"/></clipPath><clipPath id="dQ"><path d="M101 141h15v15h-15zm0 0"/></clipPath><clipPath id="dR"><path d="M150 0a150 150 0 100 300 150 150 0 000-300zm0 0"/></clipPath><clipPath id="dS"><path d="M78 138h5v14h-5zm0 0"/></clipPath><clipPath id="dT"><path d="M150 0a150 150 0 100 300 150 150 0 000-300zm0 0"/></clipPath><clipPath id="dU"><path d="M78 136h5v3h-5zm0 0"/></clipPath><clipPath id="dV"><path d="M150 0a150 150 0 100 300 150 150 0 000-300zm0 0"/></clipPath><clipPath id="dW"><path d="M78 135h5v5h-5zm0 0"/></clipPath><clipPath id="dX"><path d="M150 0a150 150 0 100 300 150 150 0 000-300zm0 0"/></clipPath><clipPath id="dY"><path d="M105 141h6v11h-6zm0 0"/></clipPath><clipPath id="dZ"><path d="M150 0a150 150 0 100 300 150 150 0 000-300zm0 0"/></clipPath><clipPath id="ea"><path d="M105 140h6v12h-6zm0 0"/></clipPath><clipPath id="eb"><path d="M150 0a150 150 0 100 300 150 150 0 000-300zm0 0"/></clipPath><clipPath id="ec"><path d="M82 109h24v43H82zm0 0"/></clipPath><clipPath id="ed"><path d="M150 0a150 150 0 100 300 150 150 0 000-300zm0 0"/></clipPath><clipPath id="ee"><path d="M78 105h32v51H78zm0 0"/></clipPath><clipPath id="ef"><path d="M150 0a150 150 0 100 300 150 150 0 000-300zm0 0"/></clipPath><clipPath id="eg"><path d="M90 116h7v5h-7zm0 0"/></clipPath><clipPath id="eh"><path d="M150 0a150 150 0 100 300 150 150 0 000-300zm0 0"/></clipPath><clipPath id="ei"><path d="M86 112h15v13H86zm0 0"/></clipPath><clipPath id="ej"><path d="M150 0a150 150 0 100 300 150 150 0 000-300zm0 0"/></clipPath><clipPath id="ek"><path d="M90 119h7v5h-7zm0 0"/></clipPath><clipPath id="el"><path d="M150 0a150 150 0 100 300 150 150 0 000-300zm0 0"/></clipPath><clipPath id="em"><path d="M86 115h15v13H86zm0 0"/></clipPath><clipPath id="en"><path d="M150 0a150 150 0 100 300 150 150 0 000-300zm0 0"/></clipPath><clipPath id="eo"><path d="M89 122h10v7H89zm0 0"/></clipPath><clipPath id="ep"><path d="M150 0a150 150 0 100 300 150 150 0 000-300zm0 0"/></clipPath><clipPath id="eq"><path d="M85 118h18v15H85zm0 0"/></clipPath><clipPath id="er"><path d="M150 0a150 150 0 100 300 150 150 0 000-300zm0 0"/></clipPath><clipPath id="es"><path d="M88 125h12v9H88zm0 0"/></clipPath><clipPath id="et"><path d="M150 0a150 150 0 100 300 150 150 0 000-300zm0 0"/></clipPath><clipPath id="eu"><path d="M84 121h20v17H84zm0 0"/></clipPath><clipPath id="ev"><path d="M150 0a150 150 0 100 300 150 150 0 000-300zm0 0"/></clipPath><clipPath id="ew"><path d="M86 129h16v14H86zm0 0"/></clipPath><clipPath id="ex"><path d="M150 0a150 150 0 100 300 150 150 0 000-300zm0 0"/></clipPath><clipPath id="ey"><path d="M82 125h24v22H82zm0 0"/></clipPath><clipPath id="ez"><path d="M150 0a150 150 0 100 300 150 150 0 000-300zm0 0"/></clipPath><clipPath id="eA"><path d="M86 135h16v14H86zm0 0"/></clipPath><clipPath id="eB"><path d="M150 0a150 150 0 100 300 150 150 0 000-300zm0 0"/></clipPath><clipPath id="eC"><path d="M82 131h24v22H82zm0 0"/></clipPath><clipPath id="eD"><path d="M150 0a150 150 0 100 300 150 150 0 000-300zm0 0"/></clipPath><clipPath id="eE"><path d="M88 142h12v10H88zm0 0"/></clipPath><clipPath id="eF"><path d="M150 0a150 150 0 100 300 150 150 0 000-300zm0 0"/></clipPath><clipPath id="eG"><path d="M84 138h20v18H84zm0 0"/></clipPath><clipPath id="eH"><path d="M150 0a150 150 0 100 300 150 150 0 000-300zm0 0"/></clipPath><clipPath id="eI"><path d="M86 145h16v9H86zm0 0"/></clipPath><clipPath id="eJ"><path d="M150 0a150 150 0 100 300 150 150 0 000-300zm0 0"/></clipPath><clipPath id="eK"><path d="M82 141h24v17H82zm0 0"/></clipPath><clipPath id="eL"><path d="M150 0a150 150 0 100 300 150 150 0 000-300zm0 0"/></clipPath><clipPath id="eM"><path d="M77 134h2v18h-2zm0 0"/></clipPath><clipPath id="eN"><path d="M150 0a150 150 0 100 300 150 150 0 000-300zm0 0"/></clipPath><clipPath id="eO"><path d="M73 130h10v26H73zm0 0"/></clipPath><clipPath id="eP"><path d="M150 0a150 150 0 100 300 150 150 0 000-300zm0 0"/></clipPath><clipPath id="eQ"><path d="M77 145h6v7h-6zm0 0"/></clipPath><clipPath id="eR"><path d="M150 0a150 150 0 100 300 150 150 0 000-300zm0 0"/></clipPath><clipPath id="eS"><path d="M73 141h14v15H73zm0 0"/></clipPath><clipPath id="eT"><path d="M150 0a150 150 0 100 300 150 150 0 000-300zm0 0"/></clipPath><clipPath id="eU"><path d="M109 140h3v12h-3zm0 0"/></clipPath><clipPath id="eV"><path d="M150 0a150 150 0 100 300 150 150 0 000-300zm0 0"/></clipPath><clipPath id="eW"><path d="M105 136h11v20h-11zm0 0"/></clipPath><clipPath id="eX"><path d="M150 0a150 150 0 100 300 150 150 0 000-300zm0 0"/></clipPath><clipPath id="eY"><path d="M105 145h7v7h-7zm0 0"/></clipPath><clipPath id="eZ"><path d="M150 0a150 150 0 100 300 150 150 0 000-300zm0 0"/></clipPath><clipPath id="fa"><path d="M101 141h15v15h-15zm0 0"/></clipPath><clipPath id="fb"><path d="M150 0a150 150 0 100 300 150 150 0 000-300zm0 0"/></clipPath><clipPath id="fc"><path d="M221 134h3v18h-3zm0 0"/></clipPath><clipPath id="fd"><path d="M150 0a150 150 0 100 300 150 150 0 000-300zm0 0"/></clipPath><clipPath id="fe"><path d="M217 130h11v26h-11zm0 0"/></clipPath><clipPath id="ff"><path d="M150 0a150 150 0 100 300 150 150 0 000-300zm0 0"/></clipPath><clipPath id="fg"><path d="M194 109h25v43h-25zm0 0"/></clipPath><clipPath id="fh"><path d="M150 0a150 150 0 100 300 150 150 0 000-300zm0 0"/></clipPath><clipPath id="fi"><path d="M190 105h33v51h-33zm0 0"/></clipPath><clipPath id="fj"><path d="M150 0a150 150 0 100 300 150 150 0 000-300zm0 0"/></clipPath><clipPath id="fk"><path d="M203 116h7v5h-7zm0 0"/></clipPath><clipPath id="fl"><path d="M150 0a150 150 0 100 300 150 150 0 000-300zm0 0"/></clipPath><clipPath id="fm"><path d="M199 112h15v13h-15zm0 0"/></clipPath><clipPath id="fn"><path d="M150 0a150 150 0 100 300 150 150 0 000-300zm0 0"/></clipPath><clipPath id="fo"><path d="M203 119h7v5h-7zm0 0"/></clipPath><clipPath id="fp"><path d="M150 0a150 150 0 100 300 150 150 0 000-300zm0 0"/></clipPath><clipPath id="fq"><path d="M199 115h15v13h-15zm0 0"/></clipPath><clipPath id="fr"><path d="M150 0a150 150 0 100 300 150 150 0 000-300zm0 0"/></clipPath><clipPath id="fs"><path d="M201 122h10v7h-10zm0 0"/></clipPath><clipPath id="ft"><path d="M150 0a150 150 0 100 300 150 150 0 000-300zm0 0"/></clipPath><clipPath id="fu"><path d="M197 118h18v15h-18zm0 0"/></clipPath><clipPath id="fv"><path d="M150 0a150 150 0 100 300 150 150 0 000-300zm0 0"/></clipPath><clipPath id="fw"><path d="M200 125h12v9h-12zm0 0"/></clipPath><clipPath id="fx"><path d="M150 0a150 150 0 100 300 150 150 0 000-300zm0 0"/></clipPath><clipPath id="fy"><path d="M196 121h20v17h-20zm0 0"/></clipPath><clipPath id="fz"><path d="M150 0a150 150 0 100 300 150 150 0 000-300zm0 0"/></clipPath><clipPath id="fA"><path d="M198 129h16v14h-16zm0 0"/></clipPath><clipPath id="fB"><path d="M150 0a150 150 0 100 300 150 150 0 000-300zm0 0"/></clipPath><clipPath id="fC"><path d="M194 125h24v22h-24zm0 0"/></clipPath><clipPath id="fD"><path d="M150 0a150 150 0 100 300 150 150 0 000-300zm0 0"/></clipPath><clipPath id="fE"><path d="M198 135h16v14h-16zm0 0"/></clipPath><clipPath id="fF"><path d="M150 0a150 150 0 100 300 150 150 0 000-300zm0 0"/></clipPath><clipPath id="fG"><path d="M194 131h24v22h-24zm0 0"/></clipPath><clipPath id="fH"><path d="M150 0a150 150 0 100 300 150 150 0 000-300zm0 0"/></clipPath><clipPath id="fI"><path d="M200 142h12v10h-12zm0 0"/></clipPath><clipPath id="fJ"><path d="M150 0a150 150 0 100 300 150 150 0 000-300zm0 0"/></clipPath><clipPath id="fK"><path d="M196 138h20v18h-20zm0 0"/></clipPath><clipPath id="fL"><path d="M150 0a150 150 0 100 300 150 150 0 000-300zm0 0"/></clipPath><clipPath id="fM"><path d="M217 145h6v7h-6zm0 0"/></clipPath><clipPath id="fN"><path d="M150 0a150 150 0 100 300 150 150 0 000-300zm0 0"/></clipPath><clipPath id="fO"><path d="M214 141h13v15h-13zm0 0"/></clipPath><clipPath id="fP"><path d="M150 0a150 150 0 100 300 150 150 0 000-300zm0 0"/></clipPath><clipPath id="fQ"><path d="M189 140h2v12h-2zm0 0"/></clipPath><clipPath id="fR"><path d="M150 0a150 150 0 100 300 150 150 0 000-300zm0 0"/></clipPath><clipPath id="fS"><path d="M185 136h10v20h-10zm0 0"/></clipPath><clipPath id="fT"><path d="M150 0a150 150 0 100 300 150 150 0 000-300zm0 0"/></clipPath><clipPath id="fU"><path d="M189 145h6v7h-6zm0 0"/></clipPath><clipPath id="fV"><path d="M150 0a150 150 0 100 300 150 150 0 000-300zm0 0"/></clipPath><clipPath id="fW"><path d="M185 141h14v15h-14zm0 0"/></clipPath><clipPath id="fX"><path d="M150 0a150 150 0 100 300 150 150 0 000-300zm0 0"/></clipPath><clipPath id="fY"><path d="M189 140h2v12h-2zm0 0"/></clipPath><clipPath id="fZ"><path d="M150 0a150 150 0 100 300 150 150 0 000-300zm0 0"/></clipPath><clipPath id="ga"><path d="M185 136h10v20h-10zm0 0"/></clipPath><clipPath id="gb"><path d="M150 0a150 150 0 100 300 150 150 0 000-300zm0 0"/></clipPath><clipPath id="gc"><path d="M189 145h6v7h-6zm0 0"/></clipPath><clipPath id="gd"><path d="M150 0a150 150 0 100 300 150 150 0 000-300zm0 0"/></clipPath><clipPath id="ge"><path d="M185 141h14v15h-14zm0 0"/></clipPath><clipPath id="gf"><path d="M150 0a150 150 0 100 300 150 150 0 000-300zm0 0"/></clipPath><clipPath id="gg"><path d="M163 126h4v20h-4zm0 0"/></clipPath><clipPath id="gh"><path d="M150 0a150 150 0 100 300 150 150 0 000-300zm0 0"/></clipPath><clipPath id="gi"><path d="M159 122h12v28h-12zm0 0"/></clipPath><clipPath id="gj"><path d="M150 0a150 150 0 100 300 150 150 0 000-300zm0 0"/></clipPath><clipPath id="gk"><path d="M132 126h5v20h-5zm0 0"/></clipPath><clipPath id="gl"><path d="M150 0a150 150 0 100 300 150 150 0 000-300zm0 0"/></clipPath><clipPath id="gm"><path d="M128 122h13v28h-13zm0 0"/></clipPath><clipPath id="gn"><path d="M150 0a150 150 0 100 300 150 150 0 000-300zm0 0"/></clipPath><clipPath id="go"><path d="M198 145h16v9h-16zm0 0"/></clipPath><clipPath id="gp"><path d="M150 0a150 150 0 100 300 150 150 0 000-300zm0 0"/></clipPath><clipPath id="gq"><path d="M194 141h24v17h-24zm0 0"/></clipPath><clipPath id="gr"><path d="M150 0a150 150 0 100 300 150 150 0 000-300zm0 0"/></clipPath><clipPath id="gs"><path d="M58 194h184v10H58zm0 0"/></clipPath><clipPath id="gt"><path d="M150 0a150 150 0 100 300 150 150 0 000-300zm0 0"/></clipPath><clipPath id="gu"><path d="M57 194h186v11H57zm0 0"/></clipPath><clipPath id="gv"><path d="M150 0a150 150 0 100 300 150 150 0 000-300zm0 0"/></clipPath><clipPath id="gw"><path d="M53 203h194v11H53zm0 0"/></clipPath><clipPath id="gx"><path d="M150 0a150 150 0 100 300 150 150 0 000-300zm0 0"/></clipPath><clipPath id="gy"><path d="M52 203h196v11H52zm0 0"/></clipPath><clipPath id="gz"><path d="M150 0a150 150 0 100 300 150 150 0 000-300zm0 0"/></clipPath><clipPath id="gA"><path d="M67 180h166v7H67zm0 0"/></clipPath><clipPath id="gB"><path d="M150 0a150 150 0 100 300 150 150 0 000-300zm0 0"/></clipPath><clipPath id="gC"><path d="M62 186h176v9H62zm0 0"/></clipPath><clipPath id="gD"><path d="M150 0a150 150 0 100 300 150 150 0 000-300zm0 0"/></clipPath><clipPath id="gE"><path d="M70 175h160v6H70zm0 0"/></clipPath><clipPath id="gF"><path d="M150 0a150 150 0 100 300 150 150 0 000-300zm0 0"/></clipPath><clipPath id="gG"><path d="M87 175h13v39H87zm0 0"/></clipPath><clipPath id="gH"><path d="M150 0a150 150 0 100 300 150 150 0 000-300zm0 0"/></clipPath><clipPath id="gI"><path d="M87 175h14v39H87zm0 0"/></clipPath><clipPath id="gJ"><path d="M150 0a150 150 0 100 300 150 150 0 000-300zm0 0"/></clipPath><clipPath id="gK"><path d="M90 175h8v39h-8zm0 0"/></clipPath><clipPath id="gL"><path d="M150 0a150 150 0 100 300 150 150 0 000-300zm0 0"/></clipPath><clipPath id="gM"><path d="M89 180h9v1h-9zm0 0"/></clipPath><clipPath id="gN"><path d="M150 0a150 150 0 100 300 150 150 0 000-300zm0 0"/></clipPath><clipPath id="gO"><path d="M89 184h9v2h-9zm0 0"/></clipPath><clipPath id="gP"><path d="M150 0a150 150 0 100 300 150 150 0 000-300zm0 0"/></clipPath><clipPath id="gQ"><path d="M89 189h9v2h-9zm0 0"/></clipPath><clipPath id="gR"><path d="M150 0a150 150 0 100 300 150 150 0 000-300zm0 0"/></clipPath><clipPath id="gS"><path d="M89 194h9v1h-9zm0 0"/></clipPath><clipPath id="gT"><path d="M150 0a150 150 0 100 300 150 150 0 000-300zm0 0"/></clipPath><clipPath id="gU"><path d="M89 198h9v2h-9zm0 0"/></clipPath><clipPath id="gV"><path d="M150 0a150 150 0 100 300 150 150 0 000-300zm0 0"/></clipPath><clipPath id="gW"><path d="M89 203h9v2h-9zm0 0"/></clipPath><clipPath id="gX"><path d="M150 0a150 150 0 100 300 150 150 0 000-300zm0 0"/></clipPath><clipPath id="gY"><path d="M89 208h9v1h-9zm0 0"/></clipPath><clipPath id="gZ"><path d="M150 0a150 150 0 100 300 150 150 0 000-300zm0 0"/></clipPath><clipPath id="ha"><path d="M143 175h13v39h-13zm0 0"/></clipPath><clipPath id="hb"><path d="M150 0a150 150 0 100 300 150 150 0 000-300zm0 0"/></clipPath><clipPath id="hc"><path d="M143 175h14v39h-14zm0 0"/></clipPath><clipPath id="hd"><path d="M150 0a150 150 0 100 300 150 150 0 000-300zm0 0"/></clipPath><clipPath id="he"><path d="M146 175h8v39h-8zm0 0"/></clipPath><clipPath id="hf"><path d="M150 0a150 150 0 100 300 150 150 0 000-300zm0 0"/></clipPath><clipPath id="hg"><path d="M146 180h8v1h-8zm0 0"/></clipPath><clipPath id="hh"><path d="M150 0a150 150 0 100 300 150 150 0 000-300zm0 0"/></clipPath><clipPath id="hi"><path d="M146 184h8v2h-8zm0 0"/></clipPath><clipPath id="hj"><path d="M150 0a150 150 0 100 300 150 150 0 000-300zm0 0"/></clipPath><clipPath id="hk"><path d="M146 189h8v2h-8zm0 0"/></clipPath><clipPath id="hl"><path d="M150 0a150 150 0 100 300 150 150 0 000-300zm0 0"/></clipPath><clipPath id="hm"><path d="M146 194h8v1h-8zm0 0"/></clipPath><clipPath id="hn"><path d="M150 0a150 150 0 100 300 150 150 0 000-300zm0 0"/></clipPath><clipPath id="ho"><path d="M146 198h8v2h-8zm0 0"/></clipPath><clipPath id="hp"><path d="M150 0a150 150 0 100 300 150 150 0 000-300zm0 0"/></clipPath><clipPath id="hq"><path d="M146 203h8v2h-8zm0 0"/></clipPath><clipPath id="hr"><path d="M150 0a150 150 0 100 300 150 150 0 000-300zm0 0"/></clipPath><clipPath id="hs"><path d="M146 208h8v1h-8zm0 0"/></clipPath><clipPath id="ht"><path d="M150 0a150 150 0 100 300 150 150 0 000-300zm0 0"/></clipPath><clipPath id="hu"><path d="M200 175h13v39h-13zm0 0"/></clipPath><clipPath id="hv"><path d="M150 0a150 150 0 100 300 150 150 0 000-300zm0 0"/></clipPath><clipPath id="hw"><path d="M199 175h14v39h-14zm0 0"/></clipPath><clipPath id="hx"><path d="M150 0a150 150 0 100 300 150 150 0 000-300zm0 0"/></clipPath><clipPath id="hy"><path d="M202 175h8v39h-8zm0 0"/></clipPath><clipPath id="hz"><path d="M150 0a150 150 0 100 300 150 150 0 000-300zm0 0"/></clipPath><clipPath id="hA"><path d="M202 180h8v1h-8zm0 0"/></clipPath><clipPath id="hB"><path d="M150 0a150 150 0 100 300 150 150 0 000-300zm0 0"/></clipPath><clipPath id="hC"><path d="M202 184h8v2h-8zm0 0"/></clipPath><clipPath id="hD"><path d="M150 0a150 150 0 100 300 150 150 0 000-300zm0 0"/></clipPath><clipPath id="hE"><path d="M202 189h8v2h-8zm0 0"/></clipPath><clipPath id="hF"><path d="M150 0a150 150 0 100 300 150 150 0 000-300zm0 0"/></clipPath><clipPath id="hG"><path d="M202 194h8v1h-8zm0 0"/></clipPath><clipPath id="hH"><path d="M150 0a150 150 0 100 300 150 150 0 000-300zm0 0"/></clipPath><clipPath id="hI"><path d="M202 198h8v2h-8zm0 0"/></clipPath><clipPath id="hJ"><path d="M150 0a150 150 0 100 300 150 150 0 000-300zm0 0"/></clipPath><clipPath id="hK"><path d="M202 203h8v2h-8zm0 0"/></clipPath><clipPath id="hL"><path d="M150 0a150 150 0 100 300 150 150 0 000-300zm0 0"/></clipPath><clipPath id="hM"><path d="M202 208h8v1h-8zm0 0"/></clipPath><clipPath id="hN"><path d="M150 0a150 150 0 100 300 150 150 0 000-300zm0 0"/></clipPath><clipPath id="hO"><path d="M113 159h4v13h-4zm0 0"/></clipPath><clipPath id="hP"><path d="M150 0a150 150 0 100 300 150 150 0 000-300zm0 0"/></clipPath><clipPath id="hQ"><path d="M113 159h4v14h-4zm0 0"/></clipPath><clipPath id="hR"><path d="M150 0a150 150 0 100 300 150 150 0 000-300zm0 0"/></clipPath><clipPath id="hS"><path d="M119 159h4v13h-4zm0 0"/></clipPath><clipPath id="hT"><path d="M150 0a150 150 0 100 300 150 150 0 000-300zm0 0"/></clipPath><clipPath id="hU"><path d="M118 159h5v14h-5zm0 0"/></clipPath><clipPath id="hV"><path d="M150 0a150 150 0 100 300 150 150 0 000-300zm0 0"/></clipPath><clipPath id="hW"><path d="M124 159h4v13h-4zm0 0"/></clipPath><clipPath id="hX"><path d="M150 0a150 150 0 100 300 150 150 0 000-300zm0 0"/></clipPath><clipPath id="hY"><path d="M124 159h5v14h-5zm0 0"/></clipPath><clipPath id="hZ"><path d="M150 0a150 150 0 100 300 150 150 0 000-300zm0 0"/></clipPath><clipPath id="ia"><path d="M172 159h3v13h-3zm0 0"/></clipPath><clipPath id="ib"><path d="M150 0a150 150 0 100 300 150 150 0 000-300zm0 0"/></clipPath><clipPath id="ic"><path d="M171 159h5v14h-5zm0 0"/></clipPath><clipPath id="id"><path d="M150 0a150 150 0 100 300 150 150 0 000-300zm0 0"/></clipPath><clipPath id="ie"><path d="M177 159h4v13h-4zm0 0"/></clipPath><clipPath id="if"><path d="M150 0a150 150 0 100 300 150 150 0 000-300zm0 0"/></clipPath><clipPath id="ig"><path d="M177 159h4v14h-4zm0 0"/></clipPath><clipPath id="ih"><path d="M150 0a150 150 0 100 300 150 150 0 000-300zm0 0"/></clipPath><clipPath id="ii"><path d="M183 159h3v13h-3zm0 0"/></clipPath><clipPath id="ij"><path d="M150 0a150 150 0 100 300 150 150 0 000-300zm0 0"/></clipPath><clipPath id="ik"><path d="M182 159h5v14h-5zm0 0"/></clipPath><clipPath id="il"><path d="M150 0a150 150 0 100 300 150 150 0 000-300zm0 0"/></clipPath><clipPath id="im"><path d="M143 95h13v3h-13zm0 0"/></clipPath><clipPath id="in"><path d="M150 0a150 150 0 100 300 150 150 0 000-300zm0 0"/></clipPath><clipPath id="io"><path d="M140 91h20v11h-20zm0 0"/></clipPath><clipPath id="ip"><path d="M150 0a150 150 0 100 300 150 150 0 000-300zm0 0"/></clipPath><clipPath id="iq"><path d="M144 93h12v3h-12zm0 0"/></clipPath><clipPath id="ir"><path d="M150 0a150 150 0 100 300 150 150 0 000-300zm0 0"/></clipPath><clipPath id="is"><path d="M140 89h19v11h-19zm0 0"/></clipPath><clipPath id="it"><path d="M150 0a150 150 0 100 300 150 150 0 000-300zm0 0"/></clipPath><clipPath id="iu"><path d="M146 91h8v3h-8zm0 0"/></clipPath><clipPath id="iv"><path d="M150 0a150 150 0 100 300 150 150 0 000-300zm0 0"/></clipPath><clipPath id="iw"><path d="M142 87h16v11h-16zm0 0"/></clipPath><clipPath id="ix"><path d="M150 0a150 150 0 100 300 150 150 0 000-300zm0 0"/></clipPath></defs><g clip-path="url(#a)"><g clip-path="url(#b)"><path d="M-84.4 225h468.8V75H-84.4zm0 0" fill="#df0024"/></g></g><g clip-path="url(#c)"><g clip-path="url(#d)"><path d="M-84.4 75h468.8V0H-84.4zm0 0" fill="#032da0"/></g></g><g clip-path="url(#e)"><g clip-path="url(#f)"><path d="M-84.4 300h468.8v-75H-84.4zm0 0" fill="#032da0"/></g></g><g clip-path="url(#g)"><g clip-path="url(#h)"><path d="M148.2 91.4s0-3 1.7-3.1c1.8 0 1.7 3.1 1.7 3.1" fill="#fff"/></g></g><g clip-path="url(#i)"><g clip-path="url(#j)"><path d="M148.2 91.4s0-3 1.7-3.1c1.8 0 1.7 3.1 1.7 3.1zm0 0" fill="none" stroke-width=".7" stroke="#000"/></g></g><g clip-path="url(#k)"><g clip-path="url(#l)"><path d="M222.5 172v-15.4c.5-2 2.1-3.6 3.4-4v-14.4c-2 0-2.8 2.4-2.8 2.4l-3.2 14.1V172" fill="#fff"/></g></g><g clip-path="url(#m)"><g clip-path="url(#n)"><path d="M222.5 172v-15.4c.5-2 2.1-3.6 3.4-4v-14.4c-2 0-2.8 2.4-2.8 2.4l-3.2 14.1V172zm0 0" fill="none" stroke-width=".7" stroke="#000"/></g></g><g clip-path="url(#o)"><g clip-path="url(#p)"><path d="M189.9 151.2h4.6v-9.8h-4.6zm0 0" fill="#fff"/></g></g><g clip-path="url(#q)"><g clip-path="url(#r)"><path d="M189.9 151.2h4.6v-9.8h-4.6zm0 0" fill="none" stroke-width=".8" stroke-linecap="square" stroke-linejoin="bevel" stroke="#000"/></g></g><g clip-path="url(#s)"><g clip-path="url(#t)"><path d="M107.8 174.2H193v-32.8h-85.3zm0 0" fill="#fff" stroke-width=".7" stroke-linejoin="bevel" stroke="#000"/></g></g><g clip-path="url(#u)"><g clip-path="url(#v)"><path d="M77.7 172v-15.4c-.5-2-2.2-3.6-3.4-4v-13.5l2.8 1.5 3.2 14.1V172" fill="#fff"/></g></g><g clip-path="url(#w)"><g clip-path="url(#x)"><path d="M77.7 172v-15.4c-.5-2-2.2-3.6-3.4-4v-13.5l2.8 1.5 3.2 14.1V172zm0 0" fill="none" stroke-width=".7" stroke="#000"/></g></g><g clip-path="url(#y)"><g clip-path="url(#z)"><path d="M77.7 172v-15.4c-.5-2-2.2-3.6-3.4-4v-14.4c1.9 0 2.8 2.4 2.8 2.4l3.2 14.1V172" fill="#fff"/></g></g><g clip-path="url(#A)"><g clip-path="url(#B)"><path d="M77.7 172v-15.4c-.5-2-2.2-3.6-3.4-4v-14.4c1.9 0 2.8 2.4 2.8 2.4l3.2 14.1V172zm0 0" fill="none" stroke-width=".7" stroke="#000"/></g></g><g clip-path="url(#C)"><g clip-path="url(#D)"><path d="M74.4 176a7 7 0 003.3-4h144.8a7 7 0 003.3 4" fill="#fff"/></g></g><g clip-path="url(#E)"><g clip-path="url(#F)"><path d="M74.4 176a7 7 0 003.3-4h144.8a7 7 0 003.3 4zm0 0" fill="none" stroke-width=".7" stroke="#000"/></g></g><g clip-path="url(#G)"><g clip-path="url(#H)"><path d="M188.7 171.9h2.7v-12.4h-2.7zm0 0" fill="#fff"/></g></g><g clip-path="url(#I)"><g clip-path="url(#J)"><path d="M188.7 171.9h2.7v-12.4h-2.7zm0 0" fill="none" stroke-width=".7" stroke-linecap="square" stroke-linejoin="bevel" stroke="#000"/></g></g><g clip-path="url(#K)"><g clip-path="url(#L)"><path d="M107.8 157.2H193v-3.8h-85.3zm0 0" fill="#fff" stroke-width=".7" stroke-linejoin="bevel" stroke="#000"/></g></g><g clip-path="url(#M)"><g clip-path="url(#N)"><path d="M107.8 151.6H193v-3.4h-85.3zm0 0" fill="#fff"/></g></g><g clip-path="url(#O)"><g clip-path="url(#P)"><path d="M107.8 151.6H193v-3.4h-85.3zm0 0" fill="none" stroke-width=".7" stroke-linejoin="bevel" stroke="#000"/></g></g><g clip-path="url(#Q)"><g clip-path="url(#R)"><path d="M107.8 146.3H193v-3.2h-85.3zm0 0" fill="#fff"/></g></g><g clip-path="url(#S)"><g clip-path="url(#T)"><path d="M107.8 146.3H193v-3.2h-85.3zm0 0" fill="none" stroke-width=".7" stroke-linejoin="bevel" stroke="#000"/></g></g><g clip-path="url(#U)"><g clip-path="url(#V)"><path d="M189.9 151.2h4.6v-9.8h-4.6zm0 0" fill="#fff"/></g></g><g clip-path="url(#W)"><g clip-path="url(#X)"><path d="M189.9 151.2h4.6v-9.8h-4.6zm0 0" fill="none" stroke-width=".8" stroke-linecap="square" stroke-linejoin="bevel" stroke="#000"/></g></g><g clip-path="url(#Y)"><g clip-path="url(#Z)"><path d="M224.3 176c-1.3-.6-3.2-2.2-3.2-3.8V153l1-1.6h-32.7l1.3 1.6v19.2c0 1.6-1.3 3.2-2.6 3.8" fill="#fff"/></g></g><g clip-path="url(#aa)"><g clip-path="url(#ab)"><path d="M224.3 176c-1.3-.6-3.2-2.2-3.2-3.8V153l1-1.6h-32.7l1.3 1.6v19.2c0 1.6-1.3 3.2-2.6 3.8zm0 0" fill="none" stroke-width=".7" stroke="#000"/></g></g><g clip-path="url(#ac)"><g clip-path="url(#ad)"><path d="M130.2 171.9h2.7v-12.4h-2.7zm0 0" fill="#fff"/></g></g><g clip-path="url(#ae)"><g clip-path="url(#af)"><path d="M130.2 171.9h2.7v-12.4h-2.7zm0 0" fill="none" stroke-width=".7" stroke-linecap="square" stroke-linejoin="bevel" stroke="#000"/></g></g><g clip-path="url(#ag)"><g clip-path="url(#ah)"><path d="M167 171.9h2.6v-12.4H167zm0 0" fill="#fff"/></g></g><g clip-path="url(#ai)"><g clip-path="url(#aj)"><path d="M167 171.9h2.6v-12.4H167zm0 0" fill="none" stroke-width=".7" stroke-linecap="square" stroke-linejoin="bevel" stroke="#000"/></g></g><g clip-path="url(#ak)"><g clip-path="url(#al)"><path d="M171.5 176c-1.6-.6-3.8-2.2-3.8-3.8v-18.3l2-2.5h-39.6l2 2.5v18.3c0 1.6-1.6 3.2-3.1 3.8" fill="#fff"/></g></g><g clip-path="url(#am)"><g clip-path="url(#an)"><path d="M171.5 176c-1.6-.6-3.8-2.2-3.8-3.8v-18.3l2-2.5h-39.6l2 2.5v18.3c0 1.6-1.6 3.2-3.1 3.8zm0 0" fill="none" stroke-width=".7" stroke="#000"/></g></g><g clip-path="url(#ao)"><g clip-path="url(#ap)"><path d="M137.2 171.9h2.7v-12.4h-2.7zm0 0" fill="#fff"/></g></g><g clip-path="url(#aq)"><g clip-path="url(#ar)"><path d="M137.2 171.9h2.7v-12.4h-2.7zm0 0" fill="none" stroke-width=".7" stroke-linecap="square" stroke-linejoin="bevel" stroke="#000"/></g></g><g clip-path="url(#as)"><g clip-path="url(#at)"><path d="M159.9 171.9h2.7v-12.4h-2.7zm0 0" fill="#fff"/></g></g><g clip-path="url(#au)"><g clip-path="url(#av)"><path d="M159.9 171.9h2.7v-12.4h-2.7zm0 0" fill="none" stroke-width=".7" stroke-linecap="square" stroke-linejoin="bevel" stroke="#000"/></g></g><g clip-path="url(#aw)"><g clip-path="url(#ax)"><path d="M129.4 130.7v20.7H170V130.7c-1.6.6-1.9 2.1-1.9 2.1v8.9h-36.5v-8.9s-.4-1.5-2-2.1" fill="#fff"/></g></g><g clip-path="url(#ay)"><g clip-path="url(#az)"><path d="M129.4 130.7v20.7H170V130.7c-1.6.6-1.9 2.1-1.9 2.1v8.9h-36.5v-8.9s-.4-1.5-2-2.1zm0 0" fill="none" stroke-width=".7" stroke="#000"/></g></g><g clip-path="url(#aA)"><g clip-path="url(#aB)"><path d="M164.4 176c-1.3-.6-4.2-2.2-4.2-3.8v-20.4c.3-1.2 1.9-1.8 2.8-2.6h-26.8c1.3.7 2.7 1.3 3.2 2.6v20.4c0 1.6-2.3 3.2-3.6 3.8" fill="#fff"/></g></g><g clip-path="url(#aC)"><g clip-path="url(#aD)"><path d="M164.4 176c-1.3-.6-4.2-2.2-4.2-3.8v-20.4c.3-1.2 1.9-1.8 2.8-2.6h-26.8c1.3.7 2.7 1.3 3.2 2.6v20.4c0 1.6-2.3 3.2-3.6 3.8zm0 0" fill="none" stroke-width=".7" stroke="#000"/></g></g><g clip-path="url(#aE)"><g clip-path="url(#aF)"><path d="M168 149.5v-14.7h-3.6v-1.5h-29.2v1.5h-3.7v14.7" fill="#fff"/></g></g><g clip-path="url(#aG)"><g clip-path="url(#aH)"><path d="M168 149.5v-14.7h-3.6v-1.5h-29.2v1.5h-3.7v14.7zm0 0" fill="none" stroke-width=".7" stroke="#000"/></g></g><g clip-path="url(#aI)"><g clip-path="url(#aJ)"><path d="M108.4 171.9h2.7v-12.4h-2.7zm0 0" fill="#fff"/></g></g><g clip-path="url(#aK)"><g clip-path="url(#aL)"><path d="M108.4 171.9h2.7v-12.4h-2.7zm0 0" fill="none" stroke-width=".7" stroke-linecap="square" stroke-linejoin="bevel" stroke="#000"/></g></g><g clip-path="url(#aM)"><g clip-path="url(#aN)"><path d="M75.7 176c1.3-.6 3.2-2.2 3.2-3.8V153l-1-1.6h32.7l-1.2 1.6v19.2c0 1.6 1.3 3.2 2.5 3.8" fill="#fff"/></g></g><g clip-path="url(#aO)"><g clip-path="url(#aP)"><path d="M75.7 176c1.3-.6 3.2-2.2 3.2-3.8V153l-1-1.6h32.7l-1.2 1.6v19.2c0 1.6 1.3 3.2 2.5 3.8zm0 0" fill="none" stroke-width=".7" stroke="#000"/></g></g><g clip-path="url(#aQ)"><g clip-path="url(#aR)"><path d="M79.2 149.8h3v-11.1h-3zm0 0" fill="#fff"/></g></g><g clip-path="url(#aS)"><g clip-path="url(#aT)"><path d="M79.2 149.8h3v-11.1h-3zm0 0" fill="none" stroke-width=".7" stroke-linecap="square" stroke-linejoin="bevel" stroke="#000"/></g></g><g clip-path="url(#aU)"><g clip-path="url(#aV)"><path d="M79.2 138.6h3v-2.3h-3zm0 0" fill="#fff"/></g></g><g clip-path="url(#aW)"><g clip-path="url(#aX)"><path d="M79.2 138.6h3v-2.3h-3zm0 0" fill="none" stroke-width=".7" stroke-linecap="square" stroke-linejoin="bevel" stroke="#000"/></g></g><g clip-path="url(#aY)"><g clip-path="url(#aZ)"><path d="M105.4 176c-1.3-.6-3.2-2.2-3.2-3.8v-18.3l2.7-2.5H82.7l2.7 2.5v18.3c0 1.6-1.9 3.2-3.2 3.8" fill="#fff"/></g></g><g clip-path="url(#ba)"><g clip-path="url(#bb)"><path d="M105.4 176c-1.3-.6-3.2-2.2-3.2-3.8v-18.3l2.7-2.5H82.7l2.7 2.5v18.3c0 1.6-1.9 3.2-3.2 3.8zm0 0" fill="none" stroke-width=".7" stroke="#000"/></g></g><g clip-path="url(#bc)"><g clip-path="url(#bd)"><path d="M102.3 176c-1.3-.6-3.2-2.2-3.2-3.8v-16.5l1.7-2.5h-14l1.7 2.5v16.5c0 1.6-1.9 3.2-3.2 3.8" fill="#fff"/></g></g><g clip-path="url(#be)"><g clip-path="url(#bf)"><path d="M102.3 176c-1.3-.6-3.2-2.2-3.2-3.8v-16.5l1.7-2.5h-14l1.7 2.5v16.5c0 1.6-1.9 3.2-3.2 3.8zm0 0" fill="none" stroke-width=".7" stroke="#000"/></g></g><g clip-path="url(#bg)"><g clip-path="url(#bh)"><path d="M217.7 176c-1.3-.6-3.2-2.2-3.2-3.8v-18.3l2.7-2.5H195l2.7 2.5v18.3c0 1.6-1.8 3.2-3.1 3.8" fill="#fff"/></g></g><g clip-path="url(#bi)"><g clip-path="url(#bj)"><path d="M217.7 176c-1.3-.6-3.2-2.2-3.2-3.8v-18.3l2.7-2.5H195l2.7 2.5v18.3c0 1.6-1.8 3.2-3.1 3.8zm0 0" fill="none" stroke-width=".7" stroke="#000"/></g></g><g clip-path="url(#bk)"><g clip-path="url(#bl)"><path d="M214.6 176c-1.3-.6-3.2-2.2-3.2-3.8v-16.5l1.8-2.5H199l1.8 2.5v16.5c0 1.6-2 3.2-3.2 3.8" fill="#fff"/></g></g><g clip-path="url(#bm)"><g clip-path="url(#bn)"><path d="M214.6 176c-1.3-.6-3.2-2.2-3.2-3.8v-16.5l1.8-2.5H199l1.8 2.5v16.5c0 1.6-2 3.2-3.2 3.8zm0 0" fill="none" stroke-width=".7" stroke="#000"/></g></g><g clip-path="url(#bo)"><g clip-path="url(#bp)"><path d="M90.4 176h6.8v-22.8h-6.8zm0 0" fill="#fff"/></g></g><g clip-path="url(#bq)"><g clip-path="url(#br)"><path d="M90.4 176h6.8v-22.8h-6.8zm0 0" fill="none" stroke-width=".7" stroke="#000"/></g></g><g clip-path="url(#bs)"><g clip-path="url(#bt)"><path d="M158.6 176c-1.3-.6-3.2-2.2-3.2-3.8v-17.5l1.1-1.5h-13.3l1.1 1.5v17.5c0 1.6-1.9 3.2-3.2 3.8" fill="#fff"/></g></g><g clip-path="url(#bu)"><g clip-path="url(#bv)"><path d="M158.6 176c-1.3-.6-3.2-2.2-3.2-3.8v-17.5l1.1-1.5h-13.3l1.1 1.5v17.5c0 1.6-1.9 3.2-3.2 3.8zm0 0" fill="none" stroke-width=".7" stroke="#000"/></g></g><g clip-path="url(#bw)"><g clip-path="url(#bx)"><path d="M146.5 176h6.7v-22.8h-6.7zm0 0" fill="#fff"/></g></g><g clip-path="url(#by)"><g clip-path="url(#bz)"><path d="M146.5 176h6.7v-22.8h-6.7zm0 0" fill="none" stroke-width=".7" stroke="#000"/></g></g><g clip-path="url(#bA)"><g clip-path="url(#bB)"><path d="M202.8 176h6.7v-22.8h-6.7zm0 0" fill="#fff"/></g></g><g clip-path="url(#bC)"><g clip-path="url(#bD)"><path d="M202.8 176h6.7v-22.8h-6.7zm0 0" fill="none" stroke-width=".7" stroke="#000"/></g></g><g clip-path="url(#bE)"><g clip-path="url(#bF)"><path d="M143.1 149.5h13.5v-5h-13.5zm0 0" fill="#fff"/></g></g><g clip-path="url(#bG)"><g clip-path="url(#bH)"><path d="M143.1 149.5h13.5v-5h-13.5zm0 0" fill="none" stroke-width=".7" stroke-linejoin="bevel" stroke="#000"/></g></g><g clip-path="url(#bI)"><g clip-path="url(#bJ)"><path d="M156.8 148.2c0-1.5 4.3-1.6 6.6-2.9h-27c2.3 1.3 6.5 1.4 6.5 2.9l1 2.9 11.1.4" fill="#fff"/></g></g><g clip-path="url(#bK)"><g clip-path="url(#bL)"><path d="M156.8 148.2c0-1.5 4.3-1.6 6.6-2.9h-27c2.3 1.3 6.5 1.4 6.5 2.9l1 2.9 11.1.4zm0 0" fill="none" stroke-width=".7" stroke-linejoin="bevel" stroke="#000"/></g></g><g clip-path="url(#bM)"><g clip-path="url(#bN)"><path d="M162 132.3c0-3.7.2-5 1.3-5v11.6c-2.7 1-4.7 4.5-4.7 4.5h-17.4s-2-3.5-4.8-4.5v-11.7c1.4 0 1.4 1.5 1.4 5.1" fill="#fff"/></g></g><g clip-path="url(#bO)"><g clip-path="url(#bP)"><path d="M162 132.3c0-3.7.2-5 1.3-5v11.6c-2.7 1-4.7 4.5-4.7 4.5h-17.4s-2-3.5-4.8-4.5v-11.7c1.4 0 1.4 1.5 1.4 5.1zm0 0" fill="none" stroke-width=".7" stroke="#000"/></g></g><g clip-path="url(#bQ)"><g clip-path="url(#bR)"><path d="M141.4 134.5c2.3 2.7 2 7.2 2 10h13c0-2.8-.2-7.3 2-10" fill="#fff"/></g></g><g clip-path="url(#bS)"><g clip-path="url(#bT)"><path d="M141.4 134.5c2.3 2.7 2 7.2 2 10h13c0-2.8-.2-7.3 2-10zm0 0" fill="none" stroke-width=".7" stroke="#000"/></g></g><g clip-path="url(#bU)"><g clip-path="url(#bV)"><path d="M81.3 171.9h2.6v-12.4h-2.6zm0 0" fill="#fff"/></g></g><g clip-path="url(#bW)"><g clip-path="url(#bX)"><path d="M81.3 171.9h2.6v-12.4h-2.6zm0 0" fill="none" stroke-width=".7" stroke-linecap="square" stroke-linejoin="bevel" stroke="#000"/></g></g><g clip-path="url(#bY)"><g clip-path="url(#bZ)"><path d="M218 149.8h3v-11.1h-3zm0 0" fill="#fff"/></g></g><g clip-path="url(#ca)"><g clip-path="url(#cb)"><path d="M218 149.8h3v-11.1h-3zm0 0" fill="none" stroke-width=".7" stroke-linecap="square" stroke-linejoin="bevel" stroke="#000"/></g></g><g clip-path="url(#cc)"><g clip-path="url(#cd)"><path d="M74.4 176a7 7 0 003.3-4h144.8a7 7 0 003.3 4zm0 0" fill="none" stroke-width=".7" stroke="#000"/></g></g><g clip-path="url(#ce)"><g clip-path="url(#cf)"><path d="M104.3 171.9h2.7v-12.4h-2.7zm0 0" fill="#fff"/></g></g><g clip-path="url(#cg)"><g clip-path="url(#ch)"><path d="M104.3 171.9h2.7v-12.4h-2.7zm0 0" fill="none" stroke-width=".7" stroke-linecap="square" stroke-linejoin="bevel" stroke="#000"/></g></g><g clip-path="url(#ci)"><g clip-path="url(#cj)"><path d="M77 134.9v16.5h2v-16.6c-.7-.3-1.4-.4-2 0" fill="#fff"/></g></g><g clip-path="url(#ck)"><g clip-path="url(#cl)"><path d="M77 134.9v16.5h2v-16.6c-.7-.3-1.4-.4-2 0zm0 0" fill="none" stroke-width=".7" stroke="#000"/></g></g><g clip-path="url(#cm)"><g clip-path="url(#cn)"><path d="M77.1 145.6c2.4 1.2 4.7 2.5 5.3 5.8H77" fill="#fff"/></g></g><g clip-path="url(#co)"><g clip-path="url(#cp)"><path d="M77.1 145.6c2.4 1.2 4.7 2.5 5.3 5.8H77zm0 0" fill="none" stroke-width=".7" stroke="#000"/></g></g><g clip-path="url(#cq)"><g clip-path="url(#cr)"><path d="M105.6 151.2h4.6v-9.8h-4.6zm0 0" fill="#fff"/></g></g><g clip-path="url(#cs)"><g clip-path="url(#ct)"><path d="M105.6 151.2h4.6v-9.8h-4.6zm0 0" fill="none" stroke-width=".8" stroke-linecap="square" stroke-linejoin="bevel" stroke="#000"/></g></g><g clip-path="url(#cu)"><g clip-path="url(#cv)"><path d="M109.5 140.6v10.8h1.5v-10.8c-.4-.2-1-.3-1.5 0" fill="#fff"/></g></g><g clip-path="url(#cw)"><g clip-path="url(#cx)"><path d="M109.5 140.6v10.8h1.5v-10.8c-.4-.2-1-.3-1.5 0zm0 0" fill="none" stroke-width=".7" stroke="#000"/></g></g><g clip-path="url(#cy)"><g clip-path="url(#cz)"><path d="M138.9 132.3v-4.1c-.1-2.1-2.1-2.3-2.2-3.8 0 0-.2-2.3.4-3.3.8 3 2.3 2.5 2.3 1.2 0-1-.9-2-2.6-4.7-.5-.9-.2-3.5.6-4.5.3 2.3.6 3.5 1.6 3.5.6 0 1-.4 1-1.6 0-1.5-.9-2.2-1.4-3.5-.6-1.6-.2-3.2.8-4 .4 2.2.3 3.1 1.3 3.1 2-.6 0-3.6-.5-4.3-.5-.9.7-2.6.7-2.6.7 2 .9 2.2 1.6 2 .8-.3.7-1.6-.3-2.6-.7-.7-.6-1.7 0-2.5.8 1.4 1.7 1.4 1.8.5l-.6-3.3h13l-.6 3.2c-.2 1 1 1.1 1.8-.4.7.8.8 1.8 0 2.5-1 1-1.1 2.3-.2 2.6.7.2.9 0 1.5-2 0 0 1 1.2.7 2.6-.4.7-2.5 3.7-.4 4.3 1 0 .9-.9 1.3-3.2 1 1 1.3 2.5.7 4-.5 1.4-1.5 2.1-1.5 3.6 0 1.2.5 1.6 1.1 1.6 1 0 1.4-1.2 1.7-3.5.7 1 1 3.6.5 4.5-1.7 2.6-2.5 3.6-2.5 4.7 0 1.3 1.5 1.8 2.3-1.2.6 1 .3 3.3.3 3.3 0 1.5-2 1.7-2.1 3.8v4.1" fill="#fff"/></g></g><g clip-path="url(#cA)"><g clip-path="url(#cB)"><path d="M138.9 132.3v-4.1c-.1-2.1-2.1-2.3-2.2-3.8 0 0-.2-2.3.4-3.3.8 3 2.3 2.5 2.3 1.2 0-1-.9-2-2.6-4.7-.5-.9-.2-3.5.6-4.5.3 2.3.6 3.5 1.6 3.5.6 0 1-.4 1-1.6 0-1.5-.9-2.2-1.4-3.5-.6-1.6-.2-3.2.8-4 .4 2.2.3 3.1 1.3 3.1 2-.6 0-3.6-.5-4.3-.5-.9.7-2.6.7-2.6.7 2 .9 2.2 1.6 2 .8-.3.7-1.6-.3-2.6-.7-.7-.6-1.7 0-2.5.8 1.4 1.7 1.4 1.8.5l-.6-3.3h13l-.6 3.2c-.2 1 1 1.1 1.8-.4.7.8.8 1.8 0 2.5-1 1-1.1 2.3-.2 2.6.7.2.9 0 1.5-2 0 0 1 1.2.7 2.6-.4.7-2.5 3.7-.4 4.3 1 0 .9-.9 1.3-3.2 1 1 1.3 2.5.7 4-.5 1.4-1.5 2.1-1.5 3.6 0 1.2.5 1.6 1.1 1.6 1 0 1.4-1.2 1.7-3.5.7 1 1 3.6.5 4.5-1.7 2.6-2.5 3.6-2.5 4.7 0 1.3 1.5 1.8 2.3-1.2.6 1 .3 3.3.3 3.3 0 1.5-2 1.7-2.1 3.8v4.1zm0 0" fill="none" stroke-width=".7" stroke="#000"/></g></g><g clip-path="url(#cC)"><g clip-path="url(#cD)"><path d="M143.6 101.8h12.9" fill="none" stroke-width=".6" stroke="#000"/></g></g><g clip-path="url(#cE)"><g clip-path="url(#cF)"><path d="M148.7 103.6l-1.7-.9v-2.6c.7.2 1.5.3 1.6 1.5.2-1.7.7-1.6 1.4-2.3.7.7 1.2.6 1.4 2.3.1-1.2 1-1.3 1.7-1.5v2.6l-1.8 1" fill="#fff"/></g></g><g clip-path="url(#cG)"><g clip-path="url(#cH)"><path d="M148.7 103.6l-1.7-.9v-2.6c.7.2 1.5.3 1.6 1.5.2-1.7.7-1.6 1.4-2.3.7.7 1.2.6 1.4 2.3.1-1.2 1-1.3 1.7-1.5v2.6l-1.8 1zm0 0" fill="none" stroke-width=".7" stroke="#000"/></g></g><g clip-path="url(#cI)"><g clip-path="url(#cJ)"><path d="M142 105.8h15.8" fill="none" stroke-width=".6" stroke="#000"/></g></g><g clip-path="url(#cK)"><g clip-path="url(#cL)"><path d="M148.6 108l-3-2v-2.5c1.1.2 2.3.3 2.4 1.6.3-1.8 1-2.8 2-3.5 1 .7 1.7 1.7 2 3.5.2-1.3 1.3-1.4 2.4-1.6v2.4l-3 2" fill="#fff"/></g></g><g clip-path="url(#cM)"><g clip-path="url(#cN)"><path d="M148.6 108l-3-2v-2.5c1.1.2 2.3.3 2.4 1.6.3-1.8 1-2.8 2-3.5 1 .7 1.7 1.7 2 3.5.2-1.3 1.3-1.4 2.4-1.6v2.4l-3 2zm0 0" fill="none" stroke-width=".7" stroke="#000"/></g></g><g clip-path="url(#cO)"><g clip-path="url(#cP)"><path d="M140.6 110.6h18.6" fill="none" stroke-width=".6" stroke="#000"/></g></g><g clip-path="url(#cQ)"><g clip-path="url(#cR)"><path d="M148.4 114.6l-3.4-3v-3.5c1.2.4 2.5.5 2.7 2.4.4-2.7 1.1-4 2.3-5.1 1.2 1 2 2.4 2.4 5 0-1.8 1.4-2 2.6-2.3v3.6l-3.4 3" fill="#fff"/></g></g><g clip-path="url(#cS)"><g clip-path="url(#cT)"><path d="M148.4 114.6l-3.4-3v-3.5c1.2.4 2.5.5 2.7 2.4.4-2.7 1.1-4 2.3-5.1 1.2 1 2 2.4 2.4 5 0-1.8 1.4-2 2.6-2.3v3.6l-3.4 3zm0 0" fill="none" stroke-width=".7" stroke="#000"/></g></g><g clip-path="url(#cU)"><g clip-path="url(#cV)"><path d="M154.7 118.6l-3 4.3H148l-3-4.3zm0 0" fill="#fff"/></g></g><g clip-path="url(#cW)"><g clip-path="url(#cX)"><path d="M154.7 118.6l-3 4.3H148l-3-4.3zm0 0" fill="none" stroke-width=".7" stroke="#000"/></g></g><g clip-path="url(#cY)"><g clip-path="url(#cZ)"><path d="M143.3 125.8c1.5.8 2 2.5 2.2 5.6h8.7c.2-3.1.7-4.8 2.3-5.6" fill="#fff"/></g></g><g clip-path="url(#da)"><g clip-path="url(#db)"><path d="M143.3 125.8c1.5.8 2 2.5 2.2 5.6h8.7c.2-3.1.7-4.8 2.3-5.6zm0 0" fill="none" stroke-width=".7" stroke="#000"/></g></g><g clip-path="url(#dc)"><g clip-path="url(#dd)"><path d="M139 116.6H161" fill="none" stroke-width=".6" stroke="#000"/></g></g><g clip-path="url(#de)"><g clip-path="url(#df)"><path d="M138.5 123.4h22.8" fill="none" stroke-width=".6" stroke="#000"/></g></g><g clip-path="url(#dg)"><g clip-path="url(#dh)"><path d="M156.6 118.6v-4.3a3.9 3.9 0 00-2.8 2.5c0-1.4-1.9-4.7-4-6.3-2 1.8-3.9 4.7-3.8 6.3-.4-1.1-1.4-2-2.9-2.5v4.3" fill="#fff"/></g></g><g clip-path="url(#di)"><g clip-path="url(#dj)"><path d="M156.6 118.6v-4.3a3.9 3.9 0 00-2.8 2.5c0-1.4-1.9-4.7-4-6.3-2 1.8-3.9 4.7-3.8 6.3-.4-1.1-1.4-2-2.9-2.5v4.3zm0 0" fill="none" stroke-width=".7" stroke-linejoin="bevel" stroke="#000"/></g></g><g clip-path="url(#dk)"><g clip-path="url(#dl)"><path d="M157.3 125.8v-4.3c-1.6.4-2.7 1.3-3.1 2.4 0-1.4-2-4.7-4.3-6.3-2.3 1.8-4.3 4.8-4.3 6.3-.4-1-1.5-2-3.1-2.4v4.3" fill="#fff"/></g></g><g clip-path="url(#dm)"><g clip-path="url(#dn)"><path d="M157.3 125.8v-4.3c-1.6.4-2.7 1.3-3.1 2.4 0-1.4-2-4.7-4.3-6.3-2.3 1.8-4.3 4.8-4.3 6.3-.4-1-1.5-2-3.1-2.4v4.3zm0 0" fill="none" stroke-width=".7" stroke-linejoin="bevel" stroke="#000"/></g></g><g clip-path="url(#do)"><g clip-path="url(#dp)"><path d="M159 134.5v-4.9c-2 .5-3.2 2-3.8 2.9 0-2.7-3-6.8-5.3-8.1-2.4 1.3-5.3 5.6-5.3 8a7.3 7.3 0 00-4-2.8v5" fill="#fff"/><path d="M159 134.5v-4.9c-2 .5-3.2 2-3.8 2.9 0-2.7-3-6.8-5.3-8.1-2.4 1.3-5.3 5.6-5.3 8a7.3 7.3 0 00-4-2.8v5zm0 0" fill="none" stroke-width=".7" stroke-linejoin="bevel" stroke="#000"/></g></g><g clip-path="url(#dq)"><g clip-path="url(#dr)"><path d="M158 145.5v-5c-1.8.6-2.3 2.3-2.9 3.5.3-5.2-2.9-10.7-5.2-12.1-2.4 1.4-5.6 7-5.3 12-.6-1-1-2.8-2.8-3.5v5" fill="#fff"/></g></g><g clip-path="url(#ds)"><g clip-path="url(#dt)"><path d="M158 145.5v-5c-1.8.6-2.3 2.3-2.9 3.5.3-5.2-2.9-10.7-5.2-12.1-2.4 1.4-5.6 7-5.3 12-.6-1-1-2.8-2.8-3.5v5zm0 0" fill="none" stroke-width=".7" stroke-linejoin="bevel" stroke="#000"/></g></g><g clip-path="url(#du)"><g clip-path="url(#dv)"><path d="M218 138.6h3v-2.3h-3zm0 0" fill="#fff"/></g></g><g clip-path="url(#dw)"><g clip-path="url(#dx)"><path d="M218 138.6h3v-2.3h-3zm0 0" fill="none" stroke-width=".7" stroke-linecap="square" stroke-linejoin="bevel" stroke="#000"/></g></g><g clip-path="url(#dy)"><g clip-path="url(#dz)"><path d="M193 171.9h2.7v-12.4h-2.6zm0 0" fill="#fff"/></g></g><g clip-path="url(#dA)"><g clip-path="url(#dB)"><path d="M193 171.9h2.7v-12.4h-2.6zm0 0" fill="none" stroke-width=".7" stroke-linecap="square" stroke-linejoin="bevel" stroke="#000"/></g></g><g clip-path="url(#dC)"><g clip-path="url(#dD)"><path d="M216.1 171.9h2.7v-12.4h-2.7zm0 0" fill="#fff"/></g></g><g clip-path="url(#dE)"><g clip-path="url(#dF)"><path d="M216.1 171.9h2.7v-12.4h-2.7zm0 0" fill="none" stroke-width=".7" stroke-linecap="square" stroke-linejoin="bevel" stroke="#000"/></g></g><g clip-path="url(#dG)"><g clip-path="url(#dH)"><path d="M131.5 145.5H168" fill="none" stroke-width=".7" stroke="#000"/></g></g><g clip-path="url(#dI)"><g clip-path="url(#dJ)"><path d="M143.1 150.5h13.6v-5H143zm0 0" fill="none" stroke-width=".7" stroke="#000"/></g></g><g clip-path="url(#dK)"><g clip-path="url(#dL)"><path d="M156.7 153.2V148c-1.8.4-2 1.1-2.5 2.2.2-3-2-6.5-4.3-8a9.5 9.5 0 00-4.4 8c-.5-1-.6-1.8-2.5-2.2v5" fill="#fff"/></g></g><g clip-path="url(#dM)"><g clip-path="url(#dN)"><path d="M156.7 153.2V148c-1.8.4-2 1.1-2.5 2.2.2-3-2-6.5-4.3-8a9.5 9.5 0 00-4.4 8c-.5-1-.6-1.8-2.5-2.2v5zm0 0" fill="none" stroke-width=".7" stroke="#000"/></g></g><g clip-path="url(#dO)"><g clip-path="url(#dP)"><path d="M111 145.6c-2.3 1.2-4.6 2.5-5.2 5.8h5.2" fill="#fff"/></g></g><g clip-path="url(#dQ)"><g clip-path="url(#dR)"><path d="M111 145.6c-2.3 1.2-4.6 2.5-5.2 5.8h5.2zm0 0" fill="none" stroke-width=".7" stroke="#000"/></g></g><g clip-path="url(#dS)"><g clip-path="url(#dT)"><path d="M79 151.3h3.2v-12.6H79zm0 0" fill="#fff" stroke-width=".7" stroke-linecap="square" stroke-linejoin="bevel" stroke="#000"/></g></g><g clip-path="url(#dU)"><g clip-path="url(#dV)"><path d="M79 138.6h3.2v-2.3H79zm0 0" fill="#fff"/></g></g><g clip-path="url(#dW)"><g clip-path="url(#dX)"><path d="M79 138.6h3.2v-2.3H79zm0 0" fill="none" stroke-width=".7" stroke-linecap="square" stroke-linejoin="bevel" stroke="#000"/></g></g><g clip-path="url(#dY)"><g clip-path="url(#dZ)"><path d="M105.6 151.2h4.6v-9.8h-4.6zm0 0" fill="#fff"/></g></g><g clip-path="url(#ea)"><g clip-path="url(#eb)"><path d="M105.6 151.2h4.6v-9.8h-4.6zm0 0" fill="none" stroke-width=".8" stroke-linecap="square" stroke-linejoin="bevel" stroke="#000"/></g></g><g clip-path="url(#ec)"><g clip-path="url(#ed)"><path d="M82.2 151.3v-21.8c.9 0 1 3.2 3.1 3.2 1.1 0 1-1.3.4-2.4-.5-1-1.2-2.2-.3-4.7.6 1.9 2.3 2.5 2 1.3-.5-2-2-2.3-1-5.5.5 2.7 2.2 2.5 1.8 1-.5-1.7-1.4-2.4-.3-4.8.7 2.7 1.6 2.6 1.6.9 0-2.5-.1-5.2 3.1-6.2 0 0 .2-2.3 1.4-2.3 1.1 0 1.3 2.3 1.3 2.3 3.3 1 3.2 3.7 3.2 6.2 0 1.7.9 1.8 1.5-.9 1.2 2.4.2 3.1-.2 4.8-.4 1.5 1.3 1.7 1.7-1 1.1 3.2-.4 3.5-1 5.5-.3 1.2 1.4.6 2-1.3 1 2.5.3 3.8-.3 4.7-.6 1.1-.7 2.4.4 2.4 2.1 0 2.3-3.2 3.2-3.2v21.8" fill="#fff"/></g></g><g clip-path="url(#ee)"><g clip-path="url(#ef)"><path d="M82.2 151.3v-21.8c.9 0 1 3.2 3.1 3.2 1.1 0 1-1.3.4-2.4-.5-1-1.2-2.2-.3-4.7.6 1.9 2.3 2.5 2 1.3-.5-2-2-2.3-1-5.5.5 2.7 2.2 2.5 1.8 1-.5-1.7-1.4-2.4-.3-4.8.7 2.7 1.6 2.6 1.6.9 0-2.5-.1-5.2 3.1-6.2 0 0 .2-2.3 1.4-2.3 1.1 0 1.3 2.3 1.3 2.3 3.3 1 3.2 3.7 3.2 6.2 0 1.7.9 1.8 1.5-.9 1.2 2.4.2 3.1-.2 4.8-.4 1.5 1.3 1.7 1.7-1 1.1 3.2-.4 3.5-1 5.5-.3 1.2 1.4.6 2-1.3 1 2.5.3 3.8-.3 4.7-.6 1.1-.7 2.4.4 2.4 2.1 0 2.3-3.2 3.2-3.2v21.8zm0 0" fill="none" stroke-width=".7" stroke="#000"/></g></g><g clip-path="url(#eg)"><g clip-path="url(#eh)"><path d="M95.6 120.3L97 119v-1.5c-.5 0-.8.3-1.2.7-.3-1-1-1.7-1.9-2.2-1 .5-1.6 1.2-2 2.2-.3-.5-.6-.6-1-.7v1.5l1.3 1.2" fill="#fff"/></g></g><g clip-path="url(#ei)"><g clip-path="url(#ej)"><path d="M95.6 120.3L97 119v-1.5c-.5 0-.8.3-1.2.7-.3-1-1-1.7-1.9-2.2-1 .5-1.6 1.2-2 2.2-.3-.5-.6-.6-1-.7v1.5l1.3 1.2zm0 0" fill="none" stroke-width=".7" stroke="#000"/></g></g><g clip-path="url(#ek)"><g clip-path="url(#el)"><path d="M96.3 124l.7-1.4v-2c-.5.1-.8.3-1.2.8-.3-1-1-1.8-1.9-2.3-1 .5-1.6 1.2-2 2.2-.3-.5-.6-.6-1-.7v2l.6 1.3" fill="#fff"/></g></g><g clip-path="url(#em)"><g clip-path="url(#en)"><path d="M96.3 124l.7-1.4v-2c-.5.1-.8.3-1.2.8-.3-1-1-1.8-1.9-2.3-1 .5-1.6 1.2-2 2.2-.3-.5-.6-.6-1-.7v2l.6 1.3zm0 0" fill="none" stroke-width=".7" stroke="#000"/></g></g><g clip-path="url(#eo)"><g clip-path="url(#ep)"><path d="M96.4 128.9l2-2.5V124c-.7 0-1.1.4-1.6 1.2-.5-1.7-1.5-2-2.9-2.8-1.4.8-2.4 1-2.8 2.7-.6-.8-1-1-1.7-1.1v2.4l2 2.5" fill="#fff"/></g></g><g clip-path="url(#eq)"><g clip-path="url(#er)"><path d="M96.4 128.9l2-2.5V124c-.7 0-1.1.4-1.6 1.2-.5-1.7-1.5-2-2.9-2.8-1.4.8-2.4 1-2.8 2.7-.6-.8-1-1-1.7-1.1v2.4l2 2.5zm0 0" fill="none" stroke-width=".7" stroke="#000"/></g></g><g clip-path="url(#es)"><g clip-path="url(#et)"><path d="M97 133.8s2.4-2 2.5-3.2V128c-.9.1-1.8.3-2.4 1.4-.6-2.1-1.5-2.8-3.2-3.8-1.7 1-2.6 1.7-3.2 3.8-.6-1-1.5-1.3-2.4-1.4v2.6c.3 1.1 2.5 3.2 2.5 3.2" fill="#fff"/></g></g><g clip-path="url(#eu)"><g clip-path="url(#ev)"><path d="M97 133.8s2.4-2 2.5-3.2V128c-.9.1-1.8.3-2.4 1.4-.6-2.1-1.5-2.8-3.2-3.8-1.7 1-2.6 1.7-3.2 3.8-.6-1-1.5-1.3-2.4-1.4v2.6c.3 1.1 2.5 3.2 2.5 3.2zm0 0" fill="none" stroke-width=".7" stroke="#000"/></g></g><g clip-path="url(#ew)"><g clip-path="url(#ex)"><path d="M98 142.8s3.2-3.6 3.3-5v-4c-1.2.1-2.3 1-3.2 2.6-.8-3.3-2-5.7-4.2-7.3-2.2 1.6-3.4 4-4.2 7.3-.9-1.6-2-2.5-3.2-2.6v4c.2 1.4 3.3 5 3.3 5" fill="#fff"/></g></g><g clip-path="url(#ey)"><g clip-path="url(#ez)"><path d="M98 142.8s3.2-3.6 3.3-5v-4c-1.2.1-2.3 1-3.2 2.6-.8-3.3-2-5.7-4.2-7.3-2.2 1.6-3.4 4-4.2 7.3-.9-1.6-2-2.5-3.2-2.6v4c.2 1.4 3.3 5 3.3 5zm0 0" fill="none" stroke-width=".7" stroke="#000"/></g></g><g clip-path="url(#eA)"><g clip-path="url(#eB)"><path d="M98 148.1s2.8-2.8 3.3-4v-4c-1.2.1-2.3 1-3.2 2.6-.8-3.4-2-5.3-4.2-6.9-2.2 1.6-3.4 3.5-4.2 6.9-.9-1.7-2-2.5-3.2-2.7v4c.7 1.3 3.3 4.1 3.3 4.1" fill="#fff"/></g></g><g clip-path="url(#eC)"><g clip-path="url(#eD)"><path d="M98 148.1s2.8-2.8 3.3-4v-4c-1.2.1-2.3 1-3.2 2.6-.8-3.4-2-5.3-4.2-6.9-2.2 1.6-3.4 3.5-4.2 6.9-.9-1.7-2-2.5-3.2-2.7v4c.7 1.3 3.3 4.1 3.3 4.1zm0 0" fill="none" stroke-width=".7" stroke="#000"/></g></g><g clip-path="url(#eE)"><g clip-path="url(#eF)"><path d="M99.1 151.2c-.8-3.5-1.5-6-5.3-8.7-4 2.6-4.6 5.2-5.4 8.7" fill="#fff"/></g></g><g clip-path="url(#eG)"><g clip-path="url(#eH)"><path d="M99.1 151.2c-.8-3.5-1.5-6-5.3-8.7-4 2.6-4.6 5.2-5.4 8.7zm0 0" fill="none" stroke-width=".7" stroke="#000"/></g></g><g clip-path="url(#eI)"><g clip-path="url(#eJ)"><path d="M101.1 153.2V148c-1.7.7-3.3 1.7-3.9 2.8-.7-2.8-2-4-3.5-5.7-1.6 1.7-2.6 3-3.3 5.7-.6-1.1-2.2-2.1-4-2.8v5" fill="#fff"/></g></g><g clip-path="url(#eK)"><g clip-path="url(#eL)"><path d="M101.1 153.2V148c-1.7.7-3.3 1.7-3.9 2.8-.7-2.8-2-4-3.5-5.7-1.6 1.7-2.6 3-3.3 5.7-.6-1.1-2.2-2.1-4-2.8v5zm0 0" fill="none" stroke-width=".7" stroke="#000"/></g></g><g clip-path="url(#eM)"><g clip-path="url(#eN)"><path d="M77 134.9v16.5h2v-16.6c-.7-.3-1.4-.4-2 0" fill="#fff"/></g></g><g clip-path="url(#eO)"><g clip-path="url(#eP)"><path d="M77 134.9v16.5h2v-16.6c-.7-.3-1.4-.4-2 0zm0 0" fill="none" stroke-width=".7" stroke="#000"/></g></g><g clip-path="url(#eQ)"><g clip-path="url(#eR)"><path d="M77.1 145.6c2.4 1.2 4.7 2.5 5.3 5.8H77" fill="#fff"/></g></g><g clip-path="url(#eS)"><g clip-path="url(#eT)"><path d="M77.1 145.6c2.4 1.2 4.7 2.5 5.3 5.8H77zm0 0" fill="none" stroke-width=".7" stroke="#000"/></g></g><g clip-path="url(#eU)"><g clip-path="url(#eV)"><path d="M109.5 140.6v10.8h1.5v-10.8c-.4-.2-1-.3-1.5 0" fill="#fff"/></g></g><g clip-path="url(#eW)"><g clip-path="url(#eX)"><path d="M109.5 140.6v10.8h1.5v-10.8c-.4-.2-1-.3-1.5 0zm0 0" fill="none" stroke-width=".7" stroke="#000"/></g></g><g clip-path="url(#eY)"><g clip-path="url(#eZ)"><path d="M111 145.5c-2.3 1.2-4.6 2.6-5.2 5.8h5.2" fill="#fff"/></g></g><g clip-path="url(#fa)"><g clip-path="url(#fb)"><path d="M111 145.5c-2.3 1.2-4.6 2.6-5.2 5.8h5.2zm0 0" fill="none" stroke-width=".7" stroke="#000"/></g></g><g clip-path="url(#fc)"><g clip-path="url(#fd)"><path d="M223 134.9v16.5h-1.9v-16.6c.7-.3 1.4-.4 2 0" fill="#fff"/></g></g><g clip-path="url(#fe)"><g clip-path="url(#ff)"><path d="M223 134.9v16.5h-1.9v-16.6c.7-.3 1.4-.4 2 0zm0 0" fill="none" stroke-width=".7" stroke="#000"/></g></g><g clip-path="url(#fg)"><g clip-path="url(#fh)"><path d="M194.4 151.3v-21.8c1 0 1 3.2 3.2 3.2 1.1 0 1-1.3.4-2.4-.6-1-1.3-2.2-.3-4.7.6 1.9 2.3 2.5 2 1.3-.6-2-2.1-2.3-1-5.5.5 2.7 2.1 2.5 1.7 1-.4-1.7-1.4-2.4-.2-4.8.6 2.7 1.5 2.6 1.5.9 0-2.5 0-5.2 3.2-6.2 0 0 .2-2.3 1.3-2.3 1.2 0 1.4 2.3 1.4 2.3 3.2 1 3.2 3.7 3.2 6.2 0 1.7.8 1.8 1.5-.9 1.2 2.4.2 3.1-.2 4.8-.5 1.5 1.2 1.7 1.6-1 1.2 3.2-.4 3.5-.9 5.5-.3 1.2 1.4.6 2-1.3 1 2.5.3 3.8-.3 4.7-.6 1.1-.7 2.4.4 2.4 2.1 0 2.2-3.2 3.2-3.2v21.8" fill="#fff"/></g></g><g clip-path="url(#fi)"><g clip-path="url(#fj)"><path d="M194.4 151.3v-21.8c1 0 1 3.2 3.2 3.2 1.1 0 1-1.3.4-2.4-.6-1-1.3-2.2-.3-4.7.6 1.9 2.3 2.5 2 1.3-.6-2-2.1-2.3-1-5.5.5 2.7 2.1 2.5 1.7 1-.4-1.7-1.4-2.4-.2-4.8.6 2.7 1.5 2.6 1.5.9 0-2.5 0-5.2 3.2-6.2 0 0 .2-2.3 1.3-2.3 1.2 0 1.4 2.3 1.4 2.3 3.2 1 3.2 3.7 3.2 6.2 0 1.7.8 1.8 1.5-.9 1.2 2.4.2 3.1-.2 4.8-.5 1.5 1.2 1.7 1.6-1 1.2 3.2-.4 3.5-.9 5.5-.3 1.2 1.4.6 2-1.3 1 2.5.3 3.8-.3 4.7-.6 1.1-.7 2.4.4 2.4 2.1 0 2.2-3.2 3.2-3.2v21.8zm0 0" fill="none" stroke-width=".7" stroke="#000"/></g></g><g clip-path="url(#fk)"><g clip-path="url(#fl)"><path d="M207.9 120.3l1.3-1.2v-1.5c-.5 0-.7.3-1.1.7-.3-1-1-1.7-2-2.2-.9.5-1.5 1.2-1.9 2.2-.3-.5-.6-.6-1-.7v1.5l1.3 1.2" fill="#fff"/></g></g><g clip-path="url(#fm)"><g clip-path="url(#fn)"><path d="M207.9 120.3l1.3-1.2v-1.5c-.5 0-.7.3-1.1.7-.3-1-1-1.7-2-2.2-.9.5-1.5 1.2-1.9 2.2-.3-.5-.6-.6-1-.7v1.5l1.3 1.2zm0 0" fill="none" stroke-width=".7" stroke="#000"/></g></g><g clip-path="url(#fo)"><g clip-path="url(#fp)"><path d="M208.6 124l.6-1.4v-2c-.5.1-.7.3-1.1.8-.3-1-1-1.8-2-2.3-.9.5-1.5 1.2-1.9 2.2-.3-.5-.6-.6-1-.7v2l.5 1.3" fill="#fff"/></g></g><g clip-path="url(#fq)"><g clip-path="url(#fr)"><path d="M208.6 124l.6-1.4v-2c-.5.1-.7.3-1.1.8-.3-1-1-1.8-2-2.3-.9.5-1.5 1.2-1.9 2.2-.3-.5-.6-.6-1-.7v2l.5 1.3zm0 0" fill="none" stroke-width=".7" stroke="#000"/></g></g><g clip-path="url(#fs)"><g clip-path="url(#ft)"><path d="M208.7 128.9l2-2.5V124c-.7 0-1.1.4-1.7 1.2-.4-1.7-1.5-2-2.8-2.8-1.4.8-2.4 1-2.9 2.7-.5-.8-1-1-1.7-1.1v2.4l2 2.5" fill="#fff"/></g></g><g clip-path="url(#fu)"><g clip-path="url(#fv)"><path d="M208.7 128.9l2-2.5V124c-.7 0-1.1.4-1.7 1.2-.4-1.7-1.5-2-2.8-2.8-1.4.8-2.4 1-2.9 2.7-.5-.8-1-1-1.7-1.1v2.4l2 2.5zm0 0" fill="none" stroke-width=".7" stroke="#000"/></g></g><g clip-path="url(#fw)"><g clip-path="url(#fx)"><path d="M209.3 133.8s2.3-2 2.5-3.2V128c-1 .1-1.8.3-2.5 1.4-.5-2.1-1.4-2.8-3.1-3.8-1.7 1-2.6 1.7-3.2 3.8-.7-1-1.5-1.3-2.4-1.4v2.6c.3 1.1 2.5 3.2 2.5 3.2" fill="#fff"/></g></g><g clip-path="url(#fy)"><g clip-path="url(#fz)"><path d="M209.3 133.8s2.3-2 2.5-3.2V128c-1 .1-1.8.3-2.5 1.4-.5-2.1-1.4-2.8-3.1-3.8-1.7 1-2.6 1.7-3.2 3.8-.7-1-1.5-1.3-2.4-1.4v2.6c.3 1.1 2.5 3.2 2.5 3.2zm0 0" fill="none" stroke-width=".7" stroke="#000"/></g></g><g clip-path="url(#fA)"><g clip-path="url(#fB)"><path d="M210.3 142.8s3.2-3.6 3.3-5v-4c-1.2.1-2.4 1-3.3 2.6-.7-3.3-1.9-5.7-4.1-7.3-2.3 1.6-3.4 4-4.2 7.3-.9-1.6-2-2.5-3.2-2.6v4c.2 1.4 3.3 5 3.3 5" fill="#fff"/></g></g><g clip-path="url(#fC)"><g clip-path="url(#fD)"><path d="M210.3 142.8s3.2-3.6 3.3-5v-4c-1.2.1-2.4 1-3.3 2.6-.7-3.3-1.9-5.7-4.1-7.3-2.3 1.6-3.4 4-4.2 7.3-.9-1.6-2-2.5-3.2-2.6v4c.2 1.4 3.3 5 3.3 5zm0 0" fill="none" stroke-width=".7" stroke="#000"/></g></g><g clip-path="url(#fE)"><g clip-path="url(#fF)"><path d="M210.3 148.1s2.7-2.8 3.3-4v-4c-1.2.1-2.4 1-3.3 2.6-.7-3.4-1.9-5.3-4.1-6.9-2.3 1.6-3.4 3.5-4.2 6.9-.9-1.7-2-2.5-3.2-2.7v4c.7 1.3 3.3 4.1 3.3 4.1" fill="#fff"/></g></g><g clip-path="url(#fG)"><g clip-path="url(#fH)"><path d="M210.3 148.1s2.7-2.8 3.3-4v-4c-1.2.1-2.4 1-3.3 2.6-.7-3.4-1.9-5.3-4.1-6.9-2.3 1.6-3.4 3.5-4.2 6.9-.9-1.7-2-2.5-3.2-2.7v4c.7 1.3 3.3 4.1 3.3 4.1zm0 0" fill="none" stroke-width=".7" stroke="#000"/></g></g><g clip-path="url(#fI)"><g clip-path="url(#fJ)"><path d="M211.4 151.2c-.8-3.5-1.5-6-5.4-8.7-3.8 2.6-4.5 5.2-5.3 8.7" fill="#fff"/></g></g><g clip-path="url(#fK)"><g clip-path="url(#fL)"><path d="M211.4 151.2c-.8-3.5-1.5-6-5.4-8.7-3.8 2.6-4.5 5.2-5.3 8.7zm0 0" fill="none" stroke-width=".7" stroke="#000"/></g></g><g clip-path="url(#fM)"><g clip-path="url(#fN)"><path d="M223 145.6c-2.4 1.2-4.4 2.5-5 5.8h5" fill="#fff"/></g></g><g clip-path="url(#fO)"><g clip-path="url(#fP)"><path d="M223 145.6c-2.4 1.2-4.4 2.5-5 5.8h5zm0 0" fill="none" stroke-width=".7" stroke="#000"/></g></g><g clip-path="url(#fQ)"><g clip-path="url(#fR)"><path d="M190.6 140.6v10.8h-1.5v-10.8c.4-.2 1.1-.3 1.5 0" fill="#fff"/></g></g><g clip-path="url(#fS)"><g clip-path="url(#fT)"><path d="M190.6 140.6v10.8h-1.5v-10.8c.4-.2 1.1-.3 1.5 0zm0 0" fill="none" stroke-width=".7" stroke="#000"/></g></g><g clip-path="url(#fU)"><g clip-path="url(#fV)"><path d="M189 145.6c2.4 1.2 4.7 2.5 5.3 5.8h-5.2" fill="#fff"/></g></g><g clip-path="url(#fW)"><g clip-path="url(#fX)"><path d="M189 145.6c2.4 1.2 4.7 2.5 5.3 5.8h-5.2zm0 0" fill="none" stroke-width=".7" stroke="#000"/></g></g><g clip-path="url(#fY)"><g clip-path="url(#fZ)"><path d="M190.6 140.6v10.8h-1.5v-10.8c.4-.2 1.1-.3 1.5 0" fill="#fff"/></g></g><g clip-path="url(#ga)"><g clip-path="url(#gb)"><path d="M190.6 140.6v10.8h-1.5v-10.8c.4-.2 1.1-.3 1.5 0zm0 0" fill="none" stroke-width=".7" stroke="#000"/></g></g><g clip-path="url(#gc)"><g clip-path="url(#gd)"><path d="M189 145.6c2.4 1.2 4.7 2.5 5.3 5.8h-5.2" fill="#fff"/></g></g><g clip-path="url(#ge)"><g clip-path="url(#gf)"><path d="M189 145.6c2.4 1.2 4.7 2.5 5.3 5.8h-5.2zm0 0" fill="none" stroke-width=".7" stroke="#000"/></g></g><g clip-path="url(#gg)"><g clip-path="url(#gh)"><path d="M163.3 130.8c0-4.2 3.7-4.7 3.7-4.7v3.8c-1.4-.1-2 1.1-2 3 0 1.8 1 1.9 1 1.9v10.6h-2.7" fill="#fff"/></g></g><g clip-path="url(#gi)"><g clip-path="url(#gj)"><path d="M163.3 130.8c0-4.2 3.7-4.7 3.7-4.7v3.8c-1.4-.1-2 1.1-2 3 0 1.8 1 1.9 1 1.9v10.6h-2.7zm0 0" fill="none" stroke-width=".7" stroke="#000"/></g></g><g clip-path="url(#gk)"><g clip-path="url(#gl)"><path d="M136.4 130.8c0-4.2-3.6-4.7-3.6-4.7v3.8c1.4-.1 2 1.1 2 3 0 1.8-1 1.9-1 1.9v10.6h2.6" fill="#fff"/></g></g><g clip-path="url(#gm)"><g clip-path="url(#gn)"><path d="M136.4 130.8c0-4.2-3.6-4.7-3.6-4.7v3.8c1.4-.1 2 1.1 2 3 0 1.8-1 1.9-1 1.9v10.6h2.6zm0 0" fill="none" stroke-width=".7" stroke="#000"/></g></g><g clip-path="url(#go)"><g clip-path="url(#gp)"><path d="M213.5 153.1v-5c-1.8.6-3.4 1.6-4 2.8-.6-2.8-1.9-4-3.5-5.8a11 11 0 00-3.3 5.8c-.5-1.2-2.1-2.2-3.9-2.9v5.1" fill="#fff"/></g></g><g clip-path="url(#gq)"><g clip-path="url(#gr)"><path d="M213.5 153.1v-5c-1.8.6-3.4 1.6-4 2.8-.6-2.8-1.9-4-3.5-5.8a11 11 0 00-3.3 5.8c-.5-1.2-2.1-2.2-3.9-2.9v5.1zm0 0" fill="none" stroke-width=".7" stroke="#000"/></g></g><g clip-path="url(#gs)"><g clip-path="url(#gt)"><path d="M58 203.9h184v-9.4H58zm0 0" fill="#fff"/></g></g><g clip-path="url(#gu)"><g clip-path="url(#gv)"><path d="M58 203.9h184v-9.4H58zm0 0" fill="none" stroke-width=".7" stroke="#000"/></g></g><g clip-path="url(#gw)"><g clip-path="url(#gx)"><path d="M53.2 213.3h193.6v-9.4H53.2zm0 0" fill="#fff"/></g></g><g clip-path="url(#gy)"><g clip-path="url(#gz)"><path d="M53.2 213.3h193.6v-9.4H53.2zm0 0" fill="none" stroke-width=".7" stroke="#000"/></g></g><g clip-path="url(#gA)"><g clip-path="url(#gB)"><path d="M67.7 186.5h164.6v-6H67.7zm0 0" fill="#fff" stroke-width=".7" stroke="#000"/></g></g><g clip-path="url(#gC)"><g clip-path="url(#gD)"><path d="M62.9 194.4H237v-8H63zm0 0" fill="#fff" stroke-width=".7" stroke="#000"/></g></g><g clip-path="url(#gE)"><g clip-path="url(#gF)"><path d="M70.5 180.4h159v-4.6h-159zm0 0" fill="#fff"/><path d="M70.5 175.8h159v4.6h-159zm0 0" fill="none" stroke-width=".7" stroke="#000"/></g></g><g clip-path="url(#gG)"><g clip-path="url(#gH)"><path d="M87.8 213.2h12v-37.4h-12zm0 0" fill="#fff"/></g></g><g clip-path="url(#gI)"><g clip-path="url(#gJ)"><path d="M87.8 213.2h12v-37.4h-12zm0 0" fill="none" stroke-width=".8" stroke="#000"/></g></g><g clip-path="url(#gK)"><g clip-path="url(#gL)"><path d="M90.5 213.2H97v-37.4h-6.7zm0 0" fill="#fff" stroke-width=".8" stroke="#000"/></g></g><g clip-path="url(#gM)"><g clip-path="url(#gN)"><path d="M90.3 180.4h7" fill="none" stroke-width=".7" stroke="#000"/></g></g><g clip-path="url(#gO)"><g clip-path="url(#gP)"><path d="M90.3 185h7" fill="none" stroke-width=".7" stroke="#000"/></g></g><g clip-path="url(#gQ)"><g clip-path="url(#gR)"><path d="M90.3 189.8h7" fill="none" stroke-width=".7" stroke="#000"/></g></g><g clip-path="url(#gS)"><g clip-path="url(#gT)"><path d="M90.3 194.5h7" fill="none" stroke-width=".7" stroke="#000"/></g></g><g clip-path="url(#gU)"><g clip-path="url(#gV)"><path d="M90.3 199.2h7" fill="none" stroke-width=".7" stroke="#000"/></g></g><g clip-path="url(#gW)"><g clip-path="url(#gX)"><path d="M90.3 203.8h7" fill="none" stroke-width=".7" stroke="#000"/></g></g><g clip-path="url(#gY)"><g clip-path="url(#gZ)"><path d="M90.3 208.5h7" fill="none" stroke-width=".7" stroke="#000"/></g></g><g clip-path="url(#ha)"><g clip-path="url(#hb)"><path d="M143.8 175.8h12v37.4h-12zm0 0" fill="#fff"/></g></g><g clip-path="url(#hc)"><g clip-path="url(#hd)"><path d="M143.8 175.8h12v37.4h-12zm0 0" fill="none" stroke-width=".8" stroke="#000"/></g></g><g clip-path="url(#he)"><g clip-path="url(#hf)"><path d="M146.5 213.2h6.7v-37.4h-6.7zm0 0" fill="#fff" stroke-width=".8" stroke="#000"/></g></g><g clip-path="url(#hg)"><g clip-path="url(#hh)"><path d="M146.6 180.4h6.4" fill="none" stroke-width=".7" stroke="#000"/></g></g><g clip-path="url(#hi)"><g clip-path="url(#hj)"><path d="M146.6 185h6.4" fill="none" stroke-width=".7" stroke="#000"/></g></g><g clip-path="url(#hk)"><g clip-path="url(#hl)"><path d="M146.6 189.8h6.4" fill="none" stroke-width=".7" stroke="#000"/></g></g><g clip-path="url(#hm)"><g clip-path="url(#hn)"><path d="M146.6 194.5h6.4" fill="none" stroke-width=".7" stroke="#000"/></g></g><g clip-path="url(#ho)"><g clip-path="url(#hp)"><path d="M146.6 199.2h6.4" fill="none" stroke-width=".7" stroke="#000"/></g></g><g clip-path="url(#hq)"><g clip-path="url(#hr)"><path d="M146.6 203.8h6.4" fill="none" stroke-width=".7" stroke="#000"/></g></g><g clip-path="url(#hs)"><g clip-path="url(#ht)"><path d="M146.6 208.5h6.4" fill="none" stroke-width=".7" stroke="#000"/></g></g><g clip-path="url(#hu)"><g clip-path="url(#hv)"><path d="M200.1 213.2h12v-37.4h-12zm0 0" fill="#fff"/></g></g><g clip-path="url(#hw)"><g clip-path="url(#hx)"><path d="M200.1 213.2h12v-37.4h-12zm0 0" fill="none" stroke-width=".8" stroke="#000"/></g></g><g clip-path="url(#hy)"><g clip-path="url(#hz)"><path d="M202.8 175.8h6.7v37.4h-6.7zm0 0" fill="#fff" stroke-width=".8" stroke="#000"/></g></g><g clip-path="url(#hA)"><g clip-path="url(#hB)"><path d="M202.7 180.4h6.9" fill="none" stroke-width=".7" stroke="#000"/></g></g><g clip-path="url(#hC)"><g clip-path="url(#hD)"><path d="M202.7 185h6.9" fill="none" stroke-width=".7" stroke="#000"/></g></g><g clip-path="url(#hE)"><g clip-path="url(#hF)"><path d="M202.7 189.8h6.9" fill="none" stroke-width=".7" stroke="#000"/></g></g><g clip-path="url(#hG)"><g clip-path="url(#hH)"><path d="M202.7 194.5h6.9" fill="none" stroke-width=".7" stroke="#000"/></g></g><g clip-path="url(#hI)"><g clip-path="url(#hJ)"><path d="M202.7 199.2h6.9" fill="none" stroke-width=".7" stroke="#000"/></g></g><g clip-path="url(#hK)"><g clip-path="url(#hL)"><path d="M202.7 203.8h6.9" fill="none" stroke-width=".7" stroke="#000"/></g></g><g clip-path="url(#hM)"><g clip-path="url(#hN)"><path d="M202.7 208.5h6.9" fill="none" stroke-width=".7" stroke="#000"/></g></g><g clip-path="url(#hO)"><g clip-path="url(#hP)"><path d="M113.7 171.9h2.7v-12.4h-2.7zm0 0" fill="#fff"/></g></g><g clip-path="url(#hQ)"><g clip-path="url(#hR)"><path d="M113.7 171.9h2.7v-12.4h-2.7zm0 0" fill="none" stroke-width=".7" stroke-linecap="square" stroke-linejoin="bevel" stroke="#000"/></g></g><g clip-path="url(#hS)"><g clip-path="url(#hT)"><path d="M119.3 171.9h2.7v-12.4h-2.7zm0 0" fill="#fff"/></g></g><g clip-path="url(#hU)"><g clip-path="url(#hV)"><path d="M119.3 171.9h2.7v-12.4h-2.7zm0 0" fill="none" stroke-width=".7" stroke-linecap="square" stroke-linejoin="bevel" stroke="#000"/></g></g><g clip-path="url(#hW)"><g clip-path="url(#hX)"><path d="M125 171.9h2.6v-12.4H125zm0 0" fill="#fff"/></g></g><g clip-path="url(#hY)"><g clip-path="url(#hZ)"><path d="M125 171.9h2.6v-12.4H125zm0 0" fill="none" stroke-width=".7" stroke-linecap="square" stroke-linejoin="bevel" stroke="#000"/></g></g><g clip-path="url(#ia)"><g clip-path="url(#ib)"><path d="M172 171.9h2.7v-12.4h-2.6zm0 0" fill="#fff"/></g></g><g clip-path="url(#ic)"><g clip-path="url(#id)"><path d="M172 171.9h2.7v-12.4h-2.6zm0 0" fill="none" stroke-width=".7" stroke-linecap="square" stroke-linejoin="bevel" stroke="#000"/></g></g><g clip-path="url(#ie)"><g clip-path="url(#if)"><path d="M177.7 171.9h2.7v-12.4h-2.7zm0 0" fill="#fff"/></g></g><g clip-path="url(#ig)"><g clip-path="url(#ih)"><path d="M177.7 171.9h2.7v-12.4h-2.7zm0 0" fill="none" stroke-width=".7" stroke-linecap="square" stroke-linejoin="bevel" stroke="#000"/></g></g><g clip-path="url(#ii)"><g clip-path="url(#ij)"><path d="M183.3 171.9h2.7v-12.4h-2.7zm0 0" fill="#fff"/></g></g><g clip-path="url(#ik)"><g clip-path="url(#il)"><path d="M183.3 171.9h2.7v-12.4h-2.7zm0 0" fill="none" stroke-width=".7" stroke-linecap="square" stroke-linejoin="bevel" stroke="#000"/></g></g><g clip-path="url(#im)"><g clip-path="url(#in)"><path d="M144.3 97.8l-.3-2.4h11.9l-.3 2.4zm0 0" fill="#fff"/></g></g><g clip-path="url(#io)"><g clip-path="url(#ip)"><path d="M144.3 97.8l-.3-2.4h11.9l-.3 2.4zm0 0" fill="none" stroke-width=".7" stroke="#000"/></g></g><g clip-path="url(#iq)"><g clip-path="url(#ir)"><path d="M145 95.4l-.2-2H155l-.2 2zm0 0" fill="#fff"/></g></g><g clip-path="url(#is)"><g clip-path="url(#it)"><path d="M145 95.4l-.2-2H155l-.2 2zm0 0" fill="none" stroke-width=".7" stroke="#000"/></g></g><g clip-path="url(#iu)"><g clip-path="url(#iv)"><path d="M146.7 93.4l-.2-2h6.8l-.2 2zm0 0" fill="#fff"/></g></g><g clip-path="url(#iw)"><g clip-path="url(#ix)"><path d="M146.7 93.4l-.2-2h6.8l-.2 2zm0 0" fill="none" stroke-width=".7" stroke="#000"/></g></g></svg>