<svg xmlns="http://www.w3.org/2000/svg" width="400" height="400" viewBox="0 0 300 300"><defs><clipPath id="a"><path d="M0 0h75v300H0zm0 0"/></clipPath><clipPath id="b"><path d="M150 0a150 150 0 100 300 150 150 0 000-300zm0 0"/></clipPath><clipPath id="c"><path d="M75 0h150v300H75zm0 0"/></clipPath><clipPath id="d"><path d="M150 0a150 150 0 100 300 150 150 0 000-300zm0 0"/></clipPath><clipPath id="e"><path d="M225 0h75v300h-75zm0 0"/></clipPath><clipPath id="f"><path d="M150 0a150 150 0 100 300 150 150 0 000-300zm0 0"/></clipPath><clipPath id="g"><path d="M111 110h78v73h-78zm0 0"/></clipPath><clipPath id="h"><path d="M150 0a150 150 0 100 300 150 150 0 000-300zm0 0"/></clipPath></defs><g clip-path="url(#a)"><g clip-path="url(#b)"><path d="M-75 300H75V0H-75zm0 0" fill="#00795e"/></g></g><g clip-path="url(#c)"><g clip-path="url(#d)"><path d="M75 300h150V0H75zm0 0" fill="#ce1125"/></g></g><g clip-path="url(#e)"><g clip-path="url(#f)"><path d="M225 300h150V0H225zm0 0" fill="#fbd115"/></g></g><g clip-path="url(#g)"><g clip-path="url(#h)"><path d="M112 137.6l23.5 17.1-9 27.7 23.5-17.1 23.5 17-9-27.6 23.5-17h-29.2L150 110l-8.8 27.6" fill="#fbd115"/></g></g></svg>