<svg xmlns="http://www.w3.org/2000/svg" width="400" height="400" viewBox="0 0 300 300"><defs><clipPath id="a"><path d="M150 0a150 150 0 100 300 150 150 0 000-300zm0 0"/></clipPath><clipPath id="b"><path d="M50 0h200v300H50zm0 0"/></clipPath><clipPath id="c"><path d="M150 0a150 150 0 100 300 150 150 0 000-300zm0 0"/></clipPath><clipPath id="d"><path d="M71 68h158v170H71zm0 0"/></clipPath><clipPath id="e"><path d="M150 0a150 150 0 100 300 150 150 0 000-300zm0 0"/></clipPath></defs><g clip-path="url(#a)"><path fill="red" d="M0 0h300v300H0z"/></g><g clip-path="url(#b)"><g clip-path="url(#c)"><path d="M50 300h200V0H50zm0 0" fill="#fff"/></g></g><g clip-path="url(#d)"><g clip-path="url(#e)"><path d="M150 68.8l-13.6 25.4c-1.6 2.8-4.4 2.5-7.1 1l-10-5.1 7.4 39c1.6 7.2-3.4 7.2-5.8 4.1l-17.3-19.3-2.8 9.8c-.3 1.3-1.7 2.6-3.8 2.3l-21.8-4.6 5.7 20.8c1.2 4.7 2.2 6.6-1.3 7.8l-7.7 3.7 37.5 30.5a4.9 4.9 0 011.7 5l-3.3 10.8c13-1.5 24.5-3.7 37.5-5 1-.2 3 1.7 3 3l-1.7 39.5h6.3l-1-39.4c0-1.3 1.7-3.3 2.8-3.2 13 1.4 24.6 3.6 37.5 5.1l-3.3-10.7c-.5-2 .2-4 1.7-5.1l37.5-30.5-7.7-3.7c-3.5-1.2-2.5-3.1-1.3-7.8l5.7-20.8L203 126c-2 .3-3.5-1-3.8-2.3l-2.8-9.8-17.3 19.3c-2.4 3-7.4 3-5.8-4l7.3-39.1-9.9 5c-2.7 1.6-5.5 1.9-7-.9" fill="red"/></g></g></svg>