<svg xmlns="http://www.w3.org/2000/svg" width="400" height="400" viewBox="0 0 300 300"><defs><clipPath id="a"><path d="M150 0a150 150 0 100 300 150 150 0 000-300zm0 0"/></clipPath><clipPath id="b"><path d="M0 150h300v75H0zm0 0"/></clipPath><clipPath id="c"><path d="M150 0a150 150 0 100 300 150 150 0 000-300zm0 0"/></clipPath><clipPath id="d"><path d="M0 175h300v25H0zm0 0"/></clipPath><clipPath id="e"><path d="M150 0a150 150 0 100 300 150 150 0 000-300zm0 0"/></clipPath><clipPath id="f"><path d="M71 97h30v28H71zm0 0"/></clipPath><clipPath id="g"><path d="M150 0a150 150 0 100 300 150 150 0 000-300zm0 0"/></clipPath><clipPath id="h"><path d="M27 112h30v28H27zm0 0"/></clipPath><clipPath id="i"><path d="M150 0a150 150 0 100 300 150 150 0 000-300zm0 0"/></clipPath><clipPath id="j"><path d="M115 111h30v28h-30zm0 0"/></clipPath><clipPath id="k"><path d="M150 0a150 150 0 100 300 150 150 0 000-300zm0 0"/></clipPath><clipPath id="l"><path d="M142 149h30v28h-30zm0 0"/></clipPath><clipPath id="m"><path d="M150 0a150 150 0 100 300 150 150 0 000-300zm0 0"/></clipPath><clipPath id="n"><path d="M142 195h30v28h-30zm0 0"/></clipPath><clipPath id="o"><path d="M150 0a150 150 0 100 300 150 150 0 000-300zm0 0"/></clipPath><clipPath id="p"><path d="M115 233h30v28h-30zm0 0"/></clipPath><clipPath id="q"><path d="M150 0a150 150 0 100 300 150 150 0 000-300zm0 0"/></clipPath><clipPath id="r"><path d="M72 247h29v28H72zm0 0"/></clipPath><clipPath id="s"><path d="M150 0a150 150 0 100 300 150 150 0 000-300zm0 0"/></clipPath><clipPath id="t"><path d="M27 232h29v29H27zm0 0"/></clipPath><clipPath id="u"><path d="M150 0a150 150 0 100 300 150 150 0 000-300zm0 0"/></clipPath><clipPath id="v"><path d="M0 195h30v28H0zm0 0"/></clipPath><clipPath id="w"><path d="M150 0a150 150 0 100 300 150 150 0 000-300zm0 0"/></clipPath><clipPath id="x"><path d="M1 149h29v28H1zm0 0"/></clipPath><clipPath id="y"><path d="M150 0a150 150 0 100 300 150 150 0 000-300zm0 0"/></clipPath></defs><g clip-path="url(#a)"><path fill="#003892" d="M0 0h300v300H0z"/></g><g clip-path="url(#b)"><g clip-path="url(#c)"><path d="M-105 225h510v-75h-510zm0 0" fill="#fff"/></g></g><g clip-path="url(#d)"><g clip-path="url(#e)"><path d="M-105 200h510v-25h-510zm0 0" fill="#ce1125"/></g></g><g clip-path="url(#f)"><g clip-path="url(#g)"><path d="M72 107.9l8.8 6.4-3.4 10.3 8.8-6.4 8.9 6.4-3.4-10.3 8.8-6.4H89.6l-3.3-10.4-3.4 10.4" fill="#fc0"/></g></g><g clip-path="url(#h)"><g clip-path="url(#i)"><path d="M28 122.4l8.8 6.4-3.4 10.4 8.8-6.4 8.9 6.4-3.4-10.4 8.8-6.4H45.6l-3.4-10.3-3.3 10.3" fill="#fc0"/></g></g><g clip-path="url(#j)"><g clip-path="url(#k)"><path d="M115.7 122l8.8 6.4-3.4 10.4 8.8-6.5 8.9 6.5-3.4-10.4 8.8-6.4h-10.9l-3.4-10.4-3.3 10.4" fill="#fc0"/></g></g><g clip-path="url(#l)"><g clip-path="url(#m)"><path d="M143 159.9l8.8 6.4-3.4 10.3 8.9-6.4 8.8 6.4-3.4-10.3 8.8-6.4h-10.9l-3.3-10.4-3.4 10.4" fill="#fc0"/></g></g><g clip-path="url(#n)"><g clip-path="url(#o)"><path d="M143 205.9l8.8 6.4-3.4 10.3 8.9-6.4 8.8 6.4-3.4-10.3 8.8-6.4h-10.9l-3.3-10.4-3.4 10.4" fill="#fc0"/></g></g><g clip-path="url(#p)"><g clip-path="url(#q)"><path d="M116 243.9l8.8 6.4-3.4 10.3 8.8-6.4 8.9 6.4-3.4-10.3 8.8-6.4h-10.9l-3.3-10.4-3.4 10.4" fill="#fc0"/></g></g><g clip-path="url(#r)"><g clip-path="url(#s)"><path d="M72 257.9l8.8 6.4-3.3 10.3 8.8-6.4 8.8 6.4-3.4-10.3 8.8-6.4H89.6l-3.3-10.4-3.4 10.4" fill="#fc0"/></g></g><g clip-path="url(#t)"><g clip-path="url(#u)"><path d="M27.3 243.3l8.8 6.4-3.3 10.4 8.8-6.4 8.8 6.4-3.4-10.4 8.8-6.4H45l-3.3-10.4-3.4 10.4" fill="#fc0"/></g></g><g clip-path="url(#v)"><g clip-path="url(#w)"><path d="M.9 205.6l8.8 6.4-3.4 10.4 8.8-6.4 8.9 6.4-3.4-10.4 8.8-6.4H18.5l-3.4-10.3-3.3 10.3" fill="#fc0"/></g></g><g clip-path="url(#x)"><g clip-path="url(#y)"><path d="M1 159.4l8.8 6.4-3.4 10.4 8.9-6.4 8.8 6.4-3.4-10.4 8.8-6.4H18.6l-3.3-10.3-3.4 10.3" fill="#fc0"/></g></g></svg>