<svg xmlns="http://www.w3.org/2000/svg" width="400" height="400" viewBox="0 0 300 300"><defs><clipPath id="a"><path d="M0 0h300v75H0zm0 0"/></clipPath><clipPath id="b"><path d="M150 0a150 150 0 100 300 150 150 0 000-300zm0 0"/></clipPath><clipPath id="c"><path d="M0 75h300v75H0zm0 0"/></clipPath><clipPath id="d"><path d="M150 0a150 150 0 100 300 150 150 0 000-300zm0 0"/></clipPath><clipPath id="e"><path d="M0 150h300v75H0zm0 0"/></clipPath><clipPath id="f"><path d="M150 0a150 150 0 100 300 150 150 0 000-300zm0 0"/></clipPath><clipPath id="g"><path d="M0 225h300v75H0zm0 0"/></clipPath><clipPath id="h"><path d="M150 0a150 150 0 100 300 150 150 0 000-300zm0 0"/></clipPath><clipPath id="i"><path d="M162 0h76v300h-76zm0 0"/></clipPath><clipPath id="j"><path d="M150 0a150 150 0 100 300 150 150 0 000-300zm0 0"/></clipPath><clipPath id="k"><path d="M17 6h66v63H17zm0 0"/></clipPath><clipPath id="l"><path d="M150 0a150 150 0 100 300 150 150 0 000-300zm0 0"/></clipPath></defs><g clip-path="url(#a)"><g clip-path="url(#b)"><path d="M-25 75h450V0H-25zm0 0" fill="#002f82"/></g></g><g clip-path="url(#c)"><g clip-path="url(#d)"><path d="M-25 150h450V75H-25zm0 0" fill="#fff"/></g></g><g clip-path="url(#e)"><g clip-path="url(#f)"><path d="M-25 225h450v-75H-25zm0 0" fill="#289628"/></g></g><g clip-path="url(#g)"><g clip-path="url(#h)"><path d="M-25 300h450v-75H-25zm0 0" fill="#ffce00"/></g></g><g clip-path="url(#i)"><g clip-path="url(#j)"><path d="M162.5 300h75V0h-75zm0 0" fill="#d21034"/></g></g><g clip-path="url(#k)"><g clip-path="url(#l)"><path d="M50 7l7.6 23.3H82L62.3 44.7 69.8 68 50 53.6 30.2 68l7.5-23.3L18 30.3h24.5" fill="#ffce00"/></g></g></svg>