<svg xmlns="http://www.w3.org/2000/svg" width="400" height="400"><defs><clipPath clipPathUnits="userSpaceOnUse" id="a"><path d="M150 300C67.157 300 0 232.843 0 150S67.157 0 150 0s150 67.157 150 150-67.157 150-150 150z"/></clipPath></defs><g clip-path="url(#a)" transform="matrix(1.33333 0 0 -1.33333 0 400)"><path d="M0 300h450V0H0z" fill="#de2910"/><path d="M75 270l26.45-81.406-69.248 50.312h85.595L48.55 188.594zM137.137 262.283l18.732 21.52-2.505-28.42-14.679 24.465 26.256-11.165zM165.15 237.879l25.617 12.566-13.338-25.223-4.035 28.245 19.866-20.48zM165.577 199.12l28.513 1.024-22.466-17.587 7.838 27.434 9.784-26.802zM138.287 174.37l26.697-10.066-27.515-7.548 17.823 22.28-1.324-28.502z" fill="#ffde00"/></g></svg>