<svg xmlns="http://www.w3.org/2000/svg" width="400" height="400" viewBox="0 0 300 300"><defs><clipPath id="a"><path d="M0 0h300v150H0zm0 0"/></clipPath><clipPath id="b"><path d="M150 0a150 150 0 100 300 150 150 0 000-300zm0 0"/></clipPath><clipPath id="c"><path d="M0 150h300v75H0zm0 0"/></clipPath><clipPath id="d"><path d="M150 0a150 150 0 100 300 150 150 0 000-300zm0 0"/></clipPath><clipPath id="e"><path d="M0 225h300v75H0zm0 0"/></clipPath><clipPath id="f"><path d="M150 0a150 150 0 100 300 150 150 0 000-300zm0 0"/></clipPath></defs><g clip-path="url(#a)"><g clip-path="url(#b)"><path d="M-75 150h450V0H-75zm0 0" fill="#fbd115"/></g></g><g clip-path="url(#c)"><g clip-path="url(#d)"><path d="M-75 225h450v-75H-75zm0 0" fill="#003892"/></g></g><g clip-path="url(#e)"><g clip-path="url(#f)"><path d="M-75 300h450v-75H-75zm0 0" fill="#ce1125"/></g></g></svg>