<svg xmlns="http://www.w3.org/2000/svg" width="400" height="400" viewBox="0 0 300 300"><defs><clipPath id="a"><path d="M150 0a150 150 0 100 300 150 150 0 000-300zm0 0"/></clipPath><clipPath id="b"><path d="M0 75h300v225H0zm0 0"/></clipPath><clipPath id="c"><path d="M150 0a150 150 0 100 300 150 150 0 000-300zm0 0"/></clipPath><clipPath id="d"><path d="M0 150h300v150H0zm0 0"/></clipPath><clipPath id="e"><path d="M150 0a150 150 0 100 300 150 150 0 000-300zm0 0"/></clipPath><clipPath id="f"><path d="M0 225h300v75H0zm0 0"/></clipPath><clipPath id="g"><path d="M150 0a150 150 0 100 300 150 150 0 000-300zm0 0"/></clipPath><clipPath id="h"><path d="M0 0h250v300H0zm0 0"/></clipPath><clipPath id="i"><path d="M150 0a150 150 0 100 300 150 150 0 000-300zm0 0"/></clipPath><clipPath id="j"><path d="M17 82h136v136H17zm0 0"/></clipPath><clipPath id="k"><path d="M150 0a150 150 0 100 300 150 150 0 000-300zm0 0"/></clipPath><clipPath id="l"><path d="M47 82h136v136H47zm0 0"/></clipPath><clipPath id="m"><path d="M150 0a150 150 0 100 300 150 150 0 000-300zm0 0"/></clipPath><clipPath id="n"><path d="M88 89h24v23H88zm0 0"/></clipPath><clipPath id="o"><path d="M150 0a150 150 0 100 300 150 150 0 000-300zm0 0"/></clipPath><clipPath id="p"><path d="M88 121h24v24H88zm0 0"/></clipPath><clipPath id="q"><path d="M150 0a150 150 0 100 300 150 150 0 000-300zm0 0"/></clipPath><clipPath id="r"><path d="M88 153h24v24H88zm0 0"/></clipPath><clipPath id="s"><path d="M150 0a150 150 0 100 300 150 150 0 000-300zm0 0"/></clipPath><clipPath id="t"><path d="M88 185h24v24H88zm0 0"/></clipPath><clipPath id="u"><path d="M150 0a150 150 0 100 300 150 150 0 000-300zm0 0"/></clipPath></defs><g clip-path="url(#a)"><path fill="#ffc51e" d="M0 0h300v300H0z"/></g><g clip-path="url(#b)"><g clip-path="url(#c)"><path d="M0 300h500V75H0zm0 0" fill="#fff"/></g></g><g clip-path="url(#d)"><g clip-path="url(#e)"><path d="M0 300h500V150H0zm0 0" fill="#ce1125"/></g></g><g clip-path="url(#f)"><g clip-path="url(#g)"><path d="M0 300h500v-75H0zm0 0" fill="#3975c4"/></g></g><g clip-path="url(#h)"><g clip-path="url(#i)"><path d="M0 300l250-150L0 0" fill="#3c8e33"/></g></g><g clip-path="url(#j)"><g clip-path="url(#k)"><path d="M85 82.5a67.5 67.5 0 110 135 67.5 67.5 0 010-135" fill="#fff"/></g></g><g clip-path="url(#l)"><g clip-path="url(#m)"><path d="M115 82.5a67.5 67.5 0 110 135 67.5 67.5 0 010-135" fill="#3c8e33"/></g></g><g clip-path="url(#n)"><g clip-path="url(#o)"><path d="M88.1 97.8h9.1l2.8-8.6 2.8 8.6h9l-7.3 5.4 2.8 8.6-7.3-5.3-7.3 5.3 2.8-8.6" fill="#fff"/></g></g><g clip-path="url(#p)"><g clip-path="url(#q)"><path d="M88.1 130h9.1l2.8-8.6 2.8 8.6h9l-7.3 5.4 2.8 8.6-7.3-5.3-7.3 5.3 2.8-8.6" fill="#fff"/></g></g><g clip-path="url(#r)"><g clip-path="url(#s)"><path d="M88.1 162.2h9.1l2.8-8.6 2.8 8.6h9l-7.3 5.4 2.8 8.6-7.3-5.3-7.3 5.3 2.8-8.6" fill="#fff"/></g></g><g clip-path="url(#t)"><g clip-path="url(#u)"><path d="M88.1 194.4h9.1l2.8-8.6 2.8 8.6h9l-7.3 5.4 2.8 8.6-7.3-5.3-7.3 5.3 2.8-8.6" fill="#fff"/></g></g></svg>