<svg xmlns="http://www.w3.org/2000/svg" width="400" height="400" viewBox="0 0 300 300"><defs><clipPath id="a"><path d="M0 0h300v100H0zm0 0"/></clipPath><clipPath id="b"><path d="M150 0a150 150 0 100 300 150 150 0 000-300zm0 0"/></clipPath><clipPath id="c"><path d="M0 100h300v100H0zm0 0"/></clipPath><clipPath id="d"><path d="M150 0a150 150 0 100 300 150 150 0 000-300zm0 0"/></clipPath><clipPath id="e"><path d="M0 200h300v100H0zm0 0"/></clipPath><clipPath id="f"><path d="M150 0a150 150 0 100 300 150 150 0 000-300zm0 0"/></clipPath><clipPath id="g"><path d="M91 99h118v129H91zm0 0"/></clipPath><clipPath id="h"><path d="M150 0a150 150 0 100 300 150 150 0 000-300zm0 0"/></clipPath><clipPath id="i"><path d="M92 101h116v126H92zm0 0"/></clipPath><clipPath id="j"><path d="M150 0a150 150 0 100 300 150 150 0 000-300zm0 0"/></clipPath><clipPath id="k"><path d="M79 40h142v60H79zm0 0"/></clipPath><clipPath id="l"><path d="M150 0a150 150 0 100 300 150 150 0 000-300zm0 0"/></clipPath><clipPath id="m"><path d="M80 41h140v59H80zm0 0"/></clipPath><clipPath id="n"><path d="M150 0a150 150 0 100 300 150 150 0 000-300zm0 0"/></clipPath><clipPath id="o"><path d="M184 52h35v46h-35zm0 0"/></clipPath><clipPath id="p"><path d="M150 0a150 150 0 100 300 150 150 0 000-300zm0 0"/></clipPath><clipPath id="q"><path d="M186 72h27v17h-27zm0 0"/></clipPath><clipPath id="r"><path d="M150 0a150 150 0 100 300 150 150 0 000-300zm0 0"/></clipPath><clipPath id="s"><path d="M108 45h31v46h-31zm0 0"/></clipPath><clipPath id="t"><path d="M150 0a150 150 0 100 300 150 150 0 000-300zm0 0"/></clipPath><clipPath id="u"><path d="M161 45h31v46h-31zm0 0"/></clipPath><clipPath id="v"><path d="M150 0a150 150 0 100 300 150 150 0 000-300zm0 0"/></clipPath><clipPath id="w"><path d="M81 52h36v46H81zm0 0"/></clipPath><clipPath id="x"><path d="M150 0a150 150 0 100 300 150 150 0 000-300zm0 0"/></clipPath><clipPath id="y"><path d="M94 103h111v122H94zm0 0"/></clipPath><clipPath id="z"><path d="M150 0a150 150 0 100 300 150 150 0 000-300zm0 0"/></clipPath><clipPath id="A"><path d="M94 103h23v25H94zm0 0"/></clipPath><clipPath id="B"><path d="M150 0a150 150 0 100 300 150 150 0 000-300zm0 0"/></clipPath><clipPath id="C"><path d="M116 127h23v25h-23zm0 0"/></clipPath><clipPath id="D"><path d="M150 0a150 150 0 100 300 150 150 0 000-300zm0 0"/></clipPath><clipPath id="E"><path d="M94 151h23v25H94zm0 0"/></clipPath><clipPath id="F"><path d="M150 0a150 150 0 100 300 150 150 0 000-300zm0 0"/></clipPath><clipPath id="G"><path d="M138 151h23v25h-23zm0 0"/></clipPath><clipPath id="H"><path d="M150 0a150 150 0 100 300 150 150 0 000-300zm0 0"/></clipPath><clipPath id="I"><path d="M160 175h24v25h-24zm0 0"/></clipPath><clipPath id="J"><path d="M150 0a150 150 0 100 300 150 150 0 000-300zm0 0"/></clipPath><clipPath id="K"><path d="M183 200h13v14h-13zm0 0"/></clipPath><clipPath id="L"><path d="M150 0a150 150 0 100 300 150 150 0 000-300zm0 0"/></clipPath><clipPath id="M"><path d="M116 175h23v25h-23zm0 0"/></clipPath><clipPath id="N"><path d="M150 0a150 150 0 100 300 150 150 0 000-300zm0 0"/></clipPath><clipPath id="O"><path d="M104 200h13v14h-13zm0 0"/></clipPath><clipPath id="P"><path d="M150 0a150 150 0 100 300 150 150 0 000-300zm0 0"/></clipPath><clipPath id="Q"><path d="M138 200h23v25h-23zm0 0"/></clipPath><clipPath id="R"><path d="M150 0a150 150 0 100 300 150 150 0 000-300zm0 0"/></clipPath><clipPath id="S"><path d="M183 151h22v25h-22zm0 0"/></clipPath><clipPath id="T"><path d="M150 0a150 150 0 100 300 150 150 0 000-300zm0 0"/></clipPath><clipPath id="U"><path d="M160 127h24v25h-24zm0 0"/></clipPath><clipPath id="V"><path d="M150 0a150 150 0 100 300 150 150 0 000-300zm0 0"/></clipPath><clipPath id="W"><path d="M138 103h23v25h-23zm0 0"/></clipPath><clipPath id="X"><path d="M150 0a150 150 0 100 300 150 150 0 000-300zm0 0"/></clipPath><clipPath id="Y"><path d="M183 103h22v25h-22zm0 0"/></clipPath><clipPath id="Z"><path d="M150 0a150 150 0 100 300 150 150 0 000-300zm0 0"/></clipPath><clipPath id="aa"><path d="M91 74h18v13H91zm0 0"/></clipPath><clipPath id="ab"><path d="M150 0a150 150 0 100 300 150 150 0 000-300zm0 0"/></clipPath><clipPath id="ac"><path d="M112 70h26v13h-26zm0 0"/></clipPath><clipPath id="ad"><path d="M150 0a150 150 0 100 300 150 150 0 000-300zm0 0"/></clipPath><clipPath id="ae"><path d="M108 54h29v14h-29zm0 0"/></clipPath><clipPath id="af"><path d="M150 0a150 150 0 100 300 150 150 0 000-300zm0 0"/></clipPath><clipPath id="ag"><path d="M186 70h28v21h-28zm0 0"/></clipPath><clipPath id="ah"><path d="M150 0a150 150 0 100 300 150 150 0 000-300zm0 0"/></clipPath><clipPath id="ai"><path d="M90 61h12v12H90zm0 0"/></clipPath><clipPath id="aj"><path d="M150 0a150 150 0 100 300 150 150 0 000-300zm0 0"/></clipPath><clipPath id="ak"><path d="M96 66h5v3h-5zm0 0"/></clipPath><clipPath id="al"><path d="M150 0a150 150 0 100 300 150 150 0 000-300zm0 0"/></clipPath><clipPath id="am"><path d="M90 65h6v3h-6zm0 0"/></clipPath><clipPath id="an"><path d="M150 0a150 150 0 100 300 150 150 0 000-300zm0 0"/></clipPath><clipPath id="ao"><path d="M90 66h6v3h-6zm0 0"/></clipPath><clipPath id="ap"><path d="M150 0a150 150 0 100 300 150 150 0 000-300zm0 0"/></clipPath><clipPath id="aq"><path d="M96 67h5v3h-5zm0 0"/></clipPath><clipPath id="ar"><path d="M150 0a150 150 0 100 300 150 150 0 000-300zm0 0"/></clipPath><clipPath id="as"><path d="M95 63h5v4h-5zm0 0"/></clipPath><clipPath id="at"><path d="M150 0a150 150 0 100 300 150 150 0 000-300zm0 0"/></clipPath><clipPath id="au"><path d="M92 67h4v4h-4zm0 0"/></clipPath><clipPath id="av"><path d="M150 0a150 150 0 100 300 150 150 0 000-300zm0 0"/></clipPath><clipPath id="aw"><path d="M92 67h4v5h-4zm0 0"/></clipPath><clipPath id="ax"><path d="M150 0a150 150 0 100 300 150 150 0 000-300zm0 0"/></clipPath><clipPath id="ay"><path d="M96 63h4v5h-4zm0 0"/></clipPath><clipPath id="az"><path d="M150 0a150 150 0 100 300 150 150 0 000-300zm0 0"/></clipPath><clipPath id="aA"><path d="M93 62h3v6h-3zm0 0"/></clipPath><clipPath id="aB"><path d="M150 0a150 150 0 100 300 150 150 0 000-300zm0 0"/></clipPath><clipPath id="aC"><path d="M95 67h3v6h-3zm0 0"/></clipPath><clipPath id="aD"><path d="M150 0a150 150 0 100 300 150 150 0 000-300zm0 0"/></clipPath><clipPath id="aE"><path d="M95 67h4v5h-4zm0 0"/></clipPath><clipPath id="aF"><path d="M150 0a150 150 0 100 300 150 150 0 000-300zm0 0"/></clipPath><clipPath id="aG"><path d="M94 62h3v5h-3zm0 0"/></clipPath><clipPath id="aH"><path d="M150 0a150 150 0 100 300 150 150 0 000-300zm0 0"/></clipPath><clipPath id="aI"><path d="M199 58h12v11h-12zm0 0"/></clipPath><clipPath id="aJ"><path d="M150 0a150 150 0 100 300 150 150 0 000-300zm0 0"/></clipPath><clipPath id="aK"><path d="M200 62h6v3h-6zm0 0"/></clipPath><clipPath id="aL"><path d="M150 0a150 150 0 100 300 150 150 0 000-300zm0 0"/></clipPath><clipPath id="aM"><path d="M205 61h6v3h-6zm0 0"/></clipPath><clipPath id="aN"><path d="M150 0a150 150 0 100 300 150 150 0 000-300zm0 0"/></clipPath><clipPath id="aO"><path d="M205 62h6v3h-6zm0 0"/></clipPath><clipPath id="aP"><path d="M150 0a150 150 0 100 300 150 150 0 000-300zm0 0"/></clipPath><clipPath id="aQ"><path d="M200 63h6v3h-6zm0 0"/></clipPath><clipPath id="aR"><path d="M150 0a150 150 0 100 300 150 150 0 000-300zm0 0"/></clipPath><clipPath id="aS"><path d="M202 59h4v5h-4zm0 0"/></clipPath><clipPath id="aT"><path d="M150 0a150 150 0 100 300 150 150 0 000-300zm0 0"/></clipPath><clipPath id="aU"><path d="M205 63h4v5h-4zm0 0"/></clipPath><clipPath id="aV"><path d="M150 0a150 150 0 100 300 150 150 0 000-300zm0 0"/></clipPath><clipPath id="aW"><path d="M202 59h4v5h-4zm0 0"/></clipPath><clipPath id="aX"><path d="M150 0a150 150 0 100 300 150 150 0 000-300zm0 0"/></clipPath><clipPath id="aY"><path d="M205 58h3v6h-3zm0 0"/></clipPath><clipPath id="aZ"><path d="M150 0a150 150 0 100 300 150 150 0 000-300zm0 0"/></clipPath><clipPath id="ba"><path d="M203 63h3v6h-3zm0 0"/></clipPath><clipPath id="bb"><path d="M150 0a150 150 0 100 300 150 150 0 000-300zm0 0"/></clipPath><clipPath id="bc"><path d="M204 58h4v6h-4zm0 0"/></clipPath><clipPath id="bd"><path d="M150 0a150 150 0 100 300 150 150 0 000-300zm0 0"/></clipPath><clipPath id="be"><path d="M135 43h30v44h-30zm0 0"/></clipPath><clipPath id="bf"><path d="M150 0a150 150 0 100 300 150 150 0 000-300zm0 0"/></clipPath><clipPath id="bg"><path d="M144 68h12v14h-12zm0 0"/></clipPath><clipPath id="bh"><path d="M150 0a150 150 0 100 300 150 150 0 000-300zm0 0"/></clipPath><clipPath id="bi"><path d="M153 71h1v1h-1zm0 0"/></clipPath><clipPath id="bj"><path d="M150 0a150 150 0 100 300 150 150 0 000-300zm0 0"/></clipPath><clipPath id="bk"><path d="M146 71h1v1h-1zm0 0"/></clipPath><clipPath id="bl"><path d="M150 0a150 150 0 100 300 150 150 0 000-300zm0 0"/></clipPath><clipPath id="bm"><path d="M152 72h2v1h-2zm0 0"/></clipPath><clipPath id="bn"><path d="M150 0a150 150 0 100 300 150 150 0 000-300zm0 0"/></clipPath><clipPath id="bo"><path d="M146 72h2v1h-2zm0 0"/></clipPath><clipPath id="bp"><path d="M150 0a150 150 0 100 300 150 150 0 000-300zm0 0"/></clipPath><clipPath id="bq"><path d="M146 71h8v2h-8zm0 0"/></clipPath><clipPath id="br"><path d="M150 0a150 150 0 100 300 150 150 0 000-300zm0 0"/></clipPath><clipPath id="bs"><path d="M145 69h10v3h-10zm0 0"/></clipPath><clipPath id="bt"><path d="M150 0a150 150 0 100 300 150 150 0 000-300zm0 0"/></clipPath><clipPath id="bu"><path d="M145 72h10v10h-10zm0 0"/></clipPath><clipPath id="bv"><path d="M150 0a150 150 0 100 300 150 150 0 000-300zm0 0"/></clipPath><clipPath id="bw"><path d="M146 72h8v2h-8zm0 0"/></clipPath><clipPath id="bx"><path d="M150 0a150 150 0 100 300 150 150 0 000-300zm0 0"/></clipPath><clipPath id="by"><path d="M146 71h8v2h-8zm0 0"/></clipPath><clipPath id="bz"><path d="M150 0a150 150 0 100 300 150 150 0 000-300zm0 0"/></clipPath><clipPath id="bA"><path d="M149 69h2v3h-2zm0 0"/></clipPath><clipPath id="bB"><path d="M150 0a150 150 0 100 300 150 150 0 000-300zm0 0"/></clipPath><clipPath id="bC"><path d="M148 77h4v3h-4zm0 0"/></clipPath><clipPath id="bD"><path d="M150 0a150 150 0 100 300 150 150 0 000-300zm0 0"/></clipPath><clipPath id="bE"><path d="M147 73h6v4h-6zm0 0"/></clipPath><clipPath id="bF"><path d="M150 0a150 150 0 100 300 150 150 0 000-300zm0 0"/></clipPath><clipPath id="bG"><path d="M148 74h4v2h-4zm0 0"/></clipPath><clipPath id="bH"><path d="M150 0a150 150 0 100 300 150 150 0 000-300zm0 0"/></clipPath><clipPath id="bI"><path d="M138 54h11v14h-11zm0 0"/></clipPath><clipPath id="bJ"><path d="M150 0a150 150 0 100 300 150 150 0 000-300zm0 0"/></clipPath><clipPath id="bK"><path d="M147 56h1v1h-1zm0 0"/></clipPath><clipPath id="bL"><path d="M150 0a150 150 0 100 300 150 150 0 000-300zm0 0"/></clipPath><clipPath id="bM"><path d="M139 56h2v2h-2zm0 0"/></clipPath><clipPath id="bN"><path d="M150 0a150 150 0 100 300 150 150 0 000-300zm0 0"/></clipPath><clipPath id="bO"><path d="M146 57h1v2h-1zm0 0"/></clipPath><clipPath id="bP"><path d="M150 0a150 150 0 100 300 150 150 0 000-300zm0 0"/></clipPath><clipPath id="bQ"><path d="M140 58h1v1h-1zm0 0"/></clipPath><clipPath id="bR"><path d="M150 0a150 150 0 100 300 150 150 0 000-300zm0 0"/></clipPath><clipPath id="bS"><path d="M140 57h8v1h-8zm0 0"/></clipPath><clipPath id="bT"><path d="M150 0a150 150 0 100 300 150 150 0 000-300zm0 0"/></clipPath><clipPath id="bU"><path d="M139 54h10v4h-10zm0 0"/></clipPath><clipPath id="bV"><path d="M150 0a150 150 0 100 300 150 150 0 000-300zm0 0"/></clipPath><clipPath id="bW"><path d="M138 58h11v9h-11zm0 0"/></clipPath><clipPath id="bX"><path d="M150 0a150 150 0 100 300 150 150 0 000-300zm0 0"/></clipPath><clipPath id="bY"><path d="M140 58h7v1h-7zm0 0"/></clipPath><clipPath id="bZ"><path d="M150 0a150 150 0 100 300 150 150 0 000-300zm0 0"/></clipPath><clipPath id="ca"><path d="M140 57h7v2h-7zm0 0"/></clipPath><clipPath id="cb"><path d="M150 0a150 150 0 100 300 150 150 0 000-300zm0 0"/></clipPath><clipPath id="cc"><path d="M143 55h2v2h-2zm0 0"/></clipPath><clipPath id="cd"><path d="M150 0a150 150 0 100 300 150 150 0 000-300zm0 0"/></clipPath><clipPath id="ce"><path d="M142 62h4v4h-4zm0 0"/></clipPath><clipPath id="cf"><path d="M150 0a150 150 0 100 300 150 150 0 000-300zm0 0"/></clipPath><clipPath id="cg"><path d="M141 59h6v4h-6zm0 0"/></clipPath><clipPath id="ch"><path d="M150 0a150 150 0 100 300 150 150 0 000-300zm0 0"/></clipPath><clipPath id="ci"><path d="M142 60h4v2h-4zm0 0"/></clipPath><clipPath id="cj"><path d="M150 0a150 150 0 100 300 150 150 0 000-300zm0 0"/></clipPath><clipPath id="ck"><path d="M151 54h11v14h-11zm0 0"/></clipPath><clipPath id="cl"><path d="M150 0a150 150 0 100 300 150 150 0 000-300zm0 0"/></clipPath><clipPath id="cm"><path d="M152 56h2v1h-2zm0 0"/></clipPath><clipPath id="cn"><path d="M150 0a150 150 0 100 300 150 150 0 000-300zm0 0"/></clipPath><clipPath id="co"><path d="M159 56h2v2h-2zm0 0"/></clipPath><clipPath id="cp"><path d="M150 0a150 150 0 100 300 150 150 0 000-300zm0 0"/></clipPath><clipPath id="cq"><path d="M153 57h1v2h-1zm0 0"/></clipPath><clipPath id="cr"><path d="M150 0a150 150 0 100 300 150 150 0 000-300zm0 0"/></clipPath><clipPath id="cs"><path d="M159 58h1v1h-1zm0 0"/></clipPath><clipPath id="ct"><path d="M150 0a150 150 0 100 300 150 150 0 000-300zm0 0"/></clipPath><clipPath id="cu"><path d="M152 57h8v1h-8zm0 0"/></clipPath><clipPath id="cv"><path d="M150 0a150 150 0 100 300 150 150 0 000-300zm0 0"/></clipPath><clipPath id="cw"><path d="M152 54h9v4h-9zm0 0"/></clipPath><clipPath id="cx"><path d="M150 0a150 150 0 100 300 150 150 0 000-300zm0 0"/></clipPath><clipPath id="cy"><path d="M151 58h11v9h-11zm0 0"/></clipPath><clipPath id="cz"><path d="M150 0a150 150 0 100 300 150 150 0 000-300zm0 0"/></clipPath><clipPath id="cA"><path d="M153 58h7v1h-7zm0 0"/></clipPath><clipPath id="cB"><path d="M150 0a150 150 0 100 300 150 150 0 000-300zm0 0"/></clipPath><clipPath id="cC"><path d="M153 57h7v2h-7zm0 0"/></clipPath><clipPath id="cD"><path d="M150 0a150 150 0 100 300 150 150 0 000-300zm0 0"/></clipPath><clipPath id="cE"><path d="M155 55h2v2h-2zm0 0"/></clipPath><clipPath id="cF"><path d="M150 0a150 150 0 100 300 150 150 0 000-300zm0 0"/></clipPath><clipPath id="cG"><path d="M154 62h4v4h-4zm0 0"/></clipPath><clipPath id="cH"><path d="M150 0a150 150 0 100 300 150 150 0 000-300zm0 0"/></clipPath><clipPath id="cI"><path d="M153 59h6v4h-6zm0 0"/></clipPath><clipPath id="cJ"><path d="M150 0a150 150 0 100 300 150 150 0 000-300zm0 0"/></clipPath><clipPath id="cK"><path d="M154 60h4v2h-4zm0 0"/></clipPath><clipPath id="cL"><path d="M150 0a150 150 0 100 300 150 150 0 000-300zm0 0"/></clipPath><clipPath id="cM"><path d="M166 60h20v22h-20zm0 0"/></clipPath><clipPath id="cN"><path d="M150 0a150 150 0 100 300 150 150 0 000-300zm0 0"/></clipPath><clipPath id="cO"><path d="M180 62h2v1h-2zm0 0"/></clipPath><clipPath id="cP"><path d="M150 0a150 150 0 100 300 150 150 0 000-300zm0 0"/></clipPath><clipPath id="cQ"><path d="M179 62h2v1h-2zm0 0"/></clipPath><clipPath id="cR"><path d="M150 0a150 150 0 100 300 150 150 0 000-300zm0 0"/></clipPath><clipPath id="cS"><path d="M173 60h7v3h-7zm0 0"/></clipPath><clipPath id="cT"><path d="M150 0a150 150 0 100 300 150 150 0 000-300zm0 0"/></clipPath><clipPath id="cU"><path d="M171 60h3v2h-3zm0 0"/></clipPath><clipPath id="cV"><path d="M150 0a150 150 0 100 300 150 150 0 000-300zm0 0"/></clipPath><clipPath id="cW"><path d="M172 74h6v7h-6zm0 0"/></clipPath><clipPath id="cX"><path d="M150 0a150 150 0 100 300 150 150 0 000-300zm0 0"/></clipPath><clipPath id="cY"><path d="M173 61h5v3h-5zm0 0"/></clipPath><clipPath id="cZ"><path d="M150 0a150 150 0 100 300 150 150 0 000-300zm0 0"/></clipPath><clipPath id="da"><path d="M176 62h3v2h-3zm0 0"/></clipPath><clipPath id="db"><path d="M150 0a150 150 0 100 300 150 150 0 000-300zm0 0"/></clipPath><clipPath id="dc"><path d="M177 63h3v2h-3zm0 0"/></clipPath><clipPath id="dd"><path d="M150 0a150 150 0 100 300 150 150 0 000-300zm0 0"/></clipPath><clipPath id="de"><path d="M178 64h3v2h-3zm0 0"/></clipPath><clipPath id="df"><path d="M150 0a150 150 0 100 300 150 150 0 000-300zm0 0"/></clipPath><clipPath id="dg"><path d="M180 64h4v2h-4zm0 0"/></clipPath><clipPath id="dh"><path d="M150 0a150 150 0 100 300 150 150 0 000-300zm0 0"/></clipPath><clipPath id="di"><path d="M166 60h20v22h-20zm0 0"/></clipPath><clipPath id="dj"><path d="M150 0a150 150 0 100 300 150 150 0 000-300zm0 0"/></clipPath><clipPath id="dk"><path d="M177 75h2v2h-2zm0 0"/></clipPath><clipPath id="dl"><path d="M150 0a150 150 0 100 300 150 150 0 000-300zm0 0"/></clipPath><clipPath id="dm"><path d="M178 78h2v2h-2zm0 0"/></clipPath><clipPath id="dn"><path d="M150 0a150 150 0 100 300 150 150 0 000-300zm0 0"/></clipPath><clipPath id="do"><path d="M179 77h2v1h-2zm0 0"/></clipPath><clipPath id="dp"><path d="M150 0a150 150 0 100 300 150 150 0 000-300zm0 0"/></clipPath><clipPath id="dq"><path d="M179 77h1v2h-1zm0 0"/></clipPath><clipPath id="dr"><path d="M150 0a150 150 0 100 300 150 150 0 000-300zm0 0"/></clipPath><clipPath id="ds"><path d="M180 76h1v1h-1zm0 0"/></clipPath><clipPath id="dt"><path d="M150 0a150 150 0 100 300 150 150 0 000-300zm0 0"/></clipPath><clipPath id="du"><path d="M180 76h2v2h-2zm0 0"/></clipPath><clipPath id="dv"><path d="M150 0a150 150 0 100 300 150 150 0 000-300zm0 0"/></clipPath><clipPath id="dw"><path d="M180 72h2v3h-2zm0 0"/></clipPath><clipPath id="dx"><path d="M150 0a150 150 0 100 300 150 150 0 000-300zm0 0"/></clipPath><clipPath id="dy"><path d="M180 73h1v1h-1zm0 0"/></clipPath><clipPath id="dz"><path d="M150 0a150 150 0 100 300 150 150 0 000-300zm0 0"/></clipPath><clipPath id="dA"><path d="M180 74h1v2h-1zm0 0"/></clipPath><clipPath id="dB"><path d="M150 0a150 150 0 100 300 150 150 0 000-300zm0 0"/></clipPath><clipPath id="dC"><path d="M181 74h1v3h-1zm0 0"/></clipPath><clipPath id="dD"><path d="M150 0a150 150 0 100 300 150 150 0 000-300zm0 0"/></clipPath><clipPath id="dE"><path d="M181 73h1v2h-1zm0 0"/></clipPath><clipPath id="dF"><path d="M150 0a150 150 0 100 300 150 150 0 000-300zm0 0"/></clipPath><clipPath id="dG"><path d="M181 72h1v1h-1zm0 0"/></clipPath><clipPath id="dH"><path d="M150 0a150 150 0 100 300 150 150 0 000-300zm0 0"/></clipPath><clipPath id="dI"><path d="M181 70h1v2h-1zm0 0"/></clipPath><clipPath id="dJ"><path d="M150 0a150 150 0 100 300 150 150 0 000-300zm0 0"/></clipPath><clipPath id="dK"><path d="M179 70h3v4h-3zm0 0"/></clipPath><clipPath id="dL"><path d="M150 0a150 150 0 100 300 150 150 0 000-300zm0 0"/></clipPath><clipPath id="dM"><path d="M183 69h1v1h-1zm0 0"/></clipPath><clipPath id="dN"><path d="M150 0a150 150 0 100 300 150 150 0 000-300zm0 0"/></clipPath><clipPath id="dO"><path d="M182 69h2v2h-2zm0 0"/></clipPath><clipPath id="dP"><path d="M150 0a150 150 0 100 300 150 150 0 000-300zm0 0"/></clipPath><clipPath id="dQ"><path d="M181 70h1v1h-1zm0 0"/></clipPath><clipPath id="dR"><path d="M150 0a150 150 0 100 300 150 150 0 000-300zm0 0"/></clipPath><clipPath id="dS"><path d="M177 70h1v1h-1zm0 0"/></clipPath><clipPath id="dT"><path d="M150 0a150 150 0 100 300 150 150 0 000-300zm0 0"/></clipPath><clipPath id="dU"><path d="M178 70h1v1h-1zm0 0"/></clipPath><clipPath id="dV"><path d="M150 0a150 150 0 100 300 150 150 0 000-300zm0 0"/></clipPath><clipPath id="dW"><path d="M180 71h1v1h-1zm0 0"/></clipPath><clipPath id="dX"><path d="M150 0a150 150 0 100 300 150 150 0 000-300zm0 0"/></clipPath><clipPath id="dY"><path d="M180 69h1v2h-1zm0 0"/></clipPath><clipPath id="dZ"><path d="M150 0a150 150 0 100 300 150 150 0 000-300zm0 0"/></clipPath><clipPath id="ea"><path d="M177 70h1v2h-1zm0 0"/></clipPath><clipPath id="eb"><path d="M150 0a150 150 0 100 300 150 150 0 000-300zm0 0"/></clipPath><clipPath id="ec"><path d="M178 71h2v2h-2zm0 0"/></clipPath><clipPath id="ed"><path d="M150 0a150 150 0 100 300 150 150 0 000-300zm0 0"/></clipPath><clipPath id="ee"><path d="M177 71h2v2h-2zm0 0"/></clipPath><clipPath id="ef"><path d="M150 0a150 150 0 100 300 150 150 0 000-300zm0 0"/></clipPath><clipPath id="eg"><path d="M177 71h1v2h-1zm0 0"/></clipPath><clipPath id="eh"><path d="M150 0a150 150 0 100 300 150 150 0 000-300zm0 0"/></clipPath><clipPath id="ei"><path d="M176 71h2v3h-2zm0 0"/></clipPath><clipPath id="ej"><path d="M150 0a150 150 0 100 300 150 150 0 000-300zm0 0"/></clipPath><clipPath id="ek"><path d="M177 73h2v2h-2zm0 0"/></clipPath><clipPath id="el"><path d="M150 0a150 150 0 100 300 150 150 0 000-300zm0 0"/></clipPath><clipPath id="em"><path d="M178 73h1v1h-1zm0 0"/></clipPath><clipPath id="en"><path d="M150 0a150 150 0 100 300 150 150 0 000-300zm0 0"/></clipPath><clipPath id="eo"><path d="M179 73h1v2h-1zm0 0"/></clipPath><clipPath id="ep"><path d="M150 0a150 150 0 100 300 150 150 0 000-300zm0 0"/></clipPath><clipPath id="eq"><path d="M179 75h1v2h-1zm0 0"/></clipPath><clipPath id="er"><path d="M150 0a150 150 0 100 300 150 150 0 000-300zm0 0"/></clipPath><clipPath id="es"><path d="M179 75h1v1h-1zm0 0"/></clipPath><clipPath id="et"><path d="M150 0a150 150 0 100 300 150 150 0 000-300zm0 0"/></clipPath><clipPath id="eu"><path d="M178 75h1v1h-1zm0 0"/></clipPath><clipPath id="ev"><path d="M150 0a150 150 0 100 300 150 150 0 000-300zm0 0"/></clipPath><clipPath id="ew"><path d="M178 74h1v2h-1zm0 0"/></clipPath><clipPath id="ex"><path d="M150 0a150 150 0 100 300 150 150 0 000-300zm0 0"/></clipPath><clipPath id="ey"><path d="M176 75h2v2h-2zm0 0"/></clipPath><clipPath id="ez"><path d="M150 0a150 150 0 100 300 150 150 0 000-300zm0 0"/></clipPath><clipPath id="eA"><path d="M173 78h2v2h-2zm0 0"/></clipPath><clipPath id="eB"><path d="M150 0a150 150 0 100 300 150 150 0 000-300zm0 0"/></clipPath><clipPath id="eC"><path d="M174 78h1v1h-1zm0 0"/></clipPath><clipPath id="eD"><path d="M150 0a150 150 0 100 300 150 150 0 000-300zm0 0"/></clipPath><clipPath id="eE"><path d="M175 78h1v1h-1zm0 0"/></clipPath><clipPath id="eF"><path d="M150 0a150 150 0 100 300 150 150 0 000-300zm0 0"/></clipPath><clipPath id="eG"><path d="M176 75h1v2h-1zm0 0"/></clipPath><clipPath id="eH"><path d="M150 0a150 150 0 100 300 150 150 0 000-300zm0 0"/></clipPath><clipPath id="eI"><path d="M176 69h1v1h-1zm0 0"/></clipPath><clipPath id="eJ"><path d="M150 0a150 150 0 100 300 150 150 0 000-300zm0 0"/></clipPath><clipPath id="eK"><path d="M176 68h1v2h-1zm0 0"/></clipPath><clipPath id="eL"><path d="M150 0a150 150 0 100 300 150 150 0 000-300zm0 0"/></clipPath><clipPath id="eM"><path d="M174 69h2v1h-2zm0 0"/></clipPath><clipPath id="eN"><path d="M150 0a150 150 0 100 300 150 150 0 000-300zm0 0"/></clipPath><clipPath id="eO"><path d="M176 71h1v1h-1zm0 0"/></clipPath><clipPath id="eP"><path d="M150 0a150 150 0 100 300 150 150 0 000-300zm0 0"/></clipPath><clipPath id="eQ"><path d="M174 69h3v3h-3zm0 0"/></clipPath><clipPath id="eR"><path d="M150 0a150 150 0 100 300 150 150 0 000-300zm0 0"/></clipPath><clipPath id="eS"><path d="M175 73h1v1h-1zm0 0"/></clipPath><clipPath id="eT"><path d="M150 0a150 150 0 100 300 150 150 0 000-300zm0 0"/></clipPath><clipPath id="eU"><path d="M174 73h1v2h-1zm0 0"/></clipPath><clipPath id="eV"><path d="M150 0a150 150 0 100 300 150 150 0 000-300zm0 0"/></clipPath><clipPath id="eW"><path d="M174 72h2v2h-2zm0 0"/></clipPath><clipPath id="eX"><path d="M150 0a150 150 0 100 300 150 150 0 000-300zm0 0"/></clipPath><clipPath id="eY"><path d="M174 71h2v3h-2zm0 0"/></clipPath><clipPath id="eZ"><path d="M150 0a150 150 0 100 300 150 150 0 000-300zm0 0"/></clipPath><clipPath id="fa"><path d="M173 72h1v2h-1zm0 0"/></clipPath><clipPath id="fb"><path d="M150 0a150 150 0 100 300 150 150 0 000-300zm0 0"/></clipPath><clipPath id="fc"><path d="M171 73h1v1h-1zm0 0"/></clipPath><clipPath id="fd"><path d="M150 0a150 150 0 100 300 150 150 0 000-300zm0 0"/></clipPath><clipPath id="fe"><path d="M171 73h1v3h-1zm0 0"/></clipPath><clipPath id="ff"><path d="M150 0a150 150 0 100 300 150 150 0 000-300zm0 0"/></clipPath><clipPath id="fg"><path d="M171 75h1v2h-1zm0 0"/></clipPath><clipPath id="fh"><path d="M150 0a150 150 0 100 300 150 150 0 000-300zm0 0"/></clipPath><clipPath id="fi"><path d="M171 76h1v1h-1zm0 0"/></clipPath><clipPath id="fj"><path d="M150 0a150 150 0 100 300 150 150 0 000-300zm0 0"/></clipPath><clipPath id="fk"><path d="M170 77h1v2h-1zm0 0"/></clipPath><clipPath id="fl"><path d="M150 0a150 150 0 100 300 150 150 0 000-300zm0 0"/></clipPath><clipPath id="fm"><path d="M169 74h1v1h-1zm0 0"/></clipPath><clipPath id="fn"><path d="M150 0a150 150 0 100 300 150 150 0 000-300zm0 0"/></clipPath><clipPath id="fo"><path d="M168 76h1v1h-1zm0 0"/></clipPath><clipPath id="fp"><path d="M150 0a150 150 0 100 300 150 150 0 000-300zm0 0"/></clipPath><clipPath id="fq"><path d="M171 71h2v3h-2zm0 0"/></clipPath><clipPath id="fr"><path d="M150 0a150 150 0 100 300 150 150 0 000-300zm0 0"/></clipPath><clipPath id="fs"><path d="M171 71h1v3h-1zm0 0"/></clipPath><clipPath id="ft"><path d="M150 0a150 150 0 100 300 150 150 0 000-300zm0 0"/></clipPath><clipPath id="fu"><path d="M169 73h2v1h-2zm0 0"/></clipPath><clipPath id="fv"><path d="M150 0a150 150 0 100 300 150 150 0 000-300zm0 0"/></clipPath><clipPath id="fw"><path d="M169 72h1v2h-1zm0 0"/></clipPath><clipPath id="fx"><path d="M150 0a150 150 0 100 300 150 150 0 000-300zm0 0"/></clipPath><clipPath id="fy"><path d="M173 67h1v2h-1zm0 0"/></clipPath><clipPath id="fz"><path d="M150 0a150 150 0 100 300 150 150 0 000-300zm0 0"/></clipPath><clipPath id="fA"><path d="M172 67h1v3h-1zm0 0"/></clipPath><clipPath id="fB"><path d="M150 0a150 150 0 100 300 150 150 0 000-300zm0 0"/></clipPath><clipPath id="fC"><path d="M169 67h2v4h-2zm0 0"/></clipPath><clipPath id="fD"><path d="M150 0a150 150 0 100 300 150 150 0 000-300zm0 0"/></clipPath><clipPath id="fE"><path d="M171 67h2v2h-2zm0 0"/></clipPath><clipPath id="fF"><path d="M150 0a150 150 0 100 300 150 150 0 000-300zm0 0"/></clipPath><clipPath id="fG"><path d="M169 67h2v2h-2zm0 0"/></clipPath><clipPath id="fH"><path d="M150 0a150 150 0 100 300 150 150 0 000-300zm0 0"/></clipPath><clipPath id="fI"><path d="M171 67h1v1h-1zm0 0"/></clipPath><clipPath id="fJ"><path d="M150 0a150 150 0 100 300 150 150 0 000-300zm0 0"/></clipPath><clipPath id="fK"><path d="M170 66h2v4h-2zm0 0"/></clipPath><clipPath id="fL"><path d="M150 0a150 150 0 100 300 150 150 0 000-300zm0 0"/></clipPath><clipPath id="fM"><path d="M170 66h2v2h-2zm0 0"/></clipPath><clipPath id="fN"><path d="M150 0a150 150 0 100 300 150 150 0 000-300zm0 0"/></clipPath><clipPath id="fO"><path d="M174 70h1v1h-1zm0 0"/></clipPath><clipPath id="fP"><path d="M150 0a150 150 0 100 300 150 150 0 000-300zm0 0"/></clipPath><clipPath id="fQ"><path d="M174 71h1v2h-1zm0 0"/></clipPath><clipPath id="fR"><path d="M150 0a150 150 0 100 300 150 150 0 000-300zm0 0"/></clipPath><clipPath id="fS"><path d="M173 70h2v3h-2zm0 0"/></clipPath><clipPath id="fT"><path d="M150 0a150 150 0 100 300 150 150 0 000-300zm0 0"/></clipPath><clipPath id="fU"><path d="M172 70h2v4h-2zm0 0"/></clipPath><clipPath id="fV"><path d="M150 0a150 150 0 100 300 150 150 0 000-300zm0 0"/></clipPath><clipPath id="fW"><path d="M171 71h2v1h-2zm0 0"/></clipPath><clipPath id="fX"><path d="M150 0a150 150 0 100 300 150 150 0 000-300zm0 0"/></clipPath><clipPath id="fY"><path d="M170 71h1v1h-1zm0 0"/></clipPath><clipPath id="fZ"><path d="M150 0a150 150 0 100 300 150 150 0 000-300zm0 0"/></clipPath><clipPath id="ga"><path d="M170 70h2v2h-2zm0 0"/></clipPath><clipPath id="gb"><path d="M150 0a150 150 0 100 300 150 150 0 000-300zm0 0"/></clipPath><clipPath id="gc"><path d="M169 69h2v4h-2zm0 0"/></clipPath><clipPath id="gd"><path d="M150 0a150 150 0 100 300 150 150 0 000-300zm0 0"/></clipPath><clipPath id="ge"><path d="M169 71h1v2h-1zm0 0"/></clipPath><clipPath id="gf"><path d="M150 0a150 150 0 100 300 150 150 0 000-300zm0 0"/></clipPath><clipPath id="gg"><path d="M172 69h1v2h-1zm0 0"/></clipPath><clipPath id="gh"><path d="M150 0a150 150 0 100 300 150 150 0 000-300zm0 0"/></clipPath><clipPath id="gi"><path d="M172 69h2v2h-2zm0 0"/></clipPath><clipPath id="gj"><path d="M150 0a150 150 0 100 300 150 150 0 000-300zm0 0"/></clipPath><clipPath id="gk"><path d="M173 68h2v3h-2zm0 0"/></clipPath><clipPath id="gl"><path d="M150 0a150 150 0 100 300 150 150 0 000-300zm0 0"/></clipPath><clipPath id="gm"><path d="M172 68h1v2h-1zm0 0"/></clipPath><clipPath id="gn"><path d="M150 0a150 150 0 100 300 150 150 0 000-300zm0 0"/></clipPath><clipPath id="go"><path d="M168 70h2v2h-2zm0 0"/></clipPath><clipPath id="gp"><path d="M150 0a150 150 0 100 300 150 150 0 000-300zm0 0"/></clipPath><clipPath id="gq"><path d="M169 69h1v1h-1zm0 0"/></clipPath><clipPath id="gr"><path d="M150 0a150 150 0 100 300 150 150 0 000-300zm0 0"/></clipPath><clipPath id="gs"><path d="M171 69h1v1h-1zm0 0"/></clipPath><clipPath id="gt"><path d="M150 0a150 150 0 100 300 150 150 0 000-300zm0 0"/></clipPath><clipPath id="gu"><path d="M171 68h2v3h-2zm0 0"/></clipPath><clipPath id="gv"><path d="M150 0a150 150 0 100 300 150 150 0 000-300zm0 0"/></clipPath><clipPath id="gw"><path d="M167 61h3v2h-3zm0 0"/></clipPath><clipPath id="gx"><path d="M150 0a150 150 0 100 300 150 150 0 000-300zm0 0"/></clipPath><clipPath id="gy"><path d="M169 62h2v2h-2zm0 0"/></clipPath><clipPath id="gz"><path d="M150 0a150 150 0 100 300 150 150 0 000-300zm0 0"/></clipPath><clipPath id="gA"><path d="M169 63h1v1h-1zm0 0"/></clipPath><clipPath id="gB"><path d="M150 0a150 150 0 100 300 150 150 0 000-300zm0 0"/></clipPath><clipPath id="gC"><path d="M170 63h2v2h-2zm0 0"/></clipPath><clipPath id="gD"><path d="M150 0a150 150 0 100 300 150 150 0 000-300zm0 0"/></clipPath><clipPath id="gE"><path d="M173 63h1v1h-1zm0 0"/></clipPath><clipPath id="gF"><path d="M150 0a150 150 0 100 300 150 150 0 000-300zm0 0"/></clipPath><clipPath id="gG"><path d="M171 62h2v2h-2zm0 0"/></clipPath><clipPath id="gH"><path d="M150 0a150 150 0 100 300 150 150 0 000-300zm0 0"/></clipPath><clipPath id="gI"><path d="M171 63h2v1h-2zm0 0"/></clipPath><clipPath id="gJ"><path d="M150 0a150 150 0 100 300 150 150 0 000-300zm0 0"/></clipPath><clipPath id="gK"><path d="M169 64h1v1h-1zm0 0"/></clipPath><clipPath id="gL"><path d="M150 0a150 150 0 100 300 150 150 0 000-300zm0 0"/></clipPath><clipPath id="gM"><path d="M170 64h1v1h-1zm0 0"/></clipPath><clipPath id="gN"><path d="M150 0a150 150 0 100 300 150 150 0 000-300zm0 0"/></clipPath><clipPath id="gO"><path d="M169 63h2v1h-2zm0 0"/></clipPath><clipPath id="gP"><path d="M150 0a150 150 0 100 300 150 150 0 000-300zm0 0"/></clipPath><clipPath id="gQ"><path d="M170 62h1v1h-1zm0 0"/></clipPath><clipPath id="gR"><path d="M150 0a150 150 0 100 300 150 150 0 000-300zm0 0"/></clipPath><clipPath id="gS"><path d="M169 62h1v1h-1zm0 0"/></clipPath><clipPath id="gT"><path d="M150 0a150 150 0 100 300 150 150 0 000-300zm0 0"/></clipPath><clipPath id="gU"><path d="M168 62h1v2h-1zm0 0"/></clipPath><clipPath id="gV"><path d="M150 0a150 150 0 100 300 150 150 0 000-300zm0 0"/></clipPath><clipPath id="gW"><path d="M168 63h1v1h-1zm0 0"/></clipPath><clipPath id="gX"><path d="M150 0a150 150 0 100 300 150 150 0 000-300zm0 0"/></clipPath><clipPath id="gY"><path d="M168 64h2v2h-2zm0 0"/></clipPath><clipPath id="gZ"><path d="M150 0a150 150 0 100 300 150 150 0 000-300zm0 0"/></clipPath><clipPath id="ha"><path d="M168 64h1v1h-1zm0 0"/></clipPath><clipPath id="hb"><path d="M150 0a150 150 0 100 300 150 150 0 000-300zm0 0"/></clipPath><clipPath id="hc"><path d="M168 61h1v1h-1zm0 0"/></clipPath><clipPath id="hd"><path d="M150 0a150 150 0 100 300 150 150 0 000-300zm0 0"/></clipPath><clipPath id="he"><path d="M171 65h1v2h-1zm0 0"/></clipPath><clipPath id="hf"><path d="M150 0a150 150 0 100 300 150 150 0 000-300zm0 0"/></clipPath><clipPath id="hg"><path d="M170 65h2v3h-2zm0 0"/></clipPath><clipPath id="hh"><path d="M150 0a150 150 0 100 300 150 150 0 000-300zm0 0"/></clipPath><clipPath id="hi"><path d="M169 66h1v1h-1zm0 0"/></clipPath><clipPath id="hj"><path d="M150 0a150 150 0 100 300 150 150 0 000-300zm0 0"/></clipPath><clipPath id="hk"><path d="M168 66h2v1h-2zm0 0"/></clipPath><clipPath id="hl"><path d="M150 0a150 150 0 100 300 150 150 0 000-300zm0 0"/></clipPath><clipPath id="hm"><path d="M170 65h1v1h-1zm0 0"/></clipPath><clipPath id="hn"><path d="M150 0a150 150 0 100 300 150 150 0 000-300zm0 0"/></clipPath><clipPath id="ho"><path d="M169 64h1v2h-1zm0 0"/></clipPath><clipPath id="hp"><path d="M150 0a150 150 0 100 300 150 150 0 000-300zm0 0"/></clipPath><clipPath id="hq"><path d="M184 69h1v1h-1zm0 0"/></clipPath><clipPath id="hr"><path d="M150 0a150 150 0 100 300 150 150 0 000-300zm0 0"/></clipPath><clipPath id="hs"><path d="M189 74h22v12h-22zm0 0"/></clipPath><clipPath id="ht"><path d="M150 0a150 150 0 100 300 150 150 0 000-300zm0 0"/></clipPath><clipPath id="hu"><path d="M197 80h5v2h-5zm0 0"/></clipPath><clipPath id="hv"><path d="M150 0a150 150 0 100 300 150 150 0 000-300zm0 0"/></clipPath><clipPath id="hw"><path d="M176 80h3v2h-3zm0 0"/></clipPath><clipPath id="hx"><path d="M150 0a150 150 0 100 300 150 150 0 000-300zm0 0"/></clipPath><clipPath id="hy"><path d="M166 77h3v2h-3zm0 0"/></clipPath><clipPath id="hz"><path d="M150 0a150 150 0 100 300 150 150 0 000-300zm0 0"/></clipPath><clipPath id="hA"><path d="M172 79h3v2h-3zm0 0"/></clipPath><clipPath id="hB"><path d="M150 0a150 150 0 100 300 150 150 0 000-300zm0 0"/></clipPath><clipPath id="hC"><path d="M168 79h3v2h-3zm0 0"/></clipPath><clipPath id="hD"><path d="M150 0a150 150 0 100 300 150 150 0 000-300zm0 0"/></clipPath><clipPath id="hE"><path d="M167 77h2v1h-2zm0 0"/></clipPath><clipPath id="hF"><path d="M150 0a150 150 0 100 300 150 150 0 000-300zm0 0"/></clipPath><clipPath id="hG"><path d="M169 60h6v3h-6zm0 0"/></clipPath><clipPath id="hH"><path d="M150 0a150 150 0 100 300 150 150 0 000-300zm0 0"/></clipPath></defs><g clip-path="url(#a)"><g clip-path="url(#b)"><path d="M-150 100h600V0h-600zm0 0" fill="red"/></g></g><g clip-path="url(#c)"><g clip-path="url(#d)"><path d="M-150 200h600V100h-600zm0 0" fill="#fff"/></g></g><g clip-path="url(#e)"><g clip-path="url(#f)"><path d="M-150 300h600V200h-600zm0 0" fill="#161695"/></g></g><g clip-path="url(#g)"><g clip-path="url(#h)"><path d="M150 227.6c32 0 58.3-26.3 58.3-58.3V100H91.7v69.3c0 32 26.2 58.3 58.3 58.3" fill="red"/></g></g><g clip-path="url(#i)"><g clip-path="url(#j)"><path d="M150 226.7a57.4 57.4 0 0057.2-57.2V101H92.8v68.4a57.4 57.4 0 0057.2 57.2" fill="#fff"/></g></g><g clip-path="url(#k)"><g clip-path="url(#l)"><path d="M206.5 100l14-31.7-10.8-17.4-17.3 6.4-12.1-13.8-16 9.1L150 41l-14.3 11.7-16-9.1-12.1 13.8L90.3 51 79.6 68.3l14 31.7a135.5 135.5 0 01112.9 0" fill="red"/></g></g><g clip-path="url(#m)"><g clip-path="url(#n)"><path d="M206.2 99.3l13.7-31-10.4-16.8-17.2 6.4-12.1-13.8-16 9.1L150 41.6l-14.2 11.6-16-9.1-12 13.8-17.3-6.4-10.4 16.8 13.6 31a136.1 136.1 0 01112.5 0" fill="#fff"/></g></g><g clip-path="url(#o)"><g clip-path="url(#p)"><path d="M205.6 97.8l13-29.4L209 53l-17 6.3-8 31a136.7 136.7 0 0121.6 7.5" fill="#0092dd"/></g></g><g clip-path="url(#q)"><g clip-path="url(#r)"><path d="M209.6 88.7l3.3-7.6a155.3 155.3 0 00-24.4-8.4l-2 7.7a148.1 148.1 0 0123.2 8" fill="red"/></g></g><g clip-path="url(#s)"><g clip-path="url(#t)"><path d="M136 54.6l-15.9-9-12 13.7 8 31a137.8 137.8 0 0122.5-3.7l-2.7-32" fill="#161695"/></g></g><g clip-path="url(#u)"><g clip-path="url(#v)"><path d="M192 59.3h-.1l-12-13.7-15.8 9-2.6 32a136.9 136.9 0 0122.5 3.7l8-31" fill="#161695"/></g></g><g clip-path="url(#w)"><g clip-path="url(#x)"><path d="M108.1 59.3l-17-6.3-9.6 15.4 3.6 8.3 9.3 21.1a137.2 137.2 0 0121.6-7.5l-7.9-31" fill="#0092dd"/></g></g><g clip-path="url(#y)"><g clip-path="url(#z)"><path d="M150 224.3c30.2 0 55-24.7 55-55v-66H95v66c0 30.3 24.7 55 55 55" fill="#fff"/></g></g><g clip-path="url(#A)"><g clip-path="url(#B)"><path d="M95 127.4h22v-24.2H95zm0 0" fill="red"/></g></g><g clip-path="url(#C)"><g clip-path="url(#D)"><path d="M117 151.6h22v-24.2h-22zm0 0" fill="red"/></g></g><g clip-path="url(#E)"><g clip-path="url(#F)"><path d="M95 169.3c0 2.2 0 4.4.3 6.5H117v-24.2H95" fill="red"/></g></g><g clip-path="url(#G)"><g clip-path="url(#H)"><path d="M139 175.8h22v-24.2h-22zm0 0" fill="red"/></g></g><g clip-path="url(#I)"><g clip-path="url(#J)"><path d="M161 200h22v-24.2h-22zm0 0" fill="red"/></g></g><g clip-path="url(#K)"><g clip-path="url(#L)"><path d="M183 213.2a55.7 55.7 0 0012.6-13.2H183" fill="red"/></g></g><g clip-path="url(#M)"><g clip-path="url(#N)"><path d="M117 200h22v-24.2h-22zm0 0" fill="red"/></g></g><g clip-path="url(#O)"><g clip-path="url(#P)"><path d="M104.4 200a55.8 55.8 0 0012.6 13.2V200" fill="red"/></g></g><g clip-path="url(#Q)"><g clip-path="url(#R)"><path d="M153.8 224.2c2.5-.2 4.8-.5 7.2-1V200h-22v23.2c2.3.5 4.7.8 7.1 1a64.7 64.7 0 007.7 0" fill="red"/></g></g><g clip-path="url(#S)"><g clip-path="url(#T)"><path d="M204.6 175.8c.3-2.1.4-4.3.4-6.5v-17.7h-22v24.2h21.6" fill="red"/></g></g><g clip-path="url(#U)"><g clip-path="url(#V)"><path d="M161 151.6h22v-24.2h-22zm0 0" fill="red"/></g></g><g clip-path="url(#W)"><g clip-path="url(#X)"><path d="M139 127.4h22v-24.2h-22zm0 0" fill="red"/></g></g><g clip-path="url(#Y)"><g clip-path="url(#Z)"><path d="M183 127.4h22v-24.2h-22zm0 0" fill="red"/></g></g><g clip-path="url(#aa)"><g clip-path="url(#ab)"><path d="M107.1 74.5A8.4 8.4 0 1191.5 80a8.4 8.4 0 007.4 4.3 8.4 8.4 0 008.2-9.8" fill="#fff"/><path d="M107 74.6V74l.2.5zm.2-.1h-.1.1v.4h.1v1h-.1V74.9h-.1v-.4h.1zm0 1.4h.1v1.3l-.1.4-.1.4-.1.4-.2.4-.1.4-.2.4-.2.3-.2.4-.2.3-.2.4-.3.3-.3.3-.2.3-.3.3-.3.2-.4.3-.3.2-.3.2-.4.3-.4.1-.3.2-.4.2-.4.1-.4.1-.4.1h-.4l-.5.1H99v-.1H100l.4-.2h.4l.4-.2.4-.1.4-.1.4-.2.3-.2.4-.2.3-.2.3-.2.3-.3.3-.3.3-.2.3-.3.3-.3.2-.3.2-.4.3-.3.2-.3.1-.4.2-.4.2-.3.1-.4.1-.4.1-.4v-.4l.1-.4v-.9zm-8.3 8.3v.2H98l-.3-.1h-.3l-.3-.1H97l-.3-.1-.3-.1-.3-.1-.2-.1-.3-.1-.2-.1-.3-.1-.2-.2-.3-.1-.2-.2-.2-.1-.3-.2-.2-.1-.2-.2-.2-.2-.2-.2-.2-.2-.2-.2-.2-.2-.2-.2-.1-.2-.2-.2-.1-.3-.2-.2-.1-.2.1-.1.2.2.1.2.2.3.1.2.2.2.2.2.1.2.2.2.2.2.2.2.2.2.2.1.2.2.3.1.2.2.2.1.3.2.2.1.2.1.3.1.2.1.3.1.3.1.2.1h.3l.3.1h.2l.3.1h.6l.3.1h.3zM91.5 80l-.1-.5.2.5zm.1 0h-.1.1l.1.4.1.3.1.3.1.4.2.3.1.3.2.3.2.3.1.3.2.3.2.3.3.3.2.2.2.3.3.2.3.3.2.2.3.2.3.2.3.2.3.1.3.2.4.1.3.2h.3l.4.2h.3l.4.2H99.7v.3H99l-.4-.1h-.4l-.3-.1-.4-.1-.3-.1-.4-.2-.3-.1-.3-.1-.4-.2-.3-.2-.3-.2-.3-.2-.3-.2-.2-.2-.3-.2-.3-.3-.2-.2-.3-.3-.2-.3-.2-.3-.2-.3-.2-.3-.2-.3-.1-.3-.2-.3-.1-.4-.2-.3v-.3l-.2-.4V80h.1zm8.1 6.9v-.2h.9l.4-.1h.4l.4-.2h.4l.4-.2.4-.2.3-.1.4-.2.3-.2.4-.2.3-.3.3-.2.3-.3.3-.2.3-.3.2-.3.3-.3.2-.4.2-.3.2-.3.2-.4.2-.4.1-.3.1-.4.2-.4V80l.1-.4v-.4l.1-.5v-.4h.2v.9l-.1.4v.4l-.2.4v.4l-.2.4-.2.4-.1.4-.2.3-.2.4-.3.3-.2.4-.2.3-.3.3-.3.3-.3.3-.3.2-.3.3-.3.2-.4.2-.3.2-.4.2-.4.2-.4.1-.3.2h-.4l-.4.2h-.5l-.4.1h-.8zm8.5-8.5h-.2v-1.3h-.1v-.4l-.1-.2v-.2l-.1-.1V75.9h-.1V75.5l-.1-.1v-.1l-.1-.2-.1-.2-.1-.2v-.1l-.1-.1.1-.1v.1l.1.1v.1l.1.1v.2h.1v.2l.2.2V75.8h.1V76.2l.1.1V76.5l.1.1v.5l.1.3v1"/></g></g><g clip-path="url(#ac)"><g clip-path="url(#ad)"><path d="M114 82.6a145.3 145.3 0 0124-4l-.7-8a153 153 0 00-25.2 4.2l2 7.8" fill="red"/></g></g><g clip-path="url(#ae)"><g clip-path="url(#af)"><path d="M110 67a161.1 161.1 0 0126.6-4.4l-.7-8a169.4 169.4 0 00-27.8 4.7" fill="red"/></g></g><g clip-path="url(#ag)"><g clip-path="url(#ah)"><path d="M213 81.1l.8-2a157.4 157.4 0 00-24.7-8.5l-.6 2a155.4 155.4 0 0124.4 8.5zm-26.4-.7a147.3 147.3 0 0123.1 8l-1 2.1a145.3 145.3 0 00-22.7-7.9" fill="#fff"/></g></g><g clip-path="url(#ai)"><g clip-path="url(#aj)"><path d="M94 62h.2l2.3 2 2.9-1v.1l-.5 3 2.3 2v.1l-3 1-.5 3v.2l-.2-.1-2.3-2-2.9 1v-.1l.5-3-2.3-2V66l3-1 .5-3"/></g></g><g clip-path="url(#ak)"><g clip-path="url(#al)"><path d="M96 67.1l4.9 1-2.2-1.9" fill="#f7db16"/></g></g><g clip-path="url(#am)"><g clip-path="url(#an)"><path d="M90.8 66.1l4.9 1-2.2-1.9" fill="#f7db16"/></g></g><g clip-path="url(#ao)"><g clip-path="url(#ap)"><path d="M95.7 67.2l-4.9-1 2.2 1.9" fill="#f7db16"/></g></g><g clip-path="url(#aq)"><g clip-path="url(#ar)"><path d="M100.9 68.2l-4.9-1 2.2 2" fill="#f7db16"/></g></g><g clip-path="url(#as)"><g clip-path="url(#at)"><path d="M96 67l3.2-3.7-2.7.9" fill="#f7db16"/></g></g><g clip-path="url(#au)"><g clip-path="url(#av)"><path d="M92.4 71l3.3-3.7-2.7.9" fill="#f7db16"/></g></g><g clip-path="url(#aw)"><g clip-path="url(#ax)"><path d="M95.8 67.3l-3.3 3.8 2.7-1" fill="#f7db16"/></g></g><g clip-path="url(#ay)"><g clip-path="url(#az)"><path d="M99.3 63.3L96 67.1l2.7-1" fill="#f7db16"/></g></g><g clip-path="url(#aA)"><g clip-path="url(#aB)"><path d="M95.7 67l-1.6-4.7-.5 2.8" fill="#f7db16"/></g></g><g clip-path="url(#aC)"><g clip-path="url(#aD)"><path d="M97.5 72l-1.6-4.6-.6 2.8" fill="#f7db16"/></g></g><g clip-path="url(#aE)"><g clip-path="url(#aF)"><path d="M96 67.3l1.6 4.7.5-2.8" fill="#f7db16"/></g></g><g clip-path="url(#aG)"><g clip-path="url(#aH)"><path d="M94.2 62.3l1.6 4.7.6-2.8" fill="#f7db16"/></g></g><g clip-path="url(#aI)"><g clip-path="url(#aJ)"><path d="M207.3 58.1l-.2.1-2.3 2-2.9-1h-.1v.1l.6 3-2.3 2-.1.2 3 1 .6 3v.2l.1-.1 2.3-2 3 1h.1v-.1l-.6-3 2.3-2 .1-.2h-.1l-3-1-.5-3"/></g></g><g clip-path="url(#aK)"><g clip-path="url(#aL)"><path d="M205.2 63.4l-4.9 1 2.2-2" fill="#f7db16"/></g></g><g clip-path="url(#aM)"><g clip-path="url(#aN)"><path d="M210.5 62.4l-4.9 1 2.2-2" fill="#f7db16"/></g></g><g clip-path="url(#aO)"><g clip-path="url(#aP)"><path d="M205.6 63.4l5-1-2.2 2" fill="#f7db16"/></g></g><g clip-path="url(#aQ)"><g clip-path="url(#aR)"><path d="M200.4 64.4l4.9-1-2.2 2" fill="#f7db16"/></g></g><g clip-path="url(#aS)"><g clip-path="url(#aT)"><path d="M205.4 63.2l-3.3-3.7 2.7.9" fill="#f7db16"/></g></g><g clip-path="url(#aU)"><g clip-path="url(#aV)" fill="#f7db16"><path d="M208.9 67.3l-3.3-3.8 2.7 1m-2.8-1l3.3 3.8-2.7-.9"/></g></g><g clip-path="url(#aW)"><g clip-path="url(#aX)"><path d="M202 59.5l3.3 3.8-2.7-1" fill="#f7db16"/></g></g><g clip-path="url(#aY)"><g clip-path="url(#aZ)"><path d="M205.5 63.2l1.7-4.7.5 2.8" fill="#f7db16"/></g></g><g clip-path="url(#ba)"><g clip-path="url(#bb)" fill="#f7db16"><path d="M203.8 68.3l1.6-4.7.6 2.8m-.7-2.8l-1.6 4.7-.5-2.9"/></g></g><g clip-path="url(#bc)"><g clip-path="url(#bd)"><path d="M207 58.5l-1.6 4.7-.5-2.8" fill="#f7db16"/></g></g><g clip-path="url(#be)"><g clip-path="url(#bf)"><path d="M164.1 54.6L150 43.2l-14 11.5 2.6 32a137.8 137.8 0 0122.9 0l2.6-32" fill="#0092dd"/></g></g><g clip-path="url(#bg)"><g clip-path="url(#bh)"><path d="M150 69h-.1l-.8 1.1c-.3.1-.4.3-.3.5-.4 0-.4.3-.4.7-.4-.6-.8-.7-1.2-.5 0-.3-.3-.5-.7-.6a1.2 1.2 0 01-.6-.2l-.3-.1c-.2-.2-.3 0-.2 0l1.1 2c0 .1 0 .2.2.3l.2.6v.2c-.4-.2-.7-.2-1-.2l-.6-.2c0-.1-.1 0-.1 0 0 .9.2 1.6.9 2.3a29.4 29.4 0 00-1.2.2c.2.4.5.8 1.3 1.1a1 1 0 00-.6.8c0 .3 0 .6-.3.7 0 0-.1 0 0 .1.3.3.8.3 1.3.2a2.1 2.1 0 00-.3 1.2h1l-.2.4a1.2 1.2 0 01-.1.5s-.1.2 0 .2h1.3c0 .3 0 .6.2 1 0 0 0 .1.1 0 .3-.3.5-.6.8-.7l.3.3c.1 0 .2.2.2.5v.1c.3 0 .8-.5.9-.9l.7.7c0 .1.1 0 .1 0l.1-1h1.4c.1 0 0-.1 0-.2a1.4 1.4 0 01-.2-.5v-.4h.9l-.3-1.2c.5.1 1 0 1.3-.2.1 0 0 0 0-.1-.2-.1-.3-.4-.3-.7a1 1 0 00-.6-.8 2 2 0 001.3-1.1c0-.1 0-.2-.2-.2h-1a3 3 0 00.9-2.2c0-.2 0-.2-.2-.1 0 0-.2.2-.5.2s-.6 0-1 .2v-.2l.2-.6a.3.3 0 00.2-.3l1.1-2c.1 0 0-.2-.2 0l-.3.1-.6.2c-.4.1-.6.3-.7.6-.4-.2-.8 0-1.2.5 0-.4 0-.7-.4-.7.1-.2 0-.4-.3-.5l-1-1V69"/></g></g><g clip-path="url(#bi)"><g clip-path="url(#bj)"><path d="M153.7 71s-.2 0-.2.2v.3l.2-.1V71" fill="#f7db16"/></g></g><g clip-path="url(#bk)"><g clip-path="url(#bl)"><path d="M146.3 71s.2 0 .2.2v.3l-.2-.2v-.2" fill="#f7db16"/></g></g><g clip-path="url(#bm)"><g clip-path="url(#bn)"><path d="M153 72.4v.2l.1-.1v-.1" fill="#f7db16"/></g></g><g clip-path="url(#bo)"><g clip-path="url(#bp)"><path d="M147 72.4v.2l.1-.1v-.1" fill="#f7db16"/></g></g><g clip-path="url(#bq)"><g clip-path="url(#br)"><path d="M153.4 72a28.3 28.3 0 00-3.3-.3 33.6 33.6 0 00-3.4.3 34.4 34.4 0 013.4-.1 27.4 27.4 0 013.3 0" fill="#f7db16"/></g></g><g clip-path="url(#bs)"><g clip-path="url(#bt)"><path d="M146.7 71.8a35.4 35.4 0 013.4-.2l3.3.2.2-.2a.2.2 0 01-.2 0v-.4c0-.2.2-.3.3-.2l.1.1.7-1-.9.3c-.4 0-.6.2-.5.5 0 .2 0 .2-.3 0-.5-.2-.8.1-1 .6 0 .2-.2.2-.2 0V71c0-.3-.2-.4-.3-.3-.3.1-.3 0-.2 0v-.4l-.2-.1c-.2-.4-.7-.8-1-1.1l-.8 1-.2.2.1.3c0 .1 0 .2-.2.1-.2 0-.2 0-.3.3v.3c0 .3-.1.3-.2 0-.2-.4-.6-.7-1-.5-.2.2-.3.2-.3 0 0-.3-.2-.4-.6-.5-.3 0-.5-.2-.8-.4l.6 1c.2-.1.3 0 .4.2.1.1 0 .3 0 .4v.2" fill="#f7db16"/></g></g><g clip-path="url(#bu)"><g clip-path="url(#bv)"><path d="M153.2 73.2c-.1 0-.2 0-.3.2l-.3.2a2.1 2.1 0 00.4-.4h-.8a.6.6 0 00-.2.2.7.7 0 01.2-.2l.1-.1h-.4a.7.7 0 00-.1 0 1 1 0 00-.1.1c-.1 0 0 0 0 0a1 1 0 010-.1 10.8 10.8 0 00-.3 0 .5.5 0 00-.2.1v-.1h-.5a.5.5 0 00-.2.1.6.6 0 010-.2h-1a.8.8 0 01.1.1v.1a.5.5 0 00-.1-.1.6.6 0 00-.1 0h-.6l.1.1a.4.4 0 00-.2-.2h-.3v.2l-.2-.1h-.5a1 1 0 01.2 0 .7.7 0 01.2.3.6.6 0 00-.3-.1 1.4 1.4 0 00-.3-.2h-.4a2.1 2.1 0 00.4.5 2.8 2.8 0 01-.4-.2l-.2-.2a2.4 2.4 0 00-.8-.3h-.7l.2.3.3.2c0 .3.2.4.3.6l.3.2a1.5 1.5 0 01-.3-.4 1.2 1.2 0 01-.1-.6h.1l.1.6c0 .2.2.4.4.5v.1a1.2 1.2 0 01-.6-.3 1.2 1.2 0 01-.2-.6.7.7 0 01-.4-.3 1.3 1.3 0 01-.1-.3 3 3 0 00.6 1.7l.4.3c.1 0 .1.2 0 .2h-.2l.4.1c.2.1.3.3.3.4l-.4-.3a3 3 0 00-.6-.2h-.7l.2.1.5.2.4.1a1 1 0 01.3.2v.1h-.1a.8.8 0 00-.3-.2 1.1 1.1 0 00-.3-.1 2 2 0 01-.5-.2l-.3-.2c.3.6.7.9 1.3 1a5.9 5.9 0 00.8.2 4 4 0 01-.4 0 2.6 2.6 0 01-.2 0 1.4 1.4 0 01-.2 0c-.3 0-.6.3-.6.7l.4-.3h.5l-.5.1-.4.4-.3.6h.2l.4-.1.4-.1a1.4 1.4 0 00-.4.2 3.5 3.5 0 00-.3 0c.3.2.7 0 1 0h.2l.2-.2h.3c0-.1 0-.1 0 0a.6.6 0 00-.3.1l-.2.2a.9.9 0 00-.1 0 1 1 0 00-.3.5 1.7 1.7 0 00-.1.3l.3-.4.5-.4-.4.4a2.2 2.2 0 00-.4.5v.2l.4-.5.7-.2v.1c-.2 0-.4 0-.6.2l-.5.5.8-.1.3-.2.1-.1.2-.2v.1a2 2 0 00-.3.3l-.3.4-.1.8a.9.9 0 00.2-.2l.2-.3a1 1 0 01.6-.7h.1v.1a1 1 0 00-.4.3 1 1 0 00-.2.3 1 1 0 01-.2.4l-.2.2h.1a1 1 0 00.5-.2.8.8 0 00.2-.3.8.8 0 01-.5.5 2.1 2.1 0 00.7-.1l.2-.3.2-.3a.6.6 0 01.2-.2v.1a.6.6 0 00-.2.2 1.1 1.1 0 00-.1.2v.5.9l.2-.3v-.5a2.9 2.9 0 000-.5h.1v.5a4.6 4.6 0 010 .4l.1-.2.1-.3a1 1 0 000-.4h.1a1.2 1.2 0 010 .7 3.4 3.4 0 01.2-.2V80v-.3h.1a1.7 1.7 0 000 .3v.3l.2.4c.2 0 .3.2.3.4v-.6a1.5 1.5 0 00-.1-.6 1.5 1.5 0 01.2.6v.7c.1-.1.6-.4.5-.9v-.1l.1.1a1 1 0 010 .1h.2a1.1 1.1 0 010-.6 1 1 0 000 .4l.2.3v-.2a2.7 2.7 0 010-.5h.1v1c.2 0 .2.1.3.3l.1-1-.1-.4a1.2 1.2 0 00-.1-.2.5.5 0 00-.2-.2l.2.1.2.3.2.3.7.1a.8.8 0 01-.3-.1.9.9 0 01-.3-.4h.1l.2.3.6.2a1 1 0 01-.2-.2 1 1 0 01-.2-.4 1 1 0 00-.2-.3 1 1 0 00-.4-.3 1 1 0 01.7.6c0 .1 0 .2.2.3l.2.2c-.1-.3 0-.5-.2-.8 0-.2-.3-.4-.2-.5l.3.2c.3 0 .6.2.8.1a4 4 0 00-.5-.5l-.5-.2h-.1c.2-.1.4 0 .6.1l.5.5v-.2a2.4 2.4 0 00-.4-.5 1.5 1.5 0 00-.5-.3v-.1c.3 0 .5.2.6.4l.3.4a1.5 1.5 0 00-.1-.3 1 1 0 00-.3-.4l-.3-.3a1.2 1.2 0 00-.3-.1v-.1h.3l.1.2h.3c.3.2.7.3 1 .2l-.3-.1a1.3 1.3 0 00-.4-.1v-.1h.4l.4.2h.2a.8.8 0 01-.3-.6 2.9 2.9 0 00-.5-.4c-.1 0-.3-.1-.4 0v-.1h.5l.4.4c0-.5-.3-.8-.6-.8h-.3l.3-.2c.6-.1 1-.4 1.3-1l-.3.2a2 2 0 01-.5.2 1 1 0 00-.4.1.8.8 0 00-.2.2c-.1 0 0 0 0 0 0-.1 0-.2.2-.3l.3-.1c.3 0 .4-.1.5-.2a1.5 1.5 0 00.2-.1h-.6a3.2 3.2 0 00-.6.2l-.3.3h-.1l.3-.4.4-.1h-.2c-.2 0-.2-.1 0-.2l.4-.3c.4-.5.6-1 .6-1.7l-.1.3a.7.7 0 01-.4.3 1.2 1.2 0 01-.2.6 1.1 1.1 0 01-.6.3l.4-.6a1.1 1.1 0 000-.6h.1v.6a1.4 1.4 0 01-.3.4 1 1 0 00.3-.2l.2-.6a.6.6 0 00.4-.2l.2-.4-.7.1a2.4 2.4 0 00-.8.3" fill="#f7db16"/></g></g><g clip-path="url(#bw)"><g clip-path="url(#bx)"><path d="M153 73a24.5 24.5 0 00-5.8 0 31.8 31.8 0 012.8-.1 25.4 25.4 0 013 0" fill="#f7db16"/></g></g><g clip-path="url(#by)"><g clip-path="url(#bz)"><path d="M148.4 72.3v.2l.1-.1v-.1m0-.1a.2.2 0 00-.3.2.2.2 0 10.4 0 .2.2 0 00-.2-.2m1.6 0l-.1.1v.1h.2l-.1-.2m0 0a.2.2 0 00-.2.1c0 .1 0 .2.2.2a.2.2 0 00.2-.2.2.2 0 00-.2-.1m1.6 0l-.1.2h.2l-.1-.1m0-.1a.2.2 0 00-.2.2s0 .2.2.2a.2.2 0 000-.4m-4.6.6a28 28 0 013-.2l3 .2.1-.2a.2.2 0 01-.3-.1l.2-.2.2.1v-.2a27.8 27.8 0 00-3.1-.2l-3.3.1.1.3a.2.2 0 01.2-.1l.1.2a.2.2 0 01-.1.2h-.1v.1" fill="#f7db16"/></g></g><g clip-path="url(#bA)"><g clip-path="url(#bB)"><path d="M150.1 70.9a.8.8 0 01.1-.2.5.5 0 01.2-.2 1 1 0 01-.2-.1.8.8 0 01-.1-.2 1 1 0 01-.2.2.6.6 0 01-.1.2.6.6 0 01.3.3m0 .2a.5.5 0 00-.5-.4v-.1a.4.4 0 00.3-.2 1 1 0 000-.4h.2a.7.7 0 00.4.5.3.3 0 00-.2.2 1 1 0 00-.1.4h-.1"/></g></g><g clip-path="url(#bC)"><g clip-path="url(#bD)"><path d="M149.6 79.3h.6v.1h-.6v-.1m-.5-.3h.5c.1 0 .2 0 .3-.2v-.7h-.5a.4.4 0 01-.3-.3v-.5h.1v.4c0 .1.1.2.3.2a1.7 1.7 0 00.9 0 .6.6 0 00.3-.2.4.4 0 000-.2.2.2 0 000-.1.4.4 0 00-.2-.1.8.8 0 00-.2 0h-.1-.1.1l.3-.1h.2a.3.3 0 01.2.3.5.5 0 01-.2.3.7.7 0 01-.3.2h-.4v.8a.4.4 0 00.3.2h.5v.1h-.5a.5.5 0 01-.4-.2.5.5 0 01-.3.2h-.5s-.1 0 0 0V79zm-.4-.7l.8.4-.8-.3zm0-.4l.9.5-1-.4v-.1m2.8 0l-1 .6v-.1l1-.5m-.1.5l-.8.4v-.1l.7-.4h.1v.1"/></g></g><g clip-path="url(#bE)"><g clip-path="url(#bF)"><path d="M151.8 74.9a1.8 1.8 0 00-.5.1 3.1 3.1 0 00-.4.3c0 .2-.1.3 0 .4a1.2 1.2 0 01.2-.1 2.8 2.8 0 00.4-.2.7.7 0 00.2-.1.5.5 0 000-.2l.1-.2zm-1.4-1.1a1 1 0 00-.1.3 1.3 1.3 0 000 .4v.7h.2a.4.4 0 00.3 0 2.4 2.4 0 01.5-.3l.5-.2a3 3 0 00.6-.3 1.6 1.6 0 01-.2.3l-.3.1a1.1 1.1 0 010 .3.6.6 0 01-.1.2.8.8 0 01-.3.2 2.5 2.5 0 01-.3.2h-.2a2.1 2.1 0 00-.2.2v-.5a.4.4 0 01-.5-.2.8.8 0 01-.2-.3v-.4-.4l.2-.4h.1v.1zm-1.1 1.5a3.1 3.1 0 00-.5-.3 1.8 1.8 0 00-.5-.1v.2l.2.2a.8.8 0 00.2.1l.3.2a1.4 1.4 0 01.2 0l.1.1v-.4zm.5-1.6l.2.4v.8a.8.8 0 01-.1.3.4.4 0 01-.5.2v.4h-.3l-.1-.1a2.1 2.1 0 01-.4-.2.8.8 0 01-.2-.2.6.6 0 01-.1-.2 1.4 1.4 0 010-.3 4.4 4.4 0 01-.4-.1 1.6 1.6 0 01-.2-.2v-.1l.3.2.3.1.6.2.4.3h.1a.4.4 0 00.2 0 .3.3 0 00.2 0 .7.7 0 00.1-.4v-.3-.4a1 1 0 00-.2-.3c0-.1.1 0 .1 0zm-.5 2.6c0-.1 0-.2.2-.3a2 2 0 01.2-.3h.1v.1a2 2 0 00-.2.3 1.2 1.2 0 00-.2.3h-.1m.3-1.6a3 3 0 00-.7-.4 1 1 0 00-.5-.2V74c.1 0 .4 0 .6.2l.7.4v.1h-.1zm.9 0l.6-.5.5-.2.1.1a1 1 0 00-.5.2 4 4 0 00-.6.4h-.1"/></g></g><g clip-path="url(#bG)"><g clip-path="url(#bH)"><path d="M148.8 75.1a.1.1 0 01.1.2.1.1 0 010 .1.1.1 0 01-.2-.1l.1-.2m0 0c.1 0 .2 0 .2.2a.2.2 0 01-.2.2.2.2 0 110-.4m0-.2c.2 0 .3.2.3.4 0 .1-.1.3-.3.3a.3.3 0 01-.3-.3c0-.2.1-.4.3-.4m2.5.2a.1.1 0 00-.1.2h.1a.1.1 0 00.2 0 .1.1 0 00-.2-.2m0 0a.2.2 0 00-.2.2.2.2 0 10.4 0 .2.2 0 00-.2-.3m0 0a.3.3 0 000 .6.3.3 0 000-.7"/></g></g><g clip-path="url(#bI)"><g clip-path="url(#bJ)"><path d="M143.5 54.7h-.1l-.8 1.2c-.3 0-.3.2-.2.5-.4 0-.4.3-.4.6-.4-.5-.8-.6-1.2-.4 0-.3-.3-.4-.7-.5-.3 0-.5 0-.7-.2l-.2-.1c-.2-.2-.4 0-.3.1l1.3 1.9s0 .2.2.3l.2.5v.2l-1-.1-.6-.2-.1.1a3 3 0 001 2.2 39.5 39.5 0 00-1.1.2c.2.5.5.8 1.2 1a1 1 0 00-.5.9c0 .3 0 .5-.2.7-.1 0-.2 0 0 .1.3.3.8.3 1.3.1a2 2 0 00-.3 1.3l1-.1-.1.4-.1.5c0 .1-.1.2 0 .2.5.1 1 0 1.3-.1 0 .3 0 .7.2 1 0 .1.1.2.2 0l.7-.7.3.3c.1 0 .2.2.2.5.3 0 .8-.5.9-.8.3.1.4.3.7.6 0 .1.1 0 .2 0v-1.1c.4.1.9.2 1.4 0v-.2a1.4 1.4 0 01-.2-.5l-.1-.4h.9a2 2 0 00-.4-1.2c.5 0 1 0 1.4-.2V63c-.3-.1-.4-.3-.4-.7a1 1 0 00-.6-.7 2 2 0 001.2-1.2l-.2-.1h-1c.6-.8.8-1.5.8-2.3 0-.2 0-.2-.2-.1 0 .1-.2.2-.5.2l-1 .3a2.7 2.7 0 000-.2l.2-.6a.3.3 0 00.1-.3l1-2c.2 0 0-.2-.2 0l-.2.1a1.2 1.2 0 01-.7.2c-.3.1-.6.3-.6.7-.4-.3-.8-.1-1.1.5 0-.4-.1-.7-.5-.6 0-.3 0-.5-.3-.5l-1-1-.1-.1"/></g></g><g clip-path="url(#bK)"><g clip-path="url(#bL)"><path d="M147.3 56.5s-.2 0-.2.2v.3l.2-.1c0-.2.1-.3 0-.4" fill="#f7db16"/></g></g><g clip-path="url(#bM)"><g clip-path="url(#bN)"><path d="M140 57c0-.1.1 0 .2 0v.3l-.3-.1v-.3" fill="#f7db16"/></g></g><g clip-path="url(#bO)"><g clip-path="url(#bP)"><path d="M146.7 58V58" fill="#f7db16"/></g></g><g clip-path="url(#bQ)"><g clip-path="url(#bR)"><path d="M140.7 58.2v.2h.1v-.2" fill="#f7db16"/></g></g><g clip-path="url(#bS)"><g clip-path="url(#bT)"><path d="M147 57.5a27.4 27.4 0 00-3.3 0 34.7 34.7 0 00-3.3.4 34.4 34.4 0 013.3-.3 28.2 28.2 0 013.3 0v-.1" fill="#f7db16"/></g></g><g clip-path="url(#bU)"><g clip-path="url(#bV)"><path d="M140.3 57.7a34.2 34.2 0 013.4-.4h3.4l.1-.2a.2.2 0 01-.1 0c-.1 0-.2-.3-.1-.4 0-.2.2-.3.3-.3l.2.2.6-1.1-.9.4c-.4 0-.6.2-.5.5 0 .2 0 .2-.3 0-.5-.2-.8.2-1 .6 0 .3-.2.3-.2 0v-.3c0-.3-.2-.4-.3-.3-.3.2-.3 0-.2 0V56l-.2-.1-1-1-.8 1-.2.2.1.3c.1.2 0 .2-.2.1-.2 0-.2 0-.3.4v.3c0 .3 0 .3-.2 0-.2-.4-.6-.7-1-.4-.2 0-.3.1-.3-.1 0-.3-.2-.4-.6-.4-.4 0-.6-.2-.9-.4l.7 1c.2-.1.4 0 .4.1.1.2.1.4 0 .4l.1.3" fill="#f7db16"/></g></g><g clip-path="url(#bW)"><g clip-path="url(#bX)"><path d="M146.9 58.7l-.2.2a2.4 2.4 0 01-.3.3h-.1a2.2 2.2 0 00.4-.5h-.4a1.8 1.8 0 00-.4.1.6.6 0 00-.1.2h-.1a.7.7 0 01.2-.3 1 1 0 01.2 0h-.5a.6.6 0 00-.1 0 .5.5 0 000 .1h-.2a.6.6 0 01.1-.1h-.3a.5.5 0 00-.2.2.5.5 0 010-.2h-.5a.5.5 0 00-.1.1h-.1v-.1h-1a.6.6 0 01.1.1v.1h-.1a.4.4 0 00-.1-.2h-.6v.1a.5.5 0 01.2.1c-.1.1-.1 0-.1 0a.4.4 0 00-.2-.1h-.3v.1s.1 0 0 .1a.5.5 0 00-.2-.2h-.5l.2.2a.7.7 0 01.3.2h-.1a.6.6 0 00-.2-.1 1.6 1.6 0 00-.4-.2h-.4a.9.9 0 00.1.2l.3.3a2.4 2.4 0 01-.3-.2l-.2-.2a2.3 2.3 0 00-.9-.2h-.7l.2.3a.6.6 0 00.3.2l.3.6.3.2a1.3 1.3 0 01-.2-.4 1.2 1.2 0 01-.2-.6h.1l.1.6.5.5a1.1 1.1 0 01-.6-.3 1.2 1.2 0 01-.3-.5.7.7 0 01-.4-.3 1.6 1.6 0 01-.1-.3 3 3 0 00.7 1.7l.4.3c.1 0 .2.1 0 .1h-.2l.4.2c.2 0 .3.2.3.4l-.4-.3a2.6 2.6 0 00-.6-.2h-.6l.2.1.5.2h.3l.3.3a1 1 0 00-.3-.1 1.1 1.1 0 00-.3-.1 2.1 2.1 0 01-.6-.2l-.3-.2c.3.6.7.8 1.3 1h.5l.4.1v.1a6.2 6.2 0 01-.6 0 .8.8 0 01-.2 0c-.3 0-.6.3-.6.7l.4-.3c.1-.1.3-.2.5-.1-.2 0-.3 0-.5.2l-.4.4-.3.6h.2l.4-.2h.4c.1 0 0 0 0 0a1.3 1.3 0 00-.3.1l-.4.2c.4 0 .7 0 1-.2h.2l.3-.2h.2c0-.1 0-.1 0 0a.6.6 0 00-.3.1l-.2.2-.3.5-.1.4c0-.2.1-.4.3-.5 0-.2.2-.3.4-.4h.1a1.5 1.5 0 00-.5.5 2 2 0 00-.3.5v.1l.4-.5.6-.2v.1c-.1 0-.3 0-.5.2l-.5.6.8-.2.3-.2v-.1l.2-.2h.1a1.3 1.3 0 00-.1.2 2.8 2.8 0 00-.2.2l-.2.4c-.1.3 0 .5-.2.8.1 0 .2 0 .3-.2l.2-.3c0-.2 0-.3.2-.4l.4-.3a1 1 0 00-.6.7 1.1 1.1 0 01-.1.4 1 1 0 01-.3.2h.2l.4-.2a.7.7 0 00.2-.3h.1a.8.8 0 01-.2.3.7.7 0 01-.3.2c.2 0 .4 0 .7-.2l.1-.3.2-.2a.6.6 0 01.2-.2c.1 0 0 0 0 0a.6.6 0 00-.1.2l-.2.2v.5l.1.9.2-.3a5.1 5.1 0 000-.5 2.8 2.8 0 000-.5h.1v.9l.1-.2.1-.3a1 1 0 000-.4l.1.4a1 1 0 010 .3l.2-.2v-.4-.2s0-.1 0 0h.1V66l.2.3c.2.1.3.3.3.4a2.6 2.6 0 000-.6 1.4 1.4 0 00-.2-.5c.2.1.3.3.3.5v.7c.2 0 .6-.4.5-.9v-.1a.6.6 0 01.1.2h.2a1 1 0 010-.6 1 1 0 000 .4l.1.3.2.2a3.8 3.8 0 01-.1-.4 2.7 2.7 0 010-.5v.5a4.7 4.7 0 00.2.5l.2.3v-1-.4a1.3 1.3 0 00-.2-.2.6.6 0 00-.2-.2l.3.1.1.2.2.3.7.2a.8.8 0 01-.3-.2.8.8 0 01-.2-.3l.3.3.6.1a1 1 0 01-.3-.2 1.2 1.2 0 01-.2-.3 1 1 0 00-.6-.6c.2 0 .3 0 .4.2l.3.3.2.4a.9.9 0 00.3.2c-.2-.3-.1-.6-.2-.9l-.4-.4c.1-.1.3 0 .4.1.3.1.6.2.8.1a3.9 3.9 0 00-.5-.5c-.2-.1-.4-.2-.6-.1v-.1l.6.1.5.4a2 2 0 00-.4-.6 1.5 1.5 0 00-.5-.3c0-.1 0-.1 0 0l.6.3.3.4a1.7 1.7 0 00-.1-.3 1 1 0 00-.3-.4l-.4-.3a1 1 0 00-.3 0V63h.4l.4.2h1a3.4 3.4 0 00-.4 0 1.3 1.3 0 00-.4-.1V63h.4l.4.2.3-.1a.8.8 0 01-.4-.5 2.8 2.8 0 00-.5-.4c-.1 0-.3-.1-.4 0v-.1c-.1 0 0 0 0 0h.5l.4.3c0-.4-.3-.7-.7-.7h-.2l.3-.2c.6-.2 1-.5 1.2-1l-.3.1a2.1 2.1 0 01-.5.2 1.1 1.1 0 00-.3.2.8.8 0 00-.2.2h-.1a1 1 0 01.2-.3l.4-.1a2 2 0 00.7-.4 13.6 13.6 0 00-.7 0 3 3 0 00-.6.3c-.2.1-.3.2-.3.4 0-.2 0-.3.2-.5l.4-.1h-.2c-.1 0-.1-.1 0-.2l.3-.3c.4-.5.6-1.1.6-1.7l-.1.3a.7.7 0 01-.3.2 1.3 1.3 0 01-.3.6 1 1 0 01-.5.4l.3-.6a1.1 1.1 0 00.1-.6h.1v.6l-.3.4.2-.2.3-.6a.6.6 0 00.3-.3 1.5 1.5 0 00.2-.3l-.7.1a2.4 2.4 0 00-.8.3" fill="#f7db16"/></g></g><g clip-path="url(#bY)"><g clip-path="url(#bZ)"><path d="M146.8 58.4a23.7 23.7 0 00-3 0 29.6 29.6 0 00-3 .3l-.1.1h.2a30.1 30.1 0 012.8-.2h3c.1 0 .2-.2 0-.2" fill="#f7db16"/></g></g><g clip-path="url(#ca)"><g clip-path="url(#cb)"><path d="M142 58v.2h.2l-.1-.2m0 0a.2.2 0 00-.2.1.2.2 0 00.2.2.2.2 0 00.2-.2.2.2 0 00-.2-.2m1.6 0l-.1.1v.1l.1-.1m0-.2a.2.2 0 00-.2.2c0 .1 0 .2.2.2a.2.2 0 00.1-.2.2.2 0 00-.2-.2m1.7 0l-.1.2h.1v-.1m0-.1a.2.2 0 00-.2.2s0 .2.2.2a.2.2 0 00.1-.2.2.2 0 00-.1-.2m-4.6.8a29.3 29.3 0 013-.3h3l.1-.1a.2.2 0 01-.3-.2.2.2 0 01.4 0v-.3a27.7 27.7 0 00-3.2 0 35 35 0 00-3.2.3v.2a.2.2 0 01.2 0 .2.2 0 01.2.1.2.2 0 01-.2.2v.1" fill="#f7db16"/></g></g><g clip-path="url(#cc)"><g clip-path="url(#cd)"><path d="M143.7 56.5a.8.8 0 01.1-.2.5.5 0 01.2-.1.6.6 0 01-.3-.2.6.6 0 010-.1.9.9 0 01-.3.4.6.6 0 01.3.2zm0 .2a.5.5 0 00-.2-.2.5.5 0 00-.3-.1v-.1a.5.5 0 00.2-.2l.2-.4a.7.7 0 00.2.3l.3.1v.2a.3.3 0 00-.2 0 .8.8 0 00-.1.4h-.1"/></g></g><g clip-path="url(#ce)"><g clip-path="url(#cf)"><path d="M143.6 65h.6l-.6.1V65m-.5-.3h.5c.1 0 .2 0 .3-.2v-.7a1.7 1.7 0 01-.5 0 .4.4 0 01-.3-.3V63v.4l.3.2a1.7 1.7 0 001 0 .6.6 0 00.2-.2.3.3 0 000-.3.2.2 0 000-.1.4.4 0 00-.2 0h-.2-.1c-.1 0 0 0 0-.1h.6v.2a.5.5 0 010 .3.7.7 0 01-.3.3h-.4v.8l.3.2h.5s0-.1 0 0c.1 0 0 0 0 0l-.5.1a.5.5 0 01-.4-.2.4.4 0 01-.3.2h-.5v-.1zm-.4-.6l.8.2v.1l-.8-.2V64zm0-.5l.8.5-1-.4c0-.1.1-.1.1 0m2.7-.1l-.8.5h-.1l.9-.6zm0 .5l-.8.3v-.1l.7-.3c.1 0 0 0 0 0"/></g></g><g clip-path="url(#cg)"><g clip-path="url(#ch)"><path d="M145.6 60.5a1.6 1.6 0 00-.5.1 3 3 0 00-.4.3v.4l.3-.1.3-.2a.7.7 0 00.2-.1.5.5 0 000-.3l.1-.2m-1.4-1l-.2.4v.7c0 .1 0 .2.2.3a.3.3 0 00.1.1h.3l.5-.4.5-.2.3-.2c.1 0 .2 0 .2-.2h.1v.1a2.4 2.4 0 01-.5.4v.3a.6.6 0 01-.1.2.9.9 0 01-.2.2l-.4.2a3.9 3.9 0 00-.2 0l-.1.2h-.1V61a.5.5 0 01-.3 0 .4.4 0 01-.2-.1.9.9 0 01-.2-.4v-.3a1.3 1.3 0 010-.5l.2-.3zM143 61a2.6 2.6 0 00-.5-.3 1.8 1.8 0 00-.5 0 1 1 0 000 .1.5.5 0 00.2.2.7.7 0 00.2.2l.3.1a2.8 2.8 0 01.4.1l-.1-.4m.5-1.6a1.1 1.1 0 01.2.8v.3a.9.9 0 010 .4.4.4 0 01-.3.2.5.5 0 01-.3 0c0 .1.1.3 0 .4a2 2 0 00-.2 0 1.6 1.6 0 00-.2 0 2.4 2.4 0 01-.4-.2.9.9 0 01-.2-.2.5.5 0 01-.1-.2 1.3 1.3 0 010-.3 3.3 3.3 0 01-.4-.2 1.5 1.5 0 01-.2-.1v-.1l.3.1.3.2.6.1.4.3a.8.8 0 01.1 0 .4.4 0 00.2 0 .3.3 0 00.2 0 .7.7 0 00.1-.4 1.7 1.7 0 000-.3 1.4 1.4 0 000-.4 1 1 0 00-.2-.3c0-.1 0 0 0 0zM143 62l.2-.3.3-.3v.1a1.7 1.7 0 00-.2.2 1.3 1.3 0 00-.2.4zm.3-1.5a3 3 0 00-.7-.4 1 1 0 00-.5-.1h-.1v-.1h.6l.8.5v.1h-.1zm.9-.1a4 4 0 01.6-.5l.5-.2v.1a1 1 0 00-.5.2l-.6.5v-.1"/></g></g><g clip-path="url(#ci)"><g clip-path="url(#cj)"><path d="M142.6 60.9a.1.1 0 01.2.1.1.1 0 01-.2.1h-.1a.1.1 0 01.1-.2m0-.1a.2.2 0 01.2.2.2.2 0 01-.2.2.2.2 0 01-.2-.2.2.2 0 01.2-.2m0-.1a.3.3 0 01.4.3.3.3 0 01-.4.3.3.3 0 01-.3-.3.3.3 0 01.3-.3m2.5 0a.1.1 0 000 .2v.1l.2-.1a.1.1 0 00-.2-.2m0 0a.2.2 0 00-.2.2.2.2 0 00.3.2.2.2 0 000-.4m0-.1a.3.3 0 00-.4.3c0 .2.2.3.4.3a.3.3 0 00.3-.3.3.3 0 00-.4-.3"/></g></g><g clip-path="url(#ck)"><g clip-path="url(#cl)"><path d="M156.6 54.7l.8 1.2c.3 0 .4.2.3.5.4 0 .4.3.4.6.4-.5.8-.6 1.2-.4 0-.3.3-.4.7-.5.3 0 .5 0 .6-.2l.3-.1c.2-.2.3 0 .2.1l-1.2 1.9s0 .2-.2.3l-.2.5v.2l1-.1.6-.2v.1a3 3 0 01-1 2.2 41 41 0 011.2.2 2 2 0 01-1.3 1c.3.3.5.5.5.9 0 .3.1.5.3.7.1 0 .1 0 0 .1-.3.3-.8.3-1.3.1.2.4.3.9.2 1.3l-.9-.1v.4l.2.5c0 .1.1.2 0 .2-.5.1-1 0-1.3-.1 0 .3 0 .7-.2 1 0 .1-.1.2-.2 0l-.7-.7-.3.3c-.1 0-.2.2-.2.5h-.1c-.2 0-.7-.5-.8-.8-.3.1-.5.3-.7.6 0 .1-.2 0-.2 0v-1.1c-.4.1-1 .2-1.4 0-.1 0 0-.1 0-.2l.2-.5v-.4c-.2 0-.5.1-.8 0 0-.4 0-.8.3-1.2-.4 0-1 0-1.3-.2V63c.3-.1.4-.3.4-.7a1 1 0 01.6-.7 2 2 0 01-1.2-1.2l.1-.1h1c-.5-.8-.8-1.5-.7-2.3 0-.2 0-.2.1-.1l.5.2c.4 0 .7.1 1 .3v-.2l-.1-.6a.3.3 0 01-.2-.3l-1-2s0-.2.2 0l.3.1.6.2c.4.1.6.3.6.7.5-.3.9-.1 1.2.5 0-.4.1-.7.5-.6-.1-.3 0-.5.3-.5l1-1v-.1"/></g></g><g clip-path="url(#cm)"><g clip-path="url(#cn)"><path d="M152.8 56.5l.2.2v.3l-.2-.1c-.1-.2-.1-.3 0-.4" fill="#f7db16"/></g></g><g clip-path="url(#co)"><g clip-path="url(#cp)"><path d="M160.2 57h-.3v.3l.2-.1v-.3" fill="#f7db16"/></g></g><g clip-path="url(#cq)"><g clip-path="url(#cr)"><path d="M153.4 58v.1h-.1v-.2" fill="#f7db16"/></g></g><g clip-path="url(#cs)"><g clip-path="url(#ct)"><path d="M159.3 58.2l.1.1v.1h-.2l.1-.2" fill="#f7db16"/></g></g><g clip-path="url(#cu)"><g clip-path="url(#cv)"><path d="M153 57.5a27.4 27.4 0 013.4 0 34.6 34.6 0 013.3.4 34.4 34.4 0 00-3.3-.3 28.2 28.2 0 00-3.4-.1" fill="#f7db16"/></g></g><g clip-path="url(#cw)"><g clip-path="url(#cx)"><path d="M159.7 57.7a34.2 34.2 0 00-3.3-.4 27.4 27.4 0 00-3.4 0l-.1-.2h.1c.1 0 .1-.3 0-.4 0-.2-.2-.3-.3-.3v.2l-.7-1.1.9.4c.4 0 .5.2.5.5 0 .2 0 .2.3 0 .4-.2.8.2 1 .6 0 .3.1.3.2 0v-.3c0-.3.1-.4.3-.3.2.2.3 0 .2 0V56l.2-.1 1-1 .8 1 .2.2c0 .2-.1.3-.2.3 0 .2 0 .2.2.1.2 0 .3 0 .3.4v.3c0 .3.2.3.3 0 .2-.4.5-.7 1-.4.2 0 .3.1.3-.1 0-.3.1-.4.6-.4.3 0 .5-.2.8-.4l-.6 1a.2.2 0 00-.1 0c-.1-.1-.3 0-.4.1v.4a.1.1 0 00.1 0l-.2.3" fill="#f7db16"/></g></g><g clip-path="url(#cy)"><g clip-path="url(#cz)"><path d="M153.2 58.7l.2.2a2.4 2.4 0 00.3.3c.1 0 0 0 0 0a2.2 2.2 0 01-.2-.4 1 1 0 01-.1-.1h.4l.3.1a.5.5 0 01.2.2h.1a.7.7 0 00-.2-.3.8.8 0 00-.2 0h.5a.5.5 0 01.2.1.6.6 0 000-.1h.3l.1.2h.1a.7.7 0 000-.2H155.7a.5.5 0 010 .1h.1v-.1h-.1 1.1a.6.6 0 00-.2.1v.1h.1a.9.9 0 01.1 0 .4.4 0 01.1-.2h.5v.1a.7.7 0 000 .1c-.1 0-.1 0 0 0 0 .1 0 0 0 0a.4.4 0 01.1-.1h.4l-.1.1v.1a.5.5 0 01.3-.2h.4a2.6 2.6 0 00-.1.2.7.7 0 00-.3.2h.1a.6.6 0 01.2-.1l.4-.2h.4a1.1 1.1 0 01-.2.2 2.9 2.9 0 01-.3.3l.4-.2.2-.2.9-.2h.7a1.7 1.7 0 01-.2.3.6.6 0 01-.4.2l-.3.6a1 1 0 01-.3.2c.2-.1.2-.3.3-.4l.2-.6h-.1c0 .2 0 .4-.2.6l-.4.5c.2 0 .5-.1.6-.3l.3-.5.3-.3a1.4 1.4 0 00.2-.3 2.9 2.9 0 01-.7 1.7l-.4.3c-.2 0-.2.1 0 .1h.1a2.5 2.5 0 00-.3.2c-.2 0-.3.2-.4.4h.1l.3-.3.6-.2h.7l-.2.1a2.1 2.1 0 01-.5.2h-.3a1 1 0 00-.3.3.9.9 0 01.3-.1l.3-.1.6-.2.2-.2c-.3.6-.7.8-1.2 1a1 1 0 00-.1 0 4.4 4.4 0 01-.4 0l-.4.1v.1h.8c.3 0 .6.3.6.7a2.5 2.5 0 00-.4-.3.7.7 0 00-.5-.1c.1 0 .3 0 .4.2.2 0 .4.2.5.4 0 .2 0 .4.3.6h-.3a3.7 3.7 0 00-.4-.2h-.4l.4.1.3.2c-.3 0-.6 0-1-.2h-.1a1.7 1.7 0 00-.3-.2 1 1 0 00-.3 0c0-.1 0-.1 0 0l.4.1.1.2h.2l.2.5.1.4a2.1 2.1 0 00-.3-.5 1.5 1.5 0 00-.5-.4l.4.5c.2.1.3.3.3.5l.1.1a3.6 3.6 0 00-.5-.5l-.6-.2v.1c.2 0 .4 0 .6.2l.5.6-.8-.2-.3-.2-.1-.1a1.8 1.8 0 00-.2-.2l.1.2.1.2c.2.1.3.3.3.4 0 .3 0 .5.2.8a.8.8 0 01-.3-.2 1 1 0 01-.2-.3 1.1 1.1 0 00-.2-.4 1.1 1.1 0 00-.4-.3 1 1 0 01.5.7l.2.4.2.2h-.1a1 1 0 01-.4-.2.7.7 0 01-.2-.3h-.1a.8.8 0 00.2.3l.3.2a2.2 2.2 0 01-.7-.2l-.2-.3a1.4 1.4 0 00-.1-.2.6.6 0 00-.2-.2h-.1a.6.6 0 01.2.2l.1.2.1.5-.1.9a3.7 3.7 0 00-.2-.3 5.1 5.1 0 010-.5 2.5 2.5 0 010-.5h-.1a3 3 0 000 .5v.4l-.2-.2a1.1 1.1 0 010-.3 1 1 0 010-.4h-.1a1.2 1.2 0 000 .7 3.3 3.3 0 00-.2-.2 3.2 3.2 0 000-.6s0-.1 0 0h-.1v.2a3.7 3.7 0 010 .4c0 .1-.1.3-.3.3a.6.6 0 00-.3.4 2.6 2.6 0 010-.6l.3-.5h-.1a1.5 1.5 0 00-.2.5v.7c-.2 0-.6-.4-.5-.9v-.1a.6.6 0 00-.1.2h-.1-.1V66a1 1 0 000-.4v.4a1.3 1.3 0 01-.2.3v.2a3.7 3.7 0 000-1c-.1 0-.1 0 0 0l-.1.6-.1.5-.2.3a3 3 0 010-1v-.4l.2-.2a.5.5 0 01.2-.2.6.6 0 00-.3.1l-.1.2-.3.3a2 2 0 01-.6.2.8.8 0 00.3-.2.8.8 0 00.2-.3.8.8 0 01-.3.3l-.6.1s.2 0 .2-.2l.3-.3a1 1 0 01.2-.4l.4-.2a1 1 0 00-.5.2 1 1 0 00-.2.3 1 1 0 01-.2.4 1 1 0 01-.3.2c.2-.3.1-.6.2-.9 0-.2.4-.4.3-.4l-.3.1c-.3.1-.6.2-.9.1l.6-.5c.2-.1.4-.2.5-.1h.1v-.1l-.6.1a3.3 3.3 0 00-.5.4l.4-.6.5-.3c0-.1 0-.1 0 0a1.6 1.6 0 00-.6.3l-.3.4.1-.3c0-.2.2-.3.3-.4l.3-.3h.1a1 1 0 01.3 0V63a1.2 1.2 0 00-.3 0h-.2l-.3.2h-1 .4a1.3 1.3 0 01.4-.1V63h-.5l-.3.2-.3-.1c.2-.1.3-.3.3-.5l.5-.4h.5v-.1h-.5a2.7 2.7 0 00-.4.3c0-.4.3-.7.7-.7h.2l-.3-.2c-.6-.2-1-.5-1.2-1l.3.1.5.2.3.2a.9.9 0 01.2.2h.1a.9.9 0 00-.2-.3 1 1 0 00-.4-.1 2.2 2.2 0 01-.5-.3 2 2 0 01-.2 0h.7l.6.2c.1.1.3.2.3.4 0-.2 0-.3-.3-.5a2.3 2.3 0 00-.3-.1h.2c.1 0 .1-.1 0-.2l-.4-.3c-.3-.5-.5-1.1-.6-1.7l.2.3a.7.7 0 00.3.2c0 .3.1.5.3.6 0 .2.3.3.5.4a1.4 1.4 0 01-.3-.6 1 1 0 01-.1-.6h-.1v.6l.3.4a1 1 0 01-.3-.2 1.2 1.2 0 01-.2-.6.6.6 0 01-.3-.3 1.4 1.4 0 01-.2-.3l.7.1c.3 0 .5.2.8.3" fill="#f7db16"/></g></g><g clip-path="url(#cA)"><g clip-path="url(#cB)"><path d="M153.3 58.4a23.7 23.7 0 013 0 29.6 29.6 0 012.9.4 30.3 30.3 0 00-2.9-.2h-3v-.2" fill="#f7db16"/></g></g><g clip-path="url(#cC)"><g clip-path="url(#cD)"><path d="M158 58v.2h-.1V58m0 0l.3.1a.2.2 0 01-.2.2.2.2 0 01-.2-.2.2.2 0 01.2-.2m-1.6 0l.1.1v.1l-.2-.1h.1m0-.2l.2.2a.2.2 0 01-.2.2.2.2 0 01-.2-.2.2.2 0 01.2-.2m-1.6 0l.1.2h-.2l.1-.1zm0 0a.2.2 0 01.2.2.2.2 0 01-.2.2.2.2 0 01-.2-.2.2.2 0 01.2-.2m4.5.8a29 29 0 00-3-.3 23.4 23.4 0 00-3 0v-.1a.2.2 0 00.3-.2.2.2 0 00-.2-.2.2.2 0 00-.2.1v-.2a27.7 27.7 0 013.1 0l3.3.3-.1.2a.2.2 0 00-.2 0 .2.2 0 00-.1.1.2.2 0 00.1.2v.1" fill="#f7db16"/></g></g><g clip-path="url(#cE)"><g clip-path="url(#cF)"><path d="M156.4 56.5a.8.8 0 00-.1-.2.5.5 0 00-.2-.1.7.7 0 00.2-.2.6.6 0 00.2-.1v.2a.6.6 0 00.2.2.6.6 0 00-.2 0 .6.6 0 00-.1.2zm0 .2a.5.5 0 01.5-.3v-.1a.5.5 0 01-.3-.2 1 1 0 010-.4h-.2a.7.7 0 01-.1.3.7.7 0 01-.3.1v.1l.2.2.1.3h.1"/></g></g><g clip-path="url(#cG)"><g clip-path="url(#cH)"><path d="M156.4 65h-.5-.1l.6.1h.1V65m.5-.3h-.5c-.2 0-.3 0-.3-.2v-.7h.5a.4.4 0 00.3-.3V63c-.1 0-.1 0 0 0l-.1.4a.3.3 0 01-.2.2 1.7 1.7 0 01-.5 0 2 2 0 01-.4 0 .6.6 0 01-.3-.2.4.4 0 01-.1-.3.2.2 0 010-.1.4.4 0 01.3 0H156v-.1a1.2 1.2 0 00-.3 0 .5.5 0 00-.3 0 .3.3 0 00-.1.2.5.5 0 000 .3.7.7 0 00.4.3h.4v.8a.4.4 0 01-.3.2h-.5s-.1-.1-.1 0l.6.1a.5.5 0 00.3-.2l.3.2h.6v-.1zm.4-.6l-.8.2v.1l.8-.2V64zm0-.5l-.9.5 1-.4c0-.1 0-.1 0 0m-2.8-.1l1 .5-.9-.6c-.1 0 0 0 0 0zm.1.5l.8.3v-.1l-.7-.3h-.1"/></g></g><g clip-path="url(#cI)"><g clip-path="url(#cJ)"><path d="M154.5 60.5l.4.1.5.3v.5l-.1-.1-.2-.1a2 2 0 01-.3-.2.7.7 0 01-.2-.1.5.5 0 01-.1-.3 1 1 0 010-.2m1.4-1a1 1 0 01.2.7v.4a.7.7 0 01-.2.3.3.3 0 01-.2.1.4.4 0 01-.2 0 3 3 0 00-.5-.4 1.7 1.7 0 00-.6-.2 3.2 3.2 0 01-.3-.2 1.3 1.3 0 01-.2-.2v.1s0 .2.2.2l.3.2v.3a.6.6 0 000 .2.8.8 0 00.3.2l.3.2h.2l.2.2h.1V61a.5.5 0 00.3 0 .4.4 0 00.2-.1.8.8 0 00.2-.4v-.3a1.3 1.3 0 000-.5 1 1 0 00-.2-.3c-.1 0-.1 0 0 0zm1 1.6l.6-.3h.4a1 1 0 010 .1.5.5 0 01-.1.2.7.7 0 01-.2.2l-.4.1a2 2 0 00-.2 0l-.1.1V61zm-.4-1.6l-.2.3V61l.3.2h.2v.4a2.7 2.7 0 01.5 0l.3-.2a.9.9 0 00.3-.2.6.6 0 00.1-.2v-.3a4.1 4.1 0 00.6-.3v-.1a1.1 1.1 0 01-.3.1l-.3.2a1.7 1.7 0 00-.6.1 3 3 0 00-.5.3.4.4 0 01-.3 0 .3.3 0 01-.1 0 .7.7 0 01-.1-.4 1.7 1.7 0 010-.3 1.4 1.4 0 010-.4l.2-.3c0-.1 0 0 0 0zm.4 2.6a1.3 1.3 0 00-.2-.3 2 2 0 00-.2-.3c-.1 0 0 0 0 .1 0 0 0 .2.2.2a1.3 1.3 0 01.1.4h.1zm-.2-1.5l.7-.4c.2-.1.4-.2.5-.1v-.1h-.6a3 3 0 00-.7.5v.1zm-.9-.1a4 4 0 00-.6-.5 1 1 0 00-.5-.2v.1l.4.2.6.5h.1v-.1"/></g></g><g clip-path="url(#cK)"><g clip-path="url(#cL)"><path d="M157.4 60.9a.1.1 0 000 .1v.1a.1.1 0 00.2 0 .1.1 0 00-.2-.2m0-.1a.2.2 0 00-.2.2.2.2 0 00.2.2.2.2 0 00.3-.2.2.2 0 00-.3-.2m0-.1a.3.3 0 00-.3.3.3.3 0 00.3.3.3.3 0 00.4-.3.3.3 0 00-.3-.3m-2.6 0l.2.2a.1.1 0 01-.2.1.1.1 0 01-.1-.1.1.1 0 01.1-.2m0 0c.2 0 .3 0 .2.2a.2.2 0 01-.2.2.2.2 0 01-.2-.2.2.2 0 01.2-.2m0-.1a.3.3 0 110 .6.3.3 0 01-.3-.3.3.3 0 01.3-.3"/></g></g><g clip-path="url(#cM)"><g clip-path="url(#cN)"><path d="M167.2 61.3c.6-.2 1.1-.2 1.7.1l.5.4a7 7 0 01.7-.5 4 4 0 011.1-.7 4.7 4.7 0 011.7-.5h1.8c.5 0 1 .1 1.5.4l1.2.6 1.3.7a5.6 5.6 0 002.9.2c.2 0 .4.1.1.3-2 1.3-3.7.1-5-.4l1.3 1c.5.6 1 1.1 2.1 1.6a5.3 5.3 0 003.2.4l.2.1v.3a3 3 0 01-1.7.5c-1 0-2.2-.3-3.2-.9-.9-.4-1.4-1-2.1-1.5-.7-.5-1.2-.7-1.9-.9h-1.8l.4.3c.3.2.7.2 1.2.3.3 0 .2.2-.2.5-.3.3-.6.5-1 .4-.7.4-.9.2-1.1 0a1.8 1.8 0 01-.1.4.4.4 0 010 .3v.4a.4.4 0 00.2.3l.2.4c0 .1 0 .2.2.3l.3.3c.4.1.6.4.6.8.3 0 .4.3.5.5l.4.3h1.6c.5.1.9.4 1.3.8h.7l.8-.2h1.5l.7.5c.3.3.8.3 1.1.1.6-.2 1-.2 1.5 0a1.4 1.4 0 01.7 0 .8.8 0 01.6-.3c.3 0 .6 0 .5.5l-.1.2c-.2.4-.5.5-.9.4 0 .3-.1.5-.3.6.2.5 0 .7-.4.7 0 .2-.2.3-.4.2a.9.9 0 01-.5.4l.1.3c.3.4-.1.6-.5.6l.1.8c.4.3.4.5 0 .8.3.4.2.7-.2 1 0 .2 0 .5-.2.6-.2.1-.3.1-.2.3.2.4.1.8-.2.8l-.2.2a6.4 6.4 0 00-1 .6 6 6 0 01-1.2 1.5 1 1 0 01-.6.7.3.3 0 01-.2.2c.2.2.3.4.1.6-.2.3-.5.5-.8.6-.6.2-1 .1-1.3-.1-.2-.2-.1-.4 0-.5-.4 0-.4-.1-.4-.4l.2-.1.6-.2.3-.3c0-.5.3-.7.7-.8l.9-.8.5-1a.8.8 0 01-.2-.4 1 1 0 01-.3-.3c-.3 0-.4-.2-.4-.3a.6.6 0 01-.2 0h-.5l-.7.7c0 .2-.2.3-.4.3-.6 0-.9.8-1.2 1l-.2.5c0 .4-.1.6-.3.7h-.3a.8.8 0 00-.2 0c.2 0 .2.3 0 .5-.1.2-.3.2-.5.2l-1-.1c-.3-.1-.3-.3-.3-.5-.2 0-.3-.2-.2-.2 0-.2.1-.2.2-.2l.4-.1c.4-.4.7-.7 1.2-.9a1.8 1.8 0 01.4-.4c0-.3.3-.6.5-.9l.2-.3v-.2c-.1-.2-.2-.5-.1-.7a.8.8 0 010-.3c-.7.4-1 .2-1-.1-.2.2-.5.3-.6 0-.3 0-.5.2-.8 0a1.7 1.7 0 01-.4.2 2 2 0 01-.3.4c0 .3-.2.6-.4 1a5.9 5.9 0 01-.4.9.6.6 0 010 .3c0 .4-.1.6-.3.6 0 .2-.2.3-.3.5v.1l-.1.7-.6.3h-.6c-.3-.1-.3-.2-.3-.3a.4.4 0 01-.3 0l-.2-.2v-.3l.6-.4.2-.2c.1-.3.3-.4.4-.5l.5-.9v-.3l.1-.2s.1 0 0 0a.9.9 0 01.1-.8c.2-.3.4-1 .2-1.2v-.6h-.2c-.1 0-.3 0-.4.2l-.2.3c0 .5-.3 1-.6 1v.7c0 .3 0 .5-.2.5l-.3.3a.6.6 0 000 .2c.1.2 0 .5-.1.6-.4.4-.9.4-1.4.2-.4-.1-.5-.3-.4-.5-.5 0-.4-.4 0-.5.5-.2.8-.5 1.2-.9 0-.5.1-.8.4-.9l.2-.9c.2-.2.3-.5.2-.8-.3-.2-.3-.4 0-.6v-.1c-.2 0-.2-.2-.2-.4h-.1c-.4-.1-.3-.3-.2-.5.1 0 .2-.2 0-.2v-.3c-.3-.2-.2-.4 0-.6-.2 0-.2-.3-.2-.5-.5 0-.7-.2-.4-.5 0-.2.2-.3.4-.4 0-.2.2-.4.1-.5-.1-.4.3-.6.7-.9a.5.5 0 01-.1-.2c-.2-.2-.2-.4 0-.6a.6.6 0 010-.2c-.5 0-.5-.2-.3-.7-.3-.2-.2-.4.3-.9a.6.6 0 010-.2c-.2 0-.4 0-.5.2h-.6a1 1 0 00-.3-.3.4.4 0 01-.1-.4c-.6 0-.7-.4-.4-.6.2-.2.4-.3.4-.5l.8-1v-.3a1 1 0 00-.4-.2.8.8 0 00-.3-.4c-.1 0-.2 0-.1-.2-.3-.3-.2-.5-.2-.6"/></g></g><g clip-path="url(#cO)"><g clip-path="url(#cP)"><path d="M180.5 62.2h1l-1.1.5.1-.3a.3.3 0 000-.2" fill="red"/></g></g><g clip-path="url(#cQ)"><g clip-path="url(#cR)"><path d="M179.6 62.1l.8.1v.2a.4.4 0 01-.2.2l-.5.1a2.8 2.8 0 01-.2 0 .6.6 0 00.2-.3.4.4 0 000-.3" fill="red"/></g></g><g clip-path="url(#cS)"><g clip-path="url(#cT)"><path d="M173 60.3a8 8 0 011.3 0 .6.6 0 01.4.2v.5h.1v-.6a.6.6 0 00-.2-.2h.1a3.2 3.2 0 011.3.4c.1.1.2.2.1.3a.7.7 0 01-.1.4c.2-.1.3-.2.3-.4a.4.4 0 000-.2l1 .6a.3.3 0 010 .3l-.3.2c.3 0 .4 0 .4-.2a.4.4 0 00.1-.3l.7.4v.3l-.2.2c0 .1 0 0 0 0 .2 0 .3 0 .4-.2a.4.4 0 000-.2l.2.1.9.2v.3a.4.4 0 01-.1.2c-.9 0-1.7-.5-2.6-.8l-.3-.1-1-.4h-.1a5.8 5.8 0 00-.9-.3 3.9 3.9 0 00-1 0 .7.7 0 00-.1-.5.8.8 0 00-.3-.2" fill="red"/></g></g><g clip-path="url(#cU)"><g clip-path="url(#cV)"><path d="M171.6 60.7a5.2 5.2 0 011.2-.4c.2 0 .4.2.5.3v.4a2.9 2.9 0 00-.5 0 2.9 2.9 0 00-.6.1.8.8 0 00-.4-.4.8.8 0 00-.2 0" fill="red"/></g></g><g clip-path="url(#cW)"><g clip-path="url(#cX)"><path d="M177.8 76.2h-.1a5.8 5.8 0 01-.5.5c-.2-.2-.4 0-.2 0a5.6 5.6 0 010 .1c-.2.2-.2.3-.4.3h-.1a2 2 0 010-.4v.5c-.6.1-.9.7-1.2 1a1 1 0 00-.3.5l-.1.6h-.2-.2a4 4 0 00-.6 0c-.2.1.2.1.4.2v.3c-.1.4-1 .3-1.4.1-.2 0-.2-.1-.2-.3h.2a1 1 0 00.4-.1v-.1a.7.7 0 01-.4 0 1.6 1.6 0 01-.3 0s-.1 0 0 0l.5-.2c.3-.3.7-.7 1.2-.9a2 2 0 01.4-.4c.1-.4.3-.6.6-.9l.1-.4v-.3-.6a1 1 0 010-.4.2.2 0 000-.1l.2-.2.3-.2v.5a.6.6 0 00-.1.2.3.3 0 000 .1v-.1a.8.8 0 01.1-.1c.2 0 .3-.2.5-.3l.4-.4v.7a1.5 1.5 0 00-.3.4l.3-.4h.1a2 2 0 01.5-.3 1.8 1.8 0 000 .6c0 .2.2.3.4.5" fill="#f7db16"/></g></g><g clip-path="url(#cY)"><g clip-path="url(#cZ)"><path d="M176.2 63a7.6 7.6 0 00-.3-.2 4.3 4.3 0 00-2-.5c.3-.3.4-.5.3-.7a1 1 0 00-.4-.5h.6l1.2.4v.5c0 .2-.1.3-.3.4v.1c.3 0 .4-.3.5-.4a.8.8 0 000-.6l.6.5.6.4c0 .3 0 .4-.2.5h-.5v.1" fill="red"/></g></g><g clip-path="url(#da)"><g clip-path="url(#db)"><path d="M177.5 64l-1.2-.9h.6l.2-.6.7.6.4.3v.3a.3.3 0 010 .1.4.4 0 01-.2.1h-.5" fill="red"/></g></g><g clip-path="url(#dc)"><g clip-path="url(#dd)"><path d="M178.8 64.9a7.7 7.7 0 01-1.2-.8h.4a.4.4 0 00.2-.2.4.4 0 00.1-.2.8.8 0 000-.2 6.5 6.5 0 001.3 1l-.1.2-.6.1h-.1" fill="red"/></g></g><g clip-path="url(#de)"><g clip-path="url(#df)"><path d="M180.2 65.4a7.2 7.2 0 01-1.3-.5h.6c.2-.1.3-.2.3-.4l.8.3v.3l-.3.2s-.1 0 0 .1" fill="red"/></g></g><g clip-path="url(#dg)"><g clip-path="url(#dh)"><path d="M183.2 65.1h.1c-.8.6-2 .6-3 .3l.4-.2a.4.4 0 000-.3 6 6 0 001 .2.2.2 0 010 .2l-.3.2c0 .1 0 .1 0 0a.9.9 0 00.4-.1.3.3 0 000-.3h1.4" fill="red"/></g></g><g clip-path="url(#di)"><g clip-path="url(#dj)"><path d="M168.1 70.6l.1-.1a3.4 3.4 0 01.6-.8l-.3.5-.2.3v.1l.1.5.2-.3.3-.2a1 1 0 00.3-.4 1 1 0 010 .2l-.3.2a.9.9 0 00-.4.4s.1.2 0 .2c0 .2-.2.3 0 .5a.4.4 0 00.1.3c.1 0 0 .3 0 .4-.2.2 0 .1 0 .2l.3-.3s0-.2.2-.2a1.4 1.4 0 00.2-.3.8.8 0 000-.4h.1a.8.8 0 010 .4 1.3 1.3 0 01-.3.3 2.7 2.7 0 00-.2.2 1.5 1.5 0 00-.2.3c.2 0 .2.3.2.4l.2-.1.1-.2c.1 0 0 0 0 0v.2l-.2.2v.3c-.2.2-.2.3 0 .4v1-.2c-.2.4-.4.7-.4 1.1-.4.1-.4.5-.4.9-.3.4-.7.7-1.2.9 0 0-.3 0-.3.2 0 0 .1.1.2 0 .3-.2.5 0 .1.2v.2c.4.3 1.1.3 1.4.1.3-.1.4-.3.2-.5 0-.3.1-.7.5-.8v-.2-.8l.1-.1c.2 0 .4-.4.5-.8v-.2c0-.2.1-.2.2-.1v-.2c.2-.2.4-.4.6-.3a1.9 1.9 0 010-.5v-.6l.3-.5a20.5 20.5 0 01.2-.5l-.2.5-.2.4v.7l.1.6.1.3v.3c.3.4 0 1-.1 1.4a.7.7 0 00-.1.5c.1.1 0 .3-.1.4a.5.5 0 01-.1.4l-.4 1c-.3 0-.3.2-.4.4-.2 0-.2 0-.3.2a1.6 1.6 0 01-.5.4c-.2 0 0 .2.1.2.1.1.3 0 .4-.2 0-.2.2-.1.1 0l-.1.4.4.2.8-.3v-.5h-.3a2.5 2.5 0 01-.3-.2h.6l.3-.6c.3-.1.3-.2.3-.5a.6.6 0 000-.4l.5-1c.2-.2.3-.5.3-.8 0-.2 0-.3.2-.3l.1-.3.1-.2a.5.5 0 01.1-.1.6.6 0 000-.3.7.7 0 000-.3.3.3 0 010-.1c-.1 0 0-.1 0-.2v.2a.7.7 0 01.1.4.6.6 0 010 .3.3.3 0 000 .1 1 1 0 00-.2.2h.5a.9.9 0 00.2-.4 1.1 1.1 0 00.1-.3c.1 0 0 0 0 0a1.3 1.3 0 010 .4l-.2.2h.7v-.8a1 1 0 01.2-.5 1 1 0 00-.2.5v.7c.1.2.2.3.4.2a1.4 1.4 0 00.2-.2 8.3 8.3 0 011.1-1 7.2 7.2 0 00-1 .9.8.8 0 010 .2c0 .2.1.3.4.2l.4-.2a1 1 0 01.2 0 4.1 4.1 0 01.6-.5v-.3l.5-.8a1.5 1.5 0 00.7-.8 1.5 1.5 0 01-.6.8l-.5.8a1.6 1.6 0 000 .3v.6l.4-.2.4-.5.2-.3a.6.6 0 01.2-.2.5.5 0 00-.2.2 1 1 0 00-.1.3v.7a2.2 2.2 0 01.6-.3v.6a.9.9 0 00.3.5 1.8 1.8 0 01.3-.4 4 4 0 01.2-.1l.1-.2.1-.1c.1 0 .1 0 0 0a4.2 4.2 0 01-.2.3 1.6 1.6 0 00-.2.2v.2h.4c0 .4 0 .4.3.4v-.3-.3h.1v.6a.7.7 0 00.4.4 1 1 0 00.1-.3.8.8 0 000-.3h.1a1 1 0 010 .3 1.2 1.2 0 01-.2.4v.3l.2-.2a1 1 0 01.1-.3c.1 0 .1 0 0 0a1 1 0 000 .3l-.2.2.1.2c-.4.6-.8 1.5-1.5 1.8-.4.2-.6.3-.7.8a1.3 1.3 0 00-.3.3c-.3.1-.5.3-.8.2 0 .2.1.3.3.3l.4-.2s0 .3-.3.5c.2.4.8.3 1.2.2.2 0 .6-.3.7-.6l-.1-.3c-.5 0-.4-.4 0-.2.1 0 .2 0 .2-.2.4-.1.5-.3.6-.7l1-1.3v-.3a.7.7 0 00.2-.3v-.2h.1v.3l-.1.2s0 .1 0 0l1-.6.3-.2h.1v-.6c-.2-.2 0-.3.1-.4.2-.1.2-.4.2-.6v-.1a1.5 1.5 0 000-.2 1.5 1.5 0 010 .2c.2 0 .4-.1.4-.3.1-.2 0-.4-.1-.6l-.1.1-.3.1.2-.2h.2a.8.8 0 00.2-.2c.1-.2-.2-.3-.3-.4l-.4-.4c.2 0 .3.2.4.3a1.8 1.8 0 000-.7v-.2h-.1a.8.8 0 01-.3-.3.7.7 0 010-.3.5.5 0 000 .3l.3.2h.6c.2-.2 0-.4-.2-.5v-.4a.4.4 0 00-.2-.1v-.1a.4.4 0 01.2 0 .6.6 0 01.1.2c.3 0 .4-.2.5-.3a2 2 0 00-.2-.3 8.1 8.1 0 00-.3-.2 12 12 0 01.6.4l.3-.1a.9.9 0 00-.1-.3 1.4 1.4 0 00-.2-.2l.3.2a.9.9 0 010 .3h.3c.2-.2 0-.6 0-.7a2.1 2.1 0 01-.1-.1c0-.1 0 0 0 0h.2c.2 0 .2-.2.2-.3.1-.3.1-.2.4-.2.2 0 .4 0 .5-.4.1 0 .2 0 .2-.2s0-.2-.2-.3c-.3 0-.5 0-.7.3 0 .1.1.1 0 .1a1.5 1.5 0 00-.8 0v.2a.7.7 0 01.1.3.7.7 0 000-.3 1.3 1.3 0 00-.3-.3 1.6 1.6 0 00-.6 0h.1l.1.2-.1-.1a3.8 3.8 0 01-.2-.2l-.5.2h-.4l.3.4.1.4a1.2 1.2 0 00-.4-.7 1 1 0 01-.4 0l.2.2-.2-.2a.8.8 0 01-.3-.1 3.8 3.8 0 01.1 1 4.1 4.1 0 000-.6l-.2-.5a1 1 0 01-.1-.1 1.3 1.3 0 00-.4-.3.6.6 0 01-.1.5.5.5 0 000-.5 2 2 0 00-.6-.2l.2.3.1.3.2.2v.3a1.4 1.4 0 000-.2.4.4 0 00-.2-.3 3.2 3.2 0 00-.4-.6h-.2a.4.4 0 010 .2.3.3 0 000-.1.5.5 0 00-.1 0h-.5a3.3 3.3 0 01.6 1.4 3 3 0 00-.7-1.5l-.4.1a1.2 1.2 0 01.3.3.9.9 0 00-.2-.1 2.1 2.1 0 00-.2-.2l-.1.1h-.2a2.6 2.6 0 01.7.7 2.3 2.3 0 00-.4-.3 2.7 2.7 0 00-.3-.3h-.4l.2.5v.6a2.3 2.3 0 000-.6 4 4 0 00-.3-.5 5.3 5.3 0 01-.3 0 6 6 0 01.2 1 5.2 5.2 0 00-.1-.5 5.7 5.7 0 00-.1-.6c-.3-.2-.5-.5-.8-.6l.1.3a1 1 0 010 .4 1 1 0 00-.3-.7 1.1 1.1 0 00-.2 0 8.3 8.3 0 00-.6-.1l.3.4h-.1l-.3-.4h-.4a1.1 1.1 0 01.3.5l.1.4a.6.6 0 00.3.2.7.7 0 01-.3-.2 1 1 0 01-.2-.4.7.7 0 000-.3 1.5 1.5 0 00-.3-.2h-.4l.1.5v.6a4.8 4.8 0 000-.6 2.6 2.6 0 00-.2-.5.6.6 0 00-.3-.3.4.4 0 010 .2h-.1a.3.3 0 000-.2c-.1-.3-.2-.5-.4-.5v.2a.9.9 0 01-.1.3c-.1 0-.1 0 0 0a.8.8 0 000-.3v-.3c0-.4-.1-.6-.5-.7v.1a.8.8 0 010 .3h-.1a.7.7 0 000-.3 1.1 1.1 0 000-.2l-.3-.3v.4l-.3.5c-.1 0 0 0 0 0l.2-.5V66a.6.6 0 01-.1-.2v.2h-.1v-.2-.1a.5.5 0 00-.1-.3v.1a1 1 0 01-.2.2.7.7 0 00.1-.4.6.6 0 010-.1.5.5 0 01-.1.1.7.7 0 01-.1.1h-.1a1 1 0 00.1-.1.3.3 0 000-.2c.1 0 .1 0 0 0v-.5a.5.5 0 00-.2 0l-.3.2.2-.2a.5.5 0 01.3 0v-.2l-.7.1a1 1 0 01-.5 0c0-.1 0 0 0 0a1 1 0 00.5 0c.2 0 .4 0 .7-.2l.1-.3a1 1 0 01-.3 0l.3-.1a1 1 0 000-.1c0-.2.2-.2.3 0l.3.2c.1 0 .3 0 .5-.2h-.1.1c.5 0 .7 0 1-.3a4.9 4.9 0 01-.6 0 1.4 1.4 0 01-.5-.2h.5l.6.1a.7.7 0 00.3-.2c-.4 0-.8-.2-1.2-.4a.8.8 0 00-.4-.2 1.4 1.4 0 00-.9.2l-.1-.2h-.7v-.1h.8l1-.2a3.5 3.5 0 011.1-.1v-.1c.2-.2.2-.4.2-.6l-.5-.4h-1.3l.3.3.3.6h-.1a1.1 1.1 0 00-.3-.5c0-.2-.3-.2-.4-.3a5.9 5.9 0 00-.8.1c-.2 0-.4.2-.5.3a.8.8 0 01.5 0c.2 0 .3.2.4.5h-.1c0-.2-.2-.3-.3-.4-.3-.1-.8 0-1 .2a2.6 2.6 0 00-.4.3h-.1l.4-.5.4-.2.6-.3a5.7 5.7 0 01.9-.1.7.7 0 00-.4-.3.9.9 0 00-.4-.1l-1 .5h.4v.1h-.3a.7.7 0 00-.2 0l-1 .8-.6.1v.3l-.2.5c-.3.3-.7.6-.8 1a.9.9 0 01-.2.3.3.3 0 01.2 0v-.1a.8.8 0 01.1-.3c.1 0 0 0 0 0a.7.7 0 000 .3v.3h-.1a.2.2 0 000-.1.3.3 0 00-.3 0l-.2.1-.1.2c0 .2.2.2.3.2.4 0 .1.2.3.4l.3.3h.3l.1-.4v-.1a.6.6 0 01.1-.2c.1 0 .1 0 0 0a.5.5 0 000 .3v.3l.6-.2c.4-.5.6-.3.3 0l-.1.1a.9.9 0 00-.1.4c-.1 0-.6.5-.5.7h.2l-.2.6h.2a3.4 3.4 0 00.8-.8l.2-.5a7.5 7.5 0 01.2-.5l.2.2a.2.2 0 00.2 0h.1a.6.6 0 00.2-.2.8.8 0 01-.2.2.3.3 0 01-.1.1.3.3 0 01-.2 0 1 1 0 01-.2-.2l-.1.4-.2.4v.1a2.6 2.6 0 01-.4.5 4 4 0 01-.3.4v.3l.7-.6.5-.6-.2.3v.7a3.1 3.1 0 01-.1-.4v-.1l-.1.2a7 7 0 01-.7.6c-.2.1-.3.2-.1.4l.2-.2.3-.1-.2.2-.3.1a.4.4 0 000 .3h.1l.5-.4c.1 0 0 0 0 0 0 .2-.2.3-.4.4-.2.2-.8.5-.7.8l.4-.2.4-.3v.1a1.6 1.6 0 01-.4.3v.1a2.1 2.1 0 01-.4 0c0 .3 0 .5-.2.7 0 0-.7.5-.4.6a.6.6 0 00.2 0" fill="#f7db16"/></g></g><g clip-path="url(#dk)"><g clip-path="url(#dl)"><path d="M178 76a.8.8 0 01-.2.2 1.6 1.6 0 01.3-.4v.2"/></g></g><g clip-path="url(#dm)"><g clip-path="url(#dn)"><path d="M179.3 78.7a1.4 1.4 0 01-.2.3l-.3.2c-.1 0 0 0 0 0l.2-.3.2-.2h.1"/></g></g><g clip-path="url(#do)"><g clip-path="url(#dp)"><path d="M180.1 77.8l-.1.1v-.2h.1"/></g></g><g clip-path="url(#dq)"><g clip-path="url(#dr)"><path d="M179.7 77.7a.7.7 0 01-.1.3.7.7 0 01-.3.2V78a.6.6 0 00.2-.2.6.6 0 00.1-.2"/></g></g><g clip-path="url(#ds)"><g clip-path="url(#dt)"><path d="M180.5 76.7a.6.6 0 00-.1.1v.2h-.1v-.2l.1-.1"/></g></g><g clip-path="url(#du)"><g clip-path="url(#dv)"><path d="M181.1 76.8v.3a1.6 1.6 0 01-.2.2V77l.1-.2h.1"/></g></g><g clip-path="url(#dw)"><g clip-path="url(#dx)"><path d="M180.8 73l.3.9v-.3a1 1 0 00.2-.4 1 1 0 000-.4.9.9 0 010 .4 1 1 0 010 .4l-.2.6h-.1c0-.4 0-.8-.2-1.2"/></g></g><g clip-path="url(#dy)"><g clip-path="url(#dz)"><path d="M180.3 73.6v0"/></g></g><g clip-path="url(#dA)"><g clip-path="url(#dB)"><path d="M180.2 74.5a3.6 3.6 0 01.1.8.7.7 0 01.3-.2.7.7 0 00-.2.2.5.5 0 000 .2h-.1a3.3 3.3 0 00-.2-1m.8.3a2.3 2.3 0 010 .7v-.3a2.6 2.6 0 000-.4c-.1 0-.1 0 0 0"/></g></g><g clip-path="url(#dC)"><g clip-path="url(#dD)"><path d="M181.5 74.7v.3a1 1 0 010 .4.7.7 0 00-.1.3l.1.4a1.7 1.7 0 01-.2-.4.8.8 0 010-.4.8.8 0 00.1-.3 1.4 1.4 0 000-.3"/></g></g><g clip-path="url(#dE)"><g clip-path="url(#dF)"><path d="M181.7 73.7v.2a6 6 0 010 .2h-.1v-.2-.2h.1"/></g></g><g clip-path="url(#dG)"><g clip-path="url(#dH)"><path d="M181.5 72v.2c0 .1 0 0 0 0l-.1-.1"/></g></g><g clip-path="url(#dI)"><g clip-path="url(#dJ)"><path d="M181.6 70.8v.5a.5.5 0 00-.1.3.9.9 0 000 .3h-.1a.9.9 0 010-.3.5.5 0 01.2-.3v-.4"/></g></g><g clip-path="url(#dK)"><g clip-path="url(#dL)"><path d="M180.4 70.4l.4.4a1 1 0 01.2.6 7.9 7.9 0 01-.4 0v1a1 1 0 01-.6.6v-.5a2.2 2.2 0 000-.6h.1a2.4 2.4 0 010 1 1 1 0 00.4-.5c.1-.3.2-.7 0-1.1h.4a.9.9 0 00-.1-.4 1.6 1.6 0 00-.5-.4c0-.1 0 0 0 0"/></g></g><g clip-path="url(#dM)"><g clip-path="url(#dN)"><path d="M183.6 69.8v.1h-.1v-.1c.1 0 0 0 0 0"/></g></g><g clip-path="url(#dO)"><g clip-path="url(#dP)"><path d="M182.8 69.8a.5.5 0 01.2 0v.2s.1 0 0 0a.4.4 0 00-.2-.2"/></g></g><g clip-path="url(#dQ)"><g clip-path="url(#dR)"><path d="M181.7 70l.2.4v.4a1.1 1.1 0 000-.4.7.7 0 00-.2-.3"/></g></g><g clip-path="url(#dS)"><g clip-path="url(#dT)"><path d="M178 70.5a.7.7 0 00-.1.2.7.7 0 000-.1v-.1"/></g></g><g clip-path="url(#dU)"><g clip-path="url(#dV)"><path d="M178.6 70v.3h.1a3.1 3.1 0 00-.1-.2"/></g></g><g clip-path="url(#dW)"><g clip-path="url(#dX)"><path d="M180 71v.2a.2.2 0 000-.1"/></g></g><g clip-path="url(#dY)"><g clip-path="url(#dZ)"><path d="M180.6 70v.1a.1.1 0 000-.1s-.1 0 0 0"/></g></g><g clip-path="url(#ea)"><g clip-path="url(#eb)"><path d="M177.1 70.1v.3l.2.1a.6.6 0 01.1.3v0a.5.5 0 00-.2-.2.6.6 0 01-.1-.2.6.6 0 010-.3"/></g></g><g clip-path="url(#ec)"><g clip-path="url(#ed)"><path d="M178.5 71l.2.5v.4a.7.7 0 000 .5l.4.4a1.8 1.8 0 010-.5c0-.2 0-.4.2-.6a1 1 0 00.1-.3 1.3 1.3 0 000-.2h.1v.2a.9.9 0 01-.2.3 1 1 0 00-.2.6l.1.6a1.6 1.6 0 01-.5-.4.8.8 0 01-.1-.6 1.5 1.5 0 000-.4 1 1 0 00-.1-.4"/></g></g><g clip-path="url(#ee)"><g clip-path="url(#ef)"><path d="M178 72l-.2.4a1.9 1.9 0 01-.2.3h.2a1.3 1.3 0 00.4-.3l.2-.2a2 2 0 01-.2.2l-.1.2v.2a1.4 1.4 0 000-.1 1.3 1.3 0 01-.3 0l-.3.1.3-.4a1 1 0 00.1-.5"/></g></g><g clip-path="url(#eg)"><g clip-path="url(#eh)"><path d="M177.3 71.9v.1-.1"/></g></g><g clip-path="url(#ei)"><g clip-path="url(#ej)"><path d="M176.9 71v.6a1.2 1.2 0 01-.2.6 1.2 1.2 0 00-.3.4l-.1.3a1 1 0 010-.1.7.7 0 01.4-.2l.4-.3.3-.3a2.5 2.5 0 01-.3.4 3.3 3.3 0 01-.4.2.6.6 0 00-.3.2 1.3 1.3 0 00-.2.3l.1-.6.3-.4c.2-.1.2-.3.3-.5l-.1-.5c0-.1 0 0 0 0"/></g></g><g clip-path="url(#ek)"><g clip-path="url(#el)"><path d="M178.2 73.3l.1.2h.1l.2.6-.1.5a1.1 1.1 0 00-.3-.5 2.1 2.1 0 00-.5-.5l.5.4.3.5V74a.8.8 0 00-.1-.5h-.1c-.1-.2-.2-.3-.1-.4"/></g></g><g clip-path="url(#em)"><g clip-path="url(#en)"><path d="M178.8 73.2h.1v.2a1.4 1.4 0 01-.1-.1c0-.1 0-.1 0 0"/></g></g><g clip-path="url(#eo)"><g clip-path="url(#ep)"><path d="M179.5 73.4v.5l-.2.4v-.4l.2-.5"/></g></g><g clip-path="url(#eq)"><g clip-path="url(#er)"><path d="M180 75.9v.1h-.1a.3.3 0 010-.2"/></g></g><g clip-path="url(#es)"><g clip-path="url(#et)"><path d="M179.5 75.2v.4h-.1v-.5h.1c.1 0 0 0 0 0"/></g></g><g clip-path="url(#eu)"><g clip-path="url(#ev)"><path d="M179 75.2h-.1"/></g></g><g clip-path="url(#ew)"><g clip-path="url(#ex)"><path d="M178.2 74.8v.1l-.1.2V74.7"/></g></g><g clip-path="url(#ey)"><g clip-path="url(#ez)"><path d="M177.1 76a.7.7 0 000 .2h-.1a.6.6 0 010-.3h.1"/></g></g><g clip-path="url(#eA)"><g clip-path="url(#eB)"><path d="M174.2 78.8a.5.5 0 01-.2.2.6.6 0 000-.1.3.3 0 00.1-.1"/></g></g><g clip-path="url(#eC)"><g clip-path="url(#eD)"><path d="M174.6 78.6a.4.4 0 01-.1.1.2.2 0 000-.1h.1"/></g></g><g clip-path="url(#eE)"><g clip-path="url(#eF)"><path d="M175.2 78.2a.6.6 0 010 .1h-.1v-.1h.1"/></g></g><g clip-path="url(#eG)"><g clip-path="url(#eH)"><path d="M176.2 75.8a1.5 1.5 0 000 .2v.3h-.1a1 1 0 010-.3 1.4 1.4 0 010-.2"/></g></g><g clip-path="url(#eI)"><g clip-path="url(#eJ)"><path d="M176.8 69.3a.6.6 0 010 .2.8.8 0 01-.2.3.9.9 0 000-.3.5.5 0 00.1-.2h.1"/></g></g><g clip-path="url(#eK)"><g clip-path="url(#eL)"><path d="M176.2 68.8a1 1 0 010 .6 1 1 0 000-.6c-.1 0-.1 0 0 0"/></g></g><g clip-path="url(#eM)"><g clip-path="url(#eN)"><path d="M175.3 69.8a1 1 0 01-.2-.2.4.4 0 01-.1-.3.3.3 0 00.1.2l.2.3"/></g></g><g clip-path="url(#eO)"><g clip-path="url(#eP)"><path d="M176.3 71.4v.2h-.1v-.2"/></g></g><g clip-path="url(#eQ)"><g clip-path="url(#eR)"><path d="M175 70.2l.4.7v.4c.2 0 .2 0 .3-.2v-.5l.2-.4v-.3h.1l.3.4.1.6a1.8 1.8 0 00-.2-.5 2.6 2.6 0 00-.2-.4 2 2 0 010 .2l-.2.4a1.7 1.7 0 010 .5l-.3.3v.2h-.1V71a1.2 1.2 0 00-.4-.6c0-.1 0-.1 0 0"/></g></g><g clip-path="url(#eS)"><g clip-path="url(#eT)"><path d="M175.8 73.3v.2l-.1.3v-.6"/></g></g><g clip-path="url(#eU)"><g clip-path="url(#eV)"><path d="M174.4 73.8v.2-.2"/></g></g><g clip-path="url(#eW)"><g clip-path="url(#eX)"><path d="M175.6 72.3l-.1.3-.2.4a.7.7 0 00-.2.4v.4l-.1-.4a.8.8 0 01.2-.5 1.3 1.3 0 00.3-.6"/></g></g><g clip-path="url(#eY)"><g clip-path="url(#eZ)"><path d="M175.3 71.8a.7.7 0 010 .4 1.2 1.2 0 01-.3.3 1.1 1.1 0 00-.3.3l-.1.4h-.1c0-.2 0-.3.2-.4l.2-.3.3-.3a.5.5 0 000-.4"/></g></g><g clip-path="url(#fa)"><g clip-path="url(#fb)"><path d="M173.8 72.5l-.1.7-.5.5.4-.6v-.6h.1"/></g></g><g clip-path="url(#fc)"><g clip-path="url(#fd)"><path d="M171.8 73.6v.1l.1.1-.1-.2"/></g></g><g clip-path="url(#fe)"><g clip-path="url(#ff)"><path d="M171 73.6l.1.4.2.4.1.3v.3l.2-.3a.9.9 0 00.1-.4h.1v.4a1.4 1.4 0 01-.4.4 2.3 2.3 0 000-.3 1.1 1.1 0 00-.1-.3 1.2 1.2 0 01-.2-.4 1.6 1.6 0 01-.1-.5"/></g></g><g clip-path="url(#fg)"><g clip-path="url(#fh)"><path d="M171.2 76.2V76v-.3h.1a1.3 1.3 0 000 .3v.2h-.1"/></g></g><g clip-path="url(#fi)"><g clip-path="url(#fj)"><path d="M171 77l.1-.4v.3"/></g></g><g clip-path="url(#fk)"><g clip-path="url(#fl)"><path d="M170.6 78.1a1.3 1.3 0 00.1-.1l.1-.2h.1a5 5 0 01-.1.2 1.3 1.3 0 01-.2.2"/></g></g><g clip-path="url(#fm)"><g clip-path="url(#fn)"><path d="M169.9 74v.2h-.1V74"/></g></g><g clip-path="url(#fo)"><g clip-path="url(#fp)"><path d="M168.6 76.9v-.2h.1v.2"/></g></g><g clip-path="url(#fq)"><g clip-path="url(#fr)"><path d="M171.7 71.9l-.1.6c0 .2 0 .3.2.4l.3.4v-.2a1.2 1.2 0 000-.2l.1.2v.4h-.1a3 3 0 010-.1l-.3-.4c-.2-.1-.3-.3-.3-.5l.1-.6h.1"/></g></g><g clip-path="url(#fs)"><g clip-path="url(#ft)"><path d="M171.5 71v.5a2.4 2.4 0 01-.2.5 1.6 1.6 0 000 1.3c.1 0 .1 0 0 0a1.6 1.6 0 010-1.3l.1-.5v-.4"/></g></g><g clip-path="url(#fu)"><g clip-path="url(#fv)"><path d="M170 73a.5.5 0 000 .4s0 .2.2.3h-.1a1 1 0 01-.1-.3.6.6 0 010-.3"/></g></g><g clip-path="url(#fw)"><g clip-path="url(#fx)"><path d="M169.4 72.9a.8.8 0 010 .2.5.5 0 010 .1.3.3 0 000 .2.5.5 0 000 .2.6.6 0 010-.2.3.3 0 010-.2.6.6 0 000-.1.6.6 0 000-.2"/></g></g><g clip-path="url(#fy)"><g clip-path="url(#fz)"><path d="M173 67.5a1.5 1.5 0 00.3 1 1.6 1.6 0 01-.3-.5 1.4 1.4 0 010-.5"/></g></g><g clip-path="url(#fA)"><g clip-path="url(#fB)"><path d="M172.6 68a2.6 2.6 0 01.3 1 2.4 2.4 0 00-.3-1c0-.1 0 0 0 0"/></g></g><g clip-path="url(#fC)"><g clip-path="url(#fD)"><path d="M170.4 68c-.3.3-.3.6-.4.8 0 .2 0 .4.2.5a1.5 1.5 0 010 1s0 .1-.1 0V70v-.5a1 1 0 01-.1-.6c0-.3 0-.5.3-.8"/></g></g><g clip-path="url(#fE)"><g clip-path="url(#fF)"><path d="M172.5 67.1a.5.5 0 010 .3.7.7 0 01-.3.2.5.5 0 00-.2.3 1 1 0 000 .5 1.2 1.2 0 010-.5.6.6 0 01.2-.3.6.6 0 00.2-.2.4.4 0 000-.3"/></g></g><g clip-path="url(#fG)"><g clip-path="url(#fH)"><path d="M170.2 67.3a.7.7 0 010 .4 1 1 0 01-.2.4.7.7 0 00-.2.4l-.1.4v-.5a.8.8 0 01.3-.3.9.9 0 00.2-.4.6.6 0 000-.4"/></g></g><g clip-path="url(#fI)"><g clip-path="url(#fJ)"><path d="M171.5 67.4a1 1 0 000 .1v.1c0 .1 0 .1 0 0a.4.4 0 010-.2"/></g></g><g clip-path="url(#fK)"><g clip-path="url(#fL)"><path d="M171.5 67a.5.5 0 00-.3.3l-.1.4a.8.8 0 01.1.4v.4a1.4 1.4 0 000-.4.8.8 0 00-.2-.3 1 1 0 00-.3.8c0 .2 0 .5.3.9-.3-.3-.4-.7-.4-1 0-.2.1-.5.4-.7a1.1 1.1 0 01.1-.5.6.6 0 01.3-.3"/></g></g><g clip-path="url(#fM)"><g clip-path="url(#fN)"><path d="M171 66.6v.5a.5.5 0 00-.2.2 1.2 1.2 0 000 .2h-.1v-.3a.5.5 0 01.2-.2l.1-.4h.1"/></g></g><g clip-path="url(#fO)"><g clip-path="url(#fP)"><path d="M174.6 70.3l.1.3v.2a.8.8 0 000-.2 1.2 1.2 0 00-.1-.2"/></g></g><g clip-path="url(#fQ)"><g clip-path="url(#fR)"><path d="M174.6 71.5v.4a1.4 1.4 0 01-.1.4l-.1.4h-.1l.1-.4.2-.4a1 1 0 000-.4"/></g></g><g clip-path="url(#fS)"><g clip-path="url(#fT)"><path d="M174 70.4c.1.3.3.5.3.8a1.6 1.6 0 010 .8v-.8a1.7 1.7 0 00-.4-.7c0-.1 0 0 0 0"/></g></g><g clip-path="url(#fU)"><g clip-path="url(#fV)"><path d="M173.8 71.7a3.2 3.2 0 01-.5.8l-.2.3a1.6 1.6 0 00-.1.3h-.1a.8.8 0 000-.3 1 1 0 00-.2-.3.8.8 0 01-.1-.5 1 1 0 01.2-.5 1.6 1.6 0 00.2-.7 1.6 1.6 0 01-.2.7 1 1 0 00-.2.5.8.8 0 00.2.5 1.2 1.2 0 01.2.5v-.2l.3-.3a3.2 3.2 0 00.5-.8"/></g></g><g clip-path="url(#fW)"><g clip-path="url(#fX)"><path d="M172 71.1v.5l.1.3c0 .1 0 .1 0 0a1.5 1.5 0 01-.2-.3 2 2 0 010-.5"/></g></g><g clip-path="url(#fY)"><g clip-path="url(#fZ)"><path d="M170.8 71.7v.2-.2"/></g></g><g clip-path="url(#ga)"><g clip-path="url(#gb)"><path d="M171.2 70.7a1 1 0 010 .3.8.8 0 01-.2.3c-.1 0-.1 0 0 0a.8.8 0 00.1-.6"/></g></g><g clip-path="url(#gc)"><g clip-path="url(#gd)"><path d="M170.2 72.6c-.2-.4-.2-.8-.2-1 0-.3.2-.6.4-.7l.2-.4.1-.6a1.2 1.2 0 010 .6 1.4 1.4 0 01-.3.4 1.2 1.2 0 00-.3.7l.1 1"/></g></g><g clip-path="url(#ge)"><g clip-path="url(#gf)"><path d="M169.6 72a.4.4 0 000 .1.5.5 0 000 .2c0 .1 0 0 0 0a.6.6 0 010-.2.5.5 0 010-.2"/></g></g><g clip-path="url(#gg)"><g clip-path="url(#gh)"><path d="M172.4 70l.2.4a1 1 0 01-.1.6 1 1 0 000-.6 1 1 0 00-.1-.5"/></g></g><g clip-path="url(#gi)"><g clip-path="url(#gj)"><path d="M173.3 69.2l.1.5a1.6 1.6 0 010 .6h-.1a1.1 1.1 0 00-.1-.5 1 1 0 00-.3-.3 1 1 0 01.4.6v-.4a1.3 1.3 0 000-.5"/></g></g><g clip-path="url(#gk)"><g clip-path="url(#gl)"><path d="M173.8 68.5a1 1 0 01.3.5v.6a1.3 1.3 0 000 .3l.1.3a.7.7 0 01-.1-.3 1.4 1.4 0 010-.3 2.2 2.2 0 00-.1-.6 1 1 0 00-.2-.4c0-.1 0-.1 0 0"/></g></g><g clip-path="url(#gm)"><g clip-path="url(#gn)"><path d="M172.4 68.4a.6.6 0 00-.1.3v.4a1.2 1.2 0 010-.4.8.8 0 010-.4h.1"/></g></g><g clip-path="url(#go)"><g clip-path="url(#gp)"><path d="M169.7 70.2c0 .3 0 .5-.2.7a1.5 1.5 0 01-.5.4l.5-.5.2-.6"/></g></g><g clip-path="url(#gq)"><g clip-path="url(#gr)"><path d="M169.7 69.3v.3l-.2.3v-.3a.7.7 0 000-.3h.1"/></g></g><g clip-path="url(#gs)"><g clip-path="url(#gt)"><path d="M171.5 69.1v.6-.5-.1"/></g></g><g clip-path="url(#gu)"><g clip-path="url(#gv)"><path d="M172 68.3a.8.8 0 00-.3.5c0 .1 0 .3.2.4.1.3.2.5.1.8a2 2 0 01-.2.7 2 2 0 00.2-.7 1.2 1.2 0 00-.2-.7 1.1 1.1 0 01-.1-.5.8.8 0 01.2-.5"/></g></g><g clip-path="url(#gw)"><g clip-path="url(#gx)"><path d="M168.4 62.6l-.5-.2a.9.9 0 00-.3-.4V62h.1a.7.7 0 01.2 0h.1c.1 0 0 0 0 0a.4.4 0 000-.1.7.7 0 00-.3 0 .5.5 0 00-.2 0l-.2-.4a.8.8 0 01.2 0l.2.2a.5.5 0 00-.1-.2h-.2c.5-.1 1-.1 1.4.1a1 1 0 01.5.4 1.6 1.6 0 00-.2.1c-.3 0-.5 0-.6.2l-.1.4" fill="#f7db16"/></g></g><g clip-path="url(#gy)"><g clip-path="url(#gz)"><path d="M169 63.2l.7-.2h1.2v.1c0 .1 0 0 0 0h-.5c-.2.3-.5.4-.6.5a.7.7 0 01-.6-.2.6.6 0 00.5 0c.2 0 .4 0 .6-.3a1.2 1.2 0 00-.6 0c-.2 0-.4 0-.6.2"/></g></g><g clip-path="url(#gA)"><g clip-path="url(#gB)"><path d="M169.7 63.1c.1 0 .2 0 .2.2a.2.2 0 01-.2.1.2.2 0 01-.1-.1l.1-.2"/></g></g><g clip-path="url(#gC)"><g clip-path="url(#gD)"><path d="M170.8 64a1.2 1.2 0 00.5-.3 1.6 1.6 0 01-.1.3 1.4 1.4 0 01-.3.2V64"/></g></g><g clip-path="url(#gE)"><g clip-path="url(#gF)"><path d="M173.2 63.1a.3.3 0 01.1 0 .5.5 0 01.2.1c0 .1 0 .1 0 0a.5.5 0 00-.2 0 .3.3 0 00-.1 0"/></g></g><g clip-path="url(#gG)"><g clip-path="url(#gH)"><path d="M171.8 63.2a.5.5 0 01.3-.3.7.7 0 01.4 0 .6.6 0 00-.4 0 .4.4 0 00-.2.3"/></g></g><g clip-path="url(#gI)"><g clip-path="url(#gJ)"><path d="M172 63.4a.3.3 0 010-.1l.2-.1a.3.3 0 000 .1.2.2 0 00-.1.1h-.1"/></g></g><g clip-path="url(#gK)"><g clip-path="url(#gL)"><path d="M169.8 64.1a.8.8 0 00-.1.2.5.5 0 000 .2h-.1a.6.6 0 01.1-.4c.1 0 0 0 0 0"/></g></g><g clip-path="url(#gM)"><g clip-path="url(#gN)"><path d="M170.4 64.4v0"/></g></g><g clip-path="url(#gO)"><g clip-path="url(#gP)"><path d="M170 63.7a.6.6 0 00.2 0 .9.9 0 00.2 0v.1a1 1 0 01-.2 0 .7.7 0 01-.2 0c0-.1 0 0 0 0"/></g></g><g clip-path="url(#gQ)"><g clip-path="url(#gR)"><path d="M170.4 62.5a.2.2 0 00-.1 0 .2.2 0 00-.1.2.3.3 0 010-.2.3.3 0 01.2 0"/></g></g><g clip-path="url(#gS)"><g clip-path="url(#gT)"><path d="M169.8 62.6a.5.5 0 00-.2 0 .2.2 0 000 .1.6.6 0 01.1-.2v.1m-.3 0l-.2.1a.4.4 0 000 .1.4.4 0 010-.1.6.6 0 01.1-.1"/></g></g><g clip-path="url(#gU)"><g clip-path="url(#gV)"><path d="M168.8 63l-.1.1a1.3 1.3 0 00-.1.2V63a1.2 1.2 0 01.2-.1"/></g></g><g clip-path="url(#gW)"><g clip-path="url(#gX)"><path d="M168.9 63.6l-.1.1-.1.1v-.1l.1-.1c.1 0 .1 0 0 0m-.4.2v.2h-.1v-.2"/></g></g><g clip-path="url(#gY)"><g clip-path="url(#gZ)"><path d="M169 64.6v0"/></g></g><g clip-path="url(#ha)"><g clip-path="url(#hb)"><path d="M168.6 64.3v0"/></g></g><g clip-path="url(#hc)"><g clip-path="url(#hd)"><path d="M168.3 61.5l.1.1.2.2h-.1a.4.4 0 00-.1-.1.4.4 0 00-.2-.1"/></g></g><g clip-path="url(#he)"><g clip-path="url(#hf)"><path d="M171.5 65.7a1 1 0 010 .9 1 1 0 000-.8"/></g></g><g clip-path="url(#hg)"><g clip-path="url(#hh)"><path d="M170.4 67l.2-.5.3-.3a1.1 1.1 0 00.2-.9v.5a1.1 1.1 0 01-.2.4l-.2.4-.2.4"/></g></g><g clip-path="url(#hi)"><g clip-path="url(#hj)"><path d="M169 66.6a.4.4 0 01.2-.2.6.6 0 01.2 0 .5.5 0 00-.2.1.3.3 0 000 .1h-.1"/></g></g><g clip-path="url(#hk)"><g clip-path="url(#hl)"><path d="M168.8 66.5l.2-.2a.7.7 0 01.2-.1.6.6 0 00-.2.2l-.1.2"/></g></g><g clip-path="url(#hm)"><g clip-path="url(#hn)"><path d="M170.2 65.1h.2a.4.4 0 00.1 0v.1a.5.5 0 01-.3 0"/></g></g><g clip-path="url(#ho)"><g clip-path="url(#hp)"><path d="M169.5 65h.1s0 .1 0 0"/></g></g><g clip-path="url(#hq)"><g clip-path="url(#hr)"><path d="M184.6 69.4a.7.7 0 01.2.2h-.1a.3.3 0 00-.1-.2"/></g></g><g clip-path="url(#hs)"><g clip-path="url(#ht)"><path d="M191 78.6c.2-.2.4-.1.6 0 .2-.2.5-.2.7-.2a1.3 1.3 0 01.4-.1v-.2a.4.4 0 01-.1-.2c-.4-.2-.6-.6-.7-.9-.2 0-.3-.1-.3-.2h-.4c-.5 0-.6-.2-.8-.3a.6.6 0 01-.3-.3l-.2-.2c-.1-.2 0-.4.1-.4h1c.2 0 .3-.2.5-.4V75c0-.1 0-.2.2-.2s.4.2.5.4c.3 0 .6.2.7.4.5 0 .7.2.8.3 0 .2-.1.3-.3.4a.6.6 0 010 .1.8.8 0 01.2.3l.7.4c.6 0 1.6.4 3 1.2.9.2 1.7.4 2.5.8h.6c1.4-.2 2.9 0 4.2 1 .5 0 1 .2 1.4.4l1 .2c.5 0 1 .2 1.6.4.6.2 1.2.4 1.6.8.2.3.1.6-.2.7-.2.4-.6.4-1.1.2-.4 0-.9-.2-1.3-.5l-1.5-.9a2 2 0 00-.8-.3h-.5a.8.8 0 01.3.6v.6c0 .2.2.4.4.6l.6.2c.2 0 .2.1.2.2 0 .4.1.7.3 1 0 .2 0 .2.2.3.4.2.2.5-.2.6a2 2 0 01-.8.5l-.4-.1a.3.3 0 01-.3-.2c-.3-.2 0-.6.7-.4v-.1l.1-.6-.2-.1a1.8 1.8 0 01-.7-.4l-1.4-.9c-.5 0-.8-.2-1.2-.4h-.4a.3.3 0 00-.4.1c-.1.2-.3.1-.5.1H200.2c-.3 0-.5 0-.7.2-.1.1-.3.1-.4 0a.6.6 0 01-.2 0l-.3-.2c-.3 0-.4-.2-.4-.3-.4 0-.2-.3 0-.4l.9.1c.2.1.5 0 .7-.1l.4-.3c-.5 0-.9-.1-1.2-.3-.7-.5-1.3-.6-1.7-.2-.2 0-.3.1-.4 0a.7.7 0 00-.4 0 1.4 1.4 0 01-.7 0 2.5 2.5 0 01-1.2 0c-.3.2-.5.2-.7 0a5.6 5.6 0 01-.4-.2l-.3-.1c-.3 0-.3-.2-.3-.3v-.3h.7l.3.2a.8.8 0 01.4 0h.5a1 1 0 01.5-.2v-.1c-.2 0-.4-.3-.5-.5-.4 0-.7-.1-1-.3a1 1 0 01-.6-.2 1.5 1.5 0 01-.5 0 1.6 1.6 0 01-.8 0h-.5c-.2.2-.4.2-.6.1a1 1 0 00-.6-.3l-.2-.2c-.2-.1-.2-.2 0-.3H191"/></g></g><g clip-path="url(#hu)"><g clip-path="url(#hv)"><path d="M200.7 81.6s0-.2-.2 0c-.5-.1-1 0-1.4-.3-.4-.3-.8-.5-1.2-.5l.4-.3h1l1.2.3c.3.1.5.3.6.5l.3.2.2.2a1.7 1.7 0 01-.9-.1" fill="#fff"/></g></g><g clip-path="url(#hw)"><g clip-path="url(#hx)"><path d="M177.2 80.1l-.2.2c-.3.1-.5.3-.8.2 0 .2.1.3.3.3l.4-.2s0 .3-.3.5c.2.5.8.3 1.2.2.2 0 .6-.3.7-.5l-.1-.4c-.3 0-.4-.1-.3-.2h-1" fill="red"/></g></g><g clip-path="url(#hy)"><g clip-path="url(#hz)"><path d="M167.7 77.1a2 2 0 01-.7.4s-.3 0-.3.2c0 0 .1.1.2 0 .3-.2.5 0 .1.2v.2c.4.3 1 .3 1.4.1.3-.1.4-.3.2-.5v-.2h-.4l-.2-.1" fill="red"/></g></g><g clip-path="url(#hA)"><g clip-path="url(#hB)"><path d="M174 79.3a.5.5 0 00-.1 0c-.2.1.2.1.4.2v.3c-.1.4-1 .3-1.4.1-.2 0-.2-.2-.2-.3h.2a1 1 0 00.4-.1v-.1a.9.9 0 01-.4 0 1.6 1.6 0 01-.3 0s-.1 0 0 0l.5-.2.8.1" fill="red"/></g></g><g clip-path="url(#hC)"><g clip-path="url(#hD)"><path d="M169.5 79l-.2.2a1.7 1.7 0 01-.5.4c-.2 0 0 .2.1.2.1.1.3 0 .4-.2 0-.2.2-.1.1 0a1.3 1.3 0 00-.1.4l.4.2.8-.3v-.5h-.3a2.2 2.2 0 01-.3-.2l-.4-.2" fill="red"/></g></g><g clip-path="url(#hE)"><g clip-path="url(#hF)"><path d="M167.9 77.2a1 1 0 00.2.2.5.5 0 00.3 0v.1a.6.6 0 01-.3 0 1 1 0 01-.3-.2"/></g></g><g clip-path="url(#hG)"><g clip-path="url(#hH)"><path d="M169.8 62.3l.4-.5.4-.2.6-.3.9-.1a.7.7 0 00-.4-.4 1 1 0 00-.4 0 3.8 3.8 0 00-1 .5h.4v.1h-.3a1 1 0 00-.2 0 6.5 6.5 0 00-.9.7l.5.2m1.4.3H171.8l1-.2a3.5 3.5 0 011.1-.1v-.1c.2-.2.2-.4.2-.6l-.5-.4h-.8a2.6 2.6 0 00-.5 0l.3.3.3.6h-.1a1.2 1.2 0 00-.3-.5c0-.2-.3-.2-.4-.3a6 6 0 00-.8.1l-.5.2a.8.8 0 01.5 0l.4.6h-.1c0-.2-.2-.3-.3-.4-.3-.1-.8 0-1 .2a2.5 2.5 0 00-.4.3c.4 0 1 .1 1.3.3" fill="red"/></g></g></svg>