<svg xmlns="http://www.w3.org/2000/svg" width="400" height="400" viewBox="0 0 300 300"><defs><clipPath id="a"><path d="M150 0a150 150 0 100 300 150 150 0 000-300zm0 0"/></clipPath><clipPath id="b"><path d="M55 25h48v46H55zm0 0"/></clipPath><clipPath id="c"><path d="M150 0a150 150 0 100 300 150 150 0 000-300zm0 0"/></clipPath><clipPath id="d"><path d="M97 66h64v61H97zm0 0"/></clipPath><clipPath id="e"><path d="M150 0a150 150 0 100 300 150 150 0 000-300zm0 0"/></clipPath><clipPath id="f"><path d="M0 187h300v38H0zm0 0"/></clipPath><clipPath id="g"><path d="M150 0a150 150 0 100 300 150 150 0 000-300zm0 0"/></clipPath></defs><g clip-path="url(#a)"><path d="M-1.3 300.4h450.6V0H-1.3zm0 0" fill="#012069"/></g><g clip-path="url(#b)"><g clip-path="url(#c)"><path d="M79 25l5.7 17.3h18.1L88.2 53l5.6 17.2L79 59.6 64.4 70.2 70 53 55.3 42.3h18.2" fill="#fff"/></g></g><g clip-path="url(#d)"><g clip-path="url(#e)"><path d="M129 66.7l7.5 23h24.2l-19.5 14.2 7.4 23-19.5-14.2-19.6 14.2 7.4-23-19.5-14.2h24.2" fill="#fff"/></g></g><g clip-path="url(#f)"><g clip-path="url(#g)"><path d="M-.9 225h449.8v-37.5H-.9zm0 0" fill="#fbe200"/></g></g></svg>