<svg xmlns="http://www.w3.org/2000/svg" width="400" height="400" viewBox="0 0 300 300"><defs><clipPath id="a"><path d="M150 0a150 150 0 100 300 150 150 0 000-300zm0 0"/></clipPath><clipPath id="b"><path d="M44 182h183v68H44zm0 0"/></clipPath><clipPath id="c"><path d="M150 0a150 150 0 100 300 150 150 0 000-300zm0 0"/></clipPath><clipPath id="d"><path d="M28 47h247v140H28zm0 0"/></clipPath><clipPath id="e"><path d="M150 0a150 150 0 100 300 150 150 0 000-300zm0 0"/></clipPath></defs><g clip-path="url(#a)"><path fill="#fff" d="M0 0h300v300H0z"/></g><g clip-path="url(#b)"><g clip-path="url(#c)"><path d="M58.1 199.2H58c-1.2-.2-3.3-1.1-5.6-2.4-2.5-1.5-4.6-3-5.8-4.4a10 10 0 01-2-5.9l.1-3.6h.7c.9 0 1.8.4 3 1.2 1 .7 2.2 1.6 3.3 2.8 2 2 3.6 4 3.6 4a57.5 57.5 0 013.2 7.1v1a.5.5 0 01-.2.2.5.5 0 01-.2 0zm154.9 0a.5.5 0 01-.2 0 .5.5 0 01-.2-.3v-.9c.1-.6.4-1.6 1-2.8.9-2 2-4.1 2.2-4.3a49.7 49.7 0 016.8-6.8c1.3-.8 2.2-1.2 3-1.3l.8.1s.1 1.7 0 3.6a10 10 0 01-2 5.9c-1.1 1.4-3.2 3-5.7 4.4a20.3 20.3 0 01-5.6 2.4h-.1zm-149.7.4l-1.6-2.2c-.7-1.2-1.5-2.5-1.5-3.5a49.6 49.6 0 00-.7-7.2c.2 0 4.1 1.6 4.1 5.3 0 3.8-.3 7.5-.3 7.6zm144.5 0s-.3-3.8-.3-7.6c0-3.7 4-5.2 4.1-5.3a177 177 0 00-.7 7.2c0 1-.8 2.3-1.6 3.5a25.8 25.8 0 01-1.5 2.2zm-151.5 6.9c-1.3 0-3.4-.1-5.5-.5-2.2-.4-3.4-2.2-4-3.7a12.7 12.7 0 01-1-3.1c6.7.2 9.9 2.1 11.3 3.7a5.8 5.8 0 011.6 3.5h-2.4zm158.4 0l-2.3-.1s0-1.8 1.6-3.5c1.4-1.6 4.6-3.5 11.2-3.7 0 0-.2 1.5-.9 3.1-.6 1.5-1.8 3.3-4 3.7-2.1.4-4.2.5-5.6.5zm-153 6.7c-2.4 0-3.2-1.3-3.5-1.9-.4-.9-.3-1.8-.3-1.8l1.2-.2h.1a5 5 0 014 2c.2.1.6.8.3 1.3-.3.4-.9.6-1.8.6zm147.7 0c-1 0-1.5-.2-1.8-.6-.3-.5.1-1.2.2-1.4a5 5 0 014-1.9h.2c.4 0 .8 0 1.2.2 0 0 0 1-.3 1.8-.3.6-1 2-3.5 2zm-18.7.5a33 33 0 016.2-12.3c2-2.2 3.9-2.7 5-2.7h.5c.8 0 1.4.3 1.4.3-2.5 6-6 9.7-8.4 11.7-2.6 2.2-4.7 3-4.7 3zm-110.3 0s-2.1-.8-4.7-3c-2.5-2-6-5.7-8.4-11.7 0 0 .6-.3 1.4-.3h.4c1.2 0 3 .5 5.1 2.7a33 33 0 016.2 12.3zm117.5.3a26 26 0 017.2-10.3 7.8 7.8 0 014.4-1.8h1v.1c-.4 4.7-3.8 7.7-6.6 9.4-3 1.8-6 2.6-6 2.6zm-124.7 0s-3-.8-6-2.6c-2.8-1.7-6.2-4.7-6.6-9.4s.3 0 .7 0h.1c.8 0 2.5.1 4.6 1.7 2.6 2 5 5.5 7.2 10.3zm11 1.5c-.6 0-1.2-.2-1.6-.6-.3-.4-.5-.8-.7-1.5l-.2-2a2.1 2.1 0 01.8-.2c1.3 0 2.3 1 2.8 2.1.2.6.2 1.1 0 1.5 0 .5-.5.7-1 .7zm102.7 0c-.6 0-1-.2-1.2-.7-.1-.4 0-.9.1-1.5.4-1 1.4-2 2.5-2.1H188.6l.7.1s.1 1-.1 2.1c-.2.7-.4 1.1-.7 1.5-.4.4-1 .6-1.6.6zM69.5 221a24.5 24.5 0 01-6-.7c-3.3-.9-4.7-2.1-5.3-3a3 3 0 01-.5-1.3v-.6s2.2-.6 5.2-.6h.4c1.4 0 2.9.1 4.3.4 5.2 1 8 5 8 5s-2.6.8-6 .8zm132 0c-3.5 0-6-.7-6-.7s2.8-4 8-5.1a21.8 21.8 0 014.7-.4c3 0 5.2.6 5.2.6v.6a3.1 3.1 0 01-.5 1.2c-.6 1-2 2.2-5.3 3-2 .5-4 .8-6 .8zm-32.4 3c3-8.9 8.7-10.3 11.9-10.4h.5a9 9 0 012 .2s-.6 2.2-2.6 4.4A19.2 19.2 0 01169 224zm-67 0c-6.4-1-10-3.7-11.9-5.8-2-2.2-2.6-4.3-2.6-4.4 0 0 .8-.2 2-.2h.5c3.2 0 9 1.5 12 10.4zm75.5.8c6.2-7.2 11.5-8.5 14-8.6h.6c1.2 0 1.9.3 2 .3l-.5 1.2c-.3.7-1 1.7-2.1 2.8-2 1.8-6.1 4-14 4.3zm-84.1 0c-7.9-.3-12-2.5-14-4.3a9 9 0 01-2.1-2.8 5.8 5.8 0 01-.5-1.2s.8-.2 2-.3h.2c2.6 0 8 1.1 14.4 8.6zm14.2.6c-.6 0-1.2-.2-1.6-.7-.3-.3-.5-.8-.7-1.4a7.3 7.3 0 01-.1-2.1 2.2 2.2 0 01.7-.2h.1c1.3 0 2.2 1 2.7 2.2.2.6.3 1.1.1 1.5-.1.4-.6.7-1.2.7zm55.7 0c-.6 0-1-.3-1.2-.7-.2-.4-.1-1 .1-1.5.4-1 1.3-2.1 2.5-2.2h.3c.2 0 .5 0 .7.2 0 0 .1 1-.1 2-.2.7-.4 1.2-.8 1.5-.3.5-1 .7-1.5.7zm-85 .7a1.6 1.6 0 01-1.2-.6 3 3 0 01-.5-1.3l-.2-1.8.6-.2c.6 0 1 .3 1.3.6.4.4.7.8.9 1.3.2.5.2 1 0 1.3a1 1 0 01-.8.7zm114.2 0a1 1 0 01-.9-.7 2 2 0 01.1-1.3c.2-.5.5-1 .9-1.3.2-.3.7-.6 1.2-.6.3 0 .5 0 .7.2l-.2 1.8a3 3 0 01-.5 1.3 1.6 1.6 0 01-1.3.6zm-101.5 6.5c-3.9 0-9.2-1.2-12.6-4.6 0 0 3.7-1 7.8-1h.7c3.7 0 6.5.7 8.4 2 .6.6 1 1 1 1.5.1.3 0 .7-.5 1-.8.7-2.3 1-4.5 1h-.3zm88.5 0c-2 0-3.6-.4-4.4-1-.4-.4-.6-.8-.6-1.1.1-.5.5-1 1.1-1.4 1.8-1.4 4.5-2 7.9-2.1h1.2c4.1 0 7.7 1 7.8 1a18.6 18.6 0 01-12.6 4.6zm-70.5.6c-3.7 0-6.5-.6-8.4-1.9-1-.7-1.6-1.5-1.8-2-.3-.5-.3-1-.3-1s1.6-.8 3.8-.9h.6c2.9 0 7.3 1 11.9 5.4-2.1.3-4 .4-5.8.4zm52.9 0c-1.7 0-3.7-.1-5.8-.4 4.6-4.4 9-5.4 11.8-5.4h.6c2.3.1 3.8.8 4 .9a3.3 3.3 0 01-.4 1c-.2.5-.7 1.3-1.8 2a15.1 15.1 0 01-8.4 2zm-35.1 1.8c-8.7-1.3-12.4-4.4-14-6.8-1.6-2.6-1.3-5-1.2-5l1.3-.2c2.3 0 8.2 1.2 13.9 12zm17.3 0c5.7-10.8 11.6-12 13.9-12a6 6 0 011.3.2s.4 2.4-1.3 5c-1.5 2.4-5.2 5.5-13.9 6.8zm-43.2 3c-.6 0-1.1-.3-1.5-.7-.4-.4-.6-.8-.7-1.4a7.2 7.2 0 01-.2-2.2 2.2 2.2 0 01.8-.1c1.3 0 2.3 1 2.7 2.1.2.6.3 1.2.1 1.6-.1.4-.6.7-1.2.7zm69 0c-.5 0-1-.3-1.1-.7-.2-.4-.1-1 .1-1.6.4-1 1.3-2 2.5-2.1h.2l.8.1s.1 1.1-.2 2.2c-.1.6-.3 1-.7 1.4-.4.4-1 .7-1.6.7zm-54.3 3.2c-3.4 0-6.7-1-10-2.8s.5-.8 1.5-1.5 2.7-1.6 5.6-1.6c3.4 0 7.5 1.1 12.2 3.4a18 18 0 01-9.3 2.5zm39.7 0c-5.5 0-9.2-2.4-9.3-2.5 4.7-2.3 8.8-3.4 12.2-3.4 2.9 0 4.6.9 5.6 1.6 1 .7 1.4 1.5 1.4 1.5a19.7 19.7 0 01-10 2.8zm-13 8l-.2-.1-.8-.9-2.4-2.8-3-4-.5-.5-.4.6-3 3.9-2.4 2.8-.8.8v.1a.5.5 0 01-.2.1h-1l.4-.5.5.3-.1-.2a5.9 5.9 0 00-.5-.6l-1.4-1.4a69.8 69.8 0 00-2.1-1.8l7.2-5.3-2.9-1.3 1.5-1.7 5.2 2.2 5.3-2.2 1.5 1.7-2.9 1.3 7.2 5.3a67.9 67.9 0 00-4 3.8 1 1 0 000 .2l.4-.3.4.4-1 .1" fill="#2e4612"/></g></g><g clip-path="url(#d)"><g clip-path="url(#e)"><path d="M274.4 47.7l-1.2.5-.4.2h-1.5l-1.3.6-2.4 1.6-1 .3-.8-.4-.4.2-.2 1-.4.7-.6.4-1.9.2-1.6.8-2-.6-1 .4-2 1.9-1.1.4H252.8l-.5.2-1 .8-1.6.1-.5.4-.8 1.6-.9 1h-.5l-.5-.2h-.4l-.2 1.1-.4.5-1.1.4-1 .7-.7.4h-1.3l-1 .5-2 .2-.8.8-.2.2-.3.2-.7.4h-.9l-.8.3-.4-.6-.6.4h-.8l-1-.4-.7-.4-.6.1-.2 1-.6.9-1.1.6-.1.2-1.3 1.6-2.3 2.5-2 1-2.1.6-1.5 1.2-3.8 2-6 2.9-1.2.4-1.7.3-3.2 1.1-2.8.9h-.1l-.6.2-3.9 1.2-1.8-.2-1 .4-2.9-.3h-1.9l-1.2.2-2.4 1.2-3.9 1.8-1.3 1.2-2 1-2.3.8v-1l-.9.2-.6.2-1.9.3h-1l-.7-.2-4 1.4-4.4.4-2.1.7H158l-1 .3-2 .2-.7-.2h-.2l-5.8.2-2.7-.3-1.3.3-2.2-.7-3-.4-.8-.2-1.7-.5-.7.4-.6.1-1.3-.5h-.5l-1 .4-.7-.2-.6-.4-1.4-.2-.8-.7-4.7.6-1.3-.4-4.3-1.2h-.7l-.8.6-1.3.5-1 .3h-1.6l-1.7-.4-1.8-.9-.7-.2-1.5.2h-.5l-2.7-1.4-3.5-2.2-2.4-1.2-.9-.1-.1.4.4 1.4.2 1.4v2.1l.1.7.9 1 .4.9.2 2.6v2.7l-.4 4.3-.1.6-.5 2.3-.5 2-1.8 5.4-.5.7-1.2.8-2.7 1.8-2 1.2-.6.3h-2.6l-1.3-.7-1.2-.3-1.6-1.1-1.8-.4-2-1.1-.5-.7h-1l-1.6-.5-.5-.2H75l-1.9-.1-1.8-.9-.9-.2h-1.3l-1.3.6-.7.3-.8-.4h-.6l-.7 1.1-.2.2-.4.3h-1.1l-.5.2-.7.3-.6.2-.3.1H61l-.3.1-.4.1-.7-.4-.4-.2-.6-.1-.3.2-.1 1.1-.3.7-1 1-1 .8-.7 1-1.8 4.2-1.2 1.7-.3.4-1.2 1.3-1.1.8-2.5 2-2.3.8-2 .4h-1l-1.8-.2-1.7-.5-1.8-1.2-2-1.6-3-2.8-.3-.3H31l-1-.6h-.6l-.3.4-.1.7-.1.5-.4 3.2v.2l.2 1.3 2.2 3 .7 1.7.1.2.5.8.3.5v.1l.8 2.2-.5 1.3.2.9-.6.5-.1.7 2 2.5.4 1-.5 1.6-.8.8-.2.3.1.6 1 .8 1.5 1.4.8 2 .6.6.7-.2.4.3h.7l.6.6.3.2.7.3.5.7v2l1 2.4v1.5l.6 1 .1.7-.3 2 .8.7.7-.2.5.1.9.7 1 1.5 1-.2.5.3 3 2.7.6.3.6.3.6.6.9-.6 1.1-.1.4.3.9.6h1.1l2.4.7 1 .3 2.2 1.3 1 .6.5.4.7.6 1.4.6 1.2.3.7.1.5.2 2.6 1 1.5.4 1.3.5 1 .3h.6l1-.8h1l.8.1.8-.1 1.2-.8.3-.3.9-.5 3-.3.8.3 2.2-1 1.5.4 1.4-.5 2.9.7.7.5.9 1h1l-.4.7 1.3 1.3 1.1 1.7.1.3.8 2.4.7.9.4 1.2v.7l-.7.6v.2l-.1.2.1.3.3-.2.5-.2.5-.1 1 .1h.8l1-.5.8-.3 1.1.5h1.3l.5.2 1.5.7h.8l.2-.1.2-.5v-.5l-.7-.6-1.2-1.5-.5-.8-.4-1-.2-1.4v-1l.1-1.2.4-.5.2-1v-.2l.8-1 1.8-1.1 2-1.8 1.6-1 1.7-.8v-.2l.2.1 4.1-1.4 2-.3 12.4.8.5-.1.4-1.2.2-.2.2-.1 1.3-.6.7-.1 1.7.4.8.2 1.1-.7h.9l1.7-.9h1l.4-.1 2-1.5 2-.6.6-.2.2-.1 2-1.1 1.3-1 1-.6 1.3-.3 3.2-.2.6-1 1.4-.3.8-1 1-.3.7-1 .5-.8.8-.5 2.6-.1 3 .4.4-.3.7-2.4.7-.5 2-2.8v-1.9l.3-1.2-.3-2.2.3-2.2 1.2-2.8 1-1.2 1.7-1.1 1-.4 1.1-.2h.5l4.2-.1h3l3.5.6h.3l1.2.4 1.4 1 1.5 1.5.2.3 1 .4.3.1.7-.1 1.2-.6.8-.7 1.2-.7.6-1 .3-.4 2.2-.8 2.7-.2.3-.2h.1l.7-.9h.7l1.5.6 1.1-.2.9.3h.7l1.3-.2 1.3 1h.8l2.9 1.7h.1l.3.1.3-.1.5-.2.1.1.3.5h.5l.5-.7-.2-.3-1.1-.3-.9-1.6.9-.9-1.4-1.6-.2-.3-.1-.1-.5-.8-2.3-3.6-3.1-2.4-1.1-.9-.4-.3-1.7-1.7-1.1-1.5-.2-.4-.2-.5-.7-1.5-1.3-1-1-1.1-2-2.9-.4-.4-.5-.3h-1l-.1-.1h-.1v-.1l.5-.5.6-.2.2-.5-1-3v-.2l-.1-1 .8-4.4.1-.5 1.5-3 1-.7 1-2 .8-1.2.8-.8h.1l1.5-1 1.2-.2 1.2-.1 2 .6h2.4l.9-.2 1.4-.4.7-.5.4-.5.7-2.5.2-.8.5-.8 2.6-3.1 2-1.9 4.6-3.3 2.2-1.3 1-.7 10.2-4.4 2.6-2.7 1.3-1.4 2.4-1.6 2.9-1.1 2.4-2 .5-.6.7-2.2.5-.1.5-1 .2-.4 2-1.4.2-.1 7.7-3.9 1.1.2.6-.9 2.2-.4h.5l.5-.3.5-.8V51l.5-.6.3-1.4.2-.3.3-.4.6-.4v-.3" fill="#ffac2c"/></g></g></svg>