<svg xmlns="http://www.w3.org/2000/svg" width="400" height="400" viewBox="0 0 300 300"><defs><clipPath id="a"><path d="M150 0a150 150 0 100 300 150 150 0 000-300zm0 0"/></clipPath><clipPath id="b"><path d="M0 150h300v150H0zm0 0"/></clipPath><clipPath id="c"><path d="M150 0a150 150 0 100 300 150 150 0 000-300zm0 0"/></clipPath><clipPath id="d"><path d="M0 0h235v300H0zm0 0"/></clipPath><clipPath id="e"><path d="M150 0a150 150 0 100 300 150 150 0 000-300zm0 0"/></clipPath><clipPath id="f"><path d="M35 112h79v76H35zm0 0"/></clipPath><clipPath id="g"><path d="M150 0a150 150 0 100 300 150 150 0 000-300zm0 0"/></clipPath></defs><g clip-path="url(#a)"><path fill="#6ab1e7" d="M0 0h300v300H0z"/></g><g clip-path="url(#b)"><g clip-path="url(#c)"><path d="M-25 300h450V150H-25zm0 0" fill="#12ac2b"/></g></g><g clip-path="url(#d)"><g clip-path="url(#e)"><path d="M-25 0v300l129.9-75 130-75-130-75" fill="#fff"/></g></g><g clip-path="url(#f)"><g clip-path="url(#g)"><path d="M74.4 112.5l9.3 28.6H114L89.5 159l9.3 28.6-24.4-17.7-24.3 17.7 9.3-28.6L35 141h30.1" fill="#d6131a"/></g></g></svg>