<svg xmlns="http://www.w3.org/2000/svg" width="400" height="400" viewBox="0 0 300 300"><defs><clipPath id="a"><path d="M150 0a150 150 0 100 300 150 150 0 000-300zm0 0"/></clipPath><clipPath id="b"><path d="M0 162h300v26H0zm0 0"/></clipPath><clipPath id="c"><path d="M150 0a150 150 0 100 300 150 150 0 000-300zm0 0"/></clipPath><clipPath id="d"><path d="M0 137h300v26H0zm0 0"/></clipPath><clipPath id="e"><path d="M150 0a150 150 0 100 300 150 150 0 000-300zm0 0"/></clipPath><clipPath id="f"><path d="M0 112h300v26H0zm0 0"/></clipPath><clipPath id="g"><path d="M150 0a150 150 0 100 300 150 150 0 000-300zm0 0"/></clipPath><clipPath id="h"><path d="M112 0h26v300h-26zm0 0"/></clipPath><clipPath id="i"><path d="M150 0a150 150 0 100 300 150 150 0 000-300zm0 0"/></clipPath><clipPath id="j"><path d="M137 0h26v300h-26zm0 0"/></clipPath><clipPath id="k"><path d="M150 0a150 150 0 100 300 150 150 0 000-300zm0 0"/></clipPath><clipPath id="l"><path d="M162 0h26v300h-26zm0 0"/></clipPath><clipPath id="m"><path d="M150 0a150 150 0 100 300 150 150 0 000-300zm0 0"/></clipPath><clipPath id="n"><path d="M75 74h150v152H75zm0 0"/></clipPath><clipPath id="o"><path d="M150 0a150 150 0 100 300 150 150 0 000-300zm0 0"/></clipPath><clipPath id="p"><path d="M140 83h20v20h-20zm0 0"/></clipPath><clipPath id="q"><path d="M150 0a150 150 0 100 300 150 150 0 000-300zm0 0"/></clipPath><clipPath id="r"><path d="M134 78h32v31h-32zm0 0"/></clipPath><clipPath id="s"><path d="M150 0a150 150 0 100 300 150 150 0 000-300zm0 0"/></clipPath><clipPath id="t"><path d="M140 197h20v20h-20zm0 0"/></clipPath><clipPath id="u"><path d="M150 0a150 150 0 100 300 150 150 0 000-300zm0 0"/></clipPath><clipPath id="v"><path d="M134 191h32v31h-32zm0 0"/></clipPath><clipPath id="w"><path d="M150 0a150 150 0 100 300 150 150 0 000-300zm0 0"/></clipPath><clipPath id="x"><path d="M172 95h20v20h-20zm0 0"/></clipPath><clipPath id="y"><path d="M150 0a150 150 0 100 300 150 150 0 000-300zm0 0"/></clipPath><clipPath id="z"><path d="M167 90h31v31h-31zm0 0"/></clipPath><clipPath id="A"><path d="M150 0a150 150 0 100 300 150 150 0 000-300zm0 0"/></clipPath><clipPath id="B"><path d="M193 157h21v20h-21zm0 0"/></clipPath><clipPath id="C"><path d="M150 0a150 150 0 100 300 150 150 0 000-300zm0 0"/></clipPath><clipPath id="D"><path d="M188 151h31v31h-31zm0 0"/></clipPath><clipPath id="E"><path d="M150 0a150 150 0 100 300 150 150 0 000-300zm0 0"/></clipPath><clipPath id="F"><path d="M86 159h20v19H86zm0 0"/></clipPath><clipPath id="G"><path d="M150 0a150 150 0 100 300 150 150 0 000-300zm0 0"/></clipPath><clipPath id="H"><path d="M81 153h31v31H81zm0 0"/></clipPath><clipPath id="I"><path d="M150 0a150 150 0 100 300 150 150 0 000-300zm0 0"/></clipPath><clipPath id="J"><path d="M106 96h20v20h-20zm0 0"/></clipPath><clipPath id="K"><path d="M150 0a150 150 0 100 300 150 150 0 000-300zm0 0"/></clipPath><clipPath id="L"><path d="M100 90h32v31h-32zm0 0"/></clipPath><clipPath id="M"><path d="M150 0a150 150 0 100 300 150 150 0 000-300zm0 0"/></clipPath><clipPath id="N"><path d="M86 124h20v19H86zm0 0"/></clipPath><clipPath id="O"><path d="M150 0a150 150 0 100 300 150 150 0 000-300zm0 0"/></clipPath><clipPath id="P"><path d="M80 118h32v31H80zm0 0"/></clipPath><clipPath id="Q"><path d="M150 0a150 150 0 100 300 150 150 0 000-300zm0 0"/></clipPath><clipPath id="R"><path d="M107 185h20v20h-20zm0 0"/></clipPath><clipPath id="S"><path d="M150 0a150 150 0 100 300 150 150 0 000-300zm0 0"/></clipPath><clipPath id="T"><path d="M101 179h32v31h-32zm0 0"/></clipPath><clipPath id="U"><path d="M150 0a150 150 0 100 300 150 150 0 000-300zm0 0"/></clipPath><clipPath id="V"><path d="M193 122h20v20h-20zm0 0"/></clipPath><clipPath id="W"><path d="M150 0a150 150 0 100 300 150 150 0 000-300zm0 0"/></clipPath><clipPath id="X"><path d="M187 116h32v31h-32zm0 0"/></clipPath><clipPath id="Y"><path d="M150 0a150 150 0 100 300 150 150 0 000-300zm0 0"/></clipPath><clipPath id="Z"><path d="M174 184h20v20h-20zm0 0"/></clipPath><clipPath id="aa"><path d="M150 0a150 150 0 100 300 150 150 0 000-300zm0 0"/></clipPath><clipPath id="ab"><path d="M168 179h31v31h-31zm0 0"/></clipPath><clipPath id="ac"><path d="M150 0a150 150 0 100 300 150 150 0 000-300zm0 0"/></clipPath><clipPath id="ad"><path d="M155 147h11v45h-11zm0 0"/></clipPath><clipPath id="ae"><path d="M150 0a150 150 0 100 300 150 150 0 000-300zm0 0"/></clipPath><clipPath id="af"><path d="M151 143h19v54h-19zm0 0"/></clipPath><clipPath id="ag"><path d="M150 0a150 150 0 100 300 150 150 0 000-300zm0 0"/></clipPath><clipPath id="ah"><path d="M159 147h11v45h-11zm0 0"/></clipPath><clipPath id="ai"><path d="M150 0a150 150 0 100 300 150 150 0 000-300zm0 0"/></clipPath><clipPath id="aj"><path d="M155 143h19v54h-19zm0 0"/></clipPath><clipPath id="ak"><path d="M150 0a150 150 0 100 300 150 150 0 000-300zm0 0"/></clipPath><clipPath id="al"><path d="M158 146h9v50h-9zm0 0"/></clipPath><clipPath id="am"><path d="M150 0a150 150 0 100 300 150 150 0 000-300zm0 0"/></clipPath><clipPath id="an"><path d="M154 142h17v58h-17zm0 0"/></clipPath><clipPath id="ao"><path d="M150 0a150 150 0 100 300 150 150 0 000-300zm0 0"/></clipPath><clipPath id="ap"><path d="M127 177h44v10h-44zm0 0"/></clipPath><clipPath id="aq"><path d="M150 0a150 150 0 100 300 150 150 0 000-300zm0 0"/></clipPath><clipPath id="ar"><path d="M123 173h52v19h-52zm0 0"/></clipPath><clipPath id="as"><path d="M150 0a150 150 0 100 300 150 150 0 000-300zm0 0"/></clipPath><clipPath id="at"><path d="M145 178h8v12h-8zm0 0"/></clipPath><clipPath id="au"><path d="M150 0a150 150 0 100 300 150 150 0 000-300zm0 0"/></clipPath><clipPath id="av"><path d="M141 174h16v20h-16zm0 0"/></clipPath><clipPath id="aw"><path d="M150 0a150 150 0 100 300 150 150 0 000-300zm0 0"/></clipPath><clipPath id="ax"><path d="M147 178h9v12h-9zm0 0"/></clipPath><clipPath id="ay"><path d="M150 0a150 150 0 100 300 150 150 0 000-300zm0 0"/></clipPath><clipPath id="az"><path d="M143 174h17v20h-17zm0 0"/></clipPath><clipPath id="aA"><path d="M150 0a150 150 0 100 300 150 150 0 000-300zm0 0"/></clipPath><clipPath id="aB"><path d="M150 178h8v12h-8zm0 0"/></clipPath><clipPath id="aC"><path d="M150 0a150 150 0 100 300 150 150 0 000-300zm0 0"/></clipPath><clipPath id="aD"><path d="M146 174h17v20h-17zm0 0"/></clipPath><clipPath id="aE"><path d="M150 0a150 150 0 100 300 150 150 0 000-300zm0 0"/></clipPath><clipPath id="aF"><path d="M153 178h8v12h-8zm0 0"/></clipPath><clipPath id="aG"><path d="M150 0a150 150 0 100 300 150 150 0 000-300zm0 0"/></clipPath><clipPath id="aH"><path d="M148 174h17v20h-17zm0 0"/></clipPath><clipPath id="aI"><path d="M150 0a150 150 0 100 300 150 150 0 000-300zm0 0"/></clipPath><clipPath id="aJ"><path d="M165 181h6v6h-6zm0 0"/></clipPath><clipPath id="aK"><path d="M150 0a150 150 0 100 300 150 150 0 000-300zm0 0"/></clipPath><clipPath id="aL"><path d="M161 176h14v15h-14zm0 0"/></clipPath><clipPath id="aM"><path d="M150 0a150 150 0 100 300 150 150 0 000-300zm0 0"/></clipPath><clipPath id="aN"><path d="M151 170h5v11h-5zm0 0"/></clipPath><clipPath id="aO"><path d="M150 0a150 150 0 100 300 150 150 0 000-300zm0 0"/></clipPath><clipPath id="aP"><path d="M146 166h14v19h-14zm0 0"/></clipPath><clipPath id="aQ"><path d="M150 0a150 150 0 100 300 150 150 0 000-300zm0 0"/></clipPath><clipPath id="aR"><path d="M147 170h5v10h-5zm0 0"/></clipPath><clipPath id="aS"><path d="M150 0a150 150 0 100 300 150 150 0 000-300zm0 0"/></clipPath><clipPath id="aT"><path d="M143 166h14v19h-14zm0 0"/></clipPath><clipPath id="aU"><path d="M150 0a150 150 0 100 300 150 150 0 000-300zm0 0"/></clipPath><clipPath id="aV"><path d="M144 165h6v11h-6zm0 0"/></clipPath><clipPath id="aW"><path d="M150 0a150 150 0 100 300 150 150 0 000-300zm0 0"/></clipPath><clipPath id="aX"><path d="M140 161h14v19h-14zm0 0"/></clipPath><clipPath id="aY"><path d="M150 0a150 150 0 100 300 150 150 0 000-300zm0 0"/></clipPath><clipPath id="aZ"><path d="M148 164h5v12h-5zm0 0"/></clipPath><clipPath id="ba"><path d="M150 0a150 150 0 100 300 150 150 0 000-300zm0 0"/></clipPath><clipPath id="bb"><path d="M144 160h14v20h-14zm0 0"/></clipPath><clipPath id="bc"><path d="M150 0a150 150 0 100 300 150 150 0 000-300zm0 0"/></clipPath><clipPath id="bd"><path d="M153 165h6v11h-6zm0 0"/></clipPath><clipPath id="be"><path d="M150 0a150 150 0 100 300 150 150 0 000-300zm0 0"/></clipPath><clipPath id="bf"><path d="M149 161h14v19h-14zm0 0"/></clipPath><clipPath id="bg"><path d="M150 0a150 150 0 100 300 150 150 0 000-300zm0 0"/></clipPath><clipPath id="bh"><path d="M151 163h5v11h-5zm0 0"/></clipPath><clipPath id="bi"><path d="M150 0a150 150 0 100 300 150 150 0 000-300zm0 0"/></clipPath><clipPath id="bj"><path d="M146 159h14v19h-14zm0 0"/></clipPath><clipPath id="bk"><path d="M150 0a150 150 0 100 300 150 150 0 000-300zm0 0"/></clipPath><clipPath id="bl"><path d="M147 161h5v11h-5zm0 0"/></clipPath><clipPath id="bm"><path d="M150 0a150 150 0 100 300 150 150 0 000-300zm0 0"/></clipPath><clipPath id="bn"><path d="M143 156h13v20h-13zm0 0"/></clipPath><clipPath id="bo"><path d="M150 0a150 150 0 100 300 150 150 0 000-300zm0 0"/></clipPath><clipPath id="bp"><path d="M144 159h5v11h-5zm0 0"/></clipPath><clipPath id="bq"><path d="M150 0a150 150 0 100 300 150 150 0 000-300zm0 0"/></clipPath><clipPath id="br"><path d="M139 155h14v19h-14zm0 0"/></clipPath><clipPath id="bs"><path d="M150 0a150 150 0 100 300 150 150 0 000-300zm0 0"/></clipPath><clipPath id="bt"><path d="M136 123h20v50h-20zm0 0"/></clipPath><clipPath id="bu"><path d="M150 0a150 150 0 100 300 150 150 0 000-300zm0 0"/></clipPath><clipPath id="bv"><path d="M131 119h30v58h-30zm0 0"/></clipPath><clipPath id="bw"><path d="M150 0a150 150 0 100 300 150 150 0 000-300zm0 0"/></clipPath><clipPath id="bx"><path d="M156 171h6v10h-6zm0 0"/></clipPath><clipPath id="by"><path d="M150 0a150 150 0 100 300 150 150 0 000-300zm0 0"/></clipPath><clipPath id="bz"><path d="M152 166h14v19h-14zm0 0"/></clipPath><clipPath id="bA"><path d="M150 0a150 150 0 100 300 150 150 0 000-300zm0 0"/></clipPath><clipPath id="bB"><path d="M153 170h5v10h-5zm0 0"/></clipPath><clipPath id="bC"><path d="M150 0a150 150 0 100 300 150 150 0 000-300zm0 0"/></clipPath><clipPath id="bD"><path d="M149 165h14v20h-14zm0 0"/></clipPath><clipPath id="bE"><path d="M150 0a150 150 0 100 300 150 150 0 000-300zm0 0"/></clipPath><clipPath id="bF"><path d="M151 165h6v10h-6zm0 0"/></clipPath><clipPath id="bG"><path d="M150 0a150 150 0 100 300 150 150 0 000-300zm0 0"/></clipPath><clipPath id="bH"><path d="M147 160h14v19h-14zm0 0"/></clipPath><clipPath id="bI"><path d="M150 0a150 150 0 100 300 150 150 0 000-300zm0 0"/></clipPath><clipPath id="bJ"><path d="M155 165h5v11h-5zm0 0"/></clipPath><clipPath id="bK"><path d="M150 0a150 150 0 100 300 150 150 0 000-300zm0 0"/></clipPath><clipPath id="bL"><path d="M151 160h13v20h-13zm0 0"/></clipPath><clipPath id="bM"><path d="M150 0a150 150 0 100 300 150 150 0 000-300zm0 0"/></clipPath><clipPath id="bN"><path d="M160 166h5v11h-5zm0 0"/></clipPath><clipPath id="bO"><path d="M150 0a150 150 0 100 300 150 150 0 000-300zm0 0"/></clipPath><clipPath id="bP"><path d="M156 162h13v19h-13zm0 0"/></clipPath><clipPath id="bQ"><path d="M150 0a150 150 0 100 300 150 150 0 000-300zm0 0"/></clipPath><clipPath id="bR"><path d="M157 164h6v11h-6zm0 0"/></clipPath><clipPath id="bS"><path d="M150 0a150 150 0 100 300 150 150 0 000-300zm0 0"/></clipPath><clipPath id="bT"><path d="M153 159h14v20h-14zm0 0"/></clipPath><clipPath id="bU"><path d="M150 0a150 150 0 100 300 150 150 0 000-300zm0 0"/></clipPath><clipPath id="bV"><path d="M154 161h6v11h-6zm0 0"/></clipPath><clipPath id="bW"><path d="M150 0a150 150 0 100 300 150 150 0 000-300zm0 0"/></clipPath><clipPath id="bX"><path d="M150 156h14v20h-14zm0 0"/></clipPath><clipPath id="bY"><path d="M150 0a150 150 0 100 300 150 150 0 000-300zm0 0"/></clipPath><clipPath id="bZ"><path d="M151 159h6v11h-6zm0 0"/></clipPath><clipPath id="ca"><path d="M150 0a150 150 0 100 300 150 150 0 000-300zm0 0"/></clipPath><clipPath id="cb"><path d="M147 154h14v20h-14zm0 0"/></clipPath><clipPath id="cc"><path d="M150 0a150 150 0 100 300 150 150 0 000-300zm0 0"/></clipPath><clipPath id="cd"><path d="M148 135h20v36h-20zm0 0"/></clipPath><clipPath id="ce"><path d="M150 0a150 150 0 100 300 150 150 0 000-300zm0 0"/></clipPath><clipPath id="cf"><path d="M144 131h28v45h-28zm0 0"/></clipPath><clipPath id="cg"><path d="M150 0a150 150 0 100 300 150 150 0 000-300zm0 0"/></clipPath><clipPath id="ch"><path d="M150 133h7v5h-7zm0 0"/></clipPath><clipPath id="ci"><path d="M150 0a150 150 0 100 300 150 150 0 000-300zm0 0"/></clipPath><clipPath id="cj"><path d="M146 128h15v15h-15zm0 0"/></clipPath><clipPath id="ck"><path d="M150 0a150 150 0 100 300 150 150 0 000-300zm0 0"/></clipPath><clipPath id="cl"><path d="M153 129h5v6h-5zm0 0"/></clipPath><clipPath id="cm"><path d="M150 0a150 150 0 100 300 150 150 0 000-300zm0 0"/></clipPath><clipPath id="cn"><path d="M148 125h15v14h-15zm0 0"/></clipPath><clipPath id="co"><path d="M150 0a150 150 0 100 300 150 150 0 000-300zm0 0"/></clipPath><clipPath id="cp"><path d="M149 129h6v6h-6zm0 0"/></clipPath><clipPath id="cq"><path d="M150 0a150 150 0 100 300 150 150 0 000-300zm0 0"/></clipPath><clipPath id="cr"><path d="M145 125h14v14h-14zm0 0"/></clipPath><clipPath id="cs"><path d="M150 0a150 150 0 100 300 150 150 0 000-300zm0 0"/></clipPath><clipPath id="ct"><path d="M150 127h6v5h-6zm0 0"/></clipPath><clipPath id="cu"><path d="M150 0a150 150 0 100 300 150 150 0 000-300zm0 0"/></clipPath><clipPath id="cv"><path d="M146 123h14v13h-14zm0 0"/></clipPath><clipPath id="cw"><path d="M150 0a150 150 0 100 300 150 150 0 000-300zm0 0"/></clipPath><clipPath id="cx"><path d="M150 124h6v5h-6zm0 0"/></clipPath><clipPath id="cy"><path d="M150 0a150 150 0 100 300 150 150 0 000-300zm0 0"/></clipPath><clipPath id="cz"><path d="M145 120h15v14h-15zm0 0"/></clipPath><clipPath id="cA"><path d="M150 0a150 150 0 100 300 150 150 0 000-300zm0 0"/></clipPath><clipPath id="cB"><path d="M146 127h6v6h-6zm0 0"/></clipPath><clipPath id="cC"><path d="M150 0a150 150 0 100 300 150 150 0 000-300zm0 0"/></clipPath><clipPath id="cD"><path d="M142 123h14v14h-14zm0 0"/></clipPath><clipPath id="cE"><path d="M150 0a150 150 0 100 300 150 150 0 000-300zm0 0"/></clipPath><clipPath id="cF"><path d="M147 124h6v6h-6zm0 0"/></clipPath><clipPath id="cG"><path d="M150 0a150 150 0 100 300 150 150 0 000-300zm0 0"/></clipPath><clipPath id="cH"><path d="M143 120h14v14h-14zm0 0"/></clipPath><clipPath id="cI"><path d="M150 0a150 150 0 100 300 150 150 0 000-300zm0 0"/></clipPath><clipPath id="cJ"><path d="M143 124h6v6h-6zm0 0"/></clipPath><clipPath id="cK"><path d="M150 0a150 150 0 100 300 150 150 0 000-300zm0 0"/></clipPath><clipPath id="cL"><path d="M138 120h15v14h-15zm0 0"/></clipPath><clipPath id="cM"><path d="M150 0a150 150 0 100 300 150 150 0 000-300zm0 0"/></clipPath><clipPath id="cN"><path d="M148 120h6v6h-6zm0 0"/></clipPath><clipPath id="cO"><path d="M150 0a150 150 0 100 300 150 150 0 000-300zm0 0"/></clipPath><clipPath id="cP"><path d="M144 116h14v14h-14zm0 0"/></clipPath><clipPath id="cQ"><path d="M150 0a150 150 0 100 300 150 150 0 000-300zm0 0"/></clipPath><clipPath id="cR"><path d="M144 121h6v5h-6zm0 0"/></clipPath><clipPath id="cS"><path d="M150 0a150 150 0 100 300 150 150 0 000-300zm0 0"/></clipPath><clipPath id="cT"><path d="M140 117h15v14h-15zm0 0"/></clipPath><clipPath id="cU"><path d="M150 0a150 150 0 100 300 150 150 0 000-300zm0 0"/></clipPath><clipPath id="cV"><path d="M139 124h6v6h-6zm0 0"/></clipPath><clipPath id="cW"><path d="M150 0a150 150 0 100 300 150 150 0 000-300zm0 0"/></clipPath><clipPath id="cX"><path d="M135 120h14v14h-14zm0 0"/></clipPath><clipPath id="cY"><path d="M150 0a150 150 0 100 300 150 150 0 000-300zm0 0"/></clipPath><clipPath id="cZ"><path d="M140 123h6v5h-6zm0 0"/></clipPath><clipPath id="da"><path d="M150 0a150 150 0 100 300 150 150 0 000-300zm0 0"/></clipPath><clipPath id="db"><path d="M136 118h14v15h-14zm0 0"/></clipPath><clipPath id="dc"><path d="M150 0a150 150 0 100 300 150 150 0 000-300zm0 0"/></clipPath><clipPath id="dd"><path d="M141 121h6v5h-6zm0 0"/></clipPath><clipPath id="de"><path d="M150 0a150 150 0 100 300 150 150 0 000-300zm0 0"/></clipPath><clipPath id="df"><path d="M137 116h14v15h-14zm0 0"/></clipPath><clipPath id="dg"><path d="M150 0a150 150 0 100 300 150 150 0 000-300zm0 0"/></clipPath><clipPath id="dh"><path d="M148 129h24v43h-24zm0 0"/></clipPath><clipPath id="di"><path d="M150 0a150 150 0 100 300 150 150 0 000-300zm0 0"/></clipPath><clipPath id="dj"><path d="M144 125h32v51h-32zm0 0"/></clipPath><clipPath id="dk"><path d="M150 0a150 150 0 100 300 150 150 0 000-300zm0 0"/></clipPath><clipPath id="dl"><path d="M164 149h5v10h-5zm0 0"/></clipPath><clipPath id="dm"><path d="M150 0a150 150 0 100 300 150 150 0 000-300zm0 0"/></clipPath><clipPath id="dn"><path d="M159 145h15v18h-15zm0 0"/></clipPath><clipPath id="do"><path d="M150 0a150 150 0 100 300 150 150 0 000-300zm0 0"/></clipPath><clipPath id="dp"><path d="M157 139h15v32h-15zm0 0"/></clipPath><clipPath id="dq"><path d="M150 0a150 150 0 100 300 150 150 0 000-300zm0 0"/></clipPath><clipPath id="dr"><path d="M152 134h24v42h-24zm0 0"/></clipPath><clipPath id="ds"><path d="M150 0a150 150 0 100 300 150 150 0 000-300zm0 0"/></clipPath><clipPath id="dt"><path d="M157 145h15v33h-15zm0 0"/></clipPath><clipPath id="du"><path d="M150 0a150 150 0 100 300 150 150 0 000-300zm0 0"/></clipPath><clipPath id="dv"><path d="M153 141h23v41h-23zm0 0"/></clipPath><clipPath id="dw"><path d="M150 0a150 150 0 100 300 150 150 0 000-300zm0 0"/></clipPath><clipPath id="dx"><path d="M157 150h16v33h-16zm0 0"/></clipPath><clipPath id="dy"><path d="M150 0a150 150 0 100 300 150 150 0 000-300zm0 0"/></clipPath><clipPath id="dz"><path d="M153 146h24v41h-24zm0 0"/></clipPath><clipPath id="dA"><path d="M150 0a150 150 0 100 300 150 150 0 000-300zm0 0"/></clipPath><clipPath id="dB"><path d="M157 138h10v17h-10zm0 0"/></clipPath><clipPath id="dC"><path d="M150 0a150 150 0 100 300 150 150 0 000-300zm0 0"/></clipPath><clipPath id="dD"><path d="M153 134h18v25h-18zm0 0"/></clipPath><clipPath id="dE"><path d="M150 0a150 150 0 100 300 150 150 0 000-300zm0 0"/></clipPath><clipPath id="dF"><path d="M155 144h9v14h-9zm0 0"/></clipPath><clipPath id="dG"><path d="M150 0a150 150 0 100 300 150 150 0 000-300zm0 0"/></clipPath><clipPath id="dH"><path d="M151 140h17v22h-17zm0 0"/></clipPath><clipPath id="dI"><path d="M150 0a150 150 0 100 300 150 150 0 000-300zm0 0"/></clipPath><clipPath id="dJ"><path d="M152 147h8v14h-8zm0 0"/></clipPath><clipPath id="dK"><path d="M150 0a150 150 0 100 300 150 150 0 000-300zm0 0"/></clipPath><clipPath id="dL"><path d="M148 143h17v22h-17zm0 0"/></clipPath><clipPath id="dM"><path d="M150 0a150 150 0 100 300 150 150 0 000-300zm0 0"/></clipPath><clipPath id="dN"><path d="M155 138h7v10h-7zm0 0"/></clipPath><clipPath id="dO"><path d="M150 0a150 150 0 100 300 150 150 0 000-300zm0 0"/></clipPath><clipPath id="dP"><path d="M151 134h16v19h-16zm0 0"/></clipPath><clipPath id="dQ"><path d="M150 0a150 150 0 100 300 150 150 0 000-300zm0 0"/></clipPath><clipPath id="dR"><path d="M153 140h7v11h-7zm0 0"/></clipPath><clipPath id="dS"><path d="M150 0a150 150 0 100 300 150 150 0 000-300zm0 0"/></clipPath><clipPath id="dT"><path d="M149 136h15v19h-15zm0 0"/></clipPath><clipPath id="dU"><path d="M150 0a150 150 0 100 300 150 150 0 000-300zm0 0"/></clipPath><clipPath id="dV"><path d="M150 142h7v10h-7zm0 0"/></clipPath><clipPath id="dW"><path d="M150 0a150 150 0 100 300 150 150 0 000-300zm0 0"/></clipPath><clipPath id="dX"><path d="M146 137h15v19h-15zm0 0"/></clipPath><clipPath id="dY"><path d="M150 0a150 150 0 100 300 150 150 0 000-300zm0 0"/></clipPath><clipPath id="dZ"><path d="M153 134h6v11h-6zm0 0"/></clipPath><clipPath id="ea"><path d="M150 0a150 150 0 100 300 150 150 0 000-300zm0 0"/></clipPath><clipPath id="eb"><path d="M148 130h16v19h-16zm0 0"/></clipPath><clipPath id="ec"><path d="M150 0a150 150 0 100 300 150 150 0 000-300zm0 0"/></clipPath><clipPath id="ed"><path d="M150 136h6v11h-6zm0 0"/></clipPath><clipPath id="ee"><path d="M150 0a150 150 0 100 300 150 150 0 000-300zm0 0"/></clipPath><clipPath id="ef"><path d="M145 132h15v19h-15zm0 0"/></clipPath><clipPath id="eg"><path d="M150 0a150 150 0 100 300 150 150 0 000-300zm0 0"/></clipPath><clipPath id="eh"><path d="M148 135h6v8h-6zm0 0"/></clipPath><clipPath id="ei"><path d="M150 0a150 150 0 100 300 150 150 0 000-300zm0 0"/></clipPath><clipPath id="ej"><path d="M144 131h14v16h-14zm0 0"/></clipPath><clipPath id="ek"><path d="M150 0a150 150 0 100 300 150 150 0 000-300zm0 0"/></clipPath><clipPath id="el"><path d="M150 133h5v8h-5zm0 0"/></clipPath><clipPath id="em"><path d="M150 0a150 150 0 100 300 150 150 0 000-300zm0 0"/></clipPath><clipPath id="en"><path d="M145 129h14v16h-14zm0 0"/></clipPath><clipPath id="eo"><path d="M150 0a150 150 0 100 300 150 150 0 000-300zm0 0"/></clipPath><clipPath id="ep"><path d="M154 134h8v10h-8zm0 0"/></clipPath><clipPath id="eq"><path d="M150 0a150 150 0 100 300 150 150 0 000-300zm0 0"/></clipPath><clipPath id="er"><path d="M150 129h16v19h-16zm0 0"/></clipPath><clipPath id="es"><path d="M150 0a150 150 0 100 300 150 150 0 000-300zm0 0"/></clipPath><clipPath id="et"><path d="M151 131h6v9h-6zm0 0"/></clipPath><clipPath id="eu"><path d="M150 0a150 150 0 100 300 150 150 0 000-300zm0 0"/></clipPath><clipPath id="ev"><path d="M147 127h14v17h-14zm0 0"/></clipPath><clipPath id="ew"><path d="M150 0a150 150 0 100 300 150 150 0 000-300zm0 0"/></clipPath><clipPath id="ex"><path d="M153 126h16v11h-16zm0 0"/></clipPath><clipPath id="ey"><path d="M150 0a150 150 0 100 300 150 150 0 000-300zm0 0"/></clipPath><clipPath id="ez"><path d="M149 122h24v19h-24zm0 0"/></clipPath><clipPath id="eA"><path d="M150 0a150 150 0 100 300 150 150 0 000-300zm0 0"/></clipPath><clipPath id="eB"><path d="M152 122h16v11h-16zm0 0"/></clipPath><clipPath id="eC"><path d="M150 0a150 150 0 100 300 150 150 0 000-300zm0 0"/></clipPath><clipPath id="eD"><path d="M148 118h24v19h-24zm0 0"/></clipPath><clipPath id="eE"><path d="M150 0a150 150 0 100 300 150 150 0 000-300zm0 0"/></clipPath><clipPath id="eF"><path d="M151 119h16v10h-16zm0 0"/></clipPath><clipPath id="eG"><path d="M150 0a150 150 0 100 300 150 150 0 000-300zm0 0"/></clipPath><clipPath id="eH"><path d="M147 114h24v20h-24zm0 0"/></clipPath><clipPath id="eI"><path d="M150 0a150 150 0 100 300 150 150 0 000-300zm0 0"/></clipPath><clipPath id="eJ"><path d="M149 115h16v10h-16zm0 0"/></clipPath><clipPath id="eK"><path d="M150 0a150 150 0 100 300 150 150 0 000-300zm0 0"/></clipPath><clipPath id="eL"><path d="M144 110h25v20h-25zm0 0"/></clipPath><clipPath id="eM"><path d="M150 0a150 150 0 100 300 150 150 0 000-300zm0 0"/></clipPath><clipPath id="eN"><path d="M138 110h26v13h-26zm0 0"/></clipPath><clipPath id="eO"><path d="M150 0a150 150 0 100 300 150 150 0 000-300zm0 0"/></clipPath><clipPath id="eP"><path d="M134 105h34v23h-34zm0 0"/></clipPath><clipPath id="eQ"><path d="M150 0a150 150 0 100 300 150 150 0 000-300zm0 0"/></clipPath><clipPath id="eR"><path d="M144 114h5v3h-5zm0 0"/></clipPath><clipPath id="eS"><path d="M150 0a150 150 0 100 300 150 150 0 000-300zm0 0"/></clipPath><clipPath id="eT"><path d="M139 110h14v12h-14zm0 0"/></clipPath><clipPath id="eU"><path d="M150 0a150 150 0 100 300 150 150 0 000-300zm0 0"/></clipPath><clipPath id="eV"><path d="M136 118h7v5h-7zm0 0"/></clipPath><clipPath id="eW"><path d="M150 0a150 150 0 100 300 150 150 0 000-300zm0 0"/></clipPath><clipPath id="eX"><path d="M132 114h15v13h-15zm0 0"/></clipPath><clipPath id="eY"><path d="M150 0a150 150 0 100 300 150 150 0 000-300zm0 0"/></clipPath><clipPath id="eZ"><path d="M145 114h2v3h-2zm0 0"/></clipPath><clipPath id="fa"><path d="M150 0a150 150 0 100 300 150 150 0 000-300zm0 0"/></clipPath><clipPath id="fb"><path d="M134 115h8v10h-8zm0 0"/></clipPath><clipPath id="fc"><path d="M150 0a150 150 0 100 300 150 150 0 000-300zm0 0"/></clipPath><clipPath id="fd"><path d="M130 111h16v18h-16zm0 0"/></clipPath><clipPath id="fe"><path d="M150 0a150 150 0 100 300 150 150 0 000-300zm0 0"/></clipPath><clipPath id="ff"><path d="M138 117h2v2h-2zm0 0"/></clipPath><clipPath id="fg"><path d="M150 0a150 150 0 100 300 150 150 0 000-300zm0 0"/></clipPath></defs><g clip-path="url(#a)"><path fill="#006b3e" d="M0 0h300v300H0z"/></g><g clip-path="url(#b)"><g clip-path="url(#c)"><path d="M-150 187.5h600v-25h-600zm0 0" fill="#fff"/></g></g><g clip-path="url(#d)"><g clip-path="url(#e)"><path d="M-150 162.5h600v-25h-600zm0 0"/></g></g><g clip-path="url(#f)"><g clip-path="url(#g)"><path d="M-150 137.5h600v-25h-600zm0 0" fill="#fbd115"/></g></g><g clip-path="url(#h)"><g clip-path="url(#i)"><path d="M112.5 300h25V0h-25zm0 0" fill="#fbd115"/></g></g><g clip-path="url(#j)"><g clip-path="url(#k)"><path d="M137.5 300h25V0h-25zm0 0"/></g></g><g clip-path="url(#l)"><g clip-path="url(#m)"><path d="M162.5 300h25V0h-25zm0 0" fill="#fff"/></g></g><g clip-path="url(#n)"><g clip-path="url(#o)"><path d="M225 150a75 75 0 11-150 1.2 31.9 31.9 0 010-1.2 75 75 0 11150 0" fill="#d31c2f"/></g></g><g clip-path="url(#p)"><g clip-path="url(#q)"><path d="M147.6 90.8l2.4-6.9 2.2 6.8s7.3.2 7.3.1l-5.8 4.4 2.6 7.5c0-.2-6.3-4.6-6.3-4.6l-6.2 4.4 2.4-7.3-5.7-4.3" fill="#006b3e"/></g></g><g clip-path="url(#r)"><g clip-path="url(#s)"><path d="M147.6 90.8l2.4-6.9 2.2 6.8s7.3.2 7.3.1l-5.8 4.4 2.6 7.5c0-.2-6.3-4.6-6.3-4.6l-6.2 4.4 2.4-7.3-5.7-4.3zm0 0" fill="none" stroke="#000"/></g></g><g clip-path="url(#t)"><g clip-path="url(#u)"><path d="M152.4 209.4l-2.4 6.8-2.2-6.7s-7.3-.2-7.3-.1l5.8-4.5-2.6-7.5c0 .2 6.3 4.7 6.3 4.7l6.2-4.5-2.4 7.3 5.7 4.4" fill="#006b3e"/></g></g><g clip-path="url(#v)"><g clip-path="url(#w)"><path d="M152.4 209.4l-2.4 6.8-2.2-6.7s-7.3-.2-7.3-.1l5.8-4.5-2.6-7.5c0 .2 6.3 4.7 6.3 4.7l6.2-4.5-2.4 7.3 5.7 4.4zm0 0" fill="none" stroke="#000"/></g></g><g clip-path="url(#x)"><g clip-path="url(#y)"><path d="M184.9 107.7l-2.4 6.9-2.2-6.8s-7.4-.2-7.4 0l5.8-4.5-2.6-7.5c.1.2 6.4 4.6 6.4 4.6l6.2-4.4-2.4 7.3 5.7 4.3" fill="#006b3e"/></g></g><g clip-path="url(#z)"><g clip-path="url(#A)"><path d="M184.9 107.7l-2.4 6.9-2.2-6.8s-7.4-.2-7.4 0l5.8-4.5-2.6-7.5c.1.2 6.4 4.6 6.4 4.6l6.2-4.4-2.4 7.3 5.7 4.3zm0 0" fill="none" stroke="#000"/></g></g><g clip-path="url(#B)"><g clip-path="url(#C)"><path d="M205.9 169.3l-2.4 6.8-2.2-6.7s-7.3-.3-7.3-.1 5.8-4.5 5.8-4.5l-2.6-7.5c0 .2 6.3 4.6 6.3 4.6l6.2-4.4-2.4 7.3 5.7 4.3" fill="#006b3e"/></g></g><g clip-path="url(#D)"><g clip-path="url(#E)"><path d="M205.9 169.3l-2.4 6.8-2.2-6.7s-7.3-.3-7.3-.1 5.8-4.5 5.8-4.5l-2.6-7.5c0 .2 6.3 4.6 6.3 4.6l6.2-4.4-2.4 7.3 5.7 4.3zm0 0" fill="none" stroke="#000"/></g></g><g clip-path="url(#F)"><g clip-path="url(#G)"><path d="M98.9 171l-2.4 6.9-2.2-6.8s-7.3-.2-7.3 0l5.8-4.5L90 159l6.4 4.6 6.2-4.4-2.4 7.3 5.7 4.3" fill="#006b3e"/></g></g><g clip-path="url(#H)"><g clip-path="url(#I)"><path d="M98.9 171l-2.4 6.9-2.2-6.8s-7.3-.2-7.3 0l5.8-4.5L90 159l6.4 4.6 6.2-4.4-2.4 7.3 5.7 4.3zm0 0" fill="none" stroke="#000"/></g></g><g clip-path="url(#J)"><g clip-path="url(#K)"><path d="M118.3 108.5l-2.4 6.8-2.2-6.7s-7.3-.3-7.3-.2l5.8-4.4-2.6-7.5c0 .2 6.3 4.6 6.3 4.6l6.2-4.4-2.4 7.3 5.7 4.3" fill="#006b3e"/></g></g><g clip-path="url(#L)"><g clip-path="url(#M)"><path d="M118.3 108.5l-2.4 6.8-2.2-6.7s-7.3-.3-7.3-.2l5.8-4.4-2.6-7.5c0 .2 6.3 4.6 6.3 4.6l6.2-4.4-2.4 7.3 5.7 4.3zm0 0" fill="none" stroke="#000"/></g></g><g clip-path="url(#N)"><g clip-path="url(#O)"><path d="M93.7 131l2.4-7 2.2 6.8s7.3.2 7.3.1l-5.8 4.5 2.6 7.5c-.1-.2-6.3-4.7-6.3-4.7l-6.3 4.5 2.4-7.3-5.6-4.4" fill="#006b3e"/></g></g><g clip-path="url(#P)"><g clip-path="url(#Q)"><path d="M93.7 131l2.4-7 2.2 6.8s7.3.2 7.3.1l-5.8 4.5 2.6 7.5c-.1-.2-6.3-4.7-6.3-4.7l-6.3 4.5 2.4-7.3-5.6-4.4zm0 0" fill="none" stroke="#000"/></g></g><g clip-path="url(#R)"><g clip-path="url(#S)"><path d="M114.6 192.3l2.4-6.8 2.2 6.7s7.3.3 7.3.1l-5.8 4.5 2.6 7.5c-.1-.2-6.3-4.7-6.3-4.7l-6.3 4.5c.2 0 2.4-7.3 2.4-7.3l-5.6-4.3" fill="#006b3e"/></g></g><g clip-path="url(#T)"><g clip-path="url(#U)"><path d="M114.6 192.3l2.4-6.8 2.2 6.7s7.3.3 7.3.1l-5.8 4.5 2.6 7.5c-.1-.2-6.3-4.7-6.3-4.7l-6.3 4.5c.2 0 2.4-7.3 2.4-7.3l-5.6-4.3zm0 0" fill="none" stroke="#000"/></g></g><g clip-path="url(#V)"><g clip-path="url(#W)"><path d="M200.7 129.3l2.4-6.9 2.2 6.8s7.3.2 7.3.1l-5.8 4.4 2.7 7.5c-.1-.2-6.4-4.6-6.4-4.6L197 141l2.4-7.3-5.7-4.3" fill="#006b3e"/></g></g><g clip-path="url(#X)"><g clip-path="url(#Y)"><path d="M200.7 129.3l2.4-6.9 2.2 6.8s7.3.2 7.3.1l-5.8 4.4 2.7 7.5c-.1-.2-6.4-4.6-6.4-4.6L197 141l2.4-7.3-5.7-4.3zm0 0" fill="none" stroke="#000"/></g></g><g clip-path="url(#Z)"><g clip-path="url(#aa)"><path d="M181.2 191.8l2.4-6.9 2.2 6.8s7.3.2 7.3 0l-5.8 4.5 2.7 7.5c-.1-.2-6.4-4.6-6.4-4.6l-6.2 4.4 2.4-7.3-5.7-4.3" fill="#006b3e"/></g></g><g clip-path="url(#ab)"><g clip-path="url(#ac)"><path d="M181.2 191.8l2.4-6.9 2.2 6.8s7.3.2 7.3 0l-5.8 4.5 2.7 7.5c-.1-.2-6.4-4.6-6.4-4.6l-6.2 4.4 2.4-7.3-5.7-4.3zm0 0" fill="none" stroke="#000"/></g></g><g clip-path="url(#ad)"><g clip-path="url(#ae)"><path d="M158.7 147.8c2.5-.3 5.2 9.4 6 21.6 1 12.1-.4 22.2-2.8 22.5-2.5.2-5.2-9.4-6-21.6-1-12.2.3-22.2 2.8-22.5" fill="#006b3e"/></g></g><g clip-path="url(#af)"><g clip-path="url(#ag)"><path d="M158.7 147.8c2.5-.3 5.2 9.4 6 21.6 1 12.1-.4 22.2-2.8 22.5-2.5.2-5.2-9.4-6-21.6-1-12.2.3-22.2 2.8-22.5zm0 0" fill="none" stroke-width=".8" stroke="#000"/></g></g><g clip-path="url(#ah)"><g clip-path="url(#ai)"><path d="M163.1 147.7c2.6-.2 5.4 9.4 6.3 21.6.9 12.2-.5 22.3-3.1 22.5-2.6.3-5.5-9.3-6.3-21.5-1-12.2.5-22.3 3.1-22.6" fill="#006b3e"/></g></g><g clip-path="url(#aj)"><g clip-path="url(#ak)"><path d="M163.1 147.7c2.6-.2 5.4 9.4 6.3 21.6.9 12.2-.5 22.3-3.1 22.5-2.6.3-5.5-9.3-6.3-21.5-1-12.2.5-22.3 3.1-22.6zm0 0" fill="none" stroke-width=".8" stroke="#000"/></g></g><g clip-path="url(#al)"><g clip-path="url(#am)"><path d="M160.9 146.6c2-.2 4.5 10.5 5.5 24 1 13.4 0 24.5-2.1 24.7-2 .3-4.5-10.5-5.5-24-1-13.4 0-24.5 2.1-24.7" fill="#006b3e"/></g></g><g clip-path="url(#an)"><g clip-path="url(#ao)"><path d="M160.9 146.6c2-.2 4.5 10.5 5.5 24 1 13.4 0 24.5-2.1 24.7-2 .3-4.5-10.5-5.5-24-1-13.4 0-24.5 2.1-24.7zm0 0" fill="none" stroke-width=".8" stroke="#000"/></g></g><g clip-path="url(#ap)"><g clip-path="url(#aq)"><path d="M127.9 181.3c3.8-.2 2.2-2.2 4-3.3 2-1.1 4.8-.4 5.6 1 .8 1.3.2 2.7 1.2 2.7s30-1.2 31 0c1 1 1.2 3.3.2 4.2-1.1.9-37.7 1.3-39 .4-1.2-1-3-4.8-3-5" fill="#9c4900"/></g></g><g clip-path="url(#ar)"><g clip-path="url(#as)"><path d="M127.9 181.3c3.8-.2 2.2-2.2 4-3.3 2-1.1 4.8-.4 5.6 1 .8 1.3.2 2.7 1.2 2.7s30-1.2 31 0c1 1 1.2 3.3.2 4.2-1.1.9-37.7 1.3-39 .4-1.2-1-3-4.8-3-5zm0 0" fill="none" stroke-width=".8" stroke="#000"/></g></g><g clip-path="url(#at)"><g clip-path="url(#au)"><path d="M148.3 184.1c0 2.9 4.2 2 4.3 4.5-.2 2.5-7.2.1-7.3-4.5.3-4.7 7.2-7 7.3-4.4 0 2.3-4.2 1.5-4.3 4.4" fill="#fbd115"/></g></g><g clip-path="url(#av)"><g clip-path="url(#aw)"><path d="M148.3 184.1c0 2.9 4.2 2 4.3 4.5-.2 2.5-7.2.1-7.3-4.5.3-4.7 7.2-7 7.3-4.4 0 2.3-4.2 1.5-4.3 4.4zm0 0" fill="none" stroke-width=".8" stroke="#000"/></g></g><g clip-path="url(#ax)"><g clip-path="url(#ay)"><path d="M150.8 184.1c0 3 4.2 2.1 4.3 4.5-.1 2.6-7.2.2-7.2-4.5.3-4.7 7.1-7 7.2-4.3 0 2.2-4.2 1.4-4.3 4.3" fill="#fbd115"/></g></g><g clip-path="url(#az)"><g clip-path="url(#aA)"><path d="M150.8 184.1c0 3 4.2 2.1 4.3 4.5-.1 2.6-7.2.2-7.2-4.5.3-4.7 7.1-7 7.2-4.3 0 2.2-4.2 1.4-4.3 4.3zm0 0" fill="none" stroke-width=".8" stroke="#000"/></g></g><g clip-path="url(#aB)"><g clip-path="url(#aC)"><path d="M153.5 184c0 3 4.2 2.1 4.3 4.5-.1 2.6-7.2.2-7.2-4.5.3-4.7 7.1-7 7.2-4.3 0 2.2-4.2 1.4-4.3 4.3" fill="#fbd115"/></g></g><g clip-path="url(#aD)"><g clip-path="url(#aE)"><path d="M153.5 184c0 3 4.2 2.1 4.3 4.5-.1 2.6-7.2.2-7.2-4.5.3-4.7 7.1-7 7.2-4.3 0 2.2-4.2 1.4-4.3 4.3zm0 0" fill="none" stroke-width=".8" stroke="#000"/></g></g><g clip-path="url(#aF)"><g clip-path="url(#aG)"><path d="M156 184c0 3 4.3 2.1 4.3 4.5-.1 2.6-7.1.2-7.2-4.5.3-4.6 7.2-7 7.2-4.3.1 2.2-4.2 1.5-4.2 4.4" fill="#fbd115"/></g></g><g clip-path="url(#aH)"><g clip-path="url(#aI)"><path d="M156 184c0 3 4.3 2.1 4.3 4.5-.1 2.6-7.1.2-7.2-4.5.3-4.6 7.2-7 7.2-4.3.1 2.2-4.2 1.5-4.2 4.4zm0 0" fill="none" stroke-width=".8" stroke="#000"/></g></g><g clip-path="url(#aJ)"><g clip-path="url(#aK)"><path d="M168.1 181.2c1.4 0 2.4 1.2 2.4 2.5 0 1.4-1.1 2.5-2.5 2.5a2.4 2.4 0 01-2.4-2.5c0-1.4 1.2-2.5 2.5-2.5" fill="#9c4900"/></g></g><g clip-path="url(#aL)"><g clip-path="url(#aM)"><path d="M168.1 181.2c1.4 0 2.4 1.2 2.4 2.5 0 1.4-1.1 2.5-2.5 2.5a2.4 2.4 0 01-2.4-2.5c0-1.4 1.2-2.5 2.5-2.5zm0 0" fill="none" stroke-width=".8" stroke="#000"/></g></g><g clip-path="url(#aN)"><g clip-path="url(#aO)"><path d="M153 170.6c1.1-.1 2.3 1.8 2.6 4.5.3 2.6-.5 4.9-1.7 5-1.2.3-2.3-1.7-2.6-4.4-.3-2.6.4-4.9 1.6-5" fill="#006b3e"/></g></g><g clip-path="url(#aP)"><g clip-path="url(#aQ)"><path d="M153 170.6c1.1-.1 2.3 1.8 2.6 4.5.3 2.6-.5 4.9-1.7 5-1.2.3-2.3-1.7-2.6-4.4-.3-2.6.4-4.9 1.6-5zm0 0" fill="none" stroke-width=".8" stroke="#000"/></g></g><g clip-path="url(#aR)"><g clip-path="url(#aS)"><path d="M149.2 170.4c1.2-.2 2.4 1.8 2.7 4.4.3 2.6-.4 5-1.6 5-1.2.3-2.4-1.7-2.7-4.4-.3-2.6.5-4.9 1.6-5" fill="#006b3e"/></g></g><g clip-path="url(#aT)"><g clip-path="url(#aU)"><path d="M149.2 170.4c1.2-.2 2.4 1.8 2.7 4.4.3 2.6-.4 5-1.6 5-1.2.3-2.4-1.7-2.7-4.4-.3-2.6.5-4.9 1.6-5zm0 0" fill="none" stroke-width=".8" stroke="#000"/></g></g><g clip-path="url(#aV)"><g clip-path="url(#aW)"><path d="M146.6 165.6c1.2-.1 2.4 1.9 2.7 4.5.3 2.6-.5 4.9-1.7 5-1.2.3-2.4-1.7-2.6-4.4-.3-2.6.4-4.9 1.6-5" fill="#006b3e"/></g></g><g clip-path="url(#aX)"><g clip-path="url(#aY)"><path d="M146.6 165.6c1.2-.1 2.4 1.9 2.7 4.5.3 2.6-.5 4.9-1.7 5-1.2.3-2.4-1.7-2.6-4.4-.3-2.6.4-4.9 1.6-5zm0 0" fill="none" stroke-width=".8" stroke="#000"/></g></g><g clip-path="url(#aZ)"><g clip-path="url(#ba)"><path d="M150.3 165c1.1-.2 2.3 2 2.6 4.9.3 2.9-.3 5.4-1.5 5.6-1.1.1-2.3-2-2.6-5-.3-2.9.3-5.4 1.5-5.6" fill="#006b3e"/></g></g><g clip-path="url(#bb)"><g clip-path="url(#bc)"><path d="M150.3 165c1.1-.2 2.3 2 2.6 4.9.3 2.9-.3 5.4-1.5 5.6-1.1.1-2.3-2-2.6-5-.3-2.9.3-5.4 1.5-5.6zm0 0" fill="none" stroke-width=".8" stroke="#000"/></g></g><g clip-path="url(#bd)"><g clip-path="url(#be)"><path d="M155.5 165.3c1.1-.2 2.3 2 2.6 4.6.3 2.8-.4 5.1-1.6 5.3-1.1.2-2.3-1.9-2.6-4.6-.3-2.8.4-5.1 1.6-5.3" fill="#009443"/></g></g><g clip-path="url(#bf)"><g clip-path="url(#bg)"><path d="M155.5 165.3c1.1-.2 2.3 2 2.6 4.6.3 2.8-.4 5.1-1.6 5.3-1.1.2-2.3-1.9-2.6-4.6-.3-2.8.4-5.1 1.6-5.3zm0 0" fill="none" stroke-width=".8" stroke="#000"/></g></g><g clip-path="url(#bh)"><g clip-path="url(#bi)"><path d="M152.6 163.6c1.2-.2 2.3 1.9 2.6 4.6.3 2.8-.4 5.1-1.5 5.3-1.2.2-2.3-2-2.6-4.6-.3-2.8.4-5.1 1.5-5.3" fill="#009443"/></g></g><g clip-path="url(#bj)"><g clip-path="url(#bk)"><path d="M152.6 163.6c1.2-.2 2.3 1.9 2.6 4.6.3 2.8-.4 5.1-1.5 5.3-1.2.2-2.3-2-2.6-4.6-.3-2.8.4-5.1 1.5-5.3zm0 0" fill="none" stroke-width=".8" stroke="#000"/></g></g><g clip-path="url(#bl)"><g clip-path="url(#bm)"><path d="M149 161.2c1.2-.2 2.4 1.8 2.7 4.6.3 2.7-.4 5-1.6 5.2-1.1.2-2.3-1.9-2.6-4.6-.3-2.7.4-5 1.6-5.2" fill="#009443"/></g></g><g clip-path="url(#bn)"><g clip-path="url(#bo)"><path d="M149 161.2c1.2-.2 2.4 1.8 2.7 4.6.3 2.7-.4 5-1.6 5.2-1.1.2-2.3-1.9-2.6-4.6-.3-2.7.4-5 1.6-5.2zm0 0" fill="none" stroke-width=".8" stroke="#000"/></g></g><g clip-path="url(#bp)"><g clip-path="url(#bq)"><path d="M145.8 159.7c1.1-.2 2.3 1.9 2.6 4.6.3 2.7-.4 5-1.6 5.2-1.1.2-2.3-1.9-2.6-4.6-.3-2.7.4-5 1.6-5.2" fill="#006b3e"/></g></g><g clip-path="url(#br)"><g clip-path="url(#bs)"><path d="M145.8 159.7c1.1-.2 2.3 1.9 2.6 4.6.3 2.7-.4 5-1.6 5.2-1.1.2-2.3-1.9-2.6-4.6-.3-2.7.4-5 1.6-5.2zm0 0" fill="none" stroke-width=".8" stroke="#000"/></g></g><g clip-path="url(#bt)"><g clip-path="url(#bu)"><path d="M142.6 123.7s-7.3 6.3-6.5 23.5c1 17.3 16.2 25.5 16.2 25.5s4-5 3.5-18.8c-1.1-20.4-8.3-29.4-8.3-29.4" fill="#9360c8"/></g></g><g clip-path="url(#bv)"><g clip-path="url(#bw)"><path d="M142.6 123.7s-7.3 6.3-6.5 23.5c1 17.3 16.2 25.5 16.2 25.5s4-5 3.5-18.8c-1.1-20.4-8.3-29.4-8.3-29.4zm0 0" fill="none" stroke-width=".8" stroke="#000"/></g></g><g clip-path="url(#bx)"><g clip-path="url(#by)"><path d="M159.5 171.2c1.2 0 2 2.2 1.8 4.8-.2 2.7-1.3 4.8-2.5 4.7-1.2 0-2-2.2-1.8-4.8.1-2.6 1.3-4.8 2.5-4.7" fill="#006b3e"/></g></g><g clip-path="url(#bz)"><g clip-path="url(#bA)"><path d="M159.5 171.2c1.2 0 2 2.2 1.8 4.8-.2 2.7-1.3 4.8-2.5 4.7-1.2 0-2-2.2-1.8-4.8.1-2.6 1.3-4.8 2.5-4.7zm0 0" fill="none" stroke-width=".8" stroke="#000"/></g></g><g clip-path="url(#bB)"><g clip-path="url(#bC)"><path d="M156 170.2c1.1 0 2 2.2 1.7 4.9-.1 2.6-1.3 4.7-2.5 4.7s-2-2.2-1.8-4.8c.2-2.7 1.3-4.8 2.5-4.8" fill="#006b3e"/></g></g><g clip-path="url(#bD)"><g clip-path="url(#bE)"><path d="M156 170.2c1.1 0 2 2.2 1.7 4.9-.1 2.6-1.3 4.7-2.5 4.7s-2-2.2-1.8-4.8c.2-2.7 1.3-4.8 2.5-4.8zm0 0" fill="none" stroke-width=".8" stroke="#000"/></g></g><g clip-path="url(#bF)"><g clip-path="url(#bG)"><path d="M154.2 165.1c1.2 0 2 2.2 1.8 4.9-.2 2.6-1.3 4.7-2.5 4.7s-2-2.2-1.9-4.8c.2-2.7 1.4-4.8 2.6-4.8" fill="#006b3e"/></g></g><g clip-path="url(#bH)"><g clip-path="url(#bI)"><path d="M154.2 165.1c1.2 0 2 2.2 1.8 4.9-.2 2.6-1.3 4.7-2.5 4.7s-2-2.2-1.9-4.8c.2-2.7 1.4-4.8 2.6-4.8zm0 0" fill="none" stroke-width=".8" stroke="#000"/></g></g><g clip-path="url(#bJ)"><g clip-path="url(#bK)"><path d="M158 165.1c1 0 1.8 2.4 1.6 5.3-.2 3-1.3 5.3-2.5 5.3-1.1 0-1.9-2.5-1.7-5.4.2-2.9 1.3-5.2 2.5-5.2" fill="#006b3e"/></g></g><g clip-path="url(#bL)"><g clip-path="url(#bM)"><path d="M158 165.1c1 0 1.8 2.4 1.6 5.3-.2 3-1.3 5.3-2.5 5.3-1.1 0-1.9-2.5-1.7-5.4.2-2.9 1.3-5.2 2.5-5.2zm0 0" fill="none" stroke-width=".8" stroke="#000"/></g></g><g clip-path="url(#bN)"><g clip-path="url(#bO)"><path d="M163 166.4c1 0 1.9 2.3 1.7 5-.2 2.7-1.3 5-2.5 4.9-1.1 0-2-2.3-1.7-5 .2-2.7 1.3-5 2.4-4.9" fill="#006b3e"/></g></g><g clip-path="url(#bP)"><g clip-path="url(#bQ)"><path d="M163 166.4c1 0 1.9 2.3 1.7 5-.2 2.7-1.3 5-2.5 4.9-1.1 0-2-2.3-1.7-5 .2-2.7 1.3-5 2.4-4.9zm0 0" fill="none" stroke-width=".8" stroke="#000"/></g></g><g clip-path="url(#bR)"><g clip-path="url(#bS)"><path d="M160.5 164.2c1.1 0 1.9 2.3 1.7 5-.2 2.8-1.3 5-2.5 5-1.1-.1-1.9-2.4-1.7-5 .2-2.8 1.3-5 2.5-5" fill="#006b3e"/></g></g><g clip-path="url(#bT)"><g clip-path="url(#bU)"><path d="M160.5 164.2c1.1 0 1.9 2.3 1.7 5-.2 2.8-1.3 5-2.5 5-1.1-.1-1.9-2.4-1.7-5 .2-2.8 1.3-5 2.5-5zm0 0" fill="none" stroke-width=".8" stroke="#000"/></g></g><g clip-path="url(#bV)"><g clip-path="url(#bW)"><path d="M157.4 161.2c1.1 0 2 2.2 1.7 5-.2 2.7-1.3 4.9-2.4 4.9-1.2 0-2-2.3-1.8-5 .2-2.8 1.3-5 2.5-5" fill="#006b3e"/></g></g><g clip-path="url(#bX)"><g clip-path="url(#bY)"><path d="M157.4 161.2c1.1 0 2 2.2 1.7 5-.2 2.7-1.3 4.9-2.4 4.9-1.2 0-2-2.3-1.8-5 .2-2.8 1.3-5 2.5-5zm0 0" fill="none" stroke-width=".8" stroke="#000"/></g></g><g clip-path="url(#bZ)"><g clip-path="url(#ca)"><path d="M154.4 159.1c1.2 0 2 2.3 1.7 5-.2 2.7-1.3 5-2.4 5-1.2-.1-2-2.4-1.8-5.1.2-2.7 1.3-5 2.5-4.9" fill="#006b3e"/></g></g><g clip-path="url(#cb)"><g clip-path="url(#cc)"><path d="M154.4 159.1c1.2 0 2 2.3 1.7 5-.2 2.7-1.3 5-2.4 5-1.2-.1-2-2.4-1.8-5.1.2-2.7 1.3-5 2.5-4.9zm0 0" fill="none" stroke-width=".8" stroke="#000"/></g></g><g clip-path="url(#cd)"><g clip-path="url(#ce)"><path d="M150.7 135.8c3.2-1.2 9.1 5.6 13.2 15.2 4.2 9.6 5 18.4 1.8 19.7-3.2 1.2-9.2-5.6-13.3-15.2-4.1-9.7-4.9-18.5-1.7-19.7" fill="#d31c2f"/></g></g><g clip-path="url(#cf)"><g clip-path="url(#cg)"><path d="M150.7 135.8c3.2-1.2 9.1 5.6 13.2 15.2 4.2 9.6 5 18.4 1.8 19.7-3.2 1.2-9.2-5.6-13.3-15.2-4.1-9.7-4.9-18.5-1.7-19.7zm0 0" fill="none" stroke-width=".8" stroke="#000"/></g></g><g clip-path="url(#ch)"><g clip-path="url(#ci)"><path d="M153.5 133c1.5 0 2.6 1.1 2.6 2.4 0 1.4-1.2 2.4-2.7 2.4-1.5 0-2.7-1.1-2.7-2.5 0-1.3 1.3-2.3 2.8-2.3" fill="#009443"/></g></g><g clip-path="url(#cj)"><g clip-path="url(#ck)"><path d="M153.5 133c1.5 0 2.6 1.1 2.6 2.4 0 1.4-1.2 2.4-2.7 2.4-1.5 0-2.7-1.1-2.7-2.5 0-1.3 1.3-2.3 2.8-2.3zm0 0" fill="none" stroke-width=".8" stroke="#000"/></g></g><g clip-path="url(#cl)"><g clip-path="url(#cm)"><path d="M155.5 129.6c1.3 0 2.4 1.2 2.4 2.5s-1.2 2.3-2.5 2.3a2.4 2.4 0 01-2.4-2.4c0-1.3 1.2-2.4 2.5-2.4" fill="#009443"/></g></g><g clip-path="url(#cn)"><g clip-path="url(#co)"><path d="M155.5 129.6c1.3 0 2.4 1.2 2.4 2.5s-1.2 2.3-2.5 2.3a2.4 2.4 0 01-2.4-2.4c0-1.3 1.2-2.4 2.5-2.4zm0 0" fill="none" stroke-width=".8" stroke="#000"/></g></g><g clip-path="url(#cp)"><g clip-path="url(#cq)"><path d="M152.2 129.6c1.4 0 2.4 1.1 2.4 2.4 0 1.3-1.1 2.4-2.5 2.4a2.4 2.4 0 01-2.3-2.5c0-1.3 1-2.3 2.4-2.3" fill="#009443"/></g></g><g clip-path="url(#cr)"><g clip-path="url(#cs)"><path d="M152.2 129.6c1.4 0 2.4 1.1 2.4 2.4 0 1.3-1.1 2.4-2.5 2.4a2.4 2.4 0 01-2.3-2.5c0-1.3 1-2.3 2.4-2.3zm0 0" fill="none" stroke-width=".8" stroke="#000"/></g></g><g clip-path="url(#ct)"><g clip-path="url(#cu)"><path d="M153 127.3c1.3 0 2.5 1 2.4 2.2 0 1.3-1.1 2.3-2.5 2.2-1.4 0-2.5-1-2.5-2.2 0-1.3 1.1-2.3 2.5-2.2" fill="#006b3e"/></g></g><g clip-path="url(#cv)"><g clip-path="url(#cw)"><path d="M153 127.3c1.3 0 2.5 1 2.4 2.2 0 1.3-1.1 2.3-2.5 2.2-1.4 0-2.5-1-2.5-2.2 0-1.3 1.1-2.3 2.5-2.2zm0 0" fill="none" stroke-width=".8" stroke="#000"/></g></g><g clip-path="url(#cx)"><g clip-path="url(#cy)"><path d="M152.7 124.4c1.4 0 2.5 1 2.4 2.3 0 1.3-1.1 2.2-2.5 2.2s-2.5-1-2.5-2.3c0-1.2 1.2-2.2 2.6-2.2" fill="#006b3e"/></g></g><g clip-path="url(#cz)"><g clip-path="url(#cA)"><path d="M152.7 124.4c1.4 0 2.5 1 2.4 2.3 0 1.3-1.1 2.2-2.5 2.2s-2.5-1-2.5-2.3c0-1.2 1.2-2.2 2.6-2.2zm0 0" fill="none" stroke-width=".8" stroke="#000"/></g></g><g clip-path="url(#cB)"><g clip-path="url(#cC)"><path d="M149.1 127.7c1.3 0 2.4 1.1 2.4 2.4 0 1.3-1.1 2.4-2.5 2.3a2.4 2.4 0 01-2.3-2.4c0-1.3 1-2.3 2.4-2.3" fill="#006b3e"/></g></g><g clip-path="url(#cD)"><g clip-path="url(#cE)"><path d="M149.1 127.7c1.3 0 2.4 1.1 2.4 2.4 0 1.3-1.1 2.4-2.5 2.3a2.4 2.4 0 01-2.3-2.4c0-1.3 1-2.3 2.4-2.3zm0 0" fill="none" stroke-width=".8" stroke="#000"/></g></g><g clip-path="url(#cF)"><g clip-path="url(#cG)"><path d="M149.8 124.7c1.4 0 2.4 1 2.4 2.4 0 1.3-1.1 2.3-2.4 2.3-1.4 0-2.4-1.1-2.4-2.4 0-1.3 1.1-2.3 2.4-2.3" fill="#006b3e"/></g></g><g clip-path="url(#cH)"><g clip-path="url(#cI)"><path d="M149.8 124.7c1.4 0 2.4 1 2.4 2.4 0 1.3-1.1 2.3-2.4 2.3-1.4 0-2.4-1.1-2.4-2.4 0-1.3 1.1-2.3 2.4-2.3zm0 0" fill="none" stroke-width=".8" stroke="#000"/></g></g><g clip-path="url(#cJ)"><g clip-path="url(#cK)"><path d="M145.9 124.7c1.4 0 2.6 1.1 2.6 2.4 0 1.4-1.2 2.4-2.7 2.4-1.5 0-2.7-1.1-2.7-2.5 0-1.3 1.3-2.3 2.8-2.3" fill="#006b3e"/></g></g><g clip-path="url(#cL)"><g clip-path="url(#cM)"><path d="M145.9 124.7c1.4 0 2.6 1.1 2.6 2.4 0 1.4-1.2 2.4-2.7 2.4-1.5 0-2.7-1.1-2.7-2.5 0-1.3 1.3-2.3 2.8-2.3zm0 0" fill="none" stroke-width=".8" stroke="#000"/></g></g><g clip-path="url(#cN)"><g clip-path="url(#cO)"><path d="M150.8 121c1.4 0 2.5 1 2.5 2.2 0 1.2-1.2 2.2-2.6 2.2-1.4 0-2.5-1-2.5-2.3 0-1.2 1.2-2.2 2.6-2.2" fill="#006b3e"/></g></g><g clip-path="url(#cP)"><g clip-path="url(#cQ)"><path d="M150.8 121c1.4 0 2.5 1 2.5 2.2 0 1.2-1.2 2.2-2.6 2.2-1.4 0-2.5-1-2.5-2.3 0-1.2 1.2-2.2 2.6-2.2zm0 0" fill="none" stroke-width=".8" stroke="#000"/></g></g><g clip-path="url(#cR)"><g clip-path="url(#cS)"><path d="M147.4 121.2c1.4 0 2.4 1.1 2.4 2.4 0 1.3-1.1 2.3-2.5 2.3-1.3 0-2.3-1-2.3-2.4 0-1.3 1.1-2.3 2.4-2.3" fill="#006b3e"/></g></g><g clip-path="url(#cT)"><g clip-path="url(#cU)"><path d="M147.4 121.2c1.4 0 2.4 1.1 2.4 2.4 0 1.3-1.1 2.3-2.5 2.3-1.3 0-2.3-1-2.3-2.4 0-1.3 1.1-2.3 2.4-2.3zm0 0" fill="none" stroke-width=".8" stroke="#000"/></g></g><g clip-path="url(#cV)"><g clip-path="url(#cW)"><path d="M142.3 124.8c1.3 0 2.4 1.2 2.4 2.5s-1.1 2.3-2.5 2.3a2.4 2.4 0 01-2.3-2.4c0-1.3 1-2.4 2.4-2.4" fill="#006b3e"/></g></g><g clip-path="url(#cX)"><g clip-path="url(#cY)"><path d="M142.3 124.8c1.3 0 2.4 1.2 2.4 2.5s-1.1 2.3-2.5 2.3a2.4 2.4 0 01-2.3-2.4c0-1.3 1-2.4 2.4-2.4zm0 0" fill="none" stroke-width=".8" stroke="#000"/></g></g><g clip-path="url(#cZ)"><g clip-path="url(#da)"><path d="M143.1 123.1c1.4 0 2.4 1.1 2.4 2.4 0 1.3-1.1 2.3-2.4 2.3-1.4 0-2.4-1.1-2.4-2.4 0-1.3 1.1-2.3 2.4-2.3" fill="#006b3e"/></g></g><g clip-path="url(#db)"><g clip-path="url(#dc)"><path d="M143.1 123.1c1.4 0 2.4 1.1 2.4 2.4 0 1.3-1.1 2.3-2.4 2.3-1.4 0-2.4-1.1-2.4-2.4 0-1.3 1.1-2.3 2.4-2.3zm0 0" fill="none" stroke-width=".8" stroke="#000"/></g></g><g clip-path="url(#dd)"><g clip-path="url(#de)"><path d="M144.2 121.2c1.3 0 2.4 1 2.3 2.3 0 1.3-1 2.3-2.4 2.3-1.3 0-2.4-1-2.4-2.4 0-1.2 1.1-2.3 2.5-2.2" fill="#006b3e"/></g></g><g clip-path="url(#df)"><g clip-path="url(#dg)"><path d="M144.2 121.2c1.3 0 2.4 1 2.3 2.3 0 1.3-1 2.3-2.4 2.3-1.3 0-2.4-1-2.4-2.4 0-1.2 1.1-2.3 2.5-2.2zm0 0" fill="none" stroke-width=".8" stroke="#000"/></g></g><g clip-path="url(#dh)"><g clip-path="url(#di)"><path d="M151 129.5c4.1-1.4 11.4 6.7 16.4 18.2 4.9 11.4 5.6 21.9 1.5 23.3-4 1.5-11.4-6.6-16.3-18.1-5-11.5-5.6-22-1.6-23.4" fill="#006b3e"/></g></g><g clip-path="url(#dj)"><g clip-path="url(#dk)"><path d="M151 129.5c4.1-1.4 11.4 6.7 16.4 18.2 4.9 11.4 5.6 21.9 1.5 23.3-4 1.5-11.4-6.6-16.3-18.1-5-11.5-5.6-22-1.6-23.4zm0 0" fill="none" stroke-width=".8" stroke="#000"/></g></g><g clip-path="url(#dl)"><g clip-path="url(#dm)"><path d="M164.5 149.6c.7-.4 2.2 1.3 3.3 3.7 1 2.3 1.3 4.6.6 5-.8.3-2.3-1.4-3.3-3.7-1.1-2.4-1.4-4.7-.6-5" fill="#006b3e"/></g></g><g clip-path="url(#dn)"><g clip-path="url(#do)"><path d="M164.5 149.6c.7-.4 2.2 1.3 3.3 3.7 1 2.3 1.3 4.6.6 5-.8.3-2.3-1.4-3.3-3.7-1.1-2.4-1.4-4.7-.6-5zm0 0" fill="none" stroke-width=".8" stroke="#000"/></g></g><g clip-path="url(#dp)"><g clip-path="url(#dq)"><path d="M165.7 153.9c6.4 7.8 5.6 12.7 5 17-2-4.9-3.2-8-9.6-15.7-6.4-7.8-3.2-13.3-2.7-16.2 1 2.5 1 7.1 7.3 14.9" fill="#006b3e"/></g></g><g clip-path="url(#dr)"><g clip-path="url(#ds)"><path d="M165.7 153.9c6.4 7.8 5.6 12.7 5 17-2-4.9-3.2-8-9.6-15.7-6.4-7.8-3.2-13.3-2.7-16.2 1 2.5 1 7.1 7.3 14.9zm0 0" fill="none" stroke-width=".8" stroke="#000"/></g></g><g clip-path="url(#dt)"><g clip-path="url(#du)"><path d="M166.3 160.2c6.4 7.8 5.6 12.8 5 17-2-4.9-3.2-8-9.6-15.7-6.4-7.8-3.2-13.3-2.8-16.2 1 2.5 1 7.1 7.4 14.9" fill="#006b3e"/></g></g><g clip-path="url(#dv)"><g clip-path="url(#dw)"><path d="M166.3 160.2c6.4 7.8 5.6 12.8 5 17-2-4.9-3.2-8-9.6-15.7-6.4-7.8-3.2-13.3-2.8-16.2 1 2.5 1 7.1 7.4 14.9zm0 0" fill="none" stroke-width=".8" stroke="#000"/></g></g><g clip-path="url(#dx)"><g clip-path="url(#dy)"><path d="M166.5 165.3c6.6 7.6 5.9 12.6 5.3 16.8-2.1-4.8-3.3-7.8-9.9-15.5-6.5-7.6-3.4-13.2-3-16 1 2.4 1 7 7.6 14.7" fill="#006b3e"/></g></g><g clip-path="url(#dz)"><g clip-path="url(#dA)"><path d="M166.5 165.3c6.6 7.6 5.9 12.6 5.3 16.8-2.1-4.8-3.3-7.8-9.9-15.5-6.5-7.6-3.4-13.2-3-16 1 2.4 1 7 7.6 14.7zm0 0" fill="none" stroke-width=".8" stroke="#000"/></g></g><g clip-path="url(#dB)"><g clip-path="url(#dC)"><path d="M158.5 138.8c1.5-.3 4.3 2.8 6.2 7 1.8 4.3 2.2 8 .7 8.5-1.5.3-4.3-2.8-6.2-7-1.8-4.3-2.2-8-.7-8.5" fill="#006b3e"/></g></g><g clip-path="url(#dD)"><g clip-path="url(#dE)"><path d="M158.5 138.8c1.5-.3 4.3 2.8 6.2 7 1.8 4.3 2.2 8 .7 8.5-1.5.3-4.3-2.8-6.2-7-1.8-4.3-2.2-8-.7-8.5zm0 0" fill="none" stroke-width=".8" stroke="#000"/></g></g><g clip-path="url(#dF)"><g clip-path="url(#dG)"><path d="M156.8 144.5c1.3-.2 3.6 2.4 5 6 1.5 3.5 1.6 6.5.3 6.8-1.4.2-3.7-2.5-5.1-6-1.5-3.5-1.6-6.6-.2-6.8" fill="#006b3e"/></g></g><g clip-path="url(#dH)"><g clip-path="url(#dI)"><path d="M156.8 144.5c1.3-.2 3.6 2.4 5 6 1.5 3.5 1.6 6.5.3 6.8-1.4.2-3.7-2.5-5.1-6-1.5-3.5-1.6-6.6-.2-6.8zm0 0" fill="none" stroke-width=".8" stroke="#000"/></g></g><g clip-path="url(#dJ)"><g clip-path="url(#dK)"><path d="M153.9 147.4c1.3-.2 3.5 2.5 5 6 1.3 3.6 1.3 6.7 0 6.9-1.4.2-3.6-2.6-5-6.1-1.4-3.6-1.4-6.6 0-6.8" fill="#006b3e"/></g></g><g clip-path="url(#dL)"><g clip-path="url(#dM)"><path d="M153.9 147.4c1.3-.2 3.5 2.5 5 6 1.3 3.6 1.3 6.7 0 6.9-1.4.2-3.6-2.6-5-6.1-1.4-3.6-1.4-6.6 0-6.8zm0 0" fill="none" stroke-width=".8" stroke="#000"/></g></g><g clip-path="url(#dN)"><g clip-path="url(#dO)"><path d="M156.6 138.4c1.1-.2 3 1.8 4.3 4.4 1.2 2.6 1.4 5 .3 5.1-1.1.2-3-1.7-4.3-4.4-1.2-2.6-1.4-4.9-.3-5" fill="#006b3e"/></g></g><g clip-path="url(#dP)"><g clip-path="url(#dQ)"><path d="M156.6 138.4c1.1-.2 3 1.8 4.3 4.4 1.2 2.6 1.4 5 .3 5.1-1.1.2-3-1.7-4.3-4.4-1.2-2.6-1.4-4.9-.3-5zm0 0" fill="none" stroke-width=".8" stroke="#000"/></g></g><g clip-path="url(#dR)"><g clip-path="url(#dS)"><path d="M154.3 140.3c1.1-.2 3 1.9 4 4.6 1.1 2.7 1 5 0 5.1-1.1.1-2.9-2-4-4.6-1-2.7-1-5 0-5.1" fill="#006b3e"/></g></g><g clip-path="url(#dT)"><g clip-path="url(#dU)"><path d="M154.3 140.3c1.1-.2 3 1.9 4 4.6 1.1 2.7 1 5 0 5.1-1.1.1-2.9-2-4-4.6-1-2.7-1-5 0-5.1zm0 0" fill="none" stroke-width=".8" stroke="#000"/></g></g><g clip-path="url(#dV)"><g clip-path="url(#dW)"><path d="M154.3 142.1c1.9 4.6 2.7 8.8 1.7 9.3-1 .5-3.2-2.8-5.1-7.5" fill="#006b3e"/></g></g><g clip-path="url(#dX)"><g clip-path="url(#dY)"><path d="M154.3 142.1c1.9 4.6 2.7 8.8 1.7 9.3-1 .5-3.2-2.8-5.1-7.5" fill="none" stroke-width=".8" stroke="#000"/></g></g><g clip-path="url(#dZ)"><g clip-path="url(#ea)"><path d="M154 134.8c1.1-.1 2.9 2 4 4.7 1 2.6 1 5 0 5-1.1.2-3-1.9-4-4.5-1-2.7-1-5 0-5.2" fill="#006b3e"/></g></g><g clip-path="url(#eb)"><g clip-path="url(#ec)"><path d="M154 134.8c1.1-.1 2.9 2 4 4.7 1 2.6 1 5 0 5-1.1.2-3-1.9-4-4.5-1-2.7-1-5 0-5.2zm0 0" fill="none" stroke-width=".8" stroke="#000"/></g></g><g clip-path="url(#ed)"><g clip-path="url(#ee)"><path d="M151 136.3c1-.1 2.8 2 3.8 4.7s1 5-.1 5.1c-1.1.2-2.8-2-3.9-4.7-1-2.7-1-5 .2-5" fill="#006b3e"/></g></g><g clip-path="url(#ef)"><g clip-path="url(#eg)"><path d="M151 136.3c1-.1 2.8 2 3.8 4.7s1 5-.1 5.1c-1.1.2-2.8-2-3.9-4.7-1-2.7-1-5 .2-5zm0 0" fill="none" stroke-width=".8" stroke="#000"/></g></g><g clip-path="url(#eh)"><g clip-path="url(#ei)"><path d="M151 135.8c1.9 3.2 2.8 6 2.2 6.5-.6.5-2.6-1.6-4.4-4.8" fill="#006b3e"/></g></g><g clip-path="url(#ej)"><g clip-path="url(#ek)"><path d="M151 135.8c1.9 3.2 2.8 6 2.2 6.5-.6.5-2.6-1.6-4.4-4.8" fill="none" stroke-width=".8" stroke="#000"/></g></g><g clip-path="url(#el)"><g clip-path="url(#em)"><path d="M152.3 133.8c1.8 3 2.8 6 2.2 6.5-.6.4-2.6-1.7-4.5-4.8" fill="#006b3e"/></g></g><g clip-path="url(#en)"><g clip-path="url(#eo)"><path d="M152.3 133.8c1.8 3 2.8 6 2.2 6.5-.6.4-2.6-1.7-4.5-4.8" fill="none" stroke-width=".8" stroke="#000"/></g></g><g clip-path="url(#ep)"><g clip-path="url(#eq)"><path d="M158 134.2c2.6 4.3 4 8.3 3 8.9-.8.6-3.6-2.3-6.1-6.6" fill="#006b3e"/></g></g><g clip-path="url(#er)"><g clip-path="url(#es)"><path d="M158 134.2c2.6 4.3 4 8.3 3 8.9-.8.6-3.6-2.3-6.1-6.6" fill="none" stroke-width=".8" stroke="#000"/></g></g><g clip-path="url(#et)"><g clip-path="url(#eu)"><path d="M154.2 132c1.9 3.4 2.9 6.6 2.2 7.2-.6.5-2.6-2-4.4-5.4" fill="#006b3e"/></g></g><g clip-path="url(#ev)"><g clip-path="url(#ew)"><path d="M154.2 132c1.9 3.4 2.9 6.6 2.2 7.2-.6.5-2.6-2-4.4-5.4" fill="none" stroke-width=".8" stroke="#000"/></g></g><g clip-path="url(#ex)"><g clip-path="url(#ey)"><path d="M154 127c-1.2 1.2 0 3.5 1.2 4.4 1.2 1.1 8.3 8.6 13.3 2.3-4 0-11.5-9.5-14.4-6.7" fill="#9360c8"/></g></g><g clip-path="url(#ez)"><g clip-path="url(#eA)"><path d="M154 127c-1.2 1.2 0 3.5 1.2 4.4 1.2 1.1 8.3 8.6 13.3 2.3-4 0-11.5-9.5-14.4-6.7zm0 0" fill="none" stroke-width=".8" stroke="#000"/></g></g><g clip-path="url(#eB)"><g clip-path="url(#eC)"><path d="M153.2 123.3c-1.2 1.2 0 3.5 1 4.4 1.4 1.1 8.5 8.6 13.5 2.3-4 0-11.5-9.5-14.5-6.7" fill="#9360c8"/></g></g><g clip-path="url(#eD)"><g clip-path="url(#eE)"><path d="M153.2 123.3c-1.2 1.2 0 3.5 1 4.4 1.4 1.1 8.5 8.6 13.5 2.3-4 0-11.5-9.5-14.5-6.7zm0 0" fill="none" stroke-width=".8" stroke="#000"/></g></g><g clip-path="url(#eF)"><g clip-path="url(#eG)"><path d="M152 119.7c-1.2 1.3 0 3.6 1.2 4.4 1.2 1.2 8.3 8.7 13.3 2.3-4 0-11.5-9.5-14.4-6.7" fill="#9360c8"/></g></g><g clip-path="url(#eH)"><g clip-path="url(#eI)"><path d="M152 119.7c-1.2 1.3 0 3.6 1.2 4.4 1.2 1.2 8.3 8.7 13.3 2.3-4 0-11.5-9.5-14.4-6.7zm0 0" fill="none" stroke-width=".8" stroke="#000"/></g></g><g clip-path="url(#eJ)"><g clip-path="url(#eK)"><path d="M149.6 115.7c-1.2 1.2 0 3.5 1.1 4.4 1.3 1.1 8.4 8.6 13.4 2.3-4 0-11.5-9.5-14.5-6.7" fill="#9360c8"/></g></g><g clip-path="url(#eL)"><g clip-path="url(#eM)"><path d="M149.6 115.7c-1.2 1.2 0 3.5 1.1 4.4 1.3 1.1 8.4 8.6 13.4 2.3-4 0-11.5-9.5-14.5-6.7zm0 0" fill="none" stroke-width=".8" stroke="#000"/></g></g><g clip-path="url(#eN)"><g clip-path="url(#eO)"><path d="M140.9 111.8a11 11 0 0110.8-.6c3 1.5 8 7.5 11.9 9-2.7.4-4.3 0-6-.8a13.9 13.9 0 01-8 3.3c-4.8.7-8.8-.6-10.2-3a6.5 6.5 0 011.5-8" fill="#9360c8"/></g></g><g clip-path="url(#eP)"><g clip-path="url(#eQ)"><path d="M140.9 111.8a11 11 0 0110.8-.6c3 1.5 8 7.5 11.9 9-2.7.4-4.3 0-6-.8a13.9 13.9 0 01-8 3.3c-4.8.7-8.8-.6-10.2-3a6.5 6.5 0 011.5-8zm0 0" fill="none" stroke-width=".8" stroke="#000"/></g></g><g clip-path="url(#eR)"><g clip-path="url(#eS)"><path d="M146.3 114.3c1.2 0 2.2.6 2.1 1.3 0 .7-1 1.2-2.2 1.2-1.2 0-2.1-.6-2.1-1.3 0-.7 1-1.2 2.2-1.2" fill="#d31c2f"/></g></g><g clip-path="url(#eT)"><g clip-path="url(#eU)"><path d="M146.3 114.3c1.2 0 2.2.6 2.1 1.3 0 .7-1 1.2-2.2 1.2-1.2 0-2.1-.6-2.1-1.3 0-.7 1-1.2 2.2-1.2zm0 0" fill="none" stroke-width=".8" stroke="#000"/></g></g><g clip-path="url(#eV)"><g clip-path="url(#eW)"><path d="M139 119c1.5-.6 3-.3 3.4.6.4 1-.6 2.2-2.2 2.8-1.6.6-3.1.3-3.5-.7-.3-1 .7-2.2 2.2-2.8" fill="#fbd115"/></g></g><g clip-path="url(#eX)"><g clip-path="url(#eY)"><path d="M139 119c1.5-.6 3-.3 3.4.6.4 1-.6 2.2-2.2 2.8-1.6.6-3.1.3-3.5-.7-.3-1 .7-2.2 2.2-2.8zm0 0" fill="none" stroke-width=".8" stroke="#000"/></g></g><g clip-path="url(#eZ)"><g clip-path="url(#fa)"><path d="M146.2 114.8c.4 0 .7.3.7.7 0 .4-.3.6-.8.6-.4 0-.8-.3-.7-.7 0-.3.3-.6.8-.6"/></g></g><g clip-path="url(#fb)"><g clip-path="url(#fc)"><path d="M141.4 117.2c.2 1-.5 2.3-2 2.8-1.7.7-2.9 2.2-3.6 4.6-2.4-5.6-.8-8 1.7-8.5 2.3-.7 3.6-.6 4 1.1" fill="#fbd115"/></g></g><g clip-path="url(#fd)"><g clip-path="url(#fe)"><path d="M141.4 117.2c.2 1-.5 2.3-2 2.8-1.7.7-2.9 2.2-3.6 4.6-2.4-5.6-.8-8 1.7-8.5 2.3-.7 3.6-.6 4 1.1zm0 0" fill="none" stroke-width=".8" stroke="#000"/></g></g><g clip-path="url(#ff)"><g clip-path="url(#fg)"><path d="M139 117.1a.6.6 0 01.6.5.6.6 0 01-.5.6.6.6 0 01-.6-.5.6.6 0 01.6-.6"/></g></g></svg>