<svg xmlns="http://www.w3.org/2000/svg" width="400" height="400" viewBox="0 0 300 300"><defs><clipPath id="a"><path d="M150 0a150 150 0 100 300 150 150 0 000-300zm0 0"/></clipPath><clipPath id="b"><path d="M0 0h150v300H0zm0 0"/></clipPath><clipPath id="c"><path d="M150 0a150 150 0 100 300 150 150 0 000-300zm0 0"/></clipPath><clipPath id="d"><path d="M14 105h90v91H14zm0 0"/></clipPath><clipPath id="e"><path d="M150 0a150 150 0 100 300 150 150 0 000-300zm0 0"/></clipPath></defs><g clip-path="url(#a)"><path fill="#d62727" d="M0 0h300v300H0z"/><path d="M0 0l300.5 150L0 300" fill="#ffc51f"/></g><g clip-path="url(#b)"><g clip-path="url(#c)"><path d="M0 0l149.9 150L0 300" fill="#221f1f"/></g></g><g clip-path="url(#d)"><g clip-path="url(#e)"><path d="M67 132l31.6-13.3-17.4 29.9 22 25.9-33.7-8.2-18 29.7-2.9-34.9-33.7-7.5 31.9-13.3-2.7-34.5" fill="#fff"/></g></g></svg>