<svg xmlns="http://www.w3.org/2000/svg" width="400" height="400" viewBox="0 0 300 300"><defs><clipPath id="a"><path d="M0 150h300v150H0zm0 0"/></clipPath><clipPath id="b"><path d="M150 0a150 150 0 100 300 150 150 0 000-300zm0 0"/></clipPath><clipPath id="c"><path d="M0 0h300v150H0zm0 0"/></clipPath><clipPath id="d"><path d="M150 0a150 150 0 100 300 150 150 0 000-300zm0 0"/></clipPath><clipPath id="e"><path d="M0 100h300v100H0zm0 0"/></clipPath><clipPath id="f"><path d="M150 0a150 150 0 100 300 150 150 0 000-300zm0 0"/></clipPath><clipPath id="g"><path d="M119 182h62v15h-62zm0 0"/></clipPath><clipPath id="h"><path d="M150 0a150 150 0 100 300 150 150 0 000-300zm0 0"/></clipPath><clipPath id="i"><path d="M119 182h62v16h-62zm0 0"/></clipPath><clipPath id="j"><path d="M150 0a150 150 0 100 300 150 150 0 000-300zm0 0"/></clipPath><clipPath id="k"><path d="M115 118h70v65h-70zm0 0"/></clipPath><clipPath id="l"><path d="M150 0a150 150 0 100 300 150 150 0 000-300zm0 0"/></clipPath><clipPath id="m"><path d="M115 118h70v66h-70zm0 0"/></clipPath><clipPath id="n"><path d="M150 0a150 150 0 100 300 150 150 0 000-300zm0 0"/></clipPath><clipPath id="o"><path d="M159 132h6v32h-6zm0 0"/></clipPath><clipPath id="p"><path d="M150 0a150 150 0 100 300 150 150 0 000-300zm0 0"/></clipPath><clipPath id="q"><path d="M143 157h14v25h-14zm0 0"/></clipPath><clipPath id="r"><path d="M150 0a150 150 0 100 300 150 150 0 000-300zm0 0"/></clipPath><clipPath id="s"><path d="M140 154h20v31h-20zm0 0"/></clipPath><clipPath id="t"><path d="M150 0a150 150 0 100 300 150 150 0 000-300zm0 0"/></clipPath><clipPath id="u"><path d="M115 123h7v60h-7zm0 0"/></clipPath><clipPath id="v"><path d="M150 0a150 150 0 100 300 150 150 0 000-300zm0 0"/></clipPath><clipPath id="w"><path d="M120 124h7v55h-7zm0 0"/></clipPath><clipPath id="x"><path d="M150 0a150 150 0 100 300 150 150 0 000-300zm0 0"/></clipPath><clipPath id="y"><path d="M126 128h5v46h-5zm0 0"/></clipPath><clipPath id="z"><path d="M150 0a150 150 0 100 300 150 150 0 000-300zm0 0"/></clipPath><clipPath id="A"><path d="M130 131h6v38h-6zm0 0"/></clipPath><clipPath id="B"><path d="M150 0a150 150 0 100 300 150 150 0 000-300zm0 0"/></clipPath><clipPath id="C"><path d="M135 132h6v32h-6zm0 0"/></clipPath><clipPath id="D"><path d="M150 0a150 150 0 100 300 150 150 0 000-300zm0 0"/></clipPath><clipPath id="E"><path d="M178 123h7v60h-7zm0 0"/></clipPath><clipPath id="F"><path d="M150 0a150 150 0 100 300 150 150 0 000-300zm0 0"/></clipPath><clipPath id="G"><path d="M173 124h7v55h-7zm0 0"/></clipPath><clipPath id="H"><path d="M150 0a150 150 0 100 300 150 150 0 000-300zm0 0"/></clipPath><clipPath id="I"><path d="M169 128h5v46h-5zm0 0"/></clipPath><clipPath id="J"><path d="M150 0a150 150 0 100 300 150 150 0 000-300zm0 0"/></clipPath><clipPath id="K"><path d="M164 131h6v38h-6zm0 0"/></clipPath><clipPath id="L"><path d="M150 0a150 150 0 100 300 150 150 0 000-300zm0 0"/></clipPath><clipPath id="M"><path d="M129 147h20v37h-20zm0 0"/></clipPath><clipPath id="N"><path d="M150 0a150 150 0 100 300 150 150 0 000-300zm0 0"/></clipPath><clipPath id="O"><path d="M129 147h20v38h-20zm0 0"/></clipPath><clipPath id="P"><path d="M150 0a150 150 0 100 300 150 150 0 000-300zm0 0"/></clipPath><clipPath id="Q"><path d="M151 147h20v37h-20zm0 0"/></clipPath><clipPath id="R"><path d="M150 0a150 150 0 100 300 150 150 0 000-300zm0 0"/></clipPath><clipPath id="S"><path d="M151 147h20v38h-20zm0 0"/></clipPath><clipPath id="T"><path d="M150 0a150 150 0 100 300 150 150 0 000-300zm0 0"/></clipPath><clipPath id="U"><path d="M156 156h9v7h-9zm0 0"/></clipPath><clipPath id="V"><path d="M150 0a150 150 0 100 300 150 150 0 000-300zm0 0"/></clipPath><clipPath id="W"><path d="M152 165h16v15h-16zm0 0"/></clipPath><clipPath id="X"><path d="M150 0a150 150 0 100 300 150 150 0 000-300zm0 0"/></clipPath><clipPath id="Y"><path d="M135 156h9v7h-9zm0 0"/></clipPath><clipPath id="Z"><path d="M150 0a150 150 0 100 300 150 150 0 000-300zm0 0"/></clipPath><clipPath id="aa"><path d="M140 152h6v13h-6zm0 0"/></clipPath><clipPath id="ab"><path d="M150 0a150 150 0 100 300 150 150 0 000-300zm0 0"/></clipPath><clipPath id="ac"><path d="M143 161h4v9h-4zm0 0"/></clipPath><clipPath id="ad"><path d="M150 0a150 150 0 100 300 150 150 0 000-300zm0 0"/></clipPath><clipPath id="ae"><path d="M132 165h16v15h-16zm0 0"/></clipPath><clipPath id="af"><path d="M150 0a150 150 0 100 300 150 150 0 000-300zm0 0"/></clipPath><clipPath id="ag"><path d="M132 176h10v9h-10zm0 0"/></clipPath><clipPath id="ah"><path d="M150 0a150 150 0 100 300 150 150 0 000-300zm0 0"/></clipPath><clipPath id="ai"><path d="M158 176h10v9h-10zm0 0"/></clipPath><clipPath id="aj"><path d="M150 0a150 150 0 100 300 150 150 0 000-300zm0 0"/></clipPath><clipPath id="ak"><path d="M125 179h23v7h-23zm0 0"/></clipPath><clipPath id="al"><path d="M150 0a150 150 0 100 300 150 150 0 000-300zm0 0"/></clipPath><clipPath id="am"><path d="M152 179h23v7h-23zm0 0"/></clipPath><clipPath id="an"><path d="M150 0a150 150 0 100 300 150 150 0 000-300zm0 0"/></clipPath><clipPath id="ao"><path d="M123 180h4v5h-4zm0 0"/></clipPath><clipPath id="ap"><path d="M150 0a150 150 0 100 300 150 150 0 000-300zm0 0"/></clipPath><clipPath id="aq"><path d="M123 179h4v6h-4zm0 0"/></clipPath><clipPath id="ar"><path d="M150 0a150 150 0 100 300 150 150 0 000-300zm0 0"/></clipPath><clipPath id="as"><path d="M134 182h4v6h-4zm0 0"/></clipPath><clipPath id="at"><path d="M150 0a150 150 0 100 300 150 150 0 000-300zm0 0"/></clipPath><clipPath id="au"><path d="M146 182h4v6h-4zm0 0"/></clipPath><clipPath id="av"><path d="M150 0a150 150 0 100 300 150 150 0 000-300zm0 0"/></clipPath><clipPath id="aw"><path d="M146 182h4v7h-4zm0 0"/></clipPath><clipPath id="ax"><path d="M150 0a150 150 0 100 300 150 150 0 000-300zm0 0"/></clipPath><clipPath id="ay"><path d="M173 180h4v5h-4zm0 0"/></clipPath><clipPath id="az"><path d="M150 0a150 150 0 100 300 150 150 0 000-300zm0 0"/></clipPath><clipPath id="aA"><path d="M173 179h4v6h-4zm0 0"/></clipPath><clipPath id="aB"><path d="M150 0a150 150 0 100 300 150 150 0 000-300zm0 0"/></clipPath><clipPath id="aC"><path d="M162 182h4v6h-4zm0 0"/></clipPath><clipPath id="aD"><path d="M150 0a150 150 0 100 300 150 150 0 000-300zm0 0"/></clipPath><clipPath id="aE"><path d="M150 182h4v6h-4zm0 0"/></clipPath><clipPath id="aF"><path d="M150 0a150 150 0 100 300 150 150 0 000-300zm0 0"/></clipPath><clipPath id="aG"><path d="M150 182h4v7h-4zm0 0"/></clipPath><clipPath id="aH"><path d="M150 0a150 150 0 100 300 150 150 0 000-300zm0 0"/></clipPath><clipPath id="aI"><path d="M127 180h3v2h-3zm0 0"/></clipPath><clipPath id="aJ"><path d="M150 0a150 150 0 100 300 150 150 0 000-300zm0 0"/></clipPath><clipPath id="aK"><path d="M131 181h4v3h-4zm0 0"/></clipPath><clipPath id="aL"><path d="M150 0a150 150 0 100 300 150 150 0 000-300zm0 0"/></clipPath><clipPath id="aM"><path d="M142 183h4v2h-4zm0 0"/></clipPath><clipPath id="aN"><path d="M150 0a150 150 0 100 300 150 150 0 000-300zm0 0"/></clipPath><clipPath id="aO"><path d="M138 183h4v2h-4zm0 0"/></clipPath><clipPath id="aP"><path d="M150 0a150 150 0 100 300 150 150 0 000-300zm0 0"/></clipPath><clipPath id="aQ"><path d="M170 180h3v2h-3zm0 0"/></clipPath><clipPath id="aR"><path d="M150 0a150 150 0 100 300 150 150 0 000-300zm0 0"/></clipPath><clipPath id="aS"><path d="M165 182h4v1h-4zm0 0"/></clipPath><clipPath id="aT"><path d="M150 0a150 150 0 100 300 150 150 0 000-300zm0 0"/></clipPath><clipPath id="aU"><path d="M165 181h4v3h-4zm0 0"/></clipPath><clipPath id="aV"><path d="M150 0a150 150 0 100 300 150 150 0 000-300zm0 0"/></clipPath><clipPath id="aW"><path d="M154 183h4v2h-4zm0 0"/></clipPath><clipPath id="aX"><path d="M150 0a150 150 0 100 300 150 150 0 000-300zm0 0"/></clipPath><clipPath id="aY"><path d="M158 183h4v1h-4zm0 0"/></clipPath><clipPath id="aZ"><path d="M150 0a150 150 0 100 300 150 150 0 000-300zm0 0"/></clipPath><clipPath id="ba"><path d="M158 183h4v2h-4zm0 0"/></clipPath><clipPath id="bb"><path d="M150 0a150 150 0 100 300 150 150 0 000-300zm0 0"/></clipPath><clipPath id="bc"><path d="M154 152h7v13h-7zm0 0"/></clipPath><clipPath id="bd"><path d="M150 0a150 150 0 100 300 150 150 0 000-300zm0 0"/></clipPath><clipPath id="be"><path d="M135 128h30v36h-30zm0 0"/></clipPath><clipPath id="bf"><path d="M150 0a150 150 0 100 300 150 150 0 000-300zm0 0"/></clipPath><clipPath id="bg"><path d="M131 125h38v42h-38zm0 0"/></clipPath><clipPath id="bh"><path d="M150 0a150 150 0 100 300 150 150 0 000-300zm0 0"/></clipPath><clipPath id="bi"><path d="M136 130h28v32h-28zm0 0"/></clipPath><clipPath id="bj"><path d="M150 0a150 150 0 100 300 150 150 0 000-300zm0 0"/></clipPath><clipPath id="bk"><path d="M136 130h9v32h-9zm0 0"/></clipPath><clipPath id="bl"><path d="M136.8 134h-.4v2a36.4 36.4 0 0013.6 26c6-4.9 10.2-11.2 12.3-18.7a36.4 36.4 0 001.2-7.3l.1-2a7.5 7.5 0 01-.4 0c-3.1 0-10.3-1.6-13.1-4-3 2.3-10.2 4-13.3 4"/></clipPath><clipPath id="bm"><path d="M154 130h10v32h-10zm0 0"/></clipPath><clipPath id="bn"><path d="M136.8 134h-.4v2a36.4 36.4 0 0013.6 26c6-4.9 10.2-11.2 12.3-18.7a36.4 36.4 0 001.2-7.3l.1-2a7.5 7.5 0 01-.4 0c-3.1 0-10.3-1.6-13.1-4-3 2.3-10.2 4-13.3 4"/></clipPath><clipPath id="bo"><path d="M153 161h4v9h-4zm0 0"/></clipPath><clipPath id="bp"><path d="M150 0a150 150 0 100 300 150 150 0 000-300zm0 0"/></clipPath><clipPath id="bq"><path d="M125 185h50v10h-50zm0 0"/></clipPath><clipPath id="br"><path d="M150 0a150 150 0 100 300 150 150 0 000-300zm0 0"/></clipPath><clipPath id="bs"><path d="M140 102h20v26h-20zm0 0"/></clipPath><clipPath id="bt"><path d="M150 0a150 150 0 100 300 150 150 0 000-300zm0 0"/></clipPath><clipPath id="bu"><path d="M136 99h28v32h-28zm0 0"/></clipPath><clipPath id="bv"><path d="M150 0a150 150 0 100 300 150 150 0 000-300zm0 0"/></clipPath><clipPath id="bw"><path d="M141 110h11v18h-11zm0 0"/></clipPath><clipPath id="bx"><path d="M150 0a150 150 0 100 300 150 150 0 000-300zm0 0"/></clipPath><clipPath id="by"><path d="M144 109h10v20h-10zm0 0"/></clipPath><clipPath id="bz"><path d="M150 0a150 150 0 100 300 150 150 0 000-300zm0 0"/></clipPath><clipPath id="bA"><path d="M147 110h9v19h-9zm0 0"/></clipPath><clipPath id="bB"><path d="M150 0a150 150 0 100 300 150 150 0 000-300zm0 0"/></clipPath><clipPath id="bC"><path d="M149 110h11v19h-11zm0 0"/></clipPath><clipPath id="bD"><path d="M150 0a150 150 0 100 300 150 150 0 000-300zm0 0"/></clipPath><clipPath id="bE"><path d="M141 104h8v6h-8zm0 0"/></clipPath><clipPath id="bF"><path d="M150 0a150 150 0 100 300 150 150 0 000-300zm0 0"/></clipPath><clipPath id="bG"><path d="M137 101h15v13h-15zm0 0"/></clipPath><clipPath id="bH"><path d="M150 0a150 150 0 100 300 150 150 0 000-300zm0 0"/></clipPath><clipPath id="bI"><path d="M141 102h15v5h-15zm0 0"/></clipPath><clipPath id="bJ"><path d="M150 0a150 150 0 100 300 150 150 0 000-300zm0 0"/></clipPath><clipPath id="bK"><path d="M137 99h22v12h-22zm0 0"/></clipPath><clipPath id="bL"><path d="M150 0a150 150 0 100 300 150 150 0 000-300zm0 0"/></clipPath><clipPath id="bM"><path d="M148 104h2v2h-2zm0 0"/></clipPath><clipPath id="bN"><path d="M150 0a150 150 0 100 300 150 150 0 000-300zm0 0"/></clipPath><clipPath id="bO"><path d="M133 127h34v38h-34zm0 0"/></clipPath><clipPath id="bP"><path d="M150 0a150 150 0 100 300 150 150 0 000-300zm0 0"/></clipPath></defs><g clip-path="url(#a)"><g clip-path="url(#b)"><path d="M-75 300h450V150H-75zm0 0"/></g></g><g clip-path="url(#c)"><g clip-path="url(#d)"><path d="M-75 150h450V0H-75zm0 0" fill="#ce1125"/></g></g><g clip-path="url(#e)"><g clip-path="url(#f)"><path d="M-75 200h450V100H-75zm0 0" fill="#fff"/></g></g><g clip-path="url(#g)"><g clip-path="url(#h)"><path d="M150 197c10 0 19.5-.9 25.1-2.5 2.4-.4 2.4-1.6 2.4-3.2 2.3-.8 1.1-3.6 2.8-3.6-1.7.5-2-2.8-4-2.3 0-2.8-2.8-3.2-5.2-2.4-4.7 1.6-13.1 2-21.1 2-8-.4-16.3-.4-21-2-2.5-.8-5.3-.4-5.3 2.4-2-.5-2.3 2.8-4 2.3 1.7 0 .5 2.8 2.8 3.6 0 1.6 0 2.8 2.5 3.2 5.5 1.6 15 2.4 25 2.4" fill="#fff"/></g></g><g clip-path="url(#i)"><g clip-path="url(#j)"><path d="M150 197c10 0 19.5-.9 25.1-2.5 2.4-.4 2.4-1.6 2.4-3.2 2.3-.8 1.1-3.6 2.8-3.6-1.7.5-2-2.8-4-2.3 0-2.8-2.8-3.2-5.2-2.4-4.7 1.6-13.1 2-21.1 2-8-.4-16.3-.4-21-2-2.5-.8-5.3-.4-5.3 2.4-2-.5-2.3 2.8-4 2.3 1.7 0 .5 2.8 2.8 3.6 0 1.6 0 2.8 2.5 3.2 5.5 1.6 15 2.4 25 2.4zm0 0" fill="none" stroke-width="1.2" stroke-linecap="round" stroke-linejoin="round" stroke="#c09200"/></g></g><g clip-path="url(#k)"><g clip-path="url(#l)"><path d="M150.4 151.2l34.2 31.8-2.4-57.7c-.3-8.8-8-6.8-13.5-3.6-5.6 3.6-12 3.6-18.7 1.2-6.7 2.4-13.1 2.4-18.7-1.2-5.5-3.2-13.1-5.2-13.5 3.6l-2.4 57.7" fill="#fff"/></g></g><g clip-path="url(#m)"><g clip-path="url(#n)"><path d="M150.4 151.2l34.2 31.8-2.4-57.7c-.3-8.8-8-6.8-13.5-3.6-5.6 3.6-12 3.6-18.7 1.2-6.7 2.4-13.1 2.4-18.7-1.2-5.5-3.2-13.1-5.2-13.5 3.6l-2.4 57.7zm0 0" fill="none" stroke-width=".6" stroke-linecap="round" stroke-linejoin="round" stroke="#c09200"/></g></g><g clip-path="url(#o)"><g clip-path="url(#p)"><path d="M160 132.9l1.1 27.8 3.2 3.1-1.2-30.6c-.8 0-2.8 0-3.1-.3" fill="#c09200"/></g></g><g clip-path="url(#q)"><g clip-path="url(#r)"><path d="M151.6 157.5l4.8 22-1.6 1.5-1.6-1.2-2.8-19.5 1.2 19.5-1.6 2-1.6-2 1.2-19.5-2.8 19.5-1.6 1.2-1.6-1.6 4.8-21.9" fill="#c09200"/></g></g><g clip-path="url(#s)"><g clip-path="url(#t)"><path d="M151.6 157.5l4.8 22-1.6 1.5-1.6-1.2-2.8-19.5 1.2 19.5-1.6 2-1.6-2 1.2-19.5-2.8 19.5-1.6 1.2-1.6-1.6 4.8-21.9zm0 0" fill="none" stroke-width=".5" stroke-linecap="square" stroke="#c09200"/></g></g><g clip-path="url(#u)"><g clip-path="url(#v)"><path d="M121.7 123.2l-2.3 56.2-4 3.6 2.4-57.7a12 12 0 014-2" fill="#c09200"/></g></g><g clip-path="url(#w)"><g clip-path="url(#x)"><path d="M126.5 127.3l-2 47-4 4 2.5-54.2c.7.8 3.1 2.7 3.5 3.2" fill="#c09200"/></g></g><g clip-path="url(#y)"><g clip-path="url(#z)"><path d="M131 130.9l-1.7 39.1-3.2 3.2 2-44.7 2.8 2.4" fill="#c09200"/></g></g><g clip-path="url(#A)"><g clip-path="url(#B)"><path d="M135.7 132.9l-1.6 33.4-3.2 2.5 1.6-37.2c.8.4 2.4 1.3 3.2 1.3" fill="#c09200"/></g></g><g clip-path="url(#C)"><g clip-path="url(#D)"><path d="M140 132.9l-1.1 27.8-3.2 3.1 1.2-30.6c.8 0 2.8 0 3.1-.3" fill="#c09200"/></g></g><g clip-path="url(#E)"><g clip-path="url(#F)"><path d="M178.3 123.2l2.3 56.2 4 3.6-2.4-57.7a12 12 0 00-4-2" fill="#c09200"/></g></g><g clip-path="url(#G)"><g clip-path="url(#H)"><path d="M173.5 127.3l2 47 4 4-2.5-54.2c-.7.8-3.1 2.7-3.5 3.2" fill="#c09200"/></g></g><g clip-path="url(#I)"><g clip-path="url(#J)"><path d="M169 130.9l1.7 39.1 3.2 3.2-2-44.7-2.8 2.4" fill="#c09200"/></g></g><g clip-path="url(#K)"><g clip-path="url(#L)"><path d="M164.3 132.9l1.6 33.4 3.2 2.5-1.6-37.2c-.8.4-2.4 1.3-3.2 1.3" fill="#c09200"/></g></g><g clip-path="url(#M)"><g clip-path="url(#N)"><path d="M139.2 148l-9.5 33.8 13.1 2 5.6-25.5zm0 0" fill="#fff"/></g></g><g clip-path="url(#O)"><g clip-path="url(#P)"><path d="M139.2 148l-9.5 33.8 13.1 2 5.6-25.5zm0 0" fill="none" stroke-width=".6" stroke-linecap="round" stroke-linejoin="round" stroke="#c09200"/></g></g><g clip-path="url(#Q)"><g clip-path="url(#R)"><path d="M160.8 148l9.5 33.8-13.1 2-5.6-25.5zm0 0" fill="#fff"/></g></g><g clip-path="url(#S)"><g clip-path="url(#T)"><path d="M160.8 148l9.5 33.8-13.1 2-5.6-25.5zm0 0" fill="none" stroke-width=".6" stroke-linecap="round" stroke-linejoin="round" stroke="#c09200"/></g></g><g clip-path="url(#U)"><g clip-path="url(#V)"><path d="M164 159.5l-1.2 2.8-6.2-6" fill="none" stroke-width=".6" stroke-linecap="round" stroke-linejoin="round" stroke="#c09200"/></g></g><g clip-path="url(#W)"><g clip-path="url(#X)"><path d="M155.8 179.4l1.4-6.6 1.3-6.7 2.9 4 1.3-4.6 4 4.2-2 7.6-2.9-4.7-1.6 4.8-3-4.6m-4.3-6.6l4.3 6.6" fill="none" stroke-width=".6" stroke-linecap="round" stroke-linejoin="round" stroke="#c09200"/></g></g><g clip-path="url(#Y)"><g clip-path="url(#Z)"><path d="M136 159.5l1.2 2.8 6.2-6" fill="none" stroke-width=".6" stroke-linecap="round" stroke-linejoin="round" stroke="#c09200"/></g></g><g clip-path="url(#aa)"><g clip-path="url(#ab)"><path d="M140.4 152.5l1.3 12.1 4-5.1" fill="none" stroke-width=".6" stroke-linecap="round" stroke-linejoin="round" stroke="#c09200"/></g></g><g clip-path="url(#ac)"><g clip-path="url(#ad)"><path d="M144 161.5l2.2 7.4" fill="none" stroke-width=".6" stroke-linecap="round" stroke-linejoin="round" stroke="#c09200"/></g></g><g clip-path="url(#ae)"><g clip-path="url(#af)"><path d="M144 179.4l-1.4-6.6-1.2-6.7-2.9 4-1.3-4.6-4 4.2 2 7.6 2.9-4.7 1.6 4.8 3-4.6m4.3-6.6l-4.3 6.6" fill="none" stroke-width=".6" stroke-linecap="round" stroke-linejoin="round" stroke="#c09200"/></g></g><g clip-path="url(#ag)"><g clip-path="url(#ah)"><path d="M132.5 181l2.6-3.7 1.8 5.7 2.3-4 1.6 4.8" fill="none" stroke-width=".6" stroke-linecap="round" stroke-linejoin="round" stroke="#c09200"/></g></g><g clip-path="url(#ai)"><g clip-path="url(#aj)"><path d="M167.6 181l-2.6-3.7-1.8 5.7-2.3-4-1.6 4.8" fill="none" stroke-width=".6" stroke-linecap="round" stroke-linejoin="round" stroke="#c09200"/></g></g><g clip-path="url(#ak)"><g clip-path="url(#al)"><path d="M136.4 181.8c3.3.4 6.9.8 9.7.4 1.5 0 2.7 2.7-.5 3.2-2.8.3-7.1 0-9.5-.5-2-.3-6.4-1.1-9.2-2-2.8-1.1-.8-3.5.8-3.1 2.4.8 5.6 1.5 8.7 2" fill="#fff"/><path d="M136.4 181.8c3.3.4 6.9.8 9.7.4 1.5 0 2.7 2.7-.5 3.2-2.8.3-7.1 0-9.5-.5-2-.3-6.4-1.1-9.2-2-2.8-1.1-.8-3.5.8-3.1 2.4.8 5.6 1.5 8.7 2zm0 0" fill="none" stroke-width=".6" stroke-linecap="round" stroke-linejoin="round" stroke="#c09200"/></g></g><g clip-path="url(#am)"><g clip-path="url(#an)"><path d="M163.6 181.8c-3.3.4-6.9.8-9.6.4-1.6 0-2.8 2.7.4 3.2 2.8.3 7.2 0 9.5-.5 2-.3 6.4-1.1 9.2-2 2.8-1.1.8-3.5-.8-3.1-2.4.8-5.6 1.5-8.7 2" fill="#fff"/><path d="M163.6 181.8c-3.3.4-6.9.8-9.6.4-1.6 0-2.8 2.7.4 3.2 2.8.3 7.2 0 9.5-.5 2-.3 6.4-1.1 9.2-2 2.8-1.1.8-3.5-.8-3.1-2.4.8-5.6 1.5-8.7 2zm0 0" fill="none" stroke-width=".6" stroke-linecap="round" stroke-linejoin="round" stroke="#c09200"/></g></g><g clip-path="url(#ao)"><g clip-path="url(#ap)"><path d="M126.5 180.2c-2.4-.4-3.5 2.4-2.8 4 .4-.9 2-.9 2.4-1.6.4-1.3-.3-1.3.4-2.4" fill="#fff"/></g></g><g clip-path="url(#aq)"><g clip-path="url(#ar)"><path d="M126.5 180.2c-2.4-.4-3.5 2.4-2.8 4 .4-.9 2-.9 2.4-1.6.4-1.3-.3-1.3.4-2.4zm0 0" fill="none" stroke-width=".6" stroke-linecap="round" stroke-linejoin="round" stroke="#c09200"/></g></g><g clip-path="url(#as)"><g clip-path="url(#at)"><path d="M136 187.5c0-1.5 1.7-1.4 1.7-3 0-.7-.5-2-1.3-2-.7 0-1.5.8-1.5 1.6-.4 1.6 1.2 1.9 1.2 3.4" fill="#fff"/><path d="M136 187.5c0-1.5 1.7-1.4 1.7-3 0-.7-.5-2-1.3-2-.7 0-1.5.8-1.5 1.6-.4 1.6 1.2 1.9 1.2 3.4zm0 0" fill="none" stroke-width=".6" stroke-linecap="round" stroke-linejoin="round" stroke="#c09200"/></g></g><g clip-path="url(#au)"><g clip-path="url(#av)"><path d="M147.4 183c2.4 0 2.2 3.1 1 4.7 0-1.1-2-1.6-2-2.3 0-1.3 1.8-1.3 1-2.4" fill="#fff"/></g></g><g clip-path="url(#aw)"><g clip-path="url(#ax)"><path d="M147.4 183c2.4 0 2.2 3.1 1 4.7 0-1.1-2-1.6-2-2.3 0-1.3 1.8-1.3 1-2.4zm0 0" fill="none" stroke-width=".6" stroke-linecap="round" stroke-linejoin="round" stroke="#c09200"/></g></g><g clip-path="url(#ay)"><g clip-path="url(#az)"><path d="M173.5 180.2c2.4-.4 3.5 2.4 2.8 4-.4-.9-2-.9-2.4-1.6-.4-1.3.3-1.3-.4-2.4" fill="#fff"/></g></g><g clip-path="url(#aA)"><g clip-path="url(#aB)"><path d="M173.5 180.2c2.4-.4 3.5 2.4 2.8 4-.4-.9-2-.9-2.4-1.6-.4-1.3.3-1.3-.4-2.4zm0 0" fill="none" stroke-width=".6" stroke-linecap="round" stroke-linejoin="round" stroke="#c09200"/></g></g><g clip-path="url(#aC)"><g clip-path="url(#aD)"><path d="M164 187.5c0-1.5-1.7-1.4-1.7-3 0-.7.5-2 1.3-2 .7 0 1.5.8 1.5 1.6.4 1.6-1.2 1.9-1.2 3.4" fill="#fff"/><path d="M164 187.5c0-1.5-1.7-1.4-1.7-3 0-.7.5-2 1.3-2 .7 0 1.5.8 1.5 1.6.4 1.6-1.2 1.9-1.2 3.4zm0 0" fill="none" stroke-width=".6" stroke-linecap="round" stroke-linejoin="round" stroke="#c09200"/></g></g><g clip-path="url(#aE)"><g clip-path="url(#aF)"><path d="M152.6 183c-2.4 0-2.2 3.1-1 4.7 0-1.1 2-1.6 2-2.3 0-1.3-1.8-1.3-1-2.4" fill="#fff"/></g></g><g clip-path="url(#aG)"><g clip-path="url(#aH)"><path d="M152.6 183c-2.4 0-2.2 3.1-1 4.7 0-1.1 2-1.6 2-2.3 0-1.3-1.8-1.3-1-2.4zm0 0" fill="none" stroke-width=".6" stroke-linecap="round" stroke-linejoin="round" stroke="#c09200"/></g></g><g clip-path="url(#aI)"><g clip-path="url(#aJ)"><path d="M127.3 181c.8 0 2 .3 2.4.8zm0 0" fill="none" stroke-width=".4" stroke-linecap="round" stroke-linejoin="round" stroke="#c09200"/></g></g><g clip-path="url(#aK)"><g clip-path="url(#aL)"><path d="M131.3 182.2c.4 0 2 .4 2.8.8zm0 0" fill="none" stroke-width=".4" stroke-linecap="round" stroke-linejoin="round" stroke="#c09200"/></g></g><g clip-path="url(#aM)"><g clip-path="url(#aN)"><path d="M145.6 183.8c-.8 0-2.3 0-2.8.3zm0 0" fill="none" stroke-width=".4" stroke-linecap="round" stroke-linejoin="round" stroke="#c09200"/></g></g><g clip-path="url(#aO)"><g clip-path="url(#aP)"><path d="M141.3 183.8c-.5-.5-2-.5-2.8 0zm0 0" fill="none" stroke-width=".4" stroke-linecap="round" stroke-linejoin="round" stroke="#c09200"/></g></g><g clip-path="url(#aQ)"><g clip-path="url(#aR)"><path d="M172.7 181a4 4 0 00-2.4.8" fill="#fff"/><path d="M172.7 181a4 4 0 00-2.4.8zm0 0" fill="none" stroke-width=".4" stroke-linecap="round" stroke-linejoin="round" stroke="#c09200"/></g></g><g clip-path="url(#aS)"><g clip-path="url(#aT)"><path d="M168.7 182.2c-.4 0-2 .4-2.8.8" fill="#fff"/></g></g><g clip-path="url(#aU)"><g clip-path="url(#aV)"><path d="M168.7 182.2c-.4 0-2 .4-2.8.8zm0 0" fill="none" stroke-width=".4" stroke-linecap="round" stroke-linejoin="round" stroke="#c09200"/></g></g><g clip-path="url(#aW)"><g clip-path="url(#aX)"><path d="M154.4 183.8c.8 0 2.3 0 2.8.3" fill="#fff"/><path d="M154.4 183.8c.8 0 2.3 0 2.8.3zm0 0" fill="none" stroke-width=".4" stroke-linecap="round" stroke-linejoin="round" stroke="#c09200"/></g></g><g clip-path="url(#aY)"><g clip-path="url(#aZ)"><path d="M158.8 183.8c.4-.5 2-.5 2.7 0" fill="#fff"/></g></g><g clip-path="url(#ba)"><g clip-path="url(#bb)"><path d="M158.8 183.8c.4-.5 2-.5 2.7 0zm0 0" fill="none" stroke-width=".4" stroke-linecap="round" stroke-linejoin="round" stroke="#c09200"/></g></g><g clip-path="url(#bc)"><g clip-path="url(#bd)"><path d="M159.7 152.5l-1.3 12.1-4-5.1" fill="none" stroke-width=".6" stroke-linecap="round" stroke-linejoin="round" stroke="#c09200"/></g></g><g clip-path="url(#be)"><g clip-path="url(#bf)"><path d="M150 163.6c16.3-12.5 15-31 15-31-.5.2-1 .2-1.4.2-3.4 0-11.6-2-13.5-4.4-2 2.2-10.3 4.4-13.7 4.4l-1.3-.1s-1.4 18.4 14.9 31" fill="#fff"/></g></g><g clip-path="url(#bg)"><g clip-path="url(#bh)"><path d="M150 163.6c16.3-12.5 15-31 15-31-.5.2-1 .2-1.4.2-3.4 0-11.6-2-13.5-4.4-2 2.2-10.3 4.4-13.7 4.4l-1.3-.1s-1.4 18.4 14.9 31zm0 0" fill="none" stroke-width=".6" stroke="#c09200"/></g></g><g clip-path="url(#bi)"><g clip-path="url(#bj)"><path d="M163.6 134h-.4c-3.1 0-10.3-1.6-13.1-4a30.2 30.2 0 01-13.7 4v2a36.5 36.5 0 0013.6 26c6-4.9 10.2-11.2 12.3-18.7a36.7 36.7 0 001.2-7.3l.1-2" fill="#fff"/></g></g><g clip-path="url(#bk)"><g clip-path="url(#bl)"><path d="M132.9 166.3h11.8v-40.6h-11.8zm0 0" fill="#c09200"/></g></g><g clip-path="url(#bm)"><g clip-path="url(#bn)"><path d="M155 166.3h12.4v-40.6H155zm0 0" fill="#c09200"/></g></g><g clip-path="url(#bo)"><g clip-path="url(#bp)"><path d="M155.8 161.5l-2.2 7.4" fill="none" stroke-width=".6" stroke-linecap="round" stroke-linejoin="round" stroke="#c09200"/></g></g><g clip-path="url(#bq)"><g clip-path="url(#br)"><path d="M149.1 194.7l-.2-.2a1.3 1.3 0 01-.5-.4 1.4 1.4 0 01-.2-.6l-1.4-.2-1.3-.1h-1.3a.6.6 0 000 .2 1.6 1.6 0 01-.3.3 1 1 0 00-.1.3h-.1a1.7 1.7 0 01-.4.3l-.2.1h-1.2a.6.6 0 00-.2 0 .4.4 0 01-.2 0c-.1-.1-.1-.1 0-.2 0-.1.1-.2.6-.2h.5l.5-.5a.4.4 0 01.1 0 .4.4 0 00.1-.3v-.2c.2-.2.2-.3 0-.7l-.3-.6c-.3-.2-.2-.3 0-.5l.3-.4c.1-.2.2-.2.3-.2l.2.2a4.6 4.6 0 01.4 1v.2c.1.2.2.2.5.2s.3 0 .3-.4v-.4a.2.2 0 00.1 0l-.2-.7v-.4l.2-.2h.1c.2-.2.5-.2.7-.1v.4l.2.4h.2l.1.1h.8a7.5 7.5 0 011.7.1h.8l.5.2.2.1v.5c0 .5 0 .6.2.6.3 0 .3 0 .3-.3l.1-.2a.6.6 0 00.1-.2c0-.2.3-.4.5-.5a.5.5 0 00.1 0 .4.4 0 01.2-.1l.6-.3h.5l.2.7v.5l.1.5v.7l-.2.1H150.5l-.1.4-.1.2a.4.4 0 00-.1.2l-.4.3a.5.5 0 00-.2 0c0 .2-.3.3-.4.3m.3-1.2V192l-.9-.1h-.9a.7.7 0 00-.3 0 1.3 1.3 0 01-.4 0c-.6-.2-1-.1-1 .1-.1.1-.1.1 0 .2v.1l.3.1h1.5l.7.1h.4l.1.2v.7l.3.2h.2m2.9-1.2v-.3c0-.2 0-.2-.2-.2l-.4.2v.3h.6m3.1 2l-.1-.3.1-.3c.2-.2.3-.2.7 0h.5l.5-.2h.2l.2.4c0 .2 0 .3-.2.4h-.3c-.2 0-.3 0-.4-.2 0-.1 0-.2 0 0h-.2l-.4.3h-.3l-.3-.1m3.4-.3v-.1a.5.5 0 01.2-.2c.3 0 .5-.2.7-.4l.2-.2.1-.2v-.5-.7l-.6-.3c-.1-.1-.2-.3-.1-.4l.2-.4.2-.5c0-.1.3-.1.4 0l.3.5v.1l.3.5a.7.7 0 00.1.2l.1.3v.3c.2.3.1 1 0 1.2v.1c-.1 0-.2 0-.2.2l-.6.4h-.2c0 .2 0 .2-.5.2h-.6m3-.4v-.2a.6.6 0 01.2-.1.6.6 0 00.1 0 .7.7 0 01.3-.1c.3-.1.6-.4.6-.7a.5.5 0 000-.2l-1 .1h-.2l-.2-.2v-1.1l.2-.1.2-.4a.6.6 0 01.1-.1 2.1 2.1 0 00.2-.2l.6-.3h.1l.2-.1.2.1.1.3v.3l.1.3a.7.7 0 00.1.3h.6v-.4l.2-.4v-.2c0-.2.4-.6.5-.8a2.3 2.3 0 00.2-.1.4.4 0 01.2 0l.1-.3-.3-.5-.1-.1c0-.1 0-.3.2-.5l.2-.3h.1l.3-.1.2.4.2.7v.3l.4.1a2.2 2.2 0 01.6.2l.3.2.4.7c.2.3.2.3.5.3h.4a.4.4 0 000-.3l.4-.4.2-.3.4-.2.4.2c.3 0 .4.1.5.2.1.3.5.4.7.2h.2l-.2-.6v-.4a1.6 1.6 0 00-.2-.4v-.5a3.8 3.8 0 00-.2-.6 2.2 2.2 0 010-.4c0-.2-.3-.6-.5-.7a1.4 1.4 0 01-.2 0c-.1-.1-.3-.1-.4 0a.2.2 0 01-.1 0l-.4.3-.3-.1a.9.9 0 01-.2-.2l-.1-.2-.2-.2.1-.2h.1l.2-.1.4-.1a3 3 0 011.3 0 1 1 0 00.3 0l.5.5v.1l.1.2.1.3.2 1 .1.7a19 19 0 01.3.8c0 .2.4.4.6.4.2 0 .5-.1.7-.3l.2-.2.4.1a.9.9 0 00.3.4c.2 0 .2.2.2.3a.2.2 0 01-.1 0l-.3.2a1 1 0 01-.3 0l-.4.2-.9.2-1.1.3a.7.7 0 01-.2 0c-.3.1-.3.1-.3.3 0 .1-.4.5-.7.6l-.6.1a4.4 4.4 0 01-.5 0l-.1-.1a.3.3 0 00-.2-.2h-.7v.8a3.4 3.4 0 00-.1.2l-.3.2-.3.3c-.2.2-.3.2-.4.1a.2.2 0 00-.2 0l-.6-.3-.4-.6-.3-.2h-.4l-.5.2h-.5a1.7 1.7 0 01-.3.1c-.2 0-.3.2-.3.4v.2a.3.3 0 00-.1.2c0 .1-.3.4-.6.5a8.5 8.5 0 00-.3.2h-1m5.8-1.7v-.3h-.5l-.1.2v.1h.6m-4.7-.4l.1-.3a.3.3 0 00-.5-.2.4.4 0 000 .2h-.1v.2h.5m3-.5a1 1 0 000-.3c0-.2-.1-.2-.2-.3-.1-.1-.2-.1-.4 0v.4c0 .3 0 .3.3.3l.3-.1m1.3-.1l.2-.2c0-.2-.2-.4-.4-.5-.2-.1-.3-.1-.4 0v.5l.3.3.3-.1m3 0c.2-.2.3-.3.2-.4 0-.2-.2-.2-.4-.2s-.4.1-.4.3l.2.2a.8.8 0 00.2.1 1 1 0 00.2 0m-31.6 2.8l-.5-.3v-.1a4.8 4.8 0 00-.1-.4c-.1-.2-.1-.4 0-.4v-.2h-.4l-.5-.2-.2-.4v-.3h-.3-.1l-.2.2-.1.2-.3.1h-.4l-.7-.1-1 .1c0 .2-.5.6-.7.6a2.6 2.6 0 00-.3.1h-.2a3.6 3.6 0 00-.4 0c-.4 0-.6-.1-.6-.3l.4-.2h.5l.2-.1h.2l.2-.3a.9.9 0 000-.2.3.3 0 01.2-.1.4.4 0 000-.2v-.3c.1-.2.1-.2 0-.4v-.3l-.2-.2c0-.2 0-.3.3-.6a.4.4 0 000-.2l.3-.2.3.3v.2l.1.4.2.8.3.3h.4l.4.1.4-.2.3-.3c0-.1-.5-.4-1-.5 0 0-.2-.2-.1-.3 0-.2.2-.4.4-.5l.5-.2.3-.1.1-.2c.2-.4.7-.7 1-.7.2 0 .2 0 .3.2l.2.2.2.5v.3a3.5 3.5 0 01.8.7v.4c0 .3 0 .3-.4.3a2.6 2.6 0 00-.5 0l-.2.1v.2c0 .3 0 .4.4.4l.2.1a.3.3 0 00.2 0h.1l.1.6v.5H139.1c.1.2.2.1.3 0v-.2l.1-.5a3.8 3.8 0 010-.6l.2-.6v-.5l.1-.5.1-.5v-1.1c-.2-.1-.2-.2-.2-.3l.2-.2.3-.1a.7.7 0 00.2-.1l.3-.2h.1v1.4l-.2.7v.7a1 1 0 00-.1.3v.6a14.4 14.4 0 00-.1.6l-.1.5a1.9 1.9 0 00-.1.4v.3a.5.5 0 00-.2.2l-.2.5-.2.1a.7.7 0 00-.3.1 1 1 0 01-.6 0m-1.1-3.5v-.2l-.2-.3c0-.4-.2-.4-.5 0l-.3.2v.2l.6.2h.4m16.9 2.9v-.3a2.8 2.8 0 000-.5 1 1 0 010-.3.5.5 0 000-.2s0-.2.2-.3l.1-.1.4-.3h.1a.3.3 0 01.2-.2h.2v-.4-.5a.8.8 0 010-.3 4.8 4.8 0 000-.4l-.2-.5-.1-.1-.2-.2.7-.8c.1 0 .3 0 .3.2a2.8 2.8 0 010 .5l.2.6v.8l.1.7v.7l.2.7c0 .3.3.4.5.3a2 2 0 01.4 0c.4-.1.4-.1.3-.7v-.5a.5.5 0 00-.3-.1l-.1-.3s.1-.3.3-.3l.2-.2h.5l.1.6.1.7v.4l.1.5v.3a2.3 2.3 0 000 .2h-.5a2.6 2.6 0 00-.4.1h-.5a12.7 12.7 0 00-2.4.3h-.5zm1-.8h.3v-.4h-.4c-.2.2-.2.3 0 .4h.2m-14.5.3h-.2v-.4l.1-.4v-.4l.1-.4.1-.7.1-.7v-.3l.1-.4v-.6l.1-.5a.8.8 0 000-.2l.2-.3.2.2.4.4c.4.4.4.4.3.5l-.2.1-.1.1-.1.3v.4l-.2 1.1a.7.7 0 010 .3l-.1.6v.5a.5.5 0 000 .2l-.2.7h-.6m-11-.5c-.2 0-.3-.2-.3-.4s0-.2.2-.3a.7.7 0 01.2-.2l.3.1c.3.2.4.4.2.6-.2.2-.3.2-.6.2m42.5-.6l-.1-.3c0-.2.1-.3.4-.4.3-.2.5-.2.6 0 .2.3.1.5 0 .7h-.9m-44.5 0a.4.4 0 01-.3-.6c0-.2 0-.2.4-.2s.4 0 .4.3v.3a.5.5 0 01-.5.1m-1.5-.4c-.3-.3-.2-.4.1-.7h.5c.2.3.2.5 0 .7l-.3.1-.3-.1m4.8 0a6.2 6.2 0 00-.6-.2 25 25 0 01-1.6-.3 4 4 0 00-.4-.1 5.2 5.2 0 01-.6-.2 19.7 19.7 0 00-.6-.2 5.8 5.8 0 01-.5-.1.7.7 0 00-.2-.1.6.6 0 01-.2 0 1 1 0 00-.4-.2c-.3 0-.5 0-.6-.3-.1 0-.1-.2 0-.4a1 1 0 000-.2l.1-.1.1-.1.3-.4c.1-.2.4-.3.5-.3h.3l.3-.1h.3v-.2a1 1 0 00.2-.3v-.2l.1-.4.2-.7c.1 0 .1-.1 0-.2l-.2-.2-.4.2-.4.2a.6.6 0 01-.5-.3v-.3l.2-.2h.6l.4.1a1 1 0 00.2 0h.2l.2-.2h.1a.4.4 0 00.2-.1H129v.4a2.1 2.1 0 010 .4.7.7 0 00-.1.2.3.3 0 01-.1.3.3.3 0 000 .1.2.2 0 01-.1.2l-.1.3-.1.3a.7.7 0 000 .2l-.2.2v.2a.7.7 0 010 .2 1 1 0 00-.2.3.9.9 0 010 .3.7.7 0 00-.1.2.9.9 0 010 .3c-.1 0-.1.1 0 .2l.7.2h.4a.6.6 0 000-.4 1.2 1.2 0 01.2-.2.8.8 0 000-.3l-.1-.3-.1-.2.4-.2a.3.3 0 00.1 0 .8.8 0 01.2-.2.9.9 0 00.2-.1c.2-.2.3-.2.3 0 .1 0 .1 0 0 .2a1 1 0 000 .4.4.4 0 010 .2.6.6 0 00-.2.2v.3a1 1 0 00-.1.3v.3c-.2.2-.2.3 0 .4h.1l.3.1h.3l.4.2.3-.1a.7.7 0 00.2-.4v-.2l-.1-.5c-.2-.2-.1-.4.1-.4l.6-.2c.2-.2.3-.3.5-.2v.3a1.5 1.5 0 000 .3l-.2.5-.1.5-.1.5a1.2 1.2 0 00-.1.3 1 1 0 010 .2c-.2.3-.4.4-.8.3m-4.2-2.2v-.3h-.3l-.2.2.3.1h.2m27.1 1.5c-.2 0-.3-.2-.3-.4 0-.3 0-.3.3-.4l.2-.1h.1c.3.1.4.3.4.4 0 .2-.1.4-.3.5h-.4m-.2-1.2l-.2-.4c0-.2.3-.5.4-.5l.5.2c.1.2 0 .4-.1.6h-.6m-27.4-2c-.3 0-.4-.2-.4-.4.1-.3.4-.5.6-.4l.4.4-.2.4c-.1 0-.3.1-.4 0" fill="#c09200"/></g></g><g clip-path="url(#bs)"><g clip-path="url(#bt)"><path d="M156.2 126.5c.3 0-.5-1.7-.5-1.7.9.9 4.2 1 4.2 1-2-.8-4-7.5-3.7-12.8.2-5.3-.8-7.4-1.6-8.2-1-1-4.2-1.9-6.3-2-1.2 0-1 1-1 1-2.2-.7-4.5-.9-5.5-.2-.9.6-1 3.8-.4 3.2 1.7-1.3 3.1-.1 4.1 1.3.9 1.3.8 5-.4 9.1-1.4 4.5-5 8.9-5 8.9 2 0 4.7-1.8 4.7-1.8l-.6 2.8c2-1 3.7-2.6 3.7-2.6l2 2.1 2-2s1.7 1.7 4.3 2" fill="#fff"/></g></g><g clip-path="url(#bu)"><g clip-path="url(#bv)"><path d="M156.2 126.5c.3 0-.5-1.7-.5-1.7.9.9 4.2 1 4.2 1-2-.8-4-7.5-3.7-12.8.2-5.3-.8-7.4-1.6-8.2-1-1-4.2-1.9-6.3-2-1.2 0-1 1-1 1-2.2-.7-4.5-.9-5.5-.2-.9.6-1 3.8-.4 3.2 1.7-1.3 3.1-.1 4.1 1.3.9 1.3.8 5-.4 9.1-1.4 4.5-5 8.9-5 8.9 2 0 4.7-1.8 4.7-1.8l-.6 2.8c2-1 3.7-2.6 3.7-2.6l2 2.1 2-2s1.7 1.7 4.3 2zm0 0" fill="none" stroke-width=".6" stroke="#c09200"/></g></g><g clip-path="url(#bw)"><g clip-path="url(#bx)"><path d="M148 113.8s-1 8.2-3.2 10.5" fill="none" stroke-width=".6" stroke="#c09200"/></g></g><g clip-path="url(#by)"><g clip-path="url(#bz)"><path d="M149.8 113.6s-.4 8.3-1.9 11" fill="none" stroke-width=".6" stroke="#c09200"/></g></g><g clip-path="url(#bA)"><g clip-path="url(#bB)"><path d="M151.4 113.9s0 9.1.5 10.6" fill="none" stroke-width=".6" stroke="#c09200"/></g></g><g clip-path="url(#bC)"><g clip-path="url(#bD)"><path d="M153.4 114.4s.4 7.6 2.3 10.4" fill="none" stroke-width=".6" stroke="#c09200"/></g></g><g clip-path="url(#bE)"><g clip-path="url(#bF)"><path d="M146 109.8a4 4 0 00-.5-1.7c-1-1.4-2.4-2.6-4.1-1.3 0 0 .6-1.8 1.8-1.8 1 0 3 .7 5 3.9 0 0-1.5-.3-1.8 0-.6.5-.4 1-.4 1" fill="#c09200"/></g></g><g clip-path="url(#bG)"><g clip-path="url(#bH)"><path d="M146 109.8a4 4 0 00-.5-1.7c-1-1.4-2.4-2.6-4.1-1.3 0 0 .6-1.8 1.8-1.8 1 0 3 .7 5 3.9 0 0-1.5-.3-1.8 0-.6.5-.4 1-.4 1zm0 0" fill="none" stroke-width=".6" stroke="#c09200"/></g></g><g clip-path="url(#bI)"><g clip-path="url(#bJ)"><path d="M141.2 104.6l.6-1c1-.7 3.3-.5 5.5.1 0 0-.2-1 1-.9 2 .1 5.3 1 6.3 2l.8 1.2c-.6-.7-2-.6-2.3-.6-.5 0-.9 0-1.6.2-.3 0-.8.2-1 .4-.3.2-.5.8-.8.8-.5 0-.5-.1-.6-.3-.2-.2-.3-.5-.5-.5-.5.1-1.4-.3-2.5-1.2-1.2-.9-1.6-1-3-1-1.5.1-2 1-2 1l.1-.2" fill="#c09200"/></g></g><g clip-path="url(#bK)"><g clip-path="url(#bL)"><path d="M141.2 104.6l.6-1c1-.7 3.3-.5 5.5.1 0 0-.2-1 1-.9 2 .1 5.3 1 6.3 2l.8 1.2h0c-.6-.7-2-.6-2.3-.6-.5 0-.9 0-1.6.2-.3 0-.8.2-1 .4-.3.2-.5.8-.8.8-.5 0-.5-.1-.6-.3-.2-.2-.3-.5-.5-.5-.5.1-1.4-.3-2.5-1.2-1.2-.9-1.6-1-3-1-1.5.1-2 1-2 1zm0 0" fill="none" stroke-width=".6" stroke="#c09200"/></g></g><g clip-path="url(#bM)"><g clip-path="url(#bN)"><path d="M149.4 106a.6.6 0 00.6-.7.6.6 0 00-.6-.6.6.6 0 000 1.2" fill="#fff"/></g></g><g clip-path="url(#bO)"><g clip-path="url(#bP)"><path d="M163.6 134h-.4c-3.1 0-10.3-1.6-13.1-4a30.2 30.2 0 01-13.7 4v2a36.5 36.5 0 0013.6 26c6-4.9 10.2-11.2 12.3-18.7a36.7 36.7 0 001.2-7.3l.1-2zm0 0" fill="none" stroke-width=".5" stroke="#c09200"/></g></g></svg>