<svg xmlns="http://www.w3.org/2000/svg" width="400" height="400" viewBox="0 0 300 300"><defs><clipPath id="a"><path d="M150 0a150 150 0 100 300 150 150 0 000-300zm0 0"/></clipPath><clipPath id="b"><path d="M0 0h300v200H0zm0 0"/></clipPath><clipPath id="c"><path d="M150 0a150 150 0 100 300 150 150 0 000-300zm0 0"/></clipPath><clipPath id="d"><path d="M0 0h300v100H0zm0 0"/></clipPath><clipPath id="e"><path d="M150 0a150 150 0 100 300 150 150 0 000-300zm0 0"/></clipPath><clipPath id="f"><path d="M0 0h88v300H0zm0 0"/></clipPath><clipPath id="g"><path d="M150 0a150 150 0 100 300 150 150 0 000-300zm0 0"/></clipPath><clipPath id="h"><path d="M228 165h7v9h-7zm0 0"/></clipPath><clipPath id="i"><path d="M150 0a150 150 0 100 300 150 150 0 000-300zm0 0"/></clipPath><clipPath id="j"><path d="M224 161h15v17h-15zm0 0"/></clipPath><clipPath id="k"><path d="M150 0a150 150 0 100 300 150 150 0 000-300zm0 0"/></clipPath><clipPath id="l"><path d="M208 182h5v5h-5zm0 0"/></clipPath><clipPath id="m"><path d="M150 0a150 150 0 100 300 150 150 0 000-300zm0 0"/></clipPath><clipPath id="n"><path d="M204 177h14v14h-14zm0 0"/></clipPath><clipPath id="o"><path d="M150 0a150 150 0 100 300 150 150 0 000-300zm0 0"/></clipPath><clipPath id="p"><path d="M186 182h6v5h-6zm0 0"/></clipPath><clipPath id="q"><path d="M150 0a150 150 0 100 300 150 150 0 000-300zm0 0"/></clipPath><clipPath id="r"><path d="M181 177h15v14h-15zm0 0"/></clipPath><clipPath id="s"><path d="M150 0a150 150 0 100 300 150 150 0 000-300zm0 0"/></clipPath><clipPath id="t"><path d="M176 119h48v64h-48zm0 0"/></clipPath><clipPath id="u"><path d="M150 0a150 150 0 100 300 150 150 0 000-300zm0 0"/></clipPath><clipPath id="v"><path d="M171 115h58v73h-58zm0 0"/></clipPath><clipPath id="w"><path d="M150 0a150 150 0 100 300 150 150 0 000-300zm0 0"/></clipPath><clipPath id="x"><path d="M164 165h8v9h-8zm0 0"/></clipPath><clipPath id="y"><path d="M150 0a150 150 0 100 300 150 150 0 000-300zm0 0"/></clipPath><clipPath id="z"><path d="M160 160h16v18h-16zm0 0"/></clipPath><clipPath id="A"><path d="M150 0a150 150 0 100 300 150 150 0 000-300zm0 0"/></clipPath><clipPath id="B"><path d="M189 105h10v11h-10zm0 0"/></clipPath><clipPath id="C"><path d="M150 0a150 150 0 100 300 150 150 0 000-300zm0 0"/></clipPath><clipPath id="D"><path d="M185 101h18v19h-18zm0 0"/></clipPath><clipPath id="E"><path d="M150 0a150 150 0 100 300 150 150 0 000-300zm0 0"/></clipPath><clipPath id="F"><path d="M177 107h10v11h-10zm0 0"/></clipPath><clipPath id="G"><path d="M150 0a150 150 0 100 300 150 150 0 000-300zm0 0"/></clipPath><clipPath id="H"><path d="M173 103h18v19h-18zm0 0"/></clipPath><clipPath id="I"><path d="M150 0a150 150 0 100 300 150 150 0 000-300zm0 0"/></clipPath><clipPath id="J"><path d="M165 111h11v10h-11zm0 0"/></clipPath><clipPath id="K"><path d="M150 0a150 150 0 100 300 150 150 0 000-300zm0 0"/></clipPath><clipPath id="L"><path d="M161 107h19v18h-19zm0 0"/></clipPath><clipPath id="M"><path d="M150 0a150 150 0 100 300 150 150 0 000-300zm0 0"/></clipPath><clipPath id="N"><path d="M202 105h9v11h-9zm0 0"/></clipPath><clipPath id="O"><path d="M150 0a150 150 0 100 300 150 150 0 000-300zm0 0"/></clipPath><clipPath id="P"><path d="M197 101h18v19h-18zm0 0"/></clipPath><clipPath id="Q"><path d="M150 0a150 150 0 100 300 150 150 0 000-300zm0 0"/></clipPath><clipPath id="R"><path d="M213 107h10v11h-10zm0 0"/></clipPath><clipPath id="S"><path d="M150 0a150 150 0 100 300 150 150 0 000-300zm0 0"/></clipPath><clipPath id="T"><path d="M209 103h19v19h-19zm0 0"/></clipPath><clipPath id="U"><path d="M150 0a150 150 0 100 300 150 150 0 000-300zm0 0"/></clipPath><clipPath id="V"><path d="M225 111h10v10h-10zm0 0"/></clipPath><clipPath id="W"><path d="M150 0a150 150 0 100 300 150 150 0 000-300zm0 0"/></clipPath><clipPath id="X"><path d="M220 107h19v18h-19zm0 0"/></clipPath><clipPath id="Y"><path d="M150 0a150 150 0 100 300 150 150 0 000-300zm0 0"/></clipPath><clipPath id="Z"><path d="M187 185h26v10h-26zm0 0"/></clipPath><clipPath id="aa"><path d="M150 0a150 150 0 100 300 150 150 0 000-300zm0 0"/></clipPath><clipPath id="ab"><path d="M183 180h35v19h-35zm0 0"/></clipPath><clipPath id="ac"><path d="M150 0a150 150 0 100 300 150 150 0 000-300zm0 0"/></clipPath><clipPath id="ad"><path d="M164 169h28v20h-28zm0 0"/></clipPath><clipPath id="ae"><path d="M150 0a150 150 0 100 300 150 150 0 000-300zm0 0"/></clipPath><clipPath id="af"><path d="M160 165h37v29h-37zm0 0"/></clipPath><clipPath id="ag"><path d="M150 0a150 150 0 100 300 150 150 0 000-300zm0 0"/></clipPath><clipPath id="ah"><path d="M208 169h28v20h-28zm0 0"/></clipPath><clipPath id="ai"><path d="M150 0a150 150 0 100 300 150 150 0 000-300zm0 0"/></clipPath><clipPath id="aj"><path d="M204 165h37v29h-37zm0 0"/></clipPath><clipPath id="ak"><path d="M150 0a150 150 0 100 300 150 150 0 000-300zm0 0"/></clipPath><clipPath id="al"><path d="M162 157h10v16h-10zm0 0"/></clipPath><clipPath id="am"><path d="M150 0a150 150 0 100 300 150 150 0 000-300zm0 0"/></clipPath><clipPath id="an"><path d="M158 153h18v25h-18zm0 0"/></clipPath><clipPath id="ao"><path d="M150 0a150 150 0 100 300 150 150 0 000-300zm0 0"/></clipPath><clipPath id="ap"><path d="M228 157h10v16h-10zm0 0"/></clipPath><clipPath id="aq"><path d="M150 0a150 150 0 100 300 150 150 0 000-300zm0 0"/></clipPath><clipPath id="ar"><path d="M224 153h18v25h-18zm0 0"/></clipPath><clipPath id="as"><path d="M150 0a150 150 0 100 300 150 150 0 000-300zm0 0"/></clipPath><clipPath id="at"><path d="M195 188h11v5h-11zm0 0"/></clipPath><clipPath id="au"><path d="M150 0a150 150 0 100 300 150 150 0 000-300zm0 0"/></clipPath><clipPath id="av"><path d="M200 139h7v37h-7zm0 0"/></clipPath><clipPath id="aw"><path d="M150 0a150 150 0 100 300 150 150 0 000-300zm0 0"/></clipPath><clipPath id="ax"><path d="M198 137h11v41h-11zm0 0"/></clipPath><clipPath id="ay"><path d="M150 0a150 150 0 100 300 150 150 0 000-300zm0 0"/></clipPath><clipPath id="az"><path d="M199 138h4v39h-4zm0 0"/></clipPath><clipPath id="aA"><path d="M150 0a150 150 0 100 300 150 150 0 000-300zm0 0"/></clipPath><clipPath id="aB"><path d="M196 136h9v43h-9zm0 0"/></clipPath><clipPath id="aC"><path d="M150 0a150 150 0 100 300 150 150 0 000-300zm0 0"/></clipPath><clipPath id="aD"><path d="M193 139h7v37h-7zm0 0"/></clipPath><clipPath id="aE"><path d="M150 0a150 150 0 100 300 150 150 0 000-300zm0 0"/></clipPath><clipPath id="aF"><path d="M191 137h11v42h-11zm0 0"/></clipPath><clipPath id="aG"><path d="M150 0a150 150 0 100 300 150 150 0 000-300zm0 0"/></clipPath><clipPath id="aH"><path d="M193 159h9v18h-9zm0 0"/></clipPath><clipPath id="aI"><path d="M150 0a150 150 0 100 300 150 150 0 000-300zm0 0"/></clipPath><clipPath id="aJ"><path d="M199 164h7v13h-7zm0 0"/></clipPath><clipPath id="aK"><path d="M150 0a150 150 0 100 300 150 150 0 000-300zm0 0"/></clipPath><clipPath id="aL"><path d="M180 123h42v23h-42zm0 0"/></clipPath><clipPath id="aM"><path d="M150 0a150 150 0 100 300 150 150 0 000-300zm0 0"/></clipPath><clipPath id="aN"><path d="M177 121h47v27h-47zm0 0"/></clipPath><clipPath id="aO"><path d="M150 0a150 150 0 100 300 150 150 0 000-300zm0 0"/></clipPath><clipPath id="aP"><path d="M191 126h9v8h-9zm0 0"/></clipPath><clipPath id="aQ"><path d="M150 0a150 150 0 100 300 150 150 0 000-300zm0 0"/></clipPath><clipPath id="aR"><path d="M197 125h9v8h-9zm0 0"/></clipPath><clipPath id="aS"><path d="M150 0a150 150 0 100 300 150 150 0 000-300zm0 0"/></clipPath><clipPath id="aT"><path d="M204 127h5v8h-5zm0 0"/></clipPath><clipPath id="aU"><path d="M150 0a150 150 0 100 300 150 150 0 000-300zm0 0"/></clipPath><clipPath id="aV"><path d="M209 130h8v5h-8zm0 0"/></clipPath><clipPath id="aW"><path d="M150 0a150 150 0 100 300 150 150 0 000-300zm0 0"/></clipPath><clipPath id="aX"><path d="M213 135h9v7h-9zm0 0"/></clipPath><clipPath id="aY"><path d="M150 0a150 150 0 100 300 150 150 0 000-300zm0 0"/></clipPath><clipPath id="aZ"><path d="M212 137h5v7h-5zm0 0"/></clipPath><clipPath id="ba"><path d="M150 0a150 150 0 100 300 150 150 0 000-300zm0 0"/></clipPath><clipPath id="bb"><path d="M206 137h7v6h-7zm0 0"/></clipPath><clipPath id="bc"><path d="M150 0a150 150 0 100 300 150 150 0 000-300zm0 0"/></clipPath><clipPath id="bd"><path d="M201 134h6v7h-6zm0 0"/></clipPath><clipPath id="be"><path d="M150 0a150 150 0 100 300 150 150 0 000-300zm0 0"/></clipPath><clipPath id="bf"><path d="M185 138h8v8h-8zm0 0"/></clipPath><clipPath id="bg"><path d="M150 0a150 150 0 100 300 150 150 0 000-300zm0 0"/></clipPath><clipPath id="bh"><path d="M188 139h7v6h-7zm0 0"/></clipPath><clipPath id="bi"><path d="M150 0a150 150 0 100 300 150 150 0 000-300zm0 0"/></clipPath><clipPath id="bj"><path d="M186 134h7v6h-7zm0 0"/></clipPath><clipPath id="bk"><path d="M150 0a150 150 0 100 300 150 150 0 000-300zm0 0"/></clipPath><clipPath id="bl"><path d="M188 131h10v7h-10zm0 0"/></clipPath><clipPath id="bm"><path d="M150 0a150 150 0 100 300 150 150 0 000-300zm0 0"/></clipPath><clipPath id="bn"><path d="M195 131h11v7h-11zm0 0"/></clipPath><clipPath id="bo"><path d="M150 0a150 150 0 100 300 150 150 0 000-300zm0 0"/></clipPath><clipPath id="bp"><path d="M206 133h10v7h-10zm0 0"/></clipPath><clipPath id="bq"><path d="M150 0a150 150 0 100 300 150 150 0 000-300zm0 0"/></clipPath><clipPath id="br"><path d="M191 134h8v7h-8zm0 0"/></clipPath><clipPath id="bs"><path d="M150 0a150 150 0 100 300 150 150 0 000-300zm0 0"/></clipPath><clipPath id="bt"><path d="M167 177h19v11h-19zm0 0"/></clipPath><clipPath id="bu"><path d="M150 0a150 150 0 100 300 150 150 0 000-300zm0 0"/></clipPath><clipPath id="bv"><path d="M213 176h22v12h-22zm0 0"/></clipPath><clipPath id="bw"><path d="M150 0a150 150 0 100 300 150 150 0 000-300zm0 0"/></clipPath></defs><g clip-path="url(#a)"><path fill="#e22017" d="M0 0h300v300H0z"/></g><g clip-path="url(#b)"><g clip-path="url(#c)"><path d="M-25 200h450V0H-25zm0 0" fill="#fff"/></g></g><g clip-path="url(#d)"><g clip-path="url(#e)"><path d="M-25 100h450V0H-25zm0 0" fill="#3d9a00"/></g></g><g clip-path="url(#f)"><g clip-path="url(#g)"><path d="M-25 0v300L87.5 150" fill="#0073ce"/></g></g><g clip-path="url(#h)"><g clip-path="url(#i)"><path d="M228.4 169l3.1 4.5 2.9-4.3-2-3.6zm0 0" fill="#fff"/></g></g><g clip-path="url(#j)"><g clip-path="url(#k)"><path d="M228.4 169l3.1 4.5 2.9-4.3-2-3.6zm0 0" fill="none" stroke-width=".8" stroke="#000"/></g></g><g clip-path="url(#l)"><g clip-path="url(#m)"><path d="M208.5 182.1l.3 4.5s1.2 0 2.3-.3c1-.4 1.9-1.2 1.9-1.2l-.1-2.3" fill="#fff"/></g></g><g clip-path="url(#n)"><g clip-path="url(#o)"><path d="M208.5 182.1l.3 4.5s1.2 0 2.3-.3c1-.4 1.9-1.2 1.9-1.2l-.1-2.3zm0 0" fill="none" stroke-width=".8" stroke="#000"/></g></g><g clip-path="url(#p)"><g clip-path="url(#q)"><path d="M191.8 182.1l-.3 4.4s-1.1 0-2.3-.3c-1-.2-1.8-.8-1.8-.8l-1.3-3" fill="#fff"/></g></g><g clip-path="url(#r)"><g clip-path="url(#s)"><path d="M191.8 182.1l-.3 4.4s-1.1 0-2.3-.3c-1-.2-1.8-.8-1.8-.8l-1.3-3zm0 0" fill="none" stroke-width=".8" stroke="#000"/></g></g><g clip-path="url(#t)"><g clip-path="url(#u)"><path d="M176 119.9h47.9V170c0 16.9-22 3.9-23.9 12.9-3.3-9.3-23.9 4.1-23.9-13.9l-.1-49.1" fill="#fff"/></g></g><g clip-path="url(#v)"><g clip-path="url(#w)"><path d="M176 119.9h47.9V170c0 16.9-22 3.9-23.9 12.9-3.3-9.3-23.9 4.1-23.9-13.9l-.1-49.1zm0 0" fill="none" stroke-width=".8" stroke="#000"/></g></g><g clip-path="url(#x)"><g clip-path="url(#y)"><path d="M171.6 169l-3.2 4.5-3.5-5.8 2.6-2.7zm0 0" fill="#fff"/></g></g><g clip-path="url(#z)"><g clip-path="url(#A)"><path d="M171.6 169l-3.2 4.5-3.5-5.8 2.6-2.7zm0 0" fill="none" stroke-width=".8" stroke="#000"/></g></g><g clip-path="url(#B)"><g clip-path="url(#C)"><path d="M198.4 112.8l-2.8.1-1.3 2.5-1.6-2.3H190l1.3-2.4-1.6-2.3 3-.2 1.2-2.4 1.5 2.3 2.7-.1-1.2 2.5" fill="#ffd600"/></g></g><g clip-path="url(#D)"><g clip-path="url(#E)"><path d="M198.4 112.8l-2.8.1-1.3 2.5-1.6-2.3H190l1.3-2.4-1.6-2.3 3-.2 1.2-2.4 1.5 2.3 2.7-.1-1.2 2.5zm0 0" fill="none" stroke-width=".8" stroke="#000"/></g></g><g clip-path="url(#F)"><g clip-path="url(#G)"><path d="M186.6 113.7l-2.7.7-.8 2.7-2-2-2.6.6.8-2.6-2-2 2.7-.7.8-2.7 2 2 2.7-.6-.9 2.6" fill="#ffd600"/></g></g><g clip-path="url(#H)"><g clip-path="url(#I)"><path d="M186.6 113.7l-2.7.7-.8 2.7-2-2-2.6.6.8-2.6-2-2 2.7-.7.8-2.7 2 2 2.7-.6-.9 2.6zm0 0" fill="none" stroke-width=".8" stroke="#000"/></g></g><g clip-path="url(#J)"><g clip-path="url(#K)"><path d="M175.3 116l-2.6 1.3v2.8l-2.4-1.5-2.6 1.2.3-2.8-2.4-1.5 2.5-1.3.3-2.8 2.2 1.6 2.5-1.2-.1 2.7" fill="#ffd600"/></g></g><g clip-path="url(#L)"><g clip-path="url(#M)"><path d="M175.3 116l-2.6 1.3v2.8l-2.4-1.5-2.6 1.2.3-2.8-2.4-1.5 2.5-1.3.3-2.8 2.2 1.6 2.5-1.2-.1 2.7zm0 0" fill="none" stroke-width=".8" stroke="#000"/></g></g><g clip-path="url(#N)"><g clip-path="url(#O)"><path d="M202 112.8l2.8.1 1.2 2.5 1.5-2.3h2.8l-1.3-2.4 1.5-2.3-2.8-.2-1.3-2.4-1.5 2.3-2.8-.1 1.3 2.5" fill="#ffd600"/></g></g><g clip-path="url(#P)"><g clip-path="url(#Q)"><path d="M202 112.8l2.8.1 1.2 2.5 1.5-2.3h2.8l-1.3-2.4 1.5-2.3-2.8-.2-1.3-2.4-1.5 2.3-2.8-.1 1.3 2.5zm0 0" fill="none" stroke-width=".8" stroke="#000"/></g></g><g clip-path="url(#R)"><g clip-path="url(#S)"><path d="M213.8 113.7l2.6.7.7 2.7 2-2 2.7.6-.8-2.6 2-2-2.8-.7-.7-2.7-2 2-2.6-.6.7 2.6" fill="#ffd600"/></g></g><g clip-path="url(#T)"><g clip-path="url(#U)"><path d="M213.8 113.7l2.6.7.7 2.7 2-2 2.7.6-.8-2.6 2-2-2.8-.7-.7-2.7-2 2-2.6-.6.7 2.6zm0 0" fill="none" stroke-width=".8" stroke="#000"/></g></g><g clip-path="url(#V)"><g clip-path="url(#W)"><path d="M225 116l2.5 1.3.1 2.8 2.4-1.5 2.5 1.2-.1-2.8 2.2-1.5-2.5-1.3-.1-2.8-2.4 1.6-2.5-1.2.3 2.7" fill="#ffd600"/></g></g><g clip-path="url(#X)"><g clip-path="url(#Y)"><path d="M225 116l2.5 1.3.1 2.8 2.4-1.5 2.5 1.2-.1-2.8 2.2-1.5-2.5-1.3-.1-2.8-2.4 1.6-2.5-1.2.3 2.7zm0 0" fill="none" stroke-width=".8" stroke="#000"/></g></g><g clip-path="url(#Z)"><g clip-path="url(#aa)"><path d="M187.3 185.1v6c0 4.3 25.7 4.3 25.7 0v-6c0 3.2-25.8 2.5-25.8 0" fill="#fff"/></g></g><g clip-path="url(#ab)"><g clip-path="url(#ac)"><path d="M187.3 185.1v6c0 4.3 25.7 4.3 25.7 0v-6c0 3.2-25.8 2.5-25.8 0zm0 0" fill="none" stroke-width=".8" stroke="#000"/></g></g><g clip-path="url(#ad)"><g clip-path="url(#ae)"><path d="M164.3 177.3c2.2 11.4 23 11.7 23 11.7v-3.9c-.6-1.5.3-2 3.7-2.5 1.4-.1.8-2.1.8-2.1s-9 1.6-15.4-.9c-8.7-3.5-9.9-10.2-9.9-10.2s-.6 5.2-2.3 7.8" fill="#fff"/></g></g><g clip-path="url(#af)"><g clip-path="url(#ag)"><path d="M164.3 177.3c2.2 11.4 23 11.7 23 11.7v-3.9c-.6-1.5.3-2 3.7-2.5 1.4-.1.8-2.1.8-2.1s-9 1.6-15.4-.9c-8.7-3.5-9.9-10.2-9.9-10.2s-.6 5.2-2.3 7.8zm0 0" fill="none" stroke-width=".8" stroke="#000"/></g></g><g clip-path="url(#ah)"><g clip-path="url(#ai)"><path d="M235.9 177.3C233.7 188.7 213 189 213 189v-3.9c.4-1.5-.5-2-3.9-2.5-1.3-.1-.6-2.1-.6-2.1s9 1.6 15.4-.9c8.5-3.5 9.5-10.2 9.5-10.2s.8 5.2 2.5 7.8" fill="#fff"/></g></g><g clip-path="url(#aj)"><g clip-path="url(#ak)"><path d="M235.9 177.3C233.7 188.7 213 189 213 189v-3.9c.4-1.5-.5-2-3.9-2.5-1.3-.1-.6-2.1-.6-2.1s9 1.6 15.4-.9c8.5-3.5 9.5-10.2 9.5-10.2s.8 5.2 2.5 7.8zm0 0" fill="none" stroke-width=".8" stroke="#000"/></g></g><g clip-path="url(#al)"><g clip-path="url(#am)"><path d="M165.9 172.9c-5.8-3.2-1.3-6.4-.8-15.7.9 5.7 7.3 8 6.5 11.7-2.6.1-3.8-3.9-5.1.5" fill="#fff"/></g></g><g clip-path="url(#an)"><g clip-path="url(#ao)"><path d="M165.9 172.9c-5.8-3.2-1.3-6.4-.8-15.7.9 5.7 7.3 8 6.5 11.7-2.6.1-3.8-3.9-5.1.5zm0 0" fill="none" stroke-width=".8" stroke="#000"/></g></g><g clip-path="url(#ap)"><g clip-path="url(#aq)"><path d="M234.3 172.9c5.7-3.3 1-6.4.4-15.7-.8 5.7-7 8-6.3 11.7 2.5.1 3.7-3.9 5 .5l.8 3.3" fill="#fff"/></g></g><g clip-path="url(#ar)"><g clip-path="url(#as)"><path d="M234.3 172.9c5.7-3.3 1-6.4.4-15.7-.8 5.7-7 8-6.3 11.7 2.5.1 3.7-3.9 5 .5l.8 3.3zm0 0" fill="none" stroke-width=".8" stroke="#000"/></g></g><g clip-path="url(#at)"><g clip-path="url(#au)"><path d="M202.1 192.6v-.7l2.2-2.7h-2v-.6h3v.7l-2.2 2.6h2.3v.7zm-1.5-1.6l-.6-1.5-.5 1.5zm1.5 1.6h-.8l-.4-1h-1.7l-.3 1h-.9l1.6-4h.9zm-6.1-3.3v1h1c.1 0 .3 0 .3-.2v-.2-.4l-.4-.3zm-.9 3.3v-4h2.3l.6.4c.1.3.3.5.3.8l-.2.6-.3.5-.4.1-.9.1h-.5v1.5"/></g></g><g clip-path="url(#av)"><g clip-path="url(#aw)"><path d="M203.4 174.9s-.7.6-1.8.1-1.2-32.1-1.2-32.1c2.5-2.8 4.5-3.7 4.5-3.7l1.5 1.3c-5.7 2.9-5.2 7-4.7 14.1.2 2.7.2 6 .8 9.3.9 4.1 2.6 7.6 2.8 10.2 0 1.7-2 .8-2 .8" fill="#73452b"/></g></g><g clip-path="url(#ax)"><g clip-path="url(#ay)"><path d="M203.4 174.9s-.7.6-1.8.1-1.2-32.1-1.2-32.1c2.5-2.8 4.5-3.7 4.5-3.7l1.5 1.3c-5.7 2.9-5.2 7-4.7 14.1.2 2.7.2 6 .8 9.3.9 4.1 2.6 7.6 2.8 10.2 0 1.7-2 .8-2 .8zm0 0" fill="none" stroke-width=".4" stroke="#000"/></g></g><g clip-path="url(#az)"><g clip-path="url(#aA)"><path d="M199.5 138.5h2.3c-2 18.1-.3 28.9-.3 34.1 0 1.8 1 2.4.9 2.4-2.3 2.5-3.4-.1-3.4-.1" fill="#73452b"/></g></g><g clip-path="url(#aB)"><g clip-path="url(#aC)"><path d="M199.5 138.5h2.3c-2 18.1-.3 28.9-.3 34.1 0 1.8 1 2.4.9 2.4-2.3 2.5-3.4-.1-3.4-.1zm0 0" fill="none" stroke-width=".4" stroke="#000"/></g></g><g clip-path="url(#aD)"><g clip-path="url(#aE)"><path d="M196 174.9c-2.1 1-2.4-1-2.3-1.3 4.7-9.3 6.7-30 2.4-32.2l.3-2c1.6.5 3.1 2.6 3.1 2.6.6 23.1 0 32.6-.4 33-2.2 2.4-3.1-.4-3.2-.6" fill="#a26629"/></g></g><g clip-path="url(#aF)"><g clip-path="url(#aG)"><path d="M196 174.9c-2.1 1-2.4-1-2.3-1.3 4.7-9.3 6.7-30 2.4-32.2l.3-2c1.6.5 3.1 2.6 3.1 2.6.6 23.1 0 32.6-.4 33-2.2 2.4-3.1-.4-3.2-.6" fill="none" stroke-width=".4" stroke="#000"/></g></g><g clip-path="url(#aH)"><g clip-path="url(#aI)"><path d="M195.9 174.5c-.4-2 3.2-7.1 3-12.5" fill="none" stroke-width=".4" stroke="#000"/></g></g><g clip-path="url(#aJ)"><g clip-path="url(#aK)"><path d="M202 166.4c1.1 3.1 1.6 5.8 1.4 8.5" fill="none" stroke-width=".4" stroke="#000"/></g></g><g clip-path="url(#aL)"><g clip-path="url(#aM)"><path d="M206.9 130c.7-.9.7-.9 2.1-.9.3-1.8 3.4-1.8 3.6.5 2.5-.5 3 1 2 2.5 2.4-.6 4.5 0 3.9 2.8 4.3 1.1 2.6 4.1.8 4.7-.3 1.9-2 2.5-4.4 1.8-3 2.1-4.8 1.3-6.2-.8-3.3.5-3.6-.2-5-2.1-2.7 1.1-3.2 1.1-5.4-.3-.2 1.8-.8 1.3-2 1.2.2 2.2-.7 3.2-2.7 2.5 1.5 3.1-2.3 4.5-4.2 1.8-1.8.2-1.9-.3-2.8-1-.7 2.6-3.5 2.2-4 .8-3.5-.5-3.1-2.4-.2-2.5.2-2 2-1.6 3.1-1.4.1-1.2.9-1 1.5-.7-.4-.9-.1-1.4 1-1.7-1.6-2-.6-2.8 1-3.6-.9-2 .6-1.8 1.8-2-.2-2.1.4-2.5 2.7-2.7-.3-.8.1-1.4 1.4-1.4-.8-2.1.2-2.6 2.5-2.3.3-3 7-1.6 6.5 2.7 1.8.2 2.5.6 3 2.1" fill="#009a3a"/></g></g><g clip-path="url(#aN)"><g clip-path="url(#aO)"><path d="M206.9 130c.7-.9.7-.9 2.1-.9.3-1.8 3.4-1.8 3.6.5 2.5-.5 3 1 2 2.5 2.4-.6 4.5 0 3.9 2.8 4.3 1.1 2.6 4.1.8 4.7-.3 1.9-2 2.5-4.4 1.8-3 2.1-4.8 1.3-6.2-.8-3.3.5-3.6-.2-5-2.1-2.7 1.1-3.2 1.1-5.4-.3-.2 1.8-.8 1.3-2 1.2.2 2.2-.7 3.2-2.7 2.5 1.5 3.1-2.3 4.5-4.2 1.8-1.8.2-1.9-.3-2.8-1-.7 2.6-3.5 2.2-4 .8-3.5-.5-3.1-2.4-.2-2.5.2-2 2-1.6 3.1-1.4.1-1.2.9-1 1.5-.7-.4-.9-.1-1.4 1-1.7-1.6-2-.6-2.8 1-3.6-.9-2 .6-1.8 1.8-2-.2-2.1.4-2.5 2.7-2.7-.3-.8.1-1.4 1.4-1.4-.8-2.1.2-2.6 2.5-2.3.3-3 7-1.6 6.5 2.7 1.8.2 2.5.6 3 2.1zm0 0" fill="none" stroke-width=".4" stroke="#000"/></g></g><g clip-path="url(#aP)"><g clip-path="url(#aQ)"><path d="M193.5 128.9c.5.2 1.1 0 1.3 1.3 1-1.7 2.2-.7 2.2 1.3" fill="none" stroke-width=".4" stroke="#000"/></g></g><g clip-path="url(#aR)"><g clip-path="url(#aS)"><path d="M203.9 127.9c-.5.7-2.4.7-2.2 2.7-.6-.8-1.8-1.1-2.3-.2" fill="none" stroke-width=".4" stroke="#000"/></g></g><g clip-path="url(#aT)"><g clip-path="url(#aU)"><path d="M206.9 130c0 .5-.2 2-.7 2.8" fill="none" stroke-width=".4" stroke="#000"/></g></g><g clip-path="url(#aV)"><g clip-path="url(#aW)"><path d="M214.6 132.1c.2.2-1.7 0-2.6.7" fill="none" stroke-width=".4" stroke="#000"/></g></g><g clip-path="url(#aX)"><g clip-path="url(#aY)"><path d="M219.3 139.6c-.6-.2-1.6-.8-2.3.2 0-.6 0-2-1.4-2" fill="none" stroke-width=".4" stroke="#000"/></g></g><g clip-path="url(#aZ)"><g clip-path="url(#ba)"><path d="M214.9 141.4c0-1.3-.3-1.7-.5-2" fill="none" stroke-width=".4" stroke="#000"/></g></g><g clip-path="url(#bb)"><g clip-path="url(#bc)"><path d="M210.8 139.6c-1-.7-2 .4-2 1" fill="none" stroke-width=".4" stroke="#000"/></g></g><g clip-path="url(#bd)"><g clip-path="url(#be)"><path d="M203.5 138.5c0-.5-.4-1.5.5-1.9" fill="none" stroke-width=".4" stroke="#000"/></g></g><g clip-path="url(#bf)"><g clip-path="url(#bg)"><path d="M189.3 143.8c.2-1.3 1-1.3 1-2-.2-1-1.3-1.8-2.7-.4" fill="none" stroke-width=".4" stroke="#000"/></g></g><g clip-path="url(#bh)"><g clip-path="url(#bi)"><path d="M190.3 141.9c.7-.3 1.4-.2 1.7.2" fill="none" stroke-width=".4" stroke="#000"/></g></g><g clip-path="url(#bj)"><g clip-path="url(#bk)"><path d="M188.1 137.3c.5-.6 1.8-.4 2.5 0" fill="none" stroke-width=".4" stroke="#000"/></g></g><g clip-path="url(#bl)"><g clip-path="url(#bm)"><path d="M190.6 134.3c.7 0 1.8-.3 2.2.8 1.3-2.1 2.3-1.8 2.6-1.3" fill="none" stroke-width=".4" stroke="#000"/></g></g><g clip-path="url(#bn)"><g clip-path="url(#bo)"><path d="M197.9 133.5c1-.4 2.7.6 3.7 2.4.5-1.4 1.3-1.2 2-1.3" fill="none" stroke-width=".4" stroke="#000"/></g></g><g clip-path="url(#bp)"><g clip-path="url(#bq)"><path d="M208.4 135.9c1.6-.8 2.6.7 3.1 1.3.8-1 1.4-1 2.1-1" fill="none" stroke-width=".4" stroke="#000"/></g></g><g clip-path="url(#br)"><g clip-path="url(#bs)"><path d="M193.3 138.9c.3-.7 1.2-.8 1.8-.4-.1-1.1.7-1.6 1.2-1.4" fill="none" stroke-width=".4" stroke="#000"/></g></g><g clip-path="url(#bt)"><g clip-path="url(#bu)"><path d="M182.8 183.9l-.2 2.6h1.2l.2-.1.3-.4v-.8-.6c0-.2 0-.3-.2-.3l-.3-.3h-.7zm-.8-.7h1.5l.6.2.7.3.2.7.1 1-.1.7-.5.7-.5.3h-.8l-1.3-.1zm-1.6 2l-.3-1.4-.7 1.3zm1.1 1.8l-.9-.1-.1-.9-1.5-.4-.5.9-.9-.3 2.3-3.3.7.1zm-5.3-4.6l-.8 2.3.5.3.5.1h.3l.3-.3a1 1 0 00.3-.7l.2-.6-.1-.4-.3-.3-.6-.3zm-.4-.9l1.2.5c.4.1.5.3.6.4.3.1.4.2.5.5l.2.6c0 .4-.2.6-.3 1 0 .3-.1.5-.4.6-.1.3-.3.5-.6.5-.1.2-.4.2-.5.2-.3 0-.5 0-.8-.2l-1.3-.5zm-2.8 3l1.8-3.5.6.4-1.7 3.3zm-3.3-2l2.2-3.3.6.4-.1 3 1.3-2.1.7.4-2 3.2-.8-.3.2-3-1.4 2zm-.3-5.4l.6.5-1.4 1.5-.3.5-.2.5.3.4c.1.3.3.3.5.3l.3-.2c.2 0 .3-.1.4-.3l1.5-1.7.5.5-1.2 1.5-.8.8-.5.1h-.5l-.6-.4c-.3-.2-.5-.5-.5-.7l-.1-.5.1-.5c0-.2.3-.4.5-.8"/></g></g><g clip-path="url(#bv)"><g clip-path="url(#bw)"><path d="M232.6 178.4l-1.2-.7.5 1.4zm2 .2l-.6.5-.8-.3-1 1 .3.7-.6.6-1.4-3.7.6-.5zm-3.6 3.2l-2.3-3 .7-.6 2.2 3zm-1.9-.4l.8-.3v1c-.2.4-.3.7-.7.9-.4.3-.8.3-1.3.1-.4-.1-.8-.3-1.2-.8-.2-.6-.3-1-.2-1.6 0-.3.3-.7.8-1 .3-.2.7-.3 1-.2.3 0 .6.1.8.4l-.6.5c-.1-.2-.3-.3-.5-.3-.1 0-.3 0-.5.2a.7.7 0 00-.4.6l.3.8c.2.6.5.7.7.8s.5 0 .8-.1l.3-.4v-.6m-2.6 3L225 181l.6-.3 1.8 3.2zm-2.1 1l-1.3-2.9-1 .5-.2-.6 2.8-1.2.2.6-1 .4 1.1 2.8zm-4.6.2l.6-.2c.1.2.3.3.5.3a.4.4 0 00.5 0c.3 0 .4 0 .5-.2l.1-.4-.1-.2h-1c-.4 0-.8 0-.9-.2-.2 0-.5-.3-.6-.6v-.5l.4-.5c0-.2.3-.2.6-.3.5-.2.9-.2 1.1 0l.7.6-.8.2c-.1-.1-.1-.2-.3-.2a.4.4 0 00-.4 0l-.6.2v.3l.2.2h1.6l.5.3c.1 0 .3.2.3.5v.6c0 .3-.2.4-.3.5l-.8.4h-1a1.1 1.1 0 01-.8-.8M216 184l.8-.2.3 2c.2.3.2.6.2.7l.3.2c.2.2.3.2.5 0l.4-.1c.1-.1.3-.3.1-.4v-.6l-.5-2 .8-.1.3 1.8c.2.4.2.8.2 1 0 .2 0 .3-.2.4 0 .2 0 .3-.2.4-.3.1-.5.3-.8.3h-.7c-.3 0-.4 0-.5-.2l-.4-.3-.2-1zm-1.3.2l.8-.1.4 2.3v.7l-.4.6c-.1.2-.4.3-.8.3s-.6 0-.8-.3c-.3-.1-.4-.3-.4-.8l.6-.2.3.5c0 .2.1.2.3.2.2 0 .3-.2.3-.3l.1-.6-.3-2.4"/></g></g></svg>