<svg xmlns="http://www.w3.org/2000/svg" width="400" height="400" viewBox="0 0 300 300"><defs><clipPath id="a"><path d="M150 0a150 150 0 100 300 150 150 0 000-300zm0 0"/></clipPath><clipPath id="b"><path d="M0 150h300v150H0zm0 0"/></clipPath><clipPath id="c"><path d="M150 0a150 150 0 100 300 150 150 0 000-300zm0 0"/></clipPath><clipPath id="d"><path d="M0 0h300v150H0zm0 0"/></clipPath><clipPath id="e"><path d="M150 0a150 150 0 100 300 150 150 0 000-300zm0 0"/></clipPath><clipPath id="f"><path d="M10 64h173v170H10zm0 0"/></clipPath><clipPath id="g"><path d="M150 0a150 150 0 100 300 150 150 0 000-300zm0 0"/></clipPath></defs><g clip-path="url(#a)"><path fill="#ea0437" d="M0 0h300v300H0z"/></g><g clip-path="url(#b)"><g clip-path="url(#c)"><path d="M-50 300h600V150" fill="#4188dd"/></g></g><g clip-path="url(#d)"><g clip-path="url(#e)"><path d="M-50 0h600v150" fill="#12ac2b"/></g></g><g clip-path="url(#f)"><g clip-path="url(#g)"><path d="M88.1 221.5c-6.4 1.8-10.2 6.8-10 11.6l31.9-.2c.3-5-4-9.8-10.3-11.6 31.2-.7 58.4-12.4 63.3-19.9-4.9-2.1-10.5 1.3-14.5.5 9.5-4.4 38.1-23 33.5-42.8a46.4 46.4 0 01-19.3 22.6c10.7-16.2 25.3-33.1 12.7-46.2.6 7.5-4.8 15.9-7.3 16.5 6.2-17.1 12.2-38.7-1.3-52.9 1.8 5.2 1 19.6-1.4 20.3-.7-11.7-2.7-36.2-15-35.9 4 3.5 5.6 13 5.7 22.6-2.8-6.6-6-11.5-12.8-16.4a71.6 71.6 0 00-25-25.6c1 7.7 2 13.8 12.7 21.8-5.6-.4-11.2-11-17.2-11.3-4.8-.2-8.5 4.3-16.3 1.7.9 2.6 4.5 3.7 5.3 5.6-1.7 1.2-5.6-.2-9-1.9 4.6 6.2 11.6 9.8 17.5 8.6 7.1-1.4 14.7-.7 22 3.4-2 1-9.1 1-13.7.4 4.2 4.3 7 7 14.3 7 6.5 0 10-3.5 11.6-1.3 4 4.8 6.8 9.7 10.2 15.3-7.5.9-5.2-8.5-13.6-13.3-4.8 9.8 5.4 21.4 12.3 26.2 0 7.4 1.2 13.5 4.3 19.1 2 4 4.8 8 3.8 16.9-4.2-3-8.2-13.2-6.7-21.3-5.2 1.4-7.2 10.6-4.8 15.1 1.8 3.5 3 10.2 1 13.2-2.1 2.8-2.3 2.5-2.3 8.4 0 3.6-1.9 7.8-5.2 10.8.7-2.5 1.5-6.9.7-9.6-2.5 4.4-9 8.9-11 13.6-2 4.7-2.5 12.8-12.1 14.7-12.5 2.5-16.7 4.6-24.7 7.9-1-6.1 1.7-18.7 6.8-18 5 .9 20-5.2 14.6-17.8-1 4-4.6 7.8-8.4 8 4.1-5.4 11.5-11 7.9-19.9-2 3.8-5.1 8.4-9.9 11 5.1-9.8.6-12.7-5.5-4.7a48.5 48.5 0 00-5.1 17.3c-2.4-6.5-2.2-15-5-21.8-3-7.4 3.9-9.4 7-8.8 8 2.1 21.2 2.1 20.2-11-3.4 4.5-9.4 5.8-15.8 4.2 7.2-5.3 13-15.2 4.9-20.5a18.8 18.8 0 01-10.3 14.6 30.7 30.7 0 01-.2-15 43.5 43.5 0 00-7.3 18.2c-.2-7.8 1.3-13.4 2.4-17.7 1.7-6.1 5.8-2.1 12.2-1.7 6 .4 14.5-3 12.9-11.3-2.1 3.3-6.4 4.6-10.8 4.2 5.3-3.2 14.5-8.8 9.4-17.6-2 3.4-2.8 6.2-8.9 7.2 1.6-3.7 1.9-9 6.6-11-8.4-1.7-13.3 3.9-15.7 12.6-1-6-2.2-8.3-2.5-12.7 4.6-5 5-15-4.8-17.2-.6 5.1-.4 6.3.7 10.5-4.7-2.8-11.2-4.3-15.6-.4 3 3.2 7.5 6 14.6 2.5-1.7 5.5-6 4.6-12 2.5 3.7 6.8 8.3 8 13.3 7.3 2.7 7 2.8 12.3-5 22.5.4-6.4 0-11-5-16.2-4.4-4.2-7.9.2-1.2 9.6-4-3-8.7-9.2-10-15.3-1.4 7.6-.2 16.5 4 21.5-2 2-4.2-.3-7.6-5.4 1.3 16.5 8.3 19.7 17.8 16 .3 9.1.3 17.5.8 28.5a45.7 45.7 0 00-16.4-15.4c-1.2 4.5 3.4 10.3 6 13.5-4-.8-12.5-7.3-12.5-7.3-.8 7.4 8.7 14.2 14.8 17.3-7.2-.3-10.4-3-15-7.6 0 20.5 22.1 17 26.2 13.8.6 10 1.4 21.7 1.9 31.8-6.2-1.1-5.8-3-11-3.5-15-.6-26.7-17.8-30.6-30.4-1 2-.2 4.2-1.2 6.8-2.4-6.2-5.5-14.3-9.6-18 1 3.6 1.1 7.3.8 14-1.4-4.3-2.8-5.6-2.9-10.8.1-4 3.9-6.9 3.7-12.4-.2-4-3.9-12.9-4.4-19.7-1.8 7-3 14.4-5.7 18.7 1.4-7.4 1-12.6 3.2-17.7 2.7-5.3 5-10 3.2-15.4-1.7 2.1-1.1 4-5.4 9-1-5.4 5.5-14.2 11.8-17.7 4.4-2.3 10-10.7 6.4-16.4-4.2 3-6 7-12 14C42.5 99.3 53.4 95.1 66.5 95c2.9 0 8.7-1 10.3-4.9a22 22 0 01-11.9.9c2.8-4.2 8.8-3.6 14.3-3.7 4.3 0 11-.6 13.8-6.7a30.8 30.8 0 01-18.7 1.1c8.2-4.3 21.2-4.7 27.8-10.3-7.6-5.7-26.5 1.3-38.4 9.5 3.3-3 8.6-8.5 11.5-12.9-6.5-3.1-23 15.2-28.7 26-5.4 3.1-7.6 8-9.7 11.2 2.9-9.7 3.2-16.7 5.6-24.8-18.5 6.4-10.8 40.6-14.9 48.8.5-9 .1-20.6-3.6-26.6-5.7 4.3-6.1 30-.8 51.3-2-5.7-5.6-11-6.8-18-8.4 15.4 5 33.6 16.2 48a71.2 71.2 0 01-22.2-21.8c1.5 27.5 30.3 33.3 34.7 40-6-2.8-17.6-8.4-22.6-2.5 8 1.8 14.4 4 19.6 7.4 7.5 9.3 21.6 13.4 46.2 14.4" fill="#ffc625"/></g></g></svg>