<svg xmlns="http://www.w3.org/2000/svg" width="400" height="400" viewBox="0 0 300 300"><defs><clipPath id="a"><path d="M150 0a150 150 0 100 300 150 150 0 000-300zm0 0"/></clipPath><clipPath id="b"><path d="M0 0h300v200H0zm0 0"/></clipPath><clipPath id="c"><path d="M150 0a150 150 0 100 300 150 150 0 000-300zm0 0"/></clipPath><clipPath id="d"><path d="M0 0h300v100H0zm0 0"/></clipPath><clipPath id="e"><path d="M150 0a150 150 0 100 300 150 150 0 000-300zm0 0"/></clipPath><clipPath id="f"><path d="M50 50h200v200H50zm0 0"/></clipPath><clipPath id="g"><path d="M150 0a150 150 0 100 300 150 150 0 000-300zm0 0"/></clipPath><clipPath id="h"><path d="M73 69h154v146H73zm0 0"/></clipPath><clipPath id="i"><path d="M150 0a150 150 0 100 300 150 150 0 000-300zm0 0"/></clipPath><clipPath id="j"><path d="M73 85h154v145H73zm0 0"/></clipPath><clipPath id="k"><path d="M150 0a150 150 0 100 300 150 150 0 000-300zm0 0"/></clipPath><clipPath id="l"><path d="M55 66h190v183H55zm0 0"/></clipPath><clipPath id="m"><path d="M150 0a150 150 0 100 300 150 150 0 000-300zm0 0"/></clipPath></defs><g clip-path="url(#a)"><path fill="#da121a" d="M0 0h300v300H0z"/></g><g clip-path="url(#b)"><g clip-path="url(#c)"><path d="M-150 200h600V0h-600zm0 0" fill="#fbdd08"/></g></g><g clip-path="url(#d)"><g clip-path="url(#e)"><path d="M-150 100h600V0h-600zm0 0" fill="#06882f"/></g></g><g clip-path="url(#f)"><g clip-path="url(#g)"><path d="M150 50a100 100 0 110 200 100 100 0 010-200" fill="#0f46ae"/></g></g><g clip-path="url(#h)"><g clip-path="url(#i)"><path d="M150 69.7l18 55.3h42.5l-9.2 6.6h-61.8l2.2-6.6h19.2l-14.4-44.5zm76 55.3L179 159l13.2 40.5-9.2-6.7-19-58.8h7l5.9 18.4 37.8-27.5h11.4m-29 89.4L150 180.2l-34.4 25 3.5-10.7 50-36.4 2.2 6.7-15.6 11.3 37.8 27.5 3.5 10.8m-94 0l18-55.3-34.5-25H98l50 36.4-5.7 4-15.6-11.2-14.4 44.4-9.2 6.7M74 125h58l13.2-40.5 3.5 10.8-19.1 58.8-5.7-4.1 6-18.4H83l-9.2-6.6" fill="#fbdd08"/></g></g><g clip-path="url(#j)"><g clip-path="url(#k)"><path d="M184.9 161.3l41.2 13.4zm-13.3-41l25.4-35m-68.6 35l-25.4-35m12.1 76L74 174.7m76.1 12V230"/></g></g><g clip-path="url(#l)"><g clip-path="url(#m)"><path d="M184.9 161.3l41.2 13.4zm-13.3-41l25.4-35m-68.6 35l-25.4-35m12.1 76L74 174.7m76.1 12V230" fill="none" stroke-width="3.3" stroke="#fbdd08"/></g></g></svg>