<svg xmlns="http://www.w3.org/2000/svg" width="400" height="400" viewBox="0 0 300 300"><defs><clipPath id="a"><path d="M150 0a150 150 0 100 300 150 150 0 000-300zm0 0"/></clipPath><clipPath id="b"><path d="M0 109h300v82H0zm0 0"/></clipPath><clipPath id="c"><path d="M150 0a150 150 0 100 300 150 150 0 000-300zm0 0"/></clipPath><clipPath id="d"><path d="M40 0h83v300H40zm0 0"/></clipPath><clipPath id="e"><path d="M150 0a150 150 0 100 300 150 150 0 000-300zm0 0"/></clipPath></defs><g clip-path="url(#a)"><path fill="#fff" d="M0 0h300v300H0z"/></g><g clip-path="url(#b)"><g clip-path="url(#c)"><path d="M-95.5 191h491v-82h-491zm0 0" fill="#003580"/></g></g><g clip-path="url(#d)"><g clip-path="url(#e)"><path d="M41 300h81.7V0H41zm0 0" fill="#003580"/></g></g></svg>