<svg xmlns="http://www.w3.org/2000/svg" width="256pt" height="256pt" viewBox="0 0 256 256"><defs><clipPath id="a"><path d="M128 0a128 128 0 100 256 128 128 0 000-256zm0 0"/></clipPath><clipPath id="b"><path d="M0 102h256v52H0zm0 0"/></clipPath><clipPath id="c"><path d="M128 0a128 128 0 100 256 128 128 0 000-256zm0 0"/></clipPath><clipPath id="d"><path d="M102 0h52v256h-52zm0 0"/></clipPath><clipPath id="e"><path d="M128 0a128 128 0 100 256 128 128 0 000-256zm0 0"/></clipPath><clipPath id="f"><path d="M25 25h52v52H25zm0 0"/></clipPath><clipPath id="g"><path d="M128 0a128 128 0 100 256 128 128 0 000-256zm0 0"/></clipPath><clipPath id="h"><path d="M25 179h52v52H25zm0 0"/></clipPath><clipPath id="i"><path d="M128 0a128 128 0 100 256 128 128 0 000-256zm0 0"/></clipPath><clipPath id="j"><path d="M179 25h52v52h-52zm0 0"/></clipPath><clipPath id="k"><path d="M128 0a128 128 0 100 256 128 128 0 000-256zm0 0"/></clipPath><clipPath id="l"><path d="M179 179h52v52h-52zm0 0"/></clipPath><clipPath id="m"><path d="M128 0a128 128 0 100 256 128 128 0 000-256zm0 0"/></clipPath></defs><g clip-path="url(#a)"><path fill="#fff" d="M0 0h256v256H0z"/></g><g clip-path="url(#b)"><g clip-path="url(#c)"><path d="M-64 153.6h384v-51.2H-64zm0 0" fill="red"/></g></g><g clip-path="url(#d)"><g clip-path="url(#e)"><path d="M102.4 256h51.2V0h-51.2zm0 0" fill="red"/></g></g><g clip-path="url(#f)"><g clip-path="url(#g)"><path d="M76.8 42.4s-9.3 1.3-19 1.8c.7-9 2.2-18.6 2.2-18.6H42.4s1.3 9 1.8 18.6c-9.8-.5-18.6-1.8-18.6-1.8V60s9.2-1.7 18.6-2.3c-.4 10-1.8 19.1-1.8 19.1H60s-1.7-9.4-2.3-19c9.2.6 19.1 2.2 19.1 2.2" fill="red"/></g></g><g clip-path="url(#h)"><g clip-path="url(#i)"><path d="M76.8 196s-9.3 1.3-19 1.8c.7-9 2.2-18.6 2.2-18.6H42.4s1.3 9 1.8 18.6c-9.8-.5-18.6-1.8-18.6-1.8v17.6s9.2-1.7 18.6-2.3c-.4 10-1.8 19.1-1.8 19.1H60s-1.7-9.4-2.3-19c9.2.6 19.1 2.2 19.1 2.2" fill="red"/></g></g><g clip-path="url(#j)"><g clip-path="url(#k)"><path d="M230.4 42.4s-9.3 1.3-19 1.8c.7-9 2.2-18.6 2.2-18.6H196s1.3 9 1.8 18.6c-9.8-.5-18.6-1.8-18.6-1.8V60s9.2-1.7 18.6-2.3c-.4 10-1.8 19.1-1.8 19.1h17.6s-1.7-9.4-2.3-19c9.2.6 19.1 2.2 19.1 2.2" fill="red"/></g></g><g clip-path="url(#l)"><g clip-path="url(#m)"><path d="M230.4 196s-9.3 1.3-19 1.8c.7-9 2.2-18.6 2.2-18.6H196s1.3 9 1.8 18.6c-9.8-.5-18.6-1.8-18.6-1.8v17.6s9.2-1.7 18.6-2.3c-.4 10-1.8 19.1-1.8 19.1h17.6s-1.7-9.4-2.3-19c9.2.6 19.1 2.2 19.1 2.2" fill="red"/></g></g></svg>