<svg xmlns="http://www.w3.org/2000/svg" width="400" height="400" viewBox="0 0 300 300"><defs><clipPath id="a"><path d="M150 0a150 150 0 100 300 150 150 0 000-300zm0 0"/></clipPath><clipPath id="b"><path d="M0 0h300v265H0zm0 0"/></clipPath><clipPath id="c"><path d="M150 0a150 150 0 100 300 150 150 0 000-300zm0 0"/></clipPath></defs><g clip-path="url(#a)"><path fill="#0d5eae" d="M0 0h300v300H0z"/></g><g clip-path="url(#b)"><g clip-path="url(#c)"><path d="M0 250h450M0 183.3h450m-283.3-66.6H450M166.7 50H450M0 83.3h166.7M83.3 0v183.3" fill="none" stroke-width="30" stroke="#fff"/></g></g></svg>