<svg xmlns="http://www.w3.org/2000/svg" width="400" height="400" viewBox="0 0 300 300"><defs><clipPath id="a"><path d="M150 0a150 150 0 100 300 150 150 0 000-300zm0 0"/></clipPath><clipPath id="b"><path d="M0 42h300v216H0zm0 0"/></clipPath><clipPath id="c"><path d="M150 0a150 150 0 100 300 150 150 0 000-300zm0 0"/></clipPath><clipPath id="d"><path d="M114 114h72v72h-72zm0 0"/></clipPath><clipPath id="e"><path d="M150 0a150 150 0 100 300 150 150 0 000-300zm0 0"/></clipPath><clipPath id="f"><path d="M118 117h64v60h-64zm0 0"/></clipPath><clipPath id="g"><path d="M150 0a150 150 0 100 300 150 150 0 000-300zm0 0"/></clipPath><clipPath id="h"><path d="M31 1h38v36H31zm0 0"/></clipPath><clipPath id="i"><path d="M150 0a150 150 0 100 300 150 150 0 000-300zm0 0"/></clipPath><clipPath id="j"><path d="M131 1h38v36h-38zm0 0"/></clipPath><clipPath id="k"><path d="M150 0a150 150 0 100 300 150 150 0 000-300zm0 0"/></clipPath><clipPath id="l"><path d="M231 1h38v36h-38zm0 0"/></clipPath><clipPath id="m"><path d="M150 0a150 150 0 100 300 150 150 0 000-300zm0 0"/></clipPath><clipPath id="n"><path d="M230 261h38v36h-38zm0 0"/></clipPath><clipPath id="o"><path d="M150 0a150 150 0 100 300 150 150 0 000-300zm0 0"/></clipPath><clipPath id="p"><path d="M130 261h38v36h-38zm0 0"/></clipPath><clipPath id="q"><path d="M150 0a150 150 0 100 300 150 150 0 000-300zm0 0"/></clipPath><clipPath id="r"><path d="M30 261h38v36H30zm0 0"/></clipPath><clipPath id="s"><path d="M150 0a150 150 0 100 300 150 150 0 000-300zm0 0"/></clipPath></defs><g clip-path="url(#a)"><path fill="#ce1125" d="M0 0h300v300H0z"/></g><g clip-path="url(#b)"><g clip-path="url(#c)"><path d="M-58 258h416V42H-58zm0 0" fill="#00795e"/><path d="M-58 42h416L-58 258h416zm0 0" fill="#fbd115"/></g></g><g clip-path="url(#d)"><g clip-path="url(#e)"><path d="M150 114a36 36 0 110 72 36 36 0 010-72" fill="#ce1125"/></g></g><g clip-path="url(#f)"><g clip-path="url(#g)"><path d="M118.6 139.8l19.4 14-7.4 22.9 19.4-14 19.4 14-7.4-22.8 19.4-14.1h-24L150 117l-7.4 22.8" fill="#fbd115"/></g></g><g clip-path="url(#h)"><g clip-path="url(#i)"><path d="M31.5 15l11.4 8.3-4.4 13.5L50 28.5l11.5 8.3L57 23.3 68.5 15H54.3L50 1.5 45.7 15" fill="#fbd115"/></g></g><g clip-path="url(#j)"><g clip-path="url(#k)"><path d="M131.5 15l11.4 8.3-4.4 13.5 11.5-8.3 11.5 8.3-4.4-13.5 11.4-8.3h-14.2L150 1.5 145.7 15" fill="#fbd115"/></g></g><g clip-path="url(#l)"><g clip-path="url(#m)"><path d="M231.5 15l11.4 8.3-4.4 13.5 11.5-8.3 11.5 8.3-4.4-13.5 11.4-8.3h-14.2L250 1.5 245.7 15" fill="#fbd115"/></g></g><g clip-path="url(#n)"><g clip-path="url(#o)"><path d="M230.6 275l11.5 8.3-4.4 13.5 11.5-8.4 11.4 8.4-4.3-13.5 11.4-8.3h-14.2l-4.3-13.5-4.3 13.5" fill="#fbd115"/></g></g><g clip-path="url(#p)"><g clip-path="url(#q)"><path d="M130.6 275l11.5 8.3-4.4 13.5 11.5-8.4 11.4 8.4-4.3-13.5 11.4-8.3h-14.2l-4.3-13.5-4.3 13.5" fill="#fbd115"/></g></g><g clip-path="url(#r)"><g clip-path="url(#s)"><path d="M30.6 275l11.5 8.3-4.4 13.5 11.5-8.4 11.4 8.4-4.3-13.5 11.4-8.3H53.5l-4.3-13.5-4.3 13.5" fill="#fbd115"/></g></g></svg>