<svg xmlns="http://www.w3.org/2000/svg" width="400" height="400" viewBox="0 0 300 300"><defs><clipPath id="a"><path d="M0 31h300v269H0zm0 0"/></clipPath><clipPath id="b"><path d="M150 0a150 150 0 100 300 150 150 0 000-300zm0 0"/></clipPath><clipPath id="c"><path d="M0 0h300v111H0zm0 0"/></clipPath><clipPath id="d"><path d="M150 0a150 150 0 100 300 150 150 0 000-300zm0 0"/></clipPath><clipPath id="e"><path d="M188 211h62v33h-62zm0 0"/></clipPath><clipPath id="f"><path d="M150 0a150 150 0 100 300 150 150 0 000-300zm0 0"/></clipPath><clipPath id="g"><path d="M188 210h62v34h-62zm0 0"/></clipPath><clipPath id="h"><path d="M150 0a150 150 0 100 300 150 150 0 000-300zm0 0"/></clipPath><clipPath id="i"><path d="M188 209h65v32h-65zm0 0"/></clipPath><clipPath id="j"><path d="M150 0a150 150 0 100 300 150 150 0 000-300zm0 0"/></clipPath><clipPath id="k"><path d="M188 207h67v30h-67zm0 0"/></clipPath><clipPath id="l"><path d="M150 0a150 150 0 100 300 150 150 0 000-300zm0 0"/></clipPath><clipPath id="m"><path d="M188 204h69v29h-69zm0 0"/></clipPath><clipPath id="n"><path d="M150 0a150 150 0 100 300 150 150 0 000-300zm0 0"/></clipPath><clipPath id="o"><path d="M188 204h70v25h-70zm0 0"/></clipPath><clipPath id="p"><path d="M150 0a150 150 0 100 300 150 150 0 000-300zm0 0"/></clipPath><clipPath id="q"><path d="M188 202h73v23h-73zm0 0"/></clipPath><clipPath id="r"><path d="M150 0a150 150 0 100 300 150 150 0 000-300zm0 0"/></clipPath><clipPath id="s"><path d="M188 199h75v22h-75zm0 0"/></clipPath><clipPath id="t"><path d="M150 0a150 150 0 100 300 150 150 0 000-300zm0 0"/></clipPath><clipPath id="u"><path d="M80 182h23v18H80zm0 0"/></clipPath><clipPath id="v"><path d="M150 0a150 150 0 100 300 150 150 0 000-300zm0 0"/></clipPath><clipPath id="w"><path d="M80 184h19v17H80zm0 0"/></clipPath><clipPath id="x"><path d="M150 0a150 150 0 100 300 150 150 0 000-300zm0 0"/></clipPath><clipPath id="y"><path d="M60 168h46v27H60zm0 0"/></clipPath><clipPath id="z"><path d="M150 0a150 150 0 100 300 150 150 0 000-300zm0 0"/></clipPath><clipPath id="A"><path d="M56 164h47v14H56zm0 0"/></clipPath><clipPath id="B"><path d="M150 0a150 150 0 100 300 150 150 0 000-300zm0 0"/></clipPath><clipPath id="C"><path d="M69 169h45v21H69zm0 0"/></clipPath><clipPath id="D"><path d="M150 0a150 150 0 100 300 150 150 0 000-300zm0 0"/></clipPath><clipPath id="E"><path d="M38 155h45v9H38zm0 0"/></clipPath><clipPath id="F"><path d="M150 0a150 150 0 100 300 150 150 0 000-300zm0 0"/></clipPath><clipPath id="G"><path d="M31 147h32v12H31zm0 0"/></clipPath><clipPath id="H"><path d="M150 0a150 150 0 100 300 150 150 0 000-300zm0 0"/></clipPath><clipPath id="I"><path d="M32 139h31v11H32zm0 0"/></clipPath><clipPath id="J"><path d="M150 0a150 150 0 100 300 150 150 0 000-300zm0 0"/></clipPath><clipPath id="K"><path d="M26 145h83v30H26zm0 0"/></clipPath><clipPath id="L"><path d="M150 0a150 150 0 100 300 150 150 0 000-300zm0 0"/></clipPath><clipPath id="M"><path d="M55 168h59v11H55zm0 0"/></clipPath><clipPath id="N"><path d="M150 0a150 150 0 100 300 150 150 0 000-300zm0 0"/></clipPath><clipPath id="O"><path d="M31 133h39v19H31zm0 0"/></clipPath><clipPath id="P"><path d="M150 0a150 150 0 100 300 150 150 0 000-300zm0 0"/></clipPath><clipPath id="Q"><path d="M63 172h34v8H63zm0 0"/></clipPath><clipPath id="R"><path d="M150 0a150 150 0 100 300 150 150 0 000-300zm0 0"/></clipPath><clipPath id="S"><path d="M33 126h59v41H33zm0 0"/></clipPath><clipPath id="T"><path d="M150 0a150 150 0 100 300 150 150 0 000-300zm0 0"/></clipPath><clipPath id="U"><path d="M38 154h62v14H38zm0 0"/></clipPath><clipPath id="V"><path d="M150 0a150 150 0 100 300 150 150 0 000-300zm0 0"/></clipPath><clipPath id="W"><path d="M44 163h63v9H44zm0 0"/></clipPath><clipPath id="X"><path d="M150 0a150 150 0 100 300 150 150 0 000-300zm0 0"/></clipPath><clipPath id="Y"><path d="M43 161h60v12H43zm0 0"/></clipPath><clipPath id="Z"><path d="M150 0a150 150 0 100 300 150 150 0 000-300zm0 0"/></clipPath><clipPath id="aa"><path d="M40 157h66v18H40zm0 0"/></clipPath><clipPath id="ab"><path d="M150 0a150 150 0 100 300 150 150 0 000-300zm0 0"/></clipPath><clipPath id="ac"><path d="M40 122h47v42H40zm0 0"/></clipPath><clipPath id="ad"><path d="M150 0a150 150 0 100 300 150 150 0 000-300zm0 0"/></clipPath><clipPath id="ae"><path d="M50 126h31v34H50zm0 0"/></clipPath><clipPath id="af"><path d="M150 0a150 150 0 100 300 150 150 0 000-300zm0 0"/></clipPath><clipPath id="ag"><path d="M89 135h21v30H89zm0 0"/></clipPath><clipPath id="ah"><path d="M150 0a150 150 0 100 300 150 150 0 000-300zm0 0"/></clipPath><clipPath id="ai"><path d="M74 153h34v8H74zm0 0"/></clipPath><clipPath id="aj"><path d="M150 0a150 150 0 100 300 150 150 0 000-300zm0 0"/></clipPath><clipPath id="ak"><path d="M78 180h34v7H78zm0 0"/></clipPath><clipPath id="al"><path d="M150 0a150 150 0 100 300 150 150 0 000-300zm0 0"/></clipPath><clipPath id="am"><path d="M72 171h34v16H72zm0 0"/></clipPath><clipPath id="an"><path d="M150 0a150 150 0 100 300 150 150 0 000-300zm0 0"/></clipPath><clipPath id="ao"><path d="M58 127h49v46H58zm0 0"/></clipPath><clipPath id="ap"><path d="M150 0a150 150 0 100 300 150 150 0 000-300zm0 0"/></clipPath><clipPath id="aq"><path d="M70 141h39v31H70zm0 0"/></clipPath><clipPath id="ar"><path d="M150 0a150 150 0 100 300 150 150 0 000-300zm0 0"/></clipPath><clipPath id="as"><path d="M74 136h27v29H74zm0 0"/></clipPath><clipPath id="at"><path d="M150 0a150 150 0 100 300 150 150 0 000-300zm0 0"/></clipPath><clipPath id="au"><path d="M82 138h22v26H82zm0 0"/></clipPath><clipPath id="av"><path d="M150 0a150 150 0 100 300 150 150 0 000-300zm0 0"/></clipPath><clipPath id="aw"><path d="M80 120h140v140H80zm0 0"/></clipPath><clipPath id="ax"><path d="M150 0a150 150 0 100 300 150 150 0 000-300zm0 0"/></clipPath><clipPath id="ay"><path d="M49 81h22v5H49zm0 0"/></clipPath><clipPath id="az"><path d="M150 0a150 150 0 100 300 150 150 0 000-300zm0 0"/></clipPath><clipPath id="aA"><path d="M52 35h17v46H52zm0 0"/></clipPath><clipPath id="aB"><path d="M150 0a150 150 0 100 300 150 150 0 000-300zm0 0"/></clipPath><clipPath id="aC"><path d="M64 86h9v10h-9zm0 0"/></clipPath><clipPath id="aD"><path d="M150 0a150 150 0 100 300 150 150 0 000-300zm0 0"/></clipPath><clipPath id="aE"><path d="M47 86h10v10H47zm0 0"/></clipPath><clipPath id="aF"><path d="M150 0a150 150 0 100 300 150 150 0 000-300zm0 0"/></clipPath><clipPath id="aG"><path d="M64 59h24v22H64zm0 0"/></clipPath><clipPath id="aH"><path d="M150 0a150 150 0 100 300 150 150 0 000-300zm0 0"/></clipPath><clipPath id="aI"><path d="M33 59h24v22H33zm0 0"/></clipPath><clipPath id="aJ"><path d="M150 0a150 150 0 100 300 150 150 0 000-300zm0 0"/></clipPath><clipPath id="aK"><path d="M56 86h9v20h-9zm0 0"/></clipPath><clipPath id="aL"><path d="M150 0a150 150 0 100 300 150 150 0 000-300zm0 0"/></clipPath><clipPath id="aM"><path d="M139 81h22v5h-22zm0 0"/></clipPath><clipPath id="aN"><path d="M150 0a150 150 0 100 300 150 150 0 000-300zm0 0"/></clipPath><clipPath id="aO"><path d="M141 35h18v46h-18zm0 0"/></clipPath><clipPath id="aP"><path d="M150 0a150 150 0 100 300 150 150 0 000-300zm0 0"/></clipPath><clipPath id="aQ"><path d="M154 86h9v10h-9zm0 0"/></clipPath><clipPath id="aR"><path d="M150 0a150 150 0 100 300 150 150 0 000-300zm0 0"/></clipPath><clipPath id="aS"><path d="M137 86h9v10h-9zm0 0"/></clipPath><clipPath id="aT"><path d="M150 0a150 150 0 100 300 150 150 0 000-300zm0 0"/></clipPath><clipPath id="aU"><path d="M154 59h23v22h-23zm0 0"/></clipPath><clipPath id="aV"><path d="M150 0a150 150 0 100 300 150 150 0 000-300zm0 0"/></clipPath><clipPath id="aW"><path d="M123 59h23v22h-23zm0 0"/></clipPath><clipPath id="aX"><path d="M150 0a150 150 0 100 300 150 150 0 000-300zm0 0"/></clipPath><clipPath id="aY"><path d="M146 86h8v20h-8zm0 0"/></clipPath><clipPath id="aZ"><path d="M150 0a150 150 0 100 300 150 150 0 000-300zm0 0"/></clipPath><clipPath id="ba"><path d="M228 81h23v5h-23zm0 0"/></clipPath><clipPath id="bb"><path d="M150 0a150 150 0 100 300 150 150 0 000-300zm0 0"/></clipPath><clipPath id="bc"><path d="M231 35h17v46h-17zm0 0"/></clipPath><clipPath id="bd"><path d="M150 0a150 150 0 100 300 150 150 0 000-300zm0 0"/></clipPath><clipPath id="be"><path d="M243 86h10v10h-10zm0 0"/></clipPath><clipPath id="bf"><path d="M150 0a150 150 0 100 300 150 150 0 000-300zm0 0"/></clipPath><clipPath id="bg"><path d="M227 86h9v10h-9zm0 0"/></clipPath><clipPath id="bh"><path d="M150 0a150 150 0 100 300 150 150 0 000-300zm0 0"/></clipPath><clipPath id="bi"><path d="M243 59h24v22h-24zm0 0"/></clipPath><clipPath id="bj"><path d="M150 0a150 150 0 100 300 150 150 0 000-300zm0 0"/></clipPath><clipPath id="bk"><path d="M212 59h24v22h-24zm0 0"/></clipPath><clipPath id="bl"><path d="M150 0a150 150 0 100 300 150 150 0 000-300zm0 0"/></clipPath><clipPath id="bm"><path d="M235 86h9v20h-9zm0 0"/></clipPath><clipPath id="bn"><path d="M150 0a150 150 0 100 300 150 150 0 000-300zm0 0"/></clipPath></defs><g clip-path="url(#a)"><g clip-path="url(#b)"><path d="M0 300h300V31.2H0zm0 0" fill="#c7102d"/></g></g><g clip-path="url(#c)"><g clip-path="url(#d)"><path d="M0 110.4h300V0H0zm0 0" fill="#002f86"/></g></g><g clip-path="url(#e)"><g clip-path="url(#f)"><path d="M249.3 241.5l-61-30.5v1.5l58.8 31.2zm0 0" fill="#43af2a"/></g></g><g clip-path="url(#g)"><g clip-path="url(#h)"><path d="M188.4 212.5l58.7 31.2 2.2-2.2-61-30.5zm58.7 31.3l-58.8-31.3V211l61 30.5"/></g></g><g clip-path="url(#i)"><g clip-path="url(#j)"><path d="M252.3 237.8l-64-28.6v1.1l62.8 30zm0 0" fill="#43af2a"/><path d="M188.4 210.3l62.7 30 1.2-2.5-64-28.6zm62.7 30l-62.8-30v-1.1l64 28.6"/></g></g><g clip-path="url(#k)"><g clip-path="url(#l)"><path d="M254.1 234.1l-65.8-26.8v2l64.2 27.1zm0 0" fill="#43af2a"/><path d="M188.4 209.2l64 27.2 1.7-2.3-65.7-26.8zm64 27.3l-64-27.3v-2l65.8 26.9"/></g></g><g clip-path="url(#m)"><g clip-path="url(#n)"><path d="M256 230.1l-67.7-25.3v1.4l66.5 26.4zm0 0" fill="#43af2a"/><path d="M188.4 206.2l66.4 26.4 1.2-2.5-67.6-25.3zm66.4 26.4l-66.5-26.4v-1.4l67.8 25.3"/></g></g><g clip-path="url(#o)"><g clip-path="url(#p)"><path d="M257.6 225.9l-69.3-21v1.3l68 22.1zm0 0" fill="#43af2a"/><path d="M188.4 206.2l68 22.1 1.1-2.4-69.1-21zm68 22.2l-68-22.2v-1.4l69.2 21"/></g></g><g clip-path="url(#q)"><g clip-path="url(#r)"><path d="M260.3 221.9l-72-19v2l70.2 19.4zm0 0" fill="#43af2a"/><path d="M188.4 204.8l70.1 19.5 1.8-2.4-72-19zm70.1 19.6l-70.2-19.6v-2l72 19"/></g></g><g clip-path="url(#s)"><g clip-path="url(#t)"><path d="M262.8 218.2l-74.5-18.5v2.3l73 19zm0 0" fill="#43af2a"/><path d="M188.4 202l73 19 1.3-2.8-74.3-18.4zm73 19l-73-19v-2.3l74.4 18.5"/></g></g><g clip-path="url(#u)"><g clip-path="url(#v)"><path d="M86 187.1c-2 3.4-3 4.7-3.2 8.4 0 3.8-.2 4.2-.2 4.2s-2.7-3.6-1.4-8.4c1.4-4.8 6-8.6 13.9-9.1 7.8-.5 7.8.4 7.8.4v2s-11.6-.1-13.7.9l-3.2 1.6" fill="#43af2a"/><path d="M99 182l-4 .2a18 18 0 00-9.3 3 11.2 11.2 0 00-4.5 6 10.1 10.1 0 001.4 8.5l.2-4.2c0-3.4 1-4.8 2.8-7.6l.4-.8 3.2-1.6c2-1 13.1-1 13.7-1v-1.9s0-.5-3.9-.5m-16.4 17.7s-.7-1-1.2-2.5c-.5-1.4-1-3.5-.2-6 .7-2.5 2.3-4.7 4.5-6.2a18 18 0 019.4-3c6.3-.3 7.6.2 7.8.4v2.1s-11.6-.1-13.7 1c-2 .9-3 1.5-3.1 1.6l-.5.7c-1.8 2.9-2.7 4.2-2.7 7.6-.1 3.7-.3 4.2-.3 4.2"/></g></g><g clip-path="url(#w)"><g clip-path="url(#x)"><path d="M98.8 184.1s-2.3 6.7-6 10.3c-3.7 3.5-12 6.4-12 6.4s9.4-3.7 11-8.6c1.7-4.8 4.3-8 4.3-8" fill="#43af2a"/><path d="M96.2 184.1c-.2.2-2.8 3.4-4.4 8.1-.8 2.6-3.7 4.8-6 6.2a38.6 38.6 0 01-4 2c2.2-.8 8-3.2 11-6 3.5-3.5 5.8-9.8 6-10.3zm-15.3 16.7s2.3-1 4.8-2.5c2.3-1.4 5.2-3.6 6-6 1.7-5 4.4-8.2 4.4-8.2h2.7c0 .1-2.3 6.7-6 10.3a41.8 41.8 0 01-11.9 6.4"/></g></g><g clip-path="url(#y)"><g clip-path="url(#z)"><path d="M105.4 168.4s-24.2 5.3-31.2 7.7c-7 2.4-11.3 5-13.3 10.1-2 5 1 8.2 1 8.2s-1.4-3 .7-7.3c2.2-4.2 5.2-6.4 11-8.4s31.8-6 31.8-6" fill="#43af2a"/><path d="M105.4 168.5c-1 .2-24.4 5.3-31.2 7.6a32 32 0 00-8.5 4 13 13 0 00-4.8 6.1c-1 2.6-.7 4.7-.2 6 .4 1 1 1.8 1.1 2l-.4-1.9c0-1.1 0-3 1.2-5.2 1.1-2.1 2.4-3.7 4.1-5 1.7-1.3 3.9-2.4 6.9-3.4 5.7-2 31-6 31.8-6.1zm-43.4 26l-.1-.1s-.8-.8-1.2-2.2c-.5-1.3-.8-3.4.2-6a13 13 0 014.7-6 32 32 0 018.6-4.1c6.9-2.4 31-7.6 31.2-7.7v4.2c-.2 0-26 4.1-31.8 6.1-3 1-5.2 2.1-6.9 3.4-1.6 1.3-3 3-4 5a10 10 0 00-1.2 5.2c0 1.3.4 2 .4 2"/></g></g><g clip-path="url(#A)"><g clip-path="url(#B)"><path d="M102.6 167s-42.4 1.4-43.4 4.2c-.9 2.7-3 5.8-3 5.8s.7-6.2 3.6-7.7c12.4-6.2 42.8-4.7 42.8-4.7" fill="#43af2a"/><path d="M95 164.4a202 202 0 00-23.2 1.6c-5.1.8-9.1 1.9-12 3.3-2.7 1.4-3.5 6.8-3.6 7.6.3-.5 2.2-3.2 3-5.7.4-1.2 7.8-2.2 22-3.1 10.5-.7 20.9-1 21.4-1v-2.5c-.3 0-3.3-.2-7.7-.2m-38.8 12.7s.2-1.7.8-3.4c.5-1.6 1.4-3.7 3-4.4 2.8-1.4 6.8-2.6 11.8-3.4 4.1-.6 8.9-1 14.2-1.3 9-.4 16.7 0 16.7 0v2.5c-.4 0-42.4 1.4-43.4 4.1-.9 2.7-3 5.8-3 5.9"/></g></g><g clip-path="url(#C)"><g clip-path="url(#D)"><path d="M113.5 172s-41.7 8-42.2 10.9c-.5 2.8-2.1 6.2-2.1 6.2s-.3-6.3 2.4-8.2c11.3-8 41.5-11.4 41.5-11.4" fill="#43af2a"/><path d="M113.1 169.5c-.5 0-7.9 1-16.5 2.7-5.2 1-9.8 2.3-13.8 3.5a42.7 42.7 0 00-11.2 5.2c-2.5 1.8-2.4 7.3-2.4 8.1.2-.5 1.6-3.5 2-6.1.3-1.2 7.4-3.4 21.4-6.6 10.1-2.3 20.3-4.3 20.9-4.4zm-44 19.7a19.6 19.6 0 01.3-3.5c.2-1.6.8-3.8 2.2-4.8 2.6-1.8 6.3-3.6 11.2-5.2a204.3 204.3 0 0130.3-6.3l.4 2.6c-.4 0-41.7 8-42.2 10.9-.5 2.8-2 6.2-2.1 6.3"/></g></g><g clip-path="url(#E)"><g clip-path="url(#F)"><path d="M38.1 163.4s8.5-4.9 21-6c12.7-1.3 23.3 3.5 23.3 3.5s-18.2-7.5-29.8-4.4c-11.6 3.1-14.5 6.9-14.5 6.9" fill="#43af2a"/><path d="M59 155.8c-2.3 0-4.5.2-6.4.7-3.3 1-8 2.4-11.6 4.6a13 13 0 00-2.8 2.2c.5-.3 2.6-1.4 5.7-2.5a61.2 61.2 0 0115.3-3.5 50 50 0 0118.2 1.9 82 82 0 00-5.6-1.6c-3.4-.9-6.7-1.5-9.6-1.7a38.8 38.8 0 00-3.1-.1m-21 7.7v-.1s.8-1 3-2.3c3.5-2.2 8.2-3.7 11.5-4.6 2.7-.7 5.9-1 9.6-.6 3 .2 6.2.8 9.7 1.6a86.9 86.9 0 017.3 2.2l3.2 1.2-3.2-1.1a51.8 51.8 0 00-3.7-1.1c-3.9-1-9.8-2-16.3-1.4a61.3 61.3 0 00-15.3 3.5c-3.6 1.4-5.8 2.6-5.8 2.6"/></g></g><g clip-path="url(#G)"><g clip-path="url(#H)"><path d="M31.8 158.7s-1.7-4.4 6.3-8.4 22.8-2.9 22.8-2.9l2 2.2s-14.3-1.1-22.3 2c-8.1 3.3-8.8 7-8.8 7" fill="#43af2a"/><path d="M56.4 147.3l-3.9.1c-4.3.2-10.3 1-14.4 3-2.3 1-5.2 3-6.1 5.6a4.3 4.3 0 00-.2 2.6 6 6 0 011.3-2.2c1.1-1.3 3.3-3.1 7.5-4.8 2.3-.9 6.6-2 14.2-2.2a87.7 87.7 0 018 .2l-2-2.1s-1.9-.2-4.4-.2m-24.6 11.5v-.1c-.2-.4-.3-1.4.1-2.7 1-2.7 3.9-4.6 6.2-5.7 4.1-2 10.1-2.7 14.4-3 4.7-.1 8.4.1 8.4.1l2 2.2s-3.6-.3-8.1-.1c-7.6.2-12 1.3-14.2 2.2-2.3.9-5.5 2.5-7.4 4.7a5.5 5.5 0 00-1.4 2.3"/></g></g><g clip-path="url(#I)"><g clip-path="url(#J)"><path d="M62.6 147.4s-16-6.5-22-7.2c-6-.7-7.9 0-7.9 0s9.1 1.8 15.6 4.2a592 592 0 0014.6 5.2" fill="#43af2a"/><path d="M32.8 140.2c1 .2 9.5 2 15.5 4.2 6.1 2.3 14 5 14.6 5.2l-.3-2.1-8.8-3.4a80.4 80.4 0 00-13.2-3.9 32.7 32.7 0 00-7.8 0m30.1 9.4c-.1 0-8.3-2.8-14.6-5.2-6.4-2.3-15.5-4.1-15.6-4.2 0 0 2-.7 7.9 0 3 .4 8.9 2.3 13.2 3.9a261.5 261.5 0 018.8 3.3"/></g></g><g clip-path="url(#K)"><g clip-path="url(#L)"><path d="M26 145.6s12.5-.4 24.3 3c11.7 3.5 58.6 24.3 58.6 24.3l-1 1.9S75.5 159 58.3 153.3c-17.2-5.7-32.3-7.7-32.3-7.7" fill="#43af2a"/><path d="M26.3 145.6c2.2.3 16.3 2.5 32 7.7 16.9 5.6 48.6 21 49.6 21.4l1-1.8c-1.3-.5-47.1-20.8-58.7-24.2a80.4 80.4 0 00-23.9-3m81.6 29.1c-.3-.2-32.6-15.8-49.6-21.5-17-5.6-32.1-7.7-32.3-7.7 0 0 3.2-.1 7.7.2 4.2.3 10.5 1 16.6 2.9 11.6 3.4 58.2 24 58.6 24.2"/></g></g><g clip-path="url(#M)"><g clip-path="url(#N)"><path d="M55 178.6s11-5.9 23.1-8c12.1-2.1 34.4-1.7 34.4-1.7l.6 2.6s-7.8-2.9-25.7-.3a203 203 0 00-32.4 7.4" fill="#43af2a"/><path d="M108 168.9h-8.2c-6.4.2-15.4.6-21.7 1.7a82.7 82.7 0 00-22.8 7.9c2-.7 15.7-5 32-7.3a87 87 0 0119.7-.8c3.8.4 5.7 1 6 1.1l-.5-2.6a272 272 0 00-4.5 0m-53 9.7a82.2 82.2 0 0123.1-8c6.3-1.1 15.3-1.5 21.7-1.7 7-.2 12.7 0 12.7 0l.6 2.7s-2-.8-6.2-1.2c-3.8-.3-10.3-.5-19.5.8a204.3 204.3 0 00-32.4 7.4"/></g></g><g clip-path="url(#O)"><g clip-path="url(#P)"><path d="M31.2 133.2s6.5 3.5 9.8 6.5c5.5 5 12.5 6.9 19.7 9.2l8.6 2.8s-14-.6-22.6-5c-8.6-4.4-7.7-6.8-10.9-9.8-1.9-1.8-4.6-3.7-4.6-3.7" fill="#43af2a"/><path d="M31.5 133.4c.8.6 2.8 2 4.4 3.5 1 1 1.6 1.8 2.2 2.7 1.3 2 2.7 4 8.6 7 2.4 1.3 7 3 14.5 4.2 4 .6 7.2.8 8 .8a1082.8 1082.8 0 00-10.4-3.3c-6.6-2-12.8-4-17.8-8.6-2.8-2.5-8-5.5-9.5-6.3m38 18.3h-.2s-3.6-.2-8.1-.9c-7.6-1.1-12.1-2.9-14.5-4.1-6-3-7.3-5-8.7-7-.6-1-1.2-1.8-2.2-2.8a51.5 51.5 0 00-4.6-3.7s6.5 3.5 9.8 6.5c5 4.5 11.2 6.5 17.8 8.6l2 .6 8.5 2.7"/></g></g><g clip-path="url(#Q)"><g clip-path="url(#R)"><path d="M95.8 174.4s-10-2.5-18.6-1c-8.5 1.6-13.9 6-13.9 6s5.3-2.6 15.2-3.8c12-1.4 18 1.2 18 1.2" fill="#43af2a"/><path d="M83.4 173c-2 0-4.1 0-6.2.4a35.4 35.4 0 00-10.1 3.6c-2 1-3.2 1.9-3.6 2.2l3.7-1.3a66.3 66.3 0 0124.8-2.2c2.7.4 4.2 1 4.5 1l-.7-2.3c-.2 0-2.7-.7-6-1a54.1 54.1 0 00-6.4-.5m-20.3 6.5l.2-.1s1.4-1.1 3.7-2.4a35.6 35.6 0 0110.2-3.5 44.5 44.5 0 0118.6 1l.7 2.5s-1.5-.7-4.5-1.2a50 50 0 00-13.5 0c-2.9.3-7.1 1-11.3 2.2l-3.9 1.4"/></g></g><g clip-path="url(#S)"><g clip-path="url(#T)"><path d="M91.8 166.6s-19.7-7.6-35.5-18c-15.7-10.4-15.4-15.2-18.1-18-2.7-3-4.8-3.9-4.8-3.9s2.4-.2 7.7 3.5c5.2 3.7 19.4 16.6 23 19.4 3.8 2.8 27.7 16 27.7 16" fill="#43af2a"/><path d="M33.5 126.7c.5.2 2.4 1.3 4.7 3.8A14 14 0 0140 133c1.8 3 4.5 7.7 16.5 15.6 8 5.3 17.3 10 23.6 12.9 6.5 3 11.4 5 11.8 5v-.9c-.7-.4-24-13.2-27.6-16-1.6-1.2-4.8-4-8.6-7.2-5.3-4.7-11.4-10-14.5-12.2-4.6-3.2-7-3.5-7.6-3.5m58.3 40s-5-2-11.8-5.2c-6.3-3-15.5-7.5-23.7-13-12-7.8-14.6-12.4-16.4-15.5-.6-1-1-1.8-1.7-2.5a17 17 0 00-4.8-3.8s2.5-.2 7.7 3.5c3 2.2 9.2 7.5 14.6 12.2l8.5 7.2c3.7 2.7 27.4 15.8 27.6 16"/></g></g><g clip-path="url(#U)"><g clip-path="url(#V)"><path d="M39 156.8s17.3-4 29.2-1c12 3 31.1 12 31.1 12s-27.8-9.2-37.1-10.1c-9.3-1-23.2-.9-23.2-.9" fill="#43af2a"/><path d="M39.2 156.8c1.8 0 14.4 0 23 .9 8.6.8 33.5 8.8 36.8 10-2.7-1.3-19.9-9.2-30.8-12a59.1 59.1 0 00-19-.5 99.9 99.9 0 00-10 1.6m60.1 11c-.2-.1-28-9.2-37.1-10-8.8-1-22-1-23.1-1h-.3.2s4.4-1 10.2-1.6c5.3-.6 12.9-1 19 .5 11.8 3 31 12 31.1 12"/></g></g><g clip-path="url(#W)"><g clip-path="url(#X)"><path d="M45 171.6s16.4-6.9 28.2-7.7c12.2-.7 33 4.7 33 4.7S77 166 67.8 167.2c-9.3 1.2-22.8 4.4-22.8 4.4" fill="#43af2a"/><path d="M75.8 163.9h-2.6a83 83 0 00-18.5 4.2 145.3 145.3 0 00-9.5 3.4c2-.4 14.1-3.2 22.6-4.3a302 302 0 0138.1 1.3 201.5 201.5 0 00-11.6-2.5c-5.3-1-12.5-2.1-18.5-2.1M45 171.6s4.1-1.8 9.6-3.6a83 83 0 0118.6-4c6.3-.5 15 .8 21.1 2 6.7 1.2 11.9 2.5 12 2.5-.4 0-29.4-2.5-38.5-1.3-9.2 1.2-22.7 4.4-22.8 4.4"/></g></g><g clip-path="url(#Y)"><g clip-path="url(#Z)"><path d="M43.8 166.2s12.6-5 27.9-4.4c11 .3 31 10.6 31 10.6s-22.1-8.4-33-8.3c-8.7 0-26 2.1-26 2.1" fill="#43af2a"/><path d="M69.9 164c5.6 0 14.1 2.3 20.4 4.2a222.2 222.2 0 0112 4c-1.3-.6-5.7-2.8-11-5a60.7 60.7 0 00-19.6-5.4 77.7 77.7 0 00-27.8 4.4c2-.2 17.7-2 25.9-2.1zm32.7 8.4s-5.6-2-12.4-4.1A83.7 83.7 0 0070 164h-.1c-8.7.1-25.9 2.1-26 2.2h-.2.1a77.9 77.9 0 0128-4.5c2.5 0 5.7.6 9.5 1.8a162.3 162.3 0 0121.5 8.8"/></g></g><g clip-path="url(#aa)"><g clip-path="url(#ab)"><path d="M40.6 163.3s22.1-6 35-1.7a235.6 235.6 0 0129.4 13.2l-.2-2s-23.3-15.8-39.4-15c-16 .7-24.8 5.5-24.8 5.5" fill="#43af2a"/><path d="M64 160a41.4 41.4 0 0111.6 1.6c12.4 4.1 28.5 12.6 29.4 13.1l-.2-2a129.1 129.1 0 00-26.5-13 38.6 38.6 0 00-12.9-2 74.4 74.4 0 00-24.6 5.6A113.1 113.1 0 0164 160m41 14.7c-.2-.1-16.8-9-29.5-13.1-3-1-6.6-1.5-10.9-1.6h-.6c-3.3 0-7 .3-10.8.8-7.1 1-12.7 2.5-12.7 2.5h-.2.1s2.3-1.3 6.5-2.6a74.4 74.4 0 0118.4-3c3.7-.3 8 .4 13 2 3.9 1.2 8.2 3 12.7 5.1 7.8 3.8 13.6 7.8 13.7 7.8"/></g></g><g clip-path="url(#ac)"><g clip-path="url(#ad)"><path d="M40.6 122.3s7.4 16.2 17 23.8c9.6 7.6 28.4 17.3 28.4 17.3S61.8 147 55.4 140.1c-6.4-6.8-14.8-17.8-14.8-17.8" fill="#43af2a"/><path d="M40.7 122.5c.4.8 2.1 4.5 4.8 8.8 5 8.3 9.4 12.6 12 14.8 5 4 12.5 8.4 18 11.5a309.4 309.4 0 0010.2 5.6 581 581 0 01-12.6-8.8A162.6 162.6 0 0155.4 140a290.9 290.9 0 01-14.7-17.6m45.3 41c-.2-.1-19-9.8-28.4-17.4-2.2-1.7-4.5-4-6.7-7-1.9-2.2-3.7-4.9-5.4-7.8-3-5-5-9-5-9v-.2.2c.2 0 8.6 11 15 17.8 3.2 3.5 11.4 9.7 17.6 14.2a591 591 0 0013 9.1"/></g></g><g clip-path="url(#ae)"><g clip-path="url(#af)"><path d="M50.3 126.7s3.7 9 12.8 17.7c9.2 8.7 17.8 15 17.8 15s-16.2-8.8-23.4-18.4c-7.2-9.5-7.2-14.3-7.2-14.3" fill="#43af2a"/><path d="M50.3 126.8c0 .4.2 1.6.9 3.5 1.5 4 4.2 8 6.3 10.7 3.7 5 9.9 9.7 14.4 12.8a116.8 116.8 0 008.7 5.4c-1.5-1.1-9.3-7-17.5-14.7a61.3 61.3 0 01-9.9-12.2c-1.7-2.8-2.7-5-3-5.5M81 159.4s-4.1-2.2-9-5.6a64.9 64.9 0 01-14.4-12.7c-2.1-2.8-4.9-6.9-6.4-10.8-.9-2.4-.9-3.6-.9-3.6v-.1.1s1 2.3 3 5.6a61.4 61.4 0 0010 12.1c9 8.6 17.6 15 17.7 15"/></g></g><g clip-path="url(#ag)"><g clip-path="url(#ah)"><path d="M109.8 162.8s-11.4-11.2-14.9-16c-3.2-4.7-3.4-10.7-2.6-10.7.9 0-.6-.8-1.4 0-.8.8-3.3 7.6 5.6 17 7.8 8 8.7 11 8.7 11" fill="#43af2a"/><path d="M91.8 135.8c-.3 0-.6 0-.9.3-.4.4-1.2 2.4-.8 5.3.6 4.7 3.8 8.9 6.4 11.6a75.5 75.5 0 018.7 11l4.5-1.2c-.6-.6-11.5-11.3-14.8-16-1.3-1.9-2.2-4.1-2.7-6.5-.3-1.5-.5-3.4-.1-4 0-.2.1-.2.2-.2h.3l-.2-.2a1.3 1.3 0 00-.6-.1m13.4 28.3s-1-3-8.8-11c-2-2.2-3.6-4.4-4.7-6.5a16 16 0 01-1.7-5.2c-.4-3 .4-4.9.9-5.3.5-.6 1.3-.4 1.6-.2l.1.1-.3.1-.2.2c-.2.5-.3 2 .1 4 .5 2.4 1.5 4.6 2.7 6.4 3.4 4.8 14.8 16 14.9 16v.1"/></g></g><g clip-path="url(#ai)"><g clip-path="url(#aj)"><path d="M106.7 155.3s-10-2.5-18.6-1c-8.6 1.6-14 6-14 6s5.3-2.6 15.2-3.7c12.1-1.5 18 1.2 18 1.2" fill="#43af2a"/><path d="M94.3 153.9c-2 0-4.1.1-6.2.5a35.5 35.5 0 00-10.2 3.5c-1.9 1-3.1 2-3.6 2.2l3.7-1.3a65.7 65.7 0 0124.9-2.2c2.7.4 4.2 1 4.4 1.1l-.7-2.4c-.2 0-2.6-.6-6-1a54 54 0 00-6.3-.4M74 160.3h.2s1.3-1.2 3.7-2.4a35.7 35.7 0 0110.2-3.6 44.3 44.3 0 0118.6 1l.7 2.5s-1.5-.7-4.5-1.2a67.7 67.7 0 00-24.8 2.2c-2.6.8-3.9 1.5-4 1.5"/></g></g><g clip-path="url(#ak)"><g clip-path="url(#al)"><path d="M111 181.7s-10-2.5-18.6-1c-8.6 1.6-14 6-14 6s5.3-2.5 15.2-3.7c12.1-1.4 18 1.2 18 1.2" fill="#43af2a"/><path d="M98.6 180.3c-2 0-4.2.1-6.2.5a35.5 35.5 0 00-10.2 3.5c-1.9 1-3.2 2-3.6 2.3.5-.2 1.7-.8 3.7-1.4a66.5 66.5 0 0124.9-2.2c2.7.5 4.2 1 4.4 1.1l-.7-2.4c-.2 0-2.6-.6-6-1a54 54 0 00-6.3-.4m-20.3 6.5l.1-.2s1.4-1 3.8-2.3a35.5 35.5 0 0110.2-3.5c4.4-.8 9.2-.6 12.5-.2l6 1v.1l.8 2.5s-1.6-.7-4.5-1.1a68.1 68.1 0 00-28.7 3.6"/></g></g><g clip-path="url(#am)"><g clip-path="url(#an)"><path d="M105 171.2s-14.4.1-21.8 4.6c-7.5 4.5-11 10.4-11 10.4s4-4.2 13-8.8c10.7-5.6 19.2-4 19.2-4" fill="#43af2a"/><path d="M105 171.2c-.4 0-3.8 0-8 .6s-10 1.7-13.8 4a35.5 35.5 0 00-8.3 6.9 27 27 0 00-2.6 3.4l3-2.6c2-1.5 5.2-3.7 9.8-6a38 38 0 0113.7-4.2c3.3-.3 5.3 0 5.6 0zm-32.9 15.2l.1-.2s.9-1.5 2.7-3.5a35.5 35.5 0 018.3-7c3.8-2.2 9.6-3.4 13.7-3.9 4.5-.6 8.1-.6 8.1-.6l-.6 2.2s-2.2-.4-5.6 0c-3.2.2-8 1.2-13.7 4a67.5 67.5 0 00-9.7 6.2l-3.2 2.6"/></g></g><g clip-path="url(#ao)"><g clip-path="url(#ap)"><path d="M58.3 127.7s8.8 21.3 20 28.9a234.9 234.9 0 0028.4 15.3l-1.8 1S78.2 164 69 151c-9.2-13.2-10.7-23.2-10.7-23.2" fill="#43af2a"/><path d="M58.4 128c0 .6.6 3 1.8 6.4 1.4 3.8 4.1 9.7 8.8 16.5 2.1 3 5.3 6 9.5 9a89 89 0 0012 7c7.5 3.7 14.1 5.9 14.4 6l1.7-1a269.6 269.6 0 01-28.3-15.3 36.3 36.3 0 01-7.9-7.7 113.6 113.6 0 01-12-21m46.5 45a127.1 127.1 0 01-26.4-13c-4.2-3-7.4-6-9.5-9a74.5 74.5 0 01-8.8-16.5c-1.5-4.1-2-6.6-2-6.7v-.1l.1.1A110.7 110.7 0 0070.5 149c2.6 3.3 5.3 6 7.8 7.7a184.8 184.8 0 0028.4 15.3"/></g></g><g clip-path="url(#aq)"><g clip-path="url(#ar)"><path d="M98.3 164.9s-10.5-4.8-18-12.5c-7.6-7.7-9.5-11.1-9.5-11.1s3.7 9.6 12.5 16.7c8.7 7 24.7 13.9 24.7 13.9l1-2.9" fill="#43af2a"/><path d="M71 141.5A42.9 42.9 0 0083.3 158c8.4 6.8 23.9 13.6 24.6 14l.9-2.9-10.6-4.1a66 66 0 01-18-12.5 81.8 81.8 0 01-9.4-10.9M108 172c-.2 0-16-7-24.8-14a43.2 43.2 0 01-12.4-16.6 75.8 75.8 0 0021.3 20.2c3.5 2.1 6.2 3.3 6.2 3.3L109 169"/></g></g><g clip-path="url(#as)"><g clip-path="url(#at)"><path d="M74.2 137s8.4 11.5 12.7 15.5c4.2 4 14 11 14 11l-2 1.4s-12.6-8-18-16.1-6.7-11.9-6.7-11.9" fill="#43af2a"/><path d="M74.3 137a70 70 0 006.6 11.8c1.5 2.3 4.7 6 11 11a97 97 0 007 5l2-1.4c-.6-.4-10-7-14-10.9a170 170 0 01-12.6-15.4m24.6 27.8s-3.2-2-7-5a51 51 0 01-17.7-23v-.1.1c0 .1 8.5 11.6 12.7 15.6 4.2 4 14 10.8 14 11h.1"/></g></g><g clip-path="url(#au)"><g clip-path="url(#av)"><path d="M103.6 162.1s-9.1-7.7-15-14.3c-4.7-5.2-6-9.1-6-9.1-.5.3 1.9 11 10.5 17.8l8.6 7" fill="#43af2a"/><path d="M82.6 138.7a.5.5 0 000 .2A31 31 0 0093 156.5l8.6 7 1.8-1.4c-.5-.4-9.3-8-15-14.3a35 35 0 01-5.9-9m19.1 24.7l-8.6-7a29.5 29.5 0 01-10.5-17.8l1.3 2.6c.8 1.5 2.2 3.8 4.6 6.4 6 6.6 15 14.3 15 14.4h.1"/></g></g><g clip-path="url(#aw)"><g clip-path="url(#ax)"><path d="M219.1 196.9s-.7-5-8.5-7.4c-4.4-1.3-8.9-.5-10.9 0 1.4-2.2 4.4-6 8.4-7.1 5.9-1.8 11 0 11 0s-1.7-4.8-9.8-5.5c-4.6-.4-8.8 1.3-10.7 2.2 1-2.3 3-6.6 6.8-8.6 5.3-3 10.7-2.4 10.7-2.4s-2.7-4.2-10.7-3.2c-4.6.5-8.4 3-10 4.3.4-2.5 1.6-7.1 4.8-9.8 4.6-4 10-4.5 10-4.5s-3.5-3.6-11.2-1a21.7 21.7 0 00-8.9 6.3c0-2.5.1-7.3 2.7-10.6 3.7-4.9 8.8-6.5 8.8-6.5s-4.1-2.8-11 1.4c-4 2.3-6.5 6.2-7.4 8-.6-2.4-1.5-7.1.3-11 2.6-5.4 7.3-8.1 7.3-8.1s-4.6-1.9-10.5 3.6c-3.4 3.2-5 7.5-5.6 9.4a17.3 17.3 0 01-1.9-10.7c1.4-6 5.5-9.6 5.5-9.6s-5-.8-9.6 5.8a21.6 21.6 0 00-3.5 10.3c-1.5-2-4.2-6-4.1-10.1.1-6.1 3.3-10.5 3.3-10.5s-5 .2-8.1 7.7A21.7 21.7 0 00155 140c-1.9-1.6-5.3-5-6.1-9-1.1-6 1.1-11 1.1-11s-4.9 1.3-6.4 9.2c-.9 4.5.3 9 1 10.8a17.3 17.3 0 01-7.8-7.5c-2.4-5.7-1.2-11-1.2-11s-4.6 2.3-4.4 10.3c0 4.7 2.2 8.7 3.3 10.4-2.4-.6-7-2.3-9.3-5.7-3.5-5-3.5-10.5-3.5-10.5s-4 3.1-2 11c1 4.5 3.9 8 5.3 9.5-2.5-.2-7.3-.9-10.3-3.7-4.5-4.2-5.5-9.5-5.5-9.5s-3.3 3.9.2 11.2c2 4.2 5.5 7 7.2 8.1-2.5.4-7.3.7-10.9-1.5-5.2-3.1-7.3-8-7.3-8s-2.4 4.4 2.5 10.8c2.8 3.7 6.9 5.7 8.8 6.5-2.4.9-7 2.2-11 .8-5.7-2-8.9-6.4-8.9-6.4s-1.3 4.8 4.8 10.1c3.4 3 7.9 4.1 9.9 4.5a17.3 17.3 0 01-10.5 3c-6-.7-10-4.4-10-4.4s-.4 5 6.7 9c4 2.2 8.6 2.4 10.6 2.3a17.3 17.3 0 01-9.7 5.2c-6 .5-10.7-2.3-10.7-2.3s.7 5 8.5 7.4c4.4 1.3 8.9.5 10.9 0-1.4 2.2-4.4 6-8.4 7.1-5.9 1.8-11 0-11 0s1.7 4.8 9.8 5.5c4.6.4 8.8-1.3 10.7-2.2-1 2.3-3 6.6-6.8 8.6-5.3 3-10.7 2.4-10.7 2.4s2.7 4.2 10.7 3.2c4.6-.5 8.4-3 10-4.3-.4 2.5-1.6 7-4.8 9.8-4.6 4-10 4.5-10 4.5s3.5 3.6 11.2 1c4.3-1.5 7.5-4.8 8.9-6.3 0 2.5-.1 7.3-2.7 10.6a20 20 0 01-8.8 6.5s4.1 2.8 11-1.4c4-2.4 6.5-6.2 7.4-8 .6 2.4 1.5 7.1-.3 11-2.6 5.4-7.3 8.1-7.3 8.1s4.6 1.9 10.5-3.6c3.4-3.2 5-7.5 5.6-9.4 1 2.2 2.8 6.7 1.9 10.7-1.4 6-5.5 9.6-5.5 9.6s5 .8 9.6-5.8c2.7-3.8 3.3-8.3 3.5-10.3 1.5 2 4.2 6 4.1 10.1-.1 6.1-3.3 10.5-3.3 10.5s5-.2 8.1-7.7c1.8-4.2 1.5-8.8 1.3-10.8 1.9 1.6 5.3 5 6.1 9 1.1 6-1.1 11-1.1 11s4.9-1.3 6.4-9.2c.9-4.5-.3-9-1-10.8 2.2 1.1 6.2 3.7 7.9 7.6 2.3 5.6 1.2 10.9 1.2 10.9s4.5-2.3 4.3-10.3c0-4.7-2.2-8.7-3.3-10.4 2.4.6 7 2.3 9.3 5.7 3.5 5 3.5 10.5 3.5 10.5s4-3.1 2.1-11c-1-4.5-4-8-5.4-9.5 2.5.2 7.3.9 10.3 3.7 4.5 4.2 5.5 9.5 5.5 9.5s3.3-3.9-.2-11.2c-2-4.2-5.5-7-7.2-8.1 2.5-.4 7.3-.7 10.9 1.5 5.2 3.1 7.3 8 7.3 8s2.4-4.4-2.5-10.8a21.7 21.7 0 00-8.8-6.5c2.4-.9 7-2.2 11-.8 5.7 2 8.9 6.4 8.9 6.4s1.3-4.8-4.8-10.1c-3.4-3-7.9-4.1-9.9-4.5 2.1-1.4 6.4-3.6 10.5-3 6 .7 10 4.4 10 4.4s.4-5-6.7-9c-4-2.2-8.6-2.4-10.6-2.3 1.8-1.8 5.5-4.8 9.7-5.2A20 20 0 01219 197" fill="#fddd00"/></g></g><g clip-path="url(#ay)"><g clip-path="url(#az)"><path d="M49.5 85.3h21.3v-4H49.5zm0 0" fill="#fddd00"/></g></g><g clip-path="url(#aA)"><g clip-path="url(#aB)"><path d="M57.6 80.2s-.7-12.5-4-21c-3.3-8.4-.8-14.5 2-18 2.7-3.5 4.7-5.3 4.7-5.3s2 1.8 4.6 5.3c2.8 3.5 5.4 9.6 2 18-3.2 8.5-4 21-4 21" fill="#fddd00"/></g></g><g clip-path="url(#aC)"><g clip-path="url(#aD)"><path d="M67.3 86.9s-.3 2.6 1 4.7c1.7 3 4.5 2.9 4.5 3.4 0 .4-6 2-8-2.8-1-2.2-.3-5.3-.3-5.3" fill="#fddd00"/></g></g><g clip-path="url(#aE)"><g clip-path="url(#aF)"><path d="M53.2 86.9s.3 2.6-1 4.7c-1.7 3-4.5 2.9-4.5 3.4 0 .4 6 2 8-2.8 1-2.2.3-5.3.3-5.3" fill="#fddd00"/></g></g><g clip-path="url(#aG)"><g clip-path="url(#aH)"><path d="M64.3 80.2s1.4-16.8 8.5-19.6c3.8-1.4 8-1 11 1.5 2.6 2.2 5 6.9 1.6 12.2-3.3 5.4-7.5 5-7.5 5 .3-2.3 1-7.2-2.7-7.8-4.2-.5-6.7 8.7-6.7 8.7" fill="#fddd00"/></g></g><g clip-path="url(#aI)"><g clip-path="url(#aJ)"><path d="M56.2 80.2s-1.4-16.8-8.5-19.6a11 11 0 00-11 1.5c-2.6 2.2-4.9 6.9-1.6 12.2 3.3 5.4 7.5 5 7.5 5-.3-2.3-1-7.2 2.7-7.8 4.2-.5 6.7 8.7 6.7 8.7" fill="#fddd00"/></g></g><g clip-path="url(#aK)"><g clip-path="url(#aL)"><path d="M60.3 105.6s-2.4-2.3-3.5-8.1c-1.2-5.8 1-10.6 1-10.6h5s2 4.8 1 10.6c-1.2 5.8-3.5 8.1-3.5 8.1" fill="#fddd00"/></g></g><g clip-path="url(#aM)"><g clip-path="url(#aN)"><path d="M139.3 85.3h21.2v-4h-21.2zm0 0" fill="#fddd00"/></g></g><g clip-path="url(#aO)"><g clip-path="url(#aP)"><path d="M147.3 80.2s-.7-12.5-4-21c-3.3-8.4-.7-14.5 2-18S150 36 150 36s2 1.8 4.7 5.3 5.3 9.6 2 18c-3.3 8.5-4 21-4 21" fill="#fddd00"/></g></g><g clip-path="url(#aQ)"><g clip-path="url(#aR)"><path d="M157 86.9s-.3 2.6 1 4.7c1.8 3 4.6 2.9 4.6 3.4 0 .4-6 2-8-2.8-1-2.2-.4-5.3-.4-5.3" fill="#fddd00"/></g></g><g clip-path="url(#aS)"><g clip-path="url(#aT)"><path d="M143 86.9s.3 2.6-1 4.7c-1.8 3-4.6 2.9-4.6 3.4 0 .4 6 2 8-2.8 1-2.2.4-5.3.4-5.3" fill="#fddd00"/></g></g><g clip-path="url(#aU)"><g clip-path="url(#aV)"><path d="M154 80.2s1.4-16.8 8.6-19.6c3.7-1.4 8-1 11 1.5 2.6 2.2 4.9 6.9 1.6 12.2-3.3 5.4-7.6 5-7.6 5 .3-2.3 1-7.2-2.6-7.8-4.3-.5-6.7 8.7-6.7 8.7" fill="#fddd00"/></g></g><g clip-path="url(#aW)"><g clip-path="url(#aX)"><path d="M146 80.2s-1.4-16.8-8.6-19.6a11 11 0 00-11 1.5c-2.6 2.2-4.9 6.9-1.6 12.2 3.3 5.4 7.6 5 7.6 5-.3-2.3-1-7.2 2.6-7.8 4.3-.5 6.7 8.7 6.7 8.7" fill="#fddd00"/></g></g><g clip-path="url(#aY)"><g clip-path="url(#aZ)"><path d="M150 105.6s-2.4-2.3-3.5-8.1 1-10.6 1-10.6h5s2.1 4.8 1 10.6-3.5 8.1-3.5 8.1" fill="#fddd00"/></g></g><g clip-path="url(#ba)"><g clip-path="url(#bb)"><path d="M229 85.3h21.2v-4H229zm0 0" fill="#fddd00"/></g></g><g clip-path="url(#bc)"><g clip-path="url(#bd)"><path d="M237 80.2s-.7-12.5-4-21c-3.3-8.4-.7-14.5 2-18 2.8-3.5 4.7-5.3 4.7-5.3s2 1.8 4.7 5.3 5.3 9.6 2 18c-3.3 8.5-4 21-4 21" fill="#fddd00"/></g></g><g clip-path="url(#be)"><g clip-path="url(#bf)"><path d="M246.8 86.9s-.4 2.6 1 4.7c1.7 3 4.5 2.9 4.5 3.4 0 .4-6 2-8-2.8-1-2.2-.4-5.3-.4-5.3" fill="#fddd00"/></g></g><g clip-path="url(#bg)"><g clip-path="url(#bh)"><path d="M232.7 86.9s.3 2.6-1 4.7c-1.7 3-4.6 2.9-4.6 3.4 0 .4 6.1 2 8.1-2.8 1-2.2.3-5.3.3-5.3" fill="#fddd00"/></g></g><g clip-path="url(#bi)"><g clip-path="url(#bj)"><path d="M243.7 80.2s1.4-16.8 8.6-19.6c3.7-1.4 8-1 11 1.5 2.6 2.2 4.9 6.9 1.6 12.2-3.3 5.4-7.5 5-7.5 5 .3-2.3 1-7.2-2.7-7.8-4.2-.5-6.7 8.7-6.7 8.7" fill="#fddd00"/></g></g><g clip-path="url(#bk)"><g clip-path="url(#bl)"><path d="M235.7 80.2s-1.4-16.8-8.6-19.6a11 11 0 00-10.9 1.5c-2.7 2.2-5 6.9-1.6 12.2 3.3 5.4 7.5 5 7.5 5-.3-2.3-1-7.2 2.7-7.8 4.2-.5 6.7 8.7 6.7 8.7" fill="#fddd00"/></g></g><g clip-path="url(#bm)"><g clip-path="url(#bn)"><path d="M239.7 105.6s-2.4-2.3-3.5-8.1 1-10.6 1-10.6h5s2.1 4.8 1 10.6-3.5 8.1-3.5 8.1" fill="#fddd00"/></g></g></svg>