<svg xmlns="http://www.w3.org/2000/svg" width="400" height="400" viewBox="0 0 300 300"><defs><clipPath id="a"><path d="M150 0C67.156 0 0 67.156 0 150s67.156 150 150 150 150-67.156 150-150S232.844 0 150 0zm0 0"/></clipPath><clipPath id="b"><path d="M0 13h300v274H0zm0 0"/></clipPath><clipPath id="c"><path d="M150 0C67.156 0 0 67.156 0 150s67.156 150 150 150 150-67.156 150-150S232.844 0 150 0zm0 0"/></clipPath><clipPath id="d"><path d="M112 178h78v47h-78zm0 0"/></clipPath><clipPath id="e"><path d="M150 0C67.156 0 0 67.156 0 150s67.156 150 150 150 150-67.156 150-150S232.844 0 150 0zm0 0"/></clipPath><clipPath id="f"><path d="M139 163h54v14h-54zm0 0"/></clipPath><clipPath id="g"><path d="M150 0C67.156 0 0 67.156 0 150s67.156 150 150 150 150-67.156 150-150S232.844 0 150 0zm0 0"/></clipPath><clipPath id="h"><path d="M110 173h80v35h-80zm0 0"/></clipPath><clipPath id="i"><path d="M150 0C67.156 0 0 67.156 0 150s67.156 150 150 150 150-67.156 150-150S232.844 0 150 0zm0 0"/></clipPath><clipPath id="j"><path d="M104 77h92v97h-92zm0 0"/></clipPath><clipPath id="k"><path d="M150 0C67.156 0 0 67.156 0 150s67.156 150 150 150 150-67.156 150-150S232.844 0 150 0zm0 0"/></clipPath><clipPath id="l"><path d="M145 111h1v1h-1zm0 0"/></clipPath><clipPath id="m"><path d="M150 0C67.156 0 0 67.156 0 150s67.156 150 150 150 150-67.156 150-150S232.844 0 150 0zm0 0"/></clipPath><clipPath id="n"><path d="M119 90h56v46h-56zm0 0"/></clipPath><clipPath id="o"><path d="M150 0C67.156 0 0 67.156 0 150s67.156 150 150 150 150-67.156 150-150S232.844 0 150 0zm0 0"/></clipPath><clipPath id="p"><path d="M147 115h28v80h-28zm0 0"/></clipPath><clipPath id="q"><path d="M150 0C67.156 0 0 67.156 0 150s67.156 150 150 150 150-67.156 150-150S232.844 0 150 0zm0 0"/></clipPath><clipPath id="r"><path d="M101 69h99v162h-99zm0 0"/></clipPath><clipPath id="s"><path d="M150 0C67.156 0 0 67.156 0 150s67.156 150 150 150 150-67.156 150-150S232.844 0 150 0zm0 0"/></clipPath><clipPath id="t"><path d="M125 161h21v20h-21zm0 0"/></clipPath><clipPath id="u"><path d="M150 0C67.156 0 0 67.156 0 150s67.156 150 150 150 150-67.156 150-150S232.844 0 150 0zm0 0"/></clipPath><clipPath id="v"><path d="M122 180h27v8h-27zm0 0"/></clipPath><clipPath id="w"><path d="M150 0C67.156 0 0 67.156 0 150s67.156 150 150 150 150-67.156 150-150S232.844 0 150 0zm0 0"/></clipPath><clipPath id="x"><path d="M134 180h4v2h-4zm0 0"/></clipPath><clipPath id="y"><path d="M150 0C67.156 0 0 67.156 0 150s67.156 150 150 150 150-67.156 150-150S232.844 0 150 0zm0 0"/></clipPath><clipPath id="z"><path d="M124 144h11v12h-11zm0 0"/></clipPath><clipPath id="A"><path d="M150 0C67.156 0 0 67.156 0 150s67.156 150 150 150 150-67.156 150-150S232.844 0 150 0zm0 0"/></clipPath><clipPath id="B"><path d="M137 144h11v13h-11zm0 0"/></clipPath><clipPath id="C"><path d="M150 0C67.156 0 0 67.156 0 150s67.156 150 150 150 150-67.156 150-150S232.844 0 150 0zm0 0"/></clipPath><clipPath id="D"><path d="M138 145h9v11h-9zm0 0"/></clipPath><clipPath id="E"><path d="M150 0C67.156 0 0 67.156 0 150s67.156 150 150 150 150-67.156 150-150S232.844 0 150 0zm0 0"/></clipPath><clipPath id="F"><path d="M151 144h13v13h-13zm0 0"/></clipPath><clipPath id="G"><path d="M150 0C67.156 0 0 67.156 0 150s67.156 150 150 150 150-67.156 150-150S232.844 0 150 0zm0 0"/></clipPath><clipPath id="H"><path d="M152 145h11v11h-11zm0 0"/></clipPath><clipPath id="I"><path d="M150 0C67.156 0 0 67.156 0 150s67.156 150 150 150 150-67.156 150-150S232.844 0 150 0zm0 0"/></clipPath><clipPath id="J"><path d="M167 144h12v13h-12zm0 0"/></clipPath><clipPath id="K"><path d="M150 0C67.156 0 0 67.156 0 150s67.156 150 150 150 150-67.156 150-150S232.844 0 150 0zm0 0"/></clipPath><clipPath id="L"><path d="M167 145h11v11h-11zm0 0"/></clipPath><clipPath id="M"><path d="M150 0C67.156 0 0 67.156 0 150s67.156 150 150 150 150-67.156 150-150S232.844 0 150 0zm0 0"/></clipPath></defs><g clip-path="url(#a)"><path d="M-128.594 299.938h557.188V.063h-557.188zm0 0" fill="#c52039"/></g><g clip-path="url(#b)"><g clip-path="url(#c)"><path d="M-114.773 286.117h529.546V13.883h-529.546zm0 0" fill="#002979"/></g></g><g clip-path="url(#d)"><g clip-path="url(#e)"><path d="M112.504 180.078l77.02-2.023-11.61 22.293-15.11 16.214-13.081 7.555-25.426-20.637" fill-rule="evenodd" fill="#f7da55"/></g></g><g clip-path="url(#f)"><g clip-path="url(#g)"><path d="M139.406 175.844l3.317-8.477 49.562-3.683-1.656 12.343zm0 0" fill-rule="evenodd" fill="#9b8535"/></g></g><g clip-path="url(#h)"><g clip-path="url(#i)"><path d="M188.383 173.715l-35.16-.156c-.075-.086-.153-.204-.223-.204h-11.922c.016 0 .02.067.027.13l-14.34-.06c.005-.03.008-.07.012-.07H110.09c.523 1.676 1.41 3.43 2.21 5.13.587 1.25 1.481 2.331 2.06 3.585 1.175 2.54 2.796 4.793 4.312 7.125 2.273-.277 4.293.457 6.312 1.38 1.825.835 3.688 1.597 5.813 1.44 2.844-.206 5.46.555 8.078 1.688 1.367.594 2.863 1.317 4.523 1.117.997-.12 1.836.668 2.895.485.898-.157 1.805 0 2.656.43.781.39 1.645.624 2.422 1.011.629.316.805.91.664 1.59-.84.559-1.765.762-2.793.707-.91-.05-1.781-.063-2.668-.445-.726-.317-1.562.011-2.441-.43-1.215-.61-7.762-.879-8.778-.504-1.343.492-2.812.41-4.101.973-1.207.527-2.352 1.195-3.524 1.8.11.34.137.747.344 1.012.473.598 1.04 1.125 1.563 1.688 1.199 1.285 2.383 2.582 3.601 3.847.114.118.457.016.692.016 1.015-.61 2.03-1.215 3.14-1.883 2.07.153 4.016-.547 5.98-1.363 1.845-.766 3.723-1.488 5.876-.613.949.386 2.3.386 3.258.02.851-.325 1.632-.345 2.457-.368.773-.016 1.48-.07 2.203-.45.578-.304 1.32.184 2.011-.34.708-.538 1.758-.21 2.672-.542 2.313-.852 2.57-.68 3.95-2.172v-1.723c-.829-1.777-2.473-2.855-4.16-3.671a5.241 5.241 0 00-2.2-.528 152.516 152.516 0 01-9.156-.469c-.922-.074-1.895-.566-2.723-.851v-1.77c.828-.238 1.301-.332 1.688-.707.562-.55 1.195-.41 1.781-.363.656.05 1.309.309 1.961.438.66.132 1.45-.293 1.965.449 1.746.008 3.492.015 5.234.027.938-.867 2.098-.3 3.145-.469l7.36-2.664c.315.293.675.512 1.222.32.203-.156.406-.449.61-.449 1.448 0 2.784-.562 4.187-.754 1.984-.273 3.347-1.644 4.699-2.84 1.305-1.152 2.61-1.777 4.328-1.585.187-.106.457-.168.555-.328 1.37-2.266 2.48-4.649 3.261-7.172-.007-.645-.507-.461-.851-.465" fill-rule="evenodd" fill="#028ae3"/></g></g><g clip-path="url(#j)"><g clip-path="url(#k)"><path d="M195.406 151.523c-.058-2.148.395-4.324-.402-6.464-.285-.77.016-1.73-.066-2.594-.083-.89-.458-1.774-.422-2.653.035-.886-.348-1.613-.52-2.414-.379-1.75-.547-3.562-1.11-5.25a131.264 131.264 0 00-4.562-11.671c-1.445-3.247-3.367-6.247-5.199-9.266-2.023-3.336-4.402-6.484-6.809-9.574-1.957-2.504-4.105-4.871-6.312-7.164-2.824-2.93-5.77-5.75-8.711-8.567a67.085 67.085 0 00-4.59-4.023c-2.14-1.703-4.371-3.297-6.48-4.875-.395.164-.797.23-1.07.453-2.223 1.824-4.567 3.535-6.59 5.555-4.536 4.543-9.36 8.8-13.586 13.66a196.772 196.772 0 00-7.856 9.629c-2.34 3.058-4.574 6.191-6.426 9.515-2.32 4.16-4.617 8.375-6.168 12.91-.808 2.375-1.664 4.72-2.199 7.192-.348 1.61-.996 3.152-.894 4.844-.946.836-.309 1.925-.48 2.886-.173.961-.493 1.934-.458 2.887.11 2.707-.375 5.422.402 8.125.372 1.29.18 2.695.454 4.078.546 2.778 1.066 5.547 2.027 8.215.75 2.082 1.238 4.258 2.328 6.219l-.035.18h32.055c.347-1.418 1.093-2.723 1.53-4.118.141-.46.356-.91.598-1.504l.043-.09 10.774.2.121.261c6.691 0 13.387-.03 20.078.032 1.352.011 2.606-.375 3.914-.48 1.281-.106 2.613.16 3.86-.067 2.12-.38 4.246-.653 6.375-.961 1.37-.2 2.667-.899 4-1.371.414-1.031.937-2.008.992-3.168.054-1.207.738-2.344.46-3.602.91-1.02.321-2.242.481-3.363.172-1.2.484-2.406.453-3.602" fill-rule="evenodd" fill="#91dafa"/></g></g><g clip-path="url(#l)"><g clip-path="url(#m)"><path d="M145.363 111.184c-.066.02-.133.043-.199.066.125.035.254.074.399.117-.079-.066-.141-.129-.2-.183" fill-rule="evenodd" fill="#109220"/></g></g><g clip-path="url(#n)"><g clip-path="url(#o)"><path d="M153.23 119.32l.09-.273v.2c-.027.023-.058.05-.09.073m-9.308-.414h-.277v-.828h.277zm26.664-.011c-1.738-1.391-3.79-2.317-5.856-3.172-1.878-.778-3.937-.899-5.808-1.614.543-.367 1.086-.73 1.863-1.285h1.719c.098-.55.18-.89.277-1.422.547.25.992.47 1.446.676.187-.387.332-.668.445-.898.625.324 1.195.62 1.75.91.703-.793 1.418-.633 2.121-.117l.195-.743c.93.586 1.989.184 3.325.457.046.11.226.508.488 1.086.234-.664.332-.933.344-.972l1.773.222c-.055-.285-.008-.699-.18-.835-1.02-.81-2.066-1.563-3.351-1.961-1.848-.575-3.684-1.086-5.645-.918-1.637.144-3.277-.196-4.926.418-1.195.445-2.57.406-4.28.636 1.401-1.62 3.288-1.172 4.612-2.383-.386-.23-.761-.457-1.351-.812.957-.16 1.566-.262 2.5-.414-.582-.637-.926-1.012-1.363-1.492.726-.203 1.425-.524 2.117-.547.676-.028 1.293.254 2.125.414v-.746c-.278-.133-.602-.305-.867-.414.02-.106.02-.09.035-.367h2.844c-.47-.278-.766-.762-1.192-1.22.73-.308 1.36-.55 2.031-.835-.168-.34-.312-.621-.46-.926 1.011-.219 1.011-.21 1.624-.98-5.379-.739-12.554 3.46-15.457 8.703-.695-1.403 1-2.711.098-4.09-.21-.043-.266-.082-.816-.16v-3.266c-.555.453-.782.75-1.149 1.094-.652-1.442.293-2.77.309-4.313-.707.262-1.098.442-1.926.707v-2.914c-.277 0-.477-.054-.594.012-.191.106-.328.29-.5.445-.285-1.093-.562-2.187-.93-3.617-.492.613-.73.922-.988 1.242-.312-1.41-.312-1.41-2.73-2.257-.219.68-.446 1.359-.64 1.96l1.964 1.56-2.012.476c1.047.629 1.723 1.035 2.407 1.441l-.743 1.496c.63.617 1.258 1.23 1.883 1.848.188.133.375.27.559.402l-1.703.367c.492.5.672.73.898.907.524.398 1.074.761 1.602 1.156.078.058.023.207.082.347-.45.07-.766.141-1.32.2v1.195c.831.426 1.285.82 1.921 1.254-.426.195-.695.336-1.187.555.508.562.96.972 1.297 1.449.195.277.242.668.37.984.15.086.278.192.407.301-.05.047-.098.098-.145.145-.109-.125-.214-.25-.324-.38.031-.027.063-.058.07-.066-.511.102-.855-.082-1.214-.453-1.774-1.824-3.598-3.594-5.383-5.41-1.75-1.781-4.016-2.332-6.64-3.035.507.96 1.027 1.554 1.093 2.195.105.988.89 1.027 1.445 1.473v.73c.551.457 1.172.746 1.34 1.203.246.68.625.97 1.266 1.07.039.008.047.204.066.305-.293.098-.55.188-1.215.407.957.328 1.688.441 2.13.828.44.39.597.992.921 1.82h1.07c-.222.277-.394.637-.585.973.425.199.742.328 1.05.472 0 .22 0 .414.375.79.09-.028.18-.06.274-.075.066-.008.16.16-.075.254-.015.102-.296.024-.574-.058.059-.016.117-.04.176-.063-.809-.23-1.226-.266-1.684-.422-1.496-.52-3.07-.96-4.64-1.074-2.387-.176-4.79-.05-7.184-.043-.3 0-.61 0-.89.086-4.07 1.219-7.536 3.45-10.555 6.398-.184.18-.148.586-.277 1.18l2.183-1.11c.11.45.223.91.403 1.633.914-.835 1.62-1.484 2.332-2.136.156.316.304.625.523 1.066.754-.601 1.426-1.148 2.121-1.707.281.488.477.824.774 1.332l1.539-1.539c1.937.832 2.507-1.36 3.875-1.531.144.558.257 1.015.39 1.531.875-.434 1.582-.781 2.305-1.137l.426.899c1.28.597 2.324-.89 3.644-.102-3.394 1.512-6.488 3.305-8.926 6.051-.793.895-1.777 1.73-2.222 2.785-.38.903-1.504 1.742-.754 3.14l1.422-1.023c.129.27.27.555.508 1.047.253-.582.406-.984.601-1.363.203-.39.442-.754.672-1.137l.523.485c.45-.63.887-1.243 1.274-1.782l.898.457c.547-.84 1.043-1.597 1.52-2.324.2.313.402.637.617.973 1.004-.735.727-2.305 2.145-2.48l.503 1.077c.63-.851 1.2-1.628 1.84-2.5.328.512.63.977.86 1.332.398-.109.765-.21 1.433-.39-.511 1.082-.87 1.84-1.195 2.531.215.266.281.422.406.574-.472.473-.863.91-1.418 1.356v1.597c-.277.34-.875.782-1.469 1.274.231.375.446.68.63.984-.11 1.047-1.715 1.864-.583 3.008-.324.844-.617 1.629-.945 2.477 1.149.23 1.66.699 1.594 1.75-.028.39.363.804.66 1.406.3-1.504.543-2.711.773-3.856.47.172.829.301 1.055.387.461-2.262.883-4.336 1.309-6.441.156.094.257.168.37.222.098.047.212.079.38.133.047-.617.093-1.195.148-1.875.305.258.48.403.836.7 0-.77-.016-1.227.008-1.684.016-.418.07-.836.129-1.445.5.277.797.44 1.258.69 0-.675 0-1.272-.024-1.85-.144-.083-.273-.192-.398-.297l.144-.149c.11.129.215.254.324.379-.03.031-.058.062-.07.066.176-.023.332-.023.485-.023 0-.023-.06-.05-.06-.074l5.056-.39v1.796c.828.95 1.418 1.633 1.953 2.277-.227.496-.375.871-.531 1.215.535.317.984.574 1.37.805.07.668.145 1.238.196 1.71.383.102.601.157.879.227v2.032c.277.12.554.214.828.332v2.054c.555.055.922 0 1.21.176.286.172.493.555.657.879.117.238.149.527.313 1.23.187-1.726.332-2.964.492-4.414-.16-.183-.496-.57-.867-.992.21-.586.406-1.125.652-1.812-.34-.239-.703-.489-1.117-.778l1.277-.57c-.617-.691-1.121-1.258-1.668-1.867l1.2-.375c-1.02-.559-1.82-1-2.837-1.559.54-.355.903-.597 1.325-.875-.188-.281-.27-.539-.434-.617-.387-.183-.836-.234-1.21-.426-.306-.152-.54-.441-.75-.62l.495-.817-1.25-1.477c.934.219 1.453.34 1.985.461.101-.246.226-.547.445-1.07a827.59 827.59 0 002 1.863c.437-.613.781-1.086 1.113-1.55.48.859.899 1.605 1.461 2.613.156-.774.25-1.23.375-1.856.555.778.988 1.383 1.492 2.094.168-.484.262-.75.5-1.441.157 1.222.07 2.277 1.34 2.27.149-.317.285-.603.469-.985.187.843.465 1.312 1.012 1.797l.328-.942c.402.77.14 1.852 1.277 1.996.219-.125.324-.261.875-.492v2.473c.555-.219.89-.356 1.195-.477.329.633.621 1.235.97 1.91.398-.273.612-.433.843-.593.285.585.574 1.183 1.117 2.289 0-1.239-.012-1.918 0-2.594.031-2.766-1.047-5.082-3.16-6.777" fill-rule="evenodd" fill="#109220"/></g></g><g clip-path="url(#p)"><g clip-path="url(#q)"><path d="M147.77 120.836c0-.766.042-1.535-.012-2.297-.047-.633-.219-1.262-.367-2.059.129-.261.343-.707.562-1.16h2.059c.258.446.504.88.687 1.2.496-.149.965-.286 1.395-.41l1.226 1.253v1.883c-.422.348-.898.734-1.375 1.125-.777.082-.449.692-.449 1.063-.023 5.023-.016 10.043-.016 15.062 0 2.629.012 5.254-.003 7.883-.016 3.187.707 6.332.527 9.543-.05.89.625 1.844.387 2.812-.243.97.457 1.696.504 2.59.05.95.23 1.899.457 2.82.238.97.558 1.926.921 2.86.415 1.062.918 2.094 1.383 3.137.942 1.933 1.903 3.863 3.242 5.562 0 .234-.097.547.016.68 1.625 1.906 3.012 4.004 4.465 6.015 1.89 2.622 4.5 4.149 7.082 5.778.566.36.934 1.32 1.89.976.743.86 1.485 1.711 2.399 2.762l-.465 2.508c-.45.266-.86.437-1.172.719-.351.316-.793.367-1.16.55-1.723.871-3.25.297-4.812-.375-1.633-.707-2.524-1.933-2.762-3.68-.008-.07-.246-.109-.375-.163-.063-1.184-.496-2.188-1.09-3.243-2.203-3.898-4.976-7.421-7.273-11.253-.375-.63-.914-1.16-1.38-1.735 0-.156.055-.34-.007-.46-.914-1.708-1.844-3.403-2.774-5.106-.3-1.856-1.421-3.485-1.468-5.41-.785-.903-.028-2.227-.852-3.118.164-2.425-.355-4.812-.539-7.21-.75-9.813-.195-19.63-.36-29.442-.011-.648-.245-1.133-.491-1.66" fill-rule="evenodd" fill="#8a4607"/></g></g><g clip-path="url(#r)"><g clip-path="url(#s)"><path d="M150.285 221.445c-26.437-19.5-42.3-44.406-42.3-71.543 0-27.136 15.863-52.043 42.304-71.539 26.438 19.496 42.3 44.403 42.3 71.54 0 27.136-15.862 52.042-42.304 71.542m33.18-119.57c-8.203-11.68-19.367-22.344-32.91-31.805v-.402c0 .066-.184.133-.278.203-.097-.07-.277-.137-.277-.203v.402c-13.543 9.461-24.695 20.125-32.898 31.805-10.633 15.14-16.028 31.3-16.028 48.027 0 16.73 5.395 32.887 16.028 48.028 8.203 11.68 19.355 22.347 32.898 31.808v.403c0-.067.18-.133.277-.203.094.07.278.136.278.203v-.403c13.543-9.46 24.707-20.129 32.91-31.808 10.633-15.14 16.023-31.297 16.023-48.028 0-16.726-5.39-32.886-16.023-48.027" fill="red"/></g></g><g clip-path="url(#t)"><g clip-path="url(#u)"><path d="M142.668 173.242c.055.285.023.63.176.844 1.086 1.55 1.332 3.445 2.129 5.113.113.238.015.578.015.996h-19.644c1.66-1.914 2.113-4.175 3.242-6.11.14-.233.117-.562.172-.843.152-.937.297-1.87.465-2.804.156-.856-.407-1.844.46-2.57-.19-1.177.258-2.364-.292-3.567-.32-.703-.16-1.625-.235-2.688.59.121 1.078.149 1.5.328a13.416 13.416 0 014.172 2.739c.906.875 2.078 1.515 2.86 2.48 1.468 1.824 3.093 3.535 4.277 5.586.129.223.465.332.703.496" fill-rule="evenodd" fill="#f8f7fd"/></g></g><g clip-path="url(#v)"><g clip-path="url(#w)"><path d="M140.664 184.45h-9.77l.754 1.234h8.16c.243-.348.446-.641.856-1.235m-3.562-3.324c1.867-.172 3.718.172 5.625-.387 1.671-.492 3.543-.332 5.32-.457.004-.035-.281 2.008-.293 2.082-.816.352-1.649.79-2.527 1.059-.832.254-1.739.273-2.579.512-.382.109-.691.496-1.203.882l1.672 1.254c-.293.203-.57.52-.902.602-2.531.637-5.113 1.27-7.711.89-1.867-.273-3.805-.285-5.606-.972-.27-.102-.503-.293-.921-.547l1.21-.445c.016-.278.032-.575.047-.989-.464-.222-.96-.66-1.46-.66-.915 0-1.747-.226-2.587-.508-1.05-.355-2.039-.808-2.613-2.125 2.14-.394 4.176-.129 6.188-.18 2.008-.05 4.015-.011 6.023-.011" fill-rule="evenodd" fill="#84450b"/></g></g><g clip-path="url(#x)"><g clip-path="url(#y)"><path d="M134.785 181.125h2.32v-.93h-2.32zm0 0" fill-rule="evenodd" fill="#000508"/></g></g><g clip-path="url(#z)"><g clip-path="url(#A)"><path d="M129.84 155.992c-1.082 0-2.082-.234-2.977-.703a4.825 4.825 0 01-2.082-2.09c-.453-.883-.683-1.879-.683-2.96a6.84 6.84 0 01.675-3.009c.461-.96 1.141-1.683 2.02-2.156.855-.457 1.844-.687 2.941-.687.801 0 1.543.133 2.2.394.68.274 1.226.664 1.625 1.164.382.485.675 1.114.87 1.868l.133.527-2.257.62-.153-.519c-.132-.449-.293-.8-.48-1.039-.164-.218-.414-.398-.746-.539a3.002 3.002 0 00-1.184-.222c-.539 0-1.004.082-1.379.238a2.41 2.41 0 00-.886.598 2.981 2.981 0 00-.543.847 4.826 4.826 0 00-.344 1.832c0 .813.137 1.492.406 2.02.262.504.625.87 1.113 1.113.52.258 1.075.387 1.657.387.507 0 1.078-.102 1.562-.297.379-.152.707-.313.984-.473v-1.11h-3.039v-2.257l5.25-.008v4.59l-.171.164c-.7.563-1.422.988-2.172 1.274a6.518 6.518 0 01-2.34.433" fill="#fff"/><path d="M129.742 151.285v-1.191l4.305-.008v3.77a7.608 7.608 0 01-2.043 1.187 6.081 6.081 0 01-2.164.398c-.996 0-1.903-.214-2.719-.64a4.26 4.26 0 01-1.848-1.856c-.414-.808-.62-1.71-.62-2.707 0-.988.202-1.91.617-2.765.414-.86 1.007-1.496 1.785-1.91.777-.418 1.668-.625 2.68-.625.738 0 1.402.12 1.992.359.593.234 1.058.566 1.398.992.336.426.594.98.766 1.664l-1.211.332c-.153-.52-.34-.926-.567-1.219-.226-.296-.55-.535-.972-.71a3.5 3.5 0 00-1.399-.266c-.613 0-1.144.09-1.594.277-.445.188-.808.434-1.082.738-.277.305-.488.641-.64 1.004a5.278 5.278 0 00-.39 2.047c0 .903.155 1.66.468 2.27.312.61.766 1.062 1.36 1.36.597.296 1.23.44 1.902.44.582 0 1.148-.109 1.703-.335.554-.223.972-.461 1.258-.715v-1.89" fill="red"/></g></g><g clip-path="url(#B)"><g clip-path="url(#C)"><path d="M142.61 156.078c-1.055 0-1.942-.187-2.637-.562-.727-.395-1.32-.977-1.63-1.723-.296-.707-.503-1.621-.503-2.8v-6.384h2.488v6.375c0 1.028.176 1.536.27 1.782.12.304.351.535.644.703.32.18.746.273 1.235.273.84 0 1.445-.172 1.761-.508.227-.242.512-.824.512-2.25v-6.375h2.484v6.383c0 1.113-.144 1.988-.406 2.668-.277.727-.789 1.317-1.504 1.762-.695.437-1.617.656-2.715.656" fill="#fff"/></g></g><g clip-path="url(#D)"><g clip-path="url(#E)"><path d="M145.281 145.023h1.364v5.97c0 1.034-.118 1.862-.352 2.472-.234.61-.656 1.105-1.27 1.488-.613.383-1.418.574-2.414.574-.968 0-1.757-.168-2.375-.5a2.85 2.85 0 01-1.316-1.449c-.262-.629-.395-1.492-.395-2.586v-5.969h1.368v5.961c0 .895.082 1.559.25 1.98.168.43.453.755.859.985.406.23.902.348 1.488.348 1.008 0 1.723-.23 2.149-.688.43-.453.644-1.328.644-2.625" fill="red"/></g></g><g clip-path="url(#F)"><g clip-path="url(#G)"><path d="M158.531 150.691l-.812-2.132c-.063-.16-.117-.301-.172-.45-.035.098-.067.172-.102.266l-.875 2.316zm2.074 5.528l-1.222-3.317h-3.625l-1.153 3.317h-2.667l4.457-11.61h2.25l4.75 11.61" fill="#fff"/></g></g><g clip-path="url(#H)"><g clip-path="url(#I)"><path d="M155.77 151.3h3.566l-1.102-2.905a28.155 28.155 0 01-.742-2.18 13.876 13.876 0 01-.566 2.008zm-3.028 4.313l4.031-10.5h1.5l4.297 10.5h-1.582l-1.226-3.18h-4.39l-1.153 3.18" fill="red"/></g></g><g clip-path="url(#J)"><g clip-path="url(#K)"><path d="M175.98 156.219v-6.117l-2.21 6.117h-2.043l-2.106-6.2v6.2h-2.484v-11.61h3.097l2.594 7.77c.012-.031 2.676-7.77 2.676-7.77h2.687v11.61" fill="#fff"/></g></g><g clip-path="url(#L)"><g clip-path="url(#M)"><path d="M167.742 155.613v-10.5h2.094l2.484 7.438c.23.691.399 1.207.504 1.55.117-.382.305-.94.559-1.683l2.515-7.305h1.868v10.5h-1.336v-8.789l-3.055 8.79h-1.254l-3.035-8.938v8.937" fill="red"/></g></g></svg>