<svg xmlns="http://www.w3.org/2000/svg" width="400" height="400" viewBox="0 0 300 300"><defs><clipPath id="a"><path d="M0 0h100v300H0zm0 0"/></clipPath><clipPath id="b"><path d="M150 0a150 150 0 100 300 150 150 0 000-300zm0 0"/></clipPath><clipPath id="c"><path d="M100 0h100v300H100zm0 0"/></clipPath><clipPath id="d"><path d="M150 0a150 150 0 100 300 150 150 0 000-300zm0 0"/></clipPath><clipPath id="e"><path d="M200 0h100v300H200zm0 0"/></clipPath><clipPath id="f"><path d="M150 0a150 150 0 100 300 150 150 0 000-300zm0 0"/></clipPath></defs><g clip-path="url(#a)"><g clip-path="url(#b)"><path d="M0 300h100V0H0zm0 0" fill="#ce1125"/></g></g><g clip-path="url(#c)"><g clip-path="url(#d)"><path d="M100 300h100V0H100zm0 0" fill="#fbd115"/></g></g><g clip-path="url(#e)"><g clip-path="url(#f)"><path d="M200 300h100V0H200zm0 0" fill="#00935f"/></g></g></svg>