<svg xmlns="http://www.w3.org/2000/svg" width="400" height="400" viewBox="0 0 300 300"><defs><clipPath id="a"><path d="M0 0h150v300H0zm0 0"/></clipPath><clipPath id="b"><path d="M150 0a150 150 0 100 300 150 150 0 000-300zm0 0"/></clipPath><clipPath id="c"><path d="M150 0h150v150H150zm0 0"/></clipPath><clipPath id="d"><path d="M150 0a150 150 0 100 300 150 150 0 000-300zm0 0"/></clipPath><clipPath id="e"><path d="M150 150h150v150H150zm0 0"/></clipPath><clipPath id="f"><path d="M150 0a150 150 0 100 300 150 150 0 000-300zm0 0"/></clipPath><clipPath id="g"><path d="M2 100h96v91H2zm0 0"/></clipPath><clipPath id="h"><path d="M150 0a150 150 0 100 300 150 150 0 000-300zm0 0"/></clipPath></defs><g clip-path="url(#a)"><g clip-path="url(#b)"><path d="M-50 300h200V0H-50zm0 0" fill="#ce1125"/></g></g><g clip-path="url(#c)"><g clip-path="url(#d)"><path d="M150 150h400V0H150zm0 0" fill="#fbd115"/></g></g><g clip-path="url(#e)"><g clip-path="url(#f)"><path d="M150 300h400V150H150zm0 0" fill="#009e48"/></g></g><g clip-path="url(#g)"><g clip-path="url(#h)"><path d="M2.5 134.6l29.3 21.3-11.2 34.5L50 169.1l29.4 21.3L68.2 156l29.4-21.3H61.2L50 100l-11.2 34.5"/></g></g></svg>