<svg xmlns="http://www.w3.org/2000/svg" width="400" height="400" viewBox="0 0 300 300"><defs><clipPath id="a"><path d="M150 0a150 150 0 100 300 150 150 0 000-300zm0 0"/></clipPath><clipPath id="b"><path d="M0 13h300v274H0zm0 0"/></clipPath><clipPath id="c"><path d="M150 0a150 150 0 100 300 150 150 0 000-300zm0 0"/></clipPath><clipPath id="d"><path d="M0 0h150v300H0zm0 0"/></clipPath><clipPath id="e"><path d="M150 0a150 150 0 100 300 150 150 0 000-300zm0 0"/></clipPath><clipPath id="f"><path d="M0 17h121v266H0zm0 0"/></clipPath><clipPath id="g"><path d="M150 0a150 150 0 100 300 150 150 0 000-300zm0 0"/></clipPath></defs><g clip-path="url(#a)"><path fill="#009e48" d="M0 0h300v300H0z"/><path d="M-100 0l500 150-500 150" fill="#fff"/></g><g clip-path="url(#b)"><g clip-path="url(#c)"><path d="M-100 13l456 137-456 137" fill="#fbd115"/></g></g><g clip-path="url(#d)"><g clip-path="url(#e)"><path d="M-100 0l250 150-250 150"/></g></g><g clip-path="url(#f)"><g clip-path="url(#g)"><path d="M-100 17.5L120.9 150-100 282.5" fill="#ce1125"/></g></g></svg>