<svg xmlns="http://www.w3.org/2000/svg" width="400" height="400" viewBox="0 0 300 300"><defs><clipPath id="a"><path d="M150 0a150 150 0 100 300 150 150 0 000-300zm0 0"/></clipPath><clipPath id="b"><path d="M0 100h300v100H0zm0 0"/></clipPath><clipPath id="c"><path d="M150 0a150 150 0 100 300 150 150 0 000-300zm0 0"/></clipPath><clipPath id="d"><path d="M134 133h32v31h-32zm0 0"/></clipPath><clipPath id="e"><path d="M150 0a150 150 0 100 300 150 150 0 000-300zm0 0"/></clipPath><clipPath id="f"><path d="M217 106h33v31h-33zm0 0"/></clipPath><clipPath id="g"><path d="M150 0a150 150 0 100 300 150 150 0 000-300zm0 0"/></clipPath><clipPath id="h"><path d="M217 156h33v31h-33zm0 0"/></clipPath><clipPath id="i"><path d="M150 0a150 150 0 100 300 150 150 0 000-300zm0 0"/></clipPath><clipPath id="j"><path d="M50 156h33v31H50zm0 0"/></clipPath><clipPath id="k"><path d="M150 0a150 150 0 100 300 150 150 0 000-300zm0 0"/></clipPath><clipPath id="l"><path d="M50 106h33v31H50zm0 0"/></clipPath><clipPath id="m"><path d="M150 0a150 150 0 100 300 150 150 0 000-300zm0 0"/></clipPath></defs><g clip-path="url(#a)"><path fill="#0073cf" d="M0 0h300v300H0z"/></g><g clip-path="url(#b)"><g clip-path="url(#c)"><path d="M-150 200h600V100h-600zm0 0" fill="#fff"/></g></g><g clip-path="url(#d)"><g clip-path="url(#e)"><path d="M134.1 144.9l9.8 7-3.7 11.6 9.8-7.1 9.8 7-3.7-11.4 9.8-7.1h-12.2l-3.7-11.6-3.7 11.6" fill="#0073cf"/></g></g><g clip-path="url(#f)"><g clip-path="url(#g)"><path d="M217.5 118.2l9.8 7.1-3.8 11.5 9.8-7.1 9.8 7.1-3.7-11.5 9.8-7.1H237l-3.8-11.5-3.7 11.5" fill="#0073cf"/></g></g><g clip-path="url(#h)"><g clip-path="url(#i)"><path d="M217.5 168.2l9.8 7.1-3.8 11.5 9.8-7.1 9.8 7.1-3.7-11.5 9.8-7.1H237l-3.8-11.5-3.7 11.5" fill="#0073cf"/></g></g><g clip-path="url(#j)"><g clip-path="url(#k)"><path d="M50.8 168.2l9.8 7.1-3.7 11.5 9.8-7.1 9.8 7.1-3.8-11.5 9.8-7.1h-12l-3.8-11.5-3.8 11.5" fill="#0073cf"/></g></g><g clip-path="url(#l)"><g clip-path="url(#m)"><path d="M50.8 118.2l9.8 7.1-3.7 11.5 9.8-7.1 9.8 7.1-3.8-11.5 9.8-7.1h-12l-3.8-11.5-3.8 11.5" fill="#0073cf"/></g></g></svg>