<svg xmlns="http://www.w3.org/2000/svg" width="400" height="400" viewBox="0 0 300 300"><defs><clipPath id="a"><path d="M150 0a150 150 0 100 300 150 150 0 000-300zm0 0"/></clipPath><clipPath id="b"><path d="M150 106h90v46h-90zm0 0"/></clipPath><clipPath id="c"><path d="M150 0a150 150 0 100 300 150 150 0 000-300zm0 0"/></clipPath><clipPath id="d"><path d="M153 148h55v86h-55zm0 0"/></clipPath><clipPath id="e"><path d="M150 0a150 150 0 100 300 150 150 0 000-300zm0 0"/></clipPath><clipPath id="f"><path d="M81 153h78v68H81zm0 0"/></clipPath><clipPath id="g"><path d="M150 0a150 150 0 100 300 150 150 0 000-300zm0 0"/></clipPath><clipPath id="h"><path d="M69 103h79v66H69zm0 0"/></clipPath><clipPath id="i"><path d="M150 0a150 150 0 100 300 150 150 0 000-300zm0 0"/></clipPath><clipPath id="j"><path d="M120 62h52v86h-52zm0 0"/></clipPath><clipPath id="k"><path d="M150 0a150 150 0 100 300 150 150 0 000-300zm0 0"/></clipPath></defs><g clip-path="url(#a)"><path fill="#df2406" d="M0 0h300v300H0z"/></g><g clip-path="url(#b)"><g clip-path="url(#c)"><path d="M196.3 132l-5.4-1.4 4.9-2.7-.4-5.5 4 3.7 5.2-2-2.3 5 3.5 4.3-5.5-.7-3 4.6zm29 6c7.1-2.1 14.4 5 14.4 5s-6-35-46.3-36.3c-39.3 1.1-42.7 38.6-42.7 38.6.1-.6 3.6-11.7 18.8-18.4 10.1-4.6 22-1.5 22-1.5l-.3 1.3s-9.2-3.2-21.3 1.5c-14.6 5.7-18.4 18.7-18.4 18.7s6-10 18.4-8.9c3.3.3 6.3 1.8 9.9 4.2 5.7 5.4 9.5 9.3 20.1 9 16 .5 14.5-11.3 25.3-13.2" fill="#fff"/></g></g><g clip-path="url(#d)"><g clip-path="url(#e)"><path d="M181.5 188.4l-.3-5.5 4 3.8 5.2-2-2.3 5 3.5 4.2-5.5-.7-3 4.7-1-5.4-5.4-1.4zm3.2 29.4c4.3 6.2-.3 15.3-.3 15.3s31.4-16.5 20.2-55.2c-13.2-37-49.8-28.8-49.8-28.8.6 0 12.2-.1 23.2 12.3a37.4 37.4 0 018.3 20.5h-1.4s.2-9.7-8-19.7c-9.9-12.1-23.5-11.8-23.5-11.8s11.5 2.7 14.2 14.8c.7 3.2.2 6.5-.9 10.7-3.3 7.1-6 11.9-2.4 22 4.5 15.3 15.2 10.2 20.4 19.9" fill="#fff"/></g></g><g clip-path="url(#f)"><g clip-path="url(#g)"><path d="M123.3 191.8l5-2-2.2 5 3.5 4.3-5.5-.7-3 4.7-1-5.4-5.4-1.4 4.8-2.7-.3-5.5zm-27 12.1c-4.6 6-14.6 4.5-14.6 4.5s25.3 24.7 58.7 2.2c31.2-24 12-56.3 12-56.3.2.5 3.8 11.5-4.5 25.8-5.5 9.7-17 14.2-17 14.2l-.5-1.2s9.3-2.8 16.4-13.7c8.4-13.2 3.9-26 3.9-26s1 11.7-9.7 18a22.3 22.3 0 01-10.4 2.5c-7.8-1-13.2-2-21.6 4.5-13.3 9-5.1 17.6-12.7 25.5" fill="#fff"/></g></g><g clip-path="url(#h)"><g clip-path="url(#i)"><path d="M102 137.5l3.5 4.2-5.5-.6-3 4.6-1-5.4-5.3-1.4 4.8-2.7-.4-5.5 4 3.8 5.2-2zm-19.8-22c-7.1-2.4-8.8-12.4-8.8-12.4s-15.7 31.7 16 56.4c32.6 22.3 57.3-6 57.3-6-.4.4-9.7 7.3-26 3.8-10.9-2.3-18.7-11.8-18.7-11.8l1-.8s5.6 8 18.1 11.3c15.2 4 26-4.3 26-4.3s-10.9 4.6-20.2-3.6c-2.5-2.2-4-5.2-5.5-9.2-1.5-7.7-2.2-13.1-11-19.2-12.7-9.8-18.4.6-28.2-4.1" fill="#fff"/></g></g><g clip-path="url(#j)"><g clip-path="url(#k)"><path d="M147.1 100.5l-3 4.6-1-5.4-5.3-1.4 4.8-2.7-.4-5.5 4 3.8 5.2-2-2.3 5 3.5 4.2zm14.7-25.7c.2-7.5 9.2-12.2 9.2-12.2s-35-5.1-48.7 32.8c-11.1 37.8 23.4 52.6 23.4 52.6-.5-.4-10-7-11.6-23.6-1.3-11 5.4-21.5 5.4-21.5l1 .7s-5.8 7.8-5.1 20.8c1 15.6 12.1 23.3 12.1 23.3s-7.7-8.9-2.7-20.3c1.3-3 3.6-5.4 7-8 6.9-3.9 11.8-6.2 14.8-16.5 5.4-15-6.3-17.2-4.8-28" fill="#fff"/></g></g></svg>