<svg xmlns="http://www.w3.org/2000/svg" width="400" height="400" viewBox="0 0 300 300"><defs><clipPath id="a"><path d="M150 0C67.156 0 0 67.156 0 150s67.156 150 150 150 150-67.156 150-150S232.844 0 150 0zm0 0"/></clipPath><clipPath id="b"><path d="M0 100h300v100H0zm0 0"/></clipPath><clipPath id="c"><path d="M150 0C67.156 0 0 67.156 0 150s67.156 150 150 150 150-67.156 150-150S232.844 0 150 0zm0 0"/></clipPath><clipPath id="d"><path d="M0 200h300v100H0zm0 0"/></clipPath><clipPath id="e"><path d="M150 0C67.156 0 0 67.156 0 150s67.156 150 150 150 150-67.156 150-150S232.844 0 150 0zm0 0"/></clipPath><clipPath id="f"><path d="M110 110h80v80h-80zm0 0"/></clipPath><clipPath id="g"><path d="M150 0C67.156 0 0 67.156 0 150s67.156 150 150 150 150-67.156 150-150S232.844 0 150 0zm0 0"/></clipPath><clipPath id="h"><path d="M115 115h70v70h-70zm0 0"/></clipPath><clipPath id="i"><path d="M150 0C67.156 0 0 67.156 0 150s67.156 150 150 150 150-67.156 150-150S232.844 0 150 0zm0 0"/></clipPath><clipPath id="j"><path d="M143 143h14v14h-14zm0 0"/></clipPath><clipPath id="k"><path d="M150 0C67.156 0 0 67.156 0 150s67.156 150 150 150 150-67.156 150-150S232.844 0 150 0zm0 0"/></clipPath><clipPath id="l"><path d="M182 152h5v5h-5zm0 0"/></clipPath><clipPath id="m"><path d="M150 0C67.156 0 0 67.156 0 150s67.156 150 150 150 150-67.156 150-150S232.844 0 150 0zm0 0"/></clipPath><clipPath id="n"><path d="M148 154h4v31h-4zm0 0"/></clipPath><clipPath id="o"><path d="M150 0C67.156 0 0 67.156 0 150s67.156 150 150 150 150-67.156 150-150S232.844 0 150 0zm0 0"/></clipPath><clipPath id="p"><path d="M180 161h5v5h-5zm0 0"/></clipPath><clipPath id="q"><path d="M150 0C67.156 0 0 67.156 0 150s67.156 150 150 150 150-67.156 150-150S232.844 0 150 0zm0 0"/></clipPath><clipPath id="r"><path d="M140 153h9v31h-9zm0 0"/></clipPath><clipPath id="s"><path d="M150 0C67.156 0 0 67.156 0 150s67.156 150 150 150 150-67.156 150-150S232.844 0 150 0zm0 0"/></clipPath><clipPath id="t"><path d="M176 169h4v5h-4zm0 0"/></clipPath><clipPath id="u"><path d="M150 0C67.156 0 0 67.156 0 150s67.156 150 150 150 150-67.156 150-150S232.844 0 150 0zm0 0"/></clipPath><clipPath id="v"><path d="M132 153h16v28h-16zm0 0"/></clipPath><clipPath id="w"><path d="M150 0C67.156 0 0 67.156 0 150s67.156 150 150 150 150-67.156 150-150S232.844 0 150 0zm0 0"/></clipPath><clipPath id="x"><path d="M169 176h5v4h-5zm0 0"/></clipPath><clipPath id="y"><path d="M150 0C67.156 0 0 67.156 0 150s67.156 150 150 150 150-67.156 150-150S232.844 0 150 0zm0 0"/></clipPath><clipPath id="z"><path d="M125 152h23v23h-23zm0 0"/></clipPath><clipPath id="A"><path d="M150 0C67.156 0 0 67.156 0 150s67.156 150 150 150 150-67.156 150-150S232.844 0 150 0zm0 0"/></clipPath><clipPath id="B"><path d="M161 180h5v5h-5zm0 0"/></clipPath><clipPath id="C"><path d="M150 0C67.156 0 0 67.156 0 150s67.156 150 150 150 150-67.156 150-150S232.844 0 150 0zm0 0"/></clipPath><clipPath id="D"><path d="M119 152h28v16h-28zm0 0"/></clipPath><clipPath id="E"><path d="M150 0C67.156 0 0 67.156 0 150s67.156 150 150 150 150-67.156 150-150S232.844 0 150 0zm0 0"/></clipPath><clipPath id="F"><path d="M152 182h5v5h-5zm0 0"/></clipPath><clipPath id="G"><path d="M150 0C67.156 0 0 67.156 0 150s67.156 150 150 150 150-67.156 150-150S232.844 0 150 0zm0 0"/></clipPath><clipPath id="H"><path d="M116 151h31v9h-31zm0 0"/></clipPath><clipPath id="I"><path d="M150 0C67.156 0 0 67.156 0 150s67.156 150 150 150 150-67.156 150-150S232.844 0 150 0zm0 0"/></clipPath><clipPath id="J"><path d="M143 182h5v5h-5zm0 0"/></clipPath><clipPath id="K"><path d="M150 0C67.156 0 0 67.156 0 150s67.156 150 150 150 150-67.156 150-150S232.844 0 150 0zm0 0"/></clipPath><clipPath id="L"><path d="M115 148h31v4h-31zm0 0"/></clipPath><clipPath id="M"><path d="M150 0C67.156 0 0 67.156 0 150s67.156 150 150 150 150-67.156 150-150S232.844 0 150 0zm0 0"/></clipPath><clipPath id="N"><path d="M134 180h5v5h-5zm0 0"/></clipPath><clipPath id="O"><path d="M150 0C67.156 0 0 67.156 0 150s67.156 150 150 150 150-67.156 150-150S232.844 0 150 0zm0 0"/></clipPath><clipPath id="P"><path d="M116 140h31v9h-31zm0 0"/></clipPath><clipPath id="Q"><path d="M150 0C67.156 0 0 67.156 0 150s67.156 150 150 150 150-67.156 150-150S232.844 0 150 0zm0 0"/></clipPath><clipPath id="R"><path d="M126 176h5v4h-5zm0 0"/></clipPath><clipPath id="S"><path d="M150 0C67.156 0 0 67.156 0 150s67.156 150 150 150 150-67.156 150-150S232.844 0 150 0zm0 0"/></clipPath><clipPath id="T"><path d="M119 132h28v16h-28zm0 0"/></clipPath><clipPath id="U"><path d="M150 0C67.156 0 0 67.156 0 150s67.156 150 150 150 150-67.156 150-150S232.844 0 150 0zm0 0"/></clipPath><clipPath id="V"><path d="M120 169h4v5h-4zm0 0"/></clipPath><clipPath id="W"><path d="M150 0C67.156 0 0 67.156 0 150s67.156 150 150 150 150-67.156 150-150S232.844 0 150 0zm0 0"/></clipPath><clipPath id="X"><path d="M125 125h23v23h-23zm0 0"/></clipPath><clipPath id="Y"><path d="M150 0C67.156 0 0 67.156 0 150s67.156 150 150 150 150-67.156 150-150S232.844 0 150 0zm0 0"/></clipPath><clipPath id="Z"><path d="M115 161h5v5h-5zm0 0"/></clipPath><clipPath id="aa"><path d="M150 0C67.156 0 0 67.156 0 150s67.156 150 150 150 150-67.156 150-150S232.844 0 150 0zm0 0"/></clipPath><clipPath id="ab"><path d="M132 119h16v28h-16zm0 0"/></clipPath><clipPath id="ac"><path d="M150 0C67.156 0 0 67.156 0 150s67.156 150 150 150 150-67.156 150-150S232.844 0 150 0zm0 0"/></clipPath><clipPath id="ad"><path d="M113 152h5v5h-5zm0 0"/></clipPath><clipPath id="ae"><path d="M150 0C67.156 0 0 67.156 0 150s67.156 150 150 150 150-67.156 150-150S232.844 0 150 0zm0 0"/></clipPath><clipPath id="af"><path d="M140 116h9v31h-9zm0 0"/></clipPath><clipPath id="ag"><path d="M150 0C67.156 0 0 67.156 0 150s67.156 150 150 150 150-67.156 150-150S232.844 0 150 0zm0 0"/></clipPath><clipPath id="ah"><path d="M113 143h5v5h-5zm0 0"/></clipPath><clipPath id="ai"><path d="M150 0C67.156 0 0 67.156 0 150s67.156 150 150 150 150-67.156 150-150S232.844 0 150 0zm0 0"/></clipPath><clipPath id="aj"><path d="M148 115h4v31h-4zm0 0"/></clipPath><clipPath id="ak"><path d="M150 0C67.156 0 0 67.156 0 150s67.156 150 150 150 150-67.156 150-150S232.844 0 150 0zm0 0"/></clipPath><clipPath id="al"><path d="M115 134h5v5h-5zm0 0"/></clipPath><clipPath id="am"><path d="M150 0C67.156 0 0 67.156 0 150s67.156 150 150 150 150-67.156 150-150S232.844 0 150 0zm0 0"/></clipPath><clipPath id="an"><path d="M151 116h9v31h-9zm0 0"/></clipPath><clipPath id="ao"><path d="M150 0C67.156 0 0 67.156 0 150s67.156 150 150 150 150-67.156 150-150S232.844 0 150 0zm0 0"/></clipPath><clipPath id="ap"><path d="M120 126h4v5h-4zm0 0"/></clipPath><clipPath id="aq"><path d="M150 0C67.156 0 0 67.156 0 150s67.156 150 150 150 150-67.156 150-150S232.844 0 150 0zm0 0"/></clipPath><clipPath id="ar"><path d="M152 119h16v28h-16zm0 0"/></clipPath><clipPath id="as"><path d="M150 0C67.156 0 0 67.156 0 150s67.156 150 150 150 150-67.156 150-150S232.844 0 150 0zm0 0"/></clipPath><clipPath id="at"><path d="M126 120h5v4h-5zm0 0"/></clipPath><clipPath id="au"><path d="M150 0C67.156 0 0 67.156 0 150s67.156 150 150 150 150-67.156 150-150S232.844 0 150 0zm0 0"/></clipPath><clipPath id="av"><path d="M152 125h23v23h-23zm0 0"/></clipPath><clipPath id="aw"><path d="M150 0C67.156 0 0 67.156 0 150s67.156 150 150 150 150-67.156 150-150S232.844 0 150 0zm0 0"/></clipPath><clipPath id="ax"><path d="M134 115h5v5h-5zm0 0"/></clipPath><clipPath id="ay"><path d="M150 0C67.156 0 0 67.156 0 150s67.156 150 150 150 150-67.156 150-150S232.844 0 150 0zm0 0"/></clipPath><clipPath id="az"><path d="M153 132h28v16h-28zm0 0"/></clipPath><clipPath id="aA"><path d="M150 0C67.156 0 0 67.156 0 150s67.156 150 150 150 150-67.156 150-150S232.844 0 150 0zm0 0"/></clipPath><clipPath id="aB"><path d="M143 113h5v5h-5zm0 0"/></clipPath><clipPath id="aC"><path d="M150 0C67.156 0 0 67.156 0 150s67.156 150 150 150 150-67.156 150-150S232.844 0 150 0zm0 0"/></clipPath><clipPath id="aD"><path d="M153 140h31v9h-31zm0 0"/></clipPath><clipPath id="aE"><path d="M150 0C67.156 0 0 67.156 0 150s67.156 150 150 150 150-67.156 150-150S232.844 0 150 0zm0 0"/></clipPath><clipPath id="aF"><path d="M152 113h5v5h-5zm0 0"/></clipPath><clipPath id="aG"><path d="M150 0C67.156 0 0 67.156 0 150s67.156 150 150 150 150-67.156 150-150S232.844 0 150 0zm0 0"/></clipPath><clipPath id="aH"><path d="M154 148h31v4h-31zm0 0"/></clipPath><clipPath id="aI"><path d="M150 0C67.156 0 0 67.156 0 150s67.156 150 150 150 150-67.156 150-150S232.844 0 150 0zm0 0"/></clipPath><clipPath id="aJ"><path d="M161 115h5v5h-5zm0 0"/></clipPath><clipPath id="aK"><path d="M150 0C67.156 0 0 67.156 0 150s67.156 150 150 150 150-67.156 150-150S232.844 0 150 0zm0 0"/></clipPath><clipPath id="aL"><path d="M153 151h31v9h-31zm0 0"/></clipPath><clipPath id="aM"><path d="M150 0C67.156 0 0 67.156 0 150s67.156 150 150 150 150-67.156 150-150S232.844 0 150 0zm0 0"/></clipPath><clipPath id="aN"><path d="M169 120h5v4h-5zm0 0"/></clipPath><clipPath id="aO"><path d="M150 0C67.156 0 0 67.156 0 150s67.156 150 150 150 150-67.156 150-150S232.844 0 150 0zm0 0"/></clipPath><clipPath id="aP"><path d="M153 152h28v16h-28zm0 0"/></clipPath><clipPath id="aQ"><path d="M150 0C67.156 0 0 67.156 0 150s67.156 150 150 150 150-67.156 150-150S232.844 0 150 0zm0 0"/></clipPath><clipPath id="aR"><path d="M176 126h4v5h-4zm0 0"/></clipPath><clipPath id="aS"><path d="M150 0C67.156 0 0 67.156 0 150s67.156 150 150 150 150-67.156 150-150S232.844 0 150 0zm0 0"/></clipPath><clipPath id="aT"><path d="M152 152h23v23h-23zm0 0"/></clipPath><clipPath id="aU"><path d="M150 0C67.156 0 0 67.156 0 150s67.156 150 150 150 150-67.156 150-150S232.844 0 150 0zm0 0"/></clipPath><clipPath id="aV"><path d="M180 134h5v5h-5zm0 0"/></clipPath><clipPath id="aW"><path d="M150 0C67.156 0 0 67.156 0 150s67.156 150 150 150 150-67.156 150-150S232.844 0 150 0zm0 0"/></clipPath><clipPath id="aX"><path d="M152 153h16v28h-16zm0 0"/></clipPath><clipPath id="aY"><path d="M150 0C67.156 0 0 67.156 0 150s67.156 150 150 150 150-67.156 150-150S232.844 0 150 0zm0 0"/></clipPath><clipPath id="aZ"><path d="M182 143h5v5h-5zm0 0"/></clipPath><clipPath id="ba"><path d="M150 0C67.156 0 0 67.156 0 150s67.156 150 150 150 150-67.156 150-150S232.844 0 150 0zm0 0"/></clipPath><clipPath id="bb"><path d="M151 153h9v31h-9zm0 0"/></clipPath><clipPath id="bc"><path d="M150 0C67.156 0 0 67.156 0 150s67.156 150 150 150 150-67.156 150-150S232.844 0 150 0zm0 0"/></clipPath></defs><g clip-path="url(#a)"><path fill="#f93" d="M0 0h300v300H0z"/></g><g clip-path="url(#b)"><g clip-path="url(#c)"><path d="M-75 200h450V100H-75zm0 0" fill="#fff"/></g></g><g clip-path="url(#d)"><g clip-path="url(#e)"><path d="M-75 300h450V200H-75zm0 0" fill="#128706"/></g></g><g clip-path="url(#f)"><g clip-path="url(#g)"><path d="M150 110c22.09 0 40 17.91 40 40s-17.91 40-40 40-40-17.91-40-40 17.91-40 40-40" fill="#000087"/></g></g><g clip-path="url(#h)"><g clip-path="url(#i)"><path d="M150 115c19.328 0 35 15.672 35 35s-15.672 35-35 35-35-15.672-35-35 15.672-35 35-35" fill="#fff"/></g></g><g clip-path="url(#j)"><g clip-path="url(#k)"><path d="M150 143c3.867 0 7 3.133 7 7s-3.133 7-7 7-7-3.133-7-7 3.133-7 7-7" fill="#000087"/></g></g><g clip-path="url(#l)"><g clip-path="url(#m)"><path d="M184.93 152.836a1.75 1.75 0 11-.456 3.47 1.75 1.75 0 01.456-3.47" fill="#000087"/></g></g><g clip-path="url(#n)"><g clip-path="url(#o)"><path d="M150 185l1.2-21-1.2-10-1.2 10zm0 0" fill="#000087"/></g></g><g clip-path="url(#p)"><g clip-path="url(#q)"><path d="M183.004 161.777a1.752 1.752 0 01-1.34 3.235 1.75 1.75 0 011.34-3.234" fill="#000087"/></g></g><g clip-path="url(#r)"><g clip-path="url(#s)"><path d="M140.941 183.809l6.594-19.973 1.43-9.973-3.746 9.348zm0 0" fill="#000087"/></g></g><g clip-path="url(#t)"><g clip-path="url(#u)"><path d="M178.832 169.918a1.75 1.75 0 11-2.128 2.777 1.75 1.75 0 012.128-2.777" fill="#000087"/></g></g><g clip-path="url(#v)"><g clip-path="url(#w)"><path d="M132.5 180.313l11.54-17.59 3.96-9.258-6.04 8.058zm0 0" fill="#000087"/></g></g><g clip-path="url(#x)"><g clip-path="url(#y)"><path d="M172.695 176.703a1.75 1.75 0 11-2.776 2.13 1.75 1.75 0 012.776-2.13" fill="#000087"/></g></g><g clip-path="url(#z)"><g clip-path="url(#A)"><path d="M125.25 174.75l15.7-14.004 6.222-7.918-7.918 6.223zm0 0" fill="#000087"/></g></g><g clip-path="url(#B)"><g clip-path="url(#C)"><path d="M165.012 181.664a1.75 1.75 0 11-3.234 1.342 1.75 1.75 0 013.234-1.342" fill="#000087"/></g></g><g clip-path="url(#D)"><g clip-path="url(#E)"><path d="M119.688 167.5l18.789-9.46 8.058-6.04-9.258 3.96zm0 0" fill="#000087"/></g></g><g clip-path="url(#F)"><g clip-path="url(#G)"><path d="M156.305 184.473a1.756 1.756 0 01-1.508 1.964 1.75 1.75 0 01-1.961-1.507 1.748 1.748 0 113.469-.457" fill="#000087"/></g></g><g clip-path="url(#H)"><g clip-path="url(#I)"><path d="M116.191 159.059l20.598-4.278 9.348-3.746-9.973 1.43zm0 0" fill="#000087"/></g></g><g clip-path="url(#J)"><g clip-path="url(#K)"><path d="M147.164 184.93a1.75 1.75 0 11-3.47-.456 1.75 1.75 0 013.47.456" fill="#000087"/></g></g><g clip-path="url(#L)"><g clip-path="url(#M)"><path d="M115 150l21 1.2 10-1.2-10-1.2zm0 0" fill="#000087"/></g></g><g clip-path="url(#N)"><g clip-path="url(#O)"><path d="M138.223 183.004a1.751 1.751 0 11-3.234-1.34 1.75 1.75 0 013.234 1.34" fill="#000087"/></g></g><g clip-path="url(#P)"><g clip-path="url(#Q)"><path d="M116.191 140.941l19.973 6.594 9.973 1.43-9.348-3.746zm0 0" fill="#000087"/></g></g><g clip-path="url(#R)"><g clip-path="url(#S)"><path d="M130.082 178.832a1.75 1.75 0 11-2.777-2.128 1.75 1.75 0 012.777 2.128" fill="#000087"/></g></g><g clip-path="url(#T)"><g clip-path="url(#U)"><path d="M119.688 132.5l17.59 11.54 9.257 3.96-8.058-6.04zm0 0" fill="#000087"/></g></g><g clip-path="url(#V)"><g clip-path="url(#W)"><path d="M123.297 172.695a1.75 1.75 0 11-2.13-2.776 1.75 1.75 0 012.13 2.776" fill="#000087"/></g></g><g clip-path="url(#X)"><g clip-path="url(#Y)"><path d="M125.25 125.25l14.004 15.7 7.918 6.222-6.223-7.918zm0 0" fill="#000087"/></g></g><g clip-path="url(#Z)"><g clip-path="url(#aa)"><path d="M118.336 165.012a1.751 1.751 0 11-1.34-3.235 1.748 1.748 0 012.285.95 1.75 1.75 0 01-.945 2.285" fill="#000087"/></g></g><g clip-path="url(#ab)"><g clip-path="url(#ac)"><path d="M132.5 119.688l9.46 18.789 6.04 8.058-3.96-9.258zm0 0" fill="#000087"/></g></g><g clip-path="url(#ad)"><g clip-path="url(#ae)"><path d="M115.527 156.305a1.75 1.75 0 11-.457-3.469 1.748 1.748 0 11.457 3.469" fill="#000087"/></g></g><g clip-path="url(#af)"><g clip-path="url(#ag)"><path d="M140.941 116.191l4.278 20.598 3.746 9.348-1.43-9.969zm0 0" fill="#000087"/></g></g><g clip-path="url(#ah)"><g clip-path="url(#ai)"><path d="M115.07 147.168a1.756 1.756 0 01-1.507-1.965 1.756 1.756 0 011.964-1.508 1.756 1.756 0 011.508 1.965 1.756 1.756 0 01-1.965 1.508" fill="#000087"/></g></g><g clip-path="url(#aj)"><g clip-path="url(#ak)"><path d="M150 115l-1.2 21 1.2 10 1.2-10zm0 0" fill="#000087"/></g></g><g clip-path="url(#al)"><g clip-path="url(#am)"><path d="M116.996 138.223a1.751 1.751 0 111.34-3.234 1.75 1.75 0 01-1.34 3.234" fill="#000087"/></g></g><g clip-path="url(#an)"><g clip-path="url(#ao)"><path d="M159.059 116.191l-6.594 19.977-1.43 9.969 3.746-9.348zm0 0" fill="#000087"/></g></g><g clip-path="url(#ap)"><g clip-path="url(#aq)"><path d="M121.168 130.082a1.75 1.75 0 112.128-2.777 1.75 1.75 0 01-2.128 2.777" fill="#000087"/></g></g><g clip-path="url(#ar)"><g clip-path="url(#as)"><path d="M167.5 119.688l-11.54 17.59-3.96 9.257 6.04-8.058zm0 0" fill="#000087"/></g></g><g clip-path="url(#at)"><g clip-path="url(#au)"><path d="M127.305 123.297a1.75 1.75 0 112.776-2.13 1.75 1.75 0 01-2.776 2.13" fill="#000087"/></g></g><g clip-path="url(#av)"><g clip-path="url(#aw)"><path d="M174.75 125.25l-15.7 14.004-6.222 7.918 7.918-6.223zm0 0" fill="#000087"/></g></g><g clip-path="url(#ax)"><g clip-path="url(#ay)"><path d="M134.988 118.336a1.751 1.751 0 013.235-1.344 1.751 1.751 0 01-3.235 1.344" fill="#000087"/></g></g><g clip-path="url(#az)"><g clip-path="url(#aA)"><path d="M180.313 132.5l-18.79 9.46-8.058 6.04 9.258-3.96zm0 0" fill="#000087"/></g></g><g clip-path="url(#aB)"><g clip-path="url(#aC)"><path d="M143.695 115.527a1.75 1.75 0 113.469-.457 1.748 1.748 0 11-3.469.457" fill="#000087"/></g></g><g clip-path="url(#aD)"><g clip-path="url(#aE)"><path d="M183.809 140.941l-20.598 4.278-9.348 3.746 9.969-1.43zm0 0" fill="#000087"/></g></g><g clip-path="url(#aF)"><g clip-path="url(#aG)"><path d="M152.832 115.07a1.756 1.756 0 011.965-1.507 1.756 1.756 0 011.508 1.964 1.756 1.756 0 01-1.965 1.508 1.754 1.754 0 01-1.508-1.965" fill="#000087"/></g></g><g clip-path="url(#aH)"><g clip-path="url(#aI)"><path d="M185 150l-21-1.2-10 1.2 10 1.2zm0 0" fill="#000087"/></g></g><g clip-path="url(#aJ)"><g clip-path="url(#aK)"><path d="M161.777 116.996a1.751 1.751 0 113.233 1.339 1.751 1.751 0 01-3.233-1.339" fill="#000087"/></g></g><g clip-path="url(#aL)"><g clip-path="url(#aM)"><path d="M183.809 159.059l-19.977-6.594-9.969-1.43 9.348 3.746zm0 0" fill="#000087"/></g></g><g clip-path="url(#aN)"><g clip-path="url(#aO)"><path d="M169.918 121.168a1.75 1.75 0 112.777 2.128 1.75 1.75 0 01-2.777-2.128" fill="#000087"/></g></g><g clip-path="url(#aP)"><g clip-path="url(#aQ)"><path d="M180.313 167.5l-17.59-11.54-9.258-3.96 8.058 6.04zm0 0" fill="#000087"/></g></g><g clip-path="url(#aR)"><g clip-path="url(#aS)"><path d="M176.703 127.305a1.75 1.75 0 112.13 2.776 1.75 1.75 0 01-2.13-2.776" fill="#000087"/></g></g><g clip-path="url(#aT)"><g clip-path="url(#aU)"><path d="M174.75 174.75l-14.004-15.7-7.918-6.222 6.223 7.918zm0 0" fill="#000087"/></g></g><g clip-path="url(#aV)"><g clip-path="url(#aW)"><path d="M181.664 134.988a1.751 1.751 0 111.34 3.235 1.748 1.748 0 01-2.285-.95 1.75 1.75 0 01.945-2.285" fill="#000087"/></g></g><g clip-path="url(#aX)"><g clip-path="url(#aY)"><path d="M167.5 180.313l-9.46-18.79-6.04-8.058 3.96 9.258zm0 0" fill="#000087"/></g></g><g clip-path="url(#aZ)"><g clip-path="url(#ba)"><path d="M184.473 143.695a1.756 1.756 0 011.964 1.508 1.75 1.75 0 01-1.507 1.961 1.748 1.748 0 11-.457-3.469" fill="#000087"/></g></g><g clip-path="url(#bb)"><g clip-path="url(#bc)"><path d="M159.059 183.809l-4.278-20.598-3.746-9.348 1.43 9.973zm0 0" fill="#000087"/></g></g></svg>