<svg xmlns="http://www.w3.org/2000/svg" width="400" height="400" viewBox="0 0 300 300"><defs><clipPath id="a"><path d="M150 0a150 150 0 100 300 150 150 0 000-300zm0 0"/></clipPath><clipPath id="b"><path d="M0 100h300v100H0zm0 0"/></clipPath><clipPath id="c"><path d="M150 0a150 150 0 100 300 150 150 0 000-300zm0 0"/></clipPath><clipPath id="d"><path d="M0 200h300v100H0zm0 0"/></clipPath><clipPath id="e"><path d="M150 0a150 150 0 100 300 150 150 0 000-300zm0 0"/></clipPath><clipPath id="f"><path d="M126 82h48v15h-48zm0 0"/></clipPath><clipPath id="g"><path d="M150 0a150 150 0 100 300 150 150 0 000-300zm0 0"/></clipPath><clipPath id="h"><path d="M126 97h48v5h-48zm0 0"/></clipPath><clipPath id="i"><path d="M150 0a150 150 0 100 300 150 150 0 000-300zm0 0"/></clipPath><clipPath id="j"><path d="M126 203h48v15h-48zm0 0"/></clipPath><clipPath id="k"><path d="M150 0a150 150 0 100 300 150 150 0 000-300zm0 0"/></clipPath><clipPath id="l"><path d="M126 198h48v5h-48zm0 0"/></clipPath><clipPath id="m"><path d="M150 0a150 150 0 100 300 150 150 0 000-300zm0 0"/></clipPath><clipPath id="n"><path d="M173 82h47v15h-47zm0 0"/></clipPath><clipPath id="o"><path d="M150 0a150 150 0 100 300 150 150 0 000-300zm0 0"/></clipPath><clipPath id="p"><path d="M173 97h47v5h-47zm0 0"/></clipPath><clipPath id="q"><path d="M150 0a150 150 0 100 300 150 150 0 000-300zm0 0"/></clipPath><clipPath id="r"><path d="M173 203h47v15h-47zm0 0"/></clipPath><clipPath id="s"><path d="M150 0a150 150 0 100 300 150 150 0 000-300zm0 0"/></clipPath><clipPath id="t"><path d="M173 198h47v5h-47zm0 0"/></clipPath><clipPath id="u"><path d="M150 0a150 150 0 100 300 150 150 0 000-300zm0 0"/></clipPath><clipPath id="v"><path d="M33 82h48v15H33zm0 0"/></clipPath><clipPath id="w"><path d="M150 0a150 150 0 100 300 150 150 0 000-300zm0 0"/></clipPath><clipPath id="x"><path d="M33 97h48v5H33zm0 0"/></clipPath><clipPath id="y"><path d="M150 0a150 150 0 100 300 150 150 0 000-300zm0 0"/></clipPath><clipPath id="z"><path d="M33 203h48v15H33zm0 0"/></clipPath><clipPath id="A"><path d="M150 0a150 150 0 100 300 150 150 0 000-300zm0 0"/></clipPath><clipPath id="B"><path d="M33 198h48v5H33zm0 0"/></clipPath><clipPath id="C"><path d="M150 0a150 150 0 100 300 150 150 0 000-300zm0 0"/></clipPath><clipPath id="D"><path d="M80 82h47v15H80zm0 0"/></clipPath><clipPath id="E"><path d="M150 0a150 150 0 100 300 150 150 0 000-300zm0 0"/></clipPath><clipPath id="F"><path d="M80 97h47v5H80zm0 0"/></clipPath><clipPath id="G"><path d="M150 0a150 150 0 100 300 150 150 0 000-300zm0 0"/></clipPath><clipPath id="H"><path d="M80 203h47v15H80zm0 0"/></clipPath><clipPath id="I"><path d="M150 0a150 150 0 100 300 150 150 0 000-300zm0 0"/></clipPath><clipPath id="J"><path d="M80 198h47v5H80zm0 0"/></clipPath><clipPath id="K"><path d="M150 0a150 150 0 100 300 150 150 0 000-300zm0 0"/></clipPath><clipPath id="L"><path d="M219 82h48v15h-48zm0 0"/></clipPath><clipPath id="M"><path d="M150 0a150 150 0 100 300 150 150 0 000-300zm0 0"/></clipPath><clipPath id="N"><path d="M219 97h48v5h-48zm0 0"/></clipPath><clipPath id="O"><path d="M150 0a150 150 0 100 300 150 150 0 000-300zm0 0"/></clipPath><clipPath id="P"><path d="M219 203h48v15h-48zm0 0"/></clipPath><clipPath id="Q"><path d="M150 0a150 150 0 100 300 150 150 0 000-300zm0 0"/></clipPath><clipPath id="R"><path d="M219 198h48v5h-48zm0 0"/></clipPath><clipPath id="S"><path d="M150 0a150 150 0 100 300 150 150 0 000-300zm0 0"/></clipPath><clipPath id="T"><path d="M266 82h34v15h-34zm0 0"/></clipPath><clipPath id="U"><path d="M150 0a150 150 0 100 300 150 150 0 000-300zm0 0"/></clipPath><clipPath id="V"><path d="M266 97h34v5h-34zm0 0"/></clipPath><clipPath id="W"><path d="M150 0a150 150 0 100 300 150 150 0 000-300zm0 0"/></clipPath><clipPath id="X"><path d="M266 203h34v15h-34zm0 0"/></clipPath><clipPath id="Y"><path d="M150 0a150 150 0 100 300 150 150 0 000-300zm0 0"/></clipPath><clipPath id="Z"><path d="M266 198h34v5h-34zm0 0"/></clipPath><clipPath id="aa"><path d="M150 0a150 150 0 100 300 150 150 0 000-300zm0 0"/></clipPath><clipPath id="ab"><path d="M0 82h34v15H0zm0 0"/></clipPath><clipPath id="ac"><path d="M150 0a150 150 0 100 300 150 150 0 000-300zm0 0"/></clipPath><clipPath id="ad"><path d="M0 97h34v5H0zm0 0"/></clipPath><clipPath id="ae"><path d="M150 0a150 150 0 100 300 150 150 0 000-300zm0 0"/></clipPath><clipPath id="af"><path d="M0 203h34v15H0zm0 0"/></clipPath><clipPath id="ag"><path d="M150 0a150 150 0 100 300 150 150 0 000-300zm0 0"/></clipPath><clipPath id="ah"><path d="M0 198h34v5H0zm0 0"/></clipPath><clipPath id="ai"><path d="M150 0a150 150 0 100 300 150 150 0 000-300zm0 0"/></clipPath><clipPath id="aj"><path d="M165 123h22v52h-22zm0 0"/></clipPath><clipPath id="ak"><path d="M150 0a150 150 0 100 300 150 150 0 000-300zm0 0"/></clipPath><clipPath id="al"><path d="M140 114h20v9h-20zm0 0"/></clipPath><clipPath id="am"><path d="M150 0a150 150 0 100 300 150 150 0 000-300zm0 0"/></clipPath><clipPath id="an"><path d="M126 121h48v66h-48zm0 0"/></clipPath><clipPath id="ao"><path d="M150 0a150 150 0 100 300 150 150 0 000-300zm0 0"/></clipPath><clipPath id="ap"><path d="M113 123h22v52h-22zm0 0"/></clipPath><clipPath id="aq"><path d="M150 0a150 150 0 100 300 150 150 0 000-300zm0 0"/></clipPath></defs><g clip-path="url(#a)"><path fill="#229f40" d="M0 0h300v300H0z"/></g><g clip-path="url(#b)"><g clip-path="url(#c)"><path d="M-111.6 200h523.2V100h-523.2zm0 0" fill="#fff"/></g></g><g clip-path="url(#d)"><g clip-path="url(#e)"><path d="M-111.6 300h523.2V200h-523.2zm0 0" fill="#da0000"/></g></g><g clip-path="url(#f)"><g clip-path="url(#g)"><path d="M133.7 94.2h0m32.6-9.4v9.4m-4.7-4.7v4.7h9.3v-9.4m-14 9.4h-4.6v-4.7h9.3v-4.7m-32.5 9.4v-4.7h9.3v4.7h9.3v-4.7H143m-14-4.7h28" fill="none" stroke-width="3" stroke-linecap="square" stroke="#fff"/></g></g><g clip-path="url(#h)"><g clip-path="url(#i)"><path d="M152.3 99.3H171m-41.8 0h18.6" fill="none" stroke-width="3" stroke-linecap="square" stroke="#fff"/></g></g><g clip-path="url(#j)"><g clip-path="url(#k)"><path d="M133.7 215.2h0m32.6-9.4v9.4m-4.7-4.7v4.7h9.3v-9.4m-14 9.4h-4.6v-4.7h9.3v-4.7m-32.5 9.4v-4.7h9.3v4.7h9.3v-4.7H143m-14-4.7h28" fill="none" stroke-width="3" stroke-linecap="square" stroke="#fff"/></g></g><g clip-path="url(#l)"><g clip-path="url(#m)"><path d="M152.3 200.7H171m-41.8 0h18.6" fill="none" stroke-width="3" stroke-linecap="square" stroke="#fff"/></g></g><g clip-path="url(#n)"><g clip-path="url(#o)"><path d="M180.2 94.2h0m32.6-9.4v9.4m-4.7-4.7v4.7h9.3v-9.4m-14 9.4h-4.6v-4.7h9.3v-4.7m-32.5 9.4v-4.7h9.3v4.7h9.3v-4.7h-4.7m-14-4.7h28" fill="none" stroke-width="3" stroke-linecap="square" stroke="#fff"/></g></g><g clip-path="url(#p)"><g clip-path="url(#q)"><path d="M198.8 99.3h18.6m-41.8 0h18.6" fill="none" stroke-width="3" stroke-linecap="square" stroke="#fff"/></g></g><g clip-path="url(#r)"><g clip-path="url(#s)"><path d="M180.2 215.2h0m32.6-9.4v9.4m-4.7-4.7v4.7h9.3v-9.4m-14 9.4h-4.6v-4.7h9.3v-4.7m-32.5 9.4v-4.7h9.3v4.7h9.3v-4.7h-4.7m-14-4.7h28" fill="none" stroke-width="3" stroke-linecap="square" stroke="#fff"/></g></g><g clip-path="url(#t)"><g clip-path="url(#u)"><path d="M198.8 200.7h18.6m-41.8 0h18.6" fill="none" stroke-width="3" stroke-linecap="square" stroke="#fff"/></g></g><g clip-path="url(#v)"><g clip-path="url(#w)"><path d="M40.7 94.2h0m32.6-9.4v9.4m-4.7-4.7v4.7H78v-9.4m-14 9.4h-4.6v-4.7h9.3v-4.7M36 94.2v-4.7h9.3v4.7h9.4v-4.7H50m-14-4.7h28" fill="none" stroke-width="3" stroke-linecap="square" stroke="#fff"/></g></g><g clip-path="url(#x)"><g clip-path="url(#y)"><path d="M59.3 99.3h18.6m-41.9 0h18.7" fill="none" stroke-width="3" stroke-linecap="square" stroke="#fff"/></g></g><g clip-path="url(#z)"><g clip-path="url(#A)"><path d="M40.7 215.2h0m32.6-9.4v9.4m-4.7-4.7v4.7H78v-9.4m-14 9.4h-4.6v-4.7h9.3v-4.7M36 215.2v-4.7h9.3v4.7h9.4v-4.7H50m-14-4.7h28" fill="none" stroke-width="3" stroke-linecap="square" stroke="#fff"/></g></g><g clip-path="url(#B)"><g clip-path="url(#C)"><path d="M59.3 200.7h18.6m-41.9 0h18.7" fill="none" stroke-width="3" stroke-linecap="square" stroke="#fff"/></g></g><g clip-path="url(#D)"><g clip-path="url(#E)"><path d="M87.2 94.2h0m32.6-9.4v9.4m-4.7-4.7v4.7h9.3v-9.4m-14 9.4h-4.6v-4.7h9.3v-4.7m-32.5 9.4v-4.7h9.3v4.7h9.3v-4.7h-4.7m-14-4.7h28" fill="none" stroke-width="3" stroke-linecap="square" stroke="#fff"/></g></g><g clip-path="url(#F)"><g clip-path="url(#G)"><path d="M105.8 99.3h18.6m-41.8 0h18.6" fill="none" stroke-width="3" stroke-linecap="square" stroke="#fff"/></g></g><g clip-path="url(#H)"><g clip-path="url(#I)"><path d="M87.2 215.2h0m32.6-9.4v9.4m-4.7-4.7v4.7h9.3v-9.4m-14 9.4h-4.6v-4.7h9.3v-4.7m-32.5 9.4v-4.7h9.3v4.7h9.3v-4.7h-4.7m-14-4.7h28" fill="none" stroke-width="3" stroke-linecap="square" stroke="#fff"/></g></g><g clip-path="url(#J)"><g clip-path="url(#K)"><path d="M105.8 200.7h18.6m-41.8 0h18.6" fill="none" stroke-width="3" stroke-linecap="square" stroke="#fff"/></g></g><g clip-path="url(#L)"><g clip-path="url(#M)"><path d="M226.7 94.2h0m32.6-9.4v9.4m-4.6-4.7v4.7h9.3v-9.4m-14 9.4h-4.7v-4.7h9.4v-4.7M222 94.2v-4.7h9.3v4.7h9.3v-4.7H236m-14-4.7h28" fill="none" stroke-width="3" stroke-linecap="square" stroke="#fff"/></g></g><g clip-path="url(#N)"><g clip-path="url(#O)"><path d="M245.3 99.3H264m-42 0h18.7" fill="none" stroke-width="3" stroke-linecap="square" stroke="#fff"/></g></g><g clip-path="url(#P)"><g clip-path="url(#Q)"><path d="M226.7 215.2h0m32.6-9.4v9.4m-4.6-4.7v4.7h9.3v-9.4m-14 9.4h-4.7v-4.7h9.4v-4.7m-32.6 9.4v-4.7h9.3v4.7h9.3v-4.7H236m-14-4.7h28" fill="none" stroke-width="3" stroke-linecap="square" stroke="#fff"/></g></g><g clip-path="url(#R)"><g clip-path="url(#S)"><path d="M245.3 200.7H264m-42 0h18.7" fill="none" stroke-width="3" stroke-linecap="square" stroke="#fff"/></g></g><g clip-path="url(#T)"><g clip-path="url(#U)"><path d="M273.3 94.2h0m32.5-9.4v9.4m-4.6-4.7v4.7h9.3v-9.4m-14 9.4H292v-4.7h9.3v-4.7m-32.6 9.4v-4.7h9.3v4.7h9.3v-4.7h-4.6m-14-4.7h28" fill="none" stroke-width="3" stroke-linecap="square" stroke="#fff"/></g></g><g clip-path="url(#V)"><g clip-path="url(#W)"><path d="M291.9 99.3h18.6m-41.9 0h18.6" fill="none" stroke-width="3" stroke-linecap="square" stroke="#fff"/></g></g><g clip-path="url(#X)"><g clip-path="url(#Y)"><path d="M273.3 215.2h0m32.5-9.4v9.4m-4.6-4.7v4.7h9.3v-9.4m-14 9.4H292v-4.7h9.3v-4.7m-32.6 9.4v-4.7h9.3v4.7h9.3v-4.7h-4.6m-14-4.7h28" fill="none" stroke-width="3" stroke-linecap="square" stroke="#fff"/></g></g><g clip-path="url(#Z)"><g clip-path="url(#aa)"><path d="M291.9 200.7h18.6m-41.9 0h18.6" fill="none" stroke-width="3" stroke-linecap="square" stroke="#fff"/></g></g><g clip-path="url(#ab)"><g clip-path="url(#ac)"><path d="M-5.8 94.2h0m32.5-9.4v9.4m-4.6-4.7v4.7h9.3v-9.4m-14 9.4h-4.6v-4.7H22v-4.7m-32.6 9.4v-4.7h9.3v4.7h9.3v-4.7H3.5m-14-4.7h28" fill="none" stroke-width="3" stroke-linecap="square" stroke="#fff"/></g></g><g clip-path="url(#ad)"><g clip-path="url(#ae)"><path d="M12.8 99.3h18.6m-41.9 0H8.1" fill="none" stroke-width="3" stroke-linecap="square" stroke="#fff"/></g></g><g clip-path="url(#af)"><g clip-path="url(#ag)"><path d="M-5.8 215.2h0m32.5-9.4v9.4m-4.6-4.7v4.7h9.3v-9.4m-14 9.4h-4.6v-4.7H22v-4.7m-32.6 9.4v-4.7h9.3v4.7h9.3v-4.7H3.5m-14-4.7h28" fill="none" stroke-width="3" stroke-linecap="square" stroke="#fff"/></g></g><g clip-path="url(#ah)"><g clip-path="url(#ai)"><path d="M12.8 200.7h18.6m-41.9 0H8.1" fill="none" stroke-width="3" stroke-linecap="square" stroke="#fff"/></g></g><g clip-path="url(#aj)"><g clip-path="url(#ak)"><path d="M165.2 123.2s27 21.2 7.2 51.7c18.7-11.5 20.3-43-7.2-51.7" fill="#da0000"/></g></g><g clip-path="url(#al)"><g clip-path="url(#am)"><path d="M150 120.2c-4.3 4.8-11.7 0-9.2-5.3 4.5 8 9.2 1.5 9.2 1.5s4.7 6.5 9.2-1.5c2.5 5.3-4.9 10.1-9.2 5.3" fill="#da0000"/></g></g><g clip-path="url(#an)"><g clip-path="url(#ao)"><path d="M150 186.3l-3-4s-7.4 2.3-17-1c7.9 0 12.3-1.4 13.9-2.2 0 0-17.8-9.6-17.4-29.2C127.5 130 138 124 138 124s-18.7 27.4 8.8 50.2l-1.2-28.3v-20.7c1.5-.4 4.4-3.7 4.4-3.7s2.9 3.3 4.4 3.7v20.7l-1.2 28.3c27.5-22.8 8.8-50.2 8.8-50.2s10.5 6 11.5 25.9c.4 19.6-17.4 29.2-17.4 29.2 1.6.8 6 2.2 13.9 2.2-9.6 3.3-17 1-17 1l-3 4" fill="#da0000"/></g></g><g clip-path="url(#ap)"><g clip-path="url(#aq)"><path d="M134.8 123.2s-27 21.2-7.2 51.7c-18.7-11.5-20.3-43 7.2-51.7" fill="#da0000"/></g></g></svg>