<svg xmlns="http://www.w3.org/2000/svg" width="400" height="400" viewBox="0 0 300 300"><defs><clipPath id="a"><path d="M0 0h300v100H0zm0 0"/></clipPath><clipPath id="b"><path d="M150 0a150 150 0 100 300 150 150 0 000-300zm0 0"/></clipPath><clipPath id="c"><path d="M0 100h300v100H0zm0 0"/></clipPath><clipPath id="d"><path d="M150 0a150 150 0 100 300 150 150 0 000-300zm0 0"/></clipPath><clipPath id="e"><path d="M0 200h300v100H0zm0 0"/></clipPath><clipPath id="f"><path d="M150 0a150 150 0 100 300 150 150 0 000-300zm0 0"/></clipPath><clipPath id="g"><path d="M38 110h115v80H38zm0 0"/></clipPath><clipPath id="h"><path d="M150 0a150 150 0 100 300 150 150 0 000-300zm0 0"/></clipPath><clipPath id="i"><path d="M176 111h69v64h-69zm0 0"/></clipPath><clipPath id="j"><path d="M150 0a150 150 0 100 300 150 150 0 000-300zm0 0"/></clipPath></defs><g clip-path="url(#a)"><g clip-path="url(#b)"><path d="M-75 100h450V0H-75zm0 0" fill="#ce1125"/></g></g><g clip-path="url(#c)"><g clip-path="url(#d)"><path d="M-75 200h450V100H-75zm0 0" fill="#fff"/></g></g><g clip-path="url(#e)"><g clip-path="url(#f)"><path d="M-75 300h450V200H-75zm0 0"/></g></g><g clip-path="url(#g)"><g clip-path="url(#h)"><path d="M134 151.1c0-16.4.2-23.5.5-23.7.2-.2 1.3.6 2.4 1.9 1 1.2 3 3.1 4.2 4.3 2 1.8 2.2 2.2 1.6 2.6-2 1.3-2 1-2 16.5v14.7h4c3.5 0 4.2-.2 5.8-1.2 2-1.3 2.2-1.1 1.1 1.5l-.9 4.2-.2 2.5-8.2.1-8.3.1v-23.5zm-90 34.6a11 11 0 01-3.4-2.7c-1.8-2.3-2.2-3.3-1-2.6 1.9 1.1 5.6 1.8 6.9 1.3 4.8-1.7 6-8.8 2-13.2-.7-1-1.3-2-1.3-2.3 0-.4.8-1 1.8-1.5 1.4-.7 2-1.4 3-3.2.8-1.8 1.2-2.2 1.6-1.8.6.6 2.7 6 2.7 7 0 .6.8.7 4.2.7h4.2l-.7-1.7-1.3-2.8c-.6-1-.6-1.1 0-1.6l2.5-2c1-.7 2-1.8 2.2-2.2a13 13 0 013.1-4.2c.2 0 .4 3.3.4 7.3v7.2h52v-20.7l-1.5-1-1.5-1-2.9 2.5V162H95.2c-12 0-21.8-.1-21.8-.2a881 881 0 0117.6-26c.3-.2 4.2-6 8.8-12.6 4.5-6.8 8.4-12.3 8.6-12.3.1 0 .4.5.5 1.2.7 3.8 1.2 6 1.8 7 .7 1.6.3 2.1-1.6 2.2-.9 0-2.9 2.7-12.2 16.4a1194 1194 0 00-11.4 16.7c0 .2 5.5.3 12.4.3h12.5V150c0-2.7.1-5.1.3-5.4.8-1.2 9-7.4 9.6-7.3.4.1 2.6 1.8 5 3.7l4.2 3.6v30.1H57.3l-.7 3c-1 3.4-2.3 6-4.2 7.4-1.9 1.3-6 1.7-8.3.7zm17.8 1.5l-2.6-2.9 2.6-2.8 2.7-2.8 5.1 5.7-5.2 5.6-2.6-2.9" fill="#00793c"/></g></g><g clip-path="url(#i)"><g clip-path="url(#j)"><path d="M198 118.6c-1-.8-3.2-4.6-3.3-5.8 0-1 .1-1.4.8-1.5 1.2-.2 1.8.7 2.7 4.2.7 2.8.7 3.8-.2 3zm-5.1 7.5c-.7-.3-1.6-.9-1.9-1.2-.4-.5-.2-.6 1.4-.3 3 .5 4.8-.1 6.5-2l1.4-1.6 2 .8c1.2.4 2.3.7 2.6.5.8-.3 2.3-2.8 2.1-3.6-.1-1 .7-.8 1.2.2 1 2 .2 4.6-1.7 5.4-1 .4-1.9.4-3.4 0-1.8-.4-2.1-.4-3 .5a6.5 6.5 0 01-7.2 1.3zm32.8 24.6c0-16.4.2-23.6.5-23.8.2-.2 1.3.7 2.4 1.9 1 1.2 3 3.2 4.2 4.3 2 1.9 2.2 2.2 1.6 2.6-2 1.4-2 1-2 16.6V167h4c3.8 0 4.3 0 5.8-1.1.8-.7 1.6-1 1.8-1 .1.2-.1 1.2-.5 2.2-.4 1.1-.9 3.1-1 4.5l-.3 2.5-8.2.1-8.3.1v-23.6zm-36.3 13.4v-3h-1.6c-2.2 0-4.2 2.1-4.2 4.4v1.5h5.8zm-12.4 4.4c.2-6.6.9-8.8 3-11a9 9 0 017.1-2.2l2.1.2.2-2.7c.1-3.5-.2-4.7-1.2-5-1.3-.5-1-1.9.5-3 .8-.4 2.6-2.2 4-3.8 1.6-1.7 3-3 3.1-3 .2 0 .3 6.5.3 14.5V167h5.9v-14.9c0-13-.1-15-.7-15.6-.4-.4-.8-.8-1-.8-1 0-.3-1.8 1-2.6.7-.5 2.5-2.3 4-3.9 1.4-1.6 2.8-2.8 3-2.7.2.1.3 9.3.3 20.4V167h5.9v-41.2l-1-1c-.6-.6-1.1-1.3-1.1-1.6a13 13 0 012.9-3c1.6-1.4 3.3-3.2 3.8-4 2-3.2 2-3.7 2 28.4v29.7h-44.3l.3-5.8" fill="#00793c"/></g></g></svg>