<svg xmlns="http://www.w3.org/2000/svg" width="400" height="400" viewBox="0 0 300 300"><defs><clipPath id="a"><path d="M150 0a150 150 0 100 300 150 150 0 000-300zm0 0"/></clipPath><clipPath id="b"><path d="M0 28h300v47H0zm0 0"/></clipPath><clipPath id="c"><path d="M150 0a150 150 0 100 300 150 150 0 000-300zm0 0"/></clipPath><clipPath id="d"><path d="M0 225h300v47H0zm0 0"/></clipPath><clipPath id="e"><path d="M150 0a150 150 0 100 300 150 150 0 000-300zm0 0"/></clipPath><clipPath id="f"><path d="M53 73h194v182H53zm0 0"/></clipPath><clipPath id="g"><path d="M150 0a150 150 0 100 300 150 150 0 000-300zm0 0"/></clipPath><clipPath id="h"><path d="M53 45h194v182H53zm0 0"/></clipPath><clipPath id="i"><path d="M150 0a150 150 0 100 300 150 150 0 000-300zm0 0"/></clipPath></defs><g clip-path="url(#a)"><path fill="#fff" d="M0 0h300v300H0z"/></g><g clip-path="url(#b)"><g clip-path="url(#c)"><path d="M-56.3 75h412.6V28.1H-56.4zm0 0" fill="#0038b8"/></g></g><g clip-path="url(#d)"><g clip-path="url(#e)"><path d="M-56.3 271.9h412.6V225H-56.4zm0 0" fill="#0038b8"/></g></g><g clip-path="url(#f)"><g clip-path="url(#g)"><path d="M150 204.6l47.3-82h-94.6zm0 0" fill="none" stroke-width="8.8" stroke="#0038b8"/></g></g><g clip-path="url(#h)"><g clip-path="url(#i)"><path d="M150 95.4l-47.3 82h94.6zm0 0" fill="none" stroke-width="8.8" stroke="#0038b8"/></g></g></svg>