<svg xmlns="http://www.w3.org/2000/svg" width="400" height="400" viewBox="0 0 300 300"><defs><clipPath id="a"><path d="M150 0a150 150 0 100 300 150 150 0 000-300zm0 0"/></clipPath><clipPath id="b"><path d="M0 100h300v100H0zm0 0"/></clipPath><clipPath id="c"><path d="M150 0a150 150 0 100 300 150 150 0 000-300zm0 0"/></clipPath><clipPath id="d"><path d="M0 200h300v100H0zm0 0"/></clipPath><clipPath id="e"><path d="M150 0a150 150 0 100 300 150 150 0 000-300zm0 0"/></clipPath><clipPath id="f"><path d="M0 0h250v300H0zm0 0"/></clipPath><clipPath id="g"><path d="M150 0a150 150 0 100 300 150 150 0 000-300zm0 0"/></clipPath><clipPath id="h"><path d="M22 130h41v40H22zm0 0"/></clipPath><clipPath id="i"><path d="M150 0a150 150 0 100 300 150 150 0 000-300zm0 0"/></clipPath></defs><g clip-path="url(#a)"><path d="M0 0h300v300H0z"/></g><g clip-path="url(#b)"><g clip-path="url(#c)"><path d="M-50 200h600V100H-50zm0 0" fill="#fff"/></g></g><g clip-path="url(#d)"><g clip-path="url(#e)"><path d="M-50 300h600V200H-50zm0 0" fill="#00793c"/></g></g><g clip-path="url(#f)"><g clip-path="url(#g)"><path d="M250 150L-50 300V0" fill="#ce1125"/></g></g><g clip-path="url(#h)"><g clip-path="url(#i)"><path d="M62.7 155.2L50 156.4l1.7 12.7-8.9-9.2-8.9 9.2 1.7-12.7-12.8-1.2 11-6.7-7-10.7 12 4.5 4-12.3 4 12.3 12-4.5-7 10.7" fill="#fff"/></g></g></svg>