<svg xmlns="http://www.w3.org/2000/svg" width="400" height="400" viewBox="0 0 300 300"><defs><clipPath id="a"><path d="M150 0a150 150 0 100 300 150 150 0 000-300zm0 0"/></clipPath><clipPath id="b"><path d="M47 42h19v55H47zm0 0"/></clipPath><clipPath id="c"><path d="M150 0a150 150 0 100 300 150 150 0 000-300zm0 0"/></clipPath><clipPath id="d"><path d="M230 64h8v18h-8zm0 0"/></clipPath><clipPath id="e"><path d="M150 0a150 150 0 100 300 150 150 0 000-300zm0 0"/></clipPath><clipPath id="f"><path d="M239 67h10v17h-10zm0 0"/></clipPath><clipPath id="g"><path d="M150 0a150 150 0 100 300 150 150 0 000-300zm0 0"/></clipPath><clipPath id="h"><path d="M248 73h12v16h-12zm0 0"/></clipPath><clipPath id="i"><path d="M150 0a150 150 0 100 300 150 150 0 000-300zm0 0"/></clipPath><clipPath id="j"><path d="M255 81h14v14h-14zm0 0"/></clipPath><clipPath id="k"><path d="M150 0a150 150 0 100 300 150 150 0 000-300zm0 0"/></clipPath><clipPath id="l"><path d="M261 91h16v12h-16zm0 0"/></clipPath><clipPath id="m"><path d="M150 0a150 150 0 100 300 150 150 0 000-300zm0 0"/></clipPath><clipPath id="n"><path d="M266 101h17v10h-17zm0 0"/></clipPath><clipPath id="o"><path d="M150 0a150 150 0 100 300 150 150 0 000-300zm0 0"/></clipPath><clipPath id="p"><path d="M269 113h17v7h-17zm0 0"/></clipPath><clipPath id="q"><path d="M150 0a150 150 0 100 300 150 150 0 000-300zm0 0"/></clipPath><clipPath id="r"><path d="M269 122h19v8h-19zm0 0"/></clipPath><clipPath id="s"><path d="M150 0a150 150 0 100 300 150 150 0 000-300zm0 0"/></clipPath><clipPath id="t"><path d="M269 132h17v7h-17zm0 0"/></clipPath><clipPath id="u"><path d="M150 0a150 150 0 100 300 150 150 0 000-300zm0 0"/></clipPath><clipPath id="v"><path d="M266 141h17v10h-17zm0 0"/></clipPath><clipPath id="w"><path d="M150 0a150 150 0 100 300 150 150 0 000-300zm0 0"/></clipPath><clipPath id="x"><path d="M261 149h16v12h-16zm0 0"/></clipPath><clipPath id="y"><path d="M150 0a150 150 0 100 300 150 150 0 000-300zm0 0"/></clipPath><clipPath id="z"><path d="M255 157h14v14h-14zm0 0"/></clipPath><clipPath id="A"><path d="M150 0a150 150 0 100 300 150 150 0 000-300zm0 0"/></clipPath><clipPath id="B"><path d="M248 163h12v16h-12zm0 0"/></clipPath><clipPath id="C"><path d="M150 0a150 150 0 100 300 150 150 0 000-300zm0 0"/></clipPath><clipPath id="D"><path d="M239 168h10v17h-10zm0 0"/></clipPath><clipPath id="E"><path d="M150 0a150 150 0 100 300 150 150 0 000-300zm0 0"/></clipPath><clipPath id="F"><path d="M189 163h12v16h-12zm0 0"/></clipPath><clipPath id="G"><path d="M150 0a150 150 0 100 300 150 150 0 000-300zm0 0"/></clipPath><clipPath id="H"><path d="M179 157h14v14h-14zm0 0"/></clipPath><clipPath id="I"><path d="M150 0a150 150 0 100 300 150 150 0 000-300zm0 0"/></clipPath><clipPath id="J"><path d="M171 149h16v12h-16zm0 0"/></clipPath><clipPath id="K"><path d="M150 0a150 150 0 100 300 150 150 0 000-300zm0 0"/></clipPath><clipPath id="L"><path d="M165 141h18v10h-18zm0 0"/></clipPath><clipPath id="M"><path d="M150 0a150 150 0 100 300 150 150 0 000-300zm0 0"/></clipPath><clipPath id="N"><path d="M162 132h18v7h-18zm0 0"/></clipPath><clipPath id="O"><path d="M150 0a150 150 0 100 300 150 150 0 000-300zm0 0"/></clipPath><clipPath id="P"><path d="M161 122h18v8h-18zm0 0"/></clipPath><clipPath id="Q"><path d="M150 0a150 150 0 100 300 150 150 0 000-300zm0 0"/></clipPath><clipPath id="R"><path d="M162 113h18v7h-18zm0 0"/></clipPath><clipPath id="S"><path d="M150 0a150 150 0 100 300 150 150 0 000-300zm0 0"/></clipPath><clipPath id="T"><path d="M165 101h18v10h-18zm0 0"/></clipPath><clipPath id="U"><path d="M150 0a150 150 0 100 300 150 150 0 000-300zm0 0"/></clipPath><clipPath id="V"><path d="M171 91h16v12h-16zm0 0"/></clipPath><clipPath id="W"><path d="M150 0a150 150 0 100 300 150 150 0 000-300zm0 0"/></clipPath><clipPath id="X"><path d="M179 81h14v14h-14zm0 0"/></clipPath><clipPath id="Y"><path d="M150 0a150 150 0 100 300 150 150 0 000-300zm0 0"/></clipPath><clipPath id="Z"><path d="M183 85h82v82h-82zm0 0"/></clipPath><clipPath id="aa"><path d="M150 0a150 150 0 100 300 150 150 0 000-300zm0 0"/></clipPath><clipPath id="ab"><path d="M220 63h8v18h-8zm0 0"/></clipPath><clipPath id="ac"><path d="M150 0a150 150 0 100 300 150 150 0 000-300zm0 0"/></clipPath><clipPath id="ad"><path d="M230 170h8v18h-8zm0 0"/></clipPath><clipPath id="ae"><path d="M150 0a150 150 0 100 300 150 150 0 000-300zm0 0"/></clipPath><clipPath id="af"><path d="M220 171h8v18h-8zm0 0"/></clipPath><clipPath id="ag"><path d="M150 0a150 150 0 100 300 150 150 0 000-300zm0 0"/></clipPath><clipPath id="ah"><path d="M211 170h7v18h-7zm0 0"/></clipPath><clipPath id="ai"><path d="M150 0a150 150 0 100 300 150 150 0 000-300zm0 0"/></clipPath><clipPath id="aj"><path d="M200 168h9v17h-9zm0 0"/></clipPath><clipPath id="ak"><path d="M150 0a150 150 0 100 300 150 150 0 000-300zm0 0"/></clipPath><clipPath id="al"><path d="M189 73h12v16h-12zm0 0"/></clipPath><clipPath id="am"><path d="M150 0a150 150 0 100 300 150 150 0 000-300zm0 0"/></clipPath><clipPath id="an"><path d="M200 67h9v17h-9zm0 0"/></clipPath><clipPath id="ao"><path d="M150 0a150 150 0 100 300 150 150 0 000-300zm0 0"/></clipPath><clipPath id="ap"><path d="M211 64h7v18h-7zm0 0"/></clipPath><clipPath id="aq"><path d="M150 0a150 150 0 100 300 150 150 0 000-300zm0 0"/></clipPath><clipPath id="ar"><path d="M130 132h93v77h-93zm0 0"/></clipPath><clipPath id="as"><path d="M150 0a150 150 0 100 300 150 150 0 000-300zm0 0"/></clipPath><clipPath id="at"><path d="M198 213h34v10h-34zm0 0"/></clipPath><clipPath id="au"><path d="M150 0a150 150 0 100 300 150 150 0 000-300zm0 0"/></clipPath><clipPath id="av"><path d="M205 215h2v2h-2zm0 0"/></clipPath><clipPath id="aw"><path d="M150 0a150 150 0 100 300 150 150 0 000-300zm0 0"/></clipPath><clipPath id="ax"><path d="M201 132h99v99h-99zm0 0"/></clipPath><clipPath id="ay"><path d="M150 0a150 150 0 100 300 150 150 0 000-300zm0 0"/></clipPath><clipPath id="az"><path d="M205 215h2v2h-2zm0 0"/></clipPath><clipPath id="aA"><path d="M150 0a150 150 0 100 300 150 150 0 000-300zm0 0"/></clipPath><clipPath id="aB"><path d="M203 213h6v6h-6zm0 0"/></clipPath><clipPath id="aC"><path d="M150 0a150 150 0 100 300 150 150 0 000-300zm0 0"/></clipPath><clipPath id="aD"><path d="M31 256h19v28H31zm0 0"/></clipPath><clipPath id="aE"><path d="M150 0a150 150 0 100 300 150 150 0 000-300zm0 0"/></clipPath><clipPath id="aF"><path d="M47 203h19v55H47zm0 0"/></clipPath><clipPath id="aG"><path d="M150 0a150 150 0 100 300 150 150 0 000-300zm0 0"/></clipPath><clipPath id="aH"><path d="M30 203h19v55H30zm0 0"/></clipPath><clipPath id="aI"><path d="M150 0a150 150 0 100 300 150 150 0 000-300zm0 0"/></clipPath><clipPath id="aJ"><path d="M46 256h19v28H46zm0 0"/></clipPath><clipPath id="aK"><path d="M150 0a150 150 0 100 300 150 150 0 000-300zm0 0"/></clipPath><clipPath id="aL"><path d="M47 96h19v55H47zm0 0"/></clipPath><clipPath id="aM"><path d="M150 0a150 150 0 100 300 150 150 0 000-300zm0 0"/></clipPath><clipPath id="aN"><path d="M30 96h19v55H30zm0 0"/></clipPath><clipPath id="aO"><path d="M150 0a150 150 0 100 300 150 150 0 000-300zm0 0"/></clipPath><clipPath id="aP"><path d="M30 42h19v55H30zm0 0"/></clipPath><clipPath id="aQ"><path d="M150 0a150 150 0 100 300 150 150 0 000-300zm0 0"/></clipPath><clipPath id="aR"><path d="M30 149h19v55H30zm0 0"/></clipPath><clipPath id="aS"><path d="M150 0a150 150 0 100 300 150 150 0 000-300zm0 0"/></clipPath><clipPath id="aT"><path d="M47 149h19v55H47zm0 0"/></clipPath><clipPath id="aU"><path d="M150 0a150 150 0 100 300 150 150 0 000-300zm0 0"/></clipPath><clipPath id="aV"><path d="M46 16h19v28H46zm0 0"/></clipPath><clipPath id="aW"><path d="M150 0a150 150 0 100 300 150 150 0 000-300zm0 0"/></clipPath><clipPath id="aX"><path d="M31 16h19v28H31zm0 0"/></clipPath><clipPath id="aY"><path d="M150 0a150 150 0 100 300 150 150 0 000-300zm0 0"/></clipPath></defs><g clip-path="url(#a)"><path fill="#00aec9" d="M0 0h300v300H0z"/></g><g clip-path="url(#b)"><g clip-path="url(#c)"><path d="M47.4 87.6c0 6.1 5.5 9.2 9.7 9.2 5.8 0 8.9-3.4 8.9-8 0-2.5-.5-4.1-1.7-6.6L51.1 54.7c-.5-1-.6-2-.6-3.6 0-2.5 2.4-4.5 4.9-4.5 2.3-.1 4.8 2 4.8 4.6 0 3-1.6 4.4-3.2 4.4-2 0-2.8-.9-2.8-2.2 0-1 .5-1.4 1.1-1.4 1.7 0 1.3 2.3 1.3 2.3.8-.2 1.5-1.1 1.1-2.2a3 3 0 001.7-1c-.5-.4-1-.7-1.7-.9.4-1.3-.1-2-1.3-2.2.3.5.3 1 .2 1.4-1.8-.5-4.6.3-4.6 3.5 0 3 2.2 5.7 6.2 5-1 .5-1.4 1.4-1.5 2.5.7-.3 1.5-.3 1.5-.3-.5.8-1.1 1.5-1.1 3.2.8-.4 1.4-1 2.4-.6-1.5 3 .4 7 5 8a9.8 9.8 0 01-2.5-6.4c0-7 2-8.2 2-13.1 0-2-1-4.3-3.2-5.8v.1c1.4-.4 2.3-1 2.8-2-3.2-.9-7.8-.9-10.2.1a7.6 7.6 0 00-5.4 3.6 11 11 0 000 8.7l13.5 28.5c.6 1.3 1 2.6 1 4 0 3.7-3.4 5-5.3 5-2.2 0-4.5-1.8-4.5-4 0-1.3.7-2 1.8-2 2.5 0 2.4 2 1.9 3.4 1.5-.7 2.5-2 2.2-3.3a4 4 0 002.5-1.4c-.6-.8-1.3-1.4-2.5-1.4.5-2-.9-3-2.2-3.4.4 1.5.7 3.2-2 3.2-1.8 0-3.3.4-4.2 1.6L50 78c0-2.4 3.3-2.4 5.4-1.7-.8-2.8-2.4-4.3-6.3-3.9a3 3 0 002-3c0-2.2-1.9-4.7-3.1-5.5l-.6 23.7" fill="#fdc50b"/></g></g><g clip-path="url(#d)"><g clip-path="url(#e)"><path d="M233 81c2.4.5 3.6-.8 4-2.6.4-2.3-.6-14.2-.6-14.2s-5.4 10.6-5.9 13c-.4 1.7.2 3.4 2.6 3.8" fill="#fdc50b"/></g></g><g clip-path="url(#f)"><g clip-path="url(#g)"><path d="M241.7 83.6c2.2 1 3.6-.1 4.3-1.8 1-2.2 2.2-14 2.2-14s-7.4 9.3-8.3 11.5c-.7 1.7-.4 3.4 1.8 4.3" fill="#fdc50b"/></g></g><g clip-path="url(#h)"><g clip-path="url(#i)"><path d="M249.6 87.9c2 1.3 3.6.5 4.6-1 1.3-2 5-13.3 5-13.3s-9.1 7.7-10.5 9.7c-1 1.5-1 3.2 1 4.6" fill="#fdc50b"/></g></g><g clip-path="url(#j)"><g clip-path="url(#k)"><path d="M256.6 93.6c1.7 1.7 3.4 1.2 4.6 0 1.7-1.7 7.5-12.1 7.5-12.1s-10.4 5.7-12.1 7.4c-1.3 1.3-1.7 3 0 4.7" fill="#fdc50b"/></g></g><g clip-path="url(#l)"><g clip-path="url(#m)"><path d="M262.3 100.5c1.3 2 3 2 4.6 1 2-1.4 9.6-10.5 9.6-10.5s-11.3 3.6-13.3 5c-1.5 1-2.3 2.5-1 4.5" fill="#fdc50b"/></g></g><g clip-path="url(#n)"><g clip-path="url(#o)"><path d="M266.5 108.5c1 2.2 2.7 2.4 4.3 1.7 2.3-.9 11.5-8.3 11.5-8.3s-11.8 1.3-14 2.2c-1.7.7-2.7 2.1-1.8 4.4" fill="#fdc50b"/></g></g><g clip-path="url(#p)"><g clip-path="url(#q)"><path d="M269.1 117c.5 2.4 2.2 3 4 2.6 2.3-.4 12.8-5.9 12.8-5.9s-11.8-1-14.2-.5c-1.7.3-3 1.5-2.6 3.9" fill="#fdc50b"/></g></g><g clip-path="url(#r)"><g clip-path="url(#s)"><path d="M270 126c0 2.4 1.5 3.3 3.3 3.3 2.4 0 13.8-3.3 13.8-3.3s-11.4-3.3-13.8-3.3c-1.8 0-3.3.9-3.3 3.3" fill="#fdc50b"/></g></g><g clip-path="url(#t)"><g clip-path="url(#u)"><path d="M269.1 135c-.4 2.3.9 3.5 2.6 3.8 2.4.5 14.2-.5 14.2-.5s-10.5-5.5-12.9-6c-1.7-.3-3.4.3-3.9 2.6" fill="#fdc50b"/></g></g><g clip-path="url(#v)"><g clip-path="url(#w)"><path d="M266.5 143.5c-.9 2.3.1 3.7 1.8 4.4 2.2.9 14 2.2 14 2.2s-9.2-7.4-11.5-8.3c-1.6-.7-3.4-.5-4.3 1.7" fill="#fdc50b"/></g></g><g clip-path="url(#x)"><g clip-path="url(#y)"><path d="M262.3 151.5c-1.3 2-.6 3.6.9 4.6 2 1.3 13.3 4.9 13.3 4.9s-7.6-9-9.6-10.4c-1.5-1-3.3-1.1-4.6.9" fill="#fdc50b"/></g></g><g clip-path="url(#z)"><g clip-path="url(#A)"><path d="M256.6 158.4c-1.7 1.7-1.3 3.4 0 4.7 1.7 1.7 12 7.4 12 7.4s-5.7-10.4-7.4-12c-1.2-1.3-3-1.8-4.6 0" fill="#fdc50b"/></g></g><g clip-path="url(#B)"><g clip-path="url(#C)"><path d="M249.6 164.1c-2 1.4-1.9 3.1-.9 4.6 1.4 2 10.4 9.7 10.4 9.7s-3.6-11.3-4.9-13.3c-1-1.5-2.6-2.3-4.6-1" fill="#fdc50b"/></g></g><g clip-path="url(#D)"><g clip-path="url(#E)"><path d="M241.7 168.4c-2.2.9-2.5 2.6-1.8 4.3 1 2.2 8.3 11.5 8.3 11.5s-1.3-11.8-2.2-14c-.7-1.7-2.1-2.8-4.3-1.8" fill="#fdc50b"/></g></g><g clip-path="url(#F)"><g clip-path="url(#G)"><path d="M198.7 164.1c-2-1.3-3.6-.5-4.6 1-1.4 2-5 13.3-5 13.3s9.1-7.7 10.5-9.7c1-1.5 1-3.2-1-4.6" fill="#fdc50b"/></g></g><g clip-path="url(#H)"><g clip-path="url(#I)"><path d="M191.7 158.4c-1.7-1.7-3.4-1.2-4.7 0-1.7 1.7-7.4 12.1-7.4 12.1s10.4-5.7 12.1-7.4c1.3-1.3 1.7-3 0-4.7" fill="#fdc50b"/></g></g><g clip-path="url(#J)"><g clip-path="url(#K)"><path d="M186 151.5c-1.3-2-3-2-4.6-1-2 1.4-9.6 10.5-9.6 10.5s11.3-3.6 13.3-5c1.5-1 2.3-2.5 1-4.5" fill="#fdc50b"/></g></g><g clip-path="url(#L)"><g clip-path="url(#M)"><path d="M181.8 143.5c-1-2.2-2.7-2.4-4.4-1.7-2.2.9-11.5 8.3-11.5 8.3s11.9-1.3 14-2.2c1.7-.7 2.8-2.1 1.9-4.4" fill="#fdc50b"/></g></g><g clip-path="url(#N)"><g clip-path="url(#O)"><path d="M179.2 135c-.5-2.4-2.2-3-4-2.6-2.3.4-12.8 5.9-12.8 5.9s11.8 1 14.2.5c1.7-.3 3-1.5 2.6-3.9" fill="#fdc50b"/></g></g><g clip-path="url(#P)"><g clip-path="url(#Q)"><path d="M178.3 126c0-2.4-1.5-3.3-3.3-3.3-2.4 0-13.9 3.3-13.9 3.3s11.5 3.3 13.9 3.3c1.8 0 3.3-.9 3.3-3.3" fill="#fdc50b"/></g></g><g clip-path="url(#R)"><g clip-path="url(#S)"><path d="M179.2 117c.4-2.3-.9-3.5-2.6-3.8-2.4-.5-14.2.5-14.2.5s10.5 5.5 12.9 6c1.7.3 3.4-.3 3.9-2.6" fill="#fdc50b"/></g></g><g clip-path="url(#T)"><g clip-path="url(#U)"><path d="M181.8 108.5c.9-2.3-.2-3.7-1.8-4.4-2.2-.9-14-2.2-14-2.2s9.2 7.4 11.4 8.3c1.7.7 3.5.5 4.4-1.7" fill="#fdc50b"/></g></g><g clip-path="url(#V)"><g clip-path="url(#W)"><path d="M186 100.5c1.3-2 .6-3.6-1-4.6-2-1.3-13.2-4.9-13.2-4.9s7.6 9 9.6 10.4c1.5 1 3.3 1.1 4.6-.9" fill="#fdc50b"/></g></g><g clip-path="url(#X)"><g clip-path="url(#Y)"><path d="M191.7 93.6c1.7-1.7 1.3-3.4 0-4.7-1.7-1.7-12.1-7.4-12.1-7.4s5.7 10.4 7.4 12c1.3 1.3 3 1.8 4.7 0" fill="#fdc50b"/></g></g><g clip-path="url(#Z)"><g clip-path="url(#aa)"><path d="M224 85.7a40.4 40.4 0 110 80.7 40.4 40.4 0 010-80.7" fill="#fdc50b"/></g></g><g clip-path="url(#ab)"><g clip-path="url(#ac)"><path d="M224.1 80.2c2.4 0 3.3-1.6 3.3-3.4 0-2.4-3.3-13.8-3.3-13.8s-3.3 11.4-3.3 13.8c0 1.8 1 3.4 3.3 3.4" fill="#fdc50b"/></g></g><g clip-path="url(#ad)"><g clip-path="url(#ae)"><path d="M233 171c-2.3.5-2.9 2.1-2.5 3.9.5 2.3 6 12.9 6 12.9s1-11.9.5-14.2c-.4-1.8-1.6-3.1-4-2.6" fill="#fdc50b"/></g></g><g clip-path="url(#af)"><g clip-path="url(#ag)"><path d="M224.1 171.8c-2.4 0-3.3 1.6-3.3 3.4 0 2.4 3.3 13.8 3.3 13.8s3.3-11.4 3.3-13.8c0-1.8-.9-3.4-3.3-3.4" fill="#fdc50b"/></g></g><g clip-path="url(#ah)"><g clip-path="url(#ai)"><path d="M215.2 171c-2.4-.5-3.5.8-3.9 2.6-.5 2.3.6 14.2.6 14.2s5.4-10.6 5.9-13c.3-1.7-.2-3.4-2.6-3.8" fill="#fdc50b"/></g></g><g clip-path="url(#aj)"><g clip-path="url(#ak)"><path d="M206.6 168.4c-2.2-1-3.6.1-4.3 1.8-1 2.2-2.3 14-2.3 14s7.4-9.3 8.4-11.5c.7-1.7.4-3.4-1.8-4.3" fill="#fdc50b"/></g></g><g clip-path="url(#al)"><g clip-path="url(#am)"><path d="M198.7 87.9c2-1.4 1.9-3.1.9-4.6-1.4-2-10.5-9.7-10.5-9.7s3.6 11.3 5 13.3c1 1.5 2.6 2.3 4.6 1" fill="#fdc50b"/></g></g><g clip-path="url(#an)"><g clip-path="url(#ao)"><path d="M206.6 83.6c2.2-.9 2.5-2.6 1.8-4.3-1-2.2-8.4-11.5-8.4-11.5s1.4 11.8 2.3 14c.7 1.7 2 2.8 4.3 1.8" fill="#fdc50b"/></g></g><g clip-path="url(#ap)"><g clip-path="url(#aq)"><path d="M215.2 81c2.3-.5 3-2.1 2.6-3.9-.5-2.3-6-12.9-6-12.9s-1 11.9-.5 14.2c.4 1.8 1.5 3.1 3.9 2.6" fill="#fdc50b"/></g></g><g clip-path="url(#ar)"><g clip-path="url(#as)"><path d="M222.7 196.5l-.7 1.4-.7 1.8-.5.8-.4.8-.3.6-.4.4-1-.8-1-.7-1-.5-1.2-.5-1.2-.3-1.2-.3-1.3-.2-1.3-.2-2.7-.2-2.7-.1-2.6-.2-2.5-.3-1.4-.2-1.3-.3-.7-.2-.7-.3-.6-.3-.6-.3-.8-.5-.9-.7-1-.6-.8-.8-1.7-1.7-1.8-1.7-1.8-1.7-1.6-1.4-.8-.6-.8-.5-.7-.3-.7-.3-1.3-.3-2.3-.7-1.2-.6-1-.4-1-.7-.9-.6-.9-.6-.9-.7-.8-.7-1.5-1.5-1.5-1.7-1.4-1.7-2.8-3.6-2.9-3.7-1.7-1.8-1.8-1.8-1-1-1-.8-1-.7-1.2-.9h-.3l-.2.3-.2.3-.2.4-.2.7v.3l-.6-.2-.5-.2-.5-.3-.5-.1h-1l-.6.1-.5.3.5.7.7.9.7 1 .7 1.2.6 1.3.4 1.1.2.7.2.4v1h-4.1l.6 1 .7.9.7 1 .9.8 1.7 1.7.8.7.8.5h-.8l-1.2.2-1.2.1h-.8l.7.7.8.6 1 .7 1 .7 1 .6 1 .6 1 .3.8.2.4.1h.3l.2.2.2.1V183.4l-.2.4v.5l-.2.3v.2l.1.4.1.3.2.2.2.1.3.2h.4l.4.2.7.3.4.3v.2l-.4.3-.3.2-.3.3-.3.4v1.5l1.4.5 1.4.4.6.2.6.2.5.2.4.3-2.6 2 .7.6.9.5 1 .5 1.2.4 1.2.4 1.1.2 1 .3h1l-.9.6-1 .7-1.2.6-.9.6.8.5 1.1.6 1.2.6 1.5.7 3.4 1.5 3.7 1.4 3.9 1.4 3.8 1.3 1.7.5 1.5.4 1.4.4 1.3.2-2.5-.2-2.3-.3-2.4-.4-2.1-.5-2.2-.6-2-.6-2-.7-2-.8-3.8-1.5-3.6-1.6-1.7-.7-1.7-.7-1.6-.6-1.6-.6.4-.2.4-.2.6-.2.7-.2 1.5-.4 1.3-.5-2.3-.4-3.2-.6-1.5-.5-1.3-.4-.6-.2-.4-.2-.4-.3-.3-.2.1-.1.2-.1.3-.2.6-.2.9-.2 1.8-.6 1.6-.5-3.8-.7-3-.5-1-.2-1-.3-.2-.2-.3-.2-.3-.2-.1-.2.2-.2.7-.1 1-.2 1.2-.2 1.2-.2 1.1-.3.5-.1.5-.2.3-.2.3-.2-.6-.3-.6-.2-.8-.2-.8-.1-1.7-.2-1.8-.3-1-.2-.8-.2-.9-.3-.8-.3-.8-.4-.7-.5-.6-.6-.5-.6.2-.1.3-.1h1l1.4.2h1.6l1.7.2h2.7l.5-.2.3-.2-1.8-.8-2.5-1-1.4-.8-1.5-.7-1.4-.7-1.5-.8-1.4-.9-1.3-.9-1.3-1-1-.8-.5-.6-.5-.4-.3-.5-.3-.6-.3-.4-.2-.6v-.4l-.1-.6h.5l.6.1.7.2.6.3 1.2.8 1.4.7.6.4.7.4.7.3.6.2.7.2h1.4l.6-.2-1.9-1.4-2-1.7-2.5-2.1-2.4-2.3-2.4-2.5-2.2-2.5-1-1.3-1-1.2-.9-1.3-.8-1.1-.1-.4v-.7l.1-.3.3-.1.2-.2.2-.2h.4l.3-.2h.6l.4.1h.3l.3.3.2.3 1.4 1.3 1.6 1.7 1.7 1.8 1.9 1.7 1.9 1.7 1.8 1.5 1 .6.8.6 1 .4.8.3-.6-.3-.7-.7-1-1-1-1.1-2.2-2.7-2.5-3.2-1.2-1.7-1.2-1.7-1-1.7-1.2-1.6-.9-1.6-.8-1.4-.5-1.3-.5-1v-1.3l.2-.3.1-.2.2-.1.2-.2.6-.1.4-.2H135.5l.3.2.3.1.2.2.6.6.6.8 1.4 1.7 1.5 2.3 1.7 2.4 1.8 2.5 1 1.1.8 1.2 1 1 1.1 1-1.3-2.6-1.5-3-.7-1.6-.7-1.6-.7-1.7-.6-1.7-.6-1.8-.5-1.7-.4-1.7-.3-1.7-.2-1.7v-2.3l.1-.7v-.7l.2-.7.2-.2v-.2l.3-.3.2-.1.5-.2.5-.2h1l.3.2h.1l.1.2v.2l.9 2.5.7 2.6.7 2.7 1.3 5.3 1 2.5.4 1.1.6 1.2.6 1 .7 1.2-.5-2.3-.3-2-.3-1.9-.1-1.7-.2-1.4V140l.2-.7.3-.6.1-.3.2-.2.1-.2.3-.1.2-.1h.7l.6.2.6.3.6 2.5.5 2.4.6 2.3.7 2.1.8 2.2.9 2.2.9 2.2 1 2.3 1.6 2.9 1.7 3 1 1.3.9 1.4 1 1.4 1 1.4 1.8 2.3 2 2.2 2 2.2 2 2 2.2 2 2.3 1.8 2.3 1.8 2.4 1.7 1.6 1.1 1.7 1 1.8 1 1.7 1 2.7 1.3 2.7 1.2 2.7 1 2.8 1 2.7 1 2.7.6 2.8.7 2.7.5 2.8.4 2.8.3 2.9.2 2.8.2" fill="#fdc50b"/></g></g><g clip-path="url(#at)"><g clip-path="url(#au)"><path d="M229.8 220l1.3.2.6.2h.2v.2H231.6l-1.3.3h-1l-3.2-.3h-4l-4.2-.1h-4.4l-2.1.1-2.1.2-1.9.1-1.8.2-1.4.2-1.3.3-.5.2-.5.1-.4.2-.3.2.2-.7.3-.8-.5.1-.6.2-.5.2-.4.3-.4.2-.3.3-.2.4-.1.4-.3-.6-.1-.4v-.6l-.2-.4.1-.4v-.5l.2-.4.2-.4.2-.3.3-.4.6-.6.8-.5 1-.6c.5.3 1 .6 1.6.7.5.1 1 0 1.6-.1a2 2 0 003-.2c.2-.1.4-.4.4-.6.2-.4.1-1 0-1.5l1-.1 1-.2 1.2-.3 1.2-.3 1.3-.2 1.1-.3 1.1-.2h1l-.4.2-1 .7-1 .9-.8.5 1 .3.8.1-.6.7-.6.7-.6.7-.5.6.6.3.6.1.7.2h1.4l.7-.2.7-.1.6-.4.6.4.6.2.6.1.6.2 1.4.2 1.5.1h5.9" fill="#fdc50b"/></g></g><g clip-path="url(#av)"><g clip-path="url(#aw)" fill="#fdc50b"><path d="M206 215.6h.3l.2.2v.2l.1.2v.3l-.1.2-.2.1h-.6l-.1-.1-.2-.2v-.5l.2-.2.1-.1"/><path d="M206 216l.2.1-.1.2H205.8V216"/><path d="M206 217a.7.7 0 110-1.4.7.7 0 110 1.4"/></g></g><g clip-path="url(#ax)"><g clip-path="url(#ay)"><path d="M201.4 216.5l1.8.8.5-.4.6-.4.7-.4.6-.4 2.3-1 2-.9 1-.4 1.8-.9.7-.5 3.5-2.3 1.7-1 1.6-1.1 1.1-1 1-.8 1-1 1-1 .4-.4.5-.3.5-.3.7-.3 1.3-.6 1.3-.5 1.8-.4 1.9-.5 2-.4 2.3-.4 2.7-.3 2.7-.4 2.8-.3 2.7-.4.9-.2.9-.2.9-.3 1-.2.8-1.1 1.5-1.7 1-1 1.2-1 1.3-1 1.5-1 2.4-1.3 2.4-1.3 2.6-1.3 2.5-1.1 2.3-1.2 2.2-1 1.7-1 1.4-1 .4-1 .6-1.3.7-1.1.8-1.2 1-1.2 1-1.2 1.3-1.4 1.6-1.5 1.4-1.3 1.4-1.2.8-.5.8-.6.8-.4.9-.5.8-.4.9-.3 1-.2.8-.3h.9l.9-.1h.9l.8.2v1l-.3.9-.3.9-.4 1-.5 1-.7 1-.9 1.1-1 1h.8l.7-.1.5-.2.6-.2.5-.2.5-.1.7-.1h.8v1.5l-.2.5-.2.5-.3.4-.3.4-.4.4-1.7 1.5-1.6 1.5h1l1 .4 1 .3.7.2-.9.7-1 .7-1.2.7-1.2.7-1.2.6-1.3.8-1.2.9-1.2.9h.6l.7.4h.3l.3.2.2.1h.2l-1.5.8-2 .9-.9.5-.7.4-.4.3-.3.2-.1.2-.2.3.1.3.2.2.3.2.2.3v.3l-.2.2-.3.2-.3.3-.7.4-1 .3-.9.4-.8.3-.7.3-.4.2 1.5 1.6-.5.5-.6.4-.4.2-.6.2-1 .2h-1.5l.1.7.3.7.1.8.2.7-1.3 1-1.7 1.2-1.8 1.2-2 1.1-1.1.6-1.2.6-1.2.5-1.3.4-1.4.5-1.5.3-1.6.3-1.6.2 2.9.1h2.5l2.3-.2 2-.2 2-.4 1.7-.5 1.7-.6 1.6-.6 2.2-1 2.1-1.2 2-1.2 2.1-1.3-1.2-.6-1.3-.4-.6-.2-.6-.3-.7-.3-.7-.4.6-.5.7-.3.9-.3.9-.2 1.8-.4 2-.3 1.7-.2 1.5-.2.6-.1.6-.2.3-.1.2-.2v-.1l-.2-.2h-.2l-.3-.2-.9-.2-1-.1-1.2-.1-1-.2-1-.2-.6-.2 2.1-.5 2-.4 2-.4 1.5-.4 1.3-.4 1.2-.5.5-.2.4-.2.4-.3.3-.3-.2-.2h-.3l-.4-.2h-2.2l-1.2-.1-1.2-.1-1-.2-.6-.1.5-.2.6-.3 1.8-.5 1.6-.5 1.5-.4 1.4-.4 1.5-.5 1.4-.6.7-.4.7-.4.2-.2.2-.3.3-.3v-.4l-.3-.2H296.2l-.3-.2-.3-.2 3.1-2 2.9-1.8 2.5-1.7 2.3-1.5.9-.8.9-.8.7-.7.6-.8.4-.9.4-.8.3-1v-1h-.6l-.5.1-.6.3-.7.2-1.2.8-1.3.7-.7.4-.6.4-.7.3-.7.3-.6.1-.7.1h-.7l-.6-.2 1.9-1.4 2-1.8 2.5-2.1 2.4-2.3 2.4-2.5 2.2-2.5 1-1.3 1-1.2.9-1.3.7-1.1.2-.3v-.8l-.2-.2-.2-.2-.2-.2-.3-.1-.3-.2h-1.2l-.4.1-.2.3-.3.2-1.4 1.4-1.6 1.6-1.8 1.8-1.8 1.8-1.9 1.6-1.8 1.5-1 .7-.8.5-1 .5-.7.3.5-.4.7-.7 1-1 1-1.1 2.2-2.7 2.5-3.2 1.2-1.7 1.2-1.7 1.1-1.6 1-1.7 1-1.6.8-1.4.6-1.3.4-1v-1.3l-.2-.2-.1-.3-.2-.1h-.2l-.5-.3-.5-.2h-1.1l-.3.1h-.3l-.3.2-.2.3-.6.5-.6.8-1.4 1.8-1.5 2.2-1.6 2.4-1.8 2.5-1 1.1-1 1.2-1 1-1 1 1.4-2.6 1.3-3 .8-1.6.7-1.6.7-1.7.6-1.7.6-1.8.5-1.7.4-1.7.3-1.7.2-1.6V135.3l-.2-1.3-.1-.7-.1-.3-.2-.2-.2-.2-.2-.2-.5-.2-.5-.2h-.6l-.5.1h-.1l-.2.2-.1.1v.2l-.9 2.6-.7 2.5-.7 2.8-.7 2.6-.7 2.6-1.3 3.7-.6 1.1-.6 1.2-.7 1 .5-2.3.3-2 .3-1.8.1-1.7.2-1.5V140l-.2-.7-.3-.6-.1-.3-.2-.2-.1-.1-.3-.1-.2-.1h-.7l-.6.2-.6.3-.6 2.4-.5 2.4-.6 2.3-.7 2.2-.8 2.1-.9 2.2-.9 2.2-1 2.3-.8 1.4-.8 1.5-.9 1.5-.8 1.5-1 1.3-.9 1.4-1 1.4-1 1.4-1.8 2.3-2 2.2-2 2.2-2 2-2.3 2-2.2 1.9-2.3 1.7-2.4 1.7-1.6 1.1-1.7 1.1-1.7 1-1.7 1-2.8 1.3-2.7 1.2-2.8 1-2.7 1-2.4.7-2.3.7-4.8 1-2.4.5-2.5.3-2.4.3-2.4.2h-.3l-.2.1-.5.2-.5.4-.8.7-1 1-1.2 1.2-1.5 1.6-1.4 1.6-1.6 1.8-.9.9-.8.8-2 1.6-.8.5-.8.5-.8.4-.9.3-1.8.8-1.9.7-1.8.7-1.7.6-.7.3-.7.4-.6.3-.4.4-.9.8-.2.4-.2.4v.8m62.2 7.3l-.6.2-.5.1h-1.3l-.3-.2-.4-.2-.3-.2-.7-.5-.6-.4-.3-.3-.4-.1-.3-.1h-.4l-.7 1.5-.9 1.8-.3.5-.3.4-.3.2-.3.2-.4.2h-.4l-.4-.2-.5-.2-.1-.2-.2-.3-.1-.3-.2-.3-.1-.7-.1-.5-.5.4-.4.5-.4.6-.5.7-.5.7-.6.6-.3.3-.4.2-.4.2-.4.1h-.3l-.3.1h-.4l-.3-.2-1-1.1-1-1.1-.7 1-.7 1-.8.8-.4.3-.4.2-.3.2h-1.1l-.3-.2-.2-.2-.3-.4-.2-.5-.1-.4-.4-.8v-.4l-.2-.3-.1-.1h-.2l-2 3.4-.4.3-.5.2-.7.2-.6.1h-.7l-.5-.1-.2-.1-.2-.3v-.4l.2-3.4h-.2l-.3.2-.3.2-.3.3-.7.7-.7.7-.6.9-.9.7-.4.3-.4.3-.4.2-.4.1-.6.1h-.4l-.1-.2-.2-.1v-1.5l.2-1v-1.5l-.4-.5-.5.7-.7 1-1 1-1 1-.5.4-.6.4-.4.1-.4.2h-.4l-.1-.2-.1-.1-.2-.2v-.6l-.1-.4v-3l-1.9 1.4-2.3 1.5-.6.2-.6.3-.5.2-.6.1-.6.2h-.5l-.6-.1-.4-.2.2-.6.2-.5.3-.6.3-.4.3-.5.3-.4.4-.4.4-.4.8-.6 1-.7 1-.4 1.2-.4 1.2-.3 1.3-.3 1.3-.2 1.3-.1 2.9-.2h8.8l1.5-.1 2.8-.2 1.3-.2 1.3-.2 1.1-.2 1.2-.3 1-.5 1-.5 1-.6.8-.6.7-.9-.8-1.5h.6l.7-.2.6-.3.5-.4.3-.2.2-.2.1-.3.2-.3v-1.1l1.2-.2 1.4-.2h6.2l3.3.3 3.3.4 3.2.3 3.2.3 3 .2v1l-.1.5-.2.5-.1.4-.2.4-.2.3-.3.4-.6.6-.7.4-.7.3-.7.2-.9.2-.8-.1-.8-.1-.9-.2-.7-.4-.8-.4-.6-.6-.6-.6v1.3l-.3 1.7-.1.9-.3.8-.1.3-.3.2-.1.2" fill="#fdc50b"/></g></g><g clip-path="url(#az)"><g clip-path="url(#aA)"><path d="M206 216.4a.3.3 0 01-.4-.2.3.3 0 01.6 0 .3.3 0 01-.3.2" fill="#fdc50b"/></g></g><g clip-path="url(#aB)"><g clip-path="url(#aC)"><path d="M206 216.4a.3.3 0 01-.4-.2.3.3 0 01.6 0 .3.3 0 01-.3.2zm0 0" fill="none" stroke-width=".4" stroke="#00aec9"/></g></g><g clip-path="url(#aD)"><g clip-path="url(#aE)"><path d="M48 278.1s-2.9 2.4-3.9 1.2c-1.5-2 4.9-11.7 4.9-15 0-5.7-3.8-7.2-8.4-8-3.1-.6-8.2.2-8.2.2 1 1.3 1.6 1.6 3.2 1.7-1.8 1-3.6 3-3.6 6.1 0 4.9 2 6.9 2 12.3 0 3-2.5 6.9-2.5 6.9 4.4-.4 6.6-4.5 5.3-7.8.7 0 1.3.1 1.9.6.3-.9-.2-2-.9-2.8.6-.3 1-.1 1.8 0 0-.9-.6-1.9-2-2.8 4 1 6.4-1.7 6.4-4.6 0-2.2-1.5-3.7-3-3.7a3 3 0 00-1.6.5c-.3-.6-.1-1.4.2-2-1.1.2-1.8.9-1.3 2.2-.9.1-1.5.4-2 1a2.3 2.3 0 002 .8c-.6 1.3 0 2 1 2.6 0 0-.6-2.6 1-2.6.8 0 1.4.3 1.4 1.3s-.8 2.3-2.7 2.2c-1.9-.1-3.4-1.3-3.4-4.3 0-2.8 2.3-4.1 5.2-4.2 2.6-.1 4.6 1.3 4.6 4 0 3.7-5.2 12-5.2 15.2 0 2.5 2.2 3.8 4.3 3.8 2.8 0 5.1-2.7 5.1-2.7l-1.6-2" fill="#fdc50b"/></g></g><g clip-path="url(#aF)"><g clip-path="url(#aG)"><path d="M47.4 212.4c0-6.1 5.5-9.2 9.7-9.2 5.8 0 8.9 3.4 8.9 8 0 2.5-.5 4.1-1.7 6.6l-13.2 27.5c-.5 1-.6 2-.6 3.6 0 2.5 2.4 4.5 4.9 4.5 2.3.1 4.8-2 4.8-4.6 0-3-1.6-4.4-3.2-4.4-2 0-2.8.9-2.8 2.2 0 1 .5 1.4 1.1 1.4 1.7 0 1.3-2.3 1.3-2.3.8.2 1.5 1.1 1.1 2.2a3 3 0 011.7 1 3 3 0 01-1.7.9c.4 1.3-.1 2-1.3 2.2.3-.5.3-1 .2-1.4-1.8.5-4.6-.3-4.6-3.5 0-3 2.2-5.7 6.2-5-1-.5-1.4-1.4-1.5-2.5.7.3 1.5.3 1.5.3-.5-.8-1.1-1.5-1.1-3.2.8.4 1.4 1 2.4.6-1.5-3 .4-7 5-8a9.8 9.8 0 00-2.5 6.4c0 7 2 8.2 2 13.1 0 2-1 4.3-3.2 5.8v-.1c1.4.4 2.3 1 2.8 2-3.2.9-7.8.9-10.2-.1a7.6 7.6 0 01-5.4-3.6 11 11 0 010-8.7 8021.5 8021.5 0 0013.5-28.5c.6-1.3 1-2.6 1-4 0-3.7-3.4-5-5.3-5-2.2 0-4.5 1.8-4.5 4 0 1.3.7 2 1.8 2 2.5 0 2.4-2 1.9-3.4 1.5.7 2.5 2 2.2 3.3a4 4 0 012.5 1.4c-.6.8-1.3 1.4-2.5 1.4.5 2-.9 3-2.2 3.4.4-1.5.7-3.2-2-3.2-1.8 0-3.3-.4-4.2-1.6L50 222c0 2.4 3.3 2.4 5.4 1.7-.8 2.8-2.4 4.3-6.3 3.9a3 3 0 012 3c0 2.2-1.9 4.7-3.1 5.5l-.6-23.7" fill="#fdc50b"/></g></g><g clip-path="url(#aH)"><g clip-path="url(#aI)"><path d="M48.6 212.4c0-6.1-5.5-9.2-9.7-9.2-5.8 0-8.9 3.4-8.9 8 0 2.5.5 4.1 1.7 6.6l13.2 27.5c.5 1 .6 2 .6 3.6 0 2.5-2.4 4.5-4.9 4.5-2.3.1-4.8-2-4.8-4.6 0-3 1.6-4.4 3.2-4.4 2 0 2.8.9 2.8 2.2 0 1-.5 1.4-1.1 1.4-1.7 0-1.3-2.3-1.3-2.3-.8.2-1.5 1.1-1.1 2.2a3 3 0 00-1.7 1c.5.4 1 .7 1.7.9-.4 1.3.1 2 1.3 2.2-.3-.5-.3-1-.2-1.4 1.8.5 4.6-.3 4.6-3.5 0-3-2.2-5.7-6.2-5 1-.5 1.4-1.4 1.5-2.5-.7.3-1.5.3-1.5.3.5-.8 1.1-1.5 1.1-3.2-.8.4-1.4 1-2.4.6 1.5-3-.4-7-5-8 1.7 2 2.5 4.2 2.5 6.4 0 7-2 8.2-2 13.1 0 2 1 4.3 3.2 5.8v-.1c-1.4.4-2.3 1-2.8 2 3.2.9 7.7.9 10.2-.1a7.6 7.6 0 005.4-3.6c.6-1.1 1.7-5.1 0-8.7a7389.7 7389.7 0 01-13.5-28.5c-.6-1.3-1-2.6-1-4 0-3.7 3.4-5 5.3-5 2.2 0 4.5 1.8 4.5 4 0 1.3-.7 2-1.8 2-2.5 0-2.4-2-1.9-3.4-1.5.7-2.5 2-2.2 3.3a4 4 0 00-2.5 1.4c.6.8 1.3 1.4 2.5 1.4-.5 2 .9 3 2.2 3.4-.4-1.5-.7-3.2 2-3.2 1.8 0 3.3-.4 4.2-1.6l.2 8.1c0 2.4-3.3 2.4-5.4 1.7.8 2.8 2.4 4.3 6.3 3.9a3 3 0 00-2 3c0 2.2 1.9 4.7 3.1 5.5l.6-23.7" fill="#fdc50b"/></g></g><g clip-path="url(#aJ)"><g clip-path="url(#aK)"><path d="M48 278.1s2.9 2.4 3.9 1.2c1.5-2-4.9-11.7-4.9-15 0-5.7 3.8-7.2 8.4-8 3.1-.6 8.2.2 8.2.2-1 1.3-1.6 1.6-3.2 1.7 1.8 1 3.6 3 3.6 6.1 0 4.9-2 6.9-2 12.3 0 3 2.5 6.9 2.5 6.9-4.4-.4-6.6-4.5-5.3-7.8-.7 0-1.3.1-1.9.6-.3-.9.2-2 .9-2.8-.6-.3-1-.1-1.8 0 0-.9.6-1.9 2-2.8-4 1-6.4-1.7-6.4-4.6 0-2.2 1.5-3.7 3-3.7a3 3 0 011.6.5c.3-.6.1-1.4-.2-2 1.1.2 1.8.9 1.3 2.2.9.1 1.5.4 2 1a2.3 2.3 0 01-2 .8c.6 1.3 0 2-1 2.6 0 0 .6-2.6-1-2.6-.8 0-1.4.3-1.4 1.3s.8 2.3 2.7 2.2c1.9-.1 3.4-1.3 3.4-4.3 0-2.8-2.3-4.1-5.2-4.2-2.6-.1-4.6 1.3-4.6 4 0 3.7 5.2 12 5.2 15.2 0 2.5-2.2 3.8-4.3 3.8-2.8 0-5.1-2.7-5.1-2.7l1.6-2" fill="#fdc50b"/></g></g><g clip-path="url(#aL)"><g clip-path="url(#aM)"><path d="M47.4 105.9c0-6.1 5.5-9.2 9.7-9.2 5.8 0 8.9 3.4 8.9 8 0 2.5-.5 4.1-1.7 6.6l-13.2 27.5c-.5 1-.6 2-.6 3.6 0 2.5 2.4 4.5 4.9 4.6 2.3 0 4.8-2.2 4.8-4.7 0-3-1.6-4.3-3.2-4.3-2 0-2.8.8-2.8 2.2 0 1 .5 1.4 1.1 1.4 1.7 0 1.3-2.3 1.3-2.3.8.2 1.5 1 1.1 2.1a3 3 0 011.7 1c-.5.4-1 .8-1.7.9.4 1.3-.1 2-1.3 2.2.3-.5.3-1 .2-1.4-1.8.5-4.6-.3-4.6-3.4 0-3.2 2.2-5.8 6.2-5.1-1-.5-1.4-1.4-1.5-2.5.7.3 1.5.4 1.5.4-.5-.9-1.1-1.6-1.1-3.2.8.3 1.4 1 2.4.5-1.5-3 .4-7 5-8a9.8 9.8 0 00-2.5 6.4c0 7 2 8.2 2 13.1 0 2-1 4.3-3.2 5.8 1.4.3 2.3 1 2.8 1.9-3.2.9-7.8.9-10.2 0a7.6 7.6 0 01-5.4-3.7 11 11 0 010-8.7 8021.6 8021.6 0 0013.5-28.5c.6-1.3 1-2.6 1-4 0-3.6-3.4-4.9-5.3-4.9-2.2 0-4.5 1.7-4.5 3.8 0 1.4.7 2.2 1.8 2.2 2.5 0 2.4-2.1 1.9-3.5 1.5.7 2.5 2 2.2 3.3a4 4 0 012.5 1.4c-.6.8-1.3 1.4-2.5 1.4.5 2.1-.9 3-2.2 3.5.4-1.6.7-3.3-2-3.3-1.8 0-3.3-.3-4.2-1.6l-.2 8.1c0 2.5 3.3 2.4 5.4 1.7-.8 2.8-2.4 4.3-6.3 4a3 3 0 012 2.9c0 2.2-1.9 4.8-3.1 5.5l-.6-23.7" fill="#fdc50b"/></g></g><g clip-path="url(#aN)"><g clip-path="url(#aO)"><path d="M48.6 105.9c0-6.1-5.5-9.2-9.7-9.2-5.8 0-8.9 3.4-8.9 8 0 2.5.5 4.1 1.7 6.6l13.2 27.5c.5 1 .6 2 .6 3.6 0 2.5-2.4 4.5-4.9 4.6-2.3 0-4.8-2.2-4.8-4.7 0-3 1.6-4.3 3.2-4.3 2 0 2.8.8 2.8 2.2 0 1-.5 1.4-1.1 1.4-1.7 0-1.3-2.3-1.3-2.3-.8.2-1.5 1-1.1 2.1a3 3 0 00-1.7 1c.5.4 1 .8 1.7.9-.4 1.3.1 2 1.3 2.2-.3-.5-.3-1-.2-1.4 1.8.5 4.6-.3 4.6-3.4 0-3.2-2.2-5.8-6.2-5.1 1-.5 1.4-1.4 1.5-2.5-.7.3-1.5.4-1.5.4.5-.9 1.1-1.6 1.1-3.2-.8.3-1.4 1-2.4.5 1.5-3-.4-7-5-8 1.7 2 2.5 4.2 2.5 6.4 0 7-2 8.2-2 13.1 0 2 1 4.3 3.2 5.8-1.4.3-2.3 1-2.8 1.9 3.2.9 7.7.9 10.2 0a7.6 7.6 0 005.4-3.7c.6-1 1.7-5 0-8.7a7389.9 7389.9 0 01-13.5-28.5c-.6-1.3-1-2.6-1-4 0-3.6 3.4-4.9 5.3-4.9 2.2 0 4.5 1.7 4.5 3.8 0 1.4-.7 2.2-1.8 2.2-2.5 0-2.4-2.1-1.9-3.5-1.5.7-2.5 2-2.2 3.3a4 4 0 00-2.5 1.4c.6.8 1.3 1.4 2.5 1.4-.5 2.1.9 3 2.2 3.5-.4-1.6-.7-3.3 2-3.3 1.8 0 3.3-.3 4.2-1.6l.2 8.1c0 2.5-3.3 2.4-5.4 1.7.8 2.8 2.4 4.3 6.3 4a3 3 0 00-2 2.9c0 2.2 1.9 4.8 3.1 5.5l.6-23.7" fill="#fdc50b"/></g></g><g clip-path="url(#aP)"><g clip-path="url(#aQ)"><path d="M48.6 87.6c0 6.1-5.5 9.2-9.7 9.2-5.8 0-8.9-3.4-8.9-8 0-2.5.5-4.1 1.7-6.6l13.2-27.5c.5-1 .6-2 .6-3.6 0-2.5-2.4-4.5-4.9-4.5-2.3-.1-4.8 2-4.8 4.6 0 3 1.6 4.4 3.2 4.4 2 0 2.8-.9 2.8-2.2 0-1-.5-1.4-1.1-1.4-1.7 0-1.3 2.3-1.3 2.3-.8-.2-1.5-1.1-1.1-2.2a3 3 0 01-1.7-1c.5-.4 1-.7 1.7-.9-.4-1.3.1-2 1.3-2.2-.3.5-.3 1-.2 1.4 1.8-.5 4.6.3 4.6 3.5 0 3-2.2 5.7-6.2 5 1 .5 1.4 1.4 1.5 2.5-.7-.3-1.5-.3-1.5-.3.5.8 1.1 1.5 1.1 3.2-.8-.4-1.4-1-2.4-.6 1.5 3-.4 7-5 8 1.7-2 2.5-4.2 2.5-6.4 0-7-2-8.2-2-13.1 0-2 1-4.3 3.2-5.8v.1c-1.4-.4-2.3-1-2.8-2 3.2-.9 7.7-.9 10.2.1 2.8.3 4.8 2.5 5.4 3.6.6 1.1 1.7 5.1 0 8.7a7675 7675 0 00-13.5 28.5c-.6 1.3-1 2.6-1 4 0 3.7 3.4 5 5.3 5 2.2 0 4.5-1.8 4.5-4 0-1.3-.7-2-1.8-2-2.5 0-2.4 2-1.9 3.4-1.5-.7-2.5-2-2.2-3.3a4 4 0 01-2.5-1.4c.6-.8 1.3-1.4 2.5-1.4-.5-2 .9-3 2.2-3.4-.4 1.5-.7 3.2 2 3.2 1.8 0 3.3.4 4.2 1.6L46 78c0-2.4-3.3-2.4-5.4-1.7.8-2.8 2.4-4.3 6.3-3.9a3 3 0 01-2-3c0-2.2 1.9-4.7 3.1-5.5l.6 23.7" fill="#fdc50b"/></g></g><g clip-path="url(#aR)"><g clip-path="url(#aS)"><path d="M48.6 194.1c0 6.1-5.5 9.2-9.7 9.2-5.8 0-8.9-3.4-8.9-8 0-2.5.5-4.1 1.7-6.6l13.2-27.5c.5-1 .6-2 .6-3.6 0-2.5-2.4-4.5-4.9-4.6-2.3 0-4.8 2.2-4.8 4.7 0 3 1.6 4.3 3.2 4.3 2 0 2.8-.8 2.8-2.2 0-1-.5-1.4-1.1-1.4-1.7 0-1.3 2.3-1.3 2.3-.8-.2-1.5-1-1.1-2.1a3 3 0 01-1.7-1c.5-.4 1-.8 1.7-.9-.4-1.3.1-2 1.3-2.2-.3.5-.3 1-.2 1.4 1.8-.5 4.6.3 4.6 3.4s-2.2 5.8-6.2 5.1c1 .5 1.4 1.4 1.5 2.5-.7-.3-1.5-.4-1.5-.4.5.9 1.1 1.6 1.1 3.2-.8-.3-1.4-1-2.4-.5 1.5 3-.4 7-5 8 1.7-2 2.5-4.2 2.5-6.4 0-7-2-8.2-2-13.1 0-2 1-4.3 3.2-5.8-1.4-.3-2.3-1-2.8-1.9 3.2-.9 7.7-.9 10.2 0 2.8.4 4.8 2.6 5.4 3.7.6 1 1.7 5 0 8.7a7410.3 7410.3 0 00-13.5 28.5c-.6 1.3-1 2.6-1 4 0 3.6 3.4 4.9 5.3 4.9 2.2 0 4.5-1.7 4.5-3.8 0-1.4-.7-2.2-1.8-2.2-2.5 0-2.4 2.1-1.9 3.5-1.5-.7-2.5-2-2.2-3.3a4 4 0 01-2.5-1.4c.6-.8 1.3-1.4 2.5-1.4-.5-2.1.9-3 2.2-3.5-.4 1.6-.7 3.3 2 3.3 1.8 0 3.3.3 4.2 1.6l.2-8.1c0-2.5-3.3-2.4-5.4-1.7.8-2.8 2.4-4.3 6.3-4a3 3 0 01-2-2.9c0-2.2 1.9-4.8 3.1-5.5l.6 23.7" fill="#fdc50b"/></g></g><g clip-path="url(#aT)"><g clip-path="url(#aU)"><path d="M47.4 194.1c0 6.1 5.5 9.2 9.7 9.2 5.8 0 8.9-3.4 8.9-8 0-2.5-.5-4.1-1.7-6.6l-13.2-27.5c-.5-1-.6-2-.6-3.6 0-2.5 2.4-4.5 4.9-4.6 2.3 0 4.8 2.2 4.8 4.7 0 3-1.6 4.3-3.2 4.3-2 0-2.8-.8-2.8-2.2 0-1 .5-1.4 1.1-1.4 1.7 0 1.3 2.3 1.3 2.3.8-.2 1.5-1 1.1-2.1a3 3 0 001.7-1c-.5-.4-1-.8-1.7-.9.4-1.3-.1-2-1.3-2.2.3.5.3 1 .2 1.4-1.8-.5-4.6.3-4.6 3.4s2.2 5.8 6.2 5.1c-1 .5-1.4 1.4-1.5 2.5.7-.3 1.5-.4 1.5-.4-.5.9-1.1 1.6-1.1 3.2.8-.3 1.4-1 2.4-.5-1.5 3 .4 7 5 8a9.8 9.8 0 01-2.5-6.4c0-7 2-8.2 2-13.1 0-2-1-4.3-3.2-5.8 1.4-.3 2.3-1 2.8-1.9-3.2-.9-7.8-.9-10.2 0a7.6 7.6 0 00-5.4 3.7c-.6 1-1.7 5 0 8.7a8045.6 8045.6 0 0113.5 28.5c.6 1.3 1 2.6 1 4 0 3.6-3.4 4.9-5.3 4.9-2.2 0-4.5-1.7-4.5-3.8 0-1.4.7-2.2 1.8-2.2 2.5 0 2.4 2.1 1.9 3.5 1.5-.7 2.5-2 2.2-3.3a4 4 0 002.5-1.4c-.6-.8-1.3-1.4-2.5-1.4.5-2.1-.9-3-2.2-3.5.4 1.6.7 3.3-2 3.3-1.8 0-3.3.3-4.2 1.6l-.2-8.1c0-2.5 3.3-2.4 5.4-1.7-.8-2.8-2.4-4.3-6.3-4a3 3 0 002-2.9c0-2.2-1.9-4.8-3.1-5.5l-.6 23.7" fill="#fdc50b"/></g></g><g clip-path="url(#aV)"><g clip-path="url(#aW)"><path d="M48 21.9s2.9-2.4 3.9-1.2c1.5 2-4.9 11.7-4.9 15 0 5.7 3.8 7.2 8.4 8 3.1.6 8.2-.2 8.2-.2-1-1.3-1.6-1.6-3.2-1.7 1.8-1 3.6-3 3.6-6.1 0-4.9-2-6.9-2-12.3 0-3 2.5-6.9 2.5-6.9-4.4.4-6.6 4.5-5.3 7.8-.7 0-1.3-.1-1.9-.6-.3.9.2 2 .9 2.8-.6.3-1 .1-1.8 0 0 .9.6 1.9 2 2.8-4-1-6.4 1.7-6.4 4.6 0 2.2 1.5 3.7 3 3.7a3 3 0 001.6-.5c.3.6.1 1.4-.2 2 1.1-.2 1.8-.9 1.3-2.2.9-.1 1.5-.4 2-1a2.3 2.3 0 00-2-.8c.6-1.3 0-2-1-2.6 0 0 .6 2.6-1 2.6-.8 0-1.4-.3-1.4-1.4 0-.9.8-2.2 2.7-2 1.9 0 3.4 1.2 3.4 4.2 0 2.8-2.3 4.1-5.2 4.2-2.6.1-4.6-1.3-4.6-4 0-3.7 5.2-12 5.2-15.2 0-2.5-2.2-3.8-4.3-3.8-2.8 0-5.1 2.7-5.1 2.7l1.6 2" fill="#fdc50b"/></g></g><g clip-path="url(#aX)"><g clip-path="url(#aY)"><path d="M48 21.9s-2.9-2.4-3.9-1.2c-1.5 2 4.9 11.7 4.9 15 0 5.7-3.8 7.2-8.4 8-3.1.6-8.2-.2-8.2-.2 1-1.3 1.6-1.6 3.2-1.7-1.8-1-3.6-3-3.6-6.1 0-4.9 2-6.9 2-12.3 0-3-2.5-6.9-2.5-6.9 4.4.4 6.6 4.5 5.3 7.8.7 0 1.3-.1 1.9-.6.3.9-.2 2-.9 2.8.6.3 1 .1 1.8 0 0 .9-.6 1.9-2 2.8 4-1 6.4 1.7 6.4 4.6 0 2.2-1.5 3.7-3 3.7a3 3 0 01-1.6-.5c-.3.6-.1 1.4.2 2-1.1-.2-1.8-.9-1.3-2.2-.9-.1-1.5-.4-2-1a2.3 2.3 0 012-.8c-.6-1.3 0-2 1-2.6 0 0-.6 2.6 1 2.6.8 0 1.4-.3 1.4-1.4 0-.9-.8-2.2-2.7-2-1.9 0-3.4 1.2-3.4 4.2 0 2.8 2.3 4.1 5.2 4.2 2.6.1 4.6-1.3 4.6-4 0-3.7-5.2-12-5.2-15.2 0-2.5 2.2-3.8 4.3-3.8 2.8 0 5.1 2.7 5.1 2.7l-1.6 2" fill="#fdc50b"/></g></g></svg>