<svg xmlns="http://www.w3.org/2000/svg" width="400" height="400" viewBox="0 0 300 300"><defs><clipPath id="a"><path d="M150 0a150 150 0 100 300 150 150 0 000-300zm0 0"/></clipPath><clipPath id="b"><path d="M0 0h300v90H0zm0 0"/></clipPath><clipPath id="c"><path d="M150 0a150 150 0 100 300 150 150 0 000-300zm0 0"/></clipPath><clipPath id="d"><path d="M0 210h300v90H0zm0 0"/></clipPath><clipPath id="e"><path d="M150 0a150 150 0 100 300 150 150 0 000-300zm0 0"/></clipPath><clipPath id="f"><path d="M96 45h115v196H96zm0 0"/></clipPath><clipPath id="g"><path d="M150 0a150 150 0 100 300 150 150 0 000-300zm0 0"/></clipPath><clipPath id="h"><path d="M89 37h129v212H89zm0 0"/></clipPath><clipPath id="i"><path d="M150 0a150 150 0 100 300 150 150 0 000-300zm0 0"/></clipPath><clipPath id="j"><path d="M96 45h115v196H96zm0 0"/></clipPath><clipPath id="k"><path d="M150 0a150 150 0 100 300 150 150 0 000-300zm0 0"/></clipPath><clipPath id="l"><path d="M89 45h115v196H89zm0 0"/></clipPath><clipPath id="m"><path d="M150 0a150 150 0 100 300 150 150 0 000-300zm0 0"/></clipPath><clipPath id="n"><path d="M82 37h129v212H82zm0 0"/></clipPath><clipPath id="o"><path d="M150 0a150 150 0 100 300 150 150 0 000-300zm0 0"/></clipPath><clipPath id="p"><path d="M89 45h115v196H89zm0 0"/></clipPath><clipPath id="q"><path d="M150 0a150 150 0 100 300 150 150 0 000-300zm0 0"/></clipPath><clipPath id="r"><path d="M0 60h300v180H0zm0 0"/></clipPath><clipPath id="s"><path d="M150 0a150 150 0 100 300 150 150 0 000-300zm0 0"/></clipPath><clipPath id="t"><path d="M176 105h19v90h-19zm0 0"/></clipPath><clipPath id="u"><path d="M150 0a150 150 0 100 300 150 150 0 000-300zm0 0"/></clipPath><clipPath id="v"><path d="M105 105h19v90h-19zm0 0"/></clipPath><clipPath id="w"><path d="M150 0a150 150 0 100 300 150 150 0 000-300zm0 0"/></clipPath><clipPath id="x"><path d="M142 138h16v24h-16zm0 0"/></clipPath><clipPath id="y"><path d="M150 0a150 150 0 100 300 150 150 0 000-300zm0 0"/></clipPath><clipPath id="z"><path d="M151 160h9v80h-9zm0 0"/></clipPath><clipPath id="A"><path d="M150 0a150 150 0 100 300 150 150 0 000-300zm0 0"/></clipPath><clipPath id="B"><path d="M140 60h9v80h-9zm0 0"/></clipPath><clipPath id="C"><path d="M150 0a150 150 0 100 300 150 150 0 000-300zm0 0"/></clipPath><clipPath id="D"><path d="M140 160h9v80h-9zm0 0"/></clipPath><clipPath id="E"><path d="M150 0a150 150 0 100 300 150 150 0 000-300zm0 0"/></clipPath><clipPath id="F"><path d="M151 60h9v80h-9zm0 0"/></clipPath><clipPath id="G"><path d="M150 0a150 150 0 100 300 150 150 0 000-300zm0 0"/></clipPath></defs><g clip-path="url(#a)"><path fill="#fff" d="M0 0h300v300H0z"/></g><g clip-path="url(#b)"><g clip-path="url(#c)"><path d="M-75 90h450V0H-75zm0 0"/></g></g><g clip-path="url(#d)"><g clip-path="url(#e)"><path d="M-75 300h450v-90H-75zm0 0" fill="#060"/></g></g><g clip-path="url(#f)"><g clip-path="url(#g)"><path d="M96.4 239l3.3 2 87.5-151.8c5.2-1.3 8-6.2 10.8-11 1.9-3.3 9.4-16.3 12.6-33.2-13 11.3-20.5 24.2-22.3 27.5-2.9 4.9-5.7 9.7-4.3 14.9"/></g></g><g clip-path="url(#h)"><g clip-path="url(#i)"><path d="M96.4 239l3.3 2 87.5-151.8c5.2-1.3 8-6.2 10.8-11 1.9-3.3 9.4-16.3 12.6-33.2-13 11.3-20.5 24.2-22.3 27.5-2.9 4.9-5.7 9.7-4.3 14.9zm0 0" fill="none" stroke-width=".5" stroke="#000" stroke-miterlimit="10"/></g></g><g clip-path="url(#j)"><g clip-path="url(#k)"><path d="M96.4 239l3.3 2 87.5-151.8c5.2-1.3 8-6.2 10.8-11 1.9-3.3 9.4-16.3 12.6-33.2-13 11.3-20.5 24.2-22.3 27.5-2.9 4.9-5.7 9.7-4.3 14.9" fill="#fff"/></g></g><g clip-path="url(#l)"><g clip-path="url(#m)"><path d="M203.6 239l-3.3 2-87.6-151.8c-5-1.3-7.9-6.2-10.7-11-1.9-3.3-9.4-16.3-12.6-33.2 13 11.3 20.5 24.2 22.3 27.5 2.9 4.9 5.7 9.7 4.3 14.9"/></g></g><g clip-path="url(#n)"><g clip-path="url(#o)"><path d="M203.6 239l-3.3 2-87.6-151.8c-5-1.3-7.9-6.2-10.7-11-1.9-3.3-9.4-16.3-12.6-33.2 13 11.3 20.5 24.2 22.3 27.5 2.9 4.9 5.7 9.7 4.3 14.9zm0 0" fill="none" stroke-width=".5" stroke="#000" stroke-miterlimit="10"/></g></g><g clip-path="url(#p)"><g clip-path="url(#q)"><path d="M203.6 239l-3.3 2-87.6-151.8c-5-1.3-7.9-6.2-10.7-11-1.9-3.3-9.4-16.3-12.6-33.2 13 11.3 20.5 24.2 22.3 27.5 2.9 4.9 5.7 9.7 4.3 14.9" fill="#fff"/></g></g><g clip-path="url(#r)"><g clip-path="url(#s)"><path d="M-75 105v90h189.4c5.6 15 24.3 45 35.6 45s30-30 35.6-45H375v-90H185.6C180 90 161.3 60 150 60s-30 30-35.6 45" fill="#ba0000"/></g></g><g clip-path="url(#t)"><g clip-path="url(#u)"><path d="M185.6 195c5.7-15 9.4-30 9.4-45s-3.8-30-9.4-45c-5.6 15-9.3 30-9.3 45s3.7 30 9.3 45"/></g></g><g clip-path="url(#v)"><g clip-path="url(#w)"><path d="M114.4 195c-5.7-15-9.4-30-9.4-45s3.8-30 9.4-45c5.6 15 9.3 30 9.3 45s-3.7 30-9.3 45"/></g></g><g clip-path="url(#x)"><g clip-path="url(#y)"><path d="M150 138.8c4.1 0 7.5 5 7.5 11.2s-3.4 11.3-7.5 11.3-7.5-5-7.5-11.3 3.4-11.3 7.5-11.3" fill="#fff"/></g></g><g clip-path="url(#z)"><g clip-path="url(#A)"><path d="M151.9 161s7.5 15 7.5 39.3-7.5 39.4-7.5 39.4" fill="#fff"/></g></g><g clip-path="url(#B)"><g clip-path="url(#C)"><path d="M148.1 139s-7.5-15-7.5-39.3 7.5-39.4 7.5-39.4" fill="#fff"/></g></g><g clip-path="url(#D)"><g clip-path="url(#E)"><path d="M148.1 161s-7.5 15-7.5 39.3 7.5 39.4 7.5 39.4" fill="#fff"/></g></g><g clip-path="url(#F)"><g clip-path="url(#G)"><path d="M151.9 139s7.5-15 7.5-39.3-7.5-39.4-7.5-39.4" fill="#fff"/></g></g></svg>