<svg xmlns="http://www.w3.org/2000/svg" width="400" height="400" viewBox="0 0 300 300"><defs><clipPath id="a"><path d="M150 0a150 150 0 100 300 150 150 0 000-300zm0 0"/></clipPath><clipPath id="b"><path d="M72 73h156v89H72zm0 0"/></clipPath><clipPath id="c"><path d="M150 0a150 150 0 100 300 150 150 0 000-300zm0 0"/></clipPath><clipPath id="d"><path d="M64 65h172v105H64zm0 0"/></clipPath><clipPath id="e"><path d="M150 0a150 150 0 100 300 150 150 0 000-300zm0 0"/></clipPath><clipPath id="f"><path d="M76 75h148v88H76zm0 0"/></clipPath><clipPath id="g"><path d="M150 0a150 150 0 100 300 150 150 0 000-300zm0 0"/></clipPath><clipPath id="h"><path d="M76 74h148v90H76zm0 0"/></clipPath><clipPath id="i"><path d="M150 0a150 150 0 100 300 150 150 0 000-300zm0 0"/></clipPath><clipPath id="j"><path d="M108 108h84v84h-84zm0 0"/></clipPath><clipPath id="k"><path d="M150 0a150 150 0 100 300 150 150 0 000-300zm0 0"/></clipPath><clipPath id="l"><path d="M98 98h104v104H98zm0 0"/></clipPath><clipPath id="m"><path d="M150 0a150 150 0 100 300 150 150 0 000-300zm0 0"/></clipPath><clipPath id="n"><path d="M0 165h300v135H0zm0 0"/></clipPath><clipPath id="o"><path d="M150 0a150 150 0 100 300 150 150 0 000-300zm0 0"/></clipPath><clipPath id="p"><path d="M0 235h300v35H0zm0 0"/></clipPath><clipPath id="q"><path d="M150 0a150 150 0 100 300 150 150 0 000-300zm0 0"/></clipPath><clipPath id="r"><path d="M163 46h23v5h-23zm0 0"/></clipPath><clipPath id="s"><path d="M150 0a150 150 0 100 300 150 150 0 000-300zm0 0"/></clipPath><clipPath id="t"><path d="M156 39h37v18h-37zm0 0"/></clipPath><clipPath id="u"><path d="M150 0a150 150 0 100 300 150 150 0 000-300zm0 0"/></clipPath><clipPath id="v"><path d="M104 37h86v19h-86zm0 0"/></clipPath><clipPath id="w"><path d="M150 0a150 150 0 100 300 150 150 0 000-300zm0 0"/></clipPath><clipPath id="x"><path d="M97 30h100v33H97zm0 0"/></clipPath><clipPath id="y"><path d="M150 0a150 150 0 100 300 150 150 0 000-300zm0 0"/></clipPath><clipPath id="z"><path d="M75 18h71v23H75zm0 0"/></clipPath><clipPath id="A"><path d="M150 0a150 150 0 100 300 150 150 0 000-300zm0 0"/></clipPath><clipPath id="B"><path d="M68 11h84v37H68zm0 0"/></clipPath><clipPath id="C"><path d="M150 0a150 150 0 100 300 150 150 0 000-300zm0 0"/></clipPath><clipPath id="D"><path d="M138 16h87v35h-87zm0 0"/></clipPath><clipPath id="E"><path d="M150 0a150 150 0 100 300 150 150 0 000-300zm0 0"/></clipPath><clipPath id="F"><path d="M131 9h101v49H131zm0 0"/></clipPath><clipPath id="G"><path d="M150 0a150 150 0 100 300 150 150 0 000-300zm0 0"/></clipPath><clipPath id="H"><path d="M135 10h94v39h-94zm0 0"/></clipPath><clipPath id="I"><path d="M150 0a150 150 0 100 300 150 150 0 000-300zm0 0"/></clipPath><clipPath id="J"><path d="M69 12h75v36H69zm0 0"/></clipPath><clipPath id="K"><path d="M150 0a150 150 0 100 300 150 150 0 000-300zm0 0"/></clipPath><clipPath id="L"><path d="M133 39h41v21h-41zm0 0"/></clipPath><clipPath id="M"><path d="M150 0a150 150 0 100 300 150 150 0 000-300zm0 0"/></clipPath><clipPath id="N"><path d="M104 41h15v2h-15zm0 0"/></clipPath><clipPath id="O"><path d="M150 0a150 150 0 100 300 150 150 0 000-300zm0 0"/></clipPath><clipPath id="P"><path d="M120 38h4v5h-4zm0 0"/></clipPath><clipPath id="Q"><path d="M150 0a150 150 0 100 300 150 150 0 000-300zm0 0"/></clipPath><clipPath id="R"><path d="M0 150h300v35H0zm0 0"/></clipPath><clipPath id="S"><path d="M150 0a150 150 0 100 300 150 150 0 000-300zm0 0"/></clipPath><clipPath id="T"><path d="M0 192h300v36H0zm0 0"/></clipPath><clipPath id="U"><path d="M150 0a150 150 0 100 300 150 150 0 000-300zm0 0"/></clipPath></defs><g clip-path="url(#a)"><path fill="#ce1125" d="M0 0h300v300H0z"/></g><g clip-path="url(#b)"><g clip-path="url(#c)"><path d="M199.4 141.3c8.7 2.3 22 1.8 28 8.7-8.8-2.3-19.6 11.8-28 8.7 7.4 5.2-108 0-98.8 0-8.7-2.3-22-1.8-28-8.7 8.8 2.3 19.6-11.8 28-8.7-7.4-5.2-20.3-9.2-23.3-17.8 7.4 5.2 22.5-4.4 29.3 1.4-5.2-7.4-16.1-15.6-15.9-24.6 5.2 7.4 22.7 3.4 27 11.3-2.3-8.8-9.4-20-6.4-28.6 2.4 8.8 20 11 21.5 19.9.8-9-2.4-22.1 3.8-29-.8 9 15.1 17 13.4 26 3.8-8.3 6-21.5 13.4-26-3.8 8.1 8.7 21.1 3.8 29 6.4-6.4 12.5-18.3 21.5-19.9-6.4 6.4.4 22.8-6.5 28.6 8.3-3.9 18-12.9 27-11.3-8.2 3.8-7.3 21.5-15.8 24.6 9-.8 21.2-5.9 29.3-1.4-9 .8-14 17.8-23.3 17.8" fill="#fbd115"/></g></g><g clip-path="url(#d)"><g clip-path="url(#e)"><path d="M199.4 141.3c8.7 2.3 22 1.8 28 8.7-8.8-2.3-19.6 11.8-28 8.7 7.4 5.2-108 0-98.8 0-8.7-2.3-22-1.8-28-8.7 8.8 2.3 19.6-11.8 28-8.7-7.4-5.2-20.3-9.2-23.3-17.8 7.4 5.2 22.5-4.4 29.3 1.4-5.2-7.4-16.1-15.6-15.9-24.6 5.2 7.4 22.7 3.4 27 11.3-2.3-8.8-9.4-20-6.4-28.6 2.4 8.8 20 11 21.5 19.9.8-9-2.4-22.1 3.8-29-.8 9 15.1 17 13.4 26 3.8-8.3 6-21.5 13.4-26-3.8 8.1 8.7 21.1 3.8 29 6.4-6.4 12.5-18.3 21.5-19.9-6.4 6.4.4 22.8-6.5 28.6 8.3-3.9 18-12.9 27-11.3-8.2 3.8-7.3 21.5-15.8 24.6 9-.8 21.2-5.9 29.3-1.4-9 .8-14 17.8-23.3 17.8zm0 0" fill="none" stroke-width="1.5" stroke="#bc9c07"/></g></g><g clip-path="url(#f)"><g clip-path="url(#g)"><path d="M108.4 150l-31.6-13 34-1.2-25.2-23 32.5 10.4L102.2 93l27 21-4.6-33.9 18.2 28.9 7.2-33.4 7.2 33.4 18.2-28.9-4.6 33.8 27-20.9-16 30.2 32.6-10.4-25.3 23 34.1 1.3-31.6 12.9 31.6 13H76.8" fill="#fbd115"/></g></g><g clip-path="url(#h)"><g clip-path="url(#i)"><path d="M108.4 150l-31.6-13 34-1.2-25.2-23 32.5 10.4L102.2 93l27 21-4.6-33.9 18.2 28.9 7.2-33.4 7.2 33.4 18.2-28.9-4.6 33.8 27-20.9-16 30.2 32.6-10.4-25.3 23 34.1 1.3-31.6 12.9 31.6 13H76.8zm0 0" fill="none" stroke-width="1.5" stroke-linejoin="round" stroke="#bc9c07"/></g></g><g clip-path="url(#j)"><g clip-path="url(#k)"><path d="M191.4 150a41.4 41.4 0 11-82.7 0 41.4 41.4 0 0182.7 0" fill="#fbd115"/></g></g><g clip-path="url(#l)"><g clip-path="url(#m)"><path d="M191.4 150a41.4 41.4 0 11-82.7 0 41.4 41.4 0 0182.7 0zm0 0" fill="none" stroke-width="1.8" stroke-linecap="round" stroke="#bc9c07"/></g></g><g clip-path="url(#n)"><g clip-path="url(#o)"><path d="M-150 300h600V165h-600zm0 0" fill="#003e86"/></g></g><g clip-path="url(#p)"><g clip-path="url(#q)"><path d="M-150 257.1c20 0 40 12.9 60 12.9s40-12.9 60-12.9S10 270 30 270s40-12.9 60-12.9 40 12.9 60 12.9 40-12.9 60-12.9 40 12.9 60 12.9 40-12.9 60-12.9 40 12.9 60 12.9 40-12.9 60-12.9v-21.4c-20 0-40 12.9-60 12.9s-40-12.9-60-12.9-40 12.9-60 12.9-40-12.9-60-12.9-40 12.9-60 12.9-40-12.9-60-12.9-40 12.9-60 12.9-40-12.9-60-12.9-40 12.9-60 12.9-40-12.9-60-12.9" fill="#fff"/></g></g><g clip-path="url(#r)"><g clip-path="url(#s)"><path d="M163.6 49.9l22.2.1c.1-1-2-2.8-3.7-3-5.6-1-9.8.9-16.6 1" fill="#fbd115"/></g></g><g clip-path="url(#t)"><g clip-path="url(#u)"><path d="M163.6 49.9l22.2.1c.1-1-2-2.8-3.7-3-5.6-1-9.8.9-16.6 1zm0 0" fill="none" stroke-width="1.2" stroke="#bc9c07"/></g></g><g clip-path="url(#v)"><g clip-path="url(#w)"><path d="M119.4 44.6a33.5 33.5 0 0025 11.3c13 0 27.4-10.5 44.8-13.7L132.3 41c-7.3-5-13-4.4-16.7-1.3l-11 .4c-1.5.8 1.3 4.3 3.6 4.4" fill="#fbd115"/></g></g><g clip-path="url(#x)"><g clip-path="url(#y)"><path d="M119.4 44.6a33.5 33.5 0 0025 11.3c13 0 27.4-10.5 44.8-13.7L132.3 41c-7.3-5-13-4.4-16.7-1.3l-11 .4c-1.5.8 1.3 4.3 3.6 4.4zm0 0" fill="none" stroke-width="1.2" stroke="#bc9c07"/></g></g><g clip-path="url(#z)"><g clip-path="url(#A)"><path d="M145.2 40.9c-2.1-9.5-9.7-13.7-19-14.9-10.5-1.4-35-2.8-51.2-7.5 7 7 21.7 10.4 32 12 10.8 1.6 21.3 4 29.6 10.3" fill="#fbd115"/></g></g><g clip-path="url(#B)"><g clip-path="url(#C)"><path d="M145.2 40.9c-2.1-9.5-9.7-13.7-19-14.9-10.5-1.4-35-2.8-51.2-7.5 7 7 21.7 10.4 32 12 10.8 1.6 21.3 4 29.6 10.3zm0 0" fill="none" stroke-width="1.2" stroke="#bc9c07"/></g></g><g clip-path="url(#D)"><g clip-path="url(#E)"><path d="M138.3 47.2c3.4 4.4 8.6 4.1 14.3.3 5.6-3.8 11.7-14.4 14.7-14.6C188 31.7 213 23 225 16.2c-15.2 2.2-30.2 4.6-45.4 4.7-26 0-29.2 12-39.8 20.2" fill="#fbd115"/></g></g><g clip-path="url(#F)"><g clip-path="url(#G)"><path d="M138.3 47.2c3.4 4.4 8.6 4.1 14.3.3 5.6-3.8 11.7-14.4 14.7-14.6C188 31.7 213 23 225 16.2c-15.2 2.2-30.2 4.6-45.4 4.7-26 0-29.2 12-39.8 20.2" fill="none" stroke-width="1.2" stroke-linecap="round" stroke="#bc9c07"/></g></g><g clip-path="url(#H)"><g clip-path="url(#I)"><path d="M142.3 42.1c5.6-3.5 10-8.1 15.3-12 8.6-6.4 18.5-6.6 29.2-6.7 9.5-.1 26-4 35-6.2" fill="none" stroke-width="1.2" stroke-linecap="round" stroke="#bc9c07"/></g></g><g clip-path="url(#J)"><g clip-path="url(#K)"><path d="M136.5 40.4C135 32 127 29.4 117 27.8c-11-1.6-22.2-2.5-33-5.6-2.8-.7-5.3-2-8-3" fill="none" stroke-width="1.2" stroke="#bc9c07"/></g></g><g clip-path="url(#L)"><g clip-path="url(#M)"><path d="M140 53c10.3.7 18-2.4 26.7-6.7" fill="none" stroke-width="1.2" stroke-linecap="round" stroke="#bc9c07"/></g></g><g clip-path="url(#N)"><g clip-path="url(#O)"><path d="M104.6 41.8h13" fill="none" stroke-width="1.2" stroke-linecap="round" stroke="#bc9c07"/></g></g><g clip-path="url(#P)"><g clip-path="url(#Q)"><path d="M123.4 40.4a1.6 1.6 0 01-3.3 0 1.6 1.6 0 013.3 0" fill="#bc9c07"/></g></g><g clip-path="url(#R)"><g clip-path="url(#S)"><path d="M-150 171.4c20 0 40 12.9 60 12.9s40-12.9 60-12.9 40 12.9 60 12.9 40-12.9 60-12.9 40 12.9 60 12.9 40-12.9 60-12.9 40 12.9 60 12.9 40-12.9 60-12.9 40 12.9 60 12.9 40-12.9 60-12.9V150c-20 0-40 12.9-60 12.9S350 150 330 150s-40 12.9-60 12.9-40-12.9-60-12.9-40 12.9-60 12.9S110 150 90 150s-40 12.9-60 12.9S-10 150-30 150s-40 12.9-60 12.9-40-12.9-60-12.9" fill="#fff"/></g></g><g clip-path="url(#T)"><g clip-path="url(#U)"><path d="M-150 214.3c20 0 40 12.8 60 12.8s40-12.8 60-12.8S10 227 30 227s40-12.8 60-12.8 40 12.8 60 12.8 40-12.8 60-12.8 40 12.8 60 12.8 40-12.8 60-12.8 40 12.8 60 12.8 40-12.8 60-12.8v-21.4c-20 0-40 12.8-60 12.8S350 193 330 193s-40 12.8-60 12.8-40-12.8-60-12.8-40 12.8-60 12.8S110 193 90 193s-40 12.8-60 12.8S-10 193-30 193s-40 12.8-60 12.8-40-12.8-60-12.8" fill="#fff"/></g></g></svg>