<svg xmlns="http://www.w3.org/2000/svg" width="400" height="400" viewBox="0 0 300 300"><defs><clipPath id="a"><path d="M150 0a150 150 0 100 300 150 150 0 000-300zm0 0"/></clipPath><clipPath id="b"><path d="M93 117h125v138H93zm0 0"/></clipPath><clipPath id="c"><path d="M150 0a150 150 0 100 300 150 150 0 000-300zm0 0"/></clipPath><clipPath id="d"><path d="M197 52h42v40h-42zm0 0"/></clipPath><clipPath id="e"><path d="M150 0a150 150 0 100 300 150 150 0 000-300zm0 0"/></clipPath><clipPath id="f"><path d="M152 45h42v40h-42zm0 0"/></clipPath><clipPath id="g"><path d="M150 0a150 150 0 100 300 150 150 0 000-300zm0 0"/></clipPath><clipPath id="h"><path d="M15 66h42v40H15zm0 0"/></clipPath><clipPath id="i"><path d="M150 0a150 150 0 100 300 150 150 0 000-300zm0 0"/></clipPath><clipPath id="j"><path d="M61 52h42v40H61zm0 0"/></clipPath><clipPath id="k"><path d="M150 0a150 150 0 100 300 150 150 0 000-300zm0 0"/></clipPath><clipPath id="l"><path d="M106 45h42v40h-42zm0 0"/></clipPath><clipPath id="m"><path d="M150 0a150 150 0 100 300 150 150 0 000-300zm0 0"/></clipPath><clipPath id="n"><path d="M243 66h42v40h-42zm0 0"/></clipPath><clipPath id="o"><path d="M150 0a150 150 0 100 300 150 150 0 000-300zm0 0"/></clipPath></defs><g clip-path="url(#a)"><path fill="#004694" d="M0 0h300v300H0z"/></g><g clip-path="url(#b)"><g clip-path="url(#c)"><path d="M146.7 117.8h2l3.4 3.4c0 1 .4 1.6 1.3 1.9l-2.4.3c-.4.5-.8.8-1.3 1.1.1 1.3 1.3 2 2.2 3 .8 0 1.8 0 2.5.7h1.9v2.6c.8-.1 1.8 0 2-1h4.2c.4.8 1.2.9 2 1.2l.2 1.7c.7-.9 1.4-2 2.7-2.1l1.2 1.7c.8 0 1.5 0 1.8.9h1.3l.1 4.7.8.4v3.8c.8.6 2 1.2 2.8 0h1a6.4 6.4 0 001.8 1.8v3.6c1.7.6.6 2.8 1 4.1a5 5 0 011.8 2.2l.7-1.2h2.8l1.2 1.5.8.9c.7.1 1.3.3 1.8.8h1.7c.4 1 1.5 1 2.4 1.1l-1.2 1c0 2 .2 4 0 6l-.8.4c0 1-.2 2-.9 3l1.7-.1v1h.9v-1h1.5l.1 1c.9 0 2.2-.4 2.7.6h6.8l.1 1.2 1 1.3h2.4v1.3c.6.7 1.4 1.2 2.4 1.2v-1.7h1.5l.1-.9c1.1 0 2.5-.3 2.8 1.2l.9-1.3c.7.2 1.3.7 1.9 1.1v1.3c1.3.2.8 1.6.9 2.5l-1.6 1.2v3.9H214v4.4l-2.5 2.3v2.7l-1.7 1.5v1a4 4 0 01-2.2 1.2 41.6 41.6 0 00-1.2 1.4l-1 .3 1.3.8a200 200 0 000 5.3c-1.1 1-2.5.9-3.8.9l-1.4 1.6c-1 0-1.6.7-2.2 1.3v2.6c1.5.8 2 3 4 2.9 0 1.4.3 3-1 3.9a55.9 55.9 0 00-1.9 0c-.9 1.3-2.9.4-4.3.6v-1.5a69.7 69.7 0 00-1.3 0 70 70 0 01-1.3 1.5 4 4 0 00-2 .9h-2.7l-.1 1h-2c-.6.5-1.1 1.2-1.2 2l-1.4 1.2c0 1 0 2.1-1 2.6.2 1-.6 3 1 3.4v1.2h-6.5V226c-1.6-.5-.7-2.5-1-3.6l-.9-.1v-1.4c-.7-.1-1.5 0-1.8-.8h-1.2l-.1-1.8h-4v1.2l-1.2 1.3h-2a80.7 80.7 0 00-1 1.5h-3l-1 1.2-.1 1.2c-.8.1-1.6.1-1.8 1h-2l-1.1 1.6h-3.6c-.5 1.4-2.2.7-3.3.9a6.3 6.3 0 01-1.8 1.7v2.3h-1v2.2l-1.6 1.3v6l1.6 1.2v5.2l-1 1.1h-1.4v1.4l-1 1h-4.4a72.3 72.3 0 01-2 2.5h-3c0-.7-.2-1.5-.8-2v-5.8l2.4-2.4v-2.5l-.8-.4v-8h-1.5c0-.7 0-1.8-1-1.9v-5.9l-1.4-1.2c-.2-.8-.2-1.7-1-2v-1.7c-1.1-.4-1-2 .2-2.3l-2.7-2.5v-1.1c-1-.2-2-.7-3-1-.2-.7-.9-.7-1.6-.8l-.6-.7a2.6 2.6 0 01-1.6-.7h-1.1c-.4-1.6-1.1-3-1-4.7a17 17 0 01-1-1.1h-6a1.6 1.6 0 01-1.3-.6 31.1 31.1 0 00-1.4-1.3v-4c-.4-1-1-1.7-1.5-2.5v-1.2l-1-.2v-1.2c-1-.6-.6-1.8-.7-2.7h-2.4v-1.3l-1.2-1.1-1.3-.1v-1.3c-.8-.4-1-1.2-1-2h1.7v-4.5c-.5-1-1-1.9-1.7-2.6l-.8-1h-1.1l-1.1-1.1v-1.8c-1.2-.3-.8-1.6-1-2.5-1.4-1-.1-2.8.3-4l1-1a14.7 14.7 0 001.4-1.7h2.1l1.3 1.6 1.4-.1v1.6h8c0-.7 0-1.7 1-1.8v-4.6c1 0 2 0 2.7-.7l1.2-.1v-2.5h4l.3-1c1 0 1.4.5 1.7 1.3l1.4-1.7c.8-.2 1.6-.5 2.1-1.2.9-.7 2-1 2.9-1.6l-1-.9c0-1.1-.8-2-1.7-2.5V148l2-1.9h1.8c1-1.4 2.3-2.6 3.6-3.7v-1.2h1.3c.2.8.9.9 1.5.9a8 8 0 011.2-1.2v-1c1.3-.9.4-2.8.7-4 .6-.7 1.5-1.1 1.8-2-.2-.9-1.1-1.3-1.7-2 .4-2-1.5-3-2.6-4.3l-1.4-.2c-.1-.7 0-1.5-.8-2a91 91 0 010-2.9c2 0 4.2.2 6.2 0l.4-.8c.9-.5 1.9-.9 2.7-1.6h2.5l1.3-1.6h1.4l.1-.8" fill="#fcc700"/></g></g><g clip-path="url(#d)"><g clip-path="url(#e)"><path d="M218.2 52.5l-4.9 15.1-15.6-.1 12.8 9.3-5 14.8 12.9-9.3 12.5 9.3-4.9-15.1 12.7-9H223" fill="#fff"/></g></g><g clip-path="url(#f)"><g clip-path="url(#g)"><path d="M173.3 45.8L168.4 61l-15.6-.2 12.8 9.3-5 14.8 12.9-9.3 12.5 9.3-4.9-15 12.7-9H178" fill="#fff"/></g></g><g clip-path="url(#h)"><g clip-path="url(#i)"><path d="M35.8 66.3l5 15.1 15.5-.2-12.8 9.3 5 14.8L35.7 96l-12.5 9.3 4.8-15-12.7-9h15.9" fill="#fff"/></g></g><g clip-path="url(#j)"><g clip-path="url(#k)"><path d="M81.8 52.5l4.9 15.1 15.6-.1-12.8 9.3 5 14.8-12.9-9.3-12.5 9.3L74 76.5l-12.7-9H77" fill="#fff"/></g></g><g clip-path="url(#l)"><g clip-path="url(#m)"><path d="M126.7 45.8l4.9 15.1 15.6-.2-12.8 9.3 5 14.8-12.9-9.3-12.5 9.3 4.9-15-12.7-9H122" fill="#fff"/></g></g><g clip-path="url(#n)"><g clip-path="url(#o)"><path d="M264.2 66.3l-5 15.1-15.5-.2 12.8 9.3-5 14.8 12.8-9.3 12.5 9.3-4.8-15 12.7-9h-15.9" fill="#fff"/></g></g></svg>