<svg xmlns="http://www.w3.org/2000/svg" width="400" height="400" viewBox="0 0 300 300"><defs><clipPath id="a"><path d="M0 0h300v100H0zm0 0"/></clipPath><clipPath id="b"><path d="M150 0a150 150 0 100 300 150 150 0 000-300zm0 0"/></clipPath><clipPath id="c"><path d="M0 100h300v100H0zm0 0"/></clipPath><clipPath id="d"><path d="M150 0a150 150 0 100 300 150 150 0 000-300zm0 0"/></clipPath><clipPath id="e"><path d="M0 200h300v100H0zm0 0"/></clipPath><clipPath id="f"><path d="M150 0a150 150 0 100 300 150 150 0 000-300zm0 0"/></clipPath><clipPath id="g"><path d="M0 0h100v300H0zm0 0"/></clipPath><clipPath id="h"><path d="M150 0a150 150 0 100 300 150 150 0 000-300zm0 0"/></clipPath></defs><g clip-path="url(#a)"><g clip-path="url(#b)"><path d="M-50 100h600V0H-50zm0 0" fill="#00793c"/></g></g><g clip-path="url(#c)"><g clip-path="url(#d)"><path d="M-50 200h600V100H-50zm0 0" fill="#fff"/></g></g><g clip-path="url(#e)"><g clip-path="url(#f)"><path d="M-50 300h600V200H-50zm0 0" fill="#ce1125"/></g></g><g clip-path="url(#g)"><g clip-path="url(#h)"><path d="M-50 0l150 100v100L-50 300zm0 0"/></g></g></svg>