<svg xmlns="http://www.w3.org/2000/svg" width="400" height="400" viewBox="0 0 300 300"><defs><clipPath id="a"><path d="M150 0a150 150 0 100 300 150 150 0 000-300zm0 0"/></clipPath><clipPath id="b"><path d="M0 75h300v150H0zm0 0"/></clipPath><clipPath id="c"><path d="M150 0a150 150 0 100 300 150 150 0 000-300zm0 0"/></clipPath><clipPath id="d"><path d="M75 75h150v150H75zm0 0"/></clipPath><clipPath id="e"><path d="M150 0a150 150 0 100 300 150 150 0 000-300zm0 0"/></clipPath></defs><g clip-path="url(#a)"><path fill="#ec1c23" d="M0 0h300v300H0z"/></g><g clip-path="url(#b)"><g clip-path="url(#c)"><path d="M-75 225h450V75H-75zm0 0" fill="#fff"/></g></g><g clip-path="url(#d)"><g clip-path="url(#e)"><path d="M136.4 170.6l1.3.1c1.2.2 2.3 1.2 2.5 2.3.2 1.2 0 2.1-.2 2.6l-.1.1-.1.1a1 1 0 01-.3.1 1.3 1.3 0 01-.3 0c-.6 0-1.4-.8-2-2.3-.9-1.7-1.2-2.5-1.1-2.8a.4.4 0 01.3-.2m9.3-1.7c1.5 0 5.1.8 5.6 1.4v.1c0 .4-1 2-2.1 3.6l-2.2 2.9-1.1-3.7c-.6-2-1-3.6-.8-4v-.1l.6-.2m-19-1.4h.5c2.5 0 4 2 4 5.8 0 5-3.1 4.6-4.6-.6-1.2-4.5-1.3-5.1 0-5.2m66.6-4h.2c.6 0 1.8.6 2.8 1.4 1.7 1.4 1.7 1.5-.5 4a9.6 9.6 0 01-2.6 2.5h-.1a50 50 0 00-3.6-.5c-1.8-.3-3-1-3-2 .4-1.6 4.9-5.2 6.8-5.4m-13.2-3c3.6 0 5.6 2.4 1.6 5.4-2.5 2-6.2 2-8.5.2-1.7-1.3-1.6-1.5 1.4-3.6a11 11 0 015.5-2m-62.8-9c1.4 0 2.6 0 3.4.2 1.2.3 2.1.6 2.5 1l.2.4a1 1 0 010 .5c0 .8-1.2 1.8-3.3 2.9-1.8.9-4.7 2-6.6 2.3-3.1.6-3.5.4-4.8-2.4-.8-1.6-1.4-3.2-1.5-3.5v-.1c.7-.7 6.2-1.3 10.1-1.3m40.5-4.1c.7-.1 1.6 1 1.8 2.7.2 1 0 1.8-.3 2v.1h-.2c-1.3 0-2-1.1-2-3.2 0-1 .3-1.5.7-1.6m-6.5-3.8c.4 0 .8.3 1.4 1a11 11 0 012 3.7c.9 2.8-.4 4-3 2.7-2.6-1.4-3.3-3.5-1.7-6 .6-1 1-1.4 1.3-1.4m-18.4-.4c.8-.1 2 .4 3.3 1.5.9.7 1.3 1.4 1.3 2v.2h-.1a.5.5 0 010 .1l-.1.1a.8.8 0 01-.1.1c-.6.5-1.7.4-3-.6-1-.8-2-2-2-2.5 0-.6.2-.9.7-1m11.6-2H145a.9.9 0 01.3.2l.1.1c.3.4.4 1 .3 1.9-.4 2.7-2.2 3.5-3 1.3-.6-2 0-3.4 1.7-3.5m34.7-5c1.9-.2 3.8 1.1 3.5 3.2-.4 2.7-3.3 3.5-5.6 1.5-1.5-1.1-1.5-1.5-.4-3.2a3.3 3.3 0 012.5-1.5m-61.2-9.6c1.7 0 2.7.8 4 3l1.9 3.2-2.8 1c-2.5 1-3 .9-5-2-1.4-2-1.9-3.2-1.5-4l.1-.2h.1c.5-.6 1.4-.8 2.9-1h.3m10.3-1.7h.1c4 0 4.5.7 2.6 3.2a21 21 0 01-2.7 2.8c-1.3 1-1.7 1-2.5-.8-1-2-1.3-3.3-.9-4.1.5-.8 1.6-1 3.4-1.1m39.6-.7c1 0 2 .1 3.1.6 2 .8 2.3 1.5 2 3.6-.5 2.9-2.1 3.2-7.4 1.5-2.7-.9-3-1.3-2.1-3a5 5 0 014.4-2.7m-18-2.3h.2c2.1 0 2.5 1.8.6 3l-2 1h-.1l-2.6-1-2.3-.7 2.6-1.2c1.3-.6 3-1 3.7-1.1m8.3-.5c1-.1 1.7 1 1.3 3.1-.2 1.2-1.2 2-2.8 2.3-1.2.1-2 0-2.3-.3v-.1-.1c-.2-.6.4-1.6 1.7-3.3.7-1 1.5-1.5 2-1.6m-20.8-9.7h.2c2.2 0 .8 4.2-2 6.1-2.5 1.7-5.2 2.4-6 1.8a.7.7 0 01-.1-.2v-.1h-.1v-.1-.1c0-2.3 5.4-7.2 8-7.4m28-5c1.9 0 2.1.8 1.2 3.4-.3.9-1.6 1.6-2.8 1.6-1.8 0-2.2-.5-2-2.3.2-1.6 1-2.4 2.8-2.6h.9m-16.7-.1c1.3-.1 1.8.6 1.8 2.2 0 2-.7 2.5-4.2 3.4-2.1.5-4.1.8-4.5.6h-.1c-1.2-1.4-.1-3 2.8-4.6 2-1 3.3-1.5 4.2-1.6m7.3-.6c1.4 0 2.4.7 2.6 1.8.3 1.4-.3 1.8-2.6 1.8-1.3 0-2-.2-2.4-.5-.2-.3-.3-.7-.2-1.3.2-1.1 1.2-1.8 2.6-1.8m-24.7-2.6h.4c.9 0 1.6.3 1.9.6v.1a.7.7 0 010 .2h.1V104.6c-.2.7-1.3 1.9-2.4 2.7-.9.6-1.4 1-1.6 1a.5.5 0 01-.1-.1h-.1c-.2-.3-.2-1-.2-2 0-2.1.3-2.7 2-2.8M148 75l-2.5 4.1a30.7 30.7 0 01-7.3 7.5 45.3 45.3 0 00-7 6.2l-2.4 2.8 2.5-.6 3.9-1.3c.8-.3 1.4-.2 1.4.4v.2c-.3 1.4-4.6 4.8-8 6.1-3.1 1.4-7.9 4.8-8.5 6.2v.5h.1c.4.3 1.4.3 2.6 0 2-.4 3-.1 3.6 1.3 1.1 2.2.5 3.2-2 3.2-2.9 0-7 3-7.6 5.4-.4 1.7-2 3-5.5 4.6a42 42 0 00-13.4 9v.2c0 2.1 4.8 2 11.6-.4 1.6-.5 2.2 0 3.4 2.7 1.4 3.2 1.4 3.3-2 7.6-2.3 3-4.3 4.6-6.5 5-4.5 1-5.9 1.9-11.6 7.6-2.8 2.8-5.6 5-6.2 5.1l-.5.1v.2a.4.4 0 000 .1c.5 1 3.5 2.6 5.2 2.6 1.3 0 4.3-1.4 6.8-3.2 4.3-3 4.5-3 6.3-1.3 1 1 1.8 2.9 1.8 4.2 0 2-1 3-6.8 6a55.7 55.7 0 00-13 9.6c-5.2 5.2-6.7 6.2-8.9 5.8-1.4-.2-2.2-.3-2.4-.2v.1a.2.2 0 00-.1 0c0 .3.5.9 1.3 1.8s2.7 1.6 4.1 1.6c4 0 16.6-4.7 20.5-7.6 3.6-2.7 7-3.2 10-1.5 4.4 2.6-3 8-17.2 12.2a100 100 0 00-10.3 3.4v.1c-.2.3 0 1.2.7 2 1.4 2 8.9 2 15.2.2a151 151 0 0014-5.7c9.4-4.2 9.5-4.2 12.8-2.5 7.6 4 6.9 11-2.3 22.5-4 5-7.5 7.2-14 8.8-2.4.6-7.3 5.2-7.3 6.9v.4h1.7c.4-.3.8-.6 1.1-1.1 2-2.7 6.2-4.5 10.3-4.6 4.5 0 10-2.5 14.2-6.3 3.6-3.4 7.3-4.4 10-2.8 1.6 1 3 1 4.8.3 3.3-1.2 5-.6 5 1.8 0 1.1 1.1 2.6 2.7 3.5 1.5.9 4.2 3 6 4.7 1.4 1.3 2.4 2 2.9 2h.1v-.1h.1v-.1h.1v-.1-.1c.1-.7-.3-1.8-1.4-3.5-.6-1-.9-1.9-.8-2.4v-.1h.1v-.1a.3.3 0 01.1 0c.6-.3 3.6-.2 7 .2 5.8.7 6.5 1 10 5 1.7 2 3.1 3.3 4.2 3.8h2.4c.5-.2.9-.6 1-.9v-.1c-.2-.8-3.7-4-7.9-7.5-9.5-8-10.9-10.8-11-21.8 0-6.5.4-8.2 1.9-9.9 2.4-2.6 3.7-2.6 9.5.5 4.5 2.3 5.8 2.5 15.9 2.3 10.8-.3 11.1-.2 16.6 3 3 1.8 6.7 4.2 8.2 5.3 3.4 2.5 6.8 2.7 7.6.4 1-2.7-5.4-8-17.4-14.4-12-6.4-13.2-8.1-7.7-11 3.1-1.7 3.3-1.6 8.3 1.1 4 2.2 5.8 2.7 8.3 2.2l3.3-.7-7.2-5.9c-4-3.2-7.7-6.6-8.5-7.6a13 13 0 00-10-4.7c-2 0-3.7-.3-4.2-.8v-.1c-1.2-2 2.2-3 11.6-3.3 12.7-.5 14.4-2 5.7-4.8a148 148 0 00-11.6-3.2c-3.6-.8-5.6-1.6-6-2.6a1.2 1.2 0 01-.1-.3 1 1 0 010-.3c0-.3.2-.6.5-1 .6-.7 3.5-.6 8.3.2 5.4 1 8.4 1.1 9 .5.5-.7-2-2.5-7.5-5.6-5-2.8-11.4-7.3-14.3-10.1-2.9-2.9-7.1-6-9.5-7.2-3-1.4-4-2.4-3.6-3.6.7-2 5.5-2 8.6 0 1.3.8 4.6 1.5 7.4 1.4h5l-3.3-1.4a53.7 53.7 0 01-13.2-9.3 1 1 0 010-.1v-.1c.4-.3 2.5-.4 5-.3l5.1.3-7.3-5.6c-5.4-4.2-8.7-6-12.4-6.7a506.7 506.7 0 01-7.2-1.6c-3-.7-8.2-6-10.2-10.7" fill="#00a651"/></g></g></svg>