<svg xmlns="http://www.w3.org/2000/svg" width="400" height="400" viewBox="0 0 300 300"><defs><clipPath id="a"><path d="M0 0h300v90H0zm0 0"/></clipPath><clipPath id="b"><path d="M150 0a150 150 0 100 300 150 150 0 000-300zm0 0"/></clipPath><clipPath id="c"><path d="M0 209h300v91H0zm0 0"/></clipPath><clipPath id="d"><path d="M150 0a150 150 0 100 300 150 150 0 000-300zm0 0"/></clipPath><clipPath id="e"><path d="M0 89h300v121H0zm0 0"/></clipPath><clipPath id="f"><path d="M150 0a150 150 0 100 300 150 150 0 000-300zm0 0"/></clipPath><clipPath id="g"><path d="M101 95h98v110h-98zm0 0"/></clipPath><clipPath id="h"><path d="M150 0a150 150 0 100 300 150 150 0 000-300zm0 0"/></clipPath></defs><g clip-path="url(#a)"><g clip-path="url(#b)"><path d="M-75 89.8h450V0H-75zm0 0" fill-rule="evenodd" fill="#001f9f"/></g></g><g clip-path="url(#c)"><g clip-path="url(#d)"><path d="M-75 300h450v-90H-75zm0 0" fill-rule="evenodd" fill="#009443"/></g></g><g clip-path="url(#e)"><g clip-path="url(#f)"><path d="M-75 210h450V89.8H-75zm0 0" fill-rule="evenodd" fill="#fff"/></g></g><g clip-path="url(#g)"><g clip-path="url(#h)"><path d="M153.1 198.5h4.8c-.9-2.3-2.5-3.8-3.6-5.9-2.8.9-5.4 2-8.1 3 .2 1.3 1 2 1.5 3.1h1.6c1.2-.1 3 .3 3.8-.2m-13.9-5.9c-2.3.5-4 1.5-6.3 2 .2 1 .7 1.8.9 2.8 3 .2 5.7.8 8.8 1.1-.9-2.2-2.5-3.6-3.4-5.9m28.4-.9c-2.4 1-4.4 2.2-6.6 3.2.5 4.9 7 2 10.4 1.3l-3.8-4.5m-41.7-1.5c-1.5.6-3.3 1-5 1.5.2 1.3.5 2.3 1 3.2 2.7.3 4.6 1.3 7.4 1.6-1.1-2.1-1.7-4.8-3.4-6.3m56.7 3.6c-.3-1.6-2-3.5-3.3-4.8-1.7 1.4-3.7 2.6-5.2 4.1.6.6 1 1.5 1.3 2.2 2.7-.2 4.6-1.3 7.2-1.5m-67-4.5c-1.5-.4-3 1-4.7 1.1 1.2 1.4 3.6 1.6 5.4 2.5 0-1.4-.7-2.2-.7-3.6m29-1.2c-.6-.5-2.2 0-3.2-.2 0 .3 0 .7.3.7 1 1.7 1.8 3.8 3.1 5.2 2.5-1.4 5.9-1.8 8.1-3.4-.5-.5-.7-1.2-.9-2h-2.4c-.6-.5-2-.1-3-.3zm12.2.3c1 1.5 1.7 3.3 2.9 4.7 2-1.2 4.3-2 6.3-3.2-.4-4.1-6.2-2.1-9.2-1.5m-27.5-2.3c.6 2.3 1.7 4.2 2.5 6.3 2.3-.3 3.8-1.4 5.8-2-.7-3.5-4.8-3.6-8.3-4.3m57.4 5.2c1.8-.1 2.8-1 4.5-1.4-.5-1.6-1.6-2.8-2-4.5-1.3 1.5-3.3 3-2.5 5.9m-17.1-4.7c.7 1.9 2 3.1 3.3 4.5 1.8-2.1 8.2-4.3 3.4-6.3-2.4.4-4.2 1.4-6.7 1.8m-52.2-3.9l2.2 6.8c2-.5 4.2-.9 5.9-1.8-.8-3.6-4.5-4.2-8.1-5m-3 4.3c-.8-1.3-.8-3.3-1.8-4.5-.8 2-2 3.6-2.7 5.6 1.6-.3 3.4-.4 4.5-1m66.2-3.9c.9 1.8 2.4 3 3.4 4.7 1.7-1.3 2.7-3.4 3.8-5.4-1.1-3.5-4.8.2-7.2.7m-34.7-74.3v-6.5c-6.7 1.5-9.8 6.7-10.5 14.2-.4 1.3-.4 4.3 0 5.6a54 54 0 005.6 19.1c.5-2 3.3-3.2 3.8-5.6.8-3.3-.5-6.8 0-10.8h-5.6c1-1.5 2.7-2.4 3.6-4a12.8 12.8 0 002.3-2.3c.3-.3.8-.5.8-1.1.4-2.3.4-6.2 0-8.6m8.2-6.5v-.2c-1.9 2.9.2 11.2-.3 15 2.1 2.7 4.8 4.7 7.2 7-1.5 1.2-4-.9-5.4.3-1.5 1.2.5 10.1 0 11.2 1 2 2.3 3.5 3.6 5a58.8 58.8 0 005.2-18.5c.4-1.3.4-4.1 0-5.4-.9-7.4-3.3-13.2-10.3-14.4M130.2 120c.2-9.4 3.5-17.4 10.4-21 1.6-.9 3-.7 4.9-1.6 1.4-.6 2.3-2.2 4.3-2.2s2.9 1.3 4.3 2.2c9.9 1.6 14 9 15.3 19.2 0 .7-.3 2 .2 2.5v.6c-.5.4-.1 1.7-.2 2.5-1 8.8-3.7 16-6.8 22.7 7.6 10.9 15.7 21.1 23.6 31.5 1.5-.4 2.6-1.1 4-1.5 3 5.6 5.6 11.6 8.6 17-11 7.3-25 11.3-41.8 12.7-.7.1-2-.3-2.3.2h-9a99.5 99.5 0 01-43.8-12c2.4-6.1 5.4-11.7 8-17.7 1.4.6 3 1 4.3 1.6 8.1-10 15.5-20.6 23.2-30.9-3-7.1-6-14.4-7-23.6-.1-.7.3-2-.2-2.2" fill-rule="evenodd"/></g></g></svg>