<svg xmlns="http://www.w3.org/2000/svg" width="400" height="400" viewBox="0 0 300 300"><defs><clipPath id="a"><path d="M150 0a150 150 0 100 300 150 150 0 000-300zm0 0"/></clipPath><clipPath id="b"><path d="M0 28h300v244H0zm0 0"/></clipPath><clipPath id="c"><path d="M150 0a150 150 0 100 300 150 150 0 000-300zm0 0"/></clipPath><clipPath id="d"><path d="M0 0h137v137H0zm0 0"/></clipPath><clipPath id="e"><path d="M150 0a150 150 0 100 300 150 150 0 000-300zm0 0"/></clipPath><clipPath id="f"><path d="M29 27h79v75H29zm0 0"/></clipPath><clipPath id="g"><path d="M150 0a150 150 0 100 300 150 150 0 000-300zm0 0"/></clipPath></defs><g clip-path="url(#a)"><path fill="#be092f" d="M0 0h300v300H0z"/></g><g clip-path="url(#b)"><g clip-path="url(#c)"><path d="M0 259h570M0 204.6h570M0 150h570M0 95.5h570M0 40.9h570" fill="none" stroke-width="25" stroke="#fff"/></g></g><g clip-path="url(#d)"><g clip-path="url(#e)"><path d="M0 136.4h136.4V0H0zm0 0" fill="#002868"/></g></g><g clip-path="url(#f)"><g clip-path="url(#g)"><path d="M29.3 55.5l24 17.5-9.2 28.3 24-17.5 24.1 17.5L83 73l24-17.5H77.5l-9.2-28.2L59 55.5" fill="#fff"/></g></g></svg>