<svg xmlns="http://www.w3.org/2000/svg" width="400" height="400" viewBox="0 0 300 300"><defs><clipPath id="a"><path d="M150 0a150 150 0 100 300 150 150 0 000-300zm0 0"/></clipPath><clipPath id="b"><path d="M0 0h300v225H0zm0 0"/></clipPath><clipPath id="c"><path d="M150 0a150 150 0 100 300 150 150 0 000-300zm0 0"/></clipPath><clipPath id="d"><path d="M0 0h300v75H0zm0 0"/></clipPath><clipPath id="e"><path d="M150 0a150 150 0 100 300 150 150 0 000-300zm0 0"/></clipPath><clipPath id="f"><path d="M112 112h107v76H112zm0 0"/></clipPath><clipPath id="g"><path d="M150 0a150 150 0 100 300 150 150 0 000-300zm0 0"/></clipPath></defs><g clip-path="url(#a)"><path fill="#229e46" d="M0 0h300v300H0z"/></g><g clip-path="url(#b)"><g clip-path="url(#c)"><path d="M-150 225h600V0h-600zm0 0"/></g></g><g clip-path="url(#d)"><g clip-path="url(#e)"><path d="M-150 75h600V0h-600zm0 0" fill="#e70013"/></g></g><g clip-path="url(#f)"><g clip-path="url(#g)"><path d="M168.2 150l50.5-16.4-31.2 43v-53.1l31.2 42.9zm8.3-26.5a32.6 32.6 0 10-37.8 53 32.6 32.6 0 0037.8 0 37.5 37.5 0 110-53" fill="#fff"/></g></g></svg>