<svg xmlns="http://www.w3.org/2000/svg" width="400" height="400" viewBox="0 0 300 300"><defs><clipPath id="a"><path d="M150 0a150 150 0 100 300 150 150 0 000-300zm0 0"/></clipPath><clipPath id="b"><path d="M0 150h300v150H0zm0 0"/></clipPath><clipPath id="c"><path d="M150 0a150 150 0 100 300 150 150 0 000-300zm0 0"/></clipPath><clipPath id="d"><path d="M68 56h41v37H68zm0 0"/></clipPath><clipPath id="e"><path d="M150 0a150 150 0 100 300 150 150 0 000-300zm0 0"/></clipPath><clipPath id="f"><path d="M71 62h2v19h-2zm0 0"/></clipPath><clipPath id="g"><path d="M150 0a150 150 0 100 300 150 150 0 000-300zm0 0"/></clipPath><clipPath id="h"><path d="M74 60h2v26h-2zm0 0"/></clipPath><clipPath id="i"><path d="M150 0a150 150 0 100 300 150 150 0 000-300zm0 0"/></clipPath><clipPath id="j"><path d="M76 59h2v30h-2zm0 0"/></clipPath><clipPath id="k"><path d="M150 0a150 150 0 100 300 150 150 0 000-300zm0 0"/></clipPath><clipPath id="l"><path d="M79 58h2v24h-2zm0 0"/></clipPath><clipPath id="m"><path d="M150 0a150 150 0 100 300 150 150 0 000-300zm0 0"/></clipPath><clipPath id="n"><path d="M82 58h1v24h-1zm0 0"/></clipPath><clipPath id="o"><path d="M150 0a150 150 0 100 300 150 150 0 000-300zm0 0"/></clipPath><clipPath id="p"><path d="M84 57h2v25h-2zm0 0"/></clipPath><clipPath id="q"><path d="M150 0a150 150 0 100 300 150 150 0 000-300zm0 0"/></clipPath><clipPath id="r"><path d="M87 57h1v25h-1zm0 0"/></clipPath><clipPath id="s"><path d="M150 0a150 150 0 100 300 150 150 0 000-300zm0 0"/></clipPath><clipPath id="t"><path d="M89 57h2v26h-2zm0 0"/></clipPath><clipPath id="u"><path d="M150 0a150 150 0 100 300 150 150 0 000-300zm0 0"/></clipPath><clipPath id="v"><path d="M92 58h1v25h-1zm0 0"/></clipPath><clipPath id="w"><path d="M150 0a150 150 0 100 300 150 150 0 000-300zm0 0"/></clipPath><clipPath id="x"><path d="M94 59h2v25h-2zm0 0"/></clipPath><clipPath id="y"><path d="M150 0a150 150 0 100 300 150 150 0 000-300zm0 0"/></clipPath><clipPath id="z"><path d="M97 59h2v28h-2zm0 0"/></clipPath><clipPath id="A"><path d="M150 0a150 150 0 100 300 150 150 0 000-300zm0 0"/></clipPath><clipPath id="B"><path d="M99 59h2v25h-2zm0 0"/></clipPath><clipPath id="C"><path d="M150 0a150 150 0 100 300 150 150 0 000-300zm0 0"/></clipPath><clipPath id="D"><path d="M102 59h2v25h-2zm0 0"/></clipPath><clipPath id="E"><path d="M150 0a150 150 0 100 300 150 150 0 000-300zm0 0"/></clipPath><clipPath id="F"><path d="M70 58h41v38H70zm0 0"/></clipPath><clipPath id="G"><path d="M150 0a150 150 0 100 300 150 150 0 000-300zm0 0"/></clipPath><clipPath id="H"><path d="M69 58h43v39H69zm0 0"/></clipPath><clipPath id="I"><path d="M150 0a150 150 0 100 300 150 150 0 000-300zm0 0"/></clipPath><clipPath id="J"><path d="M103 54h6v5h-6zm0 0"/></clipPath><clipPath id="K"><path d="M150 0a150 150 0 100 300 150 150 0 000-300zm0 0"/></clipPath><clipPath id="L"><path d="M103 53h7v7h-7zm0 0"/></clipPath><clipPath id="M"><path d="M150 0a150 150 0 100 300 150 150 0 000-300zm0 0"/></clipPath><clipPath id="N"><path d="M98 52h6v6h-6zm0 0"/></clipPath><clipPath id="O"><path d="M150 0a150 150 0 100 300 150 150 0 000-300zm0 0"/></clipPath><clipPath id="P"><path d="M97 52h7v7h-7zm0 0"/></clipPath><clipPath id="Q"><path d="M150 0a150 150 0 100 300 150 150 0 000-300zm0 0"/></clipPath><clipPath id="R"><path d="M92 51h6v6h-6zm0 0"/></clipPath><clipPath id="S"><path d="M150 0a150 150 0 100 300 150 150 0 000-300zm0 0"/></clipPath><clipPath id="T"><path d="M92 50h7v7h-7zm0 0"/></clipPath><clipPath id="U"><path d="M150 0a150 150 0 100 300 150 150 0 000-300zm0 0"/></clipPath><clipPath id="V"><path d="M87 50h6v6h-6zm0 0"/></clipPath><clipPath id="W"><path d="M150 0a150 150 0 100 300 150 150 0 000-300zm0 0"/></clipPath><clipPath id="X"><path d="M86 49h7v7h-7zm0 0"/></clipPath><clipPath id="Y"><path d="M150 0a150 150 0 100 300 150 150 0 000-300zm0 0"/></clipPath><clipPath id="Z"><path d="M81 49h6v6h-6zm0 0"/></clipPath><clipPath id="aa"><path d="M150 0a150 150 0 100 300 150 150 0 000-300zm0 0"/></clipPath><clipPath id="ab"><path d="M80 49h7v7h-7zm0 0"/></clipPath><clipPath id="ac"><path d="M150 0a150 150 0 100 300 150 150 0 000-300zm0 0"/></clipPath><clipPath id="ad"><path d="M75 50h6v6h-6zm0 0"/></clipPath><clipPath id="ae"><path d="M150 0a150 150 0 100 300 150 150 0 000-300zm0 0"/></clipPath><clipPath id="af"><path d="M75 49h7v7h-7zm0 0"/></clipPath><clipPath id="ag"><path d="M150 0a150 150 0 100 300 150 150 0 000-300zm0 0"/></clipPath><clipPath id="ah"><path d="M70 51h6v6h-6zm0 0"/></clipPath><clipPath id="ai"><path d="M150 0a150 150 0 100 300 150 150 0 000-300zm0 0"/></clipPath><clipPath id="aj"><path d="M70 51h7v7h-7zm0 0"/></clipPath><clipPath id="ak"><path d="M150 0a150 150 0 100 300 150 150 0 000-300zm0 0"/></clipPath><clipPath id="al"><path d="M66 55h6v6h-6zm0 0"/></clipPath><clipPath id="am"><path d="M150 0a150 150 0 100 300 150 150 0 000-300zm0 0"/></clipPath><clipPath id="an"><path d="M65 54h7v7h-7zm0 0"/></clipPath><clipPath id="ao"><path d="M150 0a150 150 0 100 300 150 150 0 000-300zm0 0"/></clipPath><clipPath id="ap"><path d="M63 59h5v6h-5zm0 0"/></clipPath><clipPath id="aq"><path d="M150 0a150 150 0 100 300 150 150 0 000-300zm0 0"/></clipPath><clipPath id="ar"><path d="M62 59h7v7h-7zm0 0"/></clipPath><clipPath id="as"><path d="M150 0a150 150 0 100 300 150 150 0 000-300zm0 0"/></clipPath><clipPath id="at"><path d="M61 65h6v6h-6zm0 0"/></clipPath><clipPath id="au"><path d="M150 0a150 150 0 100 300 150 150 0 000-300zm0 0"/></clipPath><clipPath id="av"><path d="M60 64h7v7h-7zm0 0"/></clipPath><clipPath id="aw"><path d="M150 0a150 150 0 100 300 150 150 0 000-300zm0 0"/></clipPath><clipPath id="ax"><path d="M61 70h6v6h-6zm0 0"/></clipPath><clipPath id="ay"><path d="M150 0a150 150 0 100 300 150 150 0 000-300zm0 0"/></clipPath><clipPath id="az"><path d="M61 70h6v7h-6zm0 0"/></clipPath><clipPath id="aA"><path d="M150 0a150 150 0 100 300 150 150 0 000-300zm0 0"/></clipPath><clipPath id="aB"><path d="M62 76h6v6h-6zm0 0"/></clipPath><clipPath id="aC"><path d="M150 0a150 150 0 100 300 150 150 0 000-300zm0 0"/></clipPath><clipPath id="aD"><path d="M62 75h7v7h-7zm0 0"/></clipPath><clipPath id="aE"><path d="M150 0a150 150 0 100 300 150 150 0 000-300zm0 0"/></clipPath><clipPath id="aF"><path d="M66 55h42v38H66zm0 0"/></clipPath><clipPath id="aG"><path d="M150 0a150 150 0 100 300 150 150 0 000-300zm0 0"/></clipPath><clipPath id="aH"><path d="M66 54h42v39H66zm0 0"/></clipPath><clipPath id="aI"><path d="M150 0a150 150 0 100 300 150 150 0 000-300zm0 0"/></clipPath><clipPath id="aJ"><path d="M113 56h41v37h-41zm0 0"/></clipPath><clipPath id="aK"><path d="M150 0a150 150 0 100 300 150 150 0 000-300zm0 0"/></clipPath><clipPath id="aL"><path d="M149 62h2v19h-2zm0 0"/></clipPath><clipPath id="aM"><path d="M150 0a150 150 0 100 300 150 150 0 000-300zm0 0"/></clipPath><clipPath id="aN"><path d="M146 60h2v26h-2zm0 0"/></clipPath><clipPath id="aO"><path d="M150 0a150 150 0 100 300 150 150 0 000-300zm0 0"/></clipPath><clipPath id="aP"><path d="M144 59h2v30h-2zm0 0"/></clipPath><clipPath id="aQ"><path d="M150 0a150 150 0 100 300 150 150 0 000-300zm0 0"/></clipPath><clipPath id="aR"><path d="M141 58h2v24h-2zm0 0"/></clipPath><clipPath id="aS"><path d="M150 0a150 150 0 100 300 150 150 0 000-300zm0 0"/></clipPath><clipPath id="aT"><path d="M139 58h1v24h-1zm0 0"/></clipPath><clipPath id="aU"><path d="M150 0a150 150 0 100 300 150 150 0 000-300zm0 0"/></clipPath><clipPath id="aV"><path d="M136 57h2v25h-2zm0 0"/></clipPath><clipPath id="aW"><path d="M150 0a150 150 0 100 300 150 150 0 000-300zm0 0"/></clipPath><clipPath id="aX"><path d="M134 57h1v25h-1zm0 0"/></clipPath><clipPath id="aY"><path d="M150 0a150 150 0 100 300 150 150 0 000-300zm0 0"/></clipPath><clipPath id="aZ"><path d="M131 57h2v26h-2zm0 0"/></clipPath><clipPath id="ba"><path d="M150 0a150 150 0 100 300 150 150 0 000-300zm0 0"/></clipPath><clipPath id="bb"><path d="M128 58h2v25h-2zm0 0"/></clipPath><clipPath id="bc"><path d="M150 0a150 150 0 100 300 150 150 0 000-300zm0 0"/></clipPath><clipPath id="bd"><path d="M126 59h2v25h-2zm0 0"/></clipPath><clipPath id="be"><path d="M150 0a150 150 0 100 300 150 150 0 000-300zm0 0"/></clipPath><clipPath id="bf"><path d="M123 59h2v28h-2zm0 0"/></clipPath><clipPath id="bg"><path d="M150 0a150 150 0 100 300 150 150 0 000-300zm0 0"/></clipPath><clipPath id="bh"><path d="M121 59h2v25h-2zm0 0"/></clipPath><clipPath id="bi"><path d="M150 0a150 150 0 100 300 150 150 0 000-300zm0 0"/></clipPath><clipPath id="bj"><path d="M118 59h2v25h-2zm0 0"/></clipPath><clipPath id="bk"><path d="M150 0a150 150 0 100 300 150 150 0 000-300zm0 0"/></clipPath><clipPath id="bl"><path d="M111 58h41v38h-41zm0 0"/></clipPath><clipPath id="bm"><path d="M150 0a150 150 0 100 300 150 150 0 000-300zm0 0"/></clipPath><clipPath id="bn"><path d="M110 58h43v39h-43zm0 0"/></clipPath><clipPath id="bo"><path d="M150 0a150 150 0 100 300 150 150 0 000-300zm0 0"/></clipPath><clipPath id="bp"><path d="M113 54h6v5h-6zm0 0"/></clipPath><clipPath id="bq"><path d="M150 0a150 150 0 100 300 150 150 0 000-300zm0 0"/></clipPath><clipPath id="br"><path d="M112 53h7v7h-7zm0 0"/></clipPath><clipPath id="bs"><path d="M150 0a150 150 0 100 300 150 150 0 000-300zm0 0"/></clipPath><clipPath id="bt"><path d="M118 52h6v6h-6zm0 0"/></clipPath><clipPath id="bu"><path d="M150 0a150 150 0 100 300 150 150 0 000-300zm0 0"/></clipPath><clipPath id="bv"><path d="M118 52h7v7h-7zm0 0"/></clipPath><clipPath id="bw"><path d="M150 0a150 150 0 100 300 150 150 0 000-300zm0 0"/></clipPath><clipPath id="bx"><path d="M124 51h6v6h-6zm0 0"/></clipPath><clipPath id="by"><path d="M150 0a150 150 0 100 300 150 150 0 000-300zm0 0"/></clipPath><clipPath id="bz"><path d="M123 50h7v7h-7zm0 0"/></clipPath><clipPath id="bA"><path d="M150 0a150 150 0 100 300 150 150 0 000-300zm0 0"/></clipPath><clipPath id="bB"><path d="M129 50h6v6h-6zm0 0"/></clipPath><clipPath id="bC"><path d="M150 0a150 150 0 100 300 150 150 0 000-300zm0 0"/></clipPath><clipPath id="bD"><path d="M129 49h7v7h-7zm0 0"/></clipPath><clipPath id="bE"><path d="M150 0a150 150 0 100 300 150 150 0 000-300zm0 0"/></clipPath><clipPath id="bF"><path d="M135 49h6v6h-6zm0 0"/></clipPath><clipPath id="bG"><path d="M150 0a150 150 0 100 300 150 150 0 000-300zm0 0"/></clipPath><clipPath id="bH"><path d="M135 49h7v7h-7zm0 0"/></clipPath><clipPath id="bI"><path d="M150 0a150 150 0 100 300 150 150 0 000-300zm0 0"/></clipPath><clipPath id="bJ"><path d="M141 50h6v6h-6zm0 0"/></clipPath><clipPath id="bK"><path d="M150 0a150 150 0 100 300 150 150 0 000-300zm0 0"/></clipPath><clipPath id="bL"><path d="M140 49h7v7h-7zm0 0"/></clipPath><clipPath id="bM"><path d="M150 0a150 150 0 100 300 150 150 0 000-300zm0 0"/></clipPath><clipPath id="bN"><path d="M146 51h6v6h-6zm0 0"/></clipPath><clipPath id="bO"><path d="M150 0a150 150 0 100 300 150 150 0 000-300zm0 0"/></clipPath><clipPath id="bP"><path d="M145 51h7v7h-7zm0 0"/></clipPath><clipPath id="bQ"><path d="M150 0a150 150 0 100 300 150 150 0 000-300zm0 0"/></clipPath><clipPath id="bR"><path d="M150 55h6v6h-6zm0 0"/></clipPath><clipPath id="bS"><path d="M150 0a150 150 0 100 300 150 150 0 000-300zm0 0"/></clipPath><clipPath id="bT"><path d="M150 54h7v7h-7zm0 0"/></clipPath><clipPath id="bU"><path d="M150 0a150 150 0 100 300 150 150 0 000-300zm0 0"/></clipPath><clipPath id="bV"><path d="M154 59h5v6h-5zm0 0"/></clipPath><clipPath id="bW"><path d="M150 0a150 150 0 100 300 150 150 0 000-300zm0 0"/></clipPath><clipPath id="bX"><path d="M153 59h7v7h-7zm0 0"/></clipPath><clipPath id="bY"><path d="M150 0a150 150 0 100 300 150 150 0 000-300zm0 0"/></clipPath><clipPath id="bZ"><path d="M155 65h6v6h-6zm0 0"/></clipPath><clipPath id="ca"><path d="M150 0a150 150 0 100 300 150 150 0 000-300zm0 0"/></clipPath><clipPath id="cb"><path d="M155 64h6v7h-6zm0 0"/></clipPath><clipPath id="cc"><path d="M150 0a150 150 0 100 300 150 150 0 000-300zm0 0"/></clipPath><clipPath id="cd"><path d="M155 70h6v6h-6zm0 0"/></clipPath><clipPath id="ce"><path d="M150 0a150 150 0 100 300 150 150 0 000-300zm0 0"/></clipPath><clipPath id="cf"><path d="M154 70h7v7h-7zm0 0"/></clipPath><clipPath id="cg"><path d="M150 0a150 150 0 100 300 150 150 0 000-300zm0 0"/></clipPath><clipPath id="ch"><path d="M154 76h6v6h-6zm0 0"/></clipPath><clipPath id="ci"><path d="M150 0a150 150 0 100 300 150 150 0 000-300zm0 0"/></clipPath><clipPath id="cj"><path d="M153 75h7v7h-7zm0 0"/></clipPath><clipPath id="ck"><path d="M150 0a150 150 0 100 300 150 150 0 000-300zm0 0"/></clipPath><clipPath id="cl"><path d="M114 55h42v38h-42zm0 0"/></clipPath><clipPath id="cm"><path d="M150 0a150 150 0 100 300 150 150 0 000-300zm0 0"/></clipPath><clipPath id="cn"><path d="M113 54h43v39h-43zm0 0"/></clipPath><clipPath id="co"><path d="M150 0a150 150 0 100 300 150 150 0 000-300zm0 0"/></clipPath><clipPath id="cp"><path d="M108 26h6v23h-6zm0 0"/></clipPath><clipPath id="cq"><path d="M150 0a150 150 0 100 300 150 150 0 000-300zm0 0"/></clipPath><clipPath id="cr"><path d="M107 26h8v23h-8zm0 0"/></clipPath><clipPath id="cs"><path d="M150 0a150 150 0 100 300 150 150 0 000-300zm0 0"/></clipPath><clipPath id="ct"><path d="M101 34h20v7h-20zm0 0"/></clipPath><clipPath id="cu"><path d="M150 0a150 150 0 100 300 150 150 0 000-300zm0 0"/></clipPath><clipPath id="cv"><path d="M109 35h4v5h-4zm0 0"/></clipPath><clipPath id="cw"><path d="M150 0a150 150 0 100 300 150 150 0 000-300zm0 0"/></clipPath><clipPath id="cx"><path d="M108 35h6v5h-6zm0 0"/></clipPath><clipPath id="cy"><path d="M150 0a150 150 0 100 300 150 150 0 000-300zm0 0"/></clipPath><clipPath id="cz"><path d="M105 44h12v12h-12zm0 0"/></clipPath><clipPath id="cA"><path d="M150 0a150 150 0 100 300 150 150 0 000-300zm0 0"/></clipPath><clipPath id="cB"><path d="M105 44h12v8h-12zm0 0"/></clipPath><clipPath id="cC"><path d="M150 0a150 150 0 100 300 150 150 0 000-300zm0 0"/></clipPath><clipPath id="cD"><path d="M101 58h20v25h-20zm0 0"/></clipPath><clipPath id="cE"><path d="M150 0a150 150 0 100 300 150 150 0 000-300zm0 0"/></clipPath><clipPath id="cF"><path d="M100 58h22v25h-22zm0 0"/></clipPath><clipPath id="cG"><path d="M150 0a150 150 0 100 300 150 150 0 000-300zm0 0"/></clipPath><clipPath id="cH"><path d="M59 77h103v33H59zm0 0"/></clipPath><clipPath id="cI"><path d="M150 0a150 150 0 100 300 150 150 0 000-300zm0 0"/></clipPath><clipPath id="cJ"><path d="M59 76h104v35H59zm0 0"/></clipPath><clipPath id="cK"><path d="M150 0a150 150 0 100 300 150 150 0 000-300zm0 0"/></clipPath><clipPath id="cL"><path d="M73 105h76v11H73zm0 0"/></clipPath><clipPath id="cM"><path d="M150 0a150 150 0 100 300 150 150 0 000-300zm0 0"/></clipPath><clipPath id="cN"><path d="M73 104h76v12H73zm0 0"/></clipPath><clipPath id="cO"><path d="M150 0a150 150 0 100 300 150 150 0 000-300zm0 0"/></clipPath><clipPath id="cP"><path d="M109 55h4v4h-4zm0 0"/></clipPath><clipPath id="cQ"><path d="M150 0a150 150 0 100 300 150 150 0 000-300zm0 0"/></clipPath><clipPath id="cR"><path d="M108 55h6v5h-6zm0 0"/></clipPath><clipPath id="cS"><path d="M150 0a150 150 0 100 300 150 150 0 000-300zm0 0"/></clipPath><clipPath id="cT"><path d="M109 59h4v4h-4zm0 0"/></clipPath><clipPath id="cU"><path d="M150 0a150 150 0 100 300 150 150 0 000-300zm0 0"/></clipPath><clipPath id="cV"><path d="M108 58h6v6h-6zm0 0"/></clipPath><clipPath id="cW"><path d="M150 0a150 150 0 100 300 150 150 0 000-300zm0 0"/></clipPath><clipPath id="cX"><path d="M108 63h6v5h-6zm0 0"/></clipPath><clipPath id="cY"><path d="M150 0a150 150 0 100 300 150 150 0 000-300zm0 0"/></clipPath><clipPath id="cZ"><path d="M108 62h6v6h-6zm0 0"/></clipPath><clipPath id="da"><path d="M150 0a150 150 0 100 300 150 150 0 000-300zm0 0"/></clipPath><clipPath id="db"><path d="M108 67h6v5h-6zm0 0"/></clipPath><clipPath id="dc"><path d="M150 0a150 150 0 100 300 150 150 0 000-300zm0 0"/></clipPath><clipPath id="dd"><path d="M108 66h6v7h-6zm0 0"/></clipPath><clipPath id="de"><path d="M150 0a150 150 0 100 300 150 150 0 000-300zm0 0"/></clipPath><clipPath id="df"><path d="M108 72h6v6h-6zm0 0"/></clipPath><clipPath id="dg"><path d="M150 0a150 150 0 100 300 150 150 0 000-300zm0 0"/></clipPath><clipPath id="dh"><path d="M108 71h6v7h-6zm0 0"/></clipPath><clipPath id="di"><path d="M150 0a150 150 0 100 300 150 150 0 000-300zm0 0"/></clipPath><clipPath id="dj"><path d="M64 79h94v24H64zm0 0"/></clipPath><clipPath id="dk"><path d="M150 0a150 150 0 100 300 150 150 0 000-300zm0 0"/></clipPath><clipPath id="dl"><path d="M75 102h72v8H75zm0 0"/></clipPath><clipPath id="dm"><path d="M150 0a150 150 0 100 300 150 150 0 000-300zm0 0"/></clipPath><clipPath id="dn"><path d="M74 102h74v8H74zm0 0"/></clipPath><clipPath id="do"><path d="M150 0a150 150 0 100 300 150 150 0 000-300zm0 0"/></clipPath></defs><g clip-path="url(#a)"><path fill="#002b7e" d="M0 0h300v300H0z"/></g><g clip-path="url(#b)"><g clip-path="url(#c)"><path d="M0 300h500V150H0zm0 0" fill="#ce1125"/></g></g><g clip-path="url(#d)"><g clip-path="url(#e)"><path d="M108.2 61.1l-1 31.3H75.7c-4-7.6-7.2-14-7.2-22.8 0-7.3 5.8-13 14-13 8.8 0 18.4 2.9 25.8 4.5" fill="#ffd73c"/></g></g><g clip-path="url(#f)"><g clip-path="url(#g)"><path d="M72.2 62.6v18" fill="none" stroke-width=".8" stroke-linecap="round" stroke-linejoin="round" stroke="#000"/></g></g><g clip-path="url(#h)"><g clip-path="url(#i)"><path d="M74.8 60.7v24" fill="none" stroke-width=".8" stroke-linecap="round" stroke-linejoin="round" stroke="#000"/></g></g><g clip-path="url(#j)"><g clip-path="url(#k)"><path d="M77.3 59.5V88" fill="none" stroke-width=".8" stroke-linecap="round" stroke-linejoin="round" stroke="#000"/></g></g><g clip-path="url(#l)"><g clip-path="url(#m)"><path d="M79.9 58.9v22.4" fill="none" stroke-width=".8" stroke-linecap="round" stroke-linejoin="round" stroke="#000"/></g></g><g clip-path="url(#n)"><g clip-path="url(#o)"><path d="M82.4 58.8v22.6" fill="none" stroke-width=".8" stroke-linecap="round" stroke-linejoin="round" stroke="#000"/></g></g><g clip-path="url(#p)"><g clip-path="url(#q)"><path d="M85 58v23.4" fill="none" stroke-width=".8" stroke-linecap="round" stroke-linejoin="round" stroke="#000"/></g></g><g clip-path="url(#r)"><g clip-path="url(#s)"><path d="M87.5 58v23.4" fill="none" stroke-width=".8" stroke-linecap="round" stroke-linejoin="round" stroke="#000"/></g></g><g clip-path="url(#t)"><g clip-path="url(#u)"><path d="M90 58.2v23.5" fill="none" stroke-width=".8" stroke-linecap="round" stroke-linejoin="round" stroke="#000"/></g></g><g clip-path="url(#v)"><g clip-path="url(#w)"><path d="M92.6 58.4V82" fill="none" stroke-width=".8" stroke-linecap="round" stroke-linejoin="round" stroke="#000"/></g></g><g clip-path="url(#x)"><g clip-path="url(#y)"><path d="M95.1 60v23.4" fill="none" stroke-width=".8" stroke-linecap="round" stroke-linejoin="round" stroke="#000"/></g></g><g clip-path="url(#z)"><g clip-path="url(#A)"><path d="M97.7 60.2v26.4" fill="none" stroke-width=".8" stroke-linecap="round" stroke-linejoin="round" stroke="#000"/></g></g><g clip-path="url(#B)"><g clip-path="url(#C)"><path d="M100.2 60.2v23.4" fill="none" stroke-width=".8" stroke-linecap="round" stroke-linejoin="round" stroke="#000"/></g></g><g clip-path="url(#D)"><g clip-path="url(#E)"><path d="M102.8 60.2v23.4" fill="none" stroke-width=".8" stroke-linecap="round" stroke-linejoin="round" stroke="#000"/></g></g><g clip-path="url(#F)"><g clip-path="url(#G)"><path d="M88.2 59c5.4.9 17.2 6.4 15.9 13.9-2 10.6-8.2 6.3-16.4 4.8l-6.2 2c-2.2 2.3-5.5 4.4-7.7 1.7h-3.6v14.3h40.6V61"/></g></g><g clip-path="url(#H)"><g clip-path="url(#I)"><path d="M88.2 59c5.4.9 17.2 6.4 15.9 13.9-2 10.6-8.2 6.3-16.4 4.8l-6.2 2c-2.2 2.3-5.5 4.4-7.7 1.7h-3.6v14.3h40.6V61zm0 0" fill="none" stroke-width=".8" stroke-linecap="round" stroke-linejoin="round" stroke="#000"/></g></g><g clip-path="url(#J)"><g clip-path="url(#K)"><path d="M106.4 54a2.5 2.5 0 110 5 2.5 2.5 0 01-2.5-2.5 2.5 2.5 0 012.5-2.5" fill="#ffd73c"/></g></g><g clip-path="url(#L)"><g clip-path="url(#M)"><path d="M106.4 54a2.5 2.5 0 110 5 2.5 2.5 0 01-2.5-2.5 2.5 2.5 0 012.5-2.5zm0 0" fill="none" stroke-linecap="round" stroke-linejoin="round" stroke="#000"/></g></g><g clip-path="url(#N)"><g clip-path="url(#O)"><path d="M100.9 52.7a2.5 2.5 0 012.4 2.5 2.5 2.5 0 01-2.4 2.4 2.5 2.5 0 01-2.5-2.4 2.5 2.5 0 012.5-2.5" fill="#ffd73c"/></g></g><g clip-path="url(#P)"><g clip-path="url(#Q)"><path d="M100.9 52.7a2.5 2.5 0 012.4 2.5 2.5 2.5 0 01-2.4 2.4 2.5 2.5 0 01-2.5-2.4 2.5 2.5 0 012.5-2.5zm0 0" fill="none" stroke-linecap="round" stroke-linejoin="round" stroke="#000"/></g></g><g clip-path="url(#R)"><g clip-path="url(#S)"><path d="M95.2 51.3a2.5 2.5 0 110 5 2.5 2.5 0 01-2.4-2.6 2.5 2.5 0 012.4-2.4" fill="#ffd73c"/></g></g><g clip-path="url(#T)"><g clip-path="url(#U)"><path d="M95.2 51.3a2.5 2.5 0 110 5 2.5 2.5 0 01-2.4-2.6 2.5 2.5 0 012.4-2.4zm0 0" fill="none" stroke-linecap="round" stroke-linejoin="round" stroke="#000"/></g></g><g clip-path="url(#V)"><g clip-path="url(#W)"><path d="M89.6 50.3a2.5 2.5 0 012.4 2.5 2.5 2.5 0 01-2.4 2.5 2.5 2.5 0 01-2.5-2.5 2.5 2.5 0 012.5-2.5" fill="#ffd73c"/></g></g><g clip-path="url(#X)"><g clip-path="url(#Y)"><path d="M89.6 50.3a2.5 2.5 0 012.4 2.5 2.5 2.5 0 01-2.4 2.5 2.5 2.5 0 01-2.5-2.5 2.5 2.5 0 012.5-2.5zm0 0" fill="none" stroke-linecap="round" stroke-linejoin="round" stroke="#000"/></g></g><g clip-path="url(#Z)"><g clip-path="url(#aa)"><path d="M84 49.8a2.5 2.5 0 012.4 2.4 2.5 2.5 0 01-5 0 2.5 2.5 0 012.5-2.4" fill="#ffd73c"/></g></g><g clip-path="url(#ab)"><g clip-path="url(#ac)"><path d="M84 49.8a2.5 2.5 0 012.4 2.4 2.5 2.5 0 01-5 0 2.5 2.5 0 012.5-2.4zm0 0" fill="none" stroke-linecap="round" stroke-linejoin="round" stroke="#000"/></g></g><g clip-path="url(#ad)"><g clip-path="url(#ae)"><path d="M78.4 50a2.5 2.5 0 012.4 2.6 2.5 2.5 0 01-4.9 0 2.5 2.5 0 012.5-2.5" fill="#ffd73c"/></g></g><g clip-path="url(#af)"><g clip-path="url(#ag)"><path d="M78.4 50a2.5 2.5 0 012.4 2.6 2.5 2.5 0 01-4.9 0 2.5 2.5 0 012.5-2.5zm0 0" fill="none" stroke-linecap="round" stroke-linejoin="round" stroke="#000"/></g></g><g clip-path="url(#ah)"><g clip-path="url(#ai)"><path d="M73 51.9a2.5 2.5 0 012.6 2.5 2.5 2.5 0 01-5 0 2.5 2.5 0 012.5-2.5" fill="#ffd73c"/></g></g><g clip-path="url(#aj)"><g clip-path="url(#ak)"><path d="M73 51.9a2.5 2.5 0 012.6 2.5 2.5 2.5 0 01-5 0 2.5 2.5 0 012.5-2.5zm0 0" fill="none" stroke-linecap="round" stroke-linejoin="round" stroke="#000"/></g></g><g clip-path="url(#al)"><g clip-path="url(#am)"><path d="M68.6 55.2a2.5 2.5 0 012.5 2.4 2.5 2.5 0 01-2.5 2.5 2.5 2.5 0 010-5" fill="#ffd73c"/></g></g><g clip-path="url(#an)"><g clip-path="url(#ao)"><path d="M68.6 55.2a2.5 2.5 0 012.5 2.4 2.5 2.5 0 01-2.5 2.5 2.5 2.5 0 010-5zm0 0" fill="none" stroke-linecap="round" stroke-linejoin="round" stroke="#000"/></g></g><g clip-path="url(#ap)"><g clip-path="url(#aq)"><path d="M65.5 59.7a2.5 2.5 0 11-2.5 2.5 2.5 2.5 0 012.5-2.5" fill="#ffd73c"/></g></g><g clip-path="url(#ar)"><g clip-path="url(#as)"><path d="M65.5 59.7a2.5 2.5 0 11-2.5 2.5 2.5 2.5 0 012.5-2.5zm0 0" fill="none" stroke-linecap="round" stroke-linejoin="round" stroke="#000"/></g></g><g clip-path="url(#at)"><g clip-path="url(#au)"><path d="M64 65.1a2.5 2.5 0 010 5 2.5 2.5 0 01-2.5-2.5A2.5 2.5 0 0164 65" fill="#ffd73c"/></g></g><g clip-path="url(#av)"><g clip-path="url(#aw)"><path d="M64 65.1a2.5 2.5 0 010 5 2.5 2.5 0 01-2.5-2.5A2.5 2.5 0 0164 65zm0 0" fill="none" stroke-linecap="round" stroke-linejoin="round" stroke="#000"/></g></g><g clip-path="url(#ax)"><g clip-path="url(#ay)"><path d="M64 70.7a2.5 2.5 0 110 5 2.5 2.5 0 01-2.5-2.6 2.5 2.5 0 012.5-2.4" fill="#ffd73c"/></g></g><g clip-path="url(#az)"><g clip-path="url(#aA)"><path d="M64 70.7a2.5 2.5 0 110 5 2.5 2.5 0 01-2.5-2.6 2.5 2.5 0 012.5-2.4zm0 0" fill="none" stroke-linecap="round" stroke-linejoin="round" stroke="#000"/></g></g><g clip-path="url(#aB)"><g clip-path="url(#aC)"><path d="M65 76.1a2.5 2.5 0 012.5 2.5 2.5 2.5 0 01-2.4 2.5 2.5 2.5 0 110-5" fill="#ffd73c"/></g></g><g clip-path="url(#aD)"><g clip-path="url(#aE)"><path d="M65 76.1a2.5 2.5 0 012.5 2.5 2.5 2.5 0 01-2.4 2.5 2.5 2.5 0 110-5zm0 0" fill="none" stroke-linecap="round" stroke-linejoin="round" stroke="#000"/></g></g><g clip-path="url(#aF)"><g clip-path="url(#aG)"><path d="M107.5 59.8l-.2 3.2c-6.2-1-14.9-4.4-23-4.4-7.5 0-13.3 3-13.3 10.6a41 41 0 007.3 21.1L74 92.4c-4-7.6-7.2-14-7.2-22.8 0-7.3 5.8-14.4 15.7-14.4 8.7 0 17.6 3 25 4.6" fill="#ffd73c"/></g></g><g clip-path="url(#aH)"><g clip-path="url(#aI)"><path d="M107.5 59.8l-.2 3.2c-6.2-1-14.9-4.4-23-4.4-7.5 0-13.3 3-13.3 10.6a41 41 0 007.3 21.1L74 92.4c-4-7.6-7.2-14-7.2-22.8 0-7.3 5.8-14.4 15.7-14.4 8.7 0 17.6 3 25 4.6zm0 0" fill="none" stroke-linecap="round" stroke-linejoin="round" stroke="#000"/></g></g><g clip-path="url(#aJ)"><g clip-path="url(#aK)"><path d="M113.8 61.1l.9 31.3h31.7c4-7.6 7.1-14 7.1-22.8 0-7.3-5.7-13-14-13-8.7 0-18.4 2.9-25.7 4.5" fill="#ffd73c"/></g></g><g clip-path="url(#aL)"><g clip-path="url(#aM)"><path d="M149.7 62.6v18" fill="none" stroke-width=".8" stroke-linecap="round" stroke-linejoin="round" stroke="#000"/></g></g><g clip-path="url(#aN)"><g clip-path="url(#aO)"><path d="M147.2 60.7v24" fill="none" stroke-width=".8" stroke-linecap="round" stroke-linejoin="round" stroke="#000"/></g></g><g clip-path="url(#aP)"><g clip-path="url(#aQ)"><path d="M144.6 59.5V88" fill="none" stroke-width=".8" stroke-linecap="round" stroke-linejoin="round" stroke="#000"/></g></g><g clip-path="url(#aR)"><g clip-path="url(#aS)"><path d="M142.1 58.9v22.4" fill="none" stroke-width=".8" stroke-linecap="round" stroke-linejoin="round" stroke="#000"/></g></g><g clip-path="url(#aT)"><g clip-path="url(#aU)"><path d="M139.6 58.8v22.6" fill="none" stroke-width=".8" stroke-linecap="round" stroke-linejoin="round" stroke="#000"/></g></g><g clip-path="url(#aV)"><g clip-path="url(#aW)"><path d="M137 58v23.4" fill="none" stroke-width=".8" stroke-linecap="round" stroke-linejoin="round" stroke="#000"/></g></g><g clip-path="url(#aX)"><g clip-path="url(#aY)"><path d="M134.5 58v23.4" fill="none" stroke-width=".8" stroke-linecap="round" stroke-linejoin="round" stroke="#000"/></g></g><g clip-path="url(#aZ)"><g clip-path="url(#ba)"><path d="M132 58.2v23.5" fill="none" stroke-width=".8" stroke-linecap="round" stroke-linejoin="round" stroke="#000"/></g></g><g clip-path="url(#bb)"><g clip-path="url(#bc)"><path d="M129.4 58.4V82" fill="none" stroke-width=".8" stroke-linecap="round" stroke-linejoin="round" stroke="#000"/></g></g><g clip-path="url(#bd)"><g clip-path="url(#be)"><path d="M126.8 60v23.4" fill="none" stroke-width=".8" stroke-linecap="round" stroke-linejoin="round" stroke="#000"/></g></g><g clip-path="url(#bf)"><g clip-path="url(#bg)"><path d="M124.3 60.2v26.4" fill="none" stroke-width=".8" stroke-linecap="round" stroke-linejoin="round" stroke="#000"/></g></g><g clip-path="url(#bh)"><g clip-path="url(#bi)"><path d="M121.7 60.2v23.4" fill="none" stroke-width=".8" stroke-linecap="round" stroke-linejoin="round" stroke="#000"/></g></g><g clip-path="url(#bj)"><g clip-path="url(#bk)"><path d="M119.2 60.2v23.4" fill="none" stroke-width=".8" stroke-linecap="round" stroke-linejoin="round" stroke="#000"/></g></g><g clip-path="url(#bl)"><g clip-path="url(#bm)"><path d="M133.8 59c-5.4.9-17.2 6.4-15.9 13.9 2 10.6 8.1 6.3 16.3 4.8l6.2 2c2.3 2.3 5.5 4.4 7.7 1.7h3.7v14.3h-40.7V61"/></g></g><g clip-path="url(#bn)"><g clip-path="url(#bo)"><path d="M133.8 59c-5.4.9-17.2 6.4-15.9 13.9 2 10.6 8.1 6.3 16.3 4.8l6.2 2c2.3 2.3 5.5 4.4 7.7 1.7h3.7v14.3h-40.7V61zm0 0" fill="none" stroke-width=".8" stroke-linecap="round" stroke-linejoin="round" stroke="#000"/></g></g><g clip-path="url(#bp)"><g clip-path="url(#bq)"><path d="M115.6 54a2.5 2.5 0 100 5 2.5 2.5 0 002.4-2.5 2.5 2.5 0 00-2.4-2.5" fill="#ffd73c"/></g></g><g clip-path="url(#br)"><g clip-path="url(#bs)"><path d="M115.6 54a2.5 2.5 0 100 5 2.5 2.5 0 002.4-2.5 2.5 2.5 0 00-2.4-2.5zm0 0" fill="none" stroke-linecap="round" stroke-linejoin="round" stroke="#000"/></g></g><g clip-path="url(#bt)"><g clip-path="url(#bu)"><path d="M121.1 52.7a2.5 2.5 0 100 5 2.5 2.5 0 000-5" fill="#ffd73c"/></g></g><g clip-path="url(#bv)"><g clip-path="url(#bw)"><path d="M121.1 52.7a2.5 2.5 0 100 5 2.5 2.5 0 000-5zm0 0" fill="none" stroke-linecap="round" stroke-linejoin="round" stroke="#000"/></g></g><g clip-path="url(#bx)"><g clip-path="url(#by)"><path d="M126.7 51.3a2.5 2.5 0 00-2.4 2.4 2.5 2.5 0 002.4 2.5 2.5 2.5 0 100-5" fill="#ffd73c"/></g></g><g clip-path="url(#bz)"><g clip-path="url(#bA)"><path d="M126.7 51.3a2.5 2.5 0 00-2.4 2.4 2.5 2.5 0 002.4 2.5 2.5 2.5 0 100-5zm0 0" fill="none" stroke-linecap="round" stroke-linejoin="round" stroke="#000"/></g></g><g clip-path="url(#bB)"><g clip-path="url(#bC)"><path d="M132.4 50.3a2.5 2.5 0 100 5 2.5 2.5 0 002.5-2.5 2.5 2.5 0 00-2.5-2.5" fill="#ffd73c"/></g></g><g clip-path="url(#bD)"><g clip-path="url(#bE)"><path d="M132.4 50.3a2.5 2.5 0 100 5 2.5 2.5 0 002.5-2.5 2.5 2.5 0 00-2.5-2.5zm0 0" fill="none" stroke-linecap="round" stroke-linejoin="round" stroke="#000"/></g></g><g clip-path="url(#bF)"><g clip-path="url(#bG)"><path d="M138 49.8a2.5 2.5 0 00-2.4 2.4 2.5 2.5 0 002.5 2.5 2.5 2.5 0 002.4-2.5 2.5 2.5 0 00-2.4-2.4" fill="#ffd73c"/></g></g><g clip-path="url(#bH)"><g clip-path="url(#bI)"><path d="M138 49.8a2.5 2.5 0 00-2.4 2.4 2.5 2.5 0 002.5 2.5 2.5 2.5 0 002.4-2.5 2.5 2.5 0 00-2.4-2.4zm0 0" fill="none" stroke-linecap="round" stroke-linejoin="round" stroke="#000"/></g></g><g clip-path="url(#bJ)"><g clip-path="url(#bK)"><path d="M143.6 50a2.5 2.5 0 00-2.5 2.6 2.5 2.5 0 005 0 2.5 2.5 0 00-2.5-2.5" fill="#ffd73c"/></g></g><g clip-path="url(#bL)"><g clip-path="url(#bM)"><path d="M143.6 50a2.5 2.5 0 00-2.5 2.6 2.5 2.5 0 005 0 2.5 2.5 0 00-2.5-2.5zm0 0" fill="none" stroke-linecap="round" stroke-linejoin="round" stroke="#000"/></g></g><g clip-path="url(#bN)"><g clip-path="url(#bO)"><path d="M148.9 51.9a2.5 2.5 0 00-2.5 2.5 2.5 2.5 0 005 0 2.5 2.5 0 00-2.5-2.5" fill="#ffd73c"/></g></g><g clip-path="url(#bP)"><g clip-path="url(#bQ)"><path d="M148.9 51.9a2.5 2.5 0 00-2.5 2.5 2.5 2.5 0 005 0 2.5 2.5 0 00-2.5-2.5zm0 0" fill="none" stroke-linecap="round" stroke-linejoin="round" stroke="#000"/></g></g><g clip-path="url(#bR)"><g clip-path="url(#bS)"><path d="M153.3 55.2a2.5 2.5 0 000 5 2.5 2.5 0 100-5" fill="#ffd73c"/></g></g><g clip-path="url(#bT)"><g clip-path="url(#bU)"><path d="M153.3 55.2a2.5 2.5 0 000 5 2.5 2.5 0 100-5zm0 0" fill="none" stroke-linecap="round" stroke-linejoin="round" stroke="#000"/></g></g><g clip-path="url(#bV)"><g clip-path="url(#bW)"><path d="M156.5 59.7a2.5 2.5 0 000 5 2.5 2.5 0 100-5" fill="#ffd73c"/></g></g><g clip-path="url(#bX)"><g clip-path="url(#bY)"><path d="M156.5 59.7a2.5 2.5 0 000 5 2.5 2.5 0 100-5zm0 0" fill="none" stroke-linecap="round" stroke-linejoin="round" stroke="#000"/></g></g><g clip-path="url(#bZ)"><g clip-path="url(#ca)"><path d="M158 65.1a2.5 2.5 0 000 5 2.5 2.5 0 100-5" fill="#ffd73c"/></g></g><g clip-path="url(#cb)"><g clip-path="url(#cc)"><path d="M158 65.1a2.5 2.5 0 000 5 2.5 2.5 0 100-5zm0 0" fill="none" stroke-linecap="round" stroke-linejoin="round" stroke="#000"/></g></g><g clip-path="url(#cd)"><g clip-path="url(#ce)"><path d="M158 70.7a2.5 2.5 0 00-2.5 2.4 2.5 2.5 0 105 0 2.5 2.5 0 00-2.5-2.4" fill="#ffd73c"/></g></g><g clip-path="url(#cf)"><g clip-path="url(#cg)"><path d="M158 70.7a2.5 2.5 0 00-2.5 2.4 2.5 2.5 0 105 0 2.5 2.5 0 00-2.5-2.4zm0 0" fill="none" stroke-linecap="round" stroke-linejoin="round" stroke="#000"/></g></g><g clip-path="url(#ch)"><g clip-path="url(#ci)"><path d="M156.9 76.1a2.5 2.5 0 100 5 2.5 2.5 0 000-5" fill="#ffd73c"/></g></g><g clip-path="url(#cj)"><g clip-path="url(#ck)"><path d="M156.9 76.1a2.5 2.5 0 100 5 2.5 2.5 0 000-5zm0 0" fill="none" stroke-linecap="round" stroke-linejoin="round" stroke="#000"/></g></g><g clip-path="url(#cl)"><g clip-path="url(#cm)"><path d="M114.5 59.8l.2 3.2c6.1-1 14.9-4.4 23-4.4 7.5 0 13.3 3 13.3 10.6a41 41 0 01-7.3 21.1l4.3 2.1c4-7.6 7.1-14 7.1-22.8 0-7.3-5.7-14.4-15.6-14.4-8.7 0-17.7 3-25 4.6" fill="#ffd73c"/></g></g><g clip-path="url(#cn)"><g clip-path="url(#co)"><path d="M114.5 59.8l.2 3.2c6.1-1 14.9-4.4 23-4.4 7.5 0 13.3 3 13.3 10.6a41 41 0 01-7.3 21.1l4.3 2.1c4-7.6 7.1-14 7.1-22.8 0-7.3-5.7-14.4-15.6-14.4-8.7 0-17.7 3-25 4.6zm0 0" fill="none" stroke-linecap="round" stroke-linejoin="round" stroke="#000"/></g></g><g clip-path="url(#cp)"><g clip-path="url(#cq)"><path d="M111 38.8l-2.6 4.8 2.6 4.8 2.6-4.8zm0-12.2l-2.6 4.8 2.6 4.8 2.6-4.8" fill="#ffd73c"/></g></g><g clip-path="url(#cr)"><g clip-path="url(#cs)"><path d="M111 38.8l-2.6 4.8 2.6 4.8 2.6-4.8zm0-12.2l-2.6 4.8 2.6 4.8 2.6-4.8zm0 0" fill="none" stroke-linecap="round" stroke-linejoin="round" stroke="#000"/></g></g><g clip-path="url(#ct)"><g clip-path="url(#cu)"><path d="M112 37.5l4.1 2.6 4-2.6-4-2.6zm-10.2 0l4 2.6 4.1-2.6-4-2.6" fill="#ffd73c"/><path d="M112 37.5l4.1 2.6 4-2.6-4-2.6zm-10.2 0l4 2.6 4.1-2.6-4-2.6zm0 0" fill="none" stroke-linecap="round" stroke-linejoin="round" stroke="#000"/></g></g><g clip-path="url(#cv)"><g clip-path="url(#cw)"><path d="M111 35.6a2 2 0 110 3.9 2 2 0 010-4" fill="#ffd73c"/></g></g><g clip-path="url(#cx)"><g clip-path="url(#cy)"><path d="M111 35.6a2 2 0 110 3.9 2 2 0 010-4zm0 0" fill="none" stroke-linecap="round" stroke-linejoin="round" stroke="#000"/></g></g><g clip-path="url(#cz)"><g clip-path="url(#cA)"><path d="M111 44.8a5.2 5.2 0 110 10.4 5.2 5.2 0 010-10.4" fill="#ffd73c"/><path d="M111 44.8a5.2 5.2 0 110 10.4 5.2 5.2 0 010-10.4zm0 0" fill="none" stroke-linecap="round" stroke-linejoin="round" stroke="#000"/></g></g><g clip-path="url(#cB)"><g clip-path="url(#cC)"><path d="M106 51.3a30.9 30.9 0 015-.4c1.7 0 3.4.1 5 .4m0-2.7a30.6 30.6 0 00-3.7-.4V45m-2.6 0v3.3a30.6 30.6 0 00-3.8.4" fill="none" stroke-width=".8" stroke-linecap="round" stroke-linejoin="round" stroke="#000"/></g></g><g clip-path="url(#cD)"><g clip-path="url(#cE)"><path d="M116 58.8l-3.3.6c.5 4.4 1 13.7 2.8 20.8l5.4 2.2c-3.3-6.3-4.3-15-4.8-23.6m-10.2 0a60.4 60.4 0 01-4.9 23.6l5.5-2.2c1.8-7.1 2.2-16.4 2.8-20.8" fill="#ffd73c"/></g></g><g clip-path="url(#cF)"><g clip-path="url(#cG)"><path d="M116 58.8l-3.3.6c.5 4.4 1 13.7 2.8 20.8l5.4 2.2c-3.3-6.3-4.3-15-4.8-23.6zm-10.1 0a60.4 60.4 0 01-4.9 23.6l5.5-2.2c1.8-7.1 2.2-16.4 2.8-20.8zm0 0" fill="none" stroke-linecap="round" stroke-linejoin="round" stroke="#000"/></g></g><g clip-path="url(#cH)"><g clip-path="url(#cI)"><path d="M111 77.3c-6.5 0-11.2 3-11.5 10.8-1.6-2.7-8.3-11.5-14.5-10.3-3.7.7-7 5.8-6.4 11.7-3-8.8-12-10.2-18.6-5 5.8 4.8 8.4 18.9 13.3 25h75.4c4.9-6.1 7.5-20.2 13.3-25-6.6-5.2-15.6-3.8-18.6 5 .5-5.9-2.8-11-6.5-11.7-6.2-1.2-12.8 7.6-14.4 10.3-.3-7.7-5-10.8-11.5-10.8" fill="#ffd73c"/></g></g><g clip-path="url(#cJ)"><g clip-path="url(#cK)"><path d="M111 77.3c-6.5 0-11.2 3-11.5 10.8-1.6-2.7-8.3-11.5-14.5-10.3-3.7.7-7 5.8-6.4 11.7-3-8.8-12-10.2-18.6-5 5.8 4.8 8.4 18.9 13.3 25h75.4c4.9-6.1 7.5-20.2 13.3-25-6.6-5.2-15.6-3.8-18.6 5 .5-5.9-2.8-11-6.5-11.7-6.2-1.2-12.8 7.6-14.4 10.3-.3-7.7-5-10.8-11.5-10.8zm0 0" fill="none" stroke-linecap="round" stroke-linejoin="round" stroke="#000"/></g></g><g clip-path="url(#cL)"><g clip-path="url(#cM)"><path d="M148.6 109.5c0 2.8-16.9 5.9-37.6 5.9-20.8 0-37.6-3.1-37.6-5.9 0-2.8 16.8-4.2 37.6-4.2 20.7 0 37.6 1.4 37.6 4.2"/></g></g><g clip-path="url(#cN)"><g clip-path="url(#cO)"><path d="M148.6 109.5c0 2.8-16.9 5.9-37.6 5.9-20.8 0-37.6-3.1-37.6-5.9 0-2.8 16.8-4.2 37.6-4.2 20.7 0 37.6 1.4 37.6 4.2zm0 0" fill="none" stroke-width=".8" stroke-linecap="round" stroke-linejoin="round" stroke="#000"/></g></g><g clip-path="url(#cP)"><g clip-path="url(#cQ)"><path d="M111 55.5a1.7 1.7 0 110 3.5 1.8 1.8 0 01-1.8-1.8c0-1 .8-1.7 1.8-1.7" fill="#ffd73c"/></g></g><g clip-path="url(#cR)"><g clip-path="url(#cS)"><path d="M111 55.5a1.7 1.7 0 110 3.5 1.8 1.8 0 01-1.8-1.8c0-1 .8-1.7 1.8-1.7zm0 0" fill="none" stroke-width=".8" stroke-linecap="round" stroke-linejoin="round" stroke="#000"/></g></g><g clip-path="url(#cT)"><g clip-path="url(#cU)"><path d="M111 59.1a1.9 1.9 0 110 3.8 1.9 1.9 0 010-3.8" fill="#ffd73c"/></g></g><g clip-path="url(#cV)"><g clip-path="url(#cW)"><path d="M111 59.1a1.9 1.9 0 110 3.8 1.9 1.9 0 010-3.8zm0 0" fill="none" stroke-width=".8" stroke-linecap="round" stroke-linejoin="round" stroke="#000"/></g></g><g clip-path="url(#cX)"><g clip-path="url(#cY)"><path d="M111 63a2 2 0 110 4.1 2 2 0 110-4" fill="#ffd73c"/></g></g><g clip-path="url(#cZ)"><g clip-path="url(#da)"><path d="M111 63a2 2 0 110 4.1 2 2 0 110-4zm0 0" fill="none" stroke-width=".8" stroke-linecap="round" stroke-linejoin="round" stroke="#000"/></g></g><g clip-path="url(#db)"><g clip-path="url(#dc)"><path d="M111 67.3a2.3 2.3 0 110 4.7 2.3 2.3 0 110-4.7" fill="#ffd73c"/></g></g><g clip-path="url(#dd)"><g clip-path="url(#de)"><path d="M111 67.3a2.3 2.3 0 110 4.7 2.3 2.3 0 110-4.7zm0 0" fill="none" stroke-width=".8" stroke-linecap="round" stroke-linejoin="round" stroke="#000"/></g></g><g clip-path="url(#df)"><g clip-path="url(#dg)"><path d="M111 72.1a2.6 2.6 0 110 5.1 2.6 2.6 0 010-5" fill="#ffd73c"/></g></g><g clip-path="url(#dh)"><g clip-path="url(#di)"><path d="M111 72.1a2.6 2.6 0 110 5.1 2.6 2.6 0 010-5zm0 0" fill="none" stroke-width=".8" stroke-linecap="round" stroke-linejoin="round" stroke="#000"/></g></g><g clip-path="url(#dj)"><g clip-path="url(#dk)"><path d="M151.4 90c-.2 0-.4 0-.6.2-.5.4-2 2-2.7 2.9-.7.9-1.3.7-1.5.5l-.5-1.4c-.2-.8-.7-.8-.7 0s.3 1.7.6 3c.2 1.4 0 3.7-1.2 6.3-.4 1 .3.6.8-.3 1.2-2.3 4.2-4.7 7.3-7 .6-.4.5-.8-.4-.6-.8.2-1.2.8-2.2.8-.3 0-.6 0-.5-.6 0-.7.8-2.2 1.6-3.3.3-.4.2-.6 0-.6m-80.8 0c-.3 0-.4.2 0 .6.7 1 1.5 2.6 1.6 3.3 0 .6-.3.6-.6.6-.9 0-1.3-.6-2.2-.8-.8-.2-1 .2-.3.6 3 2.3 6 4.7 7.3 7 .5.9 1.2 1.2.8.3-1.2-2.6-1.4-4.9-1.2-6.3.3-1.3.6-2.2.6-3 0-.8-.5-.8-.7 0a6 6 0 01-.5 1.4c-.2.2-.9.4-1.5-.5s-2.2-2.5-2.8-3l-.5-.2m70.3-2l-.3.1-1.2 1.8c-.3.6.2.7.4.4.3-.3.9-.8 1.5-1.6.3-.4 0-.7-.2-.8a.7.7 0 00-.2 0m-60 0c-.3 0-.6.4-.2.8l1.4 1.6c.2.3.8.2.4-.4L81.4 88l-.5-.2m66.7-.7a.5.5 0 00-.5.5L147 89c0 .5.3.6.5.1l.4-1.5c0-.4-.1-.6-.3-.6m-73.2 0c-.2 0-.4.2-.3.6 0 .5.3 1 .4 1.5.1.5.5.4.5 0 0-.5 0-1.1-.2-1.6a.6.6 0 00-.4-.5m66-2l-.4.4-1.3 2c-.3.4 0 .8.4.3l1.4-1.6c.2-.3.2-1.1-.1-1m-58.8 0c-.3-.1-.4.7 0 1l1.3 1.6c.4.5.6 0 .4-.3l-1.3-2-.4-.4m68.1 1c-.2-.1-.5 0-.6.4L149 88c-.1.5.3.7.5.3l.7-1.8c.1-.4 0-.6-.4-.6m-77.5 0c-.3 0-.5.2-.4.6.2.7.7 1.4.8 1.8.1.4.6.2.5-.3l-.2-1.6c-.1-.3-.4-.5-.7-.5m62.3-1.2c-.2 0-.3.2-.5.5-.3 1-1.4 3.1-2 3.9-.5.8-1.1.4-1.6-.5-.6-1.4-1-.6-.6.3 1 2.2 1 5.8.2 10.1 0 .8.4.7.5 0 .8-3.4 3-6.3 6-8.7.6-.5.1-.9-.3-.6l-1.4.8c-.5.2-.8.1-1-.5 0-.6.2-2 .9-4.5.1-.4 0-.8-.2-.8m-47 0c-.2 0-.3.4-.2.8.7 2.6 1 3.9.8 4.5s-.5.7-1 .5a9 9 0 01-1.3-.8c-.4-.3-.9 0-.3.6 3 2.4 5.1 5.3 6 8.7.1.7.6.8.4 0-.7-4.3-.8-7.9.3-10.1.3-.9 0-1.7-.7-.3-.4 1-1 1.3-1.6.5a24 24 0 01-2-3.9c-.1-.3-.3-.5-.4-.5m31.9 1c-.2 0-.3.2-.4.5l-.3 2c-.2.5.5.5.6-.1l.5-1.8c0-.3-.1-.6-.3-.6a.4.4 0 00-.1 0m-17 0c-.1 0-.3.3-.2.6l.4 1.8c.1.6.8.6.7 0l-.3-2-.4-.4a.4.4 0 00-.1 0m54.8-.4c-.1 0-.3 0-.5.2-.8.4-1.1.8-1.5 1.2-.3.4 0 .9.6.4l1.5-1.1c.3-.3.3-.7 0-.7m-92.7 0c-.4 0-.5.4-.1.7l1.5 1c.6.6.9.1.5-.3-.3-.4-.6-.8-1.4-1.2l-.5-.2m87.7-.1c-.2 0-.6.1-.7.5l-.7 1.9c-.3.8.5.6.7.1l1-1.9c.2-.4 0-.6-.3-.6m-82.9 0c-.2 0-.4.2-.2.6l1 2c.2.4 1 .6.6-.2l-.6-1.9a.8.8 0 00-.8-.5m85.5-.5c-.2 0-.4.1-.6.4l-1 1.4c-.2.4 0 .9.4.5l1.3-1.4c.3-.4.2-1-.1-1m-88 0c-.3 0-.4.6-.1 1 .4.6.8 1 1.3 1.4.4.4.5-.1.3-.5l-1-1.4c-.1-.3-.3-.4-.5-.4m72.1-1.7c-.2 0-.4 0-.5.4l-.8 1.8c-.3.6.2.8.4.4l1.1-1.7c.3-.5.1-.9-.2-1M83 83c-.3.1-.5.5-.2 1l1 1.7c.3.4.7.2.4-.4l-.7-1.8c-.2-.3-.4-.4-.5-.4m45.7-.2c-.2 0-.5.2-.6.6l-.3 1.6c-.1.6.5.7.6.2l.6-2c0-.2 0-.4-.2-.4m-35.4 0c-.2 0-.3.2-.2.5 0 .5.4 1.5.6 2 0 .4.7.3.5-.3l-.3-1.6c0-.4-.3-.6-.6-.6m17.7.8c-.4 0-.4.5-.4.9 0 1.3-.6 2.5-1 3.1-.5.7-1.2.5-1.8.2l-1.7-1.1c-.6-.5-1.1-.2-.3.9 2.3 3.3 4.8 6.1 4.8 11.5 0 .7 0 .9.4.9s.4-.2.4-1c0-5.3 2.5-8.1 4.8-11.4.8-1.1.3-1.4-.4-1-.6.6-1 .8-1.6 1.2-.6.3-1.3.5-1.8-.2-.4-.6-1-1.8-1-3.1 0-.4 0-1-.4-1m7.1-.5c-.2 0-.3.1-.4.5l-.3 2c0 .4.4.8.6 0l.6-1.7c.1-.4-.2-.8-.5-.8m-14.2 0c-.3 0-.6.4-.5.8l.6 1.8c.1.7.6.3.6-.1l-.3-2c0-.4-.3-.5-.4-.5m33.5-1.4c-.2 0-.4.1-.5.5l-.4 1.4c0 .4.2.9.5.3l.7-1.4c.2-.3 0-.8-.3-.8m-52.8 0c-.3 0-.5.5-.4.8L85 84c.2.6.5.1.4-.3 0-.4-.2-.8-.4-1.4 0-.4-.2-.5-.4-.5m46.6-.3c-.2 0-.4.1-.6.6l-.6 2.3c0 .4.4.5.7-.1l.8-2c.1-.4 0-.8-.3-.8m-40.4 0c-.3 0-.5.4-.3.9l.8 1.9c.3.6.7.5.6 0l-.5-2.2c-.2-.5-.4-.7-.6-.6m42.7-.5c-.1 0-.3.2-.5.6l-.5 1.8c-.2.5.3.7.5 0l.9-1.8c.1-.3 0-.6-.2-.6a.3.3 0 00-.2 0m-45.2 0c-.2 0-.3.3-.2.6l.8 1.9c.3.6.8.4.6-.1l-.6-1.8c-.1-.5-.4-.7-.6-.6m47.4 0c-.2 0-.4 0-.5.4a15 15 0 00-.7 2c-.2.4.3.8.5.1l1-1.8c.2-.4 0-.8-.3-.8m-49.4 0c-.3 0-.5.4-.3.8l1 1.8c.2.7.6.3.5-.2l-.7-1.9-.5-.5m29.5 0c-.1 0-.3.2-.3.6v2c.1.4.6.6.6 0l.3-2a.6.6 0 00-.4-.6.3.3 0 00-.2 0m-9.8 0a.6.6 0 00-.4.6l.3 2c0 .6.4.4.5 0v-2c0-.5-.2-.7-.4-.6m7.7-1c-.2.1-.3.2-.3.6v2c0 .4.6.7.7-.1l.2-1.9c0-.2-.2-.5-.5-.5a.3.3 0 00-.1 0m-5.5 0c-.3 0-.6.3-.5.5l.2 1.9c0 .8.6.5.6 0v-2c0-.3 0-.4-.2-.4a.3.3 0 00-.1 0m3.8-.3c-.3 0-.6.2-.6.8l.1 2c.1.6.6.8.7 0l.3-2.1c0-.5-.2-.7-.5-.7m-2 0c-.3 0-.6.2-.5.7l.3 2.1c0 .8.5.6.6 0l.1-2c0-.6-.3-.8-.5-.8"/></g></g><g clip-path="url(#dl)"><g clip-path="url(#dm)"><path d="M111 102.8v3.6m3.7-3.4l-.1 3.2m3.1-3.1l-.1 3.2m2.7-3l-.1 3.2m2.5-3l-.2 3.1m2.8-3.2l-.2 3.2m2.7-3l-.4 3.3m2.8-3l-.4 3.3m3-3.4l-.5 3.2m3.1-2.3l-.6 3.2m3.3-3.2l-.5 3.2m3.1-3l-.6 3.3m2.6-2.8l-.6 3.2m2.8-2.9l-.9 3.2m3-2.6l-1 3.1m-38.8-6.4l.2 3.2m-3.2-3.1l.2 3.2m-2.8-3l.2 3.2m-2.5-3l.1 3.1m-2.8-3.2l.3 3.2m-2.7-3l.4 3.3m-2.8-3l.4 3.3m-3-3.4l.4 3.2m-3-2.3l.5 3.2m-3.3-3.2l.5 3.2m-3-3l.6 3.3m-2.7-2.8l.6 3.2m-2.7-2.9l.8 3.2m-2.8-2.6l1 3.1" fill="#ffd73c"/></g></g><g clip-path="url(#dn)"><g clip-path="url(#do)"><path d="M111 102.8v3.6m3.7-3.4l-.1 3.2m3.1-3.1l-.1 3.2m2.7-3l-.1 3.2m2.5-3l-.2 3.1m2.8-3.2l-.2 3.2m2.7-3l-.4 3.3m2.8-3l-.4 3.3m3-3.4l-.5 3.2m3.1-2.3l-.6 3.2m3.3-3.2l-.5 3.2m3.1-3l-.6 3.3m2.6-2.8l-.6 3.2m2.8-2.9l-.9 3.2m3-2.6l-1 3.1m-38.8-6.4l.2 3.2m-3.2-3.1l.2 3.2m-2.8-3l.2 3.2m-2.5-3l.1 3.1m-2.8-3.2l.3 3.2m-2.7-3l.4 3.3m-2.8-3l.4 3.3m-3-3.4l.4 3.2m-3-2.3l.5 3.2m-3.3-3.2l.5 3.2m-3-3l.6 3.3m-2.7-2.8l.6 3.2m-2.7-2.9l.8 3.2m-2.8-2.6l1 3.1" fill="none" stroke-width=".8" stroke-linecap="round" stroke-linejoin="round" stroke="#000"/></g></g></svg>