<svg xmlns="http://www.w3.org/2000/svg" width="400" height="400" viewBox="0 0 300 300"><defs><clipPath id="a"><path d="M150 0a150 150 0 100 300 150 150 0 000-300zm0 0"/></clipPath><clipPath id="b"><path d="M73 95h153v96H73zm0 0"/></clipPath><clipPath id="c"><path d="M150 0a150 150 0 100 300 150 150 0 000-300zm0 0"/></clipPath><clipPath id="d"><path d="M101 219h97v6h-97zm0 0"/></clipPath><clipPath id="e"><path d="M150 0a150 150 0 100 300 150 150 0 000-300zm0 0"/></clipPath><clipPath id="f"><path d="M90 211h119v5H90zm0 0"/></clipPath><clipPath id="g"><path d="M150 0a150 150 0 100 300 150 150 0 000-300zm0 0"/></clipPath><clipPath id="h"><path d="M116 226h68v8h-68zm0 0"/></clipPath><clipPath id="i"><path d="M150 0a150 150 0 100 300 150 150 0 000-300zm0 0"/></clipPath><clipPath id="j"><path d="M82 203h135v4H82zm0 0"/></clipPath><clipPath id="k"><path d="M150 0a150 150 0 100 300 150 150 0 000-300zm0 0"/></clipPath><clipPath id="l"><path d="M74 179h151v21H74zm0 0"/></clipPath><clipPath id="m"><path d="M150 0a150 150 0 100 300 150 150 0 000-300zm0 0"/></clipPath><clipPath id="n"><path d="M134 56h32v31h-32zm0 0"/></clipPath><clipPath id="o"><path d="M150 0a150 150 0 100 300 150 150 0 000-300zm0 0"/></clipPath><clipPath id="p"><path d="M75 102h23v22H75zm0 0"/></clipPath><clipPath id="q"><path d="M150 0a150 150 0 100 300 150 150 0 000-300zm0 0"/></clipPath><clipPath id="r"><path d="M98 76h23v22H98zm0 0"/></clipPath><clipPath id="s"><path d="M150 0a150 150 0 100 300 150 150 0 000-300zm0 0"/></clipPath><clipPath id="t"><path d="M202 102h23v22h-23zm0 0"/></clipPath><clipPath id="u"><path d="M150 0a150 150 0 100 300 150 150 0 000-300zm0 0"/></clipPath><clipPath id="v"><path d="M179 76h23v22h-23zm0 0"/></clipPath><clipPath id="w"><path d="M150 0a150 150 0 100 300 150 150 0 000-300zm0 0"/></clipPath></defs><g clip-path="url(#a)"><path fill="#00785e" d="M0 0h300v300H0z"/></g><g clip-path="url(#b)"><g clip-path="url(#c)"><path d="M92.7 147.9c-7.4.5-13.8 2.3-19 4.6a50.4 50.4 0 0040.7 32.5c5.1.5 9.8 0 14-.8-13.9 3.8-30 2-47.2-12.3a16 16 0 01-6.3 1.3c30.2 31.8 66.8 11 74.6 2l.1-.1.2.1c7.8 9 44.4 29.8 74.5-2-2.5 0-4-.4-6.3-1.3-17.1 14.3-33.3 16-47 12.3 4 .9 8.7 1.3 13.8.8a50.4 50.4 0 0040.8-32.5 57.8 57.8 0 00-19-4.6c-16.1-1-29.7 5.1-39.7 11.9 12.3-11 29.1-17 39.8-15.9 1.8-2.3 2.6-3.8 4.7-5.8a57.2 57.2 0 00-41.9 14.5 52 52 0 00-.3-51 52 52 0 01-5.1 7.3c6.3 14 6.6 29 .1 44.4v.2A52.4 52.4 0 00152 98.2l-2.5-2.4-2.4 2.4c-15 15-19 36.7-12.1 55.3v-.2a53.5 53.5 0 010-44.4 52 52 0 01-5-7.3 52 52 0 00-.4 51A57.1 57.1 0 0088 138c2 2 2.9 3.5 4.7 5.8 10.6-1 27.5 4.8 39.7 15.9a63.6 63.6 0 00-39.6-11.9" fill="#fff"/></g></g><g clip-path="url(#d)"><g clip-path="url(#e)"><path d="M110.2 224.3H189a90.6 90.6 0 008.9-5h-96.7a90.1 90.1 0 008.9 5" fill="#fff"/></g></g><g clip-path="url(#f)"><g clip-path="url(#g)"><path d="M95.7 215.6h107.8a88.7 88.7 0 005-4H90.8a87.3 87.3 0 005 4" fill="#fff"/></g></g><g clip-path="url(#h)"><g clip-path="url(#i)"><path d="M149.6 233a92 92 0 0033.6-6.2H116a92 92 0 0033.5 6.3" fill="#fff"/></g></g><g clip-path="url(#j)"><g clip-path="url(#k)"><path d="M85.5 206.8h128.3a80.3 80.3 0 002.7-2.8H82.7c.9 1 1.8 2 2.8 2.8" fill="#fff"/></g></g><g clip-path="url(#l)"><g clip-path="url(#m)"><path d="M165.8 190.2a49.4 49.4 0 01-15.8-10.4 49 49 0 01-15.6 10.3 49.1 49.1 0 01-18.3 3.7H74.7a84.4 84.4 0 004 5.4H116c4.2.1 11.2-.1 19.2-3.1a48.9 48.9 0 0014.7-8.7 46.4 46.4 0 0014.4 8.8 46.4 46.4 0 0018.8 3h37.4a86 86 0 004-5.4h-41.4a49.4 49.4 0 01-17.4-3.6" fill="#fff"/></g></g><g clip-path="url(#n)"><g clip-path="url(#o)"><path d="M153.4 67.7l-3.7-11.4-3.8 11.4-11.9.1 9.6 7.2-3.6 11.4 9.7-7 9.6 7-3.6-11.4 9.6-7.2" fill="#fad115"/></g></g><g clip-path="url(#p)"><g clip-path="url(#q)"><path d="M88.8 110.6l-1.8-8.1-3.5 7.4-8.4-.9 6.2 5.7-3.5 7.5 7.4-4 6.3 5.6-1.6-8.1 7.3-4" fill="#fad115"/></g></g><g clip-path="url(#r)"><g clip-path="url(#s)"><path d="M116.2 76.5l-6.9 4.8-6.7-4.8 2.3 8-6.8 4.9h8.4l2.5 8 2.8-8h8.4l-6.7-5" fill="#fad115"/></g></g><g clip-path="url(#t)"><g clip-path="url(#u)"><path d="M224.5 109l-8.4 1-3.6-7.5-1.7 8-8.4 1.1 7.3 4.1-1.6 8.1 6.3-5.5 7.4 4-3.5-7.6" fill="#fad115"/></g></g><g clip-path="url(#v)"><g clip-path="url(#w)"><path d="M197 76.5l-6.7 4.8-7-4.8 2.7 8-6.6 4.9h8.4l2.8 8 2.5-8h8.4l-6.9-5" fill="#fad115"/></g></g></svg>