<svg xmlns="http://www.w3.org/2000/svg" width="400" height="400" viewBox="0 0 300 300"><defs><clipPath id="a"><path d="M150 0a150 150 0 100 300 150 150 0 000-300zm0 0"/></clipPath><clipPath id="b"><path d="M101 101h98v98h-98zm0 0"/></clipPath><clipPath id="c"><path d="M150 0a150 150 0 100 300 150 150 0 000-300zm0 0"/></clipPath><clipPath id="d"><path d="M53 53h194v194H53zm0 0"/></clipPath><clipPath id="e"><path d="M150 0a150 150 0 100 300 150 150 0 000-300zm0 0"/></clipPath></defs><g clip-path="url(#a)"><path fill="#d20000" d="M0 0h300v300H0z"/><path d="M120 300l30-128.6L180 300zm0-300l30 128.6L180 0zm330 120v60l-600-60v60zM-150 0h90l210 144.6L360 0h90l-600 300h90l210-144.6L360 300h90" fill="#ffe600"/></g><g clip-path="url(#b)"><g clip-path="url(#c)"><path d="M150 101.8a48.2 48.2 0 110 96.4 48.2 48.2 0 010-96.4" fill="#ffe600"/></g></g><g clip-path="url(#d)"><g clip-path="url(#e)"><path d="M150 101.8a48.2 48.2 0 110 96.4 48.2 48.2 0 010-96.4zm0 0" fill="none" stroke-width="8.6" stroke="#d20000"/></g></g></svg>