<svg xmlns="http://www.w3.org/2000/svg" width="400" height="400" viewBox="0 0 300 300"><defs><clipPath id="a"><path d="M150 0a150 150 0 100 300 150 150 0 000-300zm0 0"/></clipPath><clipPath id="b"><path d="M85 49h130v130H85zm0 0"/></clipPath><clipPath id="c"><path d="M150 0a150 150 0 100 300 150 150 0 000-300zm0 0"/></clipPath><clipPath id="d"><path d="M0 100h300v100H0zm0 0"/></clipPath><clipPath id="e"><path d="M150 0a150 150 0 100 300 150 150 0 000-300zm0 0"/></clipPath><clipPath id="f"><path d="M147 12h6v30h-6zm0 0"/></clipPath><clipPath id="g"><path d="M150 0a150 150 0 100 300 150 150 0 000-300zm0 0"/></clipPath><clipPath id="h"><path d="M155 12h7v31h-7zm0 0"/></clipPath><clipPath id="i"><path d="M150 0a150 150 0 100 300 150 150 0 000-300zm0 0"/></clipPath><clipPath id="j"><path d="M162 13h8v31h-8zm0 0"/></clipPath><clipPath id="k"><path d="M150 0a150 150 0 100 300 150 150 0 000-300zm0 0"/></clipPath><clipPath id="l"><path d="M168 15h11v30h-11zm0 0"/></clipPath><clipPath id="m"><path d="M150 0a150 150 0 100 300 150 150 0 000-300zm0 0"/></clipPath><clipPath id="n"><path d="M174 18h13v29h-13zm0 0"/></clipPath><clipPath id="o"><path d="M150 0a150 150 0 100 300 150 150 0 000-300zm0 0"/></clipPath><clipPath id="p"><path d="M180 21h15v28h-15zm0 0"/></clipPath><clipPath id="q"><path d="M150 0a150 150 0 100 300 150 150 0 000-300zm0 0"/></clipPath><clipPath id="r"><path d="M186 25h16v27h-16zm0 0"/></clipPath><clipPath id="s"><path d="M150 0a150 150 0 100 300 150 150 0 000-300zm0 0"/></clipPath><clipPath id="t"><path d="M191 30h19v26h-19zm0 0"/></clipPath><clipPath id="u"><path d="M150 0a150 150 0 100 300 150 150 0 000-300zm0 0"/></clipPath><clipPath id="v"><path d="M196 35h21v24h-21zm0 0"/></clipPath><clipPath id="w"><path d="M150 0a150 150 0 100 300 150 150 0 000-300zm0 0"/></clipPath><clipPath id="x"><path d="M200 41h23v23h-23zm0 0"/></clipPath><clipPath id="y"><path d="M150 0a150 150 0 100 300 150 150 0 000-300zm0 0"/></clipPath><clipPath id="z"><path d="M205 47h24v21h-24zm0 0"/></clipPath><clipPath id="A"><path d="M150 0a150 150 0 100 300 150 150 0 000-300zm0 0"/></clipPath><clipPath id="B"><path d="M208 54h26v19h-26zm0 0"/></clipPath><clipPath id="C"><path d="M150 0a150 150 0 100 300 150 150 0 000-300zm0 0"/></clipPath><clipPath id="D"><path d="M212 61h27v17h-27zm0 0"/></clipPath><clipPath id="E"><path d="M150 0a150 150 0 100 300 150 150 0 000-300zm0 0"/></clipPath><clipPath id="F"><path d="M215 69h28v15h-28zm0 0"/></clipPath><clipPath id="G"><path d="M150 0a150 150 0 100 300 150 150 0 000-300zm0 0"/></clipPath><clipPath id="H"><path d="M217 77h29v13h-29zm0 0"/></clipPath><clipPath id="I"><path d="M150 0a150 150 0 100 300 150 150 0 000-300zm0 0"/></clipPath><clipPath id="J"><path d="M219 85h30v11h-30zm0 0"/></clipPath><clipPath id="K"><path d="M150 0a150 150 0 100 300 150 150 0 000-300zm0 0"/></clipPath><clipPath id="L"><path d="M49 94h31v8H49zm0 0"/></clipPath><clipPath id="M"><path d="M150 0a150 150 0 100 300 150 150 0 000-300zm0 0"/></clipPath><clipPath id="N"><path d="M51 85h30v11H51zm0 0"/></clipPath><clipPath id="O"><path d="M150 0a150 150 0 100 300 150 150 0 000-300zm0 0"/></clipPath><clipPath id="P"><path d="M54 77h29v13H54zm0 0"/></clipPath><clipPath id="Q"><path d="M150 0a150 150 0 100 300 150 150 0 000-300zm0 0"/></clipPath><clipPath id="R"><path d="M57 69h28v15H57zm0 0"/></clipPath><clipPath id="S"><path d="M150 0a150 150 0 100 300 150 150 0 000-300zm0 0"/></clipPath><clipPath id="T"><path d="M61 62h27v16H61zm0 0"/></clipPath><clipPath id="U"><path d="M150 0a150 150 0 100 300 150 150 0 000-300zm0 0"/></clipPath><clipPath id="V"><path d="M66 54h26v19H66zm0 0"/></clipPath><clipPath id="W"><path d="M150 0a150 150 0 100 300 150 150 0 000-300zm0 0"/></clipPath><clipPath id="X"><path d="M71 47h24v21H71zm0 0"/></clipPath><clipPath id="Y"><path d="M150 0a150 150 0 100 300 150 150 0 000-300zm0 0"/></clipPath><clipPath id="Z"><path d="M77 41h23v23H77zm0 0"/></clipPath><clipPath id="aa"><path d="M150 0a150 150 0 100 300 150 150 0 000-300zm0 0"/></clipPath><clipPath id="ab"><path d="M83 35h21v24H83zm0 0"/></clipPath><clipPath id="ac"><path d="M150 0a150 150 0 100 300 150 150 0 000-300zm0 0"/></clipPath><clipPath id="ad"><path d="M90 30h19v26H90zm0 0"/></clipPath><clipPath id="ae"><path d="M150 0a150 150 0 100 300 150 150 0 000-300zm0 0"/></clipPath><clipPath id="af"><path d="M97 25h17v27H97zm0 0"/></clipPath><clipPath id="ag"><path d="M150 0a150 150 0 100 300 150 150 0 000-300zm0 0"/></clipPath><clipPath id="ah"><path d="M105 21h15v28h-15zm0 0"/></clipPath><clipPath id="ai"><path d="M150 0a150 150 0 100 300 150 150 0 000-300zm0 0"/></clipPath><clipPath id="aj"><path d="M113 18h13v29h-13zm0 0"/></clipPath><clipPath id="ak"><path d="M150 0a150 150 0 100 300 150 150 0 000-300zm0 0"/></clipPath><clipPath id="al"><path d="M121 15h11v30h-11zm0 0"/></clipPath><clipPath id="am"><path d="M150 0a150 150 0 100 300 150 150 0 000-300zm0 0"/></clipPath><clipPath id="an"><path d="M130 13h8v31h-8zm0 0"/></clipPath><clipPath id="ao"><path d="M150 0a150 150 0 100 300 150 150 0 000-300zm0 0"/></clipPath><clipPath id="ap"><path d="M138 12h7v31h-7zm0 0"/></clipPath><clipPath id="aq"><path d="M150 0a150 150 0 100 300 150 150 0 000-300zm0 0"/></clipPath><clipPath id="ar"><path d="M0 92h300v8H0zm0 0"/></clipPath><clipPath id="as"><path d="M150 0a150 150 0 100 300 150 150 0 000-300zm0 0"/></clipPath><clipPath id="at"><path d="M0 200h300v100H0zm0 0"/></clipPath><clipPath id="au"><path d="M150 0a150 150 0 100 300 150 150 0 000-300zm0 0"/></clipPath></defs><g clip-path="url(#a)"><path d="M0 0h300v300H0z"/></g><g clip-path="url(#b)"><g clip-path="url(#c)"><path d="M150 49.5a64.5 64.5 0 110 129 64.5 64.5 0 010-129" fill="#ce1125"/></g></g><g clip-path="url(#d)"><g clip-path="url(#e)"><path d="M-75 200h450V100H-75zm0 0" fill="#ce1125"/></g></g><g clip-path="url(#f)"><g clip-path="url(#g)"><path d="M150 12c-2.2 0-3 3.3-3 6.5 0 8 1 12 3 23.5 2-11.5 3-15.6 3-23.5 0-3.3-1-6.5-3-6.5" fill="#ce1125"/></g></g><g clip-path="url(#h)"><g clip-path="url(#i)"><path d="M158.9 12.4c-2.2-.2-3.3 3-3.6 6.2-.7 8 0 12 1 23.7 3-11.3 4.3-15.3 5-23.2.3-3.3-.4-6.5-2.4-6.7" fill="#ce1125"/></g></g><g clip-path="url(#j)"><g clip-path="url(#k)"><path d="M167.7 13.6c-2.2-.4-3.5 2.7-4 5.8-1.5 8-1.2 12-1.2 23.7 4-11 5.7-14.8 7-22.6.6-3.3.2-6.6-1.8-7" fill="#ce1125"/></g></g><g clip-path="url(#l)"><g clip-path="url(#m)"><path d="M176.4 15.5c-2.1-.6-3.8 2.4-4.6 5.5-2 7.7-2.1 11.8-3.2 23.5 5-10.6 7-14.3 9-22 .9-3.2.7-6.5-1.2-7" fill="#ce1125"/></g></g><g clip-path="url(#n)"><g clip-path="url(#o)"><path d="M184.9 18.2c-2-.8-4 2-5 5-2.8 7.6-3.2 11.7-5.3 23.1 5.9-10 8.2-13.6 10.9-21 1.1-3.1 1.3-6.5-.6-7.1" fill="#ce1125"/></g></g><g clip-path="url(#p)"><g clip-path="url(#q)"><path d="M193.1 21.6c-2-1-4.1 1.7-5.5 4.6-3.3 7.2-4.1 11.3-7.2 22.5 6.7-9.5 9.3-12.8 12.7-20 1.4-3 1.8-6.3 0-7.1" fill="#ce1125"/></g></g><g clip-path="url(#r)"><g clip-path="url(#s)"><path d="M201 25.7c-2-1.1-4.3 1.3-5.8 4.1-4 7-5.2 10.9-9.2 21.8 7.5-8.9 10.4-12 14.3-18.8 1.7-2.9 2.4-6.1.7-7.1" fill="#ce1125"/></g></g><g clip-path="url(#t)"><g clip-path="url(#u)"><path d="M208.5 30.4c-1.8-1.2-4.3 1-6.2 3.7-4.6 6.5-6 10.4-11 21 8.3-8.3 11.4-11.1 16-17.6 1.8-2.7 2.8-6 1.2-7" fill="#ce1125"/></g></g><g clip-path="url(#v)"><g clip-path="url(#w)"><path d="M215.6 35.9c-1.7-1.5-4.5.6-6.5 3-5.2 6.1-7 9.9-12.8 20 9-7.6 12.3-10 17.4-16.1 2.1-2.6 3.4-5.7 1.9-7" fill="#ce1125"/></g></g><g clip-path="url(#x)"><g clip-path="url(#y)"><path d="M222.1 41.9c-1.5-1.6-4.4.2-6.7 2.5-5.6 5.6-7.8 9.1-14.5 18.7 9.6-6.7 13.2-9 18.7-14.5 2.4-2.3 4-5.3 2.5-6.7" fill="#ce1125"/></g></g><g clip-path="url(#z)"><g clip-path="url(#A)"><path d="M228.1 48.4c-1.4-1.6-4.4-.1-6.9 2-6.1 5-8.5 8.4-16 17.3C215.2 62 219 60 225 55c2.5-2.1 4.3-5 3-6.5" fill="#ce1125"/></g></g><g clip-path="url(#B)"><g clip-path="url(#C)"><path d="M233.6 55.5c-1.3-1.8-4.5-.6-7 1.3-6.6 4.6-9.3 7.7-17.6 15.9 10.6-5 14.5-6.5 21-11 2.7-2 4.7-4.6 3.6-6.2" fill="#ce1125"/></g></g><g clip-path="url(#D)"><g clip-path="url(#E)"><path d="M238.3 63c-1-2-4.3-1-7.1.7-7 4-9.9 6.8-18.8 14.3 11-4 15-5.2 21.8-9.2 2.9-1.6 5.1-4 4.1-5.8" fill="#ce1125"/></g></g><g clip-path="url(#F)"><g clip-path="url(#G)"><path d="M242.4 70.9c-.9-2-4.2-1.3-7.1 0-7.3 3.4-10.5 6-20 12.7 11.2-3 15.4-3.9 22.5-7.2 3-1.4 5.5-3.7 4.6-5.5" fill="#ce1125"/></g></g><g clip-path="url(#H)"><g clip-path="url(#I)"><path d="M245.8 79.1c-.7-2-4-1.7-7-.6-7.6 2.8-11 5-21.1 10.9 11.5-2 15.6-2.5 23-5.2 3.2-1.2 5.8-3.2 5.1-5" fill="#ce1125"/></g></g><g clip-path="url(#J)"><g clip-path="url(#K)"><path d="M248.5 87.6c-.5-2.1-4-2-7-1.2-7.8 2-11.4 4-22 9 11.7-1 15.9-1.2 23.5-3.2 3.2-.9 6-2.7 5.5-4.6" fill="#ce1125"/></g></g><g clip-path="url(#L)"><g clip-path="url(#M)"><path d="M49.5 96.3c-.3 2.2 2.8 3.5 6 4 7.8 1.5 12 1.2 23.6 1.2-11-4-14.8-5.7-22.6-7-3.3-.6-6.6-.2-7 1.8" fill="#ce1125"/></g></g><g clip-path="url(#N)"><g clip-path="url(#O)"><path d="M51.5 87.6c-.6 2.1 2.4 3.8 5.5 4.6 7.7 2 11.8 2.1 23.5 3.2-10.6-5-14.3-7-22-9-3.2-.9-6.5-.7-7 1.2" fill="#ce1125"/></g></g><g clip-path="url(#P)"><g clip-path="url(#Q)"><path d="M54.2 79.1c-.8 2 2 4 5 5 7.5 2.8 11.7 3.2 23.1 5.3-10-5.9-13.6-8.2-21-10.9-3.1-1.1-6.5-1.3-7.1.6" fill="#ce1125"/></g></g><g clip-path="url(#R)"><g clip-path="url(#S)"><path d="M57.6 70.9c-1 2 1.7 4.1 4.6 5.5 7.2 3.3 11.3 4.1 22.5 7.2-9.5-6.7-12.8-9.3-20-12.7-3-1.4-6.3-1.8-7.1 0" fill="#ce1125"/></g></g><g clip-path="url(#T)"><g clip-path="url(#U)"><path d="M61.7 63c-1.1 2 1.3 4.2 4 5.8 7 4 11 5.2 22 9.2-9-7.5-12-10.4-19-14.3-2.8-1.7-6-2.4-7-.7" fill="#ce1125"/></g></g><g clip-path="url(#V)"><g clip-path="url(#W)"><path d="M66.4 55.5c-1.2 1.8 1 4.3 3.7 6.2 6.5 4.6 10.4 6 21 11-8.3-8.3-11.1-11.4-17.6-16-2.7-1.8-6-2.8-7-1.2" fill="#ce1125"/></g></g><g clip-path="url(#X)"><g clip-path="url(#Y)"><path d="M71.9 48.4c-1.5 1.7.6 4.5 3 6.5 6.1 5.2 9.8 7 20 12.8-7.6-9-10-12.3-16.1-17.4-2.6-2.1-5.7-3.4-7-1.9" fill="#ce1125"/></g></g><g clip-path="url(#Z)"><g clip-path="url(#aa)"><path d="M77.9 41.9c-1.6 1.5.2 4.4 2.5 6.7C86 54.2 89.5 56.4 99 63c-6.7-9.6-9-13.2-14.5-18.7-2.3-2.4-5.3-4-6.7-2.5" fill="#ce1125"/></g></g><g clip-path="url(#ab)"><g clip-path="url(#ac)"><path d="M84.4 35.9c-1.7 1.4-.1 4.4 2 6.9 5 6.1 8.4 8.5 17.3 16C98 48.8 96 45 91 39c-2.1-2.5-5-4.3-6.5-3" fill="#ce1125"/></g></g><g clip-path="url(#ad)"><g clip-path="url(#ae)"><path d="M91.5 30.4c-1.8 1.3-.6 4.5 1.3 7 4.6 6.6 7.7 9.3 15.9 17.6-5-10.6-6.5-14.5-11-21-2-2.7-4.6-4.7-6.2-3.6" fill="#ce1125"/></g></g><g clip-path="url(#af)"><g clip-path="url(#ag)"><path d="M99 25.7c-2 1-1 4.3.7 7.1 4 7 6.8 9.9 14.3 18.8-4-11-5.2-15-9.2-21.8-1.6-2.9-4-5.1-5.8-4.1" fill="#ce1125"/></g></g><g clip-path="url(#ah)"><g clip-path="url(#ai)"><path d="M106.9 21.6c-2 .9-1.3 4.2 0 7.1 3.4 7.3 6 10.5 12.7 20-3-11.2-3.9-15.4-7.2-22.5-1.4-3-3.7-5.5-5.5-4.6" fill="#ce1125"/></g></g><g clip-path="url(#aj)"><g clip-path="url(#ak)"><path d="M115.1 18.2c-2 .7-1.7 4-.6 7 2.8 7.6 5 11 10.9 21.1-2-11.5-2.5-15.6-5.2-23-1.2-3.2-3.2-5.8-5-5.1" fill="#ce1125"/></g></g><g clip-path="url(#al)"><g clip-path="url(#am)"><path d="M123.6 15.5c-2.1.5-2 4-1.2 7 2 7.8 4 11.4 9 22-1-11.7-1.2-15.9-3.2-23.5-.9-3.2-2.7-6-4.6-5.5" fill="#ce1125"/></g></g><g clip-path="url(#an)"><g clip-path="url(#ao)"><path d="M132.3 13.6c-2.2.3-2.4 3.7-1.8 6.9 1.4 7.9 3 11.6 7 22.6 0-11.7.2-15.9-1.1-23.7-.6-3.2-2.1-6.2-4.1-5.8" fill="#ce1125"/></g></g><g clip-path="url(#ap)"><g clip-path="url(#aq)"><path d="M141.1 12.4c-2.2.2-2.7 3.5-2.4 6.7.7 8 2 11.9 5 23.2 1-11.7 1.7-15.8 1-23.7-.3-3.3-1.6-6.4-3.6-6.2" fill="#ce1125"/></g></g><g clip-path="url(#ar)"><g clip-path="url(#as)"><path d="M-75 100h450v-7.5H-75zm0 0"/></g></g><g clip-path="url(#at)"><g clip-path="url(#au)"><path d="M-75 300h450V200H-75zm0 0" fill="#339e35"/></g></g></svg>