<svg xmlns="http://www.w3.org/2000/svg" width="400" height="400" viewBox="0 0 300 300"><defs><clipPath id="a"><path d="M150 0a150 150 0 100 300 150 150 0 000-300zm0 0"/></clipPath><clipPath id="b"><path d="M0 278h300v22H0zm0 0"/></clipPath><clipPath id="c"><path d="M150 0a150 150 0 100 300 150 150 0 000-300zm0 0"/></clipPath><clipPath id="d"><path d="M0 235h300v23H0zm0 0"/></clipPath><clipPath id="e"><path d="M150 0a150 150 0 100 300 150 150 0 000-300zm0 0"/></clipPath><clipPath id="f"><path d="M0 192h300v23H0zm0 0"/></clipPath><clipPath id="g"><path d="M150 0a150 150 0 100 300 150 150 0 000-300zm0 0"/></clipPath><clipPath id="h"><path d="M0 150h300v22H0zm0 0"/></clipPath><clipPath id="i"><path d="M150 0a150 150 0 100 300 150 150 0 000-300zm0 0"/></clipPath><clipPath id="j"><path d="M0 107h300v22H0zm0 0"/></clipPath><clipPath id="k"><path d="M150 0a150 150 0 100 300 150 150 0 000-300zm0 0"/></clipPath><clipPath id="l"><path d="M0 64h300v22H0zm0 0"/></clipPath><clipPath id="m"><path d="M150 0a150 150 0 100 300 150 150 0 000-300zm0 0"/></clipPath><clipPath id="n"><path d="M0 21h300v22H0zm0 0"/></clipPath><clipPath id="o"><path d="M150 0a150 150 0 100 300 150 150 0 000-300zm0 0"/></clipPath><clipPath id="p"><path d="M0 0h250v172H0zm0 0"/></clipPath><clipPath id="q"><path d="M150 0a150 150 0 100 300 150 150 0 000-300zm0 0"/></clipPath><clipPath id="r"><path d="M8 21h102v129H8zm0 0"/></clipPath><clipPath id="s"><path d="M150 0a150 150 0 100 300 150 150 0 000-300zm0 0"/></clipPath><clipPath id="t"><path d="M83 32h109v108H83zm0 0"/></clipPath><clipPath id="u"><path d="M150 0a150 150 0 100 300 150 150 0 000-300zm0 0"/></clipPath></defs><g clip-path="url(#a)"><path fill="#cc0001" d="M0 0h300v300H0z"/></g><g clip-path="url(#b)"><g clip-path="url(#c)"><path d="M-50 300h600v-21.4H-50zm0 0" fill="#fff"/></g></g><g clip-path="url(#d)"><g clip-path="url(#e)"><path d="M-50 257.1h600v-21.4H-50zm0 0" fill="#fff"/></g></g><g clip-path="url(#f)"><g clip-path="url(#g)"><path d="M-50 214.3h600v-21.4H-50zm0 0" fill="#fff"/></g></g><g clip-path="url(#h)"><g clip-path="url(#i)"><path d="M-50 171.4h600V150H-50zm0 0" fill="#fff"/></g></g><g clip-path="url(#j)"><g clip-path="url(#k)"><path d="M-50 128.6h600V107H-50zm0 0" fill="#fff"/></g></g><g clip-path="url(#l)"><g clip-path="url(#m)"><path d="M-50 85.7h600V64.3H-50zm0 0" fill="#fff"/></g></g><g clip-path="url(#n)"><g clip-path="url(#o)"><path d="M-50 42.9h600V21.4H-50zm0 0" fill="#fff"/></g></g><g clip-path="url(#p)"><g clip-path="url(#q)"><path d="M-50 171.4h300V0H-50zm0 0" fill="#010066"/></g></g><g clip-path="url(#r)"><g clip-path="url(#s)"><path d="M73.4 21.4A64.4 64.4 0 009 85.7a64.4 64.4 0 0099.4 54 57.2 57.2 0 01-18.7 3.2 57.1 57.1 0 1119.9-110.5c-10.3-7-22.7-11-36-11" fill="#fc0"/></g></g><g clip-path="url(#t)"><g clip-path="url(#u)"><path d="M180.4 119.2L153.2 105l8 29-18.1-24.3-5.7 29.6-5.6-29.6-18.2 24.2 8.1-29-27.2 14.2 20.2-22.7L84 97.6l28.3-12L84 73.8l30.8 1.3-20.2-22.8 27.2 14.2-8-29 18.1 24.3 5.7-29.6 5.6 29.6 18.2-24.2-8.1 29 27.2-14.1L160.3 75l30.8-1.2-28.3 11.9 28.2 12-30.8-1.4" fill="#fc0"/></g></g></svg>