<svg xmlns="http://www.w3.org/2000/svg" width="400" height="400" viewBox="0 0 300 300"><defs><clipPath id="a"><path d="M150 0a150 150 0 100 300 150 150 0 000-300zm0 0"/></clipPath><clipPath id="b"><path d="M0 75h300v150H0zm0 0"/></clipPath><clipPath id="c"><path d="M150 0a150 150 0 100 300 150 150 0 000-300zm0 0"/></clipPath><clipPath id="d"><path d="M118 100h101v100H118zm0 0"/></clipPath><clipPath id="e"><path d="M150 0a150 150 0 100 300 150 150 0 000-300zm0 0"/></clipPath><clipPath id="f"><path d="M137 100h101v100H137zm0 0"/></clipPath><clipPath id="g"><path d="M150 0a150 150 0 100 300 150 150 0 000-300zm0 0"/></clipPath></defs><g clip-path="url(#a)"><path fill="#d21034" d="M0 0h300v300H0z"/></g><g clip-path="url(#b)"><g clip-path="url(#c)"><path d="M0 225h300V75H0zm0 0" fill="#007d39"/></g></g><g clip-path="url(#d)"><g clip-path="url(#e)"><path d="M168.8 100a50 50 0 110 100 50 50 0 010-100" fill="#fff"/></g></g><g clip-path="url(#f)"><g clip-path="url(#g)"><path d="M187.5 100a50 50 0 110 100 50 50 0 010-100" fill="#007d39"/></g></g></svg>