<svg xmlns="http://www.w3.org/2000/svg" width="400" height="400" viewBox="0 0 300 300"><defs><clipPath id="a"><path d="M150 0h150v300H150zm0 0"/></clipPath><clipPath id="b"><path d="M150 0a150 150 0 100 300 150 150 0 000-300zm0 0"/></clipPath><clipPath id="c"><path d="M0 0h150v300H0zm0 0"/></clipPath><clipPath id="d"><path d="M150 0a150 150 0 100 300 150 150 0 000-300zm0 0"/></clipPath><clipPath id="e"><path d="M82 64h4v3h-4zm0 0"/></clipPath><clipPath id="f"><path d="M150 0a150 150 0 100 300 150 150 0 000-300zm0 0"/></clipPath><clipPath id="g"><path d="M46 31h84v84H46zm0 0"/></clipPath><clipPath id="h"><path d="M150 0a150 150 0 100 300 150 150 0 000-300zm0 0"/></clipPath><clipPath id="i"><path d="M47 32h81v81H47zm0 0"/></clipPath><clipPath id="j"><path d="M150 0a150 150 0 100 300 150 150 0 000-300zm0 0"/></clipPath><clipPath id="k"><path d="M48 33h80v80H48zm0 0"/></clipPath><clipPath id="l"><path d="M150 0a150 150 0 100 300 150 150 0 000-300zm0 0"/></clipPath><clipPath id="m"><path d="M70 55h9v9h-9zm0 0"/></clipPath><clipPath id="n"><path d="M150 0a150 150 0 100 300 150 150 0 000-300zm0 0"/></clipPath><clipPath id="o"><path d="M70 57h5v5h-5zm0 0"/></clipPath><clipPath id="p"><path d="M150 0a150 150 0 100 300 150 150 0 000-300zm0 0"/></clipPath><clipPath id="q"><path d="M73 56h5v4h-5zm0 0"/></clipPath><clipPath id="r"><path d="M150 0a150 150 0 100 300 150 150 0 000-300zm0 0"/></clipPath><clipPath id="s"><path d="M97 55h9v9h-9zm0 0"/></clipPath><clipPath id="t"><path d="M150 0a150 150 0 100 300 150 150 0 000-300zm0 0"/></clipPath><clipPath id="u"><path d="M98 55h5v5h-5zm0 0"/></clipPath><clipPath id="v"><path d="M150 0a150 150 0 100 300 150 150 0 000-300zm0 0"/></clipPath><clipPath id="w"><path d="M100 58h5v5h-5zm0 0"/></clipPath><clipPath id="x"><path d="M150 0a150 150 0 100 300 150 150 0 000-300zm0 0"/></clipPath><clipPath id="y"><path d="M97 82h9v9h-9zm0 0"/></clipPath><clipPath id="z"><path d="M150 0a150 150 0 100 300 150 150 0 000-300zm0 0"/></clipPath><clipPath id="A"><path d="M100 83h5v5h-5zm0 0"/></clipPath><clipPath id="B"><path d="M150 0a150 150 0 100 300 150 150 0 000-300zm0 0"/></clipPath><clipPath id="C"><path d="M98 85h4v5h-4zm0 0"/></clipPath><clipPath id="D"><path d="M150 0a150 150 0 100 300 150 150 0 000-300zm0 0"/></clipPath><clipPath id="E"><path d="M70 82h9v9h-9zm0 0"/></clipPath><clipPath id="F"><path d="M150 0a150 150 0 100 300 150 150 0 000-300zm0 0"/></clipPath><clipPath id="G"><path d="M72 85h5v5h-5zm0 0"/></clipPath><clipPath id="H"><path d="M150 0a150 150 0 100 300 150 150 0 000-300zm0 0"/></clipPath><clipPath id="I"><path d="M71 83h4v4h-4zm0 0"/></clipPath><clipPath id="J"><path d="M150 0a150 150 0 100 300 150 150 0 000-300zm0 0"/></clipPath><clipPath id="K"><path d="M70 55h36v36H70zm0 0"/></clipPath><clipPath id="L"><path d="M150 0a150 150 0 100 300 150 150 0 000-300zm0 0"/></clipPath><clipPath id="M"><path d="M74 59h28v28H74zm0 0"/></clipPath><clipPath id="N"><path d="M150 0a150 150 0 100 300 150 150 0 000-300zm0 0"/></clipPath><clipPath id="O"><path d="M80 84h3v3h-3zm0 0"/></clipPath><clipPath id="P"><path d="M150 0a150 150 0 100 300 150 150 0 000-300zm0 0"/></clipPath><clipPath id="Q"><path d="M93 84h2v3h-2zm0 0"/></clipPath><clipPath id="R"><path d="M150 0a150 150 0 100 300 150 150 0 000-300zm0 0"/></clipPath><clipPath id="S"><path d="M85 85h6v4h-6zm0 0"/></clipPath><clipPath id="T"><path d="M150 0a150 150 0 100 300 150 150 0 000-300zm0 0"/></clipPath><clipPath id="U"><path d="M96 75h2v2h-2zm0 0"/></clipPath><clipPath id="V"><path d="M150 0a150 150 0 100 300 150 150 0 000-300zm0 0"/></clipPath><clipPath id="W"><path d="M95 74h4v3h-4zm0 0"/></clipPath><clipPath id="X"><path d="M150 0a150 150 0 100 300 150 150 0 000-300zm0 0"/></clipPath><clipPath id="Y"><path d="M94 74h2v2h-2zm0 0"/></clipPath><clipPath id="Z"><path d="M150 0a150 150 0 100 300 150 150 0 000-300zm0 0"/></clipPath><clipPath id="aa"><path d="M93 73h3v3h-3zm0 0"/></clipPath><clipPath id="ab"><path d="M150 0a150 150 0 100 300 150 150 0 000-300zm0 0"/></clipPath><clipPath id="ac"><path d="M79 78h17v4H79zm0 0"/></clipPath><clipPath id="ad"><path d="M150 0a150 150 0 100 300 150 150 0 000-300zm0 0"/></clipPath><clipPath id="ae"><path d="M79 78h18v5H79zm0 0"/></clipPath><clipPath id="af"><path d="M150 0a150 150 0 100 300 150 150 0 000-300zm0 0"/></clipPath><clipPath id="ag"><path d="M85 73h13v8H85zm0 0"/></clipPath><clipPath id="ah"><path d="M150 0a150 150 0 100 300 150 150 0 000-300zm0 0"/></clipPath><clipPath id="ai"><path d="M85 72h14v9H85zm0 0"/></clipPath><clipPath id="aj"><path d="M150 0a150 150 0 100 300 150 150 0 000-300zm0 0"/></clipPath><clipPath id="ak"><path d="M85 74h7v4h-7zm0 0"/></clipPath><clipPath id="al"><path d="M150 0a150 150 0 100 300 150 150 0 000-300zm0 0"/></clipPath><clipPath id="am"><path d="M85 73h7v6h-7zm0 0"/></clipPath><clipPath id="an"><path d="M150 0a150 150 0 100 300 150 150 0 000-300zm0 0"/></clipPath><clipPath id="ao"><path d="M77 73h6v7h-6zm0 0"/></clipPath><clipPath id="ap"><path d="M150 0a150 150 0 100 300 150 150 0 000-300zm0 0"/></clipPath><clipPath id="aq"><path d="M77 72h6v8h-6zm0 0"/></clipPath><clipPath id="ar"><path d="M150 0a150 150 0 100 300 150 150 0 000-300zm0 0"/></clipPath><clipPath id="as"><path d="M77 63h10v8H77zm0 0"/></clipPath><clipPath id="at"><path d="M150 0a150 150 0 100 300 150 150 0 000-300zm0 0"/></clipPath><clipPath id="au"><path d="M76 63h11v9H76zm0 0"/></clipPath><clipPath id="av"><path d="M150 0a150 150 0 100 300 150 150 0 000-300zm0 0"/></clipPath><clipPath id="aw"><path d="M85 62h5v4h-5zm0 0"/></clipPath><clipPath id="ax"><path d="M150 0a150 150 0 100 300 150 150 0 000-300zm0 0"/></clipPath><clipPath id="ay"><path d="M85 61h5v5h-5zm0 0"/></clipPath><clipPath id="az"><path d="M150 0a150 150 0 100 300 150 150 0 000-300zm0 0"/></clipPath><clipPath id="aA"><path d="M81 63h18v18H81zm0 0"/></clipPath><clipPath id="aB"><path d="M150 0a150 150 0 100 300 150 150 0 000-300zm0 0"/></clipPath><clipPath id="aC"><path d="M81 62h19v19H81zm0 0"/></clipPath><clipPath id="aD"><path d="M150 0a150 150 0 100 300 150 150 0 000-300zm0 0"/></clipPath><clipPath id="aE"><path d="M80 69h6v5h-6zm0 0"/></clipPath><clipPath id="aF"><path d="M150 0a150 150 0 100 300 150 150 0 000-300zm0 0"/></clipPath><clipPath id="aG"><path d="M79 69h8v5h-8zm0 0"/></clipPath><clipPath id="aH"><path d="M150 0a150 150 0 100 300 150 150 0 000-300zm0 0"/></clipPath><clipPath id="aI"><path d="M91 73h4v5h-4zm0 0"/></clipPath><clipPath id="aJ"><path d="M150 0a150 150 0 100 300 150 150 0 000-300zm0 0"/></clipPath><clipPath id="aK"><path d="M91 73h4v6h-4zm0 0"/></clipPath><clipPath id="aL"><path d="M150 0a150 150 0 100 300 150 150 0 000-300zm0 0"/></clipPath><clipPath id="aM"><path d="M80 63h13v13H80zm0 0"/></clipPath><clipPath id="aN"><path d="M150 0a150 150 0 100 300 150 150 0 000-300zm0 0"/></clipPath><clipPath id="aO"><path d="M80 62h14v15H80zm0 0"/></clipPath><clipPath id="aP"><path d="M150 0a150 150 0 100 300 150 150 0 000-300zm0 0"/></clipPath><clipPath id="aQ"><path d="M82 63h7v2h-7zm0 0"/></clipPath><clipPath id="aR"><path d="M150 0a150 150 0 100 300 150 150 0 000-300zm0 0"/></clipPath><clipPath id="aS"><path d="M82 62h8v4h-8zm0 0"/></clipPath><clipPath id="aT"><path d="M150 0a150 150 0 100 300 150 150 0 000-300zm0 0"/></clipPath><clipPath id="aU"><path d="M84 64h5v6h-5zm0 0"/></clipPath><clipPath id="aV"><path d="M150 0a150 150 0 100 300 150 150 0 000-300zm0 0"/></clipPath><clipPath id="aW"><path d="M84 64h5v7h-5zm0 0"/></clipPath><clipPath id="aX"><path d="M150 0a150 150 0 100 300 150 150 0 000-300zm0 0"/></clipPath><clipPath id="aY"><path d="M86 66h2v1h-2zm0 0"/></clipPath><clipPath id="aZ"><path d="M150 0a150 150 0 100 300 150 150 0 000-300zm0 0"/></clipPath><clipPath id="ba"><path d="M86 65h3v3h-3zm0 0"/></clipPath><clipPath id="bb"><path d="M150 0a150 150 0 100 300 150 150 0 000-300zm0 0"/></clipPath><clipPath id="bc"><path d="M87 63h3v7h-3zm0 0"/></clipPath><clipPath id="bd"><path d="M150 0a150 150 0 100 300 150 150 0 000-300zm0 0"/></clipPath><clipPath id="be"><path d="M87 63h4v8h-4zm0 0"/></clipPath><clipPath id="bf"><path d="M150 0a150 150 0 100 300 150 150 0 000-300zm0 0"/></clipPath><clipPath id="bg"><path d="M87 65h6v4h-6zm0 0"/></clipPath><clipPath id="bh"><path d="M150 0a150 150 0 100 300 150 150 0 000-300zm0 0"/></clipPath><clipPath id="bi"><path d="M86 64h8v6h-8zm0 0"/></clipPath><clipPath id="bj"><path d="M150 0a150 150 0 100 300 150 150 0 000-300zm0 0"/></clipPath><clipPath id="bk"><path d="M88 75h6v4h-6zm0 0"/></clipPath><clipPath id="bl"><path d="M150 0a150 150 0 100 300 150 150 0 000-300zm0 0"/></clipPath><clipPath id="bm"><path d="M87 74h8v6h-8zm0 0"/></clipPath><clipPath id="bn"><path d="M150 0a150 150 0 100 300 150 150 0 000-300zm0 0"/></clipPath><clipPath id="bo"><path d="M94 78h3v3h-3zm0 0"/></clipPath><clipPath id="bp"><path d="M150 0a150 150 0 100 300 150 150 0 000-300zm0 0"/></clipPath><clipPath id="bq"><path d="M93 78h5v3h-5zm0 0"/></clipPath><clipPath id="br"><path d="M150 0a150 150 0 100 300 150 150 0 000-300zm0 0"/></clipPath><clipPath id="bs"><path d="M88 79h4v2h-4zm0 0"/></clipPath><clipPath id="bt"><path d="M150 0a150 150 0 100 300 150 150 0 000-300zm0 0"/></clipPath><clipPath id="bu"><path d="M88 78h4v4h-4zm0 0"/></clipPath><clipPath id="bv"><path d="M150 0a150 150 0 100 300 150 150 0 000-300zm0 0"/></clipPath><clipPath id="bw"><path d="M72 57h32v22H72zm0 0"/></clipPath><clipPath id="bx"><path d="M150 0a150 150 0 100 300 150 150 0 000-300zm0 0"/></clipPath></defs><g clip-path="url(#a)"><g clip-path="url(#b)"><path d="M150 300h225V0H150zm0 0" fill="#cf132b"/></g></g><g clip-path="url(#c)"><g clip-path="url(#d)"><path d="M-75 300h225V0H-75zm0 0" fill="#fff"/></g></g><g clip-path="url(#e)"><g clip-path="url(#f)"><path d="M85.3 65.7c0 .5-.6 1-1.3 1-.7 0-1.2-.5-1.2-1 0-.4.5-.9 1.2-.9s1.3.5 1.3 1" fill="#f0eded"/></g></g><g clip-path="url(#g)"><g clip-path="url(#h)"><path d="M46.1 61.4v22.7h22.7c0 3.8 3.8 7.6 7.6 7.6v22.7h22.7V91.7c3.8 0 7.6-3.8 7.6-7.6h22.7V61.4h-22.7c0-3.8-3.8-7.6-7.6-7.6V31.1H76.4v22.7a8.1 8.1 0 00-7.6 7.6" fill="#e60d2d"/></g></g><g clip-path="url(#i)"><g clip-path="url(#j)"><path d="M47.6 63v19.6h22.8c0 3.8 3.7 7.6 7.5 7.6v22.7h19.7V90.2c3.8 0 7.6-3.8 7.6-7.6h22.7V63h-22.7c0-3.8-3.8-7.5-7.6-7.5V32.6H78v22.8a8.1 8.1 0 00-7.5 7.5" fill="#95867c"/></g></g><g clip-path="url(#k)"><g clip-path="url(#l)"><path d="M48.4 63.7v18.2H71c0 3.8 3.8 7.5 7.6 7.5v22.8h18.2V89.4c3.8 0 7.5-3.7 7.5-7.5h22.8V63.7h-22.8c0-3.8-3.7-7.6-7.5-7.6V33.4H78.7V56a8.2 8.2 0 00-7.6 7.6" fill="#ccc"/></g></g><g clip-path="url(#m)"><g clip-path="url(#n)"><path d="M77.3 55.8c1.3 1.4 1 3.9-.8 5.7-1.8 1.7-4.3 2.1-5.7.8-1.3-1.4-1-3.9.8-5.7 1.8-1.7 4.3-2 5.7-.8" fill="#95867c"/></g></g><g clip-path="url(#o)"><g clip-path="url(#p)"><path d="M70.6 59.9l.5-.6 2.2 1.1-1.1-2.1.5-.6L75 62l-4.3-2.1" fill="#d0d0d0"/></g></g><g clip-path="url(#q)"><g clip-path="url(#r)"><path d="M73.8 56.6l.5-.5 3.2 3.2-.5.6zm0 0" fill="#d0d0d0"/></g></g><g clip-path="url(#s)"><g clip-path="url(#t)"><path d="M104.7 62.3c-1.3 1.3-3.8 1-5.6-.8-1.8-1.8-2.1-4.3-.8-5.7 1.3-1.3 3.8-1 5.6.8 1.8 1.8 2.1 4.3.8 5.7" fill="#95867c"/></g></g><g clip-path="url(#u)"><g clip-path="url(#v)"><path d="M100.7 55.6l.5.5-1 2.1 2.1-1 .5.5-4.2 2.2 2.1-4.3" fill="#d0d0d0"/></g></g><g clip-path="url(#w)"><g clip-path="url(#x)"><path d="M104 58.8l.4.5-3.2 3.2-.5-.5zm0 0" fill="#d0d0d0"/></g></g><g clip-path="url(#y)"><g clip-path="url(#z)"><path d="M98.3 89.7c-1.3-1.3-1-3.8.8-5.6 1.8-1.8 4.3-2.1 5.6-.8 1.3 1.3 1 3.8-.8 5.6-1.8 1.8-4.3 2.1-5.6.8" fill="#95867c"/></g></g><g clip-path="url(#A)"><g clip-path="url(#B)"><path d="M105 85.7l-.6.5-2.1-1 1 2.1-.5.5-2.1-4.2 4.3 2.1" fill="#d0d0d0"/></g></g><g clip-path="url(#C)"><g clip-path="url(#D)"><path d="M101.8 89l-.6.4-3.2-3.2.6-.5zm0 0" fill="#d0d0d0"/></g></g><g clip-path="url(#E)"><g clip-path="url(#F)"><path d="M70.8 83.3c1.4-1.3 3.9-1 5.7.8 1.7 1.8 2.1 4.3.8 5.6-1.4 1.4-3.9 1-5.7-.8-1.7-1.8-2-4.3-.8-5.6" fill="#95867c"/></g></g><g clip-path="url(#G)"><g clip-path="url(#H)"><path d="M74.9 90l-.6-.6 1.1-2.1-2.1 1-.6-.5 4.3-2.1-2.1 4.3" fill="#d0d0d0"/></g></g><g clip-path="url(#I)"><g clip-path="url(#J)"><path d="M71.6 86.8l-.5-.6 3.2-3.2.6.6zm0 0" fill="#d0d0d0"/></g></g><g clip-path="url(#K)"><g clip-path="url(#L)"><path d="M103.7 72.8a16 16 0 11-31.8 0 16 16 0 0131.8 0zm0 0" fill="none" stroke-width=".3" stroke="#95867c"/></g></g><g clip-path="url(#M)"><g clip-path="url(#N)"><path d="M99.9 72.8a12.1 12.1 0 11-24.2 0 12.1 12.1 0 0124.2 0zm0 0" fill="none" stroke-width=".3" stroke="#95867c"/></g></g><g clip-path="url(#O)"><g clip-path="url(#P)"><path d="M82.5 85.7c0 .2-.2.5-.4.6a.8.8 0 01-.8 0 .8.8 0 01-.3-.6.8.8 0 01.3-.7.8.8 0 011.2.7"/></g></g><g clip-path="url(#Q)"><g clip-path="url(#R)"><path d="M94.6 85.7c0 .2-.1.5-.4.6a.8.8 0 01-.7 0 .8.8 0 01-.4-.6.8.8 0 01.4-.7.8.8 0 011 .7"/></g></g><g clip-path="url(#S)"><g clip-path="url(#T)"><path d="M87.3 85.7v.7h-1c-1 0-1 .8 0 .8h1v.8c0 .8.9 1 1 .1v-.9h1c1 0 1-.7 0-.7h-1v-.8c0-.8-1-.8-1 0"/></g></g><g clip-path="url(#U)"><g clip-path="url(#V)"><path d="M96.4 75h.7v.3h.5l-.2.3.3.2h-.5c.1.2 0 .4 0 .4s-.5-.2-.8-.6" fill="#95867c"/></g></g><g clip-path="url(#W)"><g clip-path="url(#X)"><path d="M96.4 75h.7v.3h.5l-.2.3.3.2h-.5c.1.2 0 .4 0 .4s-.5-.2-.8-.6" fill="none" stroke-width=".1" stroke="#000"/></g></g><g clip-path="url(#Y)"><g clip-path="url(#Z)"><path d="M95.4 74.7c-.2.4-1.3-.3-1.3-.3s.5.8 1.2.9" fill="#95867c"/></g></g><g clip-path="url(#aa)"><g clip-path="url(#ab)"><path d="M95.4 74.7c-.2.4-1.3-.3-1.3-.3s.5.8 1.2.9" fill="none" stroke-width=".1" stroke="#000"/></g></g><g clip-path="url(#ac)"><g clip-path="url(#ad)"><path d="M81.6 81.8h13l1-.8-1.7-.9-2.6-.8-1-.6-2 .1-1.5.9-2.2.2-.5.6-1.6.1h-2.6l4.3.6-3.5-.1" fill="#95867c"/></g></g><g clip-path="url(#ae)"><g clip-path="url(#af)"><path d="M81.6 81.8h13l1-.8-1.7-.9-2.6-.8-1-.6-2 .1-1.5.9-2.2.2-.5.6-1.6.1h-2.6l4.3.6-3.5-.1zm0 0" fill="none" stroke-width=".1" stroke="#000"/></g></g><g clip-path="url(#ag)"><g clip-path="url(#ah)"><path d="M88.6 78.1c-1.7-.9-2.1 1.3-2.8 1.8 1 .2 1.6-.7 2.4-1.1.6 1.6 1.6.5 1.6.5s1 1.6 2.3.9c.4.3.8 0 .8 0s.5.1.6-.1c.3 0 .5-.2.5-.2s.6 0 .7-.3c.8.1 2-1.7 2-1.7l.3-.7h.4s0-.4-.2-.4c0-.2-.2-.3-.4-.2l-.1-.2c-.5 0-.5 1.3-.5 1.3l-1.1.7c0-.6-1.1-1.5-1-2 .3-.4 1 .7 1.7.5.6-.2 1-1 1-1.7l-.7-1.1h-.4l-.3-1s-.8.6-.8 1 .8.8.8.8-.4.3-.8.1c0 .5.5.4.7.4 0 .3.4.5.4.5s.2.5-.3.4c-.5 0-1.1-1.2-1.8-.6-.8.5.3 1.5.3 1.5s-.6.4-1 1.3c-1.6-1.4-2.6-.7-4.3-.4" fill="#95867c"/></g></g><g clip-path="url(#ai)"><g clip-path="url(#aj)"><path d="M88.6 78.1c-1.7-.9-2.1 1.3-2.8 1.8 1 .2 1.6-.7 2.4-1.1.6 1.6 1.6.5 1.6.5s1 1.6 2.3.9c.4.3.8 0 .8 0s.5.1.6-.1c.3 0 .5-.2.5-.2s.6 0 .7-.3c.8.1 2-1.7 2-1.7l.3-.7h.4s0-.4-.2-.4c0-.2-.2-.3-.4-.2l-.1-.2c-.5 0-.5 1.3-.5 1.3l-1.1.7c0-.6-1.1-1.5-1-2 .3-.4 1 .7 1.7.5.6-.2 1-1 1-1.7l-.7-1.1h-.4l-.3-1s-.8.6-.8 1 .8.8.8.8-.4.3-.8.1c0 .5.5.4.7.4 0 .3.4.5.4.5s.2.5-.3.4c-.5 0-1.1-1.2-1.8-.6-.8.5.3 1.5.3 1.5s-.6.4-1 1.3c-1.6-1.4-2.6-.7-4.3-.4zm0 0" fill="none" stroke-width=".1" stroke="#000"/></g></g><g clip-path="url(#ak)"><g clip-path="url(#al)"><path d="M86.2 75.8c.7.7.2 1.7.5 2 .3.1.7-.2.7-.2.7.2 1.9-.2 1.9-.2.6.3.3-.1.7-.1.3.7 1.3.6 1.3.6s-1-1-1.5-1.2c-.4.3-1.7.3-1.9.3-.3 0 0-.4-.2-.5.4-.5 0-1.6-.2-2-1-.7-2.2.5-1.3 1.3" fill="#95867c"/></g></g><g clip-path="url(#am)"><g clip-path="url(#an)"><path d="M86.2 75.8c.7.7.2 1.7.5 2 .3.1.7-.2.7-.2.7.2 1.9-.2 1.9-.2.6.3.3-.1.7-.1.3.7 1.3.6 1.3.6s-1-1-1.5-1.2c-.4.3-1.7.3-1.9.3-.3 0 0-.4-.2-.5.4-.5 0-1.6-.2-2-1-.7-2.2.5-1.3 1.3zm0 0" fill="none" stroke-width=".1" stroke="#000"/></g></g><g clip-path="url(#ao)"><g clip-path="url(#ap)"><path d="M81.8 74c-.8.2-2.3-1.1-3-.6-.7.5-.3 1.7.1 2.3.5.6-.6.9-1 1.2-.2.3.2.7.2.7l.3.2v1s.2.2.3 0c.1.1 0 .5.3.6l.1-1s.6 0 .8-.2c.2-.3-.1-.8-.1-.8h.1c-.2-.2-.2-.6-.2-.6s.8-.3.8-.9c0-.6-1.4-1.3-.9-1.7.6-.3 1.5 1 2.4.4.8-.6.3 0 .3 0s.3-.9-.5-.6" fill="#95867c"/></g></g><g clip-path="url(#aq)"><g clip-path="url(#ar)"><path d="M81.8 74c-.8.2-2.3-1.1-3-.6-.7.5-.3 1.7.1 2.3.5.6-.6.9-1 1.2-.2.3.2.7.2.7l.3.2v1s.2.2.3 0c.1.1 0 .5.3.6l.1-1s.6 0 .8-.2c.2-.3-.1-.8-.1-.8h.1c-.2-.2-.2-.6-.2-.6s.8-.3.8-.9c0-.6-1.4-1.3-.9-1.7.6-.3 1.5 1 2.4.4.8-.6.3 0 .3 0s.3-.9-.5-.6zm0 0" fill="none" stroke-width=".1" stroke="#000"/></g></g><g clip-path="url(#as)"><g clip-path="url(#at)"><path d="M86.1 65c-1.1-.5-3.4-.5-4.7-1.1-.5 0-.8.4-.8.6-.6 0-1 1-.9 1-1-.3-1.6 1.3-1.2 1.7-1 0-.8 1.2-.9 1.5-.3.7 0 1 .6.7.1.3 0 .5-.2.5 1.5 1.9 2.4-1 3.8-1 1.7-.6 2.4-1.4 2.4-1.4h.7" fill="#95867c"/></g></g><g clip-path="url(#au)"><g clip-path="url(#av)"><path d="M86.1 65c-1.1-.5-3.4-.5-4.7-1.1-.5 0-.8.4-.8.6-.6 0-1 1-.9 1-1-.3-1.6 1.3-1.2 1.7-1 0-.8 1.2-.9 1.5-.3.7 0 1 .6.7.1.3 0 .5-.2.5 1.5 1.9 2.4-1 3.8-1 1.7-.6 2.4-1.4 2.4-1.4h.7zm0 0" fill="none" stroke-width=".1" stroke="#000"/></g></g><g clip-path="url(#aw)"><g clip-path="url(#ax)"><path d="M89.2 63.7a1.7 1.7 0 11-3.3 0 1.7 1.7 0 013.3 0" fill="#95867c"/></g></g><g clip-path="url(#ay)"><g clip-path="url(#az)"><path d="M89.2 63.7a1.7 1.7 0 11-3.3 0 1.7 1.7 0 013.3 0zm0 0" fill="none" stroke-width=".1" stroke-linecap="round" stroke="#000"/></g></g><g clip-path="url(#aA)"><g clip-path="url(#aB)"><path d="M84.7 76.7c-1-.2-2.8-1.2-3-2.6 1-3.8 6-1.8 6.4-4.6-.1-1.9.2-3.7 1.2-5.3.5-.6 1.1-.8 1.1-.8s.1.4 0 .7c.8 0 2 .4 2.7.4.2.5.2.6.1 1 0 .2-.3.1-.3.1-.2.2-.5.4-1 .3-.4.3-1.3.4-1.3.4s1.8 1.9 1.5 2.4c.4.2 1 1 1 1s1.2-.6 1.6-1.2c.7 0 1.8.7 2.4.8l1.4 1.2s-.8.5-1.2-.2c-.4 0-1.4-1-2.7-.7 0 1.2-1.4 2-1.4 2s1.3-.2 2 .2l1.6 1.4 1 1.5s-1 .2-1.2-.9c-.3.9-.3-.5-1.6-1.2-.3 0-.5.1-.8-.1-1 .2-2 .7-3.2.6-.9.2-1.5 1-2.4 1.4-.9.4-1.1.2-1.1.2h-.8c0 .4 0 1.1-.4 1.2.3.3-.2 1.4-.6 1.6.2.8.8 1 1.4 1.4 0 0 .6-.3 1 0l.7 1.3h-1c-.2-.1-.3-.4-.5-.3-1.8-1.6-2.7-1-2.9-1.3-.1-.4.4-1.3.3-1.9" fill="#95867c"/></g></g><g clip-path="url(#aC)"><g clip-path="url(#aD)"><path d="M84.7 76.7c-1-.2-2.8-1.2-3-2.6 1-3.8 6-1.8 6.4-4.6-.1-1.9.2-3.7 1.2-5.3.5-.6 1.1-.8 1.1-.8s.1.4 0 .7c.8 0 2 .4 2.7.4.2.5.2.6.1 1 0 .2-.3.1-.3.1-.2.2-.5.4-1 .3-.4.3-1.3.4-1.3.4s1.8 1.9 1.5 2.4c.4.2 1 1 1 1s1.2-.6 1.6-1.2c.7 0 1.8.7 2.4.8l1.4 1.2s-.8.5-1.2-.2c-.4 0-1.4-1-2.7-.7 0 1.2-1.4 2-1.4 2s1.3-.2 2 .2l1.6 1.4 1 1.5s-1 .2-1.2-.9c-.3.9-.3-.5-1.6-1.2-.3 0-.5.1-.8-.1-1 .2-2 .7-3.2.6-.9.2-1.5 1-2.4 1.4-.9.4-1.1.2-1.1.2h-.8c0 .4 0 1.1-.4 1.2.3.3-.2 1.4-.6 1.6.2.8.8 1 1.4 1.4 0 0 .6-.3 1 0l.7 1.3h-1c-.2-.1-.3-.4-.5-.3-1.8-1.6-2.7-1-2.9-1.3-.1-.4.4-1.3.3-1.9zm0 0" fill="none" stroke-width=".1" stroke="#000"/></g></g><g clip-path="url(#aE)"><g clip-path="url(#aF)"><path d="M80.5 69.8l.7.2 1.2.7 2.3 1.5.9 1.2L84 73 82 71.1l-1.1-.7s-.5-.5-.4-.6" fill="#95867c"/></g></g><g clip-path="url(#aG)"><g clip-path="url(#aH)"><path d="M80.5 69.8l.7.2 1.2.7 2.3 1.5.9 1.2L84 73 82 71.1l-1.1-.7s-.5-.5-.4-.6zm0 0" fill="none" stroke-width=".1" stroke="#000"/></g></g><g clip-path="url(#aI)"><g clip-path="url(#aJ)"><path d="M94.4 73.7c-.8-.2-2.8 2.2-2.8 2.2l1.5 1.7s0-2.8 1.3-4" fill="#95867c"/></g></g><g clip-path="url(#aK)"><g clip-path="url(#aL)"><path d="M94.4 73.7c-.8-.2-2.8 2.2-2.8 2.2l1.5 1.7s0-2.8 1.3-4zm0 0" fill="none" stroke-width=".1" stroke="#000"/></g></g><g clip-path="url(#aM)"><g clip-path="url(#aN)"><path d="M84.5 66.9c-.4.6-.5 1.7.1 2.2 0 .7.7 2 1.1 2.2.5.1 2.6.6 3.3.5-.1 1.3 1 2.3 1.8 3a.5.5 0 00.1.4h.7c.2.4 1.2.5 1.3.4 0-.2-1.5-1.3-2-1.6-.2-.6-.8-1.9-1-2.9-.7-1-2.1-1-2.1-1v-1.8l.1-2.1-.7-.4.2-.1c.2 0 .5-.3.6-.4h.3l.1-.7c.6-.5 0-1.5-.9-1.5-.8 0-1 1-1 1v.6l-.4.3s-.4-.3-1 0c-.6.2-1.2.5-1.3.9-.2 0-.7.3-.7.6-.3 0-.6.2-1 1-1 .4-1 2.3-1 2.3l-.3.5c0 .2.1.3.2.3l.3.2.3.2h.4v-.6l.4.2v-.4c-.1 0-.4 0-.4-.4l.1-.7s1-.8 1.1-1.4c.7 0 1.1-.6 1.3-.8" fill="#95867c"/></g></g><g clip-path="url(#aO)"><g clip-path="url(#aP)"><path d="M84.5 66.9c-.4.6-.5 1.7.1 2.2 0 .7.7 2 1.1 2.2.5.1 2.6.6 3.3.5-.1 1.3 1 2.3 1.8 3a.5.5 0 00.1.4h.7c.2.4 1.2.5 1.3.4 0-.2-1.5-1.3-2-1.6-.2-.6-.8-1.9-1-2.9-.7-1-2.1-1-2.1-1v-1.8l.1-2.1-.7-.4.2-.1c.2 0 .5-.3.6-.4h.3l.1-.7c.6-.5 0-1.5-.9-1.5-.8 0-1 1-1 1v.6l-.4.3s-.4-.3-1 0c-.6.2-1.2.5-1.3.9-.2 0-.7.3-.7.6-.3 0-.6.2-1 1-1 .4-1 2.3-1 2.3l-.3.5c0 .2.1.3.2.3l.3.2.3.2h.4v-.6l.4.2v-.3c-.1-.1-.4-.2-.4-.5l.1-.7s1-.8 1.1-1.4c.7 0 1.1-.6 1.3-.8zm0 0" fill="none" stroke-width=".1" stroke="#000"/></g></g><g clip-path="url(#aQ)"><g clip-path="url(#aR)"><path d="M82.8 64.2c.3-.6 1-.5 1-.5s.3-.7 1.4-.3c.4-.3 1.5.1 1.5.1s.4-.5.9-.4c1 0 1.1 1 1 1.1-.5.1-1.4-.4-2-.3-.5.3-1.2.5-1.4.8-.6.1-1.3-.5-2.4-.5" fill="#95867c"/></g></g><g clip-path="url(#aS)"><g clip-path="url(#aT)"><path d="M82.8 64.2c.3-.6 1-.5 1-.5s.3-.7 1.4-.3c.4-.3 1.5.1 1.5.1s.4-.5.9-.4c1 0 1.1 1 1 1.1-.5.1-1.4-.4-2-.3-.5.3-1.2.5-1.4.8-.6.1-1.3-.5-2.4-.5zm0 0" fill="none" stroke-width=".1" stroke="#000"/></g></g><g clip-path="url(#aU)"><g clip-path="url(#aV)"><path d="M84.8 65c.3 0 .9-.3 1.3 0l1 .9.8.3.3.2-.2 3.3c-.7-.7-1.3-.8-1.8-1.6-.3-.4 0-1.2-.5-1.8-.5-.5-1-.9-.9-1.2" fill="#95867c"/></g></g><g clip-path="url(#aW)"><g clip-path="url(#aX)"><path d="M84.8 65c.3 0 .9-.3 1.3 0l1 .9.8.3.3.2-.2 3.3c-.7-.7-1.3-.8-1.8-1.6-.3-.4 0-1.2-.5-1.8-.5-.5-1-.9-.9-1.2zm0 0" fill="none" stroke-width=".1" stroke="#000"/></g></g><g clip-path="url(#aY)"><g clip-path="url(#aZ)"><path d="M86.6 66h.5c.1.1.3.1.3.3.1 0 .2 0 .2.2.2 0 .2.3.2.3l-.1.2-.2-.3s-.3-.1-.3-.3c-.2 0-.3 0-.3-.2l-.3-.2" fill="#95867c"/></g></g><g clip-path="url(#ba)"><g clip-path="url(#bb)"><path d="M86.6 66h.5c.1.1.3.1.3.3.1 0 .2 0 .2.2.2 0 .2.3.2.3l-.1.2-.2-.3s-.3-.1-.3-.3c-.2 0-.3 0-.3-.2l-.3-.2zm0 0" fill="none" stroke-width=".1" stroke="#000"/></g></g><g clip-path="url(#bc)"><g clip-path="url(#bd)"><path d="M89.8 63.9c-.2-.3-.6-.1-.6-.1l-1 1.8-.4.3v1.4l.3 1.3-.1 1s.5-.5.5-.7c.1-.3-.1-1.1-.1-1.1s-.4-.6 0-1.5 1.2-1.8 1.4-2.4" fill="#95867c"/></g></g><g clip-path="url(#be)"><g clip-path="url(#bf)"><path d="M89.8 63.9c-.2-.3-.6-.1-.6-.1l-1 1.8-.4.3v1.4l.3 1.3-.1 1s.5-.5.5-.7c.1-.3-.1-1.1-.1-1.1s-.4-.6 0-1.5 1.2-1.8 1.4-2.4zm0 0" fill="none" stroke-width=".1" stroke="#000"/></g></g><g clip-path="url(#bg)"><g clip-path="url(#bh)"><path d="M92.4 65.4s-1.6 2.3-4.3 3.1c-.7.2-.4-1.7-.4-1.7h-.2s-.4 2 .6 2c2.6-.6 4.6-3.4 4.6-3.4" fill="#95867c"/></g></g><g clip-path="url(#bi)"><g clip-path="url(#bj)"><path d="M92.4 65.4s-1.6 2.3-4.3 3.1c-.7.2-.4-1.7-.4-1.7h-.2s-.4 2 .6 2c2.6-.6 4.6-3.4 4.6-3.4zm0 0" fill="none" stroke-width=".1" stroke="#000"/></g></g><g clip-path="url(#bk)"><g clip-path="url(#bl)"><path d="M93.5 78.6s-.3.2-.6 0c-.2-.4-.6-.4-.6-.4s-.3-.9-.8-.6c0-.5-.5-.2-.5-.2s0-.6-.6-.6c.2-.7-.8-.6-.8-.6s0-.8-1.5-.7c3.1-1.4 5.6 2.2 5.6 2.2" fill="#95867c"/></g></g><g clip-path="url(#bm)"><g clip-path="url(#bn)"><path d="M93.5 78.6s-.3.2-.6 0c-.2-.4-.6-.4-.6-.4s-.3-.9-.8-.6c0-.5-.5-.2-.5-.2s0-.6-.6-.6c.2-.7-.8-.6-.8-.6s0-.8-1.5-.7c3.1-1.4 5.6 2.2 5.6 2.2" fill="none" stroke-width=".1" stroke="#000"/></g></g><g clip-path="url(#bo)"><g clip-path="url(#bp)"><path d="M95 78.9s.7.8 1 .8c.4 0 .4-.8.4-.8s.2.4.4.3c0 .2.2.3.2.3s-.7 1.5-2.5 0" fill="#95867c"/></g></g><g clip-path="url(#bq)"><g clip-path="url(#br)"><path d="M95 78.9s.7.8 1 .8c.4 0 .4-.8.4-.8s.2.4.4.3c0 .2.2.3.2.3s-.7 1.5-2.5 0" fill="none" stroke-width=".1" stroke="#000"/></g></g><g clip-path="url(#bs)"><g clip-path="url(#bt)"><path d="M89.3 79.2l-.3 1s-.3.3-.2.4l.6-.1s.8-.1 1-.3a.7.7 0 00.6.4v-.3h.3s.1-.3-.1-.4c0-.2.1-.4-.3-.4-.3.3-1 .7-1.2.5-.1 0 .7-.5.5-1" fill="#95867c"/></g></g><g clip-path="url(#bu)"><g clip-path="url(#bv)"><path d="M89.3 79.2l-.3 1s-.3.3-.2.4l.6-.1s.8-.1 1-.3a.7.7 0 00.6.4v-.3h.3s.1-.3-.1-.4c0-.2.1-.4-.3-.4-.3.3-1 .7-1.2.5-.1 0 .7-.5.5-1" fill="none" stroke-width=".1" stroke="#000"/></g></g><g clip-path="url(#bw)"><g clip-path="url(#bx)"><path d="M102.5 77.2l-.2 1h-.1V78a.4.4 0 000-.2.6.6 0 000-.2 2.2 2.2 0 00-.3-.2l-.8-1-.7-.1h-.3l-.2.2.2-1h.1v.3l.3.1.6.2 1.3-.5h.3a.7.7 0 00.2-.2.3.3 0 000-.1l-.2 1.1a.3.3 0 000-.2.1.1 0 00-.2-.2l-.3.1-1 .3.7.8.3.1a.2.2 0 00.2 0 .4.4 0 000-.2zm-.7-5.6v.1c0 .3 0 .5.2.6a.5.5 0 00.4.2.5.5 0 00.5-.6v-.3zm-1.3 2V73l1.1-1V71.6h-.8l-.3.2V72h-.1v-1.2.1l.1.3h2.1l.3-.2V70.8h.1v1.6a.8.8 0 01-.2.4.6.6 0 01-.4.2.6.6 0 01-.4-.2.9.9 0 01-.3-.5l-.7.6-.4.4a.9.9 0 000 .3zm2.1-4.8l-.6.3V69a.9.9 0 00.2-.2.4.4 0 00.1-.2.6.6 0 000-.2l-.2-.4-2 .7-.2.1v.4l-.4-1V68l.3.3h.3l2-.8-.2-.3a.8.8 0 00-.1-.2.4.4 0 00-.2-.1.7.7 0 00-.3 0v-.1l.6-.2zm-3.4-6.3l.4.6-.6 2.5 1.2-1 .3-.1-.1-.3V64l.5.8c-.1-.2-.2-.2-.3-.2l-.3.1-1.8 1.4.6-2.8-1.3 1-.2.2v.3h.1l-.6-.7.3.2.3-.1 1.5-1.2V63a.7.7 0 000-.2.7.7 0 000-.2zm-3.3-.6l.3-1.2-1 .6zm0 .1l-.9-.6-.4.3a.7.7 0 00-.1.1.1.1 0 000 .1l.1.2v.1l-.7-.5h.2c.1 0 .3 0 .4-.2l2.1-1.2-.5 2.4v.4s0 .2.2.2l-1-.5v-.1h.4a.8.8 0 00.1-.2zm-3-1.5h.1l-.4.7-2-.7h.4l.1-.3.6-1.7v-.3c0-.1 0-.2-.2-.2v-.1l1.1.4a.8.8 0 00-.3 0 .2.2 0 00-.2 0v.3l-.6 1.7a.6.6 0 000 .2l.3.2h.2l.4.2a.6.6 0 00.3-.1l.3-.3m-3.6-1l-.2.8-2.2-.1h.2l.2-.2v-.3l.1-1.7v-.4H87.2v-.1h1.2a.8.8 0 00-.3.1.3.3 0 00-.1.1v.3l-.2 1.7a.6.6 0 000 .3H89a.6.6 0 00.2-.1l.3-.4zm-4.9 0l-.7-1-.2 1.3zm.1.2l-1 .2v.5a.7.7 0 000 .2v.1h.3v.1l-.8.2.2-.2v-.4l.4-2.4 1.6 1.9.3.3a.4.4 0 00.3 0l-1 .4v-.1l.1-.1a.1.1 0 000-.2.9.9 0 00-.1-.2zm-4.4-.3l.5.6a1.2 1.2 0 00-.5-.2.9.9 0 00-.7.2c-.3.2-.4.4-.4.7 0 .3 0 .6.2.9l.6.5.5.2a1 1 0 00.8-.4 1 1 0 00.1-.2L81 61l-.2-.2a.2.2 0 00-.1 0 .5.5 0 00-.2 0l.8-.6v.1l-.1.2.1.3.5.7-.3.4a2.2 2.2 0 01-.4.3c-.4.3-.9.4-1.3.2a1.4 1.4 0 01-.7-.5 1.4 1.4 0 01-.2-.7l.1-.8a1.4 1.4 0 01.7-.7h.4l.1-.1a.3.3 0 000-.2zm-5.8 9v-.1c.1-.3.2-.5 0-.6a.5.5 0 00-.2-.4.6.6 0 00-.5 0 .6.6 0 00-.3.4 1.8 1.8 0 000 .3zm2-1.3l-.3.7-1.5.4v.2l.7.3h.3l.1-.1v-.1h.1l-.4 1.1v-.1-.3l-.3-.1-1.6-.7h-.3c-.1 0-.2 0-.2.2h-.1l.3-.9.3-.6a.7.7 0 01.4-.2.6.6 0 01.4 0c.2 0 .3.2.3.3l.1.6 1-.3a1.4 1.4 0 00.4-.2.9.9 0 00.2-.3zm-4 5a.7.7 0 00.3.5c.2.2.5.4 1 .4.4 0 .7 0 1-.2a.7.7 0 00.3-.6.8.8 0 00-.3-.7l-.9-.3c-.5 0-.8 0-1 .3-.2 0-.3.3-.4.5m0 0c0-.4 0-.7.4-.9.2-.2.6-.3 1-.3s.7.1 1 .4c.3.3.4.6.3 1 0 .4-.1.7-.4 1-.3.2-.6.3-1 .2-.5 0-.8-.2-1-.5a1.3 1.3 0 01-.4-.9m.7 4.7l1-.2-.1-.5-.1-.3h-.3l.8-.3v.1a.6.6 0 00-.2 0 .3.3 0 000 .2.4.4 0 000 .2v.5l1-.2h.2a.2.2 0 000-.2.3.3 0 000-.2l.4 1h-.1l-.2-.2h-.3l-1.7.4a.9.9 0 00-.3 0 .2.2 0 000 .2.4.4 0 000 .2l-.6-1.9.6-.1a.8.8 0 00-.2.2.4.4 0 00-.1.2v.3l.2.6"/></g></g></svg>