<svg xmlns="http://www.w3.org/2000/svg" width="400" height="400" viewBox="0 0 300 300"><defs><clipPath id="a"><path d="M150 0a150 150 0 100 300 150 150 0 000-300zm0 0"/></clipPath><clipPath id="b"><path d="M0 13h300v264H0zm0 0"/></clipPath><clipPath id="c"><path d="M150 0a150 150 0 100 300 150 150 0 000-300zm0 0"/></clipPath><clipPath id="d"><path d="M0 12h300v265H0zm0 0"/></clipPath><clipPath id="e"><path d="M150 0a150 150 0 100 300 150 150 0 000-300zm0 0"/></clipPath><clipPath id="f"><path d="M0 74h300v213H0zm0 0"/></clipPath><clipPath id="g"><path d="M150 0a150 150 0 100 300 150 150 0 000-300zm0 0"/></clipPath><clipPath id="h"><path d="M0 73h300v215H0zm0 0"/></clipPath><clipPath id="i"><path d="M150 0a150 150 0 100 300 150 150 0 000-300zm0 0"/></clipPath><clipPath id="j"><path d="M0 14h171v191H0zm0 0"/></clipPath><clipPath id="k"><path d="M150 0a150 150 0 100 300 150 150 0 000-300zm0 0"/></clipPath></defs><g clip-path="url(#a)"><path fill="#00285d" d="M0 0h300v300H0z"/><path d="M-35 300h570V0H-35zm0 0" fill="none" stroke-width=".5" stroke="#000"/></g><g clip-path="url(#b)"><g clip-path="url(#c)"><path d="M535 74.2L-35 276.6V266l570-253zm0 0" fill="#f7971d"/></g></g><g clip-path="url(#d)"><g clip-path="url(#e)"><path d="M535 74.2L-35 276.6V266l570-253zm0 0" fill="none" stroke-width=".5" stroke-linejoin="bevel" stroke="#000"/></g></g><g clip-path="url(#f)"><g clip-path="url(#g)"><path d="M-35 287l570-151.6V74.2L-35 276.6zm0 0" fill="#fff"/></g></g><g clip-path="url(#h)"><g clip-path="url(#i)"><path d="M-35 287l570-151.6V74.2L-35 276.6zm0 0" fill="none" stroke-width=".5" stroke-linejoin="bevel" stroke="#000"/></g></g><g clip-path="url(#j)"><g clip-path="url(#k)"><path d="M75.8 205l4.5-59.4L95 181.4 89.4 143l23.7 30.7L97.8 138l30.4 24.2-24.1-30.5 35.8 15-30.7-23 38.2 5.2-36-14.6 59.5-4.6-59.5-4.5 36-14.7-38.2 5.3 30.7-23.1-35.8 15 24.1-30.4-30.4 24L113 45.7 89.4 76.3 95 38.1 80.3 73.8l-4.5-59.3-4.6 59.3L56.6 38 62 76.3 38.4 45.6l15.4 35.8-30.5-24.1 24.1 30.4-35.7-15 30.7 23.1L4 90.5l36 14.7-59.5 4.5 59.5 4.6-36 14.6 38.3-5.3-30.7 23.1 35.7-15-24 30.5L53.7 138l-15.4 35.8 23.7-30.7-5.5 38.3 14.6-35.8" fill="#fff"/></g></g></svg>