<svg xmlns="http://www.w3.org/2000/svg" width="400" height="400" viewBox="0 0 300 300"><defs><clipPath id="a"><path d="M0 45h300v210H0zm0 0"/></clipPath><clipPath id="b"><path d="M150 0a150 150 0 100 300 150 150 0 000-300zm0 0"/></clipPath><clipPath id="c"><path d="M0 0h300v45H0zm0 0"/></clipPath><clipPath id="d"><path d="M150 0a150 150 0 100 300 150 150 0 000-300zm0 0"/></clipPath><clipPath id="e"><path d="M0 255h300v45H0zm0 0"/></clipPath><clipPath id="f"><path d="M150 0a150 150 0 100 300 150 150 0 000-300zm0 0"/></clipPath><clipPath id="g"><path d="M53 109h194v121H53zm0 0"/></clipPath><clipPath id="h"><path d="M150 0a150 150 0 100 300 150 150 0 000-300zm0 0"/></clipPath><clipPath id="i"><path d="M114 70h72v69h-72zm0 0"/></clipPath><clipPath id="j"><path d="M150 0a150 150 0 100 300 150 150 0 000-300zm0 0"/></clipPath></defs><g clip-path="url(#a)"><g clip-path="url(#b)"><path d="M-75 255h450V45H-75zm0 0" fill="#006133"/></g></g><g clip-path="url(#c)"><g clip-path="url(#d)"><path d="M-75 45h450V0H-75zm0 0" fill="#cd2a3d"/></g></g><g clip-path="url(#e)"><g clip-path="url(#f)"><path d="M-75 300h450v-45H-75zm0 0" fill="#cd2a3d"/></g></g><g clip-path="url(#g)"><g clip-path="url(#h)"><path d="M244 109.2a94.1 94.1 0 01-188 0 97 97 0 00-2.9 23.3 96.9 96.9 0 10191-23.3" fill="#ffc400"/></g></g><g clip-path="url(#i)"><g clip-path="url(#j)"><path d="M114.3 96.5h27.3l8.4-26 8.4 26h27.3l-22 16 8.3 26-22-16-22 16 8.4-26" fill="#ffc400"/></g></g></svg>