<svg xmlns="http://www.w3.org/2000/svg" width="400" height="400" viewBox="0 0 300 300"><defs><clipPath id="a"><path d="M150 0a150 150 0 100 300 150 150 0 000-300zm0 0"/></clipPath><clipPath id="b"><path d="M121 30h58v55h-58zm0 0"/></clipPath><clipPath id="c"><path d="M150 0a150 150 0 100 300 150 150 0 000-300zm0 0"/></clipPath><clipPath id="d"><path d="M30 121h55v58H30zm0 0"/></clipPath><clipPath id="e"><path d="M150 0a150 150 0 100 300 150 150 0 000-300zm0 0"/></clipPath><clipPath id="f"><path d="M121 215h58v55h-58zm0 0"/></clipPath><clipPath id="g"><path d="M150 0a150 150 0 100 300 150 150 0 000-300zm0 0"/></clipPath><clipPath id="h"><path d="M215 121h55v58h-55zm0 0"/></clipPath><clipPath id="i"><path d="M150 0a150 150 0 100 300 150 150 0 000-300zm0 0"/></clipPath></defs><g clip-path="url(#a)"><path fill="#75b1dd" d="M0 0h300v300H0z"/></g><g clip-path="url(#b)"><g clip-path="url(#c)"><path d="M121.5 50.7L139 63.5l-6.7 20.8L150 71.5l17.6 12.8-6.7-20.8 17.6-12.8h-21.8L150 30l-6.6 20.7" fill="#fff"/></g></g><g clip-path="url(#d)"><g clip-path="url(#e)"><path d="M30 150l20.7 6.7v21.8L63.5 161l20.8 6.7L71.5 150l12.8-17.6-20.8 6.7-12.8-17.6v21.8" fill="#fff"/></g></g><g clip-path="url(#f)"><g clip-path="url(#g)"><path d="M121.5 249.3h21.8L150 270l6.7-20.7h21.8L161 236.5l6.7-20.8-17.6 12.8-17.6-12.8 6.7 20.8" fill="#fff"/></g></g><g clip-path="url(#h)"><g clip-path="url(#i)"><path d="M215.7 132.4l12.8 17.6-12.8 17.6 20.8-6.7 12.8 17.6v-21.8L270 150l-20.7-6.7v-21.8L236.5 139" fill="#fff"/></g></g></svg>