<svg xmlns="http://www.w3.org/2000/svg" width="400" height="400" viewBox="0 0 300 300"><path fill="#cc082e" d="M0 0h300v300H0z"/><path d="M0 300h200V0H0zm0 0" fill="#ffd200"/><path d="M0 300h100V0H0zm0 0" fill="#0046ad"/><path d="M136 163.7l1.5-.1.1 1.1 1.3-.5.3 1.6 2.9-2.8 3.9 2-7.5 13.2-2.6 2 4.8 1.8 4.9-5.8-.7 3.8-1.5 3.6 6 3.5 6.5-3.8-3.2-6.8 1-.4 4.2 6 4.6-2.2-6-7-3.9-8.4 4.2-1.3 2.8 2.7.4-1.8 1.5.7-.2-1.4 1.5.3-1.8-2.9 4.6-3.9 3 9.2 4.3 5 .9-.2 3.1 3.9V121l-5.8-6-5.6 4.5.2 5h-2.5l-3.8 2-2.1.7-1 .1-1.3-1.4-1.7-3.4-.1-3.4 1-2.3-.2-2h1l-.6-1.5.8-.3-1.2-1.1.4-.5-4.8-2-3.6-.3-1 .4-.5.9 1 2.7-1 1 1 2v4.4l-.8 3.7-1.6 2.8-.9.3-2-.5-4.3-2.2-2.7-.2-.2-5.2-5.2-4.2-5.3 5.7-.8 1.7.3 52 3.4-4 .7.1 3.6-3.8 3-7.6.9-3.2 4 4.8" fill="#af7e54"/><path d="M141.3 105.5c-.6 0-1 .2-1.3.4.4.1.8.5.8 1v1.2h-1.3a1 1 0 01-1-.7c-.2.3-.3.7-.3 1.3 0 .5 0 1 .3 1.3a1 1 0 011-.8h1.3v6c0 .4-.3.8-.7 1 .5 0 1 .8 1.2 1.3.1-.5.6-1.3 1.2-1.3a1 1 0 01-.7-1v-6h1.3c.4 0 .8.3 1 .7.2-.2.3-.7.3-1.2 0-.6-.1-1-.3-1.3a1 1 0 01-1 .7h-1.3V107c0-.5.3-.9.8-1-.3-.2-.8-.4-1.3-.4"/><path d="M141.3 105.8l-.8.1c.3.3.5.6.5 1v1.2a.2.2 0 010 .1v.2h-1.5c-.4 0-.7-.2-1-.5a2.3 2.3 0 000 1.5c.3-.3.6-.4 1-.4h1.5v6.2c0 .3-.2.6-.5.9l.5.4.3.5.2-.5.5-.4c-.2-.2-.4-.6-.4-1V109h1.5c.3 0 .7.1 1 .4a2.4 2.4 0 000-1.5c-.3.3-.6.5-1 .5h-1.5v-1.5c0-.4.1-.7.4-1l-.7-.1" fill="#f5d302"/><path d="M133.1 169.3l-1.7-.1-1.8.8-.6 2 .2.9 2 2.1 1.6-.9 1.3-1.4.3-1.2 4.5-5.9-.2-1.5-1 .7-.4-1.3-.6.2m28.3 9.5l2.1 1.9.7-.2 2.3-2.7-.5-1.8-2.2-1.4-1.6.2-3.7-5.4-.6-.3-.3 1-1-.3-.5 1.2 4.8 6.5" fill="#d10429"/><path d="M133.6 173.7l2.7 1.4-.7 3-2.7-1.4zm0 0"/><path d="M134 173.2l-.9.8.5 1 1-.4zm-13-28.4l-1 .4 11 24.1h1.2L121 144.8"/><path d="M134 174.5l1.6 1-.4 1.8-1.7-1zm0 0" fill="#f5d302"/><path d="M149.2 166.9l6.7-3.7 7.8-3.7 1.5-2.3v-12.7h-31.7v12.9l1 1.5 6 3.4 7.7 3.5" fill="#0a45ba"/><path d="M133.1 128.8l.4 1.2v14.9l.5.6 4.6.5 5-.7 4.8.8v.3l1-.2 1 .2v-.3l4.8-.8 5 .7 4.6-.5.5-.6v-15l.3-1h-32.5" fill="#d10429"/><path d="M143.5 145.3s-3.4-.8-4.7-2.5c-2.2 2-4.8 2.7-4.8 2.7s2.7 1.2 4.8 2.8c1-1.4 4.7-3 4.7-3m11.7 0s3.7 1.6 4.7 3c2.1-1.6 4.9-2.8 4.9-2.8s-2.7-.7-4.9-2.7c-1.3 1.7-4.7 2.5-4.7 2.5m-5.8-15.2l-1 2.7-2.6-1.3 1.3 2.6-2.8 1 2.8 1-1.3 2.6 2.6-1.3 1 2.7 1-2.7 2.5 1.3-1.2-2.6 2.7-1-2.7-1 1.2-2.6-2.6 1.3"/><path d="M144 150.3l.9-1 1 1-1 1zm11 0l-1.1-1.1-1 1 .9 1zm-2.2 2l-.5 1.2v3l.7 1.6 1 .5v-4l.6-2.7m-9.8 3.4v3.2l1-.7.6-1.4v-2.6l-.4-1.5-1.9-.3m13.6 7.3v-2l1.7-2.2 2-.5-2.3-1-2 .4-1.1 1.3-.2 2 1.6 1.9m-17.6.2l.6-1 .9.5 1-.2.8-1-.5-1.1-.5-.4.7-.4.3-1.2-1-1.2-1 .1-.5.4-.2-.9-1.1-.7-1 .4-.5 1 .3 1-1-.2-.9.8v1l.5.7.8.3h.4l-.4.9.3 1 1 .4" fill="#f5d302"/><path d="M149.4 131.9l.6 1.7 1.6-.8-.7 1.7 1.7.6-1.7.6.7 1.7-1.6-.8-.6 1.7-.6-1.7-1.7.8.8-1.7-1.7-.6 1.7-.6-.8-1.7 1.7.8" fill="#ffd200"/><path d="M144 129.7c-.2 1-5.8 3.3-5.8 8 0 5.8 5.5 7.2 5.5 7.2l-.2.4-1.3 2.5s2.2 0 3.5 1.1c1.4 1.2 1.3 3.9 1.3 5.8 0 1.5-.2 3-1 3.7-1 1-1.7 1-1.7 2 0 .9.6 1 1.7 1.6 1.4.8 1.3 1.7 3.4 1.7 2 0 2-1 3.4-1.7 1-.5 1.7-.7 1.7-1.6 0-1-.7-1-1.8-2-.7-.6-1-2.2-1-3.7 0-2 0-4.6 1.4-5.8 1.2-1 3.5-1.1 3.5-1.1l-1.4-2.5-.2-.4s5.5-1.4 5.5-7.3c0-4.6-5.5-6.8-5.7-8-.5 2 1.9 4.6 1.9 7.7 0 4-3 4.2-3 4.2-.7 0-1 .5-1.2.5-.6 0-.9-.8-1.5-.8-.5 0-1 .8-1.6.8s-1.2-.8-1.7-.8c-.6 0-.8.7-1.4.8-.3 0-.6-.5-1.3-.5 0 0-3-.2-3-4.2 0-3.1 2.4-5.7 2-7.6"/><path d="M138.8 143.6a6.7 6.7 0 002.9 1.8l-2.9 2.1-3.2-2s2-.6 3.2-1.9" fill="#ffd200"/><path d="M143.1 131.3c.2.5-1.8 3.5-1.8 6 0 3 1.6 4.8 3.7 4.8.4 0 .9.5 1.3.5.6 0 1-.7 1.4-.7.5 0 .8.8 1.7.8s1.2-.8 1.6-.8c.4 0 .8.7 1.5.7.4 0 .8-.5 1.2-.5 2.2 0 3.8-1.8 3.8-4.8 0-2.5-2-5.5-1.9-6 0 0 4 3 4 6.3 0 5.5-5.5 6.9-5.5 6.9l1.3 2.8s-1.8.3-2.8 1.1c-1.4 1.2-1.4 4.2-1.4 6.3 0 2.4 0 3.5 1 4.1.9.7 1.6.9 1.6 1.6 0 .6-.8.9-1.7 1.3-1 .4-1.2 1.3-2.7 1.3s-1.7-.9-2.7-1.3c-1-.4-1.7-.7-1.7-1.3 0-.7.7-.9 1.6-1.6.9-.6 1-1.7 1-4.1 0-2 0-5.1-1.4-6.3-1-.8-2.8-1.1-2.8-1.1l1.2-2.8s-5.5-1.4-5.5-6.9c0-3.4 4-6.3 4-6.3" fill="#ffd200"/><path d="M160 143.6c1.1 1.3 3.2 2 3.2 2s-2.1 1-3.2 2c0 .1 0 0 0 0-.1 0 0 0 0 0-1-1.2-3-2.2-3-2.2s1.8-.5 3-1.8" fill="#ffd200"/><path d="M144.9 149l-1.3 1.3 1.3 1.3 1.3-1.3zm9 0l-1.4 1.3 1.4 1.3 1.3-1.3zm0 0"/><path d="M144.9 149.6l.7.7-.7.7-.7-.7zm9 0l.7.7-.7.7-.7-.7zm0 0" fill="#ffd200"/><path d="M143.7 151.6c.2.6.9 2.6.9 5 0 1.7-.2 2.6-.2 2.6s1.9-.5 2.2-2.4c.2-1 .4-4.2-.5-4.7l-2.4-.5m11.4 0l-2.5.5c-.9.5-.7 3.8-.5 4.7.4 1.9 2.2 2.4 2.2 2.4s-.1-.9-.1-2.5c0-2.5.6-4.5.9-5.1m-16 .5h-.3a1.6 1.6 0 00-1.1 2l.1.3a1.6 1.6 0 00-.3 0h-.2a1.6 1.6 0 00-1.5 1.4 1.6 1.6 0 001.8 1.6l-.2.4c-.3.8.1 1.7.9 2a1.6 1.6 0 002-.9l.1-.3a1.6 1.6 0 002.5 0 1.6 1.6 0 00-.2-2.1 1.6 1.6 0 00-.3-.2 1.6 1.6 0 00.8-2.4 1.6 1.6 0 00-1.4-.7 1.6 1.6 0 00-.7.2l-.3.3a1.6 1.6 0 000-.4 1.6 1.6 0 00-1.7-1.2"/><path d="M144.5 152.3l1.3.3c.5.7.4 1.7.4 3.2 0 1.5-1 2.1-1 2.1 0-3.6-.5-4.5-.7-5.6m9.7 0c-.2 1.1-.6 2-.6 5.6 0 0-1-.6-1-2 0-1.6-.2-2.6.3-3.3m-13.7.2a1.2 1.2 0 011.3.9v.7a1.8 1.8 0 00-2 .5 1.2 1.2 0 01-.2-.3 1.1 1.1 0 01-.2-.3 1.2 1.2 0 011.1-1.5" fill="#ffd200"/><path d="M158.7 153.3c-2 0-3.4 1.5-3.2 3.4a4 4 0 003 3.3 3.5 3.5 0 01-.5-1.4c-.2-2 1.3-3.5 3.3-3.5l1 .1c-.8-1.1-2.1-2-3.6-2"/><path d="M141.7 153.7c.4 0 .7.2 1 .6a1.2 1.2 0 01-.8 1.8h-.3c0-.7-.4-1.4-1-1.7l.1-.3.3-.2.7-.2m17 .3c.7 0 1.3.2 1.8.5-2 .4-3.4 2-3.2 4.1a3 3 0 01-1.1-2c-.2-1.5.9-2.6 2.5-2.6m-21 .7a1.3 1.3 0 01.7.3 1.8 1.8 0 00-.1 2l-.4.1a1.3 1.3 0 01-.3 0 1.2 1.2 0 01-1.2-1.3 1.2 1.2 0 011.3-1m2.1 0a1.2 1.2 0 010 2.5c-.6 0-1.2-.6-1.2-1.2 0-.7.6-1.2 1.2-1.2m1.8 1.3l.3.1.4.2c.5.5.5 1.2.1 1.7a1.2 1.2 0 01-1.7.2 1.2 1.2 0 01-.3-.3 1.4 1.4 0 010-.3c.6-.2 1.1-.8 1.2-1.6m-3.3.9a1.8 1.8 0 001.9.7 1.3 1.3 0 010 .7 1.2 1.2 0 01-1.6.7 1.2 1.2 0 01-.7-1.6 1.1 1.1 0 01.2-.3l.2-.2" fill="#ffd200"/><path d="M147.3 160c-1.1 0-1.8.2-1.8.5 0 .4.7.6 1.8.6.3 0 .6-.2.6-.6 0-.4-.3-.5-.6-.5m4.2 0c-.3 0-.6.1-.6.5s.3.6.6.6c1 0 1.8-.2 1.8-.6 0-.3-.7-.5-1.8-.5m14 14.4a.6.6 0 00-.4.3.6.6 0 000 .5s-.6-.2-.8 0c-.2 0 0 2.8 0 2.8s2.4-1.5 2.3-1.7c0-.2-.5-.6-.5-.6a.6.6 0 00.4-.3c.1-.2.1-.6-.4-.9a1 1 0 00-.6 0zm17.9-33.8l-2 1.4.3.4s-.4.2-.5.5c-.2.3 0 .7 0 .7s-1.7-.1-2 0c-.3.2 0 1.5 0 2.5-.3 1.5-.9 1.3-1 1.6 0 .3.3.7.3.7l-.4.3v1l-2.8 5.2c0 .2-.4.3-.5.6v.6s-.5 0-.7.4c-.2.4 0 .9 0 .9s-.4 0-.6.3c-.1.3.2.5 0 .7l-2.9 5.8c-.3.5-1.2.6-1.8 1.7-.5 1 .3 1.9.3 1.9s-.8 0-1 .4c-.3.5 0 1.1.5 1.4.6.3 1.2 0 1.4-.4.2-.4-.2-1-.2-1s1 0 1.6-1c.5-1 0-1.9.4-2.4l3-5.8c0-.2.3 0 .5-.4v-.6s.4-.2.6-.6c.2-.3 0-.7 0-.7s.3-.2.4-.4c.2-.3 0-.6.2-.8l2.7-5.3c.1-.3.6-.4.7-.6v-.5s.5 0 .7-.2c.2-.2-.3-.6.8-1.6.7-.8 2-1.2 2-1.5 0-.4-1.3-1.7-1.3-1.7s.5 0 .7-.4c.2-.3 0-.7 0-.7h.5v-2.4"/><path d="M166.3 173h.3l1.1 1c.2.2.2.4 0 .6 0 .2-.3.2-.5 0l-1.1-1c-.2 0-.2-.3 0-.5a.4.4 0 01.2-.1m-33.9 0a.4.4 0 01.3.1c.2.2.2.4 0 .6l-1.1 1c-.2.1-.4 0-.6-.1v-.5l1.2-1a.3.3 0 01.2-.1m34.6-.8a.4.4 0 01.3.1l1.2 1v.5c-.1.2-.4.2-.5.1l-1.2-1c-.2-.1-.2-.4 0-.5a.4.4 0 01.2-.2zm-35.3 0a.4.4 0 01.3.2c.2.1.1.4 0 .5l-1.2 1h-.5v-.6l1.2-1a.3.3 0 01.2 0zm36-.8a.4.4 0 01.3.1l1.1 1c.2.2.2.4 0 .6 0 .1-.3.2-.5 0l-1.1-1c-.2-.1-.2-.4 0-.5a.4.4 0 01.2-.2zm-36.7 0a.4.4 0 01.3.2c.2.1.2.4 0 .5l-1.1 1c-.2.2-.4.1-.6 0v-.6l1.2-1a.3.3 0 01.2 0zm37.3-.4l.6.5v.2h-.2l-.5-.4a.2.2 0 010-.2zm-37.8 0a.2.2 0 01.1 0v.3l-.5.4h-.2v-.2l.5-.4a.1.1 0 01.1 0zm15-6.4s-5.7 13.3-10.8 15.4l5 2.3 1.2.7a41.4 41.4 0 001-1.4c1.7-2.2 3.3-4.7 3.3-4.7.1.7-.8 2.7-2.2 5.2l-1 1.6 1.2.6c2.7 1.6 5.2 3.5 6.2 5.2 1-1.7 3.5-3.6 6.2-5.2l1-.6a47 47 0 01-.8-1.6c-1.5-2.5-2.4-4.5-2.3-5.2a86.6 86.6 0 004.4 6.1l1.2-.7c2.7-1.4 5-2.3 5-2.3-5.2-2-11-15.4-11-15.4l-.8.3s4.6 11.5 9.1 15c-1 .2-2.2.7-3.5 1.2-1.5-1.7-3-4.1-4.3-6.2-1.3-2.3-2.5-6.3-2.5-6.3-.6 1.5.8 9.2 3.5 14.1a21.2 21.2 0 00-5.2 3.5c-1-1-3-2.3-5.2-3.5 2.7-4.9 4-12.6 3.4-14.1 0 0-1.1 4-2.5 6.3a48.7 48.7 0 01-4.3 6.2l-3.5-1.3a48 48 0 009.1-15zm16.1-.7l.3.2 3.4 5.2c.3.4 1.8 0 2 .1.7.2 1.9 1 2 1.3 0 .1-.1.4-.3.4-.3 0-.5-.3-1.4-.6-.8-.3-1.5 0-2.2-.5 0 .7 1 1.2 1 1.7-.6 0-1-.4-1-.4l.1.8c0 .4-.5.7-.5.7s-.2-1.1-.6-1.6a1554.5 1554.5 0 01-4.3-5.9l.2-.8 1 .7c.3-.3.3-1.3.3-1.3zm-24.5 0s0 1 .3 1.3l1-.7.2.8-4.3 6c-.3.4-.6 1.5-.6 1.5s-.5-.3-.5-.7v-.8s-.3.4-.9.4c0-.5 1-1 1-1.7-.7.5-1.3.2-2.1.5-1 .3-1.2.7-1.5.6-.1 0-.3-.3-.2-.4 0-.3 1.2-1.1 2-1.3.2 0 1.6.3 2-.1 1.1-2 3.1-5 3.3-5.2l.3-.2zm24.3-3.2l-.6.3s.8 2 1.5 2.4c0 0-.7 0-1.2-.3l-.2 1.2c-.4 0-1-.6-1-.6l-.5 1.4c-.5-.3-2.3-2.4-2.3-2.4l-.8.5s3 2.4 3.5 3.6l.1-.5c.6.7 3 3.8 4.1 5.5.4.5.4 1 .7 1.5.6.8 1.3 1.3 2 1.9.2.2 1 .1 1.2 0l1.7-2.2.2.4s.5-.8.5-1.3-.2-1.1-.4-1.6c-.3-.5-2-1.6-2.7-1.6-.9 0-1.3.4-1.8-.6l-2.8-4.2h.8c-.6-.5-2-3.4-2-3.4zm-24 0s-1.5 2.9-2 3.4h.8l-2.8 4.2c-.6 1-1 .6-1.9.6-.7 0-2.3 1.1-2.6 1.6-.3.5-.5 1-.5 1.6 0 .5.6 1.3.6 1.3l.1-.4 1.8 2.1c.1.2.9.3 1.2 0 .6-.5 1.3-1 2-1.8.2-.5.2-1 .6-1.5l4.1-5.5.1.5c.6-1.2 3.6-3.6 3.6-3.6l-.8-.5s-1.8 2-2.4 2.4l-.4-1.4s-.7.6-1 .6l-.2-1.2c-.5.3-1.3.3-1.3.3.7-.4 1.5-2.4 1.5-2.4zm36-29.6l1.4 1.4 1.5-1.4V173c-1-.5-3-3-3-4zm-48 0v37.7c0 1-2 3.6-3 4.1v-41.8l1.5 1.4zm47.1 0v39l-3-3.1.1-2.8v-33l1.5 1.3zm-46.3 0l1.5 1.4 1.4-1.4v33.1l.2 2.8-3.1 3zm48.4-4.4v4l-.8-.7-.6-.6V128l.6-.6zm-3.3 0l.8.7.6.6v1.4l-.6.6-.8.7zm-.5 0v4l-.7-.7-.6-.6V128zm-3.2 0c.4.6 1 1 1.4 1.4v1.3l-.6.6-.8.7zm-36.5 0v4l-.7-.7-.6-.6v-1.3c.4-.3 1-.8 1.3-1.4zm-3.2 0l1.4 1.3v1.4l-.6.6-.8.7zm-.5 0v4l-.8-.7-.6-.6V128l.6-.6zm-3.2 0l.8.7.5.6v1.4l-.5.6-.8.7zm50.9 0l1.2 1.1v1.8l-1.2 1.1zm-51.4 0v4l-1.2-1.1v-1.8zm45.8-4.3l1.3 1.3v1.4l-1.3 1.3zm-40.2 0v4l-1.4-1.3v-1.4zm39.7-.2v4.3a7.1 7.1 0 01-2-2c.8-.4 1.8-2 2-2.3zm-39.2 0c.2.3 1.1 1.9 2 2.3-.3.4-1.1 1.6-2 2zm43.4-.4l1.4 1.5v1.8l-1.4 1.3zm-47.7 0v4.6l-1.3-1.3v-1.8l1.3-1.5zm47.2-.3v5l-1.4-1.4v-1.5zm-46.7 0l1.4 2v1.6l-1.4 1.3zm49.8-.4c.3.5.5 1 .5 1.3v3.8l-1.2-1v-2.6zm-52.9 0l.8 1.5v2.5l-1.2 1.1v-3.8c0-.3.1-.8.4-1.3zm48-5.1a21 21 0 014.3 4.2l-.8 1.8-1.7-1.7v-.5c0-.4-.3-.8-.5-1.1l-.5.2c.2.2.5.6.5 1v.6l-1.5 2.2-1.2-1.3-.1-.1-.2-.2v-.3c0-.4-.2-.7-.4-1l-.5.3c.2.1.4.4.4.8v.4c-.5.8-1.5 2.1-2.4 2.4v-4.1c1.2-.5 4.7-3.6 4.7-3.6zm-43.1 0s3.4 3.1 4.6 3.6v4.1c-.8-.3-1.9-1.6-2.4-2.4v-.4c0-.4.3-.7.4-.8l-.5-.2c-.2.2-.4.5-.4 1v.2l-.1.2h-.1l-1.3 1.4-1.5-2.2v-.6c0-.4.3-.8.6-1l-.5-.2c-.3.3-.5.7-.5 1.1v.5l-1.7 1.7-.9-1.8c1-1.4 2.7-3 4.3-4.2zm19.4-6.6h.5c1.9 0 3.2 1 5 1.7l1.3.5-.5.6s.8.2 1.2.9c0 0-.8 0-.9.5.4 0 .9.6.9 1.1l-1.1-.3s.2 1.2.2 2.5c0 .7-1 1.5-1 2.7 0 3.6 1 5 1.6 6.1.3.4.5 1 1 1.3-2-1-3.3-2.2-3.3-3.4v-4.4h-.5v4.4c0 .9.2 1.2.2 1.2l1.2 3c-1.7-1-2.6-2.1-2.6-2.5v-6h-.5v6l.1.5-.6.8-.7-.8.1-.5v-6h-.5v6c0 .4-.9 1.6-2.6 2.5.4-.6 1-2 1.3-3 0 0 .2-.3.2-1.2v-4.4h-.5v4.4c0 1.2-1.4 2.4-3.3 3.4.5-.4.7-.9 1-1.3.6-1.2 1.5-2.8 1.5-7.2 0-1.7-.2-2.8-.7-3.6 0-.3-.3-1 .7-1 .5 0 1.7 1 1.7 1s0-.8-.6-1.2c-.1 0-.3-.3-.3-.5l.5-.6c.1 0-2-.4-2-1.4 0-.2 0-.4.5-.4.6 0 1.6.8 2.4.8l1.6-.2c.7 0 2.4 1.5 3 1.4-.7-.4-1.7-1.9-3.2-1.9l-1.5.2c-.7 0-1.3-.6-2-.6l-1-.1c-.2-.2 0-.3 0-.5.3-.3 1-.4 1.6-.5h.6zm0-.5c-.7 0-1.6 0-2 .4-.5.3-.5.7-.7.8-.4.3-1 .3-1.3.3-2.1 0-2.2 2.3-2.2 2.3s.5-.8 1.5-.8c1.5 0 2.7.8 2.7 1.1 0 .2-.1.2-.2.2-1 0-2.5-.6-3.3-.6v.3c1.8.7 3.6 1.6 3.6 5.5 0 2.5-.3 5-1.5 7-.4.8-1 1.4-1.8 2-.4-.2-2-.7-3-1.3-2-1-3-2.2-5.3-2.3v-1.7c0-1 .3-1.8.3-2.7-1-.3-3.7-3.6-6.2-5-3.7 2.3-6.6 6.2-6.6 8 0 0 .2 38.8 0 52.3a6 6 0 01-.4 1.9c1.3-.6 3.8-4 4.3-5.3v.6c2-.9 3.5-3.3 4.2-4.6v.7c1.9-1.6 4.2-11 4.2-11l-.1-2s-1.6 7.7-3.5 9.2v-33l1.5 1.3 2.2-2v-1.6l-2 1.8V126l.7-1c.3.5 1.3 2.2 2.5 3.2.2-.8 1.5-1.5 1.5-1.5s.4 1.2 1.1 1.5c.3-.4 1.8-1.4 1.8-1.4s-1.3.2-1.8.7c-.5 0-.6-1.8-.6-1.8s-1.8.9-2.2 1.5c-.3 0-.9-1.5-1.1-2l1.4-.1a5 5 0 012 .6l2.3 1.1c.9.5 2.3.5 2.7.6l-1.5.9s2.2 0 3.8-.8c.5-.4 1.1-.7 1.6-1.2a6 6 0 01-1 2 5.1 5.1 0 003.7-2c.2.4.4 1 .9 1.6l.8-1.6c.4.4 1.5 1.8 3.8 2a6 6 0 01-1-2c.4.5 1 .8 1.6 1.2 1.5.8 3.8.8 3.8.8a11.9 11.9 0 01-1.6-1c.4 0 1.8 0 2.8-.5l2.3-1.1a5 5 0 012-.6h1.3c-.2.6-.7 2-1 2.1-.4-.6-2.3-1.5-2.3-1.5s0 1.7-.5 1.8c-.5-.5-1.8-.7-1.8-.7s1.5 1 1.7 1.4c.7-.3 1.2-1.5 1.2-1.5s1.3.7 1.5 1.5c1.2-1 2.2-2.7 2.5-3.2l.6 1v4.7l-2-1.8v1.5l2.3 2 1.4-1.3v33.1c-1.8-1.5-3.4-9.2-3.4-9.2l-.1 2s2.3 9.4 4.1 11v-.7c.7 1.3 2.2 3.7 4.2 4.6v-.6c.6 1.3 3 4.7 4.4 5.3 0 0-.5-1.1-.5-2v-52.2c0-1.8-2.9-5.7-6.5-8-2.6 1.4-5.3 4.7-6.2 5 0 .9.3 1.7.3 2.7v1.7c-2.3.1-3.3 1.2-5.3 2.3a18 18 0 01-3 1.2 6.5 6.5 0 01-1.9-1.8c-1-1.7-1.5-3.8-1.5-6 0-.8 1-1.9 1-2.6v-1.7c.3 0 1 .6 1 .6s-.1-1.8-.7-2.1c0 0 .3-.2 1.1-.3-.2-.6-1.4-1.3-1.4-1.3a.8.8 0 01.3-.3l1-.3-1.1-.3a26.8 26.8 0 01-3.2-1.3c-2-1-3.5-1-4.3-1"/><path d="M164.6 175.4v2l1.6-1.1s-.2-.4-.7-.7l-1-.2zm1-.7l-.3.1c0 .2 0 .4.4.5.2.2.5.2.6 0 0-.1 0-.4-.4-.5a.8.8 0 00-.4-.1zm3.2-6.6c-.2 0-.4.2-.5.3-.1.3 0 .8.4 1 .4.1.8 0 1-.3.1-.3 0-.7-.4-.9a.9.9 0 00-.5 0zm5-9.4l-.2.3-2.9 5.5c-.2.4-1.2.7-1.6 1.5-.3.7 0 1.5.4 1.7.5.3 1.3 0 1.7-.7.4-.7 0-1.7.2-2.2l2.9-5.5s.2-.3-.2-.5a.4.4 0 00-.2 0zm.3-1c-.1 0-.2 0-.3.2 0 .2.1.4.4.6.3.2.7.1.8 0 .1-.3 0-.6-.4-.7a.9.9 0 00-.5-.1zm.7-1.2c-.2 0-.4 0-.5.2-.2.2 0 .6.4.8.4.2.8.2 1 0 .1-.4-.1-.7-.5-1a1 1 0 00-.4 0zm.5-1c-.2 0-.3 0-.3.2-.1.2 0 .4.4.6.3.2.6.1.7 0 .1-.3 0-.6-.4-.7a1 1 0 00-.4-.1zm3.5-6.7a.5.5 0 00-.4.2c0 .2 0 .5-.8 2.1l-1 1.8-.9 1.9s-.2.3.2.5c.3.2.5-.2.5-.2l1-1.9.9-1.7c.8-1.7 1-1.8 1.1-2 .2-.2.1-.5-.2-.7a.6.6 0 00-.4 0zm3-4.5l.5 1c0 .2-1.4 1.2-1.9 2.1l-.5 1.3h.5l.1-.8c.1-.2.2-.6.8-1 .7-.6 1.6-1 1.6-1.2 0-.2-1-1.4-1-1.4zm-.2-.2l-1.2.4c-.2.1-.1 1.5-.7 2.6l-.6 1.2.2.2.3.1.6-1.2c.6-1.1 1.7-2 1.8-2.1l-.4-1.2zm-1.8-.2a1 1 0 00-.3 0v2c0 .8-.3 1-.4 1.3-.1.3-.6.6-.6.6l.4.4.6-1.2c.5-1 .5-2.6.6-2.7l1.1-.3h-1.4zm2.1-1.3a.6.6 0 00-.4.3c-.2.3 0 .7.3.8.3.2.7 0 .8-.2.2-.3 0-.7-.3-.8a.7.7 0 00-.4 0zm1.1-1.3l-1.1.8.6.3.5.3v-1.4" fill="#f5d302"/><path d="M124.4 163.8s1 1.9 1.6 2.1l-1.5.4s2 1.8 3.8 2c1.5 0 2.3-.7 2.3-.7l-.3-1.6s-1-1-2.4-1.6c-1.5-.5-3.5-.6-3.5-.6m7-3.5s-1.3 1.1-1.7 2.4c-.3 1.3.3 2.7.3 2.7l1 2s1.5-.8 2.2-2c.6-1.1.4-2.7.4-2.7s-1.2.4-1.4.6c.3-1.3-.8-3-.8-3m-4.1-.5s-1.5.5-2.9.4c-1.3 0-2.5-1.2-2.5-1.2s1.2-.7 1.7-.6c-.6-.2-1.5-1.8-1.5-1.8s1.3-.3 2.4 0a6 6 0 012 1.7l.8 1.5m.5-7s.7 1.4.5 2c.2-.4 1.1-1 1.1-1s.5 2.5 0 4-2 2-2 2l-1.6-3.1s-.3-1.2.2-2.2c.6-1 1.8-1.8 1.8-1.8m-9.5-4s1.6-.1 3 .5c1.2.5 1.6 1.4 1.6 1.4l.6 1.6s-1.7.6-3 .1c-1.4-.5-2.4-2.1-2.4-2.1s1-.4 1.3-.2c-.5-.2-1-1.3-1-1.3m4.9-2.9s.6.9.7 1.9c.1-.5 1-1.1 1-1.1s.9 2.1.7 3.6c-.2 1.6-1.5 2.4-1.5 2.4l-1.6-3s-.5-1.2-.3-2.2c.1-1 1-1.6 1-1.6m-5.5-5.8s-.3 1.7.2 2.6c.4.9.7 1 .7 1-.8-.5-2-.5-2-.5s.4 1.7 1.5 2.6c1 .8 2.7.6 2.7.6s1-1.4 1-3c-.1-1.5-1.3-3.2-1.3-3.2s-.5 1-.6 1.8c-.3-.8-2.2-1.9-2.2-1.9"/><path d="M118.3 141s0 1.2.3 2c.4.6 1.3.9 1.3.9s0-1.2-.3-2c-.4-.6-1.3-.9-1.3-.9m-.8 2.7s1 .1 1.6.6c.6.4.8 1.4.8 1.4s-.6 0-1.3-.4c-.6-.5-1.1-1.6-1.1-1.6m3.2-2.4s-.3.8-.3 1.7c0 .8.6 1.8.6 1.8s.4-1 .4-1.9c0-.8-.5-1.3-.7-1.6m-1.7 7.8s.5.7 1.3 1c.8.4 2 .5 2 .5s-.6-.8-1.4-1.2c-.8-.4-2-.3-2-.3m.3 1.6s.4.7 1.1 1c.7.4 2 .4 2 .4s-.4-.7-1.1-1c-.7-.4-2-.4-2-.4m4-4s-.4.8-.4 1.5c0 .8.6 1.6.6 1.6s.3-1 .3-1.7c0-.8-.5-1.3-.5-1.3m1.5 1s-.7 1-.8 1.9c0 1 .4 2 .4 2s.9-.9 1-1.9c0-1-.6-2-.6-2m-2 9l.4.7.9.8h1c.7.1 1.5.7 1.5.7s-.9-1.3-1.8-1.8c-1-.6-2-.4-2-.4m0 2.3s1.1-.5 2-.4c1 .1 1.8.9 1.8.9s-1.2.4-2.2.3c-1-.1-1.6-.8-1.6-.8m4.8-5.3s-1 1-1.1 2c-.1.9.8 1.8.8 1.8s0-.6.1-1 .5-.8.5-.8v-.9c0-.5-.3-1.1-.3-1.1m1.4 1.2s-1 1-1.2 2c-.2 1 .2 2.1.2 2.1s.9-.7 1.1-1.7c.3-1-.1-2.4-.1-2.4m2.4 6.2s.4.9.5 1.6v1l-.6.7c-.3.4-.3 1-.3 1s-1-1.4-.8-2.3c.2-1 1.2-2 1.2-2m1.8 2s-1.1.8-1.6 1.6c-.4.7-.2 1.5-.2 1.5s.8 0 1.3-.8c.4-.8.5-2.2.5-2.2m-7.4 3.1s1.6 0 2.6.2c1 .3 1.4.8 1.4.8s-1.2.5-2.2.3c-1-.3-1.8-1.3-1.8-1.3m-.3-2s.7 1.2 1.7 1.6c1.3.6 2.8.3 2.8.3s-.8-1-2-1.4c-1-.5-2.5-.4-2.5-.4" fill="#087753"/><path d="M130.6 167.5v.6c1 0 1.2 0 1.5.3a.8.8 0 001 .2.8.8 0 00.3-1.1c-.2-.4-.5-.5-.9-.4-.2 0-.4.2-.5.3-.4.2-1.4.1-1.4.1"/><path d="M130.6 167l.4.4c-.5.9-.6 1-.5 1.3a.8.8 0 01-.3 1 .8.8 0 01-1.2-.3c-.2-.3 0-.7.2-1l.5-.3c.4-.2.9-1 .9-1m-3.4-7v.6c1 0 1.2-.1 1.5.2a.8.8 0 001 .2.8.8 0 00.3-1c-.2-.5-.5-.5-.9-.5-.2 0-.4.2-.5.3-.4.2-1.4.2-1.4.2"/><path d="M127.4 160.3l.5.4c-.7.8-.8.8-.8 1.2a.8.8 0 01-.5.9.8.8 0 01-1-.4c-.2-.4 0-.8.3-1l.6-.2c.3-.1 1-.9 1-.9m-3.6-7.2v.6c1 0 1.2 0 1.5.2a.8.8 0 001 .2.8.8 0 00.3-1c-.2-.4-.5-.5-.9-.4-.2 0-.4.2-.5.3-.4.2-1.4.1-1.4.1"/><path d="M124.2 153l.4.4c-.6.8-.8.8-.7 1.2a.8.8 0 01-.5.9.8.8 0 01-1-.4c-.2-.4 0-.8.2-1l.6-.2c.4-.2 1-.9 1-.9m-3.8-7.2v.5c1 0 1.2 0 1.5.3a.8.8 0 001 .2.8.8 0 00.3-1c-.2-.5-.5-.6-.9-.5-.2 0-.4.2-.5.3-.4.2-1.4.2-1.4.2"/><path d="M120.7 145.6l.4.5c-.6.7-.8.7-.7 1.1a.8.8 0 01-.5.9.8.8 0 01-1-.4c-.2-.4 0-.7.2-1 .2-.1.4 0 .6-.2.4-.1 1-.9 1-.9"/><path d="M126.6 158.3c-.3.2-.9-1.3-1.2-2.2-.4-.8-1.2-2.2-1-2.3.3 0 .6.6 1 1.5s1.5 3 1.2 3m-3.6-8c-.3.1-.7-.9-1.1-1.7-.4-.8-.8-1.5-.5-1.6.2 0 .6.7.9 1.4.3.7 1 1.8.7 1.9m8.4 18.2a19 19 0 01-2.5-4.5c-1-2.2-1.7-3.9-1.5-4 .3 0 1 2 2 4 1 2.2 2.2 4.5 2 4.5" fill="#f5d302"/><path d="M141.5 111.8s.4-.8 1.4-.8h1.8c.2.5 1 1.3 1 2.1 0 0-.8-1.5-3.2-1.5-.6 0-1 .2-1 .2" fill="#cc082e"/><path d="M144.6 112s-.6-.2-.6-.4.3-.2.4 0c.2 0 .2.4.2.4"/><path d="M145.4 113.4l-.6.9c-.5-.2-1.4-1.1-1.4-1.1s.7.4 2 .2" fill="#d10429"/><path d="M148 112c0 .4-.4.7-.9.7-.4 0-.8-.3-.8-.7 0-.4.4-.7.8-.7.5 0 .9.3.9.7"/><path d="M147.7 112a.6.6 0 01-.6.6.6.6 0 01-.6-.6.6.6 0 111.2 0" fill="#f5d302"/><path d="M147.4 112a.3.3 0 01-.3.3.3.3 0 01-.2-.3.2.2 0 01.2-.2.3.3 0 01.3.2"/><path d="M133.5 129.2h31.7s-.4.6-.4 1.4v26.3c0 .6-.6 2-4 3.7-5.7 2.8-10.1 4.1-11.4 5.7-1.3-1.6-5.7-2.9-11.4-5.7-3.4-1.7-4-3.1-4-3.7v-26.3c0-.8-.5-1.4-.5-1.4zm-1.8-.8s1.4 1.1 1.4 2.2v26.3c0 .7.2 1.2.6 1.6.3.5 1 1.1 1.8 1.6 2.3 1.5 6.2 3.1 9.2 4.5 2.4 1 3.4 1.5 4.7 3.1 1.2-1.6 2.2-2 4.7-3.1 3-1.4 6.8-3 9.1-4.5.8-.5 1.5-1.1 1.9-1.6.3-.4.5-.9.5-1.6v-26.3c0-1.1 1.5-2.2 1.5-2.2h-35.4" fill="#f5d302"/></svg>