<svg xmlns="http://www.w3.org/2000/svg" width="400" height="400" viewBox="0 0 300 300"><defs><clipPath id="a"><path d="M150 0a150 150 0 100 300 150 150 0 000-300zm0 0"/></clipPath><clipPath id="b"><path d="M100 0h100v300H100zm0 0"/></clipPath><clipPath id="c"><path d="M150 0a150 150 0 100 300 150 150 0 000-300zm0 0"/></clipPath><clipPath id="d"><path d="M36 112h28v28H36zm0 0"/></clipPath><clipPath id="e"><path d="M150 0a150 150 0 100 300 150 150 0 000-300zm0 0"/></clipPath><clipPath id="f"><path d="M35 105h30v30H35zm0 0"/></clipPath><clipPath id="g"><path d="M150 0a150 150 0 100 300 150 150 0 000-300zm0 0"/></clipPath><clipPath id="h"><path d="M40 112h20v21H40zm0 0"/></clipPath><clipPath id="i"><path d="M150 0a150 150 0 100 300 150 150 0 000-300zm0 0"/></clipPath><clipPath id="j"><path d="M43 90h14v20H43zm0 0"/></clipPath><clipPath id="k"><path d="M150 0a150 150 0 100 300 150 150 0 000-300zm0 0"/></clipPath><clipPath id="l"><path d="M22 142h13v61H22zm0 0"/></clipPath><clipPath id="m"><path d="M150 0a150 150 0 100 300 150 150 0 000-300zm0 0"/></clipPath><clipPath id="n"><path d="M65 142h13v61H65zm0 0"/></clipPath><clipPath id="o"><path d="M150 0a150 150 0 100 300 150 150 0 000-300zm0 0"/></clipPath><clipPath id="p"><path d="M37 152h26v6H37zm0 0"/></clipPath><clipPath id="q"><path d="M150 0a150 150 0 100 300 150 150 0 000-300zm0 0"/></clipPath><clipPath id="r"><path d="M37 187h26v6H37zm0 0"/></clipPath><clipPath id="s"><path d="M150 0a150 150 0 100 300 150 150 0 000-300zm0 0"/></clipPath><clipPath id="t"><path d="M37 142h26v8H37zm0 0"/></clipPath><clipPath id="u"><path d="M150 0a150 150 0 100 300 150 150 0 000-300zm0 0"/></clipPath><clipPath id="v"><path d="M37 195h26v8H37zm0 0"/></clipPath><clipPath id="w"><path d="M150 0a150 150 0 100 300 150 150 0 000-300zm0 0"/></clipPath><clipPath id="x"><path d="M36 159h28v27H36zm0 0"/></clipPath><clipPath id="y"><path d="M150 0a150 150 0 100 300 150 150 0 000-300zm0 0"/></clipPath><clipPath id="z"><path d="M28 150h44v45H28zm0 0"/></clipPath><clipPath id="A"><path d="M150 0a150 150 0 100 300 150 150 0 000-300zm0 0"/></clipPath><clipPath id="B"><path d="M34 150h32v45H34zm0 0"/></clipPath><clipPath id="C"><path d="M150 0a150 150 0 100 300 150 150 0 000-300zm0 0"/></clipPath><clipPath id="D"><path d="M47 163h6v6h-6zm0 0"/></clipPath><clipPath id="E"><path d="M150 0a150 150 0 100 300 150 150 0 000-300zm0 0"/></clipPath><clipPath id="F"><path d="M47 176h6v6h-6zm0 0"/></clipPath><clipPath id="G"><path d="M150 0a150 150 0 100 300 150 150 0 000-300zm0 0"/></clipPath></defs><g clip-path="url(#a)"><path fill="#c4272e" d="M0 0h300v300H0z"/></g><g clip-path="url(#b)"><g clip-path="url(#c)"><path d="M100 300h100V0H100zm0 0" fill="#015196"/></g></g><g clip-path="url(#d)"><g clip-path="url(#e)"><path d="M50 112.5a13.7 13.7 0 110 27.5 13.7 13.7 0 010-27.5" fill="#f8cf02"/></g></g><g clip-path="url(#f)"><g clip-path="url(#g)"><path d="M50 105a15 15 0 110 30 15 15 0 010-30" fill="#c4272e"/></g></g><g clip-path="url(#h)"><g clip-path="url(#i)"><path d="M50 112.5a10 10 0 110 20 10 10 0 010-20" fill="#f8cf02"/></g></g><g clip-path="url(#j)"><g clip-path="url(#k)"><path d="M43.8 103.8a6.3 6.3 0 0012.5 0c0-2.5-1.6-2.9-1.6-3.8 0-1 1-2.2-1-3.8 1 1.6-.6 2-.6 3.5s.6 1.5.6 2.8a1.2 1.2 0 11-2.5 0c0-1.3 1.3-2.5 1.3-4.4s-.3-2.5-1.3-4c-.9-1.6-2.5-2.8-1.2-4.1-1.9.6-1 3.1-1 4.7 0 1.5-1.2 2.5-1.2 4.4 0 1.8 1 2.2 1 3.4a1.2 1.2 0 11-2.5 0c0-1.3.6-1.3.6-2.8 0-1.6-1.6-1.9-.6-3.5-2 1.6-1 2.9-1 3.8 0 1-1.5 1.3-1.5 3.8" fill="#f8cf02"/></g></g><g clip-path="url(#l)"><g clip-path="url(#m)"><path d="M22.5 202.5H35v-60H22.5zm0 0" fill="#f8cf02"/></g></g><g clip-path="url(#n)"><g clip-path="url(#o)"><path d="M65 202.5h12.5v-60H65zm0 0" fill="#f8cf02"/></g></g><g clip-path="url(#p)"><g clip-path="url(#q)"><path d="M37.5 157.5h25v-5h-25zm0 0" fill="#f8cf02"/></g></g><g clip-path="url(#r)"><g clip-path="url(#s)"><path d="M37.5 192.5h25v-5h-25zm0 0" fill="#f8cf02"/></g></g><g clip-path="url(#t)"><g clip-path="url(#u)"><path d="M37.5 142.5L50 150l12.5-7.5" fill="#f8cf02"/></g></g><g clip-path="url(#v)"><g clip-path="url(#w)"><path d="M37.5 195l12.5 7.5 12.5-7.5" fill="#f8cf02"/></g></g><g clip-path="url(#x)"><g clip-path="url(#y)"><path d="M50 159.3a13.3 13.3 0 110 26.5 13.3 13.3 0 010-26.6" fill="#f8cf02"/></g></g><g clip-path="url(#z)"><g clip-path="url(#A)"><path d="M50 159.3a13.3 13.3 0 110 26.5 13.3 13.3 0 010-26.6zm0 0" fill="none" stroke-width="1.5" stroke="#c4272e"/></g></g><g clip-path="url(#B)"><g clip-path="url(#C)"><path d="M50 159.3a6.6 6.6 0 016.6 6.6 6.6 6.6 0 01-6.6 6.6 6.6 6.6 0 00-6.6 6.6 6.6 6.6 0 006.6 6.7" fill="none" stroke-width="1.5" stroke="#c4272e"/></g></g><g clip-path="url(#D)"><g clip-path="url(#E)"><path d="M50 163.4a2.5 2.5 0 110 5 2.5 2.5 0 01-2.5-2.5c0-1.4 1.1-2.5 2.5-2.5" fill="#c4272e"/></g></g><g clip-path="url(#F)"><g clip-path="url(#G)"><path d="M50 176.6a2.5 2.5 0 110 5 2.5 2.5 0 01-2.5-2.5c0-1.4 1.1-2.5 2.5-2.5" fill="#c4272e"/></g></g></svg>