<svg xmlns="http://www.w3.org/2000/svg" width="400" height="400" viewBox="0 0 300 300"><defs><clipPath id="a"><path d="M150 0a150 150 0 100 300 150 150 0 000-300zm0 0"/></clipPath><clipPath id="b"><path d="M102 100h96v91h-96zm0 0"/></clipPath><clipPath id="c"><path d="M150 0a150 150 0 100 300 150 150 0 000-300zm0 0"/></clipPath></defs><g clip-path="url(#a)"><path fill="#c1272c" d="M0 0h300v300H0z"/></g><g clip-path="url(#b)"><g clip-path="url(#c)"><path d="M162 160.6l3.5 11-9.3-6.8zm-24 0l5.8 4.2-9.3 6.8zm25.6-18.6h11.5l-9.3 6.8zm-19.5 0h11.8l3.7 11.3-9.6 7-9.6-7zm-7.7 0l-2.2 6.8-9.3-6.8zm13.6-18.3l3.6 11h-7.2zm0-23.7l-11.2 34.6h-36.4l29.4 21.5-11.2 34.7 29.4-21.5 29.5 21.4-11.3-34.6 29.4-21.4h-36.3" fill="#006133"/></g></g></svg>