<svg xmlns="http://www.w3.org/2000/svg" width="400" height="400" viewBox="0 0 300 300"><defs><clipPath id="a"><path d="M150 0a150 150 0 100 300 150 150 0 000-300zm0 0"/></clipPath><clipPath id="b"><path d="M0 0h300v104H0zm0 0"/></clipPath><clipPath id="c"><path d="M150 0a150 150 0 100 300 150 150 0 000-300zm0 0"/></clipPath><clipPath id="d"><path d="M0 0h300v94H0zm0 0"/></clipPath><clipPath id="e"><path d="M150 0a150 150 0 100 300 150 150 0 000-300zm0 0"/></clipPath><clipPath id="f"><path d="M0 196h300v104H0zm0 0"/></clipPath><clipPath id="g"><path d="M150 0a150 150 0 100 300 150 150 0 000-300zm0 0"/></clipPath><clipPath id="h"><path d="M0 206h300v94H0zm0 0"/></clipPath><clipPath id="i"><path d="M150 0a150 150 0 100 300 150 150 0 000-300zm0 0"/></clipPath><clipPath id="j"><path d="M0 0h197v300H0zm0 0"/></clipPath><clipPath id="k"><path d="M150 0a150 150 0 100 300 150 150 0 000-300zm0 0"/></clipPath><clipPath id="l"><path d="M6 93h119v114H6zm0 0"/></clipPath><clipPath id="m"><path d="M150 0a150 150 0 100 300 150 150 0 000-300zm0 0"/></clipPath><clipPath id="n"><path d="M33 142h66v37H33zm0 0"/></clipPath><clipPath id="o"><path d="M150 0a150 150 0 100 300 150 150 0 000-300zm0 0"/></clipPath><clipPath id="p"><path d="M33 141h67v38H33zm0 0"/></clipPath><clipPath id="q"><path d="M150 0a150 150 0 100 300 150 150 0 000-300zm0 0"/></clipPath><clipPath id="r"><path d="M38 168h53v11H38zm0 0"/></clipPath><clipPath id="s"><path d="M150 0a150 150 0 100 300 150 150 0 000-300zm0 0"/></clipPath><clipPath id="t"><path d="M41 144h53v29H41zm0 0"/></clipPath><clipPath id="u"><path d="M150 0a150 150 0 100 300 150 150 0 000-300zm0 0"/></clipPath><clipPath id="v"><path d="M16 106h99v81H16zm0 0"/></clipPath><clipPath id="w"><path d="M150 0a150 150 0 100 300 150 150 0 000-300zm0 0"/></clipPath><clipPath id="x"><path d="M16 106h99v82H16zm0 0"/></clipPath><clipPath id="y"><path d="M150 0a150 150 0 100 300 150 150 0 000-300zm0 0"/></clipPath></defs><g clip-path="url(#a)"><path d="M0 0h300v300H0z"/></g><g clip-path="url(#b)"><g clip-path="url(#c)"><path d="M0 103.1h450V0H0zm0 0" fill="#fff"/></g></g><g clip-path="url(#d)"><g clip-path="url(#e)"><path d="M0 93.8h450V0H0zm0 0" fill="#007068"/></g></g><g clip-path="url(#f)"><g clip-path="url(#g)"><path d="M0 300h450V196.7H0zm0 0" fill="#fff"/></g></g><g clip-path="url(#h)"><g clip-path="url(#i)"><path d="M0 300h450v-93.8H0zm0 0" fill="#fbe000"/></g></g><g clip-path="url(#j)"><g clip-path="url(#k)"><path d="M0 0v300l196.9-150" fill="#d21034"/></g></g><g clip-path="url(#l)"><g clip-path="url(#m)"><path d="M102.2 206.2l-36.6-26.7-36.5 26.7 14.1-43-36.7-26.5 45.3.2 13.8-43.2L79.5 137l45.3-.2L88 163.2" fill="#fbe000"/></g></g><g clip-path="url(#n)"><g clip-path="url(#o)"><path d="M33.9 176.2h26.3c2.1 2.4 6.9 3.4 11.4 0 8.2-4.5 24.2 0 24.2 0l3.1-3.3-7.6-25.2-2.8-3s-5.9-3.5-17-2.3c-11.3 1.2-15.2-.4-15.2-.4s-9.9 1.2-12.6 2.6l-3.2 3.1" fill="#fff"/></g></g><g clip-path="url(#p)"><g clip-path="url(#q)"><path d="M33.9 176.2h26.3c2.1 2.4 6.9 3.4 11.4 0 8.2-4.5 24.2 0 24.2 0l3.1-3.3-7.6-25.2-2.8-3s-5.9-3.5-17-2.3c-11.3 1.2-15.2-.4-15.2-.4s-9.9 1.2-12.6 2.6l-3.2 3.1zm0 0" fill="none" stroke-width=".6" stroke-linecap="round" stroke-linejoin="round" stroke="#000"/></g></g><g clip-path="url(#r)"><g clip-path="url(#s)"><path d="M39.2 169.7s25.1-3.1 32.4 6.5c-4 2.8-7.7 3-11.6.2.6-1 9-9.8 30.5-6.9" fill="none" stroke-width=".6" stroke-linecap="round" stroke-linejoin="round" stroke="#000"/></g></g><g clip-path="url(#t)"><g clip-path="url(#u)"><path d="M44 144.6L41.3 156m47.2-11l4.7 22m-27-22.4l-.3 27.7" stroke-width=".6" stroke-linecap="round" stroke-linejoin="round" stroke="#000"/></g></g><g clip-path="url(#v)"><g clip-path="url(#w)"><path d="M16.7 179.2l6.2 7.3c.8.4 1.4.4 2 0l9.2-11 4-4.8a3 3 0 00.6-2.2l7.4-6.6 1.6.2c-.7-.2-1.3-.5-.7-1.3l1.7-1.3 1.2 1.7s-1.8 2.3-2 2.3h-2L42 167l1.7 1.5 2.6 7 3-2.2-2-7.2 4.5-4.8-1.7-2.5 1.1-1.5s15.3 9.6 21.2 7l.3-6.8s-15.8-1.7-16.1-4.8c-.4-3.1 3.4-3.5 3.4-3.5l-1.6-2.4.4-1.3 2.7 3.5 6.3-5.3 36.7 41.9c2-.8 2.4-1.3 2.6-3.3l-36-41.4 2.7-2.9c.6-.6.8-.9.8-1.8l4.2-3.7c1.3.4 2 1.2 2.7 2.2l11.6-9.8c.4.3 1.3.6 2 .2l19.1-18.4-21 14.8-.6-.6c0-.6.7-.7 0-1.8-.9-1-2 1-2.2 1-.2 0-3-1.1-3.7-2.4l-.2 3.4-5.3 5-4-.2-6 5.7-.7 2.2 1 1.8s-3.2 2.8-3.2 2.6c0-.2-.6-.8-.6-.9l2.6-2.4.4-1.7-.9-1.4c-.3.2-3.7 3.8-3.9 3.5L56 124l.6-2-6.3-6.9c-2.3-.8-5.9-.9-6.6 4-.6 1.2-5.3.3-5.3.3l-2.6.5-14.5 20.6 8 9.7 16.6-21 .5-5.9 3.5 4c1.1 0 2.2 0 3.3-.4l9.8 10.9-1.7 1.6 1.5 1.6 1.6-1.2.7 1c-.8.4-1.4 1-2.2 1.5-1.3-.9-2.6-2-2.5-3.7l-5.5 4.6-.2 1-16.3 13.5-1.5.2-.4 4.3 10.7-8.9v-1.2l1 .9 8.4-6.6s.5.7.3.7-7.3 6.6-7.3 6.6l-.2.7-1.3 1.1-.7-.5-10 8.8H36l-5.5 5.5c-1.4.1-2.7.3-3.9 1.1"/></g></g><g clip-path="url(#x)"><g clip-path="url(#y)"><path d="M16.7 179.2l6.2 7.3c.8.4 1.4.4 2 0l9.2-11 4-4.8a3 3 0 00.6-2.2l7.4-6.6 1.6.2c-.7-.2-1.3-.5-.7-1.3l1.7-1.3 1.2 1.7s-1.8 2.3-2 2.3h-2L42 167l1.7 1.5 2.6 7 3-2.2-2-7.2 4.5-4.8-1.7-2.5 1.1-1.5s15.3 9.6 21.2 7l.3-6.8s-15.8-1.7-16.1-4.8c-.4-3.1 3.4-3.5 3.4-3.5l-1.6-2.4.4-1.3 2.7 3.5 6.3-5.3 36.7 41.9c2-.8 2.4-1.3 2.6-3.3l-36-41.4 2.7-2.9c.6-.6.8-.9.8-1.8l4.2-3.7c1.3.4 2 1.2 2.7 2.2l11.6-9.8c.4.3 1.3.6 2 .2l19.1-18.4-21 14.8-.6-.6c0-.6.7-.7 0-1.8-.9-1-2 1-2.2 1-.2 0-3-1.1-3.7-2.4l-.2 3.4-5.3 5-4-.2-6 5.7-.7 2.2 1 1.8s-3.2 2.8-3.2 2.6c0-.2-.6-.8-.6-.9l2.6-2.4.4-1.7-.9-1.4c-.3.2-3.7 3.8-3.9 3.5L56 124l.6-2-6.3-6.9c-2.3-.8-5.9-.9-6.6 4-.6 1.2-5.3.3-5.3.3l-2.6.5-14.5 20.6 8 9.7 16.6-21 .5-5.9 3.5 4c1.1 0 2.2 0 3.3-.4l9.8 10.9-1.7 1.6 1.5 1.6 1.6-1.2.7 1c-.8.4-1.4 1-2.2 1.5-1.3-.9-2.6-2-2.5-3.7l-5.5 4.6-.2 1-16.3 13.5-1.5.2-.4 4.3 10.7-8.9v-1.2l1 .9 8.4-6.6s.5.7.3.7-7.3 6.6-7.3 6.6l-.2.7-1.3 1.1-.7-.5-10 8.8H36l-5.5 5.5c-1.4.1-2.7.3-3.9 1.1zm0 0" fill="none" stroke-width=".6" stroke-linecap="round" stroke-linejoin="round" stroke="#000"/></g></g></svg>