<svg xmlns="http://www.w3.org/2000/svg" width="400" height="400" viewBox="0 0 300 300"><defs><clipPath id="a"><path d="M0 0h300v150H0zm0 0"/></clipPath><clipPath id="b"><path d="M150 0a150 150 0 100 300 150 150 0 000-300zm0 0"/></clipPath><clipPath id="c"><path d="M0 150h300v150H0zm0 0"/></clipPath><clipPath id="d"><path d="M150 0a150 150 0 100 300 150 150 0 000-300zm0 0"/></clipPath><clipPath id="e"><path d="M0 100h300v100H0zm0 0"/></clipPath><clipPath id="f"><path d="M150 0a150 150 0 100 300 150 150 0 000-300zm0 0"/></clipPath><clipPath id="g"><path d="M44 50h212v200H44zm0 0"/></clipPath><clipPath id="h"><path d="M150 0a150 150 0 100 300 150 150 0 000-300zm0 0"/></clipPath></defs><g clip-path="url(#a)"><g clip-path="url(#b)"><path d="M-75 150h450V0H-75zm0 0" fill="#fdca00"/></g></g><g clip-path="url(#c)"><g clip-path="url(#d)"><path d="M-75 300h450V150H-75zm0 0" fill="#ea2839"/></g></g><g clip-path="url(#e)"><g clip-path="url(#f)"><path d="M-75 200h450V100H-75zm0 0" fill="#34b133"/></g></g><g clip-path="url(#g)"><g clip-path="url(#h)"><path d="M44.9 126.4l65 47.2L85 250l65-47.2 65 47.2-24.8-76.4 65-47.2h-80.4L150 50l-24.8 76.4" fill="#fff"/></g></g></svg>