<svg xmlns="http://www.w3.org/2000/svg" width="400" height="400" viewBox="0 0 300 300"><defs><clipPath id="a"><path d="M150 0a150 150 0 100 300 150 150 0 000-300zm0 0"/></clipPath><clipPath id="b"><path d="M0 150a150 150 0 10300 0 150 150 0 00-300 0"/></clipPath><clipPath id="c"><path d="M15 32h100v101H15zm0 0"/></clipPath><clipPath id="d"><path d="M150 0a150 150 0 100 300 150 150 0 000-300zm0 0"/></clipPath><clipPath id="e"><path d="M37 55h56v55H37zm0 0"/></clipPath><clipPath id="f"><path d="M150 0a150 150 0 100 300 150 150 0 000-300zm0 0"/></clipPath><clipPath id="g"><path d="M20 38h90v89H20zm0 0"/></clipPath><clipPath id="h"><path d="M150 0a150 150 0 100 300 150 150 0 000-300zm0 0"/></clipPath></defs><g clip-path="url(#a)"><path d="M425 0H-25v300" fill="#003580"/><path d="M-25 300h450V0" fill="#009443"/></g><g clip-path="url(#b)"><path d="M-25 300L425 0" stroke-width="90" stroke="#fff"/><path d="M-25 300L425 0" stroke-width="60" stroke="#d21034"/></g><g clip-path="url(#c)"><g clip-path="url(#d)"><path d="M65 32.5l7.8 21L90 39.2l-3.8 22 22.1-3.7L94 74.7l21 7.8-21 7.8 14.3 17.2-22-3.8 3.7 22.1-17.2-14.3-7.8 21-7.8-21L40 125.8l3.8-22-22.1 3.7L36 90.3l-21-7.8 21-7.8-14.3-17.2 22 3.8L40 39.2l17.2 14.3" fill="#ffce00"/></g></g><g clip-path="url(#e)"><g clip-path="url(#f)"><path d="M65 55a27.5 27.5 0 110 55 27.5 27.5 0 010-55" fill="#ffce00"/></g></g><g clip-path="url(#g)"><g clip-path="url(#h)"><path d="M65 55a27.5 27.5 0 110 55 27.5 27.5 0 010-55zm0 0" fill="none" stroke-width="3" stroke="#003580"/></g></g></svg>