<svg xmlns="http://www.w3.org/2000/svg" width="400" height="400" viewBox="0 0 300 300"><defs><clipPath id="a"><path d="M150 0a150 150 0 100 300 150 150 0 000-300zm0 0"/></clipPath><clipPath id="b"><path d="M0 137h300v26H0zm0 0"/></clipPath><clipPath id="c"><path d="M150 0a150 150 0 100 300 150 150 0 000-300zm0 0"/></clipPath><clipPath id="d"><path d="M50 162h100v101H50zm0 0"/></clipPath><clipPath id="e"><path d="M150 0a150 150 0 100 300 150 150 0 000-300zm0 0"/></clipPath></defs><g clip-path="url(#a)"><path fill="#002b7e" d="M0 0h300v300H0z"/></g><g clip-path="url(#b)"><g clip-path="url(#c)"><path d="M-50 162.5h600v-25H-50zm0 0" fill="#ffc51e"/></g></g><g clip-path="url(#d)"><g clip-path="url(#e)"><path d="M100 262.5l-6.5-25.9L75 255.8l7.3-25.6-25.6 7.3L75.9 219 50 212.5l25.9-6.5-19.2-18.5 25.6 7.3-7.3-25.6 18.5 19.2 6.5-25.9 6.5 25.9 18.5-19.2-7.3 25.6 25.6-7.3-19.2 18.5 25.9 6.5-25.9 6.5 19.2 18.5-25.6-7.3 7.3 25.6-18.5-19.2" fill="#fff"/></g></g></svg>