<svg xmlns="http://www.w3.org/2000/svg" width="400" height="400" viewBox="0 0 300 300"><defs><clipPath id="a"><path d="M20 0h280v300H20zm0 0"/></clipPath><clipPath id="b"><path d="M150 0a150 150 0 100 300 150 150 0 000-300zm0 0"/></clipPath><clipPath id="c"><path d="M26 0h271v300H26zm0 0"/></clipPath><clipPath id="d"><path d="M150 0a150 150 0 100 300 150 150 0 000-300zm0 0"/></clipPath><clipPath id="e"><path d="M40 78h109v55H40zm0 0"/></clipPath><clipPath id="f"><path d="M150 0a150 150 0 100 300 150 150 0 000-300zm0 0"/></clipPath><clipPath id="g"><path d="M69 78h51v51H69zm0 0"/></clipPath><clipPath id="h"><path d="M150 0a150 150 0 100 300 150 150 0 000-300zm0 0"/></clipPath><clipPath id="i"><path d="M94 69h10v12H94zm0 0"/></clipPath><clipPath id="j"><path d="M150 0a150 150 0 100 300 150 150 0 000-300zm0 0"/></clipPath><clipPath id="k"><path d="M103 74h11v12h-11zm0 0"/></clipPath><clipPath id="l"><path d="M150 0a150 150 0 100 300 150 150 0 000-300zm0 0"/></clipPath><clipPath id="m"><path d="M111 83h13v11h-13zm0 0"/></clipPath><clipPath id="n"><path d="M150 0a150 150 0 100 300 150 150 0 000-300zm0 0"/></clipPath><clipPath id="o"><path d="M117 93h12v11h-12zm0 0"/></clipPath><clipPath id="p"><path d="M150 0a150 150 0 100 300 150 150 0 000-300zm0 0"/></clipPath><clipPath id="q"><path d="M117 103h12v10h-12zm0 0"/></clipPath><clipPath id="r"><path d="M150 0a150 150 0 100 300 150 150 0 000-300zm0 0"/></clipPath><clipPath id="s"><path d="M111 112h13v11h-13zm0 0"/></clipPath><clipPath id="t"><path d="M150 0a150 150 0 100 300 150 150 0 000-300zm0 0"/></clipPath><clipPath id="u"><path d="M84 69h11v12H84zm0 0"/></clipPath><clipPath id="v"><path d="M150 0a150 150 0 100 300 150 150 0 000-300zm0 0"/></clipPath><clipPath id="w"><path d="M74 74h11v12H74zm0 0"/></clipPath><clipPath id="x"><path d="M150 0a150 150 0 100 300 150 150 0 000-300zm0 0"/></clipPath><clipPath id="y"><path d="M65 83h12v11H65zm0 0"/></clipPath><clipPath id="z"><path d="M150 0a150 150 0 100 300 150 150 0 000-300zm0 0"/></clipPath><clipPath id="A"><path d="M60 93h12v11H60zm0 0"/></clipPath><clipPath id="B"><path d="M150 0a150 150 0 100 300 150 150 0 000-300zm0 0"/></clipPath><clipPath id="C"><path d="M60 103h12v10H60zm0 0"/></clipPath><clipPath id="D"><path d="M150 0a150 150 0 100 300 150 150 0 000-300zm0 0"/></clipPath><clipPath id="E"><path d="M36 179h117v117H36zm0 0"/></clipPath><clipPath id="F"><path d="M150 0a150 150 0 100 300 150 150 0 000-300zm0 0"/></clipPath></defs><g clip-path="url(#a)"><g clip-path="url(#b)"><path d="M20 340V-40l300 188.4H121.9l191 191.6" fill="#003892"/></g></g><g clip-path="url(#c)"><g clip-path="url(#d)"><path d="M26.7 141.7h270.2L26.7-27.9v361.2h270.2L26.7 62.3" fill="#dc133b"/></g></g><g clip-path="url(#e)"><g clip-path="url(#f)"><path d="M40.4 78.1a57.8 57.8 0 00107.6 0 53.9 53.9 0 11-107.6 0" fill="#fff"/></g></g><g clip-path="url(#g)"><g clip-path="url(#h)"><path d="M94.2 78.1a25 25 0 110 50.2 25 25 0 010-50.2" fill="#fff"/></g></g><g clip-path="url(#i)"><g clip-path="url(#j)"><path d="M103.8 80L101 69l-6.8 9.1" fill="#fff"/></g></g><g clip-path="url(#k)"><g clip-path="url(#l)"><path d="M112 85.5l1.5-11.3-9.7 5.8" fill="#fff"/></g></g><g clip-path="url(#m)"><g clip-path="url(#n)"><path d="M117.4 93.6l5.7-9.8-11.2 1.7" fill="#fff"/></g></g><g clip-path="url(#o)"><g clip-path="url(#p)"><path d="M119.3 103.2l9-6.8-11-2.8" fill="#fff"/></g></g><g clip-path="url(#q)"><g clip-path="url(#r)"><path d="M117.4 112.8l11-2.8-9.1-6.8" fill="#fff"/></g></g><g clip-path="url(#s)"><g clip-path="url(#t)"><path d="M112 121l11.1 1.6-5.7-9.8" fill="#fff"/></g></g><g clip-path="url(#u)"><g clip-path="url(#v)"><path d="M84.6 80l2.8-11 6.8 9.1" fill="#fff"/></g></g><g clip-path="url(#w)"><g clip-path="url(#x)"><path d="M76.5 85.5L75 74.2l9.7 5.8" fill="#fff"/></g></g><g clip-path="url(#y)"><g clip-path="url(#z)"><path d="M71 93.6l-5.7-9.8 11.2 1.7" fill="#fff"/></g></g><g clip-path="url(#A)"><g clip-path="url(#B)"><path d="M69.2 103.2l-9-6.8L71 93.6" fill="#fff"/></g></g><g clip-path="url(#C)"><g clip-path="url(#D)"><path d="M71 112.8L60.2 110l9-6.8" fill="#fff"/></g></g><g clip-path="url(#E)"><g clip-path="url(#F)"><path d="M65.3 187.3l3 24.2-24.2-3L58.8 228l-22.4 9.5 22.4 9.6-14.7 19.4 24.2-3-3 24.3L84.7 273l9.5 22.4 9.5-22.4 19.4 14.7-3-24.3 24.2 3-14.7-19.4 22.4-9.6-22.4-9.5 14.7-19.5-24.2 3 3-24.2-19.4 14.7-9.5-22.4-9.5 22.4" fill="#fff"/></g></g></svg>