<svg xmlns="http://www.w3.org/2000/svg" width="400" height="400" viewBox="0 0 300 300"><defs><clipPath id="a"><path d="M150 0a150 150 0 100 300 150 150 0 000-300zm0 0"/></clipPath><clipPath id="b"><path d="M0 100h300v200H0zm0 0"/></clipPath><clipPath id="c"><path d="M150 0a150 150 0 100 300 150 150 0 000-300zm0 0"/></clipPath><clipPath id="d"><path d="M0 200h300v100H0zm0 0"/></clipPath><clipPath id="e"><path d="M150 0a150 150 0 100 300 150 150 0 000-300zm0 0"/></clipPath><clipPath id="f"><path d="M51 51h198v198H51zm0 0"/></clipPath><clipPath id="g"><path d="M150 0a150 150 0 100 300 150 150 0 000-300zm0 0"/></clipPath><clipPath id="h"><path d="M119 217h62v32h-62zm0 0"/></clipPath><clipPath id="i"><path d="M150 0a150 150 0 100 300 150 150 0 000-300zm0 0"/></clipPath><clipPath id="j"><path d="M136 181h28v36h-28zm0 0"/></clipPath><clipPath id="k"><path d="M150 0a150 150 0 100 300 150 150 0 000-300zm0 0"/></clipPath><clipPath id="l"><path d="M133 164h33v8h-33zm0 0"/></clipPath><clipPath id="m"><path d="M150 0a150 150 0 100 300 150 150 0 000-300zm0 0"/></clipPath><clipPath id="n"><path d="M133 125h33v8h-33zm0 0"/></clipPath><clipPath id="o"><path d="M150 0a150 150 0 100 300 150 150 0 000-300zm0 0"/></clipPath><clipPath id="p"><path d="M136 134h28v27h-28zm0 0"/></clipPath><clipPath id="q"><path d="M150 0a150 150 0 100 300 150 150 0 000-300zm0 0"/></clipPath><clipPath id="r"><path d="M131 174h38v18h-38zm0 0"/></clipPath><clipPath id="s"><path d="M150 0a150 150 0 100 300 150 150 0 000-300zm0 0"/></clipPath><clipPath id="t"><path d="M131 105h38v18h-38zm0 0"/></clipPath><clipPath id="u"><path d="M150 0a150 150 0 100 300 150 150 0 000-300zm0 0"/></clipPath><clipPath id="v"><path d="M137 51h26v64h-26zm0 0"/></clipPath><clipPath id="w"><path d="M150 0a150 150 0 100 300 150 150 0 000-300zm0 0"/></clipPath><clipPath id="x"><path d="M139 69h21v16h-21zm0 0"/></clipPath><clipPath id="y"><path d="M150 0a150 150 0 100 300 150 150 0 000-300zm0 0"/></clipPath></defs><g clip-path="url(#a)"><path fill="#00339f" d="M0 0h300v300H0z"/></g><g clip-path="url(#b)"><g clip-path="url(#c)"><path d="M-150 300h600V100h-600zm0 0" fill="#ee3340"/></g></g><g clip-path="url(#d)"><g clip-path="url(#e)"><path d="M-150 300h600V200h-600zm0 0" fill="#009a44"/></g></g><g clip-path="url(#f)"><g clip-path="url(#g)"><path d="M51.3 150a98.7 98.7 0 11197.4 0 98.7 98.7 0 01-197.4 0" fill="#fbe200"/></g></g><g clip-path="url(#h)"><g clip-path="url(#i)"><path d="M150 248.7a98.7 98.7 0 0030.8-5 31.3 31.3 0 00-61.6 0 98.7 98.7 0 0030.8 5"/></g></g><g clip-path="url(#j)"><g clip-path="url(#k)"><path d="M155 216.2s-.7-4.2 4.2-10.6c1.9-2.3 4.4-4.7 4.4-11.4 0-7.5-6.8-12.7-13.6-12.7-7 0-13.5 5.2-13.6 12.7 0 6.7 2.5 9 4.4 11.4 5 6.4 4.1 10.6 4.1 10.6"/></g></g><g clip-path="url(#l)"><g clip-path="url(#m)"><path d="M150 164.4l16 3.4-16 3.7-16-3.7zm0 0"/><path d="M150 164.4l16 3.4-16 3.7-16-3.7zm0 0"/></g></g><g clip-path="url(#n)"><g clip-path="url(#o)"><path d="M150 125.3l16 3.4-16 3.7-16-3.7zm0 0"/></g></g><g clip-path="url(#p)"><g clip-path="url(#q)"><path d="M136.8 147.5a13.2 13.2 0 1126.4 0 13.2 13.2 0 01-26.4 0"/></g></g><g clip-path="url(#r)"><g clip-path="url(#s)"><path d="M150 178.8s9.5-.2 13.2 1.9c3.3 1.8 4.7 10.6 4.7 10.6s3-10.9-1-14.2c-4.1-3.3-16.9-2.8-16.9-2.8s-12.8-.5-16.8 2.8c-4.1 3.3-1 14.2-1 14.2s1.3-8.8 4.6-10.6c3.7-2 13.2-1.9 13.2-1.9"/></g></g><g clip-path="url(#t)"><g clip-path="url(#u)"><path d="M150 118s9.5.2 13.2-2c3.3-1.7 4.7-10.6 4.7-10.6s3 11-1 14.2c-4.1 3.3-16.9 2.8-16.9 2.8s-12.8.5-16.8-2.8c-4.1-3.3-1-14.2-1-14.2s1.3 8.9 4.6 10.7c3.7 2 13.2 1.8 13.2 1.8"/></g></g><g clip-path="url(#v)"><g clip-path="url(#w)"><path d="M149.1 51.4h1.6l.4 37s11.7 2.8 11.7 14.1c0 11.4-12.8 12.3-12.8 12.3s-12.8 0-12.8-12.3c0-11.1 11.7-14.2 11.7-14.2"/></g></g><g clip-path="url(#x)"><g clip-path="url(#y)"><path d="M141.6 75.2s1.3-1.9 6-3.3 12.2-2 12.2-2-1.3 5.8-7.3 9.5c-5.9 3.8-13 6.6-13 3.6 0-2.9 2.6-3.4 2-5.1-.6-1.8 0-2.7 0-2.7"/></g></g></svg>