<svg xmlns="http://www.w3.org/2000/svg" width="400" height="400" viewBox="0 0 300 300"><defs><clipPath id="a"><path d="M150 0a150 150 0 100 300 150 150 0 000-300zm0 0"/></clipPath><clipPath id="b"><path d="M8 0h142v100H8zm0 0"/></clipPath><clipPath id="c"><path d="M8.5 100H150V0A150 150 0 008.5 100"/></clipPath><clipPath id="d"><path d="M8 0h142v100H8zm0 0"/></clipPath><clipPath id="e"><path d="M50 38.2V50l-8-4a152.3 152.3 0 00-3.8 4H50L150 0C111.6 0 76.5 14.4 50 38.2M50 50l100 50V50zM30 60a149.5 149.5 0 00-21.5 40H50V50zm0 0"/></clipPath><clipPath id="f"><path d="M0 0h150v100H0zm0 0"/></clipPath><clipPath id="g"><path d="M150 0a150 150 0 100 300 150 150 0 000-300zm0 0"/></clipPath><clipPath id="h"><path d="M0 0h167v117H0zm0 0"/></clipPath><clipPath id="i"><path d="M150 0a150 150 0 100 300 150 150 0 000-300zm0 0"/></clipPath><clipPath id="j"><path d="M0 0h150v100H0zm0 0"/></clipPath><clipPath id="k"><path d="M150 0a150 150 0 100 300 150 150 0 000-300zm0 0"/></clipPath><clipPath id="l"><path d="M0 0h160v110H0zm0 0"/></clipPath><clipPath id="m"><path d="M150 0a150 150 0 100 300 150 150 0 000-300zm0 0"/></clipPath><clipPath id="n"><path d="M276 60h24v26h-24zm0 0"/></clipPath><clipPath id="o"><path d="M150 0a150 150 0 100 300 150 150 0 000-300zm0 0"/></clipPath><clipPath id="p"><path d="M281 65h17v17h-17zm0 0"/></clipPath><clipPath id="q"><path d="M150 0a150 150 0 100 300 150 150 0 000-300zm0 0"/></clipPath><clipPath id="r"><path d="M234 24h32v29h-32zm0 0"/></clipPath><clipPath id="s"><path d="M150 0a150 150 0 100 300 150 150 0 000-300zm0 0"/></clipPath><clipPath id="t"><path d="M240 29h20v20h-20zm0 0"/></clipPath><clipPath id="u"><path d="M150 0a150 150 0 100 300 150 150 0 000-300zm0 0"/></clipPath><clipPath id="v"><path d="M188 70h31v30h-31zm0 0"/></clipPath><clipPath id="w"><path d="M150 0a150 150 0 100 300 150 150 0 000-300zm0 0"/></clipPath><clipPath id="x"><path d="M193 75h21v21h-21zm0 0"/></clipPath><clipPath id="y"><path d="M150 0a150 150 0 100 300 150 150 0 000-300zm0 0"/></clipPath><clipPath id="z"><path d="M233 142h34v33h-34zm0 0"/></clipPath><clipPath id="A"><path d="M150 0a150 150 0 100 300 150 150 0 000-300zm0 0"/></clipPath><clipPath id="B"><path d="M238 147h24v23h-24zm0 0"/></clipPath><clipPath id="C"><path d="M150 0a150 150 0 100 300 150 150 0 000-300zm0 0"/></clipPath></defs><g clip-path="url(#a)"><path fill="#00237c" d="M0 0h300v300H0z"/></g><g clip-path="url(#b)"><g clip-path="url(#c)"><path d="M-50 100L150 0M-50 0l200 100" stroke-width="20" stroke="#fff"/></g></g><g clip-path="url(#d)"><g clip-path="url(#e)"><path d="M-50 100L150 0M-50 0l200 100" stroke-width="13.3" stroke="#cc132b"/></g></g><g clip-path="url(#f)"><g clip-path="url(#g)"><path d="M-50 50h200M50 0v100"/></g></g><g clip-path="url(#h)"><g clip-path="url(#i)"><path d="M-50 50h200M50 0v100" fill="none" stroke-width="33.3" stroke="#fff"/></g></g><g clip-path="url(#j)"><g clip-path="url(#k)"><path d="M-50 50h200M50 0v100"/></g></g><g clip-path="url(#l)"><g clip-path="url(#m)"><path d="M-50 50h200M50 0v100" fill="none" stroke-width="20" stroke="#cc132b"/></g></g><g clip-path="url(#n)"><g clip-path="url(#o)"><path d="M276.1 70l8.4 6.1-3.2 9.8 8.3-6 8.3 6-3.1-9.8 8.3-6h-10.3l-3.2-9.8-3.2 9.8" fill="#fff"/></g></g><g clip-path="url(#p)"><g clip-path="url(#q)"><path d="M281.3 71.7l5.1 3.8-2 6 5.2-3.7 5.2 3.7-2-6 5.1-3.8h-6.3l-2-6-2 6" fill="#cc132b"/></g></g><g clip-path="url(#r)"><g clip-path="url(#s)"><path d="M234.9 35l9.3 6.9-3.6 11L250 46l9.4 6.8-3.6-11L265 35h-11.5L250 24l-3.6 11" fill="#fff"/></g></g><g clip-path="url(#t)"><g clip-path="url(#u)"><path d="M240 36.8l6.2 4.4-2.4 7.3L250 44l6.2 4.5-2.4-7.3 6.2-4.5h-7.6l-2.4-7.2-2.4 7.3" fill="#cc132b"/></g></g><g clip-path="url(#v)"><g clip-path="url(#w)"><path d="M188.7 81.6l9.3 6.8-3.6 11 9.4-6.8 9.3 6.8-3.5-11 9.3-6.8h-11.5l-3.6-11-3.6 11" fill="#fff"/></g></g><g clip-path="url(#x)"><g clip-path="url(#y)"><path d="M193.8 83.2l6.2 4.5-2.4 7.3 6.2-4.5L210 95l-2.4-7.3 6.2-4.5H206l-2.3-7.2-2.4 7.2" fill="#cc132b"/></g></g><g clip-path="url(#z)"><g clip-path="url(#A)"><path d="M233.2 154.5l10.4 7.6-4 12.2 10.4-7.6 10.4 7.6-4-12.2 10.4-7.6H254l-4-12.2-4 12.2" fill="#fff"/></g></g><g clip-path="url(#B)"><g clip-path="url(#C)"><path d="M238.3 156.2l7.2 5.3-2.7 8.4 7.2-5.2 7.2 5.2-2.7-8.5 7.2-5.2h-9l-2.7-8.5-2.8 8.5" fill="#cc132b"/></g></g></svg>