<svg xmlns="http://www.w3.org/2000/svg" width="400" height="400" viewBox="0 0 300 300"><defs><clipPath id="a"><path d="M150 0a150 150 0 100 300 150 150 0 000-300zm0 0"/></clipPath><clipPath id="b"><path d="M0 100h300v100H0zm0 0"/></clipPath><clipPath id="c"><path d="M150 0a150 150 0 100 300 150 150 0 000-300zm0 0"/></clipPath><clipPath id="d"><path d="M118 114h64v54h-64zm0 0"/></clipPath><clipPath id="e"><path d="M150 0a150 150 0 100 300 150 150 0 000-300zm0 0"/></clipPath><clipPath id="f"><path d="M119 115h62v52h-62zm0 0"/></clipPath><clipPath id="g"><path d="M150 0a150 150 0 100 300 150 150 0 000-300zm0 0"/></clipPath><clipPath id="h"><path d="M120 116h60v51h-60zm0 0"/></clipPath><clipPath id="i"><path d="M150 0a150 150 0 100 300 150 150 0 000-300zm0 0"/></clipPath><clipPath id="j"><path d="M121 118h58v48h-58zm0 0"/></clipPath><clipPath id="k"><path d="M150 0a150 150 0 100 300 150 150 0 000-300zm0 0"/></clipPath><clipPath id="l"><path d="M147 139h6v8h-6zm0 0"/></clipPath><clipPath id="m"><path d="M150 0a150 150 0 100 300 150 150 0 000-300zm0 0"/></clipPath><clipPath id="n"><path d="M105 141h8v6h-8zm0 0"/></clipPath><clipPath id="o"><path d="M150 0a150 150 0 100 300 150 150 0 000-300zm0 0"/></clipPath><clipPath id="p"><path d="M107 135h6v6h-6zm0 0"/></clipPath><clipPath id="q"><path d="M150 0a150 150 0 100 300 150 150 0 000-300zm0 0"/></clipPath><clipPath id="r"><path d="M109 128h7v7h-7zm0 0"/></clipPath><clipPath id="s"><path d="M150 0a150 150 0 100 300 150 150 0 000-300zm0 0"/></clipPath><clipPath id="t"><path d="M112 123h8v7h-8zm0 0"/></clipPath><clipPath id="u"><path d="M150 0a150 150 0 100 300 150 150 0 000-300zm0 0"/></clipPath><clipPath id="v"><path d="M116 119h8v6h-8zm0 0"/></clipPath><clipPath id="w"><path d="M150 0a150 150 0 100 300 150 150 0 000-300zm0 0"/></clipPath><clipPath id="x"><path d="M121 115h5v6h-5zm0 0"/></clipPath><clipPath id="y"><path d="M150 0a150 150 0 100 300 150 150 0 000-300zm0 0"/></clipPath><clipPath id="z"><path d="M125 112h6v6h-6zm0 0"/></clipPath><clipPath id="A"><path d="M150 0a150 150 0 100 300 150 150 0 000-300zm0 0"/></clipPath><clipPath id="B"><path d="M142 106h6v7h-6zm0 0"/></clipPath><clipPath id="C"><path d="M150 0a150 150 0 100 300 150 150 0 000-300zm0 0"/></clipPath><clipPath id="D"><path d="M149 105h5v7h-5zm0 0"/></clipPath><clipPath id="E"><path d="M150 0a150 150 0 100 300 150 150 0 000-300zm0 0"/></clipPath><clipPath id="F"><path d="M159 106h7v8h-7zm0 0"/></clipPath><clipPath id="G"><path d="M150 0a150 150 0 100 300 150 150 0 000-300zm0 0"/></clipPath><clipPath id="H"><path d="M165 109h5v7h-5zm0 0"/></clipPath><clipPath id="I"><path d="M150 0a150 150 0 100 300 150 150 0 000-300zm0 0"/></clipPath><clipPath id="J"><path d="M169 112h6v6h-6zm0 0"/></clipPath><clipPath id="K"><path d="M150 0a150 150 0 100 300 150 150 0 000-300zm0 0"/></clipPath><clipPath id="L"><path d="M186 133h7v7h-7zm0 0"/></clipPath><clipPath id="M"><path d="M150 0a150 150 0 100 300 150 150 0 000-300zm0 0"/></clipPath><clipPath id="N"><path d="M188 140h7v6h-7zm0 0"/></clipPath><clipPath id="O"><path d="M150 0a150 150 0 100 300 150 150 0 000-300zm0 0"/></clipPath><clipPath id="P"><path d="M110 169h8v7h-8zm0 0"/></clipPath><clipPath id="Q"><path d="M150 0a150 150 0 100 300 150 150 0 000-300zm0 0"/></clipPath><clipPath id="R"><path d="M114 173h9v9h-9zm0 0"/></clipPath><clipPath id="S"><path d="M150 0a150 150 0 100 300 150 150 0 000-300zm0 0"/></clipPath><clipPath id="T"><path d="M120 179h8v8h-8zm0 0"/></clipPath><clipPath id="U"><path d="M150 0a150 150 0 100 300 150 150 0 000-300zm0 0"/></clipPath><clipPath id="V"><path d="M126 182h7v8h-7zm0 0"/></clipPath><clipPath id="W"><path d="M150 0a150 150 0 100 300 150 150 0 000-300zm0 0"/></clipPath><clipPath id="X"><path d="M132 185h4v7h-4zm0 0"/></clipPath><clipPath id="Y"><path d="M150 0a150 150 0 100 300 150 150 0 000-300zm0 0"/></clipPath><clipPath id="Z"><path d="M136 187h6v7h-6zm0 0"/></clipPath><clipPath id="aa"><path d="M150 0a150 150 0 100 300 150 150 0 000-300zm0 0"/></clipPath><clipPath id="ab"><path d="M153 188h6v7h-6zm0 0"/></clipPath><clipPath id="ac"><path d="M150 0a150 150 0 100 300 150 150 0 000-300zm0 0"/></clipPath><clipPath id="ad"><path d="M159 186h7v8h-7zm0 0"/></clipPath><clipPath id="ae"><path d="M150 0a150 150 0 100 300 150 150 0 000-300zm0 0"/></clipPath><clipPath id="af"><path d="M165 183h7v9h-7zm0 0"/></clipPath><clipPath id="ag"><path d="M150 0a150 150 0 100 300 150 150 0 000-300zm0 0"/></clipPath><clipPath id="ah"><path d="M170 180h7v7h-7zm0 0"/></clipPath><clipPath id="ai"><path d="M150 0a150 150 0 100 300 150 150 0 000-300zm0 0"/></clipPath><clipPath id="aj"><path d="M183 168h8v5h-8zm0 0"/></clipPath><clipPath id="ak"><path d="M150 0a150 150 0 100 300 150 150 0 000-300zm0 0"/></clipPath><clipPath id="al"><path d="M142 188h6v7h-6zm0 0"/></clipPath><clipPath id="am"><path d="M150 0a150 150 0 100 300 150 150 0 000-300zm0 0"/></clipPath><clipPath id="an"><path d="M180 172h8v7h-8zm0 0"/></clipPath><clipPath id="ao"><path d="M150 0a150 150 0 100 300 150 150 0 000-300zm0 0"/></clipPath><clipPath id="ap"><path d="M175 176h8v8h-8zm0 0"/></clipPath><clipPath id="aq"><path d="M150 0a150 150 0 100 300 150 150 0 000-300zm0 0"/></clipPath><clipPath id="ar"><path d="M188 147h7v6h-7zm0 0"/></clipPath><clipPath id="as"><path d="M150 0a150 150 0 100 300 150 150 0 000-300zm0 0"/></clipPath><clipPath id="at"><path d="M182 127h8v7h-8zm0 0"/></clipPath><clipPath id="au"><path d="M150 0a150 150 0 100 300 150 150 0 000-300zm0 0"/></clipPath><clipPath id="av"><path d="M173 116h7v7h-7zm0 0"/></clipPath><clipPath id="aw"><path d="M150 0a150 150 0 100 300 150 150 0 000-300zm0 0"/></clipPath><clipPath id="ax"><path d="M132 108h6v8h-6zm0 0"/></clipPath><clipPath id="ay"><path d="M150 0a150 150 0 100 300 150 150 0 000-300zm0 0"/></clipPath><clipPath id="az"><path d="M105 148h7v6h-7zm0 0"/></clipPath><clipPath id="aA"><path d="M150 0a150 150 0 100 300 150 150 0 000-300zm0 0"/></clipPath><clipPath id="aB"><path d="M178 120h8v8h-8zm0 0"/></clipPath><clipPath id="aC"><path d="M150 0a150 150 0 100 300 150 150 0 000-300zm0 0"/></clipPath><clipPath id="aD"><path d="M109 160h3v3h-3zm0 0"/></clipPath><clipPath id="aE"><path d="M150 0a150 150 0 100 300 150 150 0 000-300zm0 0"/></clipPath><clipPath id="aF"><path d="M188 160h3v3h-3zm0 0"/></clipPath><clipPath id="aG"><path d="M150 0a150 150 0 100 300 150 150 0 000-300zm0 0"/></clipPath><clipPath id="aH"><path d="M136 139h10v5h-10zm0 0"/></clipPath><clipPath id="aI"><path d="M150 0a150 150 0 100 300 150 150 0 000-300zm0 0"/></clipPath><clipPath id="aJ"><path d="M139 134h8v6h-8zm0 0"/></clipPath><clipPath id="aK"><path d="M150 0a150 150 0 100 300 150 150 0 000-300zm0 0"/></clipPath><clipPath id="aL"><path d="M137 136h9v6h-9zm0 0"/></clipPath><clipPath id="aM"><path d="M150 0a150 150 0 100 300 150 150 0 000-300zm0 0"/></clipPath><clipPath id="aN"><path d="M153 145h16v9h-16zm0 0"/></clipPath><clipPath id="aO"><path d="M150 0a150 150 0 100 300 150 150 0 000-300zm0 0"/></clipPath><clipPath id="aP"><path d="M149 148h2v6h-2zm0 0"/></clipPath><clipPath id="aQ"><path d="M150 0a150 150 0 100 300 150 150 0 000-300zm0 0"/></clipPath><clipPath id="aR"><path d="M149 118h3v19h-3zm0 0"/></clipPath><clipPath id="aS"><path d="M150 0a150 150 0 100 300 150 150 0 000-300zm0 0"/></clipPath><clipPath id="aT"><path d="M154 144h16v8h-16zm0 0"/></clipPath><clipPath id="aU"><path d="M150 0a150 150 0 100 300 150 150 0 000-300zm0 0"/></clipPath><clipPath id="aV"><path d="M154 141h12v4h-12zm0 0"/></clipPath><clipPath id="aW"><path d="M150 0a150 150 0 100 300 150 150 0 000-300zm0 0"/></clipPath><clipPath id="aX"><path d="M154 138h10v5h-10zm0 0"/></clipPath><clipPath id="aY"><path d="M150 0a150 150 0 100 300 150 150 0 000-300zm0 0"/></clipPath><clipPath id="aZ"><path d="M154 135h8v6h-8zm0 0"/></clipPath><clipPath id="ba"><path d="M150 0a150 150 0 100 300 150 150 0 000-300zm0 0"/></clipPath><clipPath id="bb"><path d="M153 133h7v7h-7zm0 0"/></clipPath><clipPath id="bc"><path d="M150 0a150 150 0 100 300 150 150 0 000-300zm0 0"/></clipPath><clipPath id="bd"><path d="M153 131h6v8h-6zm0 0"/></clipPath><clipPath id="be"><path d="M150 0a150 150 0 100 300 150 150 0 000-300zm0 0"/></clipPath><clipPath id="bf"><path d="M152 129h6v9h-6zm0 0"/></clipPath><clipPath id="bg"><path d="M150 0a150 150 0 100 300 150 150 0 000-300zm0 0"/></clipPath><clipPath id="bh"><path d="M151 127h6v11h-6zm0 0"/></clipPath><clipPath id="bi"><path d="M150 0a150 150 0 100 300 150 150 0 000-300zm0 0"/></clipPath><clipPath id="bj"><path d="M150 123h5v14h-5zm0 0"/></clipPath><clipPath id="bk"><path d="M150 0a150 150 0 100 300 150 150 0 000-300zm0 0"/></clipPath><clipPath id="bl"><path d="M146 121h4v16h-4zm0 0"/></clipPath><clipPath id="bm"><path d="M150 0a150 150 0 100 300 150 150 0 000-300zm0 0"/></clipPath><clipPath id="bn"><path d="M144 125h5v12h-5zm0 0"/></clipPath><clipPath id="bo"><path d="M150 0a150 150 0 100 300 150 150 0 000-300zm0 0"/></clipPath><clipPath id="bp"><path d="M142 128h6v10h-6zm0 0"/></clipPath><clipPath id="bq"><path d="M150 0a150 150 0 100 300 150 150 0 000-300zm0 0"/></clipPath><clipPath id="br"><path d="M141 131h7v7h-7zm0 0"/></clipPath><clipPath id="bs"><path d="M150 0a150 150 0 100 300 150 150 0 000-300zm0 0"/></clipPath><clipPath id="bt"><path d="M132 144h14v4h-14zm0 0"/></clipPath><clipPath id="bu"><path d="M150 0a150 150 0 100 300 150 150 0 000-300zm0 0"/></clipPath><clipPath id="bv"><path d="M129 145h17v9h-17zm0 0"/></clipPath><clipPath id="bw"><path d="M150 0a150 150 0 100 300 150 150 0 000-300zm0 0"/></clipPath><clipPath id="bx"><path d="M137 145h10v8h-10zm0 0"/></clipPath><clipPath id="by"><path d="M150 0a150 150 0 100 300 150 150 0 000-300zm0 0"/></clipPath><clipPath id="bz"><path d="M139 146h8v8h-8zm0 0"/></clipPath><clipPath id="bA"><path d="M150 0a150 150 0 100 300 150 150 0 000-300zm0 0"/></clipPath><clipPath id="bB"><path d="M144 147h4v5h-4zm0 0"/></clipPath><clipPath id="bC"><path d="M150 0a150 150 0 100 300 150 150 0 000-300zm0 0"/></clipPath><clipPath id="bD"><path d="M146 148h3v5h-3zm0 0"/></clipPath><clipPath id="bE"><path d="M150 0a150 150 0 100 300 150 150 0 000-300zm0 0"/></clipPath><clipPath id="bF"><path d="M150 148h3v6h-3zm0 0"/></clipPath><clipPath id="bG"><path d="M150 0a150 150 0 100 300 150 150 0 000-300zm0 0"/></clipPath><clipPath id="bH"><path d="M151 148h5v6h-5zm0 0"/></clipPath><clipPath id="bI"><path d="M150 0a150 150 0 100 300 150 150 0 000-300zm0 0"/></clipPath><clipPath id="bJ"><path d="M152 147h7v7h-7zm0 0"/></clipPath><clipPath id="bK"><path d="M150 0a150 150 0 100 300 150 150 0 000-300zm0 0"/></clipPath><clipPath id="bL"><path d="M153 146h10v8h-10zm0 0"/></clipPath><clipPath id="bM"><path d="M150 0a150 150 0 100 300 150 150 0 000-300zm0 0"/></clipPath><clipPath id="bN"><path d="M167 147h2v7h-2zm0 0"/></clipPath><clipPath id="bO"><path d="M150 0a150 150 0 100 300 150 150 0 000-300zm0 0"/></clipPath><clipPath id="bP"><path d="M138 133h24v5h-24zm0 0"/></clipPath><clipPath id="bQ"><path d="M150 0a150 150 0 100 300 150 150 0 000-300zm0 0"/></clipPath><clipPath id="bR"><path d="M131 147h2v7h-2zm0 0"/></clipPath><clipPath id="bS"><path d="M150 0a150 150 0 100 300 150 150 0 000-300zm0 0"/></clipPath><clipPath id="bT"><path d="M167 148h2v6h-2zm0 0"/></clipPath><clipPath id="bU"><path d="M150 0a150 150 0 100 300 150 150 0 000-300zm0 0"/></clipPath><clipPath id="bV"><path d="M138 132h24v5h-24zm0 0"/></clipPath><clipPath id="bW"><path d="M150 0a150 150 0 100 300 150 150 0 000-300zm0 0"/></clipPath><clipPath id="bX"><path d="M131 148h2v6h-2zm0 0"/></clipPath><clipPath id="bY"><path d="M150 0a150 150 0 100 300 150 150 0 000-300zm0 0"/></clipPath><clipPath id="bZ"><path d="M168 149h1v5h-1zm0 0"/></clipPath><clipPath id="ca"><path d="M150 0a150 150 0 100 300 150 150 0 000-300zm0 0"/></clipPath><clipPath id="cb"><path d="M139 132h22v5h-22zm0 0"/></clipPath><clipPath id="cc"><path d="M150 0a150 150 0 100 300 150 150 0 000-300zm0 0"/></clipPath><clipPath id="cd"><path d="M131 149h1v5h-1zm0 0"/></clipPath><clipPath id="ce"><path d="M150 0a150 150 0 100 300 150 150 0 000-300zm0 0"/></clipPath><clipPath id="cf"><path d="M168 149h2v5h-2zm0 0"/></clipPath><clipPath id="cg"><path d="M150 0a150 150 0 100 300 150 150 0 000-300zm0 0"/></clipPath><clipPath id="ch"><path d="M139 131h22v5h-22zm0 0"/></clipPath><clipPath id="ci"><path d="M150 0a150 150 0 100 300 150 150 0 000-300zm0 0"/></clipPath><clipPath id="cj"><path d="M130 149h2v5h-2zm0 0"/></clipPath><clipPath id="ck"><path d="M150 0a150 150 0 100 300 150 150 0 000-300zm0 0"/></clipPath><clipPath id="cl"><path d="M169 150h1v4h-1zm0 0"/></clipPath><clipPath id="cm"><path d="M150 0a150 150 0 100 300 150 150 0 000-300zm0 0"/></clipPath><clipPath id="cn"><path d="M140 131h20v4h-20zm0 0"/></clipPath><clipPath id="co"><path d="M150 0a150 150 0 100 300 150 150 0 000-300zm0 0"/></clipPath><clipPath id="cp"><path d="M130 150h1v4h-1zm0 0"/></clipPath><clipPath id="cq"><path d="M150 0a150 150 0 100 300 150 150 0 000-300zm0 0"/></clipPath><clipPath id="cr"><path d="M169 151h1v3h-1zm0 0"/></clipPath><clipPath id="cs"><path d="M150 0a150 150 0 100 300 150 150 0 000-300zm0 0"/></clipPath><clipPath id="ct"><path d="M140 131h20v4h-20zm0 0"/></clipPath><clipPath id="cu"><path d="M150 0a150 150 0 100 300 150 150 0 000-300zm0 0"/></clipPath><clipPath id="cv"><path d="M130 151h1v3h-1zm0 0"/></clipPath><clipPath id="cw"><path d="M150 0a150 150 0 100 300 150 150 0 000-300zm0 0"/></clipPath><clipPath id="cx"><path d="M169 151h2v3h-2zm0 0"/></clipPath><clipPath id="cy"><path d="M150 0a150 150 0 100 300 150 150 0 000-300zm0 0"/></clipPath><clipPath id="cz"><path d="M140 130h20v4h-20zm0 0"/></clipPath><clipPath id="cA"><path d="M150 0a150 150 0 100 300 150 150 0 000-300zm0 0"/></clipPath><clipPath id="cB"><path d="M129 151h2v3h-2zm0 0"/></clipPath><clipPath id="cC"><path d="M150 0a150 150 0 100 300 150 150 0 000-300zm0 0"/></clipPath><clipPath id="cD"><path d="M139 154h4v2h-4zm0 0"/></clipPath><clipPath id="cE"><path d="M150 0a150 150 0 100 300 150 150 0 000-300zm0 0"/></clipPath><clipPath id="cF"><path d="M140 155h2v1h-2zm0 0"/></clipPath><clipPath id="cG"><path d="M150 0a150 150 0 100 300 150 150 0 000-300zm0 0"/></clipPath><clipPath id="cH"><path d="M148 154h3v1h-3zm0 0"/></clipPath><clipPath id="cI"><path d="M150 0a150 150 0 100 300 150 150 0 000-300zm0 0"/></clipPath><clipPath id="cJ"><path d="M156 154h3v1h-3zm0 0"/></clipPath><clipPath id="cK"><path d="M150 0a150 150 0 100 300 150 150 0 000-300zm0 0"/></clipPath><clipPath id="cL"><path d="M161 154h3v1h-3zm0 0"/></clipPath><clipPath id="cM"><path d="M150 0a150 150 0 100 300 150 150 0 000-300zm0 0"/></clipPath><clipPath id="cN"><path d="M170 156h3v1h-3zm0 0"/></clipPath><clipPath id="cO"><path d="M150 0a150 150 0 100 300 150 150 0 000-300zm0 0"/></clipPath><clipPath id="cP"><path d="M127 156h4v1h-4zm0 0"/></clipPath><clipPath id="cQ"><path d="M150 0a150 150 0 100 300 150 150 0 000-300zm0 0"/></clipPath><clipPath id="cR"><path d="M127 155h5v1h-5zm0 0"/></clipPath><clipPath id="cS"><path d="M150 0a150 150 0 100 300 150 150 0 000-300zm0 0"/></clipPath><clipPath id="cT"><path d="M128 154h5v2h-5zm0 0"/></clipPath><clipPath id="cU"><path d="M150 0a150 150 0 100 300 150 150 0 000-300zm0 0"/></clipPath><clipPath id="cV"><path d="M131 163h11v2h-11zm0 0"/></clipPath><clipPath id="cW"><path d="M150 0a150 150 0 100 300 150 150 0 000-300zm0 0"/></clipPath><clipPath id="cX"><path d="M128 153h44v2h-44zm0 0"/></clipPath><clipPath id="cY"><path d="M150 0a150 150 0 100 300 150 150 0 000-300zm0 0"/></clipPath><clipPath id="cZ"><path d="M167 153h5v2h-5zm0 0"/></clipPath><clipPath id="da"><path d="M150 0a150 150 0 100 300 150 150 0 000-300zm0 0"/></clipPath><clipPath id="db"><path d="M168 154h4v2h-4zm0 0"/></clipPath><clipPath id="dc"><path d="M150 0a150 150 0 100 300 150 150 0 000-300zm0 0"/></clipPath><clipPath id="dd"><path d="M169 155h4v2h-4zm0 0"/></clipPath><clipPath id="de"><path d="M150 0a150 150 0 100 300 150 150 0 000-300zm0 0"/></clipPath><clipPath id="df"><path d="M173 161h4v2h-4zm0 0"/></clipPath><clipPath id="dg"><path d="M150 0a150 150 0 100 300 150 150 0 000-300zm0 0"/></clipPath><clipPath id="dh"><path d="M146 160h31v4h-31zm0 0"/></clipPath><clipPath id="di"><path d="M150 0a150 150 0 100 300 150 150 0 000-300zm0 0"/></clipPath><clipPath id="dj"><path d="M124 161h54v4h-54zm0 0"/></clipPath><clipPath id="dk"><path d="M150 0a150 150 0 100 300 150 150 0 000-300zm0 0"/></clipPath><clipPath id="dl"><path d="M123 162h55v4h-55zm0 0"/></clipPath><clipPath id="dm"><path d="M150 0a150 150 0 100 300 150 150 0 000-300zm0 0"/></clipPath><clipPath id="dn"><path d="M122 162h57v4h-57zm0 0"/></clipPath><clipPath id="do"><path d="M150 0a150 150 0 100 300 150 150 0 000-300zm0 0"/></clipPath><clipPath id="dp"><path d="M124 149h52v13h-52zm0 0"/></clipPath><clipPath id="dq"><path d="M150 0a150 150 0 100 300 150 150 0 000-300zm0 0"/></clipPath><clipPath id="dr"><path d="M135 149h12v13h-12zm0 0"/></clipPath><clipPath id="ds"><path d="M150 0a150 150 0 100 300 150 150 0 000-300zm0 0"/></clipPath><clipPath id="dt"><path d="M144 150h12v12h-12zm0 0"/></clipPath><clipPath id="du"><path d="M150 0a150 150 0 100 300 150 150 0 000-300zm0 0"/></clipPath><clipPath id="dv"><path d="M157 151h3v5h-3zm0 0"/></clipPath><clipPath id="dw"><path d="M150 0a150 150 0 100 300 150 150 0 000-300zm0 0"/></clipPath><clipPath id="dx"><path d="M158 154h2v3h-2zm0 0"/></clipPath><clipPath id="dy"><path d="M150 0a150 150 0 100 300 150 150 0 000-300zm0 0"/></clipPath><clipPath id="dz"><path d="M162 152h3v4h-3zm0 0"/></clipPath><clipPath id="dA"><path d="M150 0a150 150 0 100 300 150 150 0 000-300zm0 0"/></clipPath></defs><g clip-path="url(#a)"><path fill="#003876" d="M0 0h300v300H0z"/></g><g clip-path="url(#b)"><g clip-path="url(#c)"><path d="M-100 200h500V100h-500zm0 0" fill="#fff"/></g></g><g clip-path="url(#d)"><g clip-path="url(#e)"><path d="M181.3 167.6L150 114.3l-31.3 53.3" fill="#003876"/></g></g><g clip-path="url(#f)"><g clip-path="url(#g)"><path d="M119.8 167l30.2-51.4 30.2 51.4" fill="#ffce46"/></g></g><g clip-path="url(#h)"><g clip-path="url(#i)"><path d="M120.8 166.3L150 117l29.2 49.4" fill="#003876"/></g></g><g clip-path="url(#j)"><g clip-path="url(#k)"><path d="M178.2 165.7L150 118l-28.2 47.6" fill="#fff"/></g></g><g clip-path="url(#l)"><g clip-path="url(#m)"><path d="M148.3 144.3h-.4c-.2 0-.1 0-.1-.4 0-1 0-2 .4-2.4.4-.4 1-.5 1.3-.5.3 0 .5-.3 0-.4-.4-.2-.6-.2-1.1-.2 0-.7.2-1.4 1-1.4h1.3c.6 0 1.5 1 1.5 2v3c0 .4-.3.5-.7.5h-.8c-.3 0-.4 0-.4.4v1.2c0 .3-.4.6-.9.3s-.8-.7-1.1-2" fill="#ed3d42"/></g></g><g clip-path="url(#n)"><g clip-path="url(#o)"><path d="M107.4 142l-.4 2.9 1.3.2.4-2.6 1 .2-.4 2.6 1.6.2.4-2.9 1 .2-.7 4-5.8-.9.6-4" fill="#ffce46"/></g></g><g clip-path="url(#p)"><g clip-path="url(#q)"><path d="M109 138.7l1 .3.4-1c.1-.6-.2-1-.7-1.2-.6-.2-1 .1-1.1.6l-.3 1 .7.3-.2 1-1.8-.5.7-2.4c.3-.9 1.3-1.3 2.3-1 .9.3 1.6 1.2 1.3 2.2l-.4 1.3 2 .6-.3 1-3.8-1.2" fill="#ffce46"/></g></g><g clip-path="url(#r)"><g clip-path="url(#s)"><path d="M114.5 133c.3-.7 0-1.1-.5-1.3l-3.4-1.7.5-1 3.4 1.7c.9.4 1.6 1.3.9 2.8-.8 1.4-2 1.4-2.8 1l-3.4-1.7.5-1 3.4 1.7c.5.2 1 .3 1.4-.5" fill="#ffce46"/></g></g><g clip-path="url(#t)"><g clip-path="url(#u)"><path d="M116.4 127.9l.6.4 1-1.2c.2-.3 0-.7-.3-1-.4-.3-.8-.2-1 0l-1 1.3.7.5-.7.9-2-1.4.7-1 .6.5.8-1.2c.3-.4 0-.8-.1-1-.2 0-.7-.1-1 .2l-.8 1.2.5.4-.7 1-1.3-1 1.3-1.9c.7-.9 1.7-1.4 2.5-.8.3.3.6.7.7 1.2.4-.1.9-.1 1.5.3s1.2 1.3.3 2.5l-1.5 2-1.5-1" fill="#ffce46"/></g></g><g clip-path="url(#v)"><g clip-path="url(#w)"><path d="M117.7 119.8l3.4 3.3 1.8-1.8.8.7-2.6 2.7-4.2-4.1" fill="#ffce46"/></g></g><g clip-path="url(#x)"><g clip-path="url(#y)"><path d="M125 120.9l-3.7-4.6.9-.7 3.7 4.6zm0 0" fill="#ffce46"/></g></g><g clip-path="url(#z)"><g clip-path="url(#A)"><path d="M128.5 113.7c-.2-.3-.8-.7-1.6-.3-.7.5-.7 1.4 0 2.4.5 1 1.4 1.3 2 .9.7-.4.8-1.1.5-1.5l.9-.6c.6 1 .3 2.3-.9 3-1.1.7-2.5.2-3.5-1.3-.9-1.5-.7-3 .5-3.7 1.2-.8 2.5-.3 3 .5" fill="#ffce46"/></g></g><g clip-path="url(#B)"><g clip-path="url(#C)"><path d="M143.6 109l.3 2 .9-.1c.3 0 1.3-.3 1.1-2.2-.2-1.7-1.2-1.7-1.5-1.6h-1l.2 1.9-1 .1-.4-2.8 2.2-.2c.7-.1 2.3 0 2.6 2.4.2 1.6-.4 3.2-1.7 3.4l-2.4.2-.4-3" fill="#ffce46"/></g></g><g clip-path="url(#D)"><g clip-path="url(#E)"><path d="M153.9 106.8l-3-.1v1.3l2.6.1v1h-2.6l-.1 1.5 2.9.1v1l-4.1-.2.2-5.9 4.1.2" fill="#ffce46"/></g></g><g clip-path="url(#F)"><g clip-path="url(#G)"><path d="M162.4 107.4l.9 4 1-3.4 1.2.4-1.8 5.6-1-.4-1.1-4.2-1.1 3.5-1.2-.3 1.8-5.6" fill="#ffce46"/></g></g><g clip-path="url(#H)"><g clip-path="url(#I)"><path d="M165.5 114.7l2.5-5.3 1 .5-2.4 5.3zm0 0" fill="#ffce46"/></g></g><g clip-path="url(#J)"><g clip-path="url(#K)"><path d="M173.6 114.8c.2-.4.3-1-.5-1.5s-1.5-.1-2.2.9c-.6 1-.5 2 .1 2.3.7.4 1.4.1 1.6-.2l.9.5c-.7 1-2 1.2-3 .5-1.2-.7-1.4-2.2-.4-3.7.9-1.5 2.3-2 3.5-1.2 1.2.8 1.3 2.1.8 2.9" fill="#ffce46"/></g></g><g clip-path="url(#L)"><g clip-path="url(#M)"><path d="M190.7 137.2c.5-.5.7-1 .5-1.5-.3-.9-1.2-1.1-2.3-.8-1.2.4-1.7 1.2-1.4 2 .2.8.8 1 1.5.9l-.3-1.1.8-.3.7 2-2.8 1-.2-.7.6-.3c-.6-.1-1-.5-1.3-1.1-.5-1.3.4-2.8 2-3.4 1.7-.5 3 0 3.6 1.5.3 1.1 0 2.3-1.1 2.6" fill="#ffce46"/></g></g><g clip-path="url(#N)"><g clip-path="url(#O)"><path d="M189 143.3c.2.8.8 1 1.3.8l3.8-.6.2 1.1-3.8.6c-1 .2-2.1-.1-2.4-1.8-.2-1.6.7-2.2 1.7-2.4l3.8-.6.2 1.1-3.9.6c-.5.1-1 .4-.8 1.2" fill="#ffce46"/></g></g><g clip-path="url(#P)"><g clip-path="url(#Q)"><path d="M113.8 172l.4.7 1.7-1.9-2.5.6.4.6-.9.5-.5-.8-1.2.3-.5-1 6-1.4.6 1-4 4.7-.6-.9.9-1-.7-1" fill="#ffce46"/></g></g><g clip-path="url(#R)"><g clip-path="url(#S)"><path d="M116.2 179l2.6-3.7-3.3 3-.7-.8 4.3-4 1.2 1.3-2.7 3.8 4-2.3 1.1 1.2-4.3 4-.7-.8 3.3-3-4 2.2" fill="#ffce46"/></g></g><g clip-path="url(#T)"><g clip-path="url(#U)"><path d="M127 182.4l-2.3-1.8-.8 1 2 1.6-.6.9-2-1.6-1 1.2 2.2 1.8-.5.7-3.3-2.5 3.6-4.6 3.3 2.5" fill="#ffce46"/></g></g><g clip-path="url(#V)"><g clip-path="url(#W)"><path d="M129.1 185.6l1 .6c.3.1.7 0 1-.4.2-.4 0-.8-.3-1l-1.3-.8-.8 1.4.4.2-.4 1-.5-.3-1 2-1.1-.6 2.9-5.1 2.7 1.6c.7.4.8 1.3.4 2-.5.8-1.3 1-1.6.8.4.2.6.8.2 1.4l-.8 1.5-1-.6.7-1.2c.3-.6.1-1-.4-1.2l-.5-.3" fill="#ffce46"/></g></g><g clip-path="url(#X)"><g clip-path="url(#Y)"><path d="M132.2 190.9l2.2-5.4 1 .4-2.2 5.4zm0 0" fill="#ffce46"/></g></g><g clip-path="url(#Z)"><g clip-path="url(#aa)"><path d="M140.2 189.6c.1-.4 0-1-.9-1.3-.9-.2-1.5.4-1.8 1.5-.3 1.1 0 2 .8 2.2.7.2 1.3-.3 1.4-.7l1 .3c-.3 1.2-1.4 1.7-2.7 1.4-1.4-.4-2-1.8-1.5-3.5s1.7-2.6 3-2.2c1.5.4 2 1.7 1.7 2.6" fill="#ffce46"/></g></g><g clip-path="url(#ab)"><g clip-path="url(#ac)"><path d="M157.4 190.1c0-.3-.4-.9-1.3-.8-1 .2-1.2 1-1 2.1.1 1.2.8 1.9 1.6 1.7.7 0 1-.8 1-1.2l1-.2c.2 1.2-.6 2.2-2 2.4-1.3.2-2.4-.8-2.7-2.5-.3-1.8.5-3 2-3.3 1.3-.2 2.3.8 2.4 1.7" fill="#ffce46"/></g></g><g clip-path="url(#ad)"><g clip-path="url(#ae)"><path d="M163.8 187.4l-2.8.8.4 1.3 2.5-.8.3 1-2.5.8.5 1.5 2.7-.9.3 1-3.8 1.2-1.8-5.6 3.8-1.3" fill="#ffce46"/></g></g><g clip-path="url(#af)"><g clip-path="url(#ag)"><path d="M166.2 185.3l3.5 2.2-1.6-3.2 1-.5 2.7 5.2-1 .5-3.7-2.3 1.7 3.4-1 .5-2.7-5.2" fill="#ffce46"/></g></g><g clip-path="url(#ah)"><g clip-path="url(#ai)"><path d="M175.5 186.7l-2.9-4-1.3 1-.6-.8 3.6-2.6.6.8-1.4 1 2.9 4" fill="#ffce46"/></g></g><g clip-path="url(#aj)"><g clip-path="url(#ak)"><path d="M184.1 168.5l4.3 2.2 1.2-2.4 1 .5-1.8 3.4-5.2-2.7" fill="#ffce46"/></g></g><g clip-path="url(#al)"><g clip-path="url(#am)"><path d="M145.2 192.2h.8l-.5-2.4-1 2.3h.7l-.1 1h-1l-.5 1.1h-1l2.4-5.7h1.3l1.3 6.1-1.1-.1-.3-1.2-1.1-.1" fill="#ffce46"/></g></g><g clip-path="url(#an)"><g clip-path="url(#ao)"><path d="M184.3 175.1l.4-.6-2.3-.8 1.5 2 .4-.6.7.6-.5.8.7 1-.6.9-3.7-5 .8-1 5.8 2-.6.8-1.2-.4-.7 1" fill="#ffce46"/></g></g><g clip-path="url(#ap)"><g clip-path="url(#aq)"><path d="M178.5 180l.8-.9c.3-.2.3-.7 0-1a.7.7 0 00-1.1 0l-1 1 1 1.2.3-.3.8.6-.3.4 1.6 1.6-.9.8-4.1-4.1 2.3-2.3c.5-.5 1.5-.3 2 .3.6.6.6 1.4.4 1.7.2-.3.9-.3 1.4.2l1.1 1.1-.8.8-1-1c-.4-.4-.8-.3-1.2 0l-.5.5" fill="#ffce46"/></g></g><g clip-path="url(#ar)"><g clip-path="url(#as)"><path d="M190.9 149.9v.8l2.4-.7-2.4-.8v.7h-1v-1l-1.2-.4v-1l5.9 1.8v1.3l-5.9 1.9v-1.1l1.2-.4V150" fill="#ffce46"/></g></g><g clip-path="url(#at)"><g clip-path="url(#au)"><path d="M185.6 130l.4.7 1.7-1.8-2.4.6.3.5-.9.5-.4-.8-1.3.2-.5-1 6-1.2.7 1.2-4.3 4.4-.5-1 .9-.8-.6-1" fill="#ffce46"/></g></g><g clip-path="url(#av)"><g clip-path="url(#aw)"><path d="M177 119.5l.6.5 1-2.2-2.1 1.3.5.4-.7.7-.7-.6-1 .6-.9-.7 5.3-3.1 1 .8-2.5 5.6-.8-.7.5-1.1-.9-.8" fill="#ffce46"/></g></g><g clip-path="url(#ax)"><g clip-path="url(#ay)"><path d="M134.3 112.6l.7-.3-1.6-2 .2 2.6.7-.3.3 1-.9.3.1 1.2-1 .5-.5-6.2 1.2-.5 4 4.7-1 .5-.8-1-1.1.4" fill="#ffce46"/></g></g><g clip-path="url(#az)"><g clip-path="url(#aA)"><path d="M108.3 151.4v-1.1c0-.4-.4-.7-.8-.7-.5 0-.8.4-.8.8v1.5h1.6v-.5h1v.5h2.3v1.1h-5.9v-3.2c0-.8.8-1.3 1.7-1.3.8 0 1.4.7 1.4 1 0-.4.4-.8 1.1-.8h1.7v1h-1.4c-.7 0-.9.4-.9 1v.6" fill="#ffce46"/></g></g><g clip-path="url(#aB)"><g clip-path="url(#aC)"><path d="M182.3 123.2l.7 1c.2.2.7.3 1 0 .4-.3.4-.8.2-1.1l-1-1.2-1.2 1 .3.3-.8.8-.3-.4-1.8 1.4-.7-1 4.6-3.6 2 2.5c.5.6.1 1.5-.5 2-.7.6-1.5.4-1.7.2.2.3.2.9-.4 1.3l-1.3 1-.7-.8 1-.9c.6-.4.6-.8.2-1.2l-.4-.5" fill="#ffce46"/></g></g><g clip-path="url(#aD)"><g clip-path="url(#aE)"><path d="M110.2 162a1 1 0 100-2 1 1 0 000 2" fill="#ffce46"/></g></g><g clip-path="url(#aF)"><g clip-path="url(#aG)"><path d="M189.8 162a1 1 0 010-2c.6 0 1 .5 1 1 0 .6-.4 1-1 1" fill="#ffce46"/></g></g><g clip-path="url(#aH)"><g clip-path="url(#aI)"><path d="M137.3 139.5l-1.1 1.9 9 1.8a7.5 7.5 0 010-.6" fill="#b3d2ed"/></g></g><g clip-path="url(#aJ)"><g clip-path="url(#aK)"><path d="M140.3 134.5l-1 1.6 6.7 3.1.2-.4" fill="#b3d2ed"/></g></g><g clip-path="url(#aL)"><g clip-path="url(#aM)"><path d="M139 136.8l-1 1.6 7.3 2.8.2-.5" fill="#b3d2ed"/></g></g><g clip-path="url(#aN)"><g clip-path="url(#aO)"><path d="M153.8 146l10.4 7.4 4.2-.2-14.3-7.7-.3.6" fill="#b3d2ed"/></g></g><g clip-path="url(#aP)"><g clip-path="url(#aQ)"><path d="M149.6 148.5l-.5 5h1v-5h-.1a4 4 0 01-.4 0" fill="#b3d2ed"/></g></g><g clip-path="url(#aR)"><g clip-path="url(#aS)"><path d="M150.3 136.4l1.2-15.7-1.5-2.6-.6 1.1.5 17.2h.4" fill="#b3d2ed"/></g></g><g clip-path="url(#aT)"><g clip-path="url(#aU)"><path d="M169.5 151l-2.3-4-12.7-2.7-.2.8" fill="#b3d2ed"/></g></g><g clip-path="url(#aV)"><g clip-path="url(#aW)"><path d="M165.4 144.1l-1.4-2.3-9.3 1.3a8 8 0 010 .8" fill="#b3d2ed"/></g></g><g clip-path="url(#aX)"><g clip-path="url(#aY)"><path d="M163.3 140.5l-1-1.7-7.6 2.8v.7" fill="#b3d2ed"/></g></g><g clip-path="url(#aZ)"><g clip-path="url(#ba)"><path d="M161.3 137.2l-.7-1.2-6.2 4.2.2.6" fill="#b3d2ed"/></g></g><g clip-path="url(#bb)"><g clip-path="url(#bc)"><path d="M160 134.9l-1-1.6-5.1 5.7.3.5" fill="#b3d2ed"/></g></g><g clip-path="url(#bd)"><g clip-path="url(#be)"><path d="M158.7 132.7l-.6-1-4.9 6.3.4.4" fill="#b3d2ed"/></g></g><g clip-path="url(#bf)"><g clip-path="url(#bg)"><path d="M157.5 130.8l-.6-1-4.5 7.4.3.3" fill="#b3d2ed"/></g></g><g clip-path="url(#bh)"><g clip-path="url(#bi)"><path d="M156.2 128.5l-.9-1.5-3.6 9.8.4.2" fill="#b3d2ed"/></g></g><g clip-path="url(#bj)"><g clip-path="url(#bk)"><path d="M154.2 125.2l-1.2-2-2.3 13.2.4.1" fill="#b3d2ed"/></g></g><g clip-path="url(#bl)"><g clip-path="url(#bm)"><path d="M147.8 121.8l-1.3 2.1 2.6 12.6.4-.1" fill="#b3d2ed"/></g></g><g clip-path="url(#bn)"><g clip-path="url(#bo)"><path d="M145.5 125.7l-1 1.6 3.8 9.5.2-.2" fill="#b3d2ed"/></g></g><g clip-path="url(#bp)"><g clip-path="url(#bq)"><path d="M143.7 128.7l-.7 1.2 4.6 7.3.3-.2" fill="#b3d2ed"/></g></g><g clip-path="url(#br)"><g clip-path="url(#bs)"><path d="M142.2 131.2l-1.2 2 5.8 4.7.3-.3" fill="#b3d2ed"/></g></g><g clip-path="url(#bt)"><g clip-path="url(#bu)"><path d="M134.4 144.2l-1.6 2.8 12.7-2.4a7.3 7.3 0 010-.5" fill="#b3d2ed"/></g></g><g clip-path="url(#bv)"><g clip-path="url(#bw)"><path d="M130.8 150.5l-1.8 3 16.8-8.1-.1-.4" fill="#b3d2ed"/></g></g><g clip-path="url(#bx)"><g clip-path="url(#by)"><path d="M137.8 151.4l.7 1.1 7.8-6.3a6.4 6.4 0 01-.2-.3" fill="#b3d2ed"/></g></g><g clip-path="url(#bz)"><g clip-path="url(#bA)"><path d="M139.1 153.5h1.8l6-6.5a9.1 9.1 0 01-.3-.3" fill="#b3d2ed"/></g></g><g clip-path="url(#bB)"><g clip-path="url(#bC)"><path d="M144.7 151l1.4-.1 1.5-3.2a5.9 5.9 0 01-.3-.3" fill="#b3d2ed"/></g></g><g clip-path="url(#bD)"><g clip-path="url(#bE)"><path d="M147 151.5l.6 1.4 1.2-4.6a4.1 4.1 0 01-.5-.2" fill="#b3d2ed"/></g></g><g clip-path="url(#bF)"><g clip-path="url(#bG)"><path d="M151.2 153.5h1.3l-1.5-5.1a3.5 3.5 0 01-.4 0" fill="#b3d2ed"/></g></g><g clip-path="url(#bH)"><g clip-path="url(#bI)"><path d="M153.9 153.5h1.6l-3.7-5.4a5.5 5.5 0 01-.4.2" fill="#b3d2ed"/></g></g><g clip-path="url(#bJ)"><g clip-path="url(#bK)"><path d="M156.6 153.5h2.3l-6.2-6-.3.2" fill="#b3d2ed"/></g></g><g clip-path="url(#bL)"><g clip-path="url(#bM)"><path d="M159.8 153.5h2.5l-8.8-7-.4.6" fill="#b3d2ed"/></g></g><g clip-path="url(#bN)"><g clip-path="url(#bO)"><path d="M167.4 147.4a17.8 17.8 0 01.2 6h.4a18.5 18.5 0 000-5" fill="#4e2e90"/></g></g><g clip-path="url(#bP)"><g clip-path="url(#bQ)"><path d="M161 136.8a18 18 0 00-11-3.8 18 18 0 00-11 3.8l-.6.9a17.7 17.7 0 0111.6-4.3c4.4 0 8.5 1.6 11.6 4.3" fill="#4e2e90"/></g></g><g clip-path="url(#bR)"><g clip-path="url(#bS)"><path d="M132.6 147.4l-.5 1a18.4 18.4 0 000 5.4h.3a18 18 0 01.2-6.4" fill="#4e2e90"/></g></g><g clip-path="url(#bT)"><g clip-path="url(#bU)"><path d="M168 148.3a18.5 18.5 0 010 5.1h.4a18.7 18.7 0 000-4.3" fill="#003876"/></g></g><g clip-path="url(#bV)"><g clip-path="url(#bW)"><path d="M160.6 136a18.4 18.4 0 00-10.6-3.3c-4 0-7.6 1.2-10.6 3.3l-.5.8A18 18 0 01150 133c4.2 0 8 1.4 11 3.8" fill="#003876"/></g></g><g clip-path="url(#bX)"><g clip-path="url(#bY)"><path d="M132 148.3l-.4.8a18.6 18.6 0 000 4.7h.4a18.3 18.3 0 010-5.5" fill="#003876"/></g></g><g clip-path="url(#bZ)"><g clip-path="url(#ca)"><path d="M168.4 149.1a18.8 18.8 0 010 4.3h.3a19.6 19.6 0 00.1-3.6" fill="#009bdb"/></g></g><g clip-path="url(#cb)"><g clip-path="url(#cc)"><path d="M160.2 135.3a18.8 18.8 0 00-10.2-3 18.8 18.8 0 00-10.2 3l-.4.7a18.4 18.4 0 0110.6-3.3c4 0 7.6 1.2 10.6 3.3" fill="#009bdb"/></g></g><g clip-path="url(#cd)"><g clip-path="url(#ce)"><path d="M131.6 149.1l-.4.7a19 19 0 00.1 4h.4a18.6 18.6 0 01-.1-4.7" fill="#009bdb"/></g></g><g clip-path="url(#cf)"><g clip-path="url(#cg)"><path d="M168.8 149.8a18.6 18.6 0 010 3.6h.3a19.4 19.4 0 00.1-2.9" fill="#00ac8d"/></g></g><g clip-path="url(#ch)"><g clip-path="url(#ci)"><path d="M159.8 134.6a19.1 19.1 0 00-9.8-2.7c-3.6 0-7 1-9.8 2.7l-.4.7a18.8 18.8 0 0110.2-3c3.8 0 7.2 1.1 10.2 3" fill="#00ac8d"/></g></g><g clip-path="url(#cj)"><g clip-path="url(#ck)"><path d="M131.2 149.8l-.4.7a19.2 19.2 0 00.1 3.3h.4a19 19 0 01-.1-4" fill="#00ac8d"/></g></g><g clip-path="url(#cl)"><g clip-path="url(#cm)"><path d="M169.2 150.5a18.7 18.7 0 01-.1 3h.4v-2.3" fill="#fff000"/></g></g><g clip-path="url(#cn)"><g clip-path="url(#co)"><path d="M159.4 134a19.5 19.5 0 00-9.4-2.4c-3.4 0-6.6.9-9.4 2.4l-.4.6a19.1 19.1 0 019.8-2.7c3.6 0 7 1 9.8 2.7" fill="#fff000"/></g></g><g clip-path="url(#cp)"><g clip-path="url(#cq)"><path d="M130.8 150.5l-.4.6c0 1 0 1.8.2 2.7h.3a19.2 19.2 0 01-.1-3.3" fill="#fff000"/></g></g><g clip-path="url(#cr)"><g clip-path="url(#cs)"><path d="M169.6 151.1l-.1 2.3h.3a19 19 0 00.1-1.7" fill="#f8aa52"/></g></g><g clip-path="url(#ct)"><g clip-path="url(#cu)"><path d="M159 133.4a19.8 19.8 0 00-9-2.2c-3.3 0-6.3.8-9 2.2l-.4.6a19.5 19.5 0 019.4-2.4c3.4 0 6.6.9 9.4 2.4" fill="#f8aa52"/></g></g><g clip-path="url(#cv)"><g clip-path="url(#cw)"><path d="M130.4 151.1l-.3.6.1 2h.4a19.6 19.6 0 01-.2-2.5" fill="#f8aa52"/></g></g><g clip-path="url(#cx)"><g clip-path="url(#cy)"><path d="M170 151.7a19 19 0 01-.2 1.7h.4v-1.1" fill="#eb1c2d"/></g></g><g clip-path="url(#cz)"><g clip-path="url(#cA)"><path d="M158.7 132.8a20.2 20.2 0 00-8.7-2c-3.1 0-6 .8-8.7 2l-.4.6a19.8 19.8 0 019.1-2.2c3.3 0 6.3.8 9 2.2" fill="#eb1c2d"/></g></g><g clip-path="url(#cB)"><g clip-path="url(#cC)"><path d="M129.7 152.3l.2 1.5h.3l-.1-2" fill="#eb1c2d"/></g></g><g clip-path="url(#cD)"><g clip-path="url(#cE)"><path d="M139.8 154.7h2c.3 0 .6.3 0 .3H140" fill="#003876"/></g></g><g clip-path="url(#cF)"><g clip-path="url(#cG)"><path d="M140.5 155.6h1c.2 0 .3.1 0 .2l-.9.1" fill="#003876"/></g></g><g clip-path="url(#cH)"><g clip-path="url(#cI)"><path d="M148.5 154.6h2.1v.2c-.6 0-1.7.2-2 .1" fill="#003876"/></g></g><g clip-path="url(#cJ)"><g clip-path="url(#cK)"><path d="M156.5 154.2h1.5v.3h-1.4" fill="#003876"/></g></g><g clip-path="url(#cL)"><g clip-path="url(#cM)"><path d="M161.8 154.3h1.8v.3H162" fill="#003876"/></g></g><g clip-path="url(#cN)"><g clip-path="url(#cO)"><path d="M172.6 156.3l-1.8.1c-.3 0-.4.4 0 .3l2-.1" fill="#003876"/></g></g><g clip-path="url(#cP)"><g clip-path="url(#cQ)"><path d="M127.2 156.5c.6 0 2 .1 2.8.3l.8-.4-3.3-.3" fill="#003876"/></g></g><g clip-path="url(#cR)"><g clip-path="url(#cS)"><path d="M127.9 155.4l-.2.4c1-.3 2.8-.2 3.7 0l.4-.3c-.8-.3-3-.2-4 0" fill="#003876"/></g></g><g clip-path="url(#cT)"><g clip-path="url(#cU)"><path d="M128.4 154.5l-.3.6c1.2-.3 3.4-.5 4.5-.3l.3-.3c-1.2-.4-3.5-.1-4.5 0" fill="#003876"/></g></g><g clip-path="url(#cV)"><g clip-path="url(#cW)"><path d="M134.1 164.5c-.2 0 0-.2.4-.3 1.3-.6 3-.3 3.9-.1.8.1.7.3.4.4a92.6 92.6 0 002.7 0c-.6 0-1.3-.2-2.6-.6a9.8 9.8 0 00-5 0 5 5 0 01-2.3.2c.8.2 1.7.4 2.5.4" fill="#003876"/></g></g><g clip-path="url(#cX)"><g clip-path="url(#cY)"><path d="M170.8 153.1l-6.3.3H155l-11.4.2-14.7-.1-.3.5h18.4l7.2-.1a213 213 0 0016.7-.3" fill="#003876"/></g></g><g clip-path="url(#cZ)"><g clip-path="url(#da)"><path d="M171.3 154l-3 .1c-.4 0-.7.3 0 .3h3.2" fill="#003876"/></g></g><g clip-path="url(#db)"><g clip-path="url(#dc)"><path d="M171.7 154.7l-2.8.2c-.3 0-.4.4 0 .3l3-.1" fill="#003876"/></g></g><g clip-path="url(#dd)"><g clip-path="url(#de)"><path d="M172.2 155.6l-2.3.2c-.3 0-.6.3 0 .3l2.5-.2" fill="#003876"/></g></g><g clip-path="url(#df)"><g clip-path="url(#dg)"><path d="M175.9 161.7c-.8 0-1.8-.1-2.2-.3-.5-.1-.9-.2-.2.2.5.3 1.9.5 2.6.5" fill="#003876"/></g></g><g clip-path="url(#dh)"><g clip-path="url(#di)"><path d="M176.4 162.6c-.8 0-2.5-.2-3.8-.8-1.3-.6-3.1-.4-4.7-.2a16 16 0 01-6.6-.4c-2.4-.5-5.6-.5-6.7 0-1 .4-.8.6.3.4a15 15 0 016.2 0c2.3.7 4.5.8 6 .7l3.1-.3c.6 0 .5.3 0 .3-4.3.6-6 .7-8.5 0s-4.8-.4-6.4-.2c-1.7.2-3.3.1-4.8-.5-1.6-.6-2.8-.8-3.7-.4-.3 0-.4.2.1.2.6-.1 2.1-.1 3.5.5 1.3.6 3.4.8 5.2.5 1.8-.2 4-.5 6 .3s4.2.6 6.2.3 3.3-.6 4.9-.2c1.4.3 3.2.4 4 .3" fill="#003876"/></g></g><g clip-path="url(#dj)"><g clip-path="url(#dk)"><path d="M177 163.5c-1 .2-3.2 0-4.2-.2-1-.3-2.8 0-5.3.4-2.5.5-5.2-.3-6.7-.6a14 14 0 00-4.4-.3c-1.3.2-3.3.4-6.2-.4-3.5-1-5.4-.6-6.3-.3-.9.2-2.8.2-4.8-.3a10 10 0 00-5.1-.1c-1.2.3-3.1.6-4.8 0a15 15 0 00-4.9-.3l-.2.4c1-.2 3.5-.2 5 .3a9 9 0 005 .2 7 7 0 014.9 0c1.3.5 3.6.5 5.2.1 2.5-.6 4-.2 6 .4 2 .7 4.9.8 6.4.7 1.5-.1 2.8-.5 4.7 0 1.9.7 4.4 1 6.5.5 2.2-.5 4.1-.5 5.1-.4 1 .2 2.7.5 4.2.2" fill="#003876"/></g></g><g clip-path="url(#dl)"><g clip-path="url(#dm)"><path d="M177.4 164.2c-.7.1-2.2.2-3.6 0-2.4-.4-4-.2-5.6.2-2.3.5-3.6.3-5.5 0-1.9-.5-3.6-.6-5.7-.4a24 24 0 01-7.5-.8c-2.4-.6-4.4-.4-6.1 0-1.8.5-4.5 0-5.4-.4-.8-.4-2-.4-3.8 0-1.7.3-3.3.2-5-.3a14 14 0 00-5.3-.3l-.2.2c1.1 0 4-.2 5.5.4 1.9.7 4 .5 5 .3 1.1-.2 3-.3 3.8.1 1.8.9 4.6.7 5.6.4 2.2-.6 4-.6 5.9 0 1.9.6 5.4 1 7.6.6 1.5-.2 3.8 0 5.6.4 1.8.5 3.6.6 5.7 0 2-.5 4.3-.3 5.5-.2 1.2.2 2.1.4 3.7.2" fill="#003876"/></g></g><g clip-path="url(#dn)"><g clip-path="url(#do)"><path d="M177.9 165c-.7.2-3 .2-4 0-1.2 0-2.9-.3-4.8.3-2 .5-4.7.4-6.3 0-1.5-.6-3.5-.8-5.3-.5-1.8.2-4.2.4-7-.4a10 10 0 00-6.7-.2c-1.2.4-7.1.3-8.8.4-1.7 0-3.8-.6-5-1.1-1.3-.5-4.4-.7-6.7-.5l-.2.5c2.1-.5 4.9 0 6 .5-1.4-.3-4.7-.1-6.4.2l-.4.6c2.8-.6 6.9-.4 8.4 0 1.7.3 4.4.6 6.2.1 1.7-.4 4.5.1 6.2.8h7.8c-1.2-.7-2.7-.3-3.7-.2-1.1 0-2.2-.2-2.7-.5-.6-.3 0-.3.9-.6 2.5-.7 4.6.2 6 1.3h6.2c1.6-1.1 3.1-.6 4-.3l1.2.3h6.5c1.5-.6 3.6-.4 4.6-.3 1 .2 2.3.3 4.2 0" fill="#003876"/></g></g><g clip-path="url(#dp)"><g clip-path="url(#dq)"><path d="M173.4 157.6c-4 0-5.6-2.4-7-4.8h-2.6l-1 2.6c-.8-.5-1.7-2.3-2.2-3.4h-2l-1.3 3c-.6-.6-2.2-2.8-2.7-3.7l-2.6.1c-.5 1.3-1.3 3.3-2.5 4.4-.8-.8-2.4-3.7-2.9-5l-2.1.2c-.6 1-2 4.1-3 5.8-1.5-1.6-3.3-4.7-4.6-6.9l-1.8.2c-2.2 6.3-6.1 7.1-8.5 7.4l-1.7 3c.9 0 2.4.1 3.5.5 1.3.4 3.7.7 5.5 0 1.8-.7 3.8-.5 5.7-.2 1.9.4 5 .6 7.9-.7 3.6 1.7 5.8.8 7.6.4a13 13 0 016 0c2.5.7 5.7.7 8 .1 2.8-.8 4.5.7 6.6.8" fill="#00ac8d"/></g></g><g clip-path="url(#dr)"><g clip-path="url(#ds)"><path d="M135.1 150c.2 3.4 2 7 6.9 11h1a50.3 50.3 0 01-5-5.8 5.4 5.4 0 01-.2-.7c2.7 3 4.6 5.3 7.1 6.4a10 10 0 001.5-.4c-4.2-2.2-6.4-5.3-9.5-10.6l-1.8.2" fill="#ffdf1b"/></g></g><g clip-path="url(#dt)"><g clip-path="url(#du)"><path d="M152.8 151.4c-.7 2.1-1.5 4.2-2.7 5.2l.7.8 1.4-1.4c.3.1.4.8-.4 2.2 1 .7 2.9 1.7 4.2 2.1l-3 .7c-2.4-1.8-4.3-3-6.1-6-.3 1.1-.1 1.7.7 2.6.8.9 2 2.2 4.2 3.5-1.3 0-2.7-.3-4.3-1-1-1.5-2.7-5-3-9l2.1-.3c.7 1.5 2 4 3 5 .7-.8 1.8-2.6 2.4-4.4h.8" fill="#ffdf1b"/></g></g><g clip-path="url(#dv)"><g clip-path="url(#dw)"><path d="M159.3 152c-.2 1.1-1 2.8-1.5 3.7l-.5-.6 1.4-3.1h.6" fill="#ffdf1b"/></g></g><g clip-path="url(#dx)"><g clip-path="url(#dy)"><path d="M158 156.4l.7.5c.5-.7.6-1.2.5-2.2-.5.4-.6 1.3-1.2 1.7" fill="#ffdf1b"/></g></g><g clip-path="url(#dz)"><g clip-path="url(#dA)"><path d="M162.9 155.4l.6.5 1-3h-.7l-.9 2.5" fill="#ffdf1b"/></g></g></svg>