<svg xmlns="http://www.w3.org/2000/svg" width="400" height="400" viewBox="0 0 300 300"><defs><clipPath id="a"><path d="M150 0a150 150 0 100 300 150 150 0 000-300zm0 0"/></clipPath><clipPath id="b"><path d="M0 0h250v150H0zm0 0"/></clipPath><clipPath id="c"><path d="M150 0a150 150 0 100 300 150 150 0 000-300zm0 0"/></clipPath><clipPath id="d"><path d="M126 0h124v51H126zm0 0"/></clipPath><clipPath id="e"><path d="M150 0a150 150 0 100 300 150 150 0 000-300zm0 0"/></clipPath><clipPath id="f"><path d="M149 99h101v51H149zm0 0"/></clipPath><clipPath id="g"><path d="M150 0a150 150 0 100 300 150 150 0 000-300zm0 0"/></clipPath><clipPath id="h"><path d="M0 0h51v51H0zm0 0"/></clipPath><clipPath id="i"><path d="M150 0a150 150 0 100 300 150 150 0 000-300zm0 0"/></clipPath><clipPath id="j"><path d="M0 99h74v51H0zm0 0"/></clipPath><clipPath id="k"><path d="M150 0a150 150 0 100 300 150 150 0 000-300zm0 0"/></clipPath><clipPath id="l"><path d="M0 0h250v150H0zm0 0"/></clipPath><clipPath id="m"><path d="M150 0a150 150 0 100 300 150 150 0 000-300zm0 0"/></clipPath><clipPath id="n"><path d="M74 49h52v52H74zm0 0"/></clipPath><clipPath id="o"><path d="M150 0a150 150 0 100 300 150 150 0 000-300zm0 0"/></clipPath><clipPath id="p"><path d="M1 65h22v20H1zm0 0"/></clipPath><clipPath id="q"><path d="M150 0a150 150 0 100 300 150 150 0 000-300zm0 0"/></clipPath><clipPath id="r"><path d="M89 14h22v21H89zm0 0"/></clipPath><clipPath id="s"><path d="M150 0a150 150 0 100 300 150 150 0 000-300zm0 0"/></clipPath><clipPath id="t"><path d="M89 114h22v21H89zm0 0"/></clipPath><clipPath id="u"><path d="M150 0a150 150 0 100 300 150 150 0 000-300zm0 0"/></clipPath><clipPath id="v"><path d="M78 52h44v42H78zm0 0"/></clipPath><clipPath id="w"><path d="M150 0a150 150 0 100 300 150 150 0 000-300zm0 0"/></clipPath><clipPath id="x"><path d="M176 65h22v20h-22zm0 0"/></clipPath><clipPath id="y"><path d="M150 0a150 150 0 100 300 150 150 0 000-300zm0 0"/></clipPath></defs><g clip-path="url(#a)"><path fill="#fff000" d="M0 0h300v300H0z"/></g><g clip-path="url(#b)"><g clip-path="url(#c)"><path d="M-50 150h299.8V0H-50zm0 0" fill="#005a9a"/><path d="M-50 50h63.3L-50 18.2V0h36.2l88.5 44.1V0h49.9v44.1L213 0h36.7v18.2L186 50h63.8v50H186l63.8 31.7V150h-36.7l-88.5-44.1v44H74.7v-44l-88.5 44H-50v-18.2L13.3 100H-50" fill="#fff"/></g></g><g clip-path="url(#d)"><g clip-path="url(#e)"><path d="M226 0L126 50h24l99.8-50zm0 0" fill="#eb1c2d"/></g></g><g clip-path="url(#f)"><g clip-path="url(#g)"><path d="M249.8 150l-100-50H174l75.9 38zm0 0" fill="#eb1c2d"/></g></g><g clip-path="url(#h)"><g clip-path="url(#i)"><path d="M50.2 50L-50 0v12l76 38zm0 0" fill="#eb1c2d"/></g></g><g clip-path="url(#j)"><g clip-path="url(#k)"><path d="M50 100l-100 50h24l100-50zm0 0" fill="#eb1c2d"/></g></g><g clip-path="url(#l)"><g clip-path="url(#m)"><path d="M-50 60.4H85.3V0h29.3v60.4h135.2v29.2H114.6V150H85.3V89.6H-50" fill="#eb1c2d"/></g></g><g clip-path="url(#n)"><g clip-path="url(#o)"><path d="M100 100a25.2 25.2 0 100-50.3 25.2 25.2 0 000 50.4" fill="#005a9a"/></g></g><g clip-path="url(#p)"><g clip-path="url(#q)"><path d="M12.5 65L10 72.6H2l6.5 4.7L6 85l6.5-4.7 6.4 4.7-2.5-7.6 6.5-4.7h-8" fill="#fff000"/></g></g><g clip-path="url(#r)"><g clip-path="url(#s)"><path d="M100 14.5l2.4 7.6h8l-6.5 4.7 2.5 7.6-6.4-4.7-6.5 4.7 2.5-7.7-6.5-4.6h8" fill="#fff000"/></g></g><g clip-path="url(#t)"><g clip-path="url(#u)"><path d="M100 114.6l2.4 7.6h8L104 127l2.5 7.6-6.4-4.7-6.5 4.7L96 127l-6.5-4.6h8" fill="#fff000"/></g></g><g clip-path="url(#v)"><g clip-path="url(#w)"><path d="M100 52.2L95 68H78.2l13.5 9.7-5.2 15.7 13.4-9.7 13.3 9.7-5.1-15.8 13.4-9.5H105" fill="#fff000"/></g></g><g clip-path="url(#x)"><g clip-path="url(#y)"><path d="M187.5 65l2.4 7.6h8l-6.5 4.7 2.5 7.6-6.4-4.7-6.5 4.7 2.5-7.6-6.5-4.7h8" fill="#fff000"/></g></g></svg>