<svg xmlns="http://www.w3.org/2000/svg" width="400" height="400" viewBox="0 0 300 300"><defs><clipPath id="a"><path d="M150 0a150 150 0 100 300 150 150 0 000-300zm0 0"/></clipPath><clipPath id="b"><path d="M0 50h300v200H0zm0 0"/></clipPath><clipPath id="c"><path d="M150 0a150 150 0 100 300 150 150 0 000-300zm0 0"/></clipPath><clipPath id="d"><path d="M0 58h300v184H0zm0 0"/></clipPath><clipPath id="e"><path d="M150 0a150 150 0 100 300 150 150 0 000-300zm0 0"/></clipPath><clipPath id="f"><path d="M33 83h134v134H33zm0 0"/></clipPath><clipPath id="g"><path d="M150 0a150 150 0 100 300 150 150 0 000-300zm0 0"/></clipPath><clipPath id="h"><path d="M38 85h124v118H38zm0 0"/></clipPath><clipPath id="i"><path d="M150 0a150 150 0 100 300 150 150 0 000-300zm0 0"/></clipPath></defs><g clip-path="url(#a)"><path fill="#024fa1" d="M0 0h300v300H0z"/></g><g clip-path="url(#b)"><g clip-path="url(#c)"><path d="M-100 250h600V50h-600zm0 0" fill="#fff"/></g></g><g clip-path="url(#d)"><g clip-path="url(#e)"><path d="M-100 241.7h600V58.3h-600zm0 0" fill="#ec1c27"/></g></g><g clip-path="url(#f)"><g clip-path="url(#g)"><path d="M100 83.3a66.7 66.7 0 110 133.4 66.7 66.7 0 010-133.4" fill="#fff"/></g></g><g clip-path="url(#h)"><g clip-path="url(#i)"><path d="M38.6 130l38 27.6L62 202.3l38-27.6 38 27.6-14.5-44.7 38-27.6h-47L100 85.4 85.5 130" fill="#ec1c27"/></g></g></svg>