<svg xmlns="http://www.w3.org/2000/svg" width="400" height="400" viewBox="0 0 300 300"><defs><clipPath id="a"><path d="M150 0a150 150 0 100 300 150 150 0 000-300zm0 0"/></clipPath><clipPath id="b"><path d="M67 0h233v300H67zm0 0"/></clipPath><clipPath id="c"><path d="M150 0a150 150 0 100 300 150 150 0 000-300zm0 0"/></clipPath><clipPath id="d"><path d="M146 60h154v180H146zm0 0"/></clipPath><clipPath id="e"><path d="M150 0a150 150 0 100 300 150 150 0 000-300zm0 0"/></clipPath><clipPath id="f"><path d="M176 47h124v166H176zm0 0"/></clipPath><clipPath id="g"><path d="M150 0a150 150 0 100 300 150 150 0 000-300zm0 0"/></clipPath><clipPath id="h"><path d="M251 82h49v58h-49zm0 0"/></clipPath><clipPath id="i"><path d="M150 0a150 150 0 100 300 150 150 0 000-300zm0 0"/></clipPath></defs><g clip-path="url(#a)"><path fill="#fff" d="M0 0h300v300H0z"/></g><g clip-path="url(#b)"><g clip-path="url(#c)"><path d="M67.5 300H405V0H67.5zm0 0" fill="#01411c"/></g></g><g clip-path="url(#d)"><g clip-path="url(#e)"><path d="M236.3 60a90 90 0 110 180 90 90 0 010-180" fill="#fff"/></g></g><g clip-path="url(#f)"><g clip-path="url(#g)"><path d="M204.4 67.9a82.5 82.5 0 11109.7 123.3A82.5 82.5 0 01204.4 67.9" fill="#01411c"/></g></g><g clip-path="url(#h)"><g clip-path="url(#i)"><path d="M269 82.7l38 42.6-55.8-12.2 52.3-22.9-28.8 49.2" fill="#fff"/></g></g></svg>