<svg xmlns="http://www.w3.org/2000/svg" width="400" height="400" viewBox="0 0 300 300"><defs><clipPath id="a"><path d="M150 0a150 150 0 100 300 150 150 0 000-300zm0 0"/></clipPath><clipPath id="b"><path d="M0 150h150v150H0zm0 0"/></clipPath><clipPath id="c"><path d="M150 0a150 150 0 100 300 150 150 0 000-300zm0 0"/></clipPath><clipPath id="d"><path d="M150 0h150v150H150zm0 0"/></clipPath><clipPath id="e"><path d="M150 0a150 150 0 100 300 150 150 0 000-300zm0 0"/></clipPath><clipPath id="f"><path d="M31 47h73v69H31zm0 0"/></clipPath><clipPath id="g"><path d="M150 0a150 150 0 100 300 150 150 0 000-300zm0 0"/></clipPath><clipPath id="h"><path d="M196 177h73v69h-73zm0 0"/></clipPath><clipPath id="i"><path d="M150 0a150 150 0 100 300 150 150 0 000-300zm0 0"/></clipPath></defs><g clip-path="url(#a)"><path fill="#fff" d="M0 0h300v300H0z"/></g><g clip-path="url(#b)"><g clip-path="url(#c)"><path d="M-75 300h225V150H-75zm0 0" fill="#005292"/></g></g><g clip-path="url(#d)"><g clip-path="url(#e)"><path d="M150 150h225V0H150zm0 0" fill="#d21034"/></g></g><g clip-path="url(#f)"><g clip-path="url(#g)"><path d="M31.8 73.4l22 16-8.3 26 22-16 22 16-8.4-26 22-16H76l-8.4-25.9-8.4 26" fill="#005292"/></g></g><g clip-path="url(#h)"><g clip-path="url(#i)"><path d="M196.8 203.4l22 16-8.3 26 22-16 22 16-8.4-26 22-16H241l-8.4-25.9-8.4 26" fill="#d21034"/></g></g></svg>