<svg xmlns="http://www.w3.org/2000/svg" width="400" height="400" viewBox="0 0 300 300"><defs><clipPath id="a"><path d="M150 0a150 150 0 100 300 150 150 0 000-300zm0 0"/></clipPath><clipPath id="b"><path d="M0 150h300v150H0zm0 0"/></clipPath><clipPath id="c"><path d="M150 0a150 150 0 100 300 150 150 0 000-300zm0 0"/></clipPath><clipPath id="d"><path d="M0 0h260v300H0zm0 0"/></clipPath><clipPath id="e"><path d="M150 0a150 150 0 100 300 150 150 0 000-300zm0 0"/></clipPath><clipPath id="f"><path d="M63 120h61v60H63zm0 0"/></clipPath><clipPath id="g"><path d="M150 0a150 150 0 100 300 150 150 0 000-300zm0 0"/></clipPath><clipPath id="h"><path d="M30 146h64v8H30zm0 0"/></clipPath><clipPath id="i"><path d="M150 0a150 150 0 100 300 150 150 0 000-300zm0 0"/></clipPath><clipPath id="j"><path d="M36 150h58v11H36zm0 0"/></clipPath><clipPath id="k"><path d="M150 0a150 150 0 100 300 150 150 0 000-300zm0 0"/></clipPath><clipPath id="l"><path d="M36 139h58v11H36zm0 0"/></clipPath><clipPath id="m"><path d="M150 0a150 150 0 100 300 150 150 0 000-300zm0 0"/></clipPath><clipPath id="n"><path d="M48 105h46v45H48zm0 0"/></clipPath><clipPath id="o"><path d="M150 0a150 150 0 100 300 150 150 0 000-300zm0 0"/></clipPath><clipPath id="p"><path d="M47 115h47v35H47zm0 0"/></clipPath><clipPath id="q"><path d="M150 0a150 150 0 100 300 150 150 0 000-300zm0 0"/></clipPath><clipPath id="r"><path d="M58 104h36v46H58zm0 0"/></clipPath><clipPath id="s"><path d="M150 0a150 150 0 100 300 150 150 0 000-300zm0 0"/></clipPath><clipPath id="t"><path d="M89 86h9v64h-9zm0 0"/></clipPath><clipPath id="u"><path d="M150 0a150 150 0 100 300 150 150 0 000-300zm0 0"/></clipPath><clipPath id="v"><path d="M82 93h12v57H82zm0 0"/></clipPath><clipPath id="w"><path d="M150 0a150 150 0 100 300 150 150 0 000-300zm0 0"/></clipPath><clipPath id="x"><path d="M93 93h11v57H93zm0 0"/></clipPath><clipPath id="y"><path d="M150 0a150 150 0 100 300 150 150 0 000-300zm0 0"/></clipPath><clipPath id="z"><path d="M93 105h46v45H93zm0 0"/></clipPath><clipPath id="A"><path d="M150 0a150 150 0 100 300 150 150 0 000-300zm0 0"/></clipPath><clipPath id="B"><path d="M93 104h36v46H93zm0 0"/></clipPath><clipPath id="C"><path d="M150 0a150 150 0 100 300 150 150 0 000-300zm0 0"/></clipPath><clipPath id="D"><path d="M93 115h46v35H93zm0 0"/></clipPath><clipPath id="E"><path d="M150 0a150 150 0 100 300 150 150 0 000-300zm0 0"/></clipPath><clipPath id="F"><path d="M93 146h64v8H93zm0 0"/></clipPath><clipPath id="G"><path d="M150 0a150 150 0 100 300 150 150 0 000-300zm0 0"/></clipPath><clipPath id="H"><path d="M93 139h57v11H93zm0 0"/></clipPath><clipPath id="I"><path d="M150 0a150 150 0 100 300 150 150 0 000-300zm0 0"/></clipPath><clipPath id="J"><path d="M93 150h57v11H93zm0 0"/></clipPath><clipPath id="K"><path d="M150 0a150 150 0 100 300 150 150 0 000-300zm0 0"/></clipPath><clipPath id="L"><path d="M93 150h46v45H93zm0 0"/></clipPath><clipPath id="M"><path d="M150 0a150 150 0 100 300 150 150 0 000-300zm0 0"/></clipPath><clipPath id="N"><path d="M93 150h46v35H93zm0 0"/></clipPath><clipPath id="O"><path d="M150 0a150 150 0 100 300 150 150 0 000-300zm0 0"/></clipPath><clipPath id="P"><path d="M93 150h36v46H93zm0 0"/></clipPath><clipPath id="Q"><path d="M150 0a150 150 0 100 300 150 150 0 000-300zm0 0"/></clipPath><clipPath id="R"><path d="M89 150h9v64h-9zm0 0"/></clipPath><clipPath id="S"><path d="M150 0a150 150 0 100 300 150 150 0 000-300zm0 0"/></clipPath><clipPath id="T"><path d="M93 150h11v57H93zm0 0"/></clipPath><clipPath id="U"><path d="M150 0a150 150 0 100 300 150 150 0 000-300zm0 0"/></clipPath><clipPath id="V"><path d="M82 150h12v57H82zm0 0"/></clipPath><clipPath id="W"><path d="M150 0a150 150 0 100 300 150 150 0 000-300zm0 0"/></clipPath><clipPath id="X"><path d="M48 150h46v45H48zm0 0"/></clipPath><clipPath id="Y"><path d="M150 0a150 150 0 100 300 150 150 0 000-300zm0 0"/></clipPath><clipPath id="Z"><path d="M58 150h36v46H58zm0 0"/></clipPath><clipPath id="aa"><path d="M150 0a150 150 0 100 300 150 150 0 000-300zm0 0"/></clipPath><clipPath id="ab"><path d="M47 150h47v35H47zm0 0"/></clipPath><clipPath id="ac"><path d="M150 0a150 150 0 100 300 150 150 0 000-300zm0 0"/></clipPath><clipPath id="ad"><path d="M7 25h32v32H7zm0 0"/></clipPath><clipPath id="ae"><path d="M150 0a150 150 0 100 300 150 150 0 000-300zm0 0"/></clipPath><clipPath id="af"><path d="M7 243h32v32H7zm0 0"/></clipPath><clipPath id="ag"><path d="M150 0a150 150 0 100 300 150 150 0 000-300zm0 0"/></clipPath><clipPath id="ah"><path d="M199 134h31v32h-31zm0 0"/></clipPath><clipPath id="ai"><path d="M150 0a150 150 0 100 300 150 150 0 000-300zm0 0"/></clipPath></defs><g clip-path="url(#a)"><path fill="#0038a8" d="M0 0h300v300H0z"/></g><g clip-path="url(#b)"><g clip-path="url(#c)"><path d="M0 300h600V150H0zm0 0" fill="#ce1125"/></g></g><g clip-path="url(#d)"><g clip-path="url(#e)"><path d="M259.8 150L0 300V0" fill="#fff"/></g></g><g clip-path="url(#f)"><g clip-path="url(#g)"><path d="M93.3 120a30 30 0 110 60 30 30 0 010-60" fill="#fbd115"/></g></g><g clip-path="url(#h)"><g clip-path="url(#i)"><path d="M30 150l3.9 3.9 59.4-3.9-59.4-3.9zm0 0" fill="#fbd115"/></g></g><g clip-path="url(#j)"><g clip-path="url(#k)"><path d="M36.7 157.5l3.1 3.1L93.3 150" fill="#fbd115"/></g></g><g clip-path="url(#l)"><g clip-path="url(#m)"><path d="M36.7 142.5l3.1-3.1L93.3 150" fill="#fbd115"/></g></g><g clip-path="url(#n)"><g clip-path="url(#o)"><path d="M48.5 105.2v5.5L93.3 150l-39.2-44.8zm0 0" fill="#fbd115"/></g></g><g clip-path="url(#p)"><g clip-path="url(#q)"><path d="M48 115.2v4.5L93.3 150" fill="#fbd115"/></g></g><g clip-path="url(#r)"><g clip-path="url(#s)"><path d="M58.5 104.7H63L93.3 150" fill="#fbd115"/></g></g><g clip-path="url(#t)"><g clip-path="url(#u)"><path d="M93.3 86.7l-3.9 3.9 4 59.4 3.8-59.4zm0 0" fill="#fbd115"/></g></g><g clip-path="url(#v)"><g clip-path="url(#w)"><path d="M85.9 93.3l-3.2 3.2L93.3 150" fill="#fbd115"/></g></g><g clip-path="url(#x)"><g clip-path="url(#y)"><path d="M100.8 93.3l3.2 3.2L93.3 150" fill="#fbd115"/></g></g><g clip-path="url(#z)"><g clip-path="url(#A)"><path d="M138.1 105.2h-5.5L93.3 150l44.8-39.3zm0 0" fill="#fbd115"/></g></g><g clip-path="url(#B)"><g clip-path="url(#C)"><path d="M128.1 104.7h-4.5L93.3 150" fill="#fbd115"/></g></g><g clip-path="url(#D)"><g clip-path="url(#E)"><path d="M138.7 115.2v4.5L93.3 150" fill="#fbd115"/></g></g><g clip-path="url(#F)"><g clip-path="url(#G)"><path d="M156.7 150l-4-3.9-59.4 3.9 59.5 3.9zm0 0" fill="#fbd115"/></g></g><g clip-path="url(#H)"><g clip-path="url(#I)"><path d="M150 142.5l-3.2-3.1L93.3 150" fill="#fbd115"/></g></g><g clip-path="url(#J)"><g clip-path="url(#K)"><path d="M150 157.5l-3.2 3.1L93.3 150" fill="#fbd115"/></g></g><g clip-path="url(#L)"><g clip-path="url(#M)"><path d="M138.1 194.8v-5.5L93.3 150l39.3 44.8zm0 0" fill="#fbd115"/></g></g><g clip-path="url(#N)"><g clip-path="url(#O)"><path d="M138.7 184.8v-4.5L93.3 150" fill="#fbd115"/></g></g><g clip-path="url(#P)"><g clip-path="url(#Q)"><path d="M128.1 195.3h-4.5L93.3 150" fill="#fbd115"/></g></g><g clip-path="url(#R)"><g clip-path="url(#S)"><path d="M93.3 213.3l4-3.9-4-59.4-3.9 59.4zm0 0" fill="#fbd115"/></g></g><g clip-path="url(#T)"><g clip-path="url(#U)"><path d="M100.8 206.7l3.2-3.2L93.3 150" fill="#fbd115"/></g></g><g clip-path="url(#V)"><g clip-path="url(#W)"><path d="M85.9 206.7l-3.2-3.2L93.3 150" fill="#fbd115"/></g></g><g clip-path="url(#X)"><g clip-path="url(#Y)"><path d="M48.5 194.8h5.6L93.3 150l-44.7 39.3zm0 0" fill="#fbd115"/></g></g><g clip-path="url(#Z)"><g clip-path="url(#aa)"><path d="M58.5 195.3H63L93.3 150" fill="#fbd115"/></g></g><g clip-path="url(#ab)"><g clip-path="url(#ac)"><path d="M48 184.8v-4.5L93.3 150" fill="#fbd115"/></g></g><g clip-path="url(#ad)"><g clip-path="url(#ae)"><path d="M7 43.9L19 45.4 21.6 57l5-10.8 12 1-8.7-8.2 4.6-11L24 33.8 15 26l2.2 11.7" fill="#fbd115"/></g></g><g clip-path="url(#af)"><g clip-path="url(#ag)"><path d="M7 256.1l10.2 6.2L15 274l9-7.8 10.5 5.8-4.6-11 8.7-8.2-12 1-5-10.8-2.7 11.6" fill="#fbd115"/></g></g><g clip-path="url(#ah)"><g clip-path="url(#ai)"><path d="M199.7 140.2l6.8 9.8-6.8 9.8 11.4-3.5 7.2 9.6.2-12 11.3-3.9-11.3-4-.2-11.9-7.2 9.6" fill="#fbd115"/></g></g></svg>