<svg xmlns="http://www.w3.org/2000/svg" width="400" height="400" viewBox="0 0 300 300"><defs><clipPath id="a"><path d="M105 0h195v300H105zm0 0"/></clipPath><clipPath id="b"><path d="M0 150a150 150 0 10300 0 150 150 0 00-300 0"/></clipPath><clipPath id="c"><path d="M0 0h105v300H0zm0 0"/></clipPath><clipPath id="d"><path d="M150 0a150 150 0 100 300 150 150 0 000-300zm0 0"/></clipPath><clipPath id="e"><path d="M36 111h134v86H36zm0 0"/></clipPath><clipPath id="f"><path d="M150 0a150 150 0 100 300 150 150 0 000-300zm0 0"/></clipPath><clipPath id="g"><path d="M35 108h137v90H35zm0 0"/></clipPath><clipPath id="h"><path d="M150 0a150 150 0 100 300 150 150 0 000-300zm0 0"/></clipPath><clipPath id="i"><path d="M35 107h137v91H35zm0 0"/></clipPath><clipPath id="j"><path d="M150 0a150 150 0 100 300 150 150 0 000-300zm0 0"/></clipPath><clipPath id="k"><path d="M38 110h134v17H38zm0 0"/></clipPath><clipPath id="l"><path d="M150 0a150 150 0 100 300 150 150 0 000-300zm0 0"/></clipPath><clipPath id="m"><path d="M37 109h136v19H37zm0 0"/></clipPath><clipPath id="n"><path d="M150 0a150 150 0 100 300 150 150 0 000-300zm0 0"/></clipPath><clipPath id="o"><path d="M37 109h137v19H37zm0 0"/></clipPath><clipPath id="p"><path d="M150 0a150 150 0 100 300 150 150 0 000-300zm0 0"/></clipPath><clipPath id="q"><path d="M30 147h150v19H30zm0 0"/></clipPath><clipPath id="r"><path d="M150 0a150 150 0 100 300 150 150 0 000-300zm0 0"/></clipPath><clipPath id="s"><path d="M29 146h152v21H29zm0 0"/></clipPath><clipPath id="t"><path d="M150 0a150 150 0 100 300 150 150 0 000-300zm0 0"/></clipPath><clipPath id="u"><path d="M39 184h132v18H39zm0 0"/></clipPath><clipPath id="v"><path d="M150 0a150 150 0 100 300 150 150 0 000-300zm0 0"/></clipPath><clipPath id="w"><path d="M38 184h134v19H38zm0 0"/></clipPath><clipPath id="x"><path d="M150 0a150 150 0 100 300 150 150 0 000-300zm0 0"/></clipPath><clipPath id="y"><path d="M37 183h135v20H37zm0 0"/></clipPath><clipPath id="z"><path d="M150 0a150 150 0 100 300 150 150 0 000-300zm0 0"/></clipPath><clipPath id="A"><path d="M30 76h150v149H30zm0 0"/></clipPath><clipPath id="B"><path d="M150 0a150 150 0 100 300 150 150 0 000-300zm0 0"/></clipPath><clipPath id="C"><path d="M30 75h150v150H30zm0 0"/></clipPath><clipPath id="D"><path d="M150 0a150 150 0 100 300 150 150 0 000-300zm0 0"/></clipPath><clipPath id="E"><path d="M101 74h8v152h-8zm0 0"/></clipPath><clipPath id="F"><path d="M150 0a150 150 0 100 300 150 150 0 000-300zm0 0"/></clipPath><clipPath id="G"><path d="M102 75h6v150h-6zm0 0"/></clipPath><clipPath id="H"><path d="M150 0a150 150 0 100 300 150 150 0 000-300zm0 0"/></clipPath><clipPath id="I"><path d="M100 74h10v152h-10zm0 0"/></clipPath><clipPath id="J"><path d="M150 0a150 150 0 100 300 150 150 0 000-300zm0 0"/></clipPath><clipPath id="K"><path d="M30 132h150v22H30zm0 0"/></clipPath><clipPath id="L"><path d="M150 0a150 150 0 100 300 150 150 0 000-300zm0 0"/></clipPath><clipPath id="M"><path d="M30 146h150v8H30zm0 0"/></clipPath><clipPath id="N"><path d="M150 0a150 150 0 100 300 150 150 0 000-300zm0 0"/></clipPath><clipPath id="O"><path d="M29 132h152v23H29zm0 0"/></clipPath><clipPath id="P"><path d="M150 0a150 150 0 100 300 150 150 0 000-300zm0 0"/></clipPath><clipPath id="Q"><path d="M29 131h152v25H29zm0 0"/></clipPath><clipPath id="R"><path d="M150 0a150 150 0 100 300 150 150 0 000-300zm0 0"/></clipPath><clipPath id="S"><path d="M38 99h134v18H38zm0 0"/></clipPath><clipPath id="T"><path d="M150 0a150 150 0 100 300 150 150 0 000-300zm0 0"/></clipPath><clipPath id="U"><path d="M167 110h5v5h-5zm0 0"/></clipPath><clipPath id="V"><path d="M150 0a150 150 0 100 300 150 150 0 000-300zm0 0"/></clipPath><clipPath id="W"><path d="M38 99h135v19H38zm0 0"/></clipPath><clipPath id="X"><path d="M150 0a150 150 0 100 300 150 150 0 000-300zm0 0"/></clipPath><clipPath id="Y"><path d="M37 98h137v20H37zm0 0"/></clipPath><clipPath id="Z"><path d="M150 0a150 150 0 100 300 150 150 0 000-300zm0 0"/></clipPath><clipPath id="aa"><path d="M38 171h108v20H38zm0 0"/></clipPath><clipPath id="ab"><path d="M150 0a150 150 0 100 300 150 150 0 000-300zm0 0"/></clipPath><clipPath id="ac"><path d="M39 185h3v5h-3zm0 0"/></clipPath><clipPath id="ad"><path d="M150 0a150 150 0 100 300 150 150 0 000-300zm0 0"/></clipPath><clipPath id="ae"><path d="M38 170h108v22H38zm0 0"/></clipPath><clipPath id="af"><path d="M150 0a150 150 0 100 300 150 150 0 000-300zm0 0"/></clipPath><clipPath id="ag"><path d="M37 170h109v22H37zm0 0"/></clipPath><clipPath id="ah"><path d="M150 0a150 150 0 100 300 150 150 0 000-300zm0 0"/></clipPath><clipPath id="ai"><path d="M37 108h135v87H37zm0 0"/></clipPath><clipPath id="aj"><path d="M150 0a150 150 0 100 300 150 150 0 000-300zm0 0"/></clipPath><clipPath id="ak"><path d="M37 108h134v87H37zm0 0"/></clipPath><clipPath id="al"><path d="M150 0a150 150 0 100 300 150 150 0 000-300zm0 0"/></clipPath><clipPath id="am"><path d="M35 107h137v91H35zm0 0"/></clipPath><clipPath id="an"><path d="M150 0a150 150 0 100 300 150 150 0 000-300zm0 0"/></clipPath><clipPath id="ao"><path d="M35 107h138v91H35zm0 0"/></clipPath><clipPath id="ap"><path d="M150 0a150 150 0 100 300 150 150 0 000-300zm0 0"/></clipPath><clipPath id="aq"><path d="M60 98h90v105H60zm0 0"/></clipPath><clipPath id="ar"><path d="M150 0a150 150 0 100 300 150 150 0 000-300zm0 0"/></clipPath><clipPath id="as"><path d="M57 95h96v111H57zm0 0"/></clipPath><clipPath id="at"><path d="M150 0a150 150 0 100 300 150 150 0 000-300zm0 0"/></clipPath><clipPath id="au"><path d="M62 100h86v101H62zm0 0"/></clipPath><clipPath id="av"><path d="M150 0a150 150 0 100 300 150 150 0 000-300zm0 0"/></clipPath><clipPath id="aw"><path d="M59 98h91v106H59zm0 0"/></clipPath><clipPath id="ax"><path d="M150 0a150 150 0 100 300 150 150 0 000-300zm0 0"/></clipPath><clipPath id="ay"><path d="M99 143h12v15H99zm0 0"/></clipPath><clipPath id="az"><path d="M150 0a150 150 0 100 300 150 150 0 000-300zm0 0"/></clipPath><clipPath id="aA"><path d="M99 163h12v15H99zm0 0"/></clipPath><clipPath id="aB"><path d="M150 0a150 150 0 100 300 150 150 0 000-300zm0 0"/></clipPath><clipPath id="aC"><path d="M83 143h13v15H83zm0 0"/></clipPath><clipPath id="aD"><path d="M150 0a150 150 0 100 300 150 150 0 000-300zm0 0"/></clipPath><clipPath id="aE"><path d="M115 143h12v15h-12zm0 0"/></clipPath><clipPath id="aF"><path d="M150 0a150 150 0 100 300 150 150 0 000-300zm0 0"/></clipPath><clipPath id="aG"><path d="M99 124h12v15H99zm0 0"/></clipPath><clipPath id="aH"><path d="M150 0a150 150 0 100 300 150 150 0 000-300zm0 0"/></clipPath><clipPath id="aI"><path d="M73 106h4v3h-4zm0 0"/></clipPath><clipPath id="aJ"><path d="M150 0a150 150 0 100 300 150 150 0 000-300zm0 0"/></clipPath><clipPath id="aK"><path d="M67 110h7v6h-7zm0 0"/></clipPath><clipPath id="aL"><path d="M150 0a150 150 0 100 300 150 150 0 000-300zm0 0"/></clipPath><clipPath id="aM"><path d="M64 110h13v6H64zm0 0"/></clipPath><clipPath id="aN"><path d="M150 0a150 150 0 100 300 150 150 0 000-300zm0 0"/></clipPath><clipPath id="aO"><path d="M62 108h18v10H62zm0 0"/></clipPath><clipPath id="aP"><path d="M150 0a150 150 0 100 300 150 150 0 000-300zm0 0"/></clipPath><clipPath id="aQ"><path d="M63 115h15v2H63zm0 0"/></clipPath><clipPath id="aR"><path d="M150 0a150 150 0 100 300 150 150 0 000-300zm0 0"/></clipPath><clipPath id="aS"><path d="M61 113h19v6H61zm0 0"/></clipPath><clipPath id="aT"><path d="M150 0a150 150 0 100 300 150 150 0 000-300zm0 0"/></clipPath><clipPath id="aU"><path d="M69 112h4v4h-4zm0 0"/></clipPath><clipPath id="aV"><path d="M150 0a150 150 0 100 300 150 150 0 000-300zm0 0"/></clipPath><clipPath id="aW"><path d="M66 110h9v8h-9zm0 0"/></clipPath><clipPath id="aX"><path d="M150 0a150 150 0 100 300 150 150 0 000-300zm0 0"/></clipPath><clipPath id="aY"><path d="M64 108h14v2H64zm0 0"/></clipPath><clipPath id="aZ"><path d="M150 0a150 150 0 100 300 150 150 0 000-300zm0 0"/></clipPath><clipPath id="ba"><path d="M62 106h18v6H62zm0 0"/></clipPath><clipPath id="bb"><path d="M150 0a150 150 0 100 300 150 150 0 000-300zm0 0"/></clipPath><clipPath id="bc"><path d="M64 109h14v2H64zm0 0"/></clipPath><clipPath id="bd"><path d="M150 0a150 150 0 100 300 150 150 0 000-300zm0 0"/></clipPath><clipPath id="be"><path d="M62 107h18v7H62zm0 0"/></clipPath><clipPath id="bf"><path d="M150 0a150 150 0 100 300 150 150 0 000-300zm0 0"/></clipPath><clipPath id="bg"><path d="M68 101h5v3h-5zm0 0"/></clipPath><clipPath id="bh"><path d="M150 0a150 150 0 100 300 150 150 0 000-300zm0 0"/></clipPath><clipPath id="bi"><path d="M66 99h9v7h-9zm0 0"/></clipPath><clipPath id="bj"><path d="M150 0a150 150 0 100 300 150 150 0 000-300zm0 0"/></clipPath><clipPath id="bk"><path d="M69 103h4v6h-4zm0 0"/></clipPath><clipPath id="bl"><path d="M150 0a150 150 0 100 300 150 150 0 000-300zm0 0"/></clipPath><clipPath id="bm"><path d="M67 101h8v10h-8zm0 0"/></clipPath><clipPath id="bn"><path d="M150 0a150 150 0 100 300 150 150 0 000-300zm0 0"/></clipPath><clipPath id="bo"><path d="M72 104h5v3h-5zm0 0"/></clipPath><clipPath id="bp"><path d="M150 0a150 150 0 100 300 150 150 0 000-300zm0 0"/></clipPath><clipPath id="bq"><path d="M71 104h8v7h-8zm0 0"/></clipPath><clipPath id="br"><path d="M150 0a150 150 0 100 300 150 150 0 000-300zm0 0"/></clipPath><clipPath id="bs"><path d="M70 102h9v7h-9zm0 0"/></clipPath><clipPath id="bt"><path d="M150 0a150 150 0 100 300 150 150 0 000-300zm0 0"/></clipPath><clipPath id="bu"><path d="M64 104h5v3h-5zm0 0"/></clipPath><clipPath id="bv"><path d="M150 0a150 150 0 100 300 150 150 0 000-300zm0 0"/></clipPath><clipPath id="bw"><path d="M62 102h9v7h-9zm0 0"/></clipPath><clipPath id="bx"><path d="M150 0a150 150 0 100 300 150 150 0 000-300zm0 0"/></clipPath><clipPath id="by"><path d="M65 106h4v3h-4zm0 0"/></clipPath><clipPath id="bz"><path d="M150 0a150 150 0 100 300 150 150 0 000-300zm0 0"/></clipPath><clipPath id="bA"><path d="M63 104h8v7h-8zm0 0"/></clipPath><clipPath id="bB"><path d="M150 0a150 150 0 100 300 150 150 0 000-300zm0 0"/></clipPath><clipPath id="bC"><path d="M70 105h2v2h-2zm0 0"/></clipPath><clipPath id="bD"><path d="M150 0a150 150 0 100 300 150 150 0 000-300zm0 0"/></clipPath><clipPath id="bE"><path d="M74 106h2v3h-2zm0 0"/></clipPath><clipPath id="bF"><path d="M150 0a150 150 0 100 300 150 150 0 000-300zm0 0"/></clipPath><clipPath id="bG"><path d="M66 106h2v3h-2zm0 0"/></clipPath><clipPath id="bH"><path d="M150 0a150 150 0 100 300 150 150 0 000-300zm0 0"/></clipPath><clipPath id="bI"><path d="M107 106h4v3h-4zm0 0"/></clipPath><clipPath id="bJ"><path d="M150 0a150 150 0 100 300 150 150 0 000-300zm0 0"/></clipPath><clipPath id="bK"><path d="M101 110h8v6h-8zm0 0"/></clipPath><clipPath id="bL"><path d="M150 0a150 150 0 100 300 150 150 0 000-300zm0 0"/></clipPath><clipPath id="bM"><path d="M98 110h14v6H98zm0 0"/></clipPath><clipPath id="bN"><path d="M150 0a150 150 0 100 300 150 150 0 000-300zm0 0"/></clipPath><clipPath id="bO"><path d="M96 108h18v10H96zm0 0"/></clipPath><clipPath id="bP"><path d="M150 0a150 150 0 100 300 150 150 0 000-300zm0 0"/></clipPath><clipPath id="bQ"><path d="M98 115h14v2H98zm0 0"/></clipPath><clipPath id="bR"><path d="M150 0a150 150 0 100 300 150 150 0 000-300zm0 0"/></clipPath><clipPath id="bS"><path d="M96 113h18v6H96zm0 0"/></clipPath><clipPath id="bT"><path d="M150 0a150 150 0 100 300 150 150 0 000-300zm0 0"/></clipPath><clipPath id="bU"><path d="M103 112h4v4h-4zm0 0"/></clipPath><clipPath id="bV"><path d="M150 0a150 150 0 100 300 150 150 0 000-300zm0 0"/></clipPath><clipPath id="bW"><path d="M101 110h8v8h-8zm0 0"/></clipPath><clipPath id="bX"><path d="M150 0a150 150 0 100 300 150 150 0 000-300zm0 0"/></clipPath><clipPath id="bY"><path d="M98 108h14v2H98zm0 0"/></clipPath><clipPath id="bZ"><path d="M150 0a150 150 0 100 300 150 150 0 000-300zm0 0"/></clipPath><clipPath id="ca"><path d="M96 106h18v6H96zm0 0"/></clipPath><clipPath id="cb"><path d="M150 0a150 150 0 100 300 150 150 0 000-300zm0 0"/></clipPath><clipPath id="cc"><path d="M98 109h14v2H98zm0 0"/></clipPath><clipPath id="cd"><path d="M150 0a150 150 0 100 300 150 150 0 000-300zm0 0"/></clipPath><clipPath id="ce"><path d="M96 107h18v7H96zm0 0"/></clipPath><clipPath id="cf"><path d="M150 0a150 150 0 100 300 150 150 0 000-300zm0 0"/></clipPath><clipPath id="cg"><path d="M103 101h5v3h-5zm0 0"/></clipPath><clipPath id="ch"><path d="M150 0a150 150 0 100 300 150 150 0 000-300zm0 0"/></clipPath><clipPath id="ci"><path d="M100 99h10v7h-10zm0 0"/></clipPath><clipPath id="cj"><path d="M150 0a150 150 0 100 300 150 150 0 000-300zm0 0"/></clipPath><clipPath id="ck"><path d="M103 103h4v6h-4zm0 0"/></clipPath><clipPath id="cl"><path d="M150 0a150 150 0 100 300 150 150 0 000-300zm0 0"/></clipPath><clipPath id="cm"><path d="M101 101h8v10h-8zm0 0"/></clipPath><clipPath id="cn"><path d="M150 0a150 150 0 100 300 150 150 0 000-300zm0 0"/></clipPath><clipPath id="co"><path d="M106 104h6v3h-6zm0 0"/></clipPath><clipPath id="cp"><path d="M150 0a150 150 0 100 300 150 150 0 000-300zm0 0"/></clipPath><clipPath id="cq"><path d="M105 104h8v7h-8zm0 0"/></clipPath><clipPath id="cr"><path d="M150 0a150 150 0 100 300 150 150 0 000-300zm0 0"/></clipPath><clipPath id="cs"><path d="M104 102h10v7h-10zm0 0"/></clipPath><clipPath id="ct"><path d="M150 0a150 150 0 100 300 150 150 0 000-300zm0 0"/></clipPath><clipPath id="cu"><path d="M99 104h5v3h-5zm0 0"/></clipPath><clipPath id="cv"><path d="M150 0a150 150 0 100 300 150 150 0 000-300zm0 0"/></clipPath><clipPath id="cw"><path d="M96 102h10v7H96zm0 0"/></clipPath><clipPath id="cx"><path d="M150 0a150 150 0 100 300 150 150 0 000-300zm0 0"/></clipPath><clipPath id="cy"><path d="M99 106h4v3h-4zm0 0"/></clipPath><clipPath id="cz"><path d="M150 0a150 150 0 100 300 150 150 0 000-300zm0 0"/></clipPath><clipPath id="cA"><path d="M97 104h8v7h-8zm0 0"/></clipPath><clipPath id="cB"><path d="M150 0a150 150 0 100 300 150 150 0 000-300zm0 0"/></clipPath><clipPath id="cC"><path d="M104 105h2v2h-2zm0 0"/></clipPath><clipPath id="cD"><path d="M150 0a150 150 0 100 300 150 150 0 000-300zm0 0"/></clipPath><clipPath id="cE"><path d="M108 106h2v3h-2zm0 0"/></clipPath><clipPath id="cF"><path d="M150 0a150 150 0 100 300 150 150 0 000-300zm0 0"/></clipPath><clipPath id="cG"><path d="M100 106h2v3h-2zm0 0"/></clipPath><clipPath id="cH"><path d="M150 0a150 150 0 100 300 150 150 0 000-300zm0 0"/></clipPath><clipPath id="cI"><path d="M141 106h4v3h-4zm0 0"/></clipPath><clipPath id="cJ"><path d="M150 0a150 150 0 100 300 150 150 0 000-300zm0 0"/></clipPath><clipPath id="cK"><path d="M135 110h8v6h-8zm0 0"/></clipPath><clipPath id="cL"><path d="M150 0a150 150 0 100 300 150 150 0 000-300zm0 0"/></clipPath><clipPath id="cM"><path d="M132 110h14v6h-14zm0 0"/></clipPath><clipPath id="cN"><path d="M150 0a150 150 0 100 300 150 150 0 000-300zm0 0"/></clipPath><clipPath id="cO"><path d="M130 108h18v10h-18zm0 0"/></clipPath><clipPath id="cP"><path d="M150 0a150 150 0 100 300 150 150 0 000-300zm0 0"/></clipPath><clipPath id="cQ"><path d="M132 115h14v2h-14zm0 0"/></clipPath><clipPath id="cR"><path d="M150 0a150 150 0 100 300 150 150 0 000-300zm0 0"/></clipPath><clipPath id="cS"><path d="M129 113h19v6h-19zm0 0"/></clipPath><clipPath id="cT"><path d="M150 0a150 150 0 100 300 150 150 0 000-300zm0 0"/></clipPath><clipPath id="cU"><path d="M137 112h4v4h-4zm0 0"/></clipPath><clipPath id="cV"><path d="M150 0a150 150 0 100 300 150 150 0 000-300zm0 0"/></clipPath><clipPath id="cW"><path d="M135 110h8v8h-8zm0 0"/></clipPath><clipPath id="cX"><path d="M150 0a150 150 0 100 300 150 150 0 000-300zm0 0"/></clipPath><clipPath id="cY"><path d="M132 108h14v2h-14zm0 0"/></clipPath><clipPath id="cZ"><path d="M150 0a150 150 0 100 300 150 150 0 000-300zm0 0"/></clipPath><clipPath id="da"><path d="M130 106h18v6h-18zm0 0"/></clipPath><clipPath id="db"><path d="M150 0a150 150 0 100 300 150 150 0 000-300zm0 0"/></clipPath><clipPath id="dc"><path d="M132 109h14v2h-14zm0 0"/></clipPath><clipPath id="dd"><path d="M150 0a150 150 0 100 300 150 150 0 000-300zm0 0"/></clipPath><clipPath id="de"><path d="M130 107h18v7h-18zm0 0"/></clipPath><clipPath id="df"><path d="M150 0a150 150 0 100 300 150 150 0 000-300zm0 0"/></clipPath><clipPath id="dg"><path d="M136 101h5v3h-5zm0 0"/></clipPath><clipPath id="dh"><path d="M150 0a150 150 0 100 300 150 150 0 000-300zm0 0"/></clipPath><clipPath id="di"><path d="M134 99h10v7h-10zm0 0"/></clipPath><clipPath id="dj"><path d="M150 0a150 150 0 100 300 150 150 0 000-300zm0 0"/></clipPath><clipPath id="dk"><path d="M137 103h4v6h-4zm0 0"/></clipPath><clipPath id="dl"><path d="M150 0a150 150 0 100 300 150 150 0 000-300zm0 0"/></clipPath><clipPath id="dm"><path d="M135 101h8v10h-8zm0 0"/></clipPath><clipPath id="dn"><path d="M150 0a150 150 0 100 300 150 150 0 000-300zm0 0"/></clipPath><clipPath id="do"><path d="M140 104h5v3h-5zm0 0"/></clipPath><clipPath id="dp"><path d="M150 0a150 150 0 100 300 150 150 0 000-300zm0 0"/></clipPath><clipPath id="dq"><path d="M139 104h8v7h-8zm0 0"/></clipPath><clipPath id="dr"><path d="M150 0a150 150 0 100 300 150 150 0 000-300zm0 0"/></clipPath><clipPath id="ds"><path d="M138 102h10v7h-10zm0 0"/></clipPath><clipPath id="dt"><path d="M150 0a150 150 0 100 300 150 150 0 000-300zm0 0"/></clipPath><clipPath id="du"><path d="M132 104h5v3h-5zm0 0"/></clipPath><clipPath id="dv"><path d="M150 0a150 150 0 100 300 150 150 0 000-300zm0 0"/></clipPath><clipPath id="dw"><path d="M130 102h10v7h-10zm0 0"/></clipPath><clipPath id="dx"><path d="M150 0a150 150 0 100 300 150 150 0 000-300zm0 0"/></clipPath><clipPath id="dy"><path d="M133 106h4v3h-4zm0 0"/></clipPath><clipPath id="dz"><path d="M150 0a150 150 0 100 300 150 150 0 000-300zm0 0"/></clipPath><clipPath id="dA"><path d="M131 104h8v7h-8zm0 0"/></clipPath><clipPath id="dB"><path d="M150 0a150 150 0 100 300 150 150 0 000-300zm0 0"/></clipPath><clipPath id="dC"><path d="M138 105h2v2h-2zm0 0"/></clipPath><clipPath id="dD"><path d="M150 0a150 150 0 100 300 150 150 0 000-300zm0 0"/></clipPath><clipPath id="dE"><path d="M142 106h2v3h-2zm0 0"/></clipPath><clipPath id="dF"><path d="M150 0a150 150 0 100 300 150 150 0 000-300zm0 0"/></clipPath><clipPath id="dG"><path d="M134 106h2v3h-2zm0 0"/></clipPath><clipPath id="dH"><path d="M150 0a150 150 0 100 300 150 150 0 000-300zm0 0"/></clipPath><clipPath id="dI"><path d="M73 140h4v4h-4zm0 0"/></clipPath><clipPath id="dJ"><path d="M150 0a150 150 0 100 300 150 150 0 000-300zm0 0"/></clipPath><clipPath id="dK"><path d="M67 145h7v6h-7zm0 0"/></clipPath><clipPath id="dL"><path d="M150 0a150 150 0 100 300 150 150 0 000-300zm0 0"/></clipPath><clipPath id="dM"><path d="M64 145h13v6H64zm0 0"/></clipPath><clipPath id="dN"><path d="M150 0a150 150 0 100 300 150 150 0 000-300zm0 0"/></clipPath><clipPath id="dO"><path d="M62 143h18v10H62zm0 0"/></clipPath><clipPath id="dP"><path d="M150 0a150 150 0 100 300 150 150 0 000-300zm0 0"/></clipPath><clipPath id="dQ"><path d="M63 150h15v2H63zm0 0"/></clipPath><clipPath id="dR"><path d="M150 0a150 150 0 100 300 150 150 0 000-300zm0 0"/></clipPath><clipPath id="dS"><path d="M61 148h19v6H61zm0 0"/></clipPath><clipPath id="dT"><path d="M150 0a150 150 0 100 300 150 150 0 000-300zm0 0"/></clipPath><clipPath id="dU"><path d="M69 147h4v4h-4zm0 0"/></clipPath><clipPath id="dV"><path d="M150 0a150 150 0 100 300 150 150 0 000-300zm0 0"/></clipPath><clipPath id="dW"><path d="M66 144h9v9h-9zm0 0"/></clipPath><clipPath id="dX"><path d="M150 0a150 150 0 100 300 150 150 0 000-300zm0 0"/></clipPath><clipPath id="dY"><path d="M64 143h14v2H64zm0 0"/></clipPath><clipPath id="dZ"><path d="M150 0a150 150 0 100 300 150 150 0 000-300zm0 0"/></clipPath><clipPath id="ea"><path d="M62 141h18v6H62zm0 0"/></clipPath><clipPath id="eb"><path d="M150 0a150 150 0 100 300 150 150 0 000-300zm0 0"/></clipPath><clipPath id="ec"><path d="M64 144h14v2H64zm0 0"/></clipPath><clipPath id="ed"><path d="M150 0a150 150 0 100 300 150 150 0 000-300zm0 0"/></clipPath><clipPath id="ee"><path d="M62 142h18v6H62zm0 0"/></clipPath><clipPath id="ef"><path d="M150 0a150 150 0 100 300 150 150 0 000-300zm0 0"/></clipPath><clipPath id="eg"><path d="M68 136h5v3h-5zm0 0"/></clipPath><clipPath id="eh"><path d="M150 0a150 150 0 100 300 150 150 0 000-300zm0 0"/></clipPath><clipPath id="ei"><path d="M66 134h9v7h-9zm0 0"/></clipPath><clipPath id="ej"><path d="M150 0a150 150 0 100 300 150 150 0 000-300zm0 0"/></clipPath><clipPath id="ek"><path d="M69 138h4v6h-4zm0 0"/></clipPath><clipPath id="el"><path d="M150 0a150 150 0 100 300 150 150 0 000-300zm0 0"/></clipPath><clipPath id="em"><path d="M67 136h8v10h-8zm0 0"/></clipPath><clipPath id="en"><path d="M150 0a150 150 0 100 300 150 150 0 000-300zm0 0"/></clipPath><clipPath id="eo"><path d="M72 139h5v2h-5zm0 0"/></clipPath><clipPath id="ep"><path d="M150 0a150 150 0 100 300 150 150 0 000-300zm0 0"/></clipPath><clipPath id="eq"><path d="M71 138h8v8h-8zm0 0"/></clipPath><clipPath id="er"><path d="M150 0a150 150 0 100 300 150 150 0 000-300zm0 0"/></clipPath><clipPath id="es"><path d="M70 136h9v8h-9zm0 0"/></clipPath><clipPath id="et"><path d="M150 0a150 150 0 100 300 150 150 0 000-300zm0 0"/></clipPath><clipPath id="eu"><path d="M64 139h5v2h-5zm0 0"/></clipPath><clipPath id="ev"><path d="M150 0a150 150 0 100 300 150 150 0 000-300zm0 0"/></clipPath><clipPath id="ew"><path d="M62 136h9v8h-9zm0 0"/></clipPath><clipPath id="ex"><path d="M150 0a150 150 0 100 300 150 150 0 000-300zm0 0"/></clipPath><clipPath id="ey"><path d="M65 140h4v4h-4zm0 0"/></clipPath><clipPath id="ez"><path d="M150 0a150 150 0 100 300 150 150 0 000-300zm0 0"/></clipPath><clipPath id="eA"><path d="M63 138h8v8h-8zm0 0"/></clipPath><clipPath id="eB"><path d="M150 0a150 150 0 100 300 150 150 0 000-300zm0 0"/></clipPath><clipPath id="eC"><path d="M70 139h2v3h-2zm0 0"/></clipPath><clipPath id="eD"><path d="M150 0a150 150 0 100 300 150 150 0 000-300zm0 0"/></clipPath><clipPath id="eE"><path d="M74 141h2v2h-2zm0 0"/></clipPath><clipPath id="eF"><path d="M150 0a150 150 0 100 300 150 150 0 000-300zm0 0"/></clipPath><clipPath id="eG"><path d="M66 141h2v2h-2zm0 0"/></clipPath><clipPath id="eH"><path d="M150 0a150 150 0 100 300 150 150 0 000-300zm0 0"/></clipPath><clipPath id="eI"><path d="M133 179h5v5h-5zm0 0"/></clipPath><clipPath id="eJ"><path d="M150 0a150 150 0 100 300 150 150 0 000-300zm0 0"/></clipPath><clipPath id="eK"><path d="M124 180h7v7h-7zm0 0"/></clipPath><clipPath id="eL"><path d="M150 0a150 150 0 100 300 150 150 0 000-300zm0 0"/></clipPath><clipPath id="eM"><path d="M122 177h13v12h-13zm0 0"/></clipPath><clipPath id="eN"><path d="M150 0a150 150 0 100 300 150 150 0 000-300zm0 0"/></clipPath><clipPath id="eO"><path d="M120 174h17v17h-17zm0 0"/></clipPath><clipPath id="eP"><path d="M150 0a150 150 0 100 300 150 150 0 000-300zm0 0"/></clipPath><clipPath id="eQ"><path d="M121 179h11v11h-11zm0 0"/></clipPath><clipPath id="eR"><path d="M150 0a150 150 0 100 300 150 150 0 000-300zm0 0"/></clipPath><clipPath id="eS"><path d="M119 177h15v15h-15zm0 0"/></clipPath><clipPath id="eT"><path d="M150 0a150 150 0 100 300 150 150 0 000-300zm0 0"/></clipPath><clipPath id="eU"><path d="M125 181h5v5h-5zm0 0"/></clipPath><clipPath id="eV"><path d="M150 0a150 150 0 100 300 150 150 0 000-300zm0 0"/></clipPath><clipPath id="eW"><path d="M123 179h9v9h-9zm0 0"/></clipPath><clipPath id="eX"><path d="M150 0a150 150 0 100 300 150 150 0 000-300zm0 0"/></clipPath><clipPath id="eY"><path d="M126 175h10v10h-10zm0 0"/></clipPath><clipPath id="eZ"><path d="M150 0a150 150 0 100 300 150 150 0 000-300zm0 0"/></clipPath><clipPath id="fa"><path d="M124 173h15v14h-15zm0 0"/></clipPath><clipPath id="fb"><path d="M150 0a150 150 0 100 300 150 150 0 000-300zm0 0"/></clipPath><clipPath id="fc"><path d="M125 176h10v10h-10zm0 0"/></clipPath><clipPath id="fd"><path d="M150 0a150 150 0 100 300 150 150 0 000-300zm0 0"/></clipPath><clipPath id="fe"><path d="M123 174h15v14h-15zm0 0"/></clipPath><clipPath id="ff"><path d="M150 0a150 150 0 100 300 150 150 0 000-300zm0 0"/></clipPath><clipPath id="fg"><path d="M133 173h5v5h-5zm0 0"/></clipPath><clipPath id="fh"><path d="M150 0a150 150 0 100 300 150 150 0 000-300zm0 0"/></clipPath><clipPath id="fi"><path d="M131 171h9v9h-9zm0 0"/></clipPath><clipPath id="fj"><path d="M150 0a150 150 0 100 300 150 150 0 000-300zm0 0"/></clipPath><clipPath id="fk"><path d="M130 175h6v6h-6zm0 0"/></clipPath><clipPath id="fl"><path d="M150 0a150 150 0 100 300 150 150 0 000-300zm0 0"/></clipPath><clipPath id="fm"><path d="M128 173h11v10h-11zm0 0"/></clipPath><clipPath id="fn"><path d="M150 0a150 150 0 100 300 150 150 0 000-300zm0 0"/></clipPath><clipPath id="fo"><path d="M134 177h5v5h-5zm0 0"/></clipPath><clipPath id="fp"><path d="M150 0a150 150 0 100 300 150 150 0 000-300zm0 0"/></clipPath><clipPath id="fq"><path d="M131 177h9v9h-9zm0 0"/></clipPath><clipPath id="fr"><path d="M150 0a150 150 0 100 300 150 150 0 000-300zm0 0"/></clipPath><clipPath id="fs"><path d="M132 175h10v9h-10zm0 0"/></clipPath><clipPath id="ft"><path d="M150 0a150 150 0 100 300 150 150 0 000-300zm0 0"/></clipPath><clipPath id="fu"><path d="M129 172h5v5h-5zm0 0"/></clipPath><clipPath id="fv"><path d="M150 0a150 150 0 100 300 150 150 0 000-300zm0 0"/></clipPath><clipPath id="fw"><path d="M127 170h9v9h-9zm0 0"/></clipPath><clipPath id="fx"><path d="M150 0a150 150 0 100 300 150 150 0 000-300zm0 0"/></clipPath><clipPath id="fy"><path d="M127 173h5v5h-5zm0 0"/></clipPath><clipPath id="fz"><path d="M150 0a150 150 0 100 300 150 150 0 000-300zm0 0"/></clipPath><clipPath id="fA"><path d="M125 171h9v10h-9zm0 0"/></clipPath><clipPath id="fB"><path d="M150 0a150 150 0 100 300 150 150 0 000-300zm0 0"/></clipPath><clipPath id="fC"><path d="M132 176h3v3h-3zm0 0"/></clipPath><clipPath id="fD"><path d="M150 0a150 150 0 100 300 150 150 0 000-300zm0 0"/></clipPath><clipPath id="fE"><path d="M134 180h2v3h-2zm0 0"/></clipPath><clipPath id="fF"><path d="M150 0a150 150 0 100 300 150 150 0 000-300zm0 0"/></clipPath><clipPath id="fG"><path d="M128 175h3v2h-3zm0 0"/></clipPath><clipPath id="fH"><path d="M150 0a150 150 0 100 300 150 150 0 000-300zm0 0"/></clipPath><clipPath id="fI"><path d="M141 140h4v4h-4zm0 0"/></clipPath><clipPath id="fJ"><path d="M150 0a150 150 0 100 300 150 150 0 000-300zm0 0"/></clipPath><clipPath id="fK"><path d="M135 145h8v6h-8zm0 0"/></clipPath><clipPath id="fL"><path d="M150 0a150 150 0 100 300 150 150 0 000-300zm0 0"/></clipPath><clipPath id="fM"><path d="M132 145h14v6h-14zm0 0"/></clipPath><clipPath id="fN"><path d="M150 0a150 150 0 100 300 150 150 0 000-300zm0 0"/></clipPath><clipPath id="fO"><path d="M130 143h18v10h-18zm0 0"/></clipPath><clipPath id="fP"><path d="M150 0a150 150 0 100 300 150 150 0 000-300zm0 0"/></clipPath><clipPath id="fQ"><path d="M132 150h14v2h-14zm0 0"/></clipPath><clipPath id="fR"><path d="M150 0a150 150 0 100 300 150 150 0 000-300zm0 0"/></clipPath><clipPath id="fS"><path d="M129 148h19v6h-19zm0 0"/></clipPath><clipPath id="fT"><path d="M150 0a150 150 0 100 300 150 150 0 000-300zm0 0"/></clipPath><clipPath id="fU"><path d="M137 147h4v4h-4zm0 0"/></clipPath><clipPath id="fV"><path d="M150 0a150 150 0 100 300 150 150 0 000-300zm0 0"/></clipPath><clipPath id="fW"><path d="M135 144h8v9h-8zm0 0"/></clipPath><clipPath id="fX"><path d="M150 0a150 150 0 100 300 150 150 0 000-300zm0 0"/></clipPath><clipPath id="fY"><path d="M132 143h14v2h-14zm0 0"/></clipPath><clipPath id="fZ"><path d="M150 0a150 150 0 100 300 150 150 0 000-300zm0 0"/></clipPath><clipPath id="ga"><path d="M130 141h18v6h-18zm0 0"/></clipPath><clipPath id="gb"><path d="M150 0a150 150 0 100 300 150 150 0 000-300zm0 0"/></clipPath><clipPath id="gc"><path d="M132 144h14v2h-14zm0 0"/></clipPath><clipPath id="gd"><path d="M150 0a150 150 0 100 300 150 150 0 000-300zm0 0"/></clipPath><clipPath id="ge"><path d="M130 142h18v6h-18zm0 0"/></clipPath><clipPath id="gf"><path d="M150 0a150 150 0 100 300 150 150 0 000-300zm0 0"/></clipPath><clipPath id="gg"><path d="M136 136h5v3h-5zm0 0"/></clipPath><clipPath id="gh"><path d="M150 0a150 150 0 100 300 150 150 0 000-300zm0 0"/></clipPath><clipPath id="gi"><path d="M134 134h10v7h-10zm0 0"/></clipPath><clipPath id="gj"><path d="M150 0a150 150 0 100 300 150 150 0 000-300zm0 0"/></clipPath><clipPath id="gk"><path d="M137 138h4v6h-4zm0 0"/></clipPath><clipPath id="gl"><path d="M150 0a150 150 0 100 300 150 150 0 000-300zm0 0"/></clipPath><clipPath id="gm"><path d="M135 136h8v10h-8zm0 0"/></clipPath><clipPath id="gn"><path d="M150 0a150 150 0 100 300 150 150 0 000-300zm0 0"/></clipPath><clipPath id="go"><path d="M140 139h5v2h-5zm0 0"/></clipPath><clipPath id="gp"><path d="M150 0a150 150 0 100 300 150 150 0 000-300zm0 0"/></clipPath><clipPath id="gq"><path d="M139 138h8v8h-8zm0 0"/></clipPath><clipPath id="gr"><path d="M150 0a150 150 0 100 300 150 150 0 000-300zm0 0"/></clipPath><clipPath id="gs"><path d="M138 136h9v8h-9zm0 0"/></clipPath><clipPath id="gt"><path d="M150 0a150 150 0 100 300 150 150 0 000-300zm0 0"/></clipPath><clipPath id="gu"><path d="M132 139h5v2h-5zm0 0"/></clipPath><clipPath id="gv"><path d="M150 0a150 150 0 100 300 150 150 0 000-300zm0 0"/></clipPath><clipPath id="gw"><path d="M130 136h10v8h-10zm0 0"/></clipPath><clipPath id="gx"><path d="M150 0a150 150 0 100 300 150 150 0 000-300zm0 0"/></clipPath><clipPath id="gy"><path d="M133 140h4v4h-4zm0 0"/></clipPath><clipPath id="gz"><path d="M150 0a150 150 0 100 300 150 150 0 000-300zm0 0"/></clipPath><clipPath id="gA"><path d="M131 138h8v8h-8zm0 0"/></clipPath><clipPath id="gB"><path d="M150 0a150 150 0 100 300 150 150 0 000-300zm0 0"/></clipPath><clipPath id="gC"><path d="M138 139h2v3h-2zm0 0"/></clipPath><clipPath id="gD"><path d="M150 0a150 150 0 100 300 150 150 0 000-300zm0 0"/></clipPath><clipPath id="gE"><path d="M142 141h2v2h-2zm0 0"/></clipPath><clipPath id="gF"><path d="M150 0a150 150 0 100 300 150 150 0 000-300zm0 0"/></clipPath><clipPath id="gG"><path d="M134 141h2v2h-2zm0 0"/></clipPath><clipPath id="gH"><path d="M150 0a150 150 0 100 300 150 150 0 000-300zm0 0"/></clipPath><clipPath id="gI"><path d="M78 173h5v5h-5zm0 0"/></clipPath><clipPath id="gJ"><path d="M150 0a150 150 0 100 300 150 150 0 000-300zm0 0"/></clipPath><clipPath id="gK"><path d="M79 180h7v7h-7zm0 0"/></clipPath><clipPath id="gL"><path d="M150 0a150 150 0 100 300 150 150 0 000-300zm0 0"/></clipPath><clipPath id="gM"><path d="M75 176h13v13H75zm0 0"/></clipPath><clipPath id="gN"><path d="M150 0a150 150 0 100 300 150 150 0 000-300zm0 0"/></clipPath><clipPath id="gO"><path d="M73 174h17v17H73zm0 0"/></clipPath><clipPath id="gP"><path d="M150 0a150 150 0 100 300 150 150 0 000-300zm0 0"/></clipPath><clipPath id="gQ"><path d="M78 179h11v11H78zm0 0"/></clipPath><clipPath id="gR"><path d="M150 0a150 150 0 100 300 150 150 0 000-300zm0 0"/></clipPath><clipPath id="gS"><path d="M76 177h15v15H76zm0 0"/></clipPath><clipPath id="gT"><path d="M150 0a150 150 0 100 300 150 150 0 000-300zm0 0"/></clipPath><clipPath id="gU"><path d="M80 181h5v5h-5zm0 0"/></clipPath><clipPath id="gV"><path d="M150 0a150 150 0 100 300 150 150 0 000-300zm0 0"/></clipPath><clipPath id="gW"><path d="M78 179h9v9h-9zm0 0"/></clipPath><clipPath id="gX"><path d="M150 0a150 150 0 100 300 150 150 0 000-300zm0 0"/></clipPath><clipPath id="gY"><path d="M73 175h11v10H73zm0 0"/></clipPath><clipPath id="gZ"><path d="M150 0a150 150 0 100 300 150 150 0 000-300zm0 0"/></clipPath><clipPath id="ha"><path d="M71 173h15v14H71zm0 0"/></clipPath><clipPath id="hb"><path d="M150 0a150 150 0 100 300 150 150 0 000-300zm0 0"/></clipPath><clipPath id="hc"><path d="M74 176h11v10H74zm0 0"/></clipPath><clipPath id="hd"><path d="M150 0a150 150 0 100 300 150 150 0 000-300zm0 0"/></clipPath><clipPath id="he"><path d="M72 173h15v15H72zm0 0"/></clipPath><clipPath id="hf"><path d="M150 0a150 150 0 100 300 150 150 0 000-300zm0 0"/></clipPath><clipPath id="hg"><path d="M72 173h5v5h-5zm0 0"/></clipPath><clipPath id="hh"><path d="M150 0a150 150 0 100 300 150 150 0 000-300zm0 0"/></clipPath><clipPath id="hi"><path d="M69 171h10v9H69zm0 0"/></clipPath><clipPath id="hj"><path d="M150 0a150 150 0 100 300 150 150 0 000-300zm0 0"/></clipPath><clipPath id="hk"><path d="M73 175h7v6h-7zm0 0"/></clipPath><clipPath id="hl"><path d="M150 0a150 150 0 100 300 150 150 0 000-300zm0 0"/></clipPath><clipPath id="hm"><path d="M71 173h11v10H71zm0 0"/></clipPath><clipPath id="hn"><path d="M150 0a150 150 0 100 300 150 150 0 000-300zm0 0"/></clipPath><clipPath id="ho"><path d="M76 172h5v5h-5zm0 0"/></clipPath><clipPath id="hp"><path d="M150 0a150 150 0 100 300 150 150 0 000-300zm0 0"/></clipPath><clipPath id="hq"><path d="M76 171h9v9h-9zm0 0"/></clipPath><clipPath id="hr"><path d="M150 0a150 150 0 100 300 150 150 0 000-300zm0 0"/></clipPath><clipPath id="hs"><path d="M74 169h9v10h-9zm0 0"/></clipPath><clipPath id="ht"><path d="M150 0a150 150 0 100 300 150 150 0 000-300zm0 0"/></clipPath><clipPath id="hu"><path d="M70 177h5v5h-5zm0 0"/></clipPath><clipPath id="hv"><path d="M150 0a150 150 0 100 300 150 150 0 000-300zm0 0"/></clipPath><clipPath id="hw"><path d="M68 175h10v9H68zm0 0"/></clipPath><clipPath id="hx"><path d="M150 0a150 150 0 100 300 150 150 0 000-300zm0 0"/></clipPath><clipPath id="hy"><path d="M72 179h5v5h-5zm0 0"/></clipPath><clipPath id="hz"><path d="M150 0a150 150 0 100 300 150 150 0 000-300zm0 0"/></clipPath><clipPath id="hA"><path d="M70 177h9v9h-9zm0 0"/></clipPath><clipPath id="hB"><path d="M150 0a150 150 0 100 300 150 150 0 000-300zm0 0"/></clipPath><clipPath id="hC"><path d="M75 176h3v3h-3zm0 0"/></clipPath><clipPath id="hD"><path d="M150 0a150 150 0 100 300 150 150 0 000-300zm0 0"/></clipPath><clipPath id="hE"><path d="M79 175h2v2h-2zm0 0"/></clipPath><clipPath id="hF"><path d="M150 0a150 150 0 100 300 150 150 0 000-300zm0 0"/></clipPath><clipPath id="hG"><path d="M74 180h2v3h-2zm0 0"/></clipPath><clipPath id="hH"><path d="M150 0a150 150 0 100 300 150 150 0 000-300zm0 0"/></clipPath><clipPath id="hI"><path d="M107 171h3v3h-3zm0 0"/></clipPath><clipPath id="hJ"><path d="M150 0a150 150 0 100 300 150 150 0 000-300zm0 0"/></clipPath><clipPath id="hK"><path d="M100 171h4v3h-4zm0 0"/></clipPath><clipPath id="hL"><path d="M150 0a150 150 0 100 300 150 150 0 000-300zm0 0"/></clipPath><clipPath id="hM"><path d="M104 168h3v3h-3zm0 0"/></clipPath><clipPath id="hN"><path d="M150 0a150 150 0 100 300 150 150 0 000-300zm0 0"/></clipPath><clipPath id="hO"><path d="M107 165h3v3h-3zm0 0"/></clipPath><clipPath id="hP"><path d="M150 0a150 150 0 100 300 150 150 0 000-300zm0 0"/></clipPath><clipPath id="hQ"><path d="M122 151h3v4h-3zm0 0"/></clipPath><clipPath id="hR"><path d="M150 0a150 150 0 100 300 150 150 0 000-300zm0 0"/></clipPath><clipPath id="hS"><path d="M116 151h3v4h-3zm0 0"/></clipPath><clipPath id="hT"><path d="M150 0a150 150 0 100 300 150 150 0 000-300zm0 0"/></clipPath><clipPath id="hU"><path d="M119 148h3v3h-3zm0 0"/></clipPath><clipPath id="hV"><path d="M150 0a150 150 0 100 300 150 150 0 000-300zm0 0"/></clipPath><clipPath id="hW"><path d="M122 145h3v3h-3zm0 0"/></clipPath><clipPath id="hX"><path d="M150 0a150 150 0 100 300 150 150 0 000-300zm0 0"/></clipPath><clipPath id="hY"><path d="M116 145h3v3h-3zm0 0"/></clipPath><clipPath id="hZ"><path d="M150 0a150 150 0 100 300 150 150 0 000-300zm0 0"/></clipPath><clipPath id="ia"><path d="M107 151h3v4h-3zm0 0"/></clipPath><clipPath id="ib"><path d="M150 0a150 150 0 100 300 150 150 0 000-300zm0 0"/></clipPath><clipPath id="ic"><path d="M100 151h4v4h-4zm0 0"/></clipPath><clipPath id="id"><path d="M150 0a150 150 0 100 300 150 150 0 000-300zm0 0"/></clipPath><clipPath id="ie"><path d="M104 148h3v3h-3zm0 0"/></clipPath><clipPath id="if"><path d="M150 0a150 150 0 100 300 150 150 0 000-300zm0 0"/></clipPath><clipPath id="ig"><path d="M107 145h3v3h-3zm0 0"/></clipPath><clipPath id="ih"><path d="M150 0a150 150 0 100 300 150 150 0 000-300zm0 0"/></clipPath><clipPath id="ii"><path d="M100 145h4v3h-4zm0 0"/></clipPath><clipPath id="ij"><path d="M150 0a150 150 0 100 300 150 150 0 000-300zm0 0"/></clipPath><clipPath id="ik"><path d="M91 151h3v4h-3zm0 0"/></clipPath><clipPath id="il"><path d="M150 0a150 150 0 100 300 150 150 0 000-300zm0 0"/></clipPath><clipPath id="im"><path d="M85 151h3v4h-3zm0 0"/></clipPath><clipPath id="in"><path d="M150 0a150 150 0 100 300 150 150 0 000-300zm0 0"/></clipPath><clipPath id="io"><path d="M88 148h3v3h-3zm0 0"/></clipPath><clipPath id="ip"><path d="M150 0a150 150 0 100 300 150 150 0 000-300zm0 0"/></clipPath><clipPath id="iq"><path d="M91 145h3v3h-3zm0 0"/></clipPath><clipPath id="ir"><path d="M150 0a150 150 0 100 300 150 150 0 000-300zm0 0"/></clipPath><clipPath id="is"><path d="M100 165h4v3h-4zm0 0"/></clipPath><clipPath id="it"><path d="M150 0a150 150 0 100 300 150 150 0 000-300zm0 0"/></clipPath><clipPath id="iu"><path d="M85 145h3v3h-3zm0 0"/></clipPath><clipPath id="iv"><path d="M150 0a150 150 0 100 300 150 150 0 000-300zm0 0"/></clipPath><clipPath id="iw"><path d="M100 126h4v3h-4zm0 0"/></clipPath><clipPath id="ix"><path d="M150 0a150 150 0 100 300 150 150 0 000-300zm0 0"/></clipPath><clipPath id="iy"><path d="M107 126h3v3h-3zm0 0"/></clipPath><clipPath id="iz"><path d="M150 0a150 150 0 100 300 150 150 0 000-300zm0 0"/></clipPath><clipPath id="iA"><path d="M103 129h4v3h-4zm0 0"/></clipPath><clipPath id="iB"><path d="M150 0a150 150 0 100 300 150 150 0 000-300zm0 0"/></clipPath><clipPath id="iC"><path d="M107 132h3v3h-3zm0 0"/></clipPath><clipPath id="iD"><path d="M150 0a150 150 0 100 300 150 150 0 000-300zm0 0"/></clipPath><clipPath id="iE"><path d="M100 132h4v3h-4zm0 0"/></clipPath><clipPath id="iF"><path d="M150 0a150 150 0 100 300 150 150 0 000-300zm0 0"/></clipPath><clipPath id="iG"><path d="M85 145h3v3h-3zm0 0"/></clipPath><clipPath id="iH"><path d="M150 0a150 150 0 100 300 150 150 0 000-300zm0 0"/></clipPath></defs><g clip-path="url(#a)"><g clip-path="url(#b)"><path d="M105 300h270V0H105zm0 0" fill="red"/></g></g><g clip-path="url(#c)"><g clip-path="url(#d)"><path d="M-75 300h180V0H-75zm0 0" fill="#060"/></g></g><g clip-path="url(#e)"><g clip-path="url(#f)"><path d="M163.7 196.5C141 195.8 37 131 36.4 120.7l5.8-9.6c10.3 15 116.5 78 126.9 75.8l-5.4 9.6" fill-rule="evenodd" fill="#ff0"/></g></g><g clip-path="url(#g)"><g clip-path="url(#h)"><path d="M164.2 196.8c-.4.7-1 .7-2.4.6-8.5-1-34.2-13.5-64.7-31.7-35.4-21.2-64.6-40.5-61.4-45.5l.8-1.6.2.1c-2.9 8.6 57.7 43.2 61.3 45.4 35 21.7 64.6 34.4 67.2 31l-1 1.7M41 109.8c-2 5.5 27.2 23.5 62.2 44.8 35 21.3 65.3 34.5 67.6 32.6l1-1.9c-.5.7-1.5.9-3 .4-9.5-2.7-34.2-14-64.8-32.6-30.6-18.6-57.3-35.7-61.4-43-.3-.4-.5-1.4-.5-2l-1 1.5" fill-rule="evenodd" fill="#ff0"/></g></g><g clip-path="url(#i)"><g clip-path="url(#j)"><path d="M164.2 196.8c-.4.7-1 .8-2.4.6-8.5-1-34.2-13.4-64.7-31.7-35.4-21.2-64.6-40.5-61.4-45.5l.8-1.5h.2c-2.9 8.6 57.7 43.2 61.3 45.4 35 21.7 64.5 34.4 67.2 31.1l-1 1.6zM41 109.8c-2 5.5 27.1 23.5 62.2 44.8 35 21.3 65.3 34.5 67.6 32.6l1-1.9c-.4.7-1.5.9-3 .4-9.5-2.7-34.2-14-64.8-32.6-30.6-18.6-57.3-35.7-61.4-43-.3-.4-.5-1.4-.5-2h0l-1 1.5zm0 0" fill="none" stroke-width=".4" stroke-linecap="round" stroke-linejoin="round" stroke="#000"/></g></g><g clip-path="url(#k)"><g clip-path="url(#l)"><path d="M105.1 127c22.7-.3 50.7-3.2 66.8-9.6l-3.5-5.6c-9.5 5.2-37.6 8.7-63.5 9.2-30.5-.3-52-3.1-62.9-10.4l-3.3 6c19.9 8.5 40.3 10.2 66.4 10.3" fill-rule="evenodd" fill="#ff0"/></g></g><g clip-path="url(#m)"><g clip-path="url(#n)"><path d="M169.8 111.8a80.2 80.2 0 01-25.4 6.8c-10 1.5-22.8 2.8-39.2 2.8-15.5 0-28.2-1-37.8-2.4-15.4-2-23.5-5.7-26.4-6.7l.9-1.5a90 90 0 0025.6 6.5c9.6 1.4 22.3 2.4 37.7 2.4 16.3 0 29-1.4 39-2.8 15-2 23.2-6 24.5-7l1 2m3.1 5.6c-.5 1-11 4.5-26.5 7.2a292.6 292.6 0 01-80.8.5c-16.2-2.6-24.6-6.1-27.7-7.3l.8-1.6a120 120 0 0027.2 7.2 289.7 289.7 0 0080.2-.5c15.8-2.6 24.5-5.9 25.7-7.4" fill-rule="evenodd" fill="#ff0"/></g></g><g clip-path="url(#o)"><g clip-path="url(#p)"><path d="M169.8 111.8a80.3 80.3 0 01-25.4 6.8c-10 1.5-22.8 2.8-39.2 2.8-15.5 0-28.2-1-37.8-2.4-15.4-2-23.5-5.7-26.4-6.7l.9-1.5a90.2 90.2 0 0025.6 6.5c9.6 1.4 22.3 2.4 37.7 2.4 16.3 0 29-1.4 39-2.8 15-2 23.2-6 24.5-7zm3 5.7c-.5 1-11 4.5-26.5 7.2a292.5 292.5 0 01-80.8.5c-16.2-2.5-24.6-6-27.7-7.3l.8-1.6a120 120 0 0027.2 7.2 289.7 289.7 0 0080.2-.5c15.8-2.6 24.5-5.9 25.7-7.4l1.1 2zm0 0" fill="none" stroke-width=".4" stroke-linecap="round" stroke-linejoin="round" stroke="#000"/></g></g><g clip-path="url(#q)"><g clip-path="url(#r)"><path d="M30.7 154.2c14 7.5 44.9 11.3 74.2 11.6 26.7 0 61.5-4.1 74.5-11l-.4-7.5c-4 6.3-41.3 12.4-74.4 12.2-33-.3-63.8-5.4-74-12v6.7" fill-rule="evenodd" fill="#ff0"/></g></g><g clip-path="url(#s)"><g clip-path="url(#t)"><path d="M180.1 146.8v1.8c-2 2.3-14.2 5.9-29.6 8.3-11.7 1.8-27 3.2-46 3.2-18 0-32.4-1.3-43.5-3-17.7-2.6-29-7-31.2-8.4v-2.1c6.8 4.5 25.2 7.8 31.4 8.8 11.1 1.7 25.4 3 43.4 3 18.9 0 34-1.3 45.7-3.1 11-1.6 26.7-5.7 29.8-8.5m0 6.4v1.8c-2 2.3-14.2 5.8-29.6 8.3-11.7 1.8-27 3.2-46 3.2-18 0-32.4-1.3-43.5-3a109 109 0 01-31.2-8.5v-2c6.8 4.5 25.2 7.8 31.4 8.8 11 1.7 25.4 3 43.4 3 18.9 0 34-1.4 45.7-3.1 11-1.6 26.7-5.8 29.8-8.5" fill-rule="evenodd" fill="#ff0"/><path d="M180.1 146.8v1.8c-2 2.3-14.2 5.9-29.6 8.3-11.7 1.8-27 3.2-46 3.2-18 0-32.4-1.3-43.5-3-17.7-2.6-29-7-31.2-8.4v-2.1c6.8 4.5 25.2 7.8 31.4 8.8 11.1 1.7 25.4 3 43.4 3 18.9 0 34-1.3 45.7-3.1 11-1.6 26.7-5.7 29.8-8.5zm0 6.4v1.8c-2 2.3-14.2 5.8-29.6 8.3-11.7 1.8-27 3.2-46 3.2-18 0-32.4-1.3-43.5-3-17.7-2.6-29-7.1-31.2-8.5v-2c6.8 4.5 25.2 7.8 31.4 8.8 11 1.7 25.4 3 43.4 3 18.9 0 34-1.4 45.7-3.1 11-1.6 26.7-5.8 29.8-8.5h0zm0 0" fill="none" stroke-width=".4" stroke-linecap="round" stroke-linejoin="round" stroke="#000"/></g></g><g clip-path="url(#u)"><g clip-path="url(#v)"><path d="M104.8 195.2c-32-.2-59.5-8.7-65.3-10.1l4.2 6.6c10.3 4.3 37 10.7 61.5 10 24.3-.7 45.6-2.6 60.6-9.9l4.4-6.8c-10.2 4.8-45 10.2-65.4 10.2" fill-rule="evenodd" fill="#ff0"/></g></g><g clip-path="url(#w)"><g clip-path="url(#x)"><path d="M171.2 184v.1l-1.4 2.5a160 160 0 01-29 6.4c-9.8 1.4-16 2.7-35.6 3-36.8-.9-60.6-8-66.2-9.8l-.8-1.6c21.3 5.5 43 9.4 67 9.8 18-.4 25.6-1.7 35.4-3 17.4-2.8 26.2-5.6 28.9-6.5l-.2-.1 2-.7m-3.8 6.2a97.1 97.1 0 01-2 2.9 207.7 207.7 0 01-60.7 9.3c-28.3-.4-51.6-6-62.5-10.7l-1-1.5.2-.3 1.5.6a201.5 201.5 0 0099 6.8c16.3-3.2 23-5.7 25-6.8l.5-.3" fill-rule="evenodd" fill="#ff0"/></g></g><g clip-path="url(#y)"><g clip-path="url(#z)"><path d="M171.2 184v.1l-1.4 2.5c-3.8 1.3-14 4.3-29 6.4-9.8 1.4-16 2.7-35.6 3-36.7-.9-60.6-8-66.2-9.8l-.8-1.6c21.3 5.5 43 9.4 67 9.8 18-.4 25.6-1.7 35.4-3 17.4-2.8 26.2-5.6 28.9-6.5l-.2-.1 2-.7zm-3.7 6.3a92.2 92.2 0 01-2 2.9 208.2 208.2 0 01-60.7 9.3c-28.3-.4-51.6-6-62.5-10.7l-1-1.5.2-.3 1.5.6a201.4 201.4 0 0099 6.8c16.3-3.2 23-5.7 25-6.8zm0 0" fill="none" stroke-width=".4" stroke-linecap="round" stroke-linejoin="round" stroke="#000"/></g></g><g clip-path="url(#A)"><g clip-path="url(#B)"><path d="M104.7 76a74.5 74.5 0 0174.5 74 74.3 74.3 0 01-148.7 0c0-40.7 33.4-74 74.2-74m67 72.3c0 21.1-10.8 40-19.5 48.4a69.8 69.8 0 01-47.6 19.8 70.7 70.7 0 01-46.8-19.6 71 71 0 01-19.3-47.4c1.3-23 10.3-39 23.4-50a70 70 0 0145.1-16 69 69 0 0149.9 25c8.9 10.6 12.7 22.2 14.7 39.8" fill-rule="evenodd" fill="#ff0"/></g></g><g clip-path="url(#C)"><g clip-path="url(#D)"><path d="M105 83.6a66.7 66.7 0 0166.4 66.4c0 36.5-30 66.4-66.4 66.4A66.7 66.7 0 0138.6 150c0-36.5 30-66.4 66.4-66.4zm0-1.6c37.3 0 68 30.6 68 68s-30.7 68-68 68-68-30.6-68-68 30.7-68 68-68zm0-4.6c39.8 0 72.6 32.7 72.6 72.7s-32.8 72.6-72.7 72.6a73 73 0 01-72.6-72.6A73 73 0 01105 77.4zm0-1.6a74.4 74.4 0 0174.2 74.3 74.4 74.4 0 01-74.3 74.2 74.4 74.4 0 01-74.2-74.2c0-41 33.3-74.3 74.2-74.3zm0 0" fill="none" stroke-width=".4" stroke-linecap="round" stroke-linejoin="round" stroke="#000"/></g></g><g clip-path="url(#E)"><g clip-path="url(#F)"><path d="M107.3 74.6v.9h-4.6v-.8H101v150.9h1.7v-.7h4.7v.7h1.6v-151" fill-rule="evenodd" fill="#ff0"/></g></g><g clip-path="url(#G)"><g clip-path="url(#H)"><path d="M102.8 224.7h4.5m-4.5-149.2h4.5" fill="none" stroke-width=".4" stroke-linecap="round" stroke-linejoin="round" stroke="#000"/></g></g><g clip-path="url(#I)"><g clip-path="url(#J)"><path d="M101 74.7h1.7v150.9H101v-151zm6.3 0h1.7v150.9h-1.6zm0 0" fill="none" stroke-width=".4" stroke-linecap="round" stroke-linejoin="round" stroke="#000"/></g></g><g clip-path="url(#K)"><g clip-path="url(#L)"><path d="M30.4 147c9.3-8.7 43.7-14.2 74.2-14 30.4 0 66.5 6.3 74.4 13.7v6.4c-6.5-6.2-34.5-13.5-74.4-13.6-39.8-.1-68.7 7.5-74.2 13.8v-6.4" fill-rule="evenodd" fill="#ff0"/></g></g><g clip-path="url(#M)"><g clip-path="url(#N)"><path d="M179.2 147.4v5.6m-148.8-5.8v5.5" fill="none" stroke-width=".4" stroke-linecap="round" stroke-linejoin="round" stroke="#000"/></g></g><g clip-path="url(#O)"><g clip-path="url(#P)"><path d="M105 132.2c17.5 0 34.5 1.7 48 4.3 14 2.8 23.7 6.3 27.1 10.2v2c-4-5-17.2-8.5-27.4-10.6a264.5 264.5 0 00-96.4 0c-10.2 2-25 6.4-26.5 10.5v-2c1-2.8 11.6-7.2 26.2-10 13.3-2.6 30.5-4.4 49-4.4m0 6.4c17.5 0 34.5 1.6 48 4.3 14 2.8 23.7 6.2 27 10.1v2c-4-4.9-17.1-8.5-27.3-10.5a265.8 265.8 0 00-96.5 0c-10.6 2.2-24.7 6.4-26.5 10.5v-2c1-2.9 11.5-7.1 26.3-10 13.3-2.7 30.4-4.4 49-4.4" fill-rule="evenodd" fill="#ff0"/></g></g><g clip-path="url(#Q)"><g clip-path="url(#R)"><path d="M105 132.2c17.5 0 34.5 1.7 48 4.3 14 2.8 23.7 6.3 27.1 10.2v2c-4-5-17.2-8.5-27.4-10.6a264.5 264.5 0 00-96.4 0c-10.2 2-25 6.4-26.5 10.5v-2c1-2.8 11.6-7.2 26.2-10 13.3-2.6 30.5-4.4 49-4.4zm0 6.4c17.5 0 34.5 1.6 48 4.3 14 2.7 23.7 6.2 27 10.1v2c-4-4.9-17.1-8.5-27.3-10.5a265.4 265.4 0 00-96.5 0c-10.6 2.2-24.7 6.4-26.5 10.5v-2c1-2.9 11.5-7.1 26.3-10 13.3-2.7 30.4-4.4 49-4.4zm0 0" fill="none" stroke-width=".4" stroke-linecap="round" stroke-linejoin="round" stroke="#000"/></g></g><g clip-path="url(#S)"><g clip-path="url(#T)"><path d="M104.6 99.7c27.6-.1 51.8 3.9 62.8 9.5l4 7c-9.6-5.2-35.6-10.5-66.7-9.7-25.4.1-52.6 2.8-66.2 10l4.8-8c11.2-5.8 37.5-8.7 61.3-8.8" fill-rule="evenodd" fill="#ff0"/></g></g><g clip-path="url(#U)"><g clip-path="url(#V)"><path d="M168 110.4l2.8 4.4" fill="none" stroke-width=".4" stroke-linecap="round" stroke-linejoin="round" stroke="#000"/></g></g><g clip-path="url(#W)"><g clip-path="url(#X)"><path d="M105 99.1c15 0 30 .8 41.6 2.9a67.5 67.5 0 0121.5 7l1.7 2.8c-3-3.3-14-6.4-24-8.2-11.5-2-25.7-2.7-40.8-2.9a248 248 0 00-41.8 3.1 68 68 0 00-20.8 6.4l1.5-2.3c4-2.1 10.7-4.1 19-5.7 11.4-2.1 26.1-3 42-3m0 6.3c15.8 0 31 .8 43.2 3 11.3 2 22 5.3 23.6 7l1.2 2c-3.8-2.4-13.1-5.1-25-7.4-12-2.2-27.3-3-43-3-17.7 0-31.6 1-43.4 3a76.8 76.8 0 00-23.4 7.3l1.1-2.2a78.1 78.1 0 0122-6.7c12.2-2.3 26.2-3 43.8-3" fill-rule="evenodd" fill="#ff0"/></g></g><g clip-path="url(#Y)"><g clip-path="url(#Z)"><path d="M105 99.1c15 0 30 .8 41.6 2.9a67.5 67.5 0 0121.5 7l1.7 2.8c-3-3.3-14-6.4-24-8.2-11.5-2-25.7-2.7-40.8-2.9-15.9 0-30.5 1-41.8 3.1a68 68 0 00-20.8 6.4l1.5-2.3c4.1-2.1 10.7-4.1 19-5.7 11.4-2.1 26.1-3 42-3.1zm0 6.4c15.7 0 31 .8 43 3 11.4 2.1 22.1 5.2 23.7 7l1.2 2c-3.8-2.4-13-5.1-25-7.4-12-2.2-27.3-3-43-3-17.7 0-31.6 1-43.4 3a76.7 76.7 0 00-23.4 7.3l1.1-2.2a78 78 0 0122-6.7c12.2-2.3 26.2-3 43.8-3zm0 0" fill="none" stroke-width=".4" stroke-linecap="round" stroke-linejoin="round" stroke="#000"/></g></g><g clip-path="url(#aa)"><g clip-path="url(#ab)"><path d="M141.9 181c-13.7-2.6-27.4-3-37-2.9-46 .6-60.9 9.5-62.7 12.2l-3.4-5.6c11.7-8.5 36.8-13.3 66.4-12.8 15.4.3 28.7 1.3 39.8 3.4L142 181" fill-rule="evenodd" fill="#ff0"/></g></g><g clip-path="url(#ac)"><g clip-path="url(#ad)"><path d="M39.5 185.5l2.3 3.9" fill="none" stroke-width=".4" stroke-linecap="round" stroke-linejoin="round" stroke="#000"/></g></g><g clip-path="url(#ae)"><g clip-path="url(#af)"><path d="M105.3 170.9c13.2.2 27 .9 40.3 3.5l-1 1.6c-12-2.4-23.5-3.2-39.3-3.4-17 0-35 1.2-51.5 6-5.3 1.6-14.5 4.9-14.8 7.6l-.9-1.6c.2-2.4 8.1-5.5 15.3-7.6 16.5-4.8 34.7-6 51.9-6.1m-.6 6.4c12.8.2 25.4.8 37.5 3l-.9 1.6c-11.2-2.1-23.3-2.9-36.6-2.8a177 177 0 00-49.1 5.7c-4.8 1.3-12.6 4.4-13.4 6.9l-.8-1.5c.2-1.4 5-4.5 13.8-7 17.1-5 33.1-5.7 49.5-5.9" fill-rule="evenodd" fill="#ff0"/></g></g><g clip-path="url(#ag)"><g clip-path="url(#ah)"><path d="M105.3 170.9c13.2.2 27 .9 40.3 3.5l-1 1.6a210 210 0 00-39.3-3.4c-17 0-35 1.2-51.5 6-5.3 1.6-14.5 4.9-14.8 7.6l-.9-1.6c.2-2.4 8.1-5.5 15.3-7.6 16.5-4.8 34.7-6 51.9-6.1zm-.6 6.4c12.8.2 25.4.8 37.5 3l-.9 1.6c-11.2-2.1-23.3-2.9-36.6-2.8-17-.2-34.2 1.4-49.1 5.7-4.8 1.3-12.6 4.4-13.4 6.9l-.8-1.5c.2-1.4 5-4.5 13.8-7 17.1-5 33.1-5.7 49.5-5.9zm0 0" fill="none" stroke-width=".4" stroke-linecap="round" stroke-linejoin="round" stroke="#000"/></g></g><g clip-path="url(#ai)"><g clip-path="url(#aj)"><path d="M42.7 108.4c22.8-.3 128.2 64.4 128.5 76.3l-6.6 10c-3-13.8-109.8-76.8-127.5-75.6l5.6-10.7" fill-rule="evenodd" fill="#ff0"/></g></g><g clip-path="url(#ak)"><g clip-path="url(#al)"><path d="M42.5 109l-5.1 9.5m133.3 67l-5.6 8.6" fill="none" stroke-width=".4" stroke-linecap="round" stroke-linejoin="round" stroke="#000"/></g></g><g clip-path="url(#am)"><g clip-path="url(#an)"><path d="M171.8 185.4c2.7-5.3-26.2-27-62-48.2-36.6-20.7-63-33-67.8-29.3l-1 2 .2-.4c.9-.7 2.4-.7 3-.7 8.3.1 32 11 65.3 30.1 14.5 8.5 61.5 38.6 61.3 47.1 0 .7.1.9-.2 1.2l1.2-1.8M36.5 118.7c4.2-2.8 35.3 11 67.9 30.6 32.5 19.7 63.5 42 60.7 46.2l-1 1.4-.3.3s.5-.6 0-2.1c-1.5-4.6-23.5-22.2-60-44.2-35.6-21.2-65.3-34-68.2-30.4l.9-1.8" fill-rule="evenodd" fill="#ff0"/></g></g><g clip-path="url(#ao)"><g clip-path="url(#ap)"><path d="M171.8 185.4c2.7-5.3-26.2-27-62-48.2-36.6-20.7-63-33-67.8-29.3l-1 2 .2-.4c.9-.7 2.4-.7 3-.7 8.3.1 32 11 65.3 30.1 14.5 8.5 61.5 38.6 61.3 47 0 .8 0 1-.2 1.3zM36.5 118.7c4.2-2.9 35.3 11 67.9 30.6 32.5 19.7 63.5 42 60.7 46.1l-1 1.5-.3.3s.5-.6 0-2.1c-1.5-4.6-23.5-22.2-60-44.2-35.6-21.3-65.3-34-68.2-30.4l.9-1.8h0zm0 0" fill="none" stroke-width=".4" stroke-linecap="round" stroke-linejoin="round" stroke="#000"/></g></g><g clip-path="url(#aq)"><g clip-path="url(#ar)"><path d="M60.5 158.3a44 44 0 0013 31.3 44.3 44.3 0 0076-31.3V98.9l-89-.1v59.5" fill-rule="evenodd" fill="#fff"/></g></g><g clip-path="url(#as)"><g clip-path="url(#at)"><path d="M60.5 158.3a44 44 0 0013 31.3 44.3 44.3 0 0076-31.3V98.9l-89-.1zm0 0" fill="none" stroke-width=".5" stroke="#000"/></g></g><g clip-path="url(#au)"><g clip-path="url(#av)"><path d="M130.4 118v40.6l-.2 3.2a25 25 0 01-7.3 14.7 25.5 25.5 0 01-18 7.5c-7 0-13.3-3-18-7.6a25.5 25.5 0 01-7.5-18V118l51 .1M62 158.3a42.7 42.7 0 0085.4 0V101H62.2v57.5" fill-rule="evenodd" fill="red"/></g></g><g clip-path="url(#aw)"><g clip-path="url(#ax)"><path d="M130.4 118v40.6l-.2 3.2a25 25 0 01-7.3 14.7 25.5 25.5 0 01-18 7.5c-7 0-13.3-3-18-7.6a25.5 25.5 0 01-7.5-18V118l51 .1h0zM62 158.3v0a42.7 42.7 0 0085.4 0V101H62.2v57.5" fill="none" stroke-width=".4" stroke="#000"/></g></g><g clip-path="url(#ay)"><g clip-path="url(#az)"><path d="M99.5 151.8c0 1.7.6 3.2 1.6 4.3 1 1 2.5 1.8 4 1.8 1.6 0 3-.7 4-1.8a6.3 6.3 0 001.6-4.3v-8H99.5v8" fill="#039"/></g></g><g clip-path="url(#aA)"><g clip-path="url(#aB)"><path d="M99.4 171.1c0 1.7.7 3.2 1.7 4.3 1 1.1 2.4 1.8 4 1.8 1.5 0 3-.7 4-1.8a6.2 6.2 0 001.6-4.2V163H99.4v8" fill="#039"/></g></g><g clip-path="url(#aC)"><g clip-path="url(#aD)"><path d="M83.9 151.8a6.3 6.3 0 001.6 4.3c1 1.1 2.5 1.8 4 1.8 1.6 0 3-.7 4-1.8A6.2 6.2 0 0095 152v-8.1H84v8" fill="#039"/></g></g><g clip-path="url(#aE)"><g clip-path="url(#aF)"><path d="M115 151.8a6.3 6.3 0 001.7 4.3c1 1.1 2.4 1.8 4 1.8 1.5 0 3-.7 4-1.8a6.3 6.3 0 001.6-4.3v-8h-11.2v8" fill="#039"/></g></g><g clip-path="url(#aG)"><g clip-path="url(#aH)"><path d="M99.5 132.3c0 1.7.6 3.2 1.6 4.3 1 1 2.5 1.7 4 1.7 1.6 0 3-.6 4-1.7s1.6-2.6 1.6-4.3v-8H99.5v8" fill="#039"/></g></g><g clip-path="url(#aI)"><g clip-path="url(#aJ)"><path d="M76.2 106.2v2.6h-3v-2.6h3" fill-rule="evenodd" fill="#ff0"/></g></g><g clip-path="url(#aK)"><g clip-path="url(#aL)"><path d="M67.6 115.8c.1-4.1 3-5.1 3.1-5.1 0 0 3.2 1 3.2 5.2h-6.3" fill-rule="evenodd" fill="#ff0"/></g></g><g clip-path="url(#aM)"><g clip-path="url(#aN)"><path d="M65.1 110.8l-.5 4.7h3.1c0-4 3-4.6 3-4.6.1 0 3 1 3.1 4.6H77l-.5-4.8H65" fill-rule="evenodd" fill="#ff0"/></g></g><g clip-path="url(#aO)"><g clip-path="url(#aP)"><path d="M65.1 110.8l-.5 4.7h3.1c0-3.9 3-4.6 3-4.5.1 0 3 .8 3.1 4.5H77l-.5-4.8zm0 0" fill="none" stroke-width=".4" stroke="#000"/></g></g><g clip-path="url(#aQ)"><g clip-path="url(#aR)"><path d="M64.4 115.5H77c.3 0 .5.3.5.6 0 .4-.2.6-.5.6H64.4c-.3 0-.5-.2-.5-.6 0-.3.2-.6.5-.6" fill-rule="evenodd" fill="#ff0"/></g></g><g clip-path="url(#aS)"><g clip-path="url(#aT)"><path d="M64.4 115.5H77c.3 0 .5.3.5.6 0 .4-.2.6-.5.6H64.4c-.3 0-.5-.2-.5-.6 0-.3.2-.6.5-.6zm0 0" fill="none" stroke-width=".4" stroke="#000"/></g></g><g clip-path="url(#aU)"><g clip-path="url(#aV)"><path d="M69 115.5c0-2.5 1.7-3.2 1.7-3.2s1.8.8 1.8 3.2H69" fill-rule="evenodd" fill="#ff0"/></g></g><g clip-path="url(#aW)"><g clip-path="url(#aX)"><path d="M69 115.5c0-2.5 1.7-3.2 1.7-3.2s1.8.8 1.8 3.2H69" fill="none" stroke-width=".4" stroke="#000"/></g></g><g clip-path="url(#aY)"><g clip-path="url(#aZ)"><path d="M64.7 108.8h12.1c.3 0 .5.2.5.5s-.2.6-.5.6H64.7c-.3 0-.5-.3-.5-.6s.2-.5.5-.5" fill-rule="evenodd" fill="#ff0"/></g></g><g clip-path="url(#ba)"><g clip-path="url(#bb)"><path d="M64.7 108.8h12.1c.3 0 .5.2.5.5s-.2.5-.5.5H64.7c-.3 0-.5-.2-.5-.5s.2-.5.5-.5zm0 0" fill="none" stroke-width=".4" stroke="#000"/></g></g><g clip-path="url(#bc)"><g clip-path="url(#bd)"><path d="M65 109.9h11.6c.2 0 .4.2.4.5s-.2.5-.4.5H64.9c-.2 0-.4-.2-.4-.5s.2-.5.4-.5" fill-rule="evenodd" fill="#ff0"/></g></g><g clip-path="url(#be)"><g clip-path="url(#bf)"><path d="M65 109.9h11.6c.2 0 .4.2.4.5s-.2.5-.4.5H64.9c-.2 0-.4-.2-.4-.5s.2-.5.4-.5zm0 0" fill="none" stroke-width=".4" stroke="#000"/></g></g><g clip-path="url(#bg)"><g clip-path="url(#bh)"><path d="M68.7 102h1v.6h.6v-.7h.9v.7h.7v-.7h.9v1.5c0 .2-.2.4-.4.4H69c-.2 0-.4-.2-.4-.4v-1.5" fill-rule="evenodd" fill="#ff0"/></g></g><g clip-path="url(#bi)"><g clip-path="url(#bj)"><path d="M68.7 102h.9v.6h.7v-.7h1v.7h.6v-.7h1v1.5c0 .2-.3.4-.5.4h-3.3c-.2 0-.4-.2-.4-.4v-1.5zm0 0" fill="none" stroke-width=".4" stroke="#000"/></g></g><g clip-path="url(#bk)"><g clip-path="url(#bl)"><path d="M72.1 104l.2 4.8h-3.2l.2-4.9zm0 0" fill-rule="evenodd" fill="#ff0"/></g></g><g clip-path="url(#bm)"><g clip-path="url(#bn)"><path d="M72.1 104l.2 4.8h-3.2l.2-4.9h2.8" fill="none" stroke-width=".4" stroke="#000"/></g></g><g clip-path="url(#bo)"><g clip-path="url(#bp)"><path d="M72.7 104.3h.9v.6h.6v-.6h1v.6h.6v-.6h1v1.5c0 .2-.2.4-.5.4h-3.2c-.2 0-.4-.2-.4-.4v-1.5" fill-rule="evenodd" fill="#ff0"/></g></g><g clip-path="url(#bq)"><g clip-path="url(#br)"><path d="M76.2 106.2v2.6h-3v-2.6h3zm0 0" fill="none" stroke-width=".4" stroke="#000"/></g></g><g clip-path="url(#bs)"><g clip-path="url(#bt)"><path d="M72.7 104.3h.9v.6h.6v-.6h1v.6h.6v-.6h1v1.5c0 .2-.2.4-.5.4h-3.2c-.2 0-.4-.2-.4-.4zm0 0" fill="none" stroke-width=".4" stroke="#000"/></g></g><g clip-path="url(#bu)"><g clip-path="url(#bv)"><path d="M64.7 104.3h1v.6h.6v-.6h.9v.6h.7v-.6h.9v1.5c0 .2-.2.4-.4.4H65c-.2 0-.4-.2-.4-.4v-1.5" fill-rule="evenodd" fill="#ff0"/></g></g><g clip-path="url(#bw)"><g clip-path="url(#bx)"><path d="M64.7 104.3h1v.6h.6v-.6h.9v.6h.7v-.6h.9v1.5c0 .2-.2.4-.4.4H65c-.2 0-.4-.2-.4-.4v-1.5zm0 0" fill="none" stroke-width=".4" stroke="#000"/></g></g><g clip-path="url(#by)"><g clip-path="url(#bz)"><path d="M68.2 106.2l.1 2.6h-3v-2.6h3" fill-rule="evenodd" fill="#ff0"/></g></g><g clip-path="url(#bA)"><g clip-path="url(#bB)"><path d="M68.2 106.2l.1 2.6h-3v-2.6h3-.1zm0 0" fill="none" stroke-width=".4" stroke="#000"/></g></g><g clip-path="url(#bC)"><g clip-path="url(#bD)"><path d="M70.4 105.5c0-.5.7-.5.7 0v1.1h-.7v-1.1" fill-rule="evenodd"/></g></g><g clip-path="url(#bE)"><g clip-path="url(#bF)"><path d="M74.4 107.1c0-.4.6-.4.6 0v1h-.6v-1" fill-rule="evenodd"/></g></g><g clip-path="url(#bG)"><g clip-path="url(#bH)"><path d="M66.4 107.1c0-.4.7-.4.6 0v1h-.6v-1" fill-rule="evenodd"/></g></g><g clip-path="url(#bI)"><g clip-path="url(#bJ)"><path d="M110.4 106.2l.1 2.6h-3v-2.6h3" fill-rule="evenodd" fill="#ff0"/></g></g><g clip-path="url(#bK)"><g clip-path="url(#bL)"><path d="M102 115.8c0-4.1 3-5.1 3-5.1s3.2 1 3.2 5.2h-6.3" fill-rule="evenodd" fill="#ff0"/></g></g><g clip-path="url(#bM)"><g clip-path="url(#bN)"><path d="M99.4 110.8l-.5 4.7h3c.1-4 3-4.6 3.1-4.6.1 0 3 1 3.1 4.6h3.1l-.5-4.8H99.4" fill-rule="evenodd" fill="#ff0"/></g></g><g clip-path="url(#bO)"><g clip-path="url(#bP)"><path d="M99.4 110.8l-.5 4.7h3c.1-3.9 3-4.6 3.1-4.5.1 0 3 .8 3.1 4.5h3.1l-.5-4.8zm0 0" fill="none" stroke-width=".4" stroke="#000"/></g></g><g clip-path="url(#bQ)"><g clip-path="url(#bR)"><path d="M98.7 115.5h12.7c.3 0 .5.3.5.6 0 .4-.2.6-.5.6H98.7c-.3 0-.5-.2-.5-.6 0-.3.2-.6.5-.6" fill-rule="evenodd" fill="#ff0"/></g></g><g clip-path="url(#bS)"><g clip-path="url(#bT)"><path d="M98.7 115.5h12.7c.3 0 .5.3.5.6 0 .4-.2.6-.5.6H98.7c-.3 0-.5-.2-.5-.6 0-.3.2-.6.5-.6zm0 0" fill="none" stroke-width=".4" stroke="#000"/></g></g><g clip-path="url(#bU)"><g clip-path="url(#bV)"><path d="M103.3 115.5c0-2.5 1.7-3.2 1.7-3.2s1.8.8 1.8 3.2h-3.5" fill-rule="evenodd" fill="#ff0"/></g></g><g clip-path="url(#bW)"><g clip-path="url(#bX)"><path d="M103.3 115.5c0-2.5 1.7-3.2 1.7-3.2s1.8.8 1.8 3.2h-3.5" fill="none" stroke-width=".4" stroke="#000"/></g></g><g clip-path="url(#bY)"><g clip-path="url(#bZ)"><path d="M99 108.8H111c.3 0 .5.2.5.5s-.2.6-.5.6H99c-.2 0-.4-.3-.4-.6s.2-.5.4-.5" fill-rule="evenodd" fill="#ff0"/></g></g><g clip-path="url(#ca)"><g clip-path="url(#cb)"><path d="M99 108.8H111c.3 0 .5.2.5.5s-.2.5-.5.5H99c-.2 0-.4-.2-.4-.5s.2-.5.4-.5zm0 0" fill="none" stroke-width=".4" stroke="#000"/></g></g><g clip-path="url(#cc)"><g clip-path="url(#cd)"><path d="M99.2 109.9h11.7c.2 0 .4.2.4.5s-.2.5-.4.5H99.2c-.2 0-.4-.2-.4-.5s.2-.5.4-.5" fill-rule="evenodd" fill="#ff0"/></g></g><g clip-path="url(#ce)"><g clip-path="url(#cf)"><path d="M99.2 109.9h11.7c.2 0 .4.2.4.5s-.2.5-.4.5H99.2c-.2 0-.4-.2-.4-.5s.2-.5.4-.5zm0 0" fill="none" stroke-width=".4" stroke="#000"/></g></g><g clip-path="url(#cg)"><g clip-path="url(#ch)"><path d="M103 102h1v.6h.6v-.7h.9v.7h.6v-.7h1v1.5c0 .2-.2.4-.4.4h-3.3c-.2 0-.4-.2-.4-.4v-1.5" fill-rule="evenodd" fill="#ff0"/></g></g><g clip-path="url(#ci)"><g clip-path="url(#cj)"><path d="M103 102h.9v.6h.7v-.7h.9v.7h.7v-.7h1v1.5c0 .2-.3.4-.5.4h-3.3c-.2 0-.4-.2-.4-.4v-1.5zm0 0" fill="none" stroke-width=".4" stroke="#000"/></g></g><g clip-path="url(#ck)"><g clip-path="url(#cl)"><path d="M106.4 104l.2 4.8h-3.2l.2-4.9zm0 0" fill-rule="evenodd" fill="#ff0"/></g></g><g clip-path="url(#cm)"><g clip-path="url(#cn)"><path d="M106.4 104l.2 4.8h-3.2l.2-4.9h2.8" fill="none" stroke-width=".4" stroke="#000"/></g></g><g clip-path="url(#co)"><g clip-path="url(#cp)"><path d="M107 104.3h.9v.6h.6v-.6h1v.6h.6v-.6h1v1.5c0 .2-.3.4-.5.4h-3.2c-.2 0-.4-.2-.4-.4v-1.5" fill-rule="evenodd" fill="#ff0"/></g></g><g clip-path="url(#cq)"><g clip-path="url(#cr)"><path d="M110.4 106.2l.1 2.6h-3v-2.6h3zm0 0" fill="none" stroke-width=".4" stroke="#000"/></g></g><g clip-path="url(#cs)"><g clip-path="url(#ct)"><path d="M107 104.3h.9v.6h.6v-.6h1v.6h.6v-.6h1v1.5c0 .2-.3.4-.5.4h-3.2c-.2 0-.4-.2-.4-.4zm0 0" fill="none" stroke-width=".4" stroke="#000"/></g></g><g clip-path="url(#cu)"><g clip-path="url(#cv)"><path d="M99 104.3h1v.6h.6v-.6h.9v.6h.7v-.6h.9v1.5c0 .2-.2.4-.4.4h-3.3c-.2 0-.4-.2-.4-.4v-1.5" fill-rule="evenodd" fill="#ff0"/></g></g><g clip-path="url(#cw)"><g clip-path="url(#cx)"><path d="M99 104.3h1v.6h.6v-.6h.9v.6h.7v-.6h.9v1.5c0 .2-.2.4-.4.4h-3.3c-.2 0-.4-.2-.4-.4v-1.5zm0 0" fill="none" stroke-width=".4" stroke="#000"/></g></g><g clip-path="url(#cy)"><g clip-path="url(#cz)"><path d="M102.5 106.2v2.6h-3v-2.6h3" fill-rule="evenodd" fill="#ff0"/></g></g><g clip-path="url(#cA)"><g clip-path="url(#cB)"><path d="M102.5 106.2v2.6h-3v-2.6h3zm0 0" fill="none" stroke-width=".4" stroke="#000"/></g></g><g clip-path="url(#cC)"><g clip-path="url(#cD)"><path d="M104.7 105.5c0-.5.7-.5.7 0v1.1h-.7v-1.1" fill-rule="evenodd"/></g></g><g clip-path="url(#cE)"><g clip-path="url(#cF)"><path d="M108.7 107.1c0-.4.6-.4.6 0v1h-.6v-1" fill-rule="evenodd"/></g></g><g clip-path="url(#cG)"><g clip-path="url(#cH)"><path d="M100.7 107.1c0-.4.6-.4.6 0v1h-.6v-1" fill-rule="evenodd"/></g></g><g clip-path="url(#cI)"><g clip-path="url(#cJ)"><path d="M144.4 106.2v2.6h-3v-2.6h3" fill-rule="evenodd" fill="#ff0"/></g></g><g clip-path="url(#cK)"><g clip-path="url(#cL)"><path d="M135.8 115.8c.1-4.1 3-5.1 3-5.1.1 0 3.3 1 3.3 5.2h-6.3" fill-rule="evenodd" fill="#ff0"/></g></g><g clip-path="url(#cM)"><g clip-path="url(#cN)"><path d="M133.3 110.8l-.5 4.7h3c.1-4 3-4.6 3.1-4.6.1 0 3 1 3.1 4.6h3.1l-.5-4.8h-11.3" fill-rule="evenodd" fill="#ff0"/></g></g><g clip-path="url(#cO)"><g clip-path="url(#cP)"><path d="M133.3 110.8l-.5 4.7h3c.1-3.9 3-4.6 3.1-4.5.1 0 3 .8 3.1 4.5h3.1l-.5-4.8zm0 0" fill="none" stroke-width=".4" stroke="#000"/></g></g><g clip-path="url(#cQ)"><g clip-path="url(#cR)"><path d="M132.6 115.5h12.7c.3 0 .5.3.5.6 0 .4-.2.6-.5.6h-12.7c-.3 0-.5-.2-.5-.6 0-.3.2-.6.5-.6" fill-rule="evenodd" fill="#ff0"/></g></g><g clip-path="url(#cS)"><g clip-path="url(#cT)"><path d="M132.6 115.5h12.7c.3 0 .5.3.5.6 0 .4-.2.6-.5.6h-12.7c-.3 0-.5-.2-.5-.6 0-.3.2-.6.5-.6zm0 0" fill="none" stroke-width=".4" stroke="#000"/></g></g><g clip-path="url(#cU)"><g clip-path="url(#cV)"><path d="M137.2 115.5c0-2.5 1.7-3.2 1.7-3.2s1.8.8 1.8 3.2h-3.5" fill-rule="evenodd" fill="#ff0"/></g></g><g clip-path="url(#cW)"><g clip-path="url(#cX)"><path d="M137.2 115.5c0-2.5 1.7-3.2 1.7-3.2s1.8.8 1.8 3.2h-3.5" fill="none" stroke-width=".4" stroke="#000"/></g></g><g clip-path="url(#cY)"><g clip-path="url(#cZ)"><path d="M132.8 108.8H145c.3 0 .5.2.5.5s-.2.6-.5.6h-12.2c-.2 0-.4-.3-.4-.6s.2-.5.4-.5" fill-rule="evenodd" fill="#ff0"/></g></g><g clip-path="url(#da)"><g clip-path="url(#db)"><path d="M132.8 108.8H145c.3 0 .5.2.5.5s-.2.5-.5.5h-12.2c-.2 0-.4-.2-.4-.5s.2-.5.4-.5zm0 0" fill="none" stroke-width=".4" stroke="#000"/></g></g><g clip-path="url(#dc)"><g clip-path="url(#dd)"><path d="M133.1 109.9h11.7c.2 0 .4.2.4.5s-.2.5-.4.5H133c-.2 0-.4-.2-.4-.5s.2-.5.4-.5" fill-rule="evenodd" fill="#ff0"/></g></g><g clip-path="url(#de)"><g clip-path="url(#df)"><path d="M133.1 109.9h11.7c.2 0 .4.2.4.5s-.2.5-.4.5H133c-.2 0-.4-.2-.4-.5s.2-.5.4-.5zm0 0" fill="none" stroke-width=".4" stroke="#000"/></g></g><g clip-path="url(#dg)"><g clip-path="url(#dh)"><path d="M137 102h.8v.6h.7v-.7h.9v.7h.7v-.7h.9v1.5a.4.4 0 01-.4.4h-3.3c-.2 0-.4-.2-.4-.4v-1.5" fill-rule="evenodd" fill="#ff0"/></g></g><g clip-path="url(#di)"><g clip-path="url(#dj)"><path d="M136.9 102h.9v.6h.7v-.7h.9v.7h.7v-.7h1v1.5c0 .2-.3.4-.5.4h-3.3c-.2 0-.4-.2-.4-.4v-1.5zm0 0" fill="none" stroke-width=".4" stroke="#000"/></g></g><g clip-path="url(#dk)"><g clip-path="url(#dl)"><path d="M140.3 104l.2 4.8h-3.2l.2-4.9zm0 0" fill-rule="evenodd" fill="#ff0"/></g></g><g clip-path="url(#dm)"><g clip-path="url(#dn)"><path d="M140.3 104l.2 4.8h-3.2l.2-4.9h2.8" fill="none" stroke-width=".4" stroke="#000"/></g></g><g clip-path="url(#do)"><g clip-path="url(#dp)"><path d="M140.9 104.3h.9v.6h.6v-.6h1v.6h.6v-.6h1v1.5c0 .2-.3.4-.5.4h-3.2c-.2 0-.4-.2-.4-.4v-1.5" fill-rule="evenodd" fill="#ff0"/></g></g><g clip-path="url(#dq)"><g clip-path="url(#dr)"><path d="M144.4 106.2v2.6h-3v-2.6h3zm0 0" fill="none" stroke-width=".4" stroke="#000"/></g></g><g clip-path="url(#ds)"><g clip-path="url(#dt)"><path d="M140.9 104.3h.9v.6h.6v-.6h1v.6h.6v-.6h1v1.5c0 .2-.3.4-.5.4h-3.2c-.2 0-.4-.2-.4-.4zm0 0" fill="none" stroke-width=".4" stroke="#000"/></g></g><g clip-path="url(#du)"><g clip-path="url(#dv)"><path d="M133 104.3h.8v.6h.7v-.6h.9v.6h.7v-.6h.9v1.5c0 .2-.2.4-.4.4h-3.3c-.2 0-.4-.2-.4-.4v-1.5" fill-rule="evenodd" fill="#ff0"/></g></g><g clip-path="url(#dw)"><g clip-path="url(#dx)"><path d="M133 104.3h.8v.6h.7v-.6h.9v.6h.7v-.6h.9v1.5c0 .2-.2.4-.4.4h-3.3c-.2 0-.4-.2-.4-.4v-1.5zm0 0" fill="none" stroke-width=".4" stroke="#000"/></g></g><g clip-path="url(#dy)"><g clip-path="url(#dz)"><path d="M136.4 106.2l.1 2.6h-3.1v-2.6h3" fill-rule="evenodd" fill="#ff0"/></g></g><g clip-path="url(#dA)"><g clip-path="url(#dB)"><path d="M136.4 106.2l.1 2.6h-3.1v-2.6h3zm0 0" fill="none" stroke-width=".4" stroke="#000"/></g></g><g clip-path="url(#dC)"><g clip-path="url(#dD)"><path d="M138.6 105.5c0-.5.7-.5.7 0v1.1h-.7v-1.1" fill-rule="evenodd"/></g></g><g clip-path="url(#dE)"><g clip-path="url(#dF)"><path d="M142.6 107.1c0-.4.6-.4.6 0v1h-.6v-1" fill-rule="evenodd"/></g></g><g clip-path="url(#dG)"><g clip-path="url(#dH)"><path d="M134.6 107.1c0-.4.6-.4.6 0v1h-.6v-1" fill-rule="evenodd"/></g></g><g clip-path="url(#dI)"><g clip-path="url(#dJ)"><path d="M76.2 141v2.5h-3V141zm0 0" fill-rule="evenodd" fill="#ff0"/></g></g><g clip-path="url(#dK)"><g clip-path="url(#dL)"><path d="M67.6 150.6c.1-4.2 3-5.2 3.1-5.2 0 0 3.2 1 3.2 5.2h-6.3" fill-rule="evenodd" fill="#ff0"/></g></g><g clip-path="url(#dM)"><g clip-path="url(#dN)"><path d="M65.1 145.5l-.5 4.8h3.1c0-4 3-4.6 3-4.6.1 0 3 .9 3.1 4.6H77l-.5-4.8H65" fill-rule="evenodd" fill="#ff0"/></g></g><g clip-path="url(#dO)"><g clip-path="url(#dP)"><path d="M65.1 145.5l-.5 4.8h3.1c0-4 3-4.6 3-4.6.1 0 3 .9 3.1 4.6H77l-.5-4.8zm0 0" fill="none" stroke-width=".4" stroke="#000"/></g></g><g clip-path="url(#dQ)"><g clip-path="url(#dR)"><path d="M64.4 150.3H77c.3 0 .5.3.5.6s-.2.6-.5.6H64.4c-.3 0-.5-.3-.5-.6s.2-.6.5-.6" fill-rule="evenodd" fill="#ff0"/></g></g><g clip-path="url(#dS)"><g clip-path="url(#dT)"><path d="M64.4 150.3H77c.3 0 .5.3.5.6s-.2.6-.5.6H64.4c-.3 0-.5-.3-.5-.6s.2-.6.5-.6zm0 0" fill="none" stroke-width=".4" stroke="#000"/></g></g><g clip-path="url(#dU)"><g clip-path="url(#dV)"><path d="M69 150.3c0-2.5 1.7-3.2 1.7-3.2s1.8.7 1.8 3.2H69" fill-rule="evenodd" fill="#ff0"/></g></g><g clip-path="url(#dW)"><g clip-path="url(#dX)"><path d="M69 150.3c0-2.5 1.7-3.2 1.7-3.2s1.8.7 1.8 3.2H69" fill="none" stroke-width=".4" stroke="#000"/></g></g><g clip-path="url(#dY)"><g clip-path="url(#dZ)"><path d="M64.7 143.5h12.1c.3 0 .5.3.5.6s-.2.5-.5.5H64.7c-.3 0-.5-.2-.5-.5s.2-.6.5-.6" fill-rule="evenodd" fill="#ff0"/></g></g><g clip-path="url(#ea)"><g clip-path="url(#eb)"><path d="M64.7 143.5h12.1c.3 0 .5.3.5.6 0 .2-.2.5-.5.5H64.7c-.3 0-.5-.3-.5-.5 0-.3.2-.6.5-.6zm0 0" fill="none" stroke-width=".4" stroke="#000"/></g></g><g clip-path="url(#ec)"><g clip-path="url(#ed)"><path d="M65 144.6h11.6c.2 0 .4.2.4.5s-.2.5-.4.5H64.9c-.2 0-.4-.2-.4-.5s.2-.5.4-.5" fill-rule="evenodd" fill="#ff0"/></g></g><g clip-path="url(#ee)"><g clip-path="url(#ef)"><path d="M65 144.6h11.6c.2 0 .4.2.4.5s-.2.5-.4.5H64.9c-.2 0-.4-.2-.4-.5s.2-.5.4-.5zm0 0" fill="none" stroke-width=".4" stroke="#000"/></g></g><g clip-path="url(#eg)"><g clip-path="url(#eh)"><path d="M68.7 136.6h1v.7h.6v-.7h.9v.7h.7v-.7h.9v1.5c0 .3-.2.4-.4.4H69c-.2 0-.4-.1-.4-.4v-1.5" fill-rule="evenodd" fill="#ff0"/></g></g><g clip-path="url(#ei)"><g clip-path="url(#ej)"><path d="M68.7 136.7h.9v.6h.7v-.7h1v.7h.6v-.7h1v1.5c0 .3-.3.4-.5.4h-3.3c-.2 0-.4-.1-.4-.4v-1.4zm0 0" fill="none" stroke-width=".4" stroke="#000"/></g></g><g clip-path="url(#ek)"><g clip-path="url(#el)"><path d="M72.1 138.7l.2 4.8h-3.2l.2-4.8h2.8" fill-rule="evenodd" fill="#ff0"/></g></g><g clip-path="url(#em)"><g clip-path="url(#en)"><path d="M72.1 138.7l.2 4.8h-3.2l.2-4.8h2.8" fill="none" stroke-width=".4" stroke="#000"/></g></g><g clip-path="url(#eo)"><g clip-path="url(#ep)"><path d="M72.7 139h.9v.7h.6v-.7h1v.7h.6v-.7h1v1.5c0 .3-.2.4-.5.4h-3.2c-.2 0-.4-.2-.4-.4V139" fill-rule="evenodd" fill="#ff0"/></g></g><g clip-path="url(#eq)"><g clip-path="url(#er)"><path d="M76.2 141v2.5h-3V141zm0 0" fill="none" stroke-width=".4" stroke="#000"/></g></g><g clip-path="url(#es)"><g clip-path="url(#et)"><path d="M72.7 139h.9v.7h.6v-.7h1v.7h.6v-.7h1v1.5c0 .2-.2.4-.5.4h-3.2c-.2 0-.4-.2-.4-.4zm0 0" fill="none" stroke-width=".4" stroke="#000"/></g></g><g clip-path="url(#eu)"><g clip-path="url(#ev)"><path d="M64.7 139h1v.7h.6v-.7h.9v.7h.7v-.7h.9v1.5c0 .3-.2.4-.4.4H65c-.2 0-.4-.2-.4-.4V139" fill-rule="evenodd" fill="#ff0"/></g></g><g clip-path="url(#ew)"><g clip-path="url(#ex)"><path d="M64.7 139h1v.7h.6v-.7h.9v.7h.7v-.7h.9v1.5c0 .3-.2.4-.4.4H65c-.2 0-.4-.2-.4-.4zm0 0" fill="none" stroke-width=".4" stroke="#000"/></g></g><g clip-path="url(#ey)"><g clip-path="url(#ez)"><path d="M68.2 141l.1 2.5h-3V141zm0 0" fill-rule="evenodd" fill="#ff0"/></g></g><g clip-path="url(#eA)"><g clip-path="url(#eB)"><path d="M68.2 141l.1 2.5h-3V141h3-.1zm0 0" fill="none" stroke-width=".4" stroke="#000"/></g></g><g clip-path="url(#eC)"><g clip-path="url(#eD)"><path d="M70.4 140.2c0-.5.7-.5.7 0v1.1h-.7v-1.1" fill-rule="evenodd"/></g></g><g clip-path="url(#eE)"><g clip-path="url(#eF)"><path d="M74.4 141.9c0-.5.6-.5.6 0v.9h-.6v-1" fill-rule="evenodd"/></g></g><g clip-path="url(#eG)"><g clip-path="url(#eH)"><path d="M66.4 141.9c0-.5.7-.5.6 0v.9h-.6v-1" fill-rule="evenodd"/></g></g><g clip-path="url(#eI)"><g clip-path="url(#eJ)"><path d="M137.1 181.6l-1.7 1.9-2.2-2.2 1.9-1.8zm0 0" fill-rule="evenodd" fill="#ff0"/></g></g><g clip-path="url(#eK)"><g clip-path="url(#eL)"><path d="M124.3 182.4c3-2.9 5.8-1.5 5.8-1.5s1.5 3-1.4 6l-4.4-4.5" fill-rule="evenodd" fill="#ff0"/></g></g><g clip-path="url(#eM)"><g clip-path="url(#eN)"><path d="M126 177l-3.6 3 2.1 2.2c2.9-2.7 5.4-1.1 5.4-1 0 0 1.5 2.7-1 5.4l2.2 2.2 3-3.8-8-8" fill-rule="evenodd" fill="#ff0"/></g></g><g clip-path="url(#eO)"><g clip-path="url(#eP)"><path d="M126 177l-3.6 3 2.1 2.2c2.8-2.7 5.4-1.1 5.4-1 0 0 1.5 2.7-1 5.4l2.2 2.2 3-3.8-8-8zm0 0" fill="none" stroke-width=".4" stroke="#000"/></g></g><g clip-path="url(#eQ)"><g clip-path="url(#eR)"><path d="M122.2 179.9l9 9c.2.2.1.5 0 .7-.3.3-.7.3-.9.1l-9-9c-.1-.2-.1-.5.1-.7.3-.3.6-.3.8-.1" fill-rule="evenodd" fill="#ff0"/></g></g><g clip-path="url(#eS)"><g clip-path="url(#eT)"><path d="M122.2 179.9l9 9c.2.2.1.5-.1.7-.2.3-.6.3-.8.1l-9-9c-.1-.2-.1-.5.1-.7.3-.3.6-.3.8-.1zm0 0" fill="none" stroke-width=".4" stroke="#000"/></g></g><g clip-path="url(#eU)"><g clip-path="url(#eV)"><path d="M125.5 183.1c1.7-1.7 3.4-1 3.4-1s.8 1.8-1 3.5l-2.4-2.5" fill-rule="evenodd" fill="#ff0"/></g></g><g clip-path="url(#eW)"><g clip-path="url(#eX)"><path d="M125.5 183.1c1.7-1.7 3.4-1 3.4-1s.8 1.8-1 3.5l-2.4-2.5" fill="none" stroke-width=".4" stroke="#000"/></g></g><g clip-path="url(#eY)"><g clip-path="url(#eZ)"><path d="M127.2 175.3l8.6 8.6v.7c-.3.2-.6.3-.8 0l-8.6-8.5c-.2-.2-.2-.5 0-.7.3-.3.6-.3.8 0" fill-rule="evenodd" fill="#ff0"/></g></g><g clip-path="url(#fa)"><g clip-path="url(#fb)"><path d="M127.2 175.3l8.6 8.6c.2.2.1.5 0 .7-.3.2-.6.3-.8 0l-8.6-8.5c-.2-.2-.2-.5 0-.8.3-.2.6-.2.8 0zm0 0" fill="none" stroke-width=".4" stroke="#000"/></g></g><g clip-path="url(#fc)"><g clip-path="url(#fd)"><path d="M126.6 176.2l8.2 8.3c.2.2.2.5 0 .7-.2.2-.5.2-.7 0l-8.3-8.2c-.1-.2-.1-.5.1-.7.2-.2.5-.2.7 0" fill-rule="evenodd" fill="#ff0"/></g></g><g clip-path="url(#fe)"><g clip-path="url(#ff)"><path d="M126.6 176.2l8.2 8.3c.2.2.2.5 0 .7-.2.2-.5.2-.7 0l-8.3-8.2c-.1-.2-.1-.5.1-.7.2-.2.5-.2.7 0zm0 0" fill="none" stroke-width=".4" stroke="#000"/></g></g><g clip-path="url(#fg)"><g clip-path="url(#fh)"><path d="M134.9 173.3l.6.7-.4.4.4.5.5-.5.7.7-.5.4.5.5.4-.5.7.7-1 1c-.3.2-.5.2-.7 0L134 175c-.2-.1-.2-.4 0-.5l1-1" fill-rule="evenodd" fill="#ff0"/></g></g><g clip-path="url(#fi)"><g clip-path="url(#fj)"><path d="M134.9 173.3l.6.6-.4.5.4.5.5-.5.7.7-.5.4.5.5.4-.5.7.7-1 1c-.2.2-.5.2-.6 0l-2.4-2.3v-.6zm0 0" fill="none" stroke-width=".4" stroke="#000"/></g></g><g clip-path="url(#fk)"><g clip-path="url(#fl)"><path d="M135.9 177.2l-3.3 3.5-2.3-2.3 3.6-3.2 2 2" fill-rule="evenodd" fill="#ff0"/></g></g><g clip-path="url(#fm)"><g clip-path="url(#fn)"><path d="M135.9 177.2l-3.3 3.5-2.3-2.3 3.6-3.2 2 2" fill="none" stroke-width=".4" stroke="#000"/></g></g><g clip-path="url(#fo)"><g clip-path="url(#fp)"><path d="M136 177.8l.7.6-.5.5.5.5.4-.5.7.6-.5.5.5.5.4-.5.7.7-1 1c-.2.2-.5.2-.6 0l-2.3-2.3c-.2-.1-.2-.4 0-.6l1-1" fill-rule="evenodd" fill="#ff0"/></g></g><g clip-path="url(#fq)"><g clip-path="url(#fr)"><path d="M137.1 181.6l-1.7 1.9-2.2-2.2 1.9-1.8zm0 0" fill="none" stroke-width=".4" stroke="#000"/></g></g><g clip-path="url(#fs)"><g clip-path="url(#ft)"><path d="M136 177.8l.7.6-.5.5.5.5.4-.5.7.6-.5.5.5.5.5-.5.6.7-1 1c-.2.2-.5.2-.6 0l-2.3-2.3c-.2-.1-.2-.4 0-.6zm0 0" fill="none" stroke-width=".4" stroke="#000"/></g></g><g clip-path="url(#fu)"><g clip-path="url(#fv)"><path d="M130.4 172.2l.6.6-.4.5.4.4.5-.4.7.6-.5.5.5.5.4-.5.7.6-1.1 1.1c-.2.2-.4.1-.6 0l-2.2-2.3c-.2-.2-.2-.4 0-.6l1-1" fill-rule="evenodd" fill="#ff0"/></g></g><g clip-path="url(#fw)"><g clip-path="url(#fx)"><path d="M130.4 172.2l.6.6-.4.5.4.4.5-.4.7.6-.5.5.4.5.5-.5.7.6-1.1 1.1c-.2.2-.4.1-.6 0l-2.2-2.3c-.2-.2-.2-.4 0-.6zm0 0" fill="none" stroke-width=".4" stroke="#000"/></g></g><g clip-path="url(#fy)"><g clip-path="url(#fz)"><path d="M131.5 176l-1.8 1.9-2.1-2.2 1.9-1.8zm0 0" fill-rule="evenodd" fill="#ff0"/></g></g><g clip-path="url(#fA)"><g clip-path="url(#fB)"><path d="M131.5 176l-1.8 1.9-2.1-2.2 1.9-1.8zm0 0" fill="none" stroke-width=".4" stroke="#000"/></g></g><g clip-path="url(#fC)"><g clip-path="url(#fD)"><path d="M133.6 177c.3-.3.8.2.5.5l-.9.8-.4-.5.8-.8" fill-rule="evenodd"/></g></g><g clip-path="url(#fE)"><g clip-path="url(#fF)"><path d="M135.2 181c.3-.3.8.1.5.5l-.7.6-.4-.4.6-.7" fill-rule="evenodd"/></g></g><g clip-path="url(#fG)"><g clip-path="url(#fH)"><path d="M129.6 175.4a.3.3 0 01.4.4l-.6.7-.4-.5.6-.6" fill-rule="evenodd"/></g></g><g clip-path="url(#fI)"><g clip-path="url(#fJ)"><path d="M144.3 141l.1 2.5h-3.1V141zm0 0" fill-rule="evenodd" fill="#ff0"/></g></g><g clip-path="url(#fK)"><g clip-path="url(#fL)"><path d="M135.8 150.6c0-4.2 3-5.2 3-5.2s3.2 1 3.2 5.2h-6.2" fill-rule="evenodd" fill="#ff0"/></g></g><g clip-path="url(#fM)"><g clip-path="url(#fN)"><path d="M133.2 145.5l-.5 4.8h3.1c0-4 3-4.6 3-4.6.2 0 3 .9 3.2 4.6h3l-.5-4.8h-11.3" fill-rule="evenodd" fill="#ff0"/></g></g><g clip-path="url(#fO)"><g clip-path="url(#fP)"><path d="M133.2 145.5l-.5 4.8h3.1c0-4 3-4.6 3-4.6.2 0 3 .9 3.2 4.6h3l-.5-4.8h-11.3v0zm0 0" fill="none" stroke-width=".4" stroke="#000"/></g></g><g clip-path="url(#fQ)"><g clip-path="url(#fR)"><path d="M132.5 150.3h12.7c.3 0 .5.3.5.6s-.2.6-.5.6h-12.7c-.2 0-.5-.3-.5-.6s.3-.6.5-.6" fill-rule="evenodd" fill="#ff0"/></g></g><g clip-path="url(#fS)"><g clip-path="url(#fT)"><path d="M132.5 150.3h12.7c.3 0 .5.3.5.6s-.2.6-.5.6h-12.7c-.2 0-.5-.3-.5-.6s.3-.6.5-.6zm0 0" fill="none" stroke-width=".4" stroke="#000"/></g></g><g clip-path="url(#fU)"><g clip-path="url(#fV)"><path d="M137.1 150.3c0-2.5 1.7-3.2 1.7-3.2s1.8.7 1.8 3.2h-3.5" fill-rule="evenodd" fill="#ff0"/></g></g><g clip-path="url(#fW)"><g clip-path="url(#fX)"><path d="M137.1 150.3c0-2.5 1.7-3.2 1.7-3.2s1.8.7 1.8 3.2h-3.5" fill="none" stroke-width=".4" stroke="#000"/></g></g><g clip-path="url(#fY)"><g clip-path="url(#fZ)"><path d="M132.8 143.5H145c.2 0 .4.3.4.6s-.2.5-.4.5h-12.2c-.3 0-.5-.2-.5-.5s.2-.6.5-.6" fill-rule="evenodd" fill="#ff0"/></g></g><g clip-path="url(#ga)"><g clip-path="url(#gb)"><path d="M132.8 143.5H145c.2 0 .4.3.4.6 0 .2-.2.5-.4.5h-12.2c-.3 0-.5-.3-.5-.5 0-.3.2-.6.5-.6zm0 0" fill="none" stroke-width=".4" stroke="#000"/></g></g><g clip-path="url(#gc)"><g clip-path="url(#gd)"><path d="M133 144.6h11.7c.2 0 .5.2.5.5s-.3.5-.5.5h-11.6c-.3 0-.5-.2-.5-.5s.2-.5.5-.5" fill-rule="evenodd" fill="#ff0"/></g></g><g clip-path="url(#ge)"><g clip-path="url(#gf)"><path d="M133 144.6h11.7c.2 0 .5.2.5.5s-.3.5-.5.5h-11.6c-.3 0-.5-.2-.5-.5s.2-.5.5-.5zm0 0" fill="none" stroke-width=".4" stroke="#000"/></g></g><g clip-path="url(#gg)"><g clip-path="url(#gh)"><path d="M136.9 136.6h.9v.7h.6v-.7h1v.7h.6v-.7h1v1.5c0 .3-.3.4-.5.4h-3.2c-.2 0-.4-.1-.4-.4v-1.5" fill-rule="evenodd" fill="#ff0"/></g></g><g clip-path="url(#gi)"><g clip-path="url(#gj)"><path d="M136.8 136.7h1v.6h.6v-.7h1v.7h.6v-.7h1v1.5c0 .3-.2.4-.4.4h-3.4c-.2 0-.4-.1-.4-.4v-1.4zm0 0" fill="none" stroke-width=".4" stroke="#000"/></g></g><g clip-path="url(#gk)"><g clip-path="url(#gl)"><path d="M140.3 138.7l.2 4.8h-3.2l.2-4.8zm0 0" fill-rule="evenodd" fill="#ff0"/></g></g><g clip-path="url(#gm)"><g clip-path="url(#gn)"><path d="M140.3 138.7l.2 4.8h-3.2l.2-4.8h2.8" fill="none" stroke-width=".4" stroke="#000"/></g></g><g clip-path="url(#go)"><g clip-path="url(#gp)"><path d="M140.8 139h1v.7h.6v-.7h.9v.7h.7v-.7h.9v1.5c0 .3-.2.4-.4.4h-3.3c-.2 0-.4-.2-.4-.4V139" fill-rule="evenodd" fill="#ff0"/></g></g><g clip-path="url(#gq)"><g clip-path="url(#gr)"><path d="M144.3 141l.1 2.5h-3.1V141zm0 0" fill="none" stroke-width=".4" stroke="#000"/></g></g><g clip-path="url(#gs)"><g clip-path="url(#gt)"><path d="M140.8 139h1v.7h.6v-.7h.9v.7h.7v-.7h.9v1.5c0 .2-.2.4-.4.4h-3.3c-.2 0-.4-.2-.4-.4zm0 0" fill="none" stroke-width=".4" stroke="#000"/></g></g><g clip-path="url(#gu)"><g clip-path="url(#gv)"><path d="M132.9 139h.9v.7h.6v-.7h1v.7h.6v-.7h1v1.5c0 .3-.3.4-.5.4h-3.2c-.2 0-.4-.2-.4-.4V139" fill-rule="evenodd" fill="#ff0"/></g></g><g clip-path="url(#gw)"><g clip-path="url(#gx)"><path d="M132.9 139h.9v.7h.6v-.7h1v.7h.6v-.7h1v1.5c0 .3-.3.4-.5.4h-3.2c-.2 0-.4-.2-.4-.4zm0 0" fill="none" stroke-width=".4" stroke="#000"/></g></g><g clip-path="url(#gy)"><g clip-path="url(#gz)"><path d="M136.3 141l.1 2.5h-3V141zm0 0" fill-rule="evenodd" fill="#ff0"/></g></g><g clip-path="url(#gA)"><g clip-path="url(#gB)"><path d="M136.3 141l.1 2.5h-3V141zm0 0" fill="none" stroke-width=".4" stroke="#000"/></g></g><g clip-path="url(#gC)"><g clip-path="url(#gD)"><path d="M138.6 140.2c0-.5.6-.5.6 0v1.1h-.6v-1.1" fill-rule="evenodd"/></g></g><g clip-path="url(#gE)"><g clip-path="url(#gF)"><path d="M142.5 141.9c0-.5.7-.5.7 0v.9h-.7v-1" fill-rule="evenodd"/></g></g><g clip-path="url(#gG)"><g clip-path="url(#gH)"><path d="M134.6 141.9c0-.5.6-.5.6 0v.9h-.6v-1" fill-rule="evenodd"/></g></g><g clip-path="url(#gI)"><g clip-path="url(#gJ)"><path d="M80.4 173.9l1.9 1.8-2.2 2.1-1.8-1.9zm0 0" fill-rule="evenodd" fill="#ff0"/></g></g><g clip-path="url(#gK)"><g clip-path="url(#gL)"><path d="M81.2 186.7c-2.9-3-1.5-5.7-1.5-5.8 0 0 3-1.5 5.9 1.5l-4.4 4.3" fill-rule="evenodd" fill="#ff0"/></g></g><g clip-path="url(#gM)"><g clip-path="url(#gN)"><path d="M75.8 185l3 3.7 2.2-2.2c-2.8-2.8-1.1-5.4-1-5.4 0 0 2.6-1.5 5.3 1l2.2-2.2-3.8-3-8 8" fill-rule="evenodd" fill="#ff0"/></g></g><g clip-path="url(#gO)"><g clip-path="url(#gP)"><path d="M75.8 185l3 3.7 2.2-2.2c-2.8-2.8-1.1-5.4-1-5.4 0 0 2.6-1.5 5.3 1l2.2-2.1-3.8-3-8 8zm0 0" fill="none" stroke-width=".4" stroke="#000"/></g></g><g clip-path="url(#gQ)"><g clip-path="url(#gR)"><path d="M78.7 188.8l9-9c.1-.1.5-.1.7.1.2.2.3.6 0 .8l-8.9 9c-.2.2-.5.1-.8-.1-.2-.2-.2-.6 0-.8" fill-rule="evenodd" fill="#ff0"/></g></g><g clip-path="url(#gS)"><g clip-path="url(#gT)"><path d="M78.7 188.8l9-9c.1-.1.5-.1.7.1.2.2.3.6 0 .8l-8.9 9c-.2.2-.5.1-.8-.1-.2-.2-.2-.6 0-.8zm0 0" fill="none" stroke-width=".4" stroke="#000"/></g></g><g clip-path="url(#gU)"><g clip-path="url(#gV)"><path d="M82 185.6c-1.8-1.8-1.1-3.5-1.1-3.5s1.7-.7 3.5 1l-2.5 2.5" fill-rule="evenodd" fill="#ff0"/></g></g><g clip-path="url(#gW)"><g clip-path="url(#gX)"><path d="M82 185.6c-1.8-1.8-1.1-3.5-1.1-3.5s1.7-.7 3.5 1l-2.5 2.4" fill="none" stroke-width=".4" stroke="#000"/></g></g><g clip-path="url(#gY)"><g clip-path="url(#gZ)"><path d="M74 183.9l8.7-8.6c.2-.2.5-.2.7 0 .2.2.2.5 0 .7l-8.6 8.6c-.2.2-.5.2-.7 0-.2-.2-.2-.5 0-.7" fill-rule="evenodd" fill="#ff0"/></g></g><g clip-path="url(#ha)"><g clip-path="url(#hb)"><path d="M74 183.9l8.7-8.6c.2-.2.5-.2.7 0 .2.2.2.5 0 .7l-8.6 8.6c-.2.2-.5.2-.7 0-.2-.2-.2-.5 0-.7zm0 0" fill="none" stroke-width=".4" stroke="#000"/></g></g><g clip-path="url(#hc)"><g clip-path="url(#hd)"><path d="M75 184.4l8.2-8.2c.2-.2.5-.2.7 0 .2.3.3.6 0 .7l-8.1 8.3c-.2.2-.5.1-.7 0-.2-.3-.3-.6 0-.8" fill-rule="evenodd" fill="#ff0"/></g></g><g clip-path="url(#he)"><g clip-path="url(#hf)"><path d="M75 184.4l8.2-8.2c.2-.2.5-.2.7 0 .2.3.3.6 0 .7l-8.1 8.3c-.2.2-.5.1-.7 0-.2-.3-.3-.6 0-.8zm0 0" fill="none" stroke-width=".4" stroke="#000"/></g></g><g clip-path="url(#hg)"><g clip-path="url(#hh)"><path d="M72 176.1l.7-.6.5.5.5-.5-.5-.5.6-.6.5.4.5-.4-.5-.5.7-.7 1 1.1c.2.2.2.4 0 .6l-2.3 2.3h-.6l-1-1" fill-rule="evenodd" fill="#ff0"/></g></g><g clip-path="url(#hi)"><g clip-path="url(#hj)"><path d="M72 176.2l.7-.7.5.5.4-.5-.4-.5.6-.6.5.4.5-.4-.5-.5.7-.7 1 1c.2.3.2.5 0 .7l-2.3 2.3c-.2.1-.4.2-.6 0l-1-1zm0 0" fill="none" stroke-width=".4" stroke="#000"/></g></g><g clip-path="url(#hk)"><g clip-path="url(#hl)"><path d="M76 175.1l3.5 3.3-2.3 2.3L74 177zm0 0" fill-rule="evenodd" fill="#ff0"/></g></g><g clip-path="url(#hm)"><g clip-path="url(#hn)"><path d="M76 175.1l3.5 3.3-2.3 2.3L74 177l2-2" fill="none" stroke-width=".4" stroke="#000"/></g></g><g clip-path="url(#ho)"><g clip-path="url(#hp)"><path d="M76.6 175l.6-.6.5.4.4-.4-.4-.5.6-.7.5.5.5-.5-.5-.4.6-.7 1 1c.3.3.2.5 0 .7l-2.2 2.2c-.2.2-.4.2-.6 0l-1-1" fill-rule="evenodd" fill="#ff0"/></g></g><g clip-path="url(#hq)"><g clip-path="url(#hr)"><path d="M80.4 173.9l1.9 1.8-2.2 2.1-1.8-1.9zm0 0" fill="none" stroke-width=".4" stroke="#000"/></g></g><g clip-path="url(#hs)"><g clip-path="url(#ht)"><path d="M76.6 175l.6-.6.5.4.4-.4-.4-.5.6-.7.5.5.4-.5-.4-.4.6-.7 1 1c.3.3.2.5 0 .6l-2.2 2.3c-.2.2-.4.2-.6 0l-1-1zm0 0" fill="none" stroke-width=".4" stroke="#000"/></g></g><g clip-path="url(#hu)"><g clip-path="url(#hv)"><path d="M71 180.6l.6-.6.4.5.5-.5-.5-.5.7-.6.5.4.4-.4-.4-.5.6-.7 1 1.1c.2.2.2.4 0 .6l-2.2 2.3H72l-1-1" fill-rule="evenodd" fill="#ff0"/></g></g><g clip-path="url(#hw)"><g clip-path="url(#hx)"><path d="M71 180.6l.6-.6.4.5.5-.5-.5-.5.7-.6.5.4.4-.4-.4-.5.6-.7 1 1.1c.2.2.2.4 0 .6l-2.2 2.3H72zm0 0" fill="none" stroke-width=".4" stroke="#000"/></g></g><g clip-path="url(#hy)"><g clip-path="url(#hz)"><path d="M74.7 179.5l2 1.8-2.2 2.2-1.8-2zm0 0" fill-rule="evenodd" fill="#ff0"/></g></g><g clip-path="url(#hA)"><g clip-path="url(#hB)"><path d="M74.7 179.5l2 1.8-2.2 2.2-1.8-2zm0 0" fill="none" stroke-width=".4" stroke="#000"/></g></g><g clip-path="url(#hC)"><g clip-path="url(#hD)"><path d="M75.8 177.4c-.3-.3.1-.8.5-.4l.8.8-.5.4-.8-.8" fill-rule="evenodd"/></g></g><g clip-path="url(#hE)"><g clip-path="url(#hF)"><path d="M79.8 175.8c-.3-.3.1-.8.4-.4l.7.6-.5.4-.6-.6" fill-rule="evenodd"/></g></g><g clip-path="url(#hG)"><g clip-path="url(#hH)"><path d="M74.2 181.4c-.4-.3 0-.7.4-.4l.6.6-.4.5-.6-.7" fill-rule="evenodd"/></g></g><g clip-path="url(#hI)"><g clip-path="url(#hJ)"><path d="M108.2 171.2c-.6 0-1 .5-1 1a1.1 1.1 0 102.1 0c0-.5-.5-1-1-1" fill="#fff"/></g></g><g clip-path="url(#hK)"><g clip-path="url(#hL)"><path d="M102 171.2a1.1 1.1 0 000 2.2 1.1 1.1 0 000-2.2" fill="#fff"/></g></g><g clip-path="url(#hM)"><g clip-path="url(#hN)"><path d="M105.1 168c-.6 0-1.1.5-1.1 1.1 0 .7.5 1.2 1.1 1.2a1.1 1.1 0 000-2.3" fill="#fff"/></g></g><g clip-path="url(#hO)"><g clip-path="url(#hP)"><path d="M108.2 165a1.1 1.1 0 00-1 1.1 1.1 1.1 0 002.2 0c0-.6-.5-1-1.2-1" fill="#fff"/></g></g><g clip-path="url(#hQ)"><g clip-path="url(#hR)"><path d="M123.8 151.8c-.6 0-1 .5-1 1.2a1.1 1.1 0 002.2 0c0-.7-.5-1.2-1.2-1.2" fill="#fff"/></g></g><g clip-path="url(#hS)"><g clip-path="url(#hT)"><path d="M117.8 151.9c-.6 0-1.2.5-1.2 1a1.1 1.1 0 101.2-1" fill="#fff"/></g></g><g clip-path="url(#hU)"><g clip-path="url(#hV)"><path d="M120.7 148.7a1.1 1.1 0 000 2.2 1.1 1.1 0 000-2.2" fill="#fff"/></g></g><g clip-path="url(#hW)"><g clip-path="url(#hX)"><path d="M123.9 145.7a1.1 1.1 0 00-1.2 1.1 1.1 1.1 0 002.3 0c0-.6-.5-1-1.1-1" fill="#fff"/></g></g><g clip-path="url(#hY)"><g clip-path="url(#hZ)"><path d="M117.8 145.7c-.7 0-1.2.5-1.2 1.1s.5 1.1 1.2 1.1a1.1 1.1 0 000-2.2" fill="#fff"/></g></g><g clip-path="url(#ia)"><g clip-path="url(#ib)"><path d="M108.3 151.8c-.6 0-1.1.5-1.1 1.1 0 .6.5 1.1 1 1.1a1.1 1.1 0 001.2-1c0-.7-.5-1.2-1.1-1.2" fill="#fff"/></g></g><g clip-path="url(#ic)"><g clip-path="url(#id)"><path d="M102 151.8a1.1 1.1 0 100 2.3 1.1 1.1 0 000-2.3" fill="#fff"/></g></g><g clip-path="url(#ie)"><g clip-path="url(#if)"><path d="M105.2 148.7c-.6 0-1.1.5-1.1 1.1s.5 1.1 1 1.1a1.1 1.1 0 100-2.2" fill="#fff"/></g></g><g clip-path="url(#ig)"><g clip-path="url(#ih)"><path d="M108.3 145.7a1.1 1.1 0 100 2.2 1.1 1.1 0 000-2.2" fill="#fff"/></g></g><g clip-path="url(#ii)"><g clip-path="url(#ij)"><path d="M102 145.7a1.1 1.1 0 000 2.2 1.1 1.1 0 100-2.2" fill="#fff"/></g></g><g clip-path="url(#ik)"><g clip-path="url(#il)"><path d="M92.7 151.9c-.6 0-1.1.5-1.1 1 0 .7.5 1.2 1 1.2a1.1 1.1 0 000-2.2" fill="#fff"/></g></g><g clip-path="url(#im)"><g clip-path="url(#in)"><path d="M86.6 151.9c-.6 0-1.1.5-1.1 1 0 .7.5 1.2 1.1 1.2a1.1 1.1 0 000-2.2" fill="#fff"/></g></g><g clip-path="url(#io)"><g clip-path="url(#ip)"><path d="M89.6 148.7c-.6 0-1.1.5-1.1 1.1a1.1 1.1 0 002.2 0c0-.6-.5-1-1.1-1" fill="#fff"/></g></g><g clip-path="url(#iq)"><g clip-path="url(#ir)"><path d="M92.7 145.7a1.1 1.1 0 000 2.3 1.1 1.1 0 000-2.3" fill="#fff"/></g></g><g clip-path="url(#is)"><g clip-path="url(#it)"><path d="M102 165c-.6 0-1 .5-1 1.1a1.1 1.1 0 102.2 0c0-.6-.5-1-1.1-1" fill="#fff"/></g></g><g clip-path="url(#iu)"><g clip-path="url(#iv)"><path d="M86.6 145.7c-.6 0-1.1.5-1.1 1.1s.5 1.2 1 1.2a1.1 1.1 0 100-2.3" fill="#ff0"/></g></g><g clip-path="url(#iw)"><g clip-path="url(#ix)"><path d="M102 126.2a1.1 1.1 0 000 2.2 1.1 1.1 0 000-2.2" fill="#fff"/></g></g><g clip-path="url(#iy)"><g clip-path="url(#iz)"><path d="M108.2 126.2c-.7 0-1.2.5-1.2 1a1.1 1.1 0 001.2 1.2c.6 0 1-.5 1-1.1 0-.6-.4-1.1-1-1.1" fill="#fff"/></g></g><g clip-path="url(#iA)"><g clip-path="url(#iB)"><path d="M105 129.2a1.1 1.1 0 000 2.2 1.1 1.1 0 100-2.2" fill="#fff"/></g></g><g clip-path="url(#iC)"><g clip-path="url(#iD)"><path d="M108.2 132.3c-.7 0-1.2.5-1.2 1.1s.5 1.1 1.2 1.1c.6 0 1-.5 1-1s-.4-1.2-1-1.2" fill="#fff"/></g></g><g clip-path="url(#iE)"><g clip-path="url(#iF)"><path d="M102 132.3a1.1 1.1 0 100 2.2 1.1 1.1 0 000-2.2" fill="#fff"/></g></g><g clip-path="url(#iG)"><g clip-path="url(#iH)"><path d="M86.6 145.7a1.1 1.1 0 00-1.1 1.1 1.1 1.1 0 002.2 0c0-.6-.5-1-1.1-1" fill="#fff"/></g></g></svg>