<svg xmlns="http://www.w3.org/2000/svg" width="400" height="400" viewBox="0 0 300 300"><defs><clipPath id="a"><path d="M150 0a150 150 0 100 300 150 150 0 000-300zm0 0"/></clipPath><clipPath id="b"><path d="M0 0h120v300H0zm0 0"/></clipPath><clipPath id="c"><path d="M150 0a150 150 0 100 300 150 150 0 000-300zm0 0"/></clipPath></defs><g clip-path="url(#a)"><path fill="#8d1b3c" d="M0 0h300v300H0z"/></g><g clip-path="url(#b)"><g clip-path="url(#c)"><path d="M-181 0v300H59l61-16.7-61-16.6 61-16.7-61-16.7 61-16.6L59 200l61-16.7-61-16.6 61-16.7-61-16.7 61-16.6L59 100l61-16.7-61-16.6L120 50 59 33.3l61-16.6L59 0" fill="#fff"/></g></g></svg>