<svg xmlns="http://www.w3.org/2000/svg" width="400" height="400" viewBox="0 0 300 300"><defs><clipPath id="a"><path d="M0 0h300v150H0zm0 0"/></clipPath><clipPath id="b"><path d="M150 0a150 150 0 100 300 150 150 0 000-300zm0 0"/></clipPath><clipPath id="c"><path d="M0 150h300v75H0zm0 0"/></clipPath><clipPath id="d"><path d="M150 0a150 150 0 100 300 150 150 0 000-300zm0 0"/></clipPath><clipPath id="e"><path d="M0 225h300v75H0zm0 0"/></clipPath><clipPath id="f"><path d="M150 0a150 150 0 100 300 150 150 0 000-300zm0 0"/></clipPath><clipPath id="g"><path d="M218 77h50v50h-50zm0 0"/></clipPath><clipPath id="h"><path d="M150 0a150 150 0 100 300 150 150 0 000-300zm0 0"/></clipPath><clipPath id="i"><path d="M218 30h50v49h-50zm0 0"/></clipPath><clipPath id="j"><path d="M150 0a150 150 0 100 300 150 150 0 000-300zm0 0"/></clipPath><clipPath id="k"><path d="M171 77h49v50h-49zm0 0"/></clipPath><clipPath id="l"><path d="M150 0a150 150 0 100 300 150 150 0 000-300zm0 0"/></clipPath><clipPath id="m"><path d="M171 30h49v49h-49zm0 0"/></clipPath><clipPath id="n"><path d="M150 0a150 150 0 100 300 150 150 0 000-300zm0 0"/></clipPath><clipPath id="o"><path d="M205 64h29v29h-29zm0 0"/></clipPath><clipPath id="p"><path d="M150 0a150 150 0 100 300 150 150 0 000-300zm0 0"/></clipPath><clipPath id="q"><path d="M197 56h45v45h-45zm0 0"/></clipPath><clipPath id="r"><path d="M150 0a150 150 0 100 300 150 150 0 000-300zm0 0"/></clipPath></defs><g clip-path="url(#a)"><g clip-path="url(#b)"><path d="M-150 150h450V0h-450zm0 0" fill="#00a0de"/></g></g><g clip-path="url(#c)"><g clip-path="url(#d)"><path d="M-150 225h450v-75h-450zm0 0" fill="#f9d201"/></g></g><g clip-path="url(#e)"><g clip-path="url(#f)"><path d="M-150 300h450v-75h-450zm0 0" fill="#1f5f3c"/></g></g><g clip-path="url(#g)"><g clip-path="url(#h)"><path d="M267.8 78.4l-33.6 2 31.9 10.5-32.9-6.8 28 18.5-30-15 22.4 25-25-22.3 15 30-18.5-28L232 125l-10.6-31.9-2 33.6L219 78" fill="#e4bd01"/></g></g><g clip-path="url(#i)"><g clip-path="url(#j)"><path d="M267.8 78.4l-33.6-2L266.1 66l-32.9 6.7 28-18.4-30 15 22.4-25-25 22.3 15-30-18.5 28 6.8-32.9-10.6 31.9-2-33.5-.3 48.8" fill="#e4bd01"/></g></g><g clip-path="url(#k)"><g clip-path="url(#l)"><path d="M171 78.4l33.5 2-31.9 10.5 33-6.8-28.1 18.5 30-15-22.3 25 25-22.3-15 30 18.4-28L207 125l10.5-31.9 2 33.6.4-48.8" fill="#e4bd01"/></g></g><g clip-path="url(#m)"><g clip-path="url(#n)"><path d="M171 78.4l33.5-2L172.6 66l33 6.7-28.1-18.4 30 15-22.3-25 25 22.3-15-30 18.4 28-6.7-32.9 10.5 31.9 2-33.5.4 48.8" fill="#e4bd01"/></g></g><g clip-path="url(#o)"><g clip-path="url(#p)"><path d="M219.4 64a14.3 14.3 0 110 28.7 14.3 14.3 0 010-28.6" fill="#e4bd01"/></g></g><g clip-path="url(#q)"><g clip-path="url(#r)"><path d="M219.4 64a14.3 14.3 0 110 28.7 14.3 14.3 0 010-28.6zm0 0" fill="none" stroke-width="1.4" stroke="#00a0de"/></g></g></svg>