<svg xmlns="http://www.w3.org/2000/svg" width="400" height="400" viewBox="0 0 300 300"><defs><clipPath id="a"><path d="M150 0a150 150 0 100 300 150 150 0 000-300zm0 0"/></clipPath><clipPath id="b"><path d="M0 150h300v150H0zm0 0"/></clipPath><clipPath id="c"><path d="M150 0a150 150 0 100 300 150 150 0 000-300zm0 0"/></clipPath><clipPath id="d"><path d="M150 0a150 150 0 100 300 150 150 0 000-300zm0 0"/></clipPath><clipPath id="e"><path d="M69 65h162v154H69zm0 0"/></clipPath><clipPath id="f"><path d="M150 0a150 150 0 100 300 150 150 0 000-300zm0 0"/></clipPath></defs><g clip-path="url(#a)"><path fill="#dc161d" d="M0 0h300v300H0z"/></g><g clip-path="url(#b)"><g clip-path="url(#c)"><path d="M-75 300h450V150H-75zm0 0" fill="#012a86"/></g></g><g clip-path="url(#d)"><path d="M150 300L-75 150 150 0l225 150zm0 0" fill="#fff"/></g><g clip-path="url(#e)"><g clip-path="url(#f)"><path d="M180.8 160l50-36.2H169L150 65l-19 58.7H69.1l50 36.2-19.1 58.7 49.9-36.3 50 36.3" fill="#f8d90f"/></g></g></svg>