<svg xmlns="http://www.w3.org/2000/svg" width="400" height="400" viewBox="0 0 300 300"><defs><clipPath id="a"><path d="M150 0a150 150 0 100 300 150 150 0 000-300zm0 0"/></clipPath><clipPath id="b"><path d="M50 27h200v247H50zm0 0"/></clipPath><clipPath id="c"><path d="M150 0a150 150 0 100 300 150 150 0 000-300zm0 0"/></clipPath><clipPath id="d"><path d="M63 60h174v214H63zm0 0"/></clipPath><clipPath id="e"><path d="M150 0a150 150 0 100 300 150 150 0 000-300zm0 0"/></clipPath><clipPath id="f"><path d="M50 150h200v124H50zm0 0"/></clipPath><clipPath id="g"><path d="M150 0a150 150 0 100 300 150 150 0 000-300zm0 0"/></clipPath></defs><g clip-path="url(#a)"><path fill="#6cf" d="M0 0h300v300H0z"/></g><g clip-path="url(#b)"><g clip-path="url(#c)"><path d="M50 274l100-14 100 14L150 27zm0 0" fill="#fff"/></g></g><g clip-path="url(#d)"><g clip-path="url(#e)"><path d="M63.5 274l86.5-14 86.5 14L150 60zm0 0"/></g></g><g clip-path="url(#f)"><g clip-path="url(#g)"><path d="M50 274h200L150 150" fill="#fbd115"/></g></g></svg>