<svg xmlns="http://www.w3.org/2000/svg" width="400" height="400" viewBox="0 0 300 300"><defs><clipPath id="a"><path d="M0 0h80v300H0zm0 0"/></clipPath><clipPath id="b"><path d="M150 0a150 150 0 100 300 150 150 0 000-300zm0 0"/></clipPath><clipPath id="c"><path d="M75 0h225v300H75zm0 0"/></clipPath><clipPath id="d"><path d="M150 0a150 150 0 100 300 150 150 0 000-300zm0 0"/></clipPath><clipPath id="e"><path d="M225 0h75v300h-75zm0 0"/></clipPath><clipPath id="f"><path d="M150 0a150 150 0 100 300 150 150 0 000-300zm0 0"/></clipPath><clipPath id="g"><path d="M133 158h34v67h-34zm0 0"/></clipPath><clipPath id="h"><path d="M150 0a150 150 0 100 300 150 150 0 000-300zm0 0"/></clipPath><clipPath id="i"><path d="M112 116h34v68h-34zm0 0"/></clipPath><clipPath id="j"><path d="M150 0a150 150 0 100 300 150 150 0 000-300zm0 0"/></clipPath><clipPath id="k"><path d="M154 116h34v68h-34zm0 0"/></clipPath><clipPath id="l"><path d="M150 0a150 150 0 100 300 150 150 0 000-300zm0 0"/></clipPath></defs><g clip-path="url(#a)"><g clip-path="url(#b)"><path d="M0 300h80V0H0zm0 0" fill="#0071c5"/></g></g><g clip-path="url(#c)"><g clip-path="url(#d)"><path d="M75 300h225V0H75zm0 0" fill="#fbd115"/></g></g><g clip-path="url(#e)"><g clip-path="url(#f)"><path d="M225 300h75V0h-75zm0 0" fill="#009e5f"/></g></g><g clip-path="url(#g)"><g clip-path="url(#h)"><path d="M133.3 191.7L150 225l16.7-33.3-16.7-33.4zm0 0" fill="#009e5f"/></g></g><g clip-path="url(#i)"><g clip-path="url(#j)"><path d="M112.5 150l16.7 33.3 16.6-33.3-16.6-33.3zm0 0" fill="#009e5f"/></g></g><g clip-path="url(#k)"><g clip-path="url(#l)"><path d="M154.2 150l16.6 33.3 16.7-33.3-16.7-33.3zm0 0" fill="#009e5f"/></g></g></svg>