<svg xmlns="http://www.w3.org/2000/svg" width="400" height="400" viewBox="0 0 300 300"><defs><clipPath id="a"><path d="M150 0a150 150 0 100 300 150 150 0 000-300zm0 0"/></clipPath><clipPath id="b"><path d="M0 0h250v150H0zm0 0"/></clipPath><clipPath id="c"><path d="M150 0a150 150 0 100 300 150 150 0 000-300zm0 0"/></clipPath><clipPath id="d"><path d="M79 104h42v40H79zm0 0"/></clipPath><clipPath id="e"><path d="M150 0a150 150 0 100 300 150 150 0 000-300zm0 0"/></clipPath><clipPath id="f"><path d="M37 43h34v32H37zm0 0"/></clipPath><clipPath id="g"><path d="M150 0a150 150 0 100 300 150 150 0 000-300zm0 0"/></clipPath><clipPath id="h"><path d="M131 37h32v30h-32zm0 0"/></clipPath><clipPath id="i"><path d="M150 0a150 150 0 100 300 150 150 0 000-300zm0 0"/></clipPath><clipPath id="j"><path d="M83 6h34v32H83zm0 0"/></clipPath><clipPath id="k"><path d="M150 0a150 150 0 100 300 150 150 0 000-300zm0 0"/></clipPath><clipPath id="l"><path d="M112 76h22v20h-22zm0 0"/></clipPath><clipPath id="m"><path d="M150 0a150 150 0 100 300 150 150 0 000-300zm0 0"/></clipPath></defs><g clip-path="url(#a)"><path fill="#ce1125" d="M0 0h300v300H0z"/></g><g clip-path="url(#b)"><g clip-path="url(#c)"><path d="M-50 150h300V0H-50zm0 0" fill="#002b7e"/></g></g><g clip-path="url(#d)"><g clip-path="url(#e)"><path d="M100 104.1l12.9 39.6-33.7-24.4h41.6l-33.7 24.5" fill="#fff"/></g></g><g clip-path="url(#f)"><g clip-path="url(#g)"><path d="M54.2 43.8L64.5 75l-27-19.3h33.3L43.8 75" fill="#fff"/></g></g><g clip-path="url(#h)"><g clip-path="url(#i)"><path d="M146.9 37.5l9.6 29.2-25.2-18h31.2l-25.3 18" fill="#fff"/></g></g><g clip-path="url(#j)"><g clip-path="url(#k)"><path d="M100 6.3l10.3 31.2-27-19.3h33.4l-27 19.3" fill="#fff"/></g></g><g clip-path="url(#l)"><g clip-path="url(#m)"><path d="M123 76l6.4 19.8-16.9-12.2h20.8l-16.8 12.2" fill="#fff"/></g></g></svg>