<svg xmlns="http://www.w3.org/2000/svg" width="400" height="400" viewBox="0 0 300 300"><defs><clipPath id="a"><path d="M150 0a150 150 0 100 300 150 150 0 000-300zm0 0"/></clipPath><clipPath id="b"><path d="M0 85h300v130H0zm0 0"/></clipPath><clipPath id="c"><path d="M150 0a150 150 0 100 300 150 150 0 000-300zm0 0"/></clipPath><clipPath id="d"><path d="M0 0h100v300H0zm0 0"/></clipPath><clipPath id="e"><path d="M150 0a150 150 0 100 300 150 150 0 000-300zm0 0"/></clipPath><clipPath id="f"><path d="M209 107h82v78h-82zm0 0"/></clipPath><clipPath id="g"><path d="M150 0a150 150 0 100 300 150 150 0 000-300zm0 0"/></clipPath></defs><g clip-path="url(#a)"><path fill="#12ac2b" d="M0 0h300v300H0z"/></g><g clip-path="url(#b)"><g clip-path="url(#c)"><path d="M-50 214.3h600V85.7H-50zm0 0" fill="#ffce00"/></g></g><g clip-path="url(#d)"><g clip-path="url(#e)"><path d="M-50 0v300l150-150" fill="#d21034"/></g></g><g clip-path="url(#f)"><g clip-path="url(#g)"><path d="M209.2 136.8l25.2 18.3-9.6 29.6 25.2-18.3 25.2 18.3-9.6-29.6 25.2-18.3h-31.2L250 107l-9.6 29.7"/></g></g></svg>