<svg xmlns="http://www.w3.org/2000/svg" width="400" height="400" viewBox="0 0 300 300"><defs><clipPath id="a"><path d="M150 0C67.156 0 0 67.156 0 150s67.156 150 150 150 150-67.156 150-150S232.844 0 150 0zm0 0"/></clipPath><clipPath id="b"><path d="M36 70h225v158H36zm0 0"/></clipPath><clipPath id="c"><path d="M150 0C67.156 0 0 67.156 0 150s67.156 150 150 150 150-67.156 150-150S232.844 0 150 0zm0 0"/></clipPath></defs><g clip-path="url(#a)"><path fill="#006c35" d="M0 0h300v300H0z"/></g><g clip-path="url(#b)"><g clip-path="url(#c)"><path d="M208.121 219.703c.008-.004.012.004.02 0 5.476.266 10.625.05 16.105.317.867.738.434 2.43-.133 2.738a.674.674 0 01-.093.039c-.02.004-.055-.004-.075 0-.02 0-.054.004-.074 0-1.781-.047-2.812-.086-4.594-.133a.941.941 0 00-.039-.262c-.422-1.25-3.48-1.168-4.199-.187-.012.012-.027.043-.035.055a.34.34 0 00-.04.074c-.01.027-.03.066-.038.097-.012.036-.012.09-.02.13-.004.042-.02.1-.015.148-2.407.289-4.57-.078-6.977-.168-.707-.88-.625-2.469.207-2.848zm-2.55-13.558c-.005.003-.016.015-.02.02-3.555.913-3.446 4.605-1.16 6.226-37.559 0-95.192-.641-107.551-.641-6.914 0-28.793-.824-29.215-.824 4.695 6.863 11.488 8.258 20.383 8.402 16.68 0 93.972-.207 115.969-.207-1.563 2.777.14 7.242 1.367 8.063.027.015.07.043.094.054a.814.814 0 00.152.059c.012.004.039-.004.055 0 1.457.344 2.097-.711 2.585-1.48 2.364.206 15.66.398 16.875-.02.004-.004.016-.02.02-.02.824 1.211 1.64 2.356 3.207 2.157 2.742-.59 4.898-.887 4.969-6.45 0 0-.281-9.484-6.508-8.89-1.473.226-5.606.64-5.606.64-4.78-.57-8.289-.629-13.667-.828.496-.629 1.37-3.18.3-4.105-.28-.23-.699-.36-1.277-.317h-.016c-.011-.004-.03 0-.039 0-.004-.004-.015-.02-.02-.02-.015-.003-.038-.007-.054-.019-.031-.02-.066-.062-.094-.093-.007-.008-.03-.028-.039-.036-.27-.398-.422-1.367-.597-1.613l-.02-.02-.02-.019-.039-.02h-.015c-.004.004-.02 0-.02 0zm32.124-65.04c-.445.012-.914.075-1.593.13-.735.156-.993.48-1.125 1.37.05 1.352.878 1.286 1.722 1.817.492.625.809 1.191-.035 2.215-.805.734-1.375 1.14-2.176 1.875-.379.644-.613 1.636.543 1.949 2.14.601 7.086-2.613 7.086-2.68.805-.601.54-1.746.473-1.746-.469-.535-1.524-.21-2.235-.3-.335 0-1.445-.165-.917-1.141.44-.61.601-.977.902-1.727.332-.734.039-1.23-1.164-1.633-.613-.109-1.035-.144-1.48-.129zm-76.898-2.87a1.619 1.619 0 00-.824.171c-.055 0-2.524 1.668-3.317 2.828-.484.371-.43.692-.285 1.332.379.871 1.047.598 1.8.188 1.005-.137 1.493.52 1.407 1.726-.46 1.5.207 2.063.207 2.157 0 .093.969.922 2.102.261 2.394-.914 3.883-1.8 7.234-2.53.883-.016.832-2.372-.562-2.458-1.813.094-3.489.184-5.305 1.613-1.117.258-1.309-.421-1.555-1.03-.285-1.513.64-2.579.45-3.712.05.047-.563-.504-1.352-.547m-120.094-7.37c-.148.003-.45.448-.844.956-3.523 5.614-3.84 13.996-1.894 16.5 1.035 1.18 2.738 1.7 3.996 1.328 2.21-.957 3.187-5.445 2.66-7.085-.738-1.157-1.324-1.34-2.062-.356-1.559 3.164-2.207 1-2.344-.77-.238-3.351.086-6.44.45-8.886.194-1.254.187-1.692.038-1.688zm93.563-4.071c.074-.004.132 0 .207 0h.039c2.386.648 5.906.719 8.96 1.031 2.489.156 3.72 2.106 1.387 2.926-2.297.785-4.507 1.402-4.515 4.727.3 1.644.234 2.507-.02 2.906l-.078.094s-.016.011-.016.015l-.02.02-.019.02-.02.019c-.007.004-.03.015-.034.02a1.5 1.5 0 01-.114.054c-.03.012-.078.012-.113.02-.547.078-1.34-.442-1.93-.75-1.417-1.02-5.398-3.485-5.964-8.778-.078-1.191.812-2.222 2.25-2.324zm-38.305-5.23c-.93.066-1.762.562-1.387 1.874-.058.954 2.63 2.11 2.793 4.313.383.906-.574 3.816.223 4.086.734.305 1.754-2.012 2.14-4.16.211-1.18-.921-5.305-2.851-6.04a3.28 3.28 0 00-.918-.073m127.984-5.778c-1.054.133-2.054 1.13-1.593 2.723-.29.933 1.43 4.207 1.875 5.941.402 1.239-.516 4.735.32 5.102.766.41 2.789-2.078 2.719-5.196.222-1.601-.575-7.507-2.59-8.511a1.914 1.914 0 00-.73-.059zM73.25 113.43c.582.007 1.195.293 1.52 1.105.293.746.011 1.528-.34 1.914 0 0 .004.016 0 .016a.405.405 0 01-.016.039c-.25.32-1.121.187-1.746.187-.75-.03-1.121-.156-1.574-.77-.215-.679.441-1.347.73-1.855l.02-.02a.91.91 0 01.133-.148c.222-.207.613-.398 1.03-.449.079-.011.161-.02.243-.02m-19.2-2.663c-5.925.109-14.6 7.77-14.831 12.02 6.254-3.005 12.394-5.895 18.75-9-1.024-1.532-.063-2.911-3.918-3.02m100.144-2.063c.47-.047 1.078.11 1.668.45.856.495 1.38 1.242 1.313 1.78 0 .016.004.044 0 .06-.004.015-.031.042-.035.054-.004.016-.016.043-.02.058l-.02.036-.015.039a.921.921 0 01-.113.129c-.414.382-1.36.332-2.25-.188-.848-.488-1.371-1.238-1.313-1.781 0-.012.016-.04.016-.055a.658.658 0 01.078-.187c.012-.02.02-.055.035-.075l.02-.02a.709.709 0 01.093-.093c.137-.105.328-.183.543-.207m71.977-1.207a.485.485 0 00-.207.02s-11.434 8.136-11.719 8.421c-1.133 1.004-.566 4.551 0 4.141.82.317 12.332-7.484 12.113-8.398.504.03.743-4.016-.187-4.184zm-82.781-3.39c-.446.078-.875.44-1.032 1.046-.097.399.192 1.059-.168 1.258-.207.207-1.007.086-.976-1.012 0-.351-.258-.734-.414-.957-.156-.101-.242-.129-.524-.129-.343.012-.355.102-.543.391-.082.297-.187.586-.187.918-.043.395-.184.527-.469.582-.32 0-.246.035-.508-.129-.156-.172-.355-.238-.355-.527 0-.297-.059-.777-.149-.973-.136-.18-.375-.258-.62-.32-1.348.004-1.426 1.535-1.348 2.117-.102.113-.172 2.875 1.668 3.64 2.468 1.177 8.347.485 6.918-3.32 0-.351-.094-1.535-.133-1.855-.25-.586-.715-.809-1.16-.73m-20.512-3.227c-.035.012-.067.039-.098.058-.011.008-.039.028-.054.036-.243.18-.528.601-1.16 1.05-1.075 1.22-1.27 2.07-1.204 4.52.063.258 2.04 5.754 3.715 9.617 1.129 4.016 2.172 8.613 1.406 12.957-2.644 5.742-7.96 10.89-13.09 13.688-2.613.836-4.867.55-5.472-.02-.008-.004-.016-.015-.02-.02-1.5-1.007-1.535-2.804-1.445-3.113 0 0 .004-.015 0-.015.008-.004.016-.016.02-.02 4.328-3.015 9.273-5.457 13.144-13.594 1.145-3.109 1.492-4.976.356-9.789-.442-1.789-.989-3.265-2.211-4.535.004-.004.015-.015.015-.02.739-.35 2.653 1.055 2.946.169-.454-2.297-2.008-5.38-3.77-6.957-1.543-1.399-3.219-1.563-4.629-.282-1.59.887-1.93 4.063-1.164 6.844.852 2.094 3.148 2.461 4.781 6.676v.02c.035.261.563 3.144-.261 4.312-.668 2.086-9.254 8.855-9.864 9.262-.007.007-.05.03-.054.039-.004.004-.016.015-.02.015-.004.004-.016.02-.02.02 0 .004-.015.02-.019.02H104.671c-.003-.005-.015-.016-.019-.02v-.02c-.004-.004-.015-.027-.02-.035-.023-.168.02-.601 0-1.293-.054-1.27.47-4.14.434-4.633v-.015c-.004-.004-.015-.02-.02-.02v-.02h-.019c-2.836 1.833-3.773 7.45-4.293 9.114-7.183 4.965-15.343 8.656-20.043 13.688-2.449 3.82 16.86-4.391 19.106-5.383.02.015.039.039.055.054.425.473.464 2.11 1.746 3.582 2.007 2.72 6.273 4.395 10.425 3.36 6.961-2.52 10.97-7.266 15.055-12.528.582-.847 1.496-1.515 2.344-.863 2.805 6.281 10.894 10.754 21.355 11.215 2.422-2.945 1.262-4.39.282-5.008-.301-.203-5.204-2.11-5.961-4.012-.48-1.77.683-3.34 3.015-4.52 6.719-.812 13.32-1.714 19.707-3.769.067-2.144 1.328-5.355 2.176-6.75.59-.964.969-1.062 1.106-1.199a.047.047 0 00.02-.02s.019-.015.019-.019c.004 0 .015-.012.02-.016v-.039a.574.574 0 00-.02-.187l-1.086-.637-21.434-.094c-.266-.101-.46-.203-.582-.3l-.035-.04c-.004 0-.016-.011-.02-.015l-.02-.02c0-.007-.015-.03-.019-.039l-.015-.015v-.02l-.02-.02v-.148l.02-.02.015-.038c.106-.14.36-.274.676-.395 5.117-.695 14.211-2.187 14.813-10.93-.094-4.554-1.95-7.535-7.536-8.363-4.109.317-7.035 4.29-6.562 8.664-.2 1.176.398 3.489-.809 3.75-7.875.719-16.472 5.653-16.761 9.188h-.02a.283.283 0 01-.055.035c-.007 0-.03.004-.039 0l-.054.02H131.484c-.02-.004-.058-.012-.074-.02-.512-.14-1.172-.988-1.07-2.176-.3-6.105-2.285-13.016-5.399-18.336-1.113-1.11-1.593-1.558-1.914-1.61-.007-.003-.027 0-.039 0h-.054c-.004 0-.016-.003-.02 0h-.016c-.003 0-.02-.003-.02 0zm96.969-8.082c-1.211-.059-2.5.726-2.832 2.383.007.976.445 1.511.359 2.398-.129.508-.648.844-1.895.246.196-.18-.804-1.594-.804-1.594-.973-.593-2.27.032-3.113.582a4.728 4.728 0 00-.282 3.766c1.395 2.578 6.176 6.973 8.457 7.016.04-2.324.266-5.41.395-7.332.05-.727.222-1.524.918-1.707.691-.184 1.898.699 1.914-.059-.13-1.476-.426-3.656-1.258-4.683-.43-.637-1.133-.977-1.86-1.016M102.7 92.254c-.304-.031-.703.082-1.16.355-2.184 1.18-3.031 4.684-1.672 6.735 1.27 1.804 3.278 1.14 3.547 1.14 2.137.27 3.41-4.011 3.41-4.011s.063-1.203-2.476 1.07c-1.067.2-1.211-.188-1.48-.79-.223-1.112-.177-2.241.339-3.355.234-.668 0-1.093-.508-1.144m82.871-.824c-.445.078-.875.46-1.03 1.066-.099.399.19 1.04-.169 1.238-.207.211-1.008.086-.976-1.011 0-.352-.254-.735-.41-.957-.157-.102-.262-.13-.544-.13-.343.012-.34.102-.527.391-.078.297-.187.586-.187.922-.043.39-.18.524-.47.578-.32 0-.265.04-.523-.129-.156-.168-.34-.238-.34-.527 0-.297-.078-.773-.167-.973-.137-.18-.352-.253-.598-.32-1.352.008-1.43 1.535-1.352 2.121-.101.11-.168 2.871 1.668 3.637 2.47 1.176 7.118.66 6.918-3.32 0-.352-.093-1.532-.129-1.856-.254-.586-.718-.808-1.164-.73m-18.148-8.926c.105.469.21.945.281 1.426.234 1.039.438 2.07.656 3.093-.91-1.253-1.664-2.265-1.988-2.625-2.059-2.449.047-1.609 1.05-1.894m78.786-1.95c-1.152-.038-2.41.837-1.91 2.551-.293.934 2.457 4.114 2.902 5.848.403 1.238-.61 5.223.227 5.59.77.41 1.847-2.754 2.25-5.684.222-1.601-.965-7.226-2.98-8.23a2.05 2.05 0 00-.489-.074m-142.5-3.696c.574-.058 1.273.473 1.613 1.22.364.8.18 1.562-.414 1.706-.594.145-1.36-.383-1.722-1.18-.364-.8-.184-1.582.41-1.726.039-.008.074-.016.113-.02m76.816-2.699c-1.261-.039-2.664.762-2.117 2.344-.316.863 2.715 3.797 3.207 5.398.88 2.465-.672 4.82.242 5.16.844.38 2.016-2.546 2.458-5.25.507-2.187-1.051-6.671-3.262-7.593a2.346 2.346 0 00-.528-.059m-98.601-.055c-.356.043-.754.247-1.219.356-1.531.488-2.965 1.812-2.512 4.387 1.809 11 2.989 19.394 4.797 30.394.282 1.29-.797 2.985-2.191 2.813-2.367-1.602-2.957-4.844-6.992-4.707-2.926.035-6.262 3.218-6.676 6.28-.488 2.438-.66 5.075 0 7.2 2.055 2.473 4.516 2.207 6.676 1.652 1.773-.73 3.234-2.48 3.86-2.062.003 0 .019-.004.019 0 .004 0 0 .016 0 .02.386.675-.036 6.394-8.364 10.816-5.117 2.297-9.187 2.848-11.379-1.332-1.359-2.61.098-12.555-3.246-10.258-9.883 25.484 23.16 29.04 26.852 1.05.238-.788.965-1.577 1.48-1.386.227.098.434.402.504.977-.765 25.34-25.562 27.078-29.773 19.105-1.043-1.879-1.356-6.062-1.461-8.566-.192-1.52-.574-2.395-1.016-2.739-1-.757-2.351 1.211-2.64 4.63-.418 2.75-.301 3.503-.301 6.152 1.324 20.015 33.234 11.414 38.418-5.121 2.566-8.547-.051-14.996.808-15.786.008-.007.028-.015.036-.02l.039-.019a.384.384 0 01.148-.035c3.168 3.41 7.613.434 8.59-.75.418-.594 1.46-.972 2.191-.207 2.473 1.778 6.801.938 7.707-2.195.524-3.063.965-6.215 1.07-9.488-1.613.5-2.91.875-3.433 1.425a.911.911 0 00-.242.45c-.14.906-.274 1.816-.414 2.718a.685.685 0 01-.074.207.866.866 0 01-.301.282c-.57.312-1.563.132-1.613-.692-.766-3.48-3.915-3.933-5.829 1.461-1.289 1.043-3.636 1.246-3.882-.316.312-3.621-1.145-4.11-4.07-2.403-.938-7.171-1.872-14.015-2.813-21.187 1.219-.035 2.336.848 3.453-.543-1.207-3.75-3.758-11.379-5.195-12.094-.012-.004-.028-.015-.036-.02-.066-.077-.144-.148-.207-.206a1.966 1.966 0 01-.093-.075 1.037 1.037 0 00-.281-.129c-.133-.039-.262-.054-.395-.039zm-25.293-.039c-.7.082-1.356.649-1.668 1.407-.117 2.675-.133 5.351.168 7.82 1.215 4.324 1.601 8.129 2.191 12.562.164 5.934-3.425 2.567-3.261-.375.828-3.824.605-9.84-.13-11.363-.585-1.523-1.261-1.902-2.683-1.648-1.129-.07-4.039 3.105-4.855 8.36 0 0-.68 2.698-.977 5.1-.398 2.716-2.195 4.637-3.45-.374-1.081-3.645-1.75-12.618-3.562-10.52-.52 7.012-1.136 19.344 4.82 20.606 7.204.695 3.223-12.176 5.833-14.512.492-1.152 1.406-1.176 1.48.281v10.934c-.066 3.55 2.27 4.61 4.086 5.344 1.89-.149 3.14-.094 3.883 1.742.293 6.3.601 12.617.898 18.918 0 0 4.368 1.254 4.575-10.63.21-6.98-1.387-12.835-.45-14.195.035-1.335 1.746-1.402 2.926-.75 1.883 1.329 2.719 2.961 5.645 2.305 4.449-1.226 7.132-3.387 7.199-6.805-.262-3.25-.637-6.5-2.043-9.75.195-.59-.852-2.128-.656-2.718.8 1.254 2.007 1.148 2.285 0-.758-2.496-1.938-4.89-3.844-5.926-1.574-1.387-3.879-1.094-4.723 1.8-.39 3.337 1.207 7.29 3.637 10.52.516 1.262 1.238 3.36.918 5.25-1.293.735-2.574.43-3.656-.715 0 0-3.543-2.652-3.543-3.242.941-6.02.203-6.71-.32-8.383-.364-2.304-1.457-3.035-2.344-4.613-.887-.937-2.09-.937-2.66 0-1.567 2.719-.832 8.547.3 11.156.817 2.403 2.07 3.903 1.48 3.903-.487 1.355-1.5 1.043-2.23-.528-1.046-3.234-1.257-8.058-1.257-10.234-.313-2.7-.664-8.457-2.438-9.918-.473-.645-1.031-.871-1.574-.809zm134.082-.507c-.246.023-.55.406-1.016 1.386-1.11 1.82-1.867 4.996-1.78 7.97 2.41 16.687 3.151 31.288 4.726 47.98.129 1.613-.11 3.957-1.18 4.894-3.969 4.145-9.691 9.254-15.922 11.606-.668.753 1.668 3.96 4.688 3.957 5.054-.586 9.496-3.422 13.613-10.895 1.101-1.742 3.039-5.473 3.094-8.363.386-16.95-.856-30.125-3.395-42.375-.16-1.192-.05-2.606.152-2.961.329-.39 1.438.008 2.024-.957.863-.883-2.305-8.192-4.106-11.008-.359-.707-.582-1.27-.898-1.238zm-86.55-.04a5.538 5.538 0 00-2.25.618c-1.638 1.566-2.02 4.078-.731 5.644 1.254.594 2.504 1.856 1.668 2.551-3.547 3.785-12.774 10.113-13.239 11.27l-.02.035v.059l.02.034.02.02c.004.004.016-.004.02 0 .003.004.015.02.019.02h.016c.004 0 .02.015.02.015.468.317 6.241.309 6.882.02.004 0 .016-.016.016-.016.003-.004.02 0 .02 0 .003-.004 0-.02 0-.02 1.983-.73 11.401-11.496 11.401-11.496-.488-.418-.937-.722-1.425-1.14-.524-.453-.47-.899 0-1.352 2.332-1.355 1.593-4.344.375-5.699-1.008-.453-1.961-.605-2.813-.562zm-33.114-.039c-.445.079-.875.446-1.031 1.051-.098.399.171 1.059-.188 1.258-.207.207-.988.066-.957-1.031 0-.352-.258-.719-.41-.938-.156-.101-.262-.132-.543-.132-.348.015-.34.105-.527.394-.086.293-.192.582-.192.918-.043.39-.199.523-.488.582-.32 0-.246.035-.504-.133-.156-.168-.34-.234-.34-.523 0-.301-.078-.778-.168-.977-.136-.18-.351-.273-.601-.336-1.348.004-1.446 1.551-1.368 2.137-.101.11-.152 2.855 1.688 3.617 2.469 1.18 7.098.68 6.898-3.3 0-.348-.078-1.532-.109-1.856-.254-.586-.719-.809-1.164-.73zm129.02-.355c-.212.035-.52.355-1.09 1.105-1.41 4.618-1.907 8.387-1.368 11.25 3.625 18.922 7.34 36.16 6.75 54.168 1.72.012 3.707-3.93 4.555-7.835.465-5.38-.309-8.653-.45-11.813-.14-3.16-3.577-28.809-4.273-31.2-.843-4.523 3.344-.593 2.887-3.226-1.45-3.316-5.058-8.144-6.187-11.023-.426-.774-.477-1.485-.825-1.426zm52.984-.281c-.246.023-.547.426-1.012 1.406-1.113 1.824-1.496 5.086-1.05 7.969 2.679 18.12 4.671 35.668 5.081 51.73-.23 1.528-.297 2.336-1.011 4.258-1.582 2.027-3.325 4.57-4.97 5.793-1.644 1.227-5.14 2.395-6.28 3.3-3.625 2.098-3.645 4.509-.711 4.595 5.05-.586 11.03-1 15.148-7.22 1.102-1.741 2.399-6.464 2.457-9.355.387-16.949-.219-33.52-2.758-45.77-.164-1.195-.687-3.937-.488-4.292.328-.84 1.98.082 2.57-.883.864-.883-4.277-7.46-6.078-10.273-.355-.707-.578-1.29-.898-1.258zM44.906 72.82c-1.086-.03-2.289.645-1.82 1.95-.27.71 2.129 3.12 2.55 4.445.38.941-.374 3.976.415 4.258.722.312 1.722-2.102 2.101-4.332.207-1.223.051-5.407-2.797-6.266a2.395 2.395 0 00-.449-.055zm182.715-.187c-.3-.047-.637.101-1.012.656-.714.629-1.484 1.766-1.46 3.227.175 2.57.632 5.207.804 7.78.063.345.129.684.192 1.032a9.164 9.164 0 00-.66-.77c-5.016-5.269 2.304-.863-.954-4.93-2.758-3.03-3.566-3.991-5.926-5.816-1.183-.761-1.898-2.222-2.289.266-.152 2.188-.312 4.719-.168 6.563-.007 1.023 1.051 2.953 1.97 4.086a432.667 432.667 0 0110.198 13.05c.723 9.309.918 17.844 1.653 27.168-.106 3.989-1.332 9.285-2.496 9.79 0 0-1.774 1.019-2.961-.114-.864-.348-4.313-5.758-4.313-5.758-1.765-1.617-2.945-1.156-4.203 0-3.465 3.348-5.031 9.614-7.383 13.934-.61.96-2.32 1.781-4.218-.074-4.833-6.602-2.008-15.993-2.606-13.578-4.305 4.847-2.398 12.878-1.426 14.609 1.418 2.836 2.563 4.652 5.325 6.055 2.511 1.847 4.468.695 5.55-.602 2.528-2.621 2.563-9.324 3.75-10.648.832-2.438 2.918-2.02 3.938-.938.984 1.418 2.148 2.34 3.597 3.113 2.36 2.078 5.176 2.457 7.95.563 1.898-1.067 3.129-2.45 4.242-5.176 1.187-3.187.597-19.887.336-29.176a400.055 400.055 0 015.289 7.668c.765 8.157 1.113 16.188.86 23.89-.18 1.528 5.343-4.573 5.304-7.464-.024-2.531.008-4.82 0-6.957a295.851 295.851 0 017.726 13.031c1.52-.804 1-9.406.04-10.593-2.57-4.305-5.856-8.961-8.403-12.563-.504-4.547-1.187-9.906-1.5-11.55-.484-2.56-.972-6.41-1.703-9.45-.203-1.187-.812-4.98-.621-5.344.3-.847 1.43.028 1.988-.957.832-.906-2.89-10.558-4.781-13.312-.68-1.235-1.91-.805-3.434 1.199-1.41 1.324-.894 4.336-.351 7.2 1.394 7.308 2.644 14.745 3.633 22.163a835.323 835.323 0 00-6.262-9.187c-.059-.305-.281-1.426-.281-1.442 0-.132-.301-5.976-.563-7.37-.047-.563-.18-.727.414-.653.625.527.711.555 1.106.73.633.114 1.187-.957.804-1.953-1.96-3.617-3.921-7.254-5.886-10.875-.235-.23-.5-.476-.809-.523m-70.797-.73c-.629.058-1.125.421-1.312 1.35-.25 2.177-.121 3.36.242 5.173.281 1.21 2.043 3.234 2.91 4.406 4.137 5.563 8.117 11.152 11.961 16.934a176.448 176.448 0 011.328 12.671c.625 9.172.813 20.586.246 30.247 1.719.066 4.473-2.774 5.438-6.938.629-5.758-.223-17.508-.282-20.906-.039-1.41-.128-3.094-.226-4.856a314.74 314.74 0 0113.07 23.547c1.551-.734 1.207-9.476.301-10.703-3.41-7.34-8.117-14.578-9.621-17.363-.54-1.008-2.387-3.813-4.574-7.05-.403-4.618-.84-8.532-1.125-9.716-.703-4.883 2.007.551 1.632-2.285-.878-4.875-3.57-8.191-6.75-12.656-1.023-1.453-1.003-1.75-2.59.355-.945 2.145-.933 3.934-.656 5.606a28.99 28.99 0 00-1.668-2.211c-2.746-2.356-2.914-2.485-5.195-4.406-.715-.512-2.086-1.297-3.129-1.2zm-23.887-.43c-.609.05-1.289.761-1.84 2.136-.472 1.043-1.05 6.504-.952 6.504-.38 1.625 1.695 2.317 2.644.227 1.414-3.832 1.422-5.461 1.516-7.086-.22-1.238-.758-1.836-1.368-1.781m6.47-.508c-.395.055-.876.558-1.54 1.765-.476 1.262-2.535 3.176-1.05 7.125 1.214 2.5 1.714 6.567 1.163 11.098-.843 1.29-1.035 1.73-2.136 3.02-1.555 1.668-3.23 1.242-4.52.617-1.207-.809-2.152-1.227-2.703-3.805.102-4.11.344-10.836-.41-12.262-1.106-2.21-2.934-1.418-3.715-.75-3.746 3.426-5.598 9.211-6.73 13.817-1.04 3.355-2.145 2.387-2.922 1.031-1.895-1.773-2.028-15.648-4.313-13.367-3.664 10.465 2.098 21.926 6.09 20.812 2.883 1.192 4.711-4.289 5.89-10.293.805-1.683 1.423-1.878 1.837-1.011-.106 7.98.574 9.761 2.625 12.183 4.578 3.535 8.367.45 8.664.153l3.562-3.563c.793-.836 1.84-.887 2.961-.148 1.09.988.95 2.691 3.281 3.879 1.965.785 6.153.191 7.125-1.5 1.309-2.243 1.625-3.012 2.23-3.864.934-1.242 2.532-.691 2.532-.297-.148.692-1.086 1.375-.45 2.625 1.11.832 1.368.297 2.028.11 2.32-1.11 4.067-6.149 4.067-6.149.101-1.879-.965-1.738-1.649-1.351-.89.547-.945.73-1.84 1.277-1.132.168-3.336.918-4.422-.77-1.113-2.027-1.12-4.855-1.968-6.902 0-.148-1.489-3.215-.114-3.41.692.13 2.184.516 2.418-.73.727-1.215-1.57-4.657-3.132-6.395-1.356-1.488-3.227-1.672-5.043-.148-1.27 1.168-1.082 2.472-1.332 3.71-.32 1.423-.262 3.184 1.183 5.063 1.266 2.5 3.57 5.707 2.813 10.238 0 0-1.34 2.153-3.696 1.875-.98-.214-2.582-.64-3.43-6.918-.644-4.753.16-11.414-1.855-14.535-.457-1.175-.847-2.316-1.5-2.23m-20.437-.11c-.235-.007-.582.122-1.07.41-1.098.735-3.27 3-3.337 5.606-.066 1.473-.343 1.465.618 2.402.695 1 1.39.903 2.793.168.808-.593 1.078-.972 1.351-1.968.332-1.672-1.758.789-2.027-1.07-.465-1.723.871-2.434 2.14-4.106.028-.785.043-1.43-.468-1.442" fill="#fff"/></g></g></svg>