<svg xmlns="http://www.w3.org/2000/svg" width="400" height="400" viewBox="0 0 300 300"><defs><clipPath id="a"><path d="M0 0h100v300H0zm0 0"/></clipPath><clipPath id="b"><path d="M150 0a150 150 0 100 300 150 150 0 000-300zm0 0"/></clipPath><clipPath id="c"><path d="M100 0h100v300H100zm0 0"/></clipPath><clipPath id="d"><path d="M150 0a150 150 0 100 300 150 150 0 000-300zm0 0"/></clipPath><clipPath id="e"><path d="M200 0h100v300H200zm0 0"/></clipPath><clipPath id="f"><path d="M150 0a150 150 0 100 300 150 150 0 000-300zm0 0"/></clipPath><clipPath id="g"><path d="M118 116h64v61h-64zm0 0"/></clipPath><clipPath id="h"><path d="M150 0a150 150 0 100 300 150 150 0 000-300zm0 0"/></clipPath></defs><g clip-path="url(#a)"><g clip-path="url(#b)"><path d="M0 300h100V0H0zm0 0" fill="#00853e"/></g></g><g clip-path="url(#c)"><g clip-path="url(#d)"><path d="M100 300h100V0H100zm0 0" fill="#fcee42"/></g></g><g clip-path="url(#e)"><g clip-path="url(#f)"><path d="M200 300h100V0H200zm0 0" fill="#e21b22"/></g></g><g clip-path="url(#g)"><g clip-path="url(#h)"><path d="M118.3 139.7l19.6 14.2-7.5 23 19.6-14.2 19.6 14.3-7.5-23 19.6-14.3h-24.2l-7.5-23-7.5 23" fill="#00853e"/></g></g></svg>