<svg xmlns="http://www.w3.org/2000/svg" width="400" height="400" viewBox="0 0 300 300"><defs><clipPath id="a"><path d="M150 0a150 150 0 100 300 150 150 0 000-300zm0 0"/></clipPath><clipPath id="b"><path d="M0 100h300v200H0zm0 0"/></clipPath><clipPath id="c"><path d="M150 0a150 150 0 100 300 150 150 0 000-300zm0 0"/></clipPath><clipPath id="d"><path d="M0 0h150v300H0zm0 0"/></clipPath><clipPath id="e"><path d="M150 0a150 150 0 100 300 150 150 0 000-300zm0 0"/></clipPath><clipPath id="f"><path d="M0 200h300v100H0zm0 0"/></clipPath><clipPath id="g"><path d="M150 0a150 150 0 100 300 150 150 0 000-300zm0 0"/></clipPath></defs><g clip-path="url(#a)"><path fill="#d52828" d="M0 0h300v300H0z"/><path d="M-50 0h400L-50 300" fill="#fbd755"/></g><g clip-path="url(#b)"><g clip-path="url(#c)"><path d="M550 100v200H-50" fill="#fff"/></g></g><g clip-path="url(#d)"><g clip-path="url(#e)"><path d="M-50 0h200L-50 300" fill="#003e86"/></g></g><g clip-path="url(#f)"><g clip-path="url(#g)"><path d="M-50 300h600V200" fill="#00793c"/></g></g></svg>