<svg xmlns="http://www.w3.org/2000/svg" width="400" height="400" viewBox="0 0 300 300"><defs><clipPath id="a"><path d="M0 0h300v150H0zm0 0"/></clipPath><clipPath id="b"><path d="M150 0a150 150 0 100 300 150 150 0 000-300zm0 0"/></clipPath><clipPath id="c"><path d="M0 150h300v150H0zm0 0"/></clipPath><clipPath id="d"><path d="M150 0a150 150 0 100 300 150 150 0 000-300zm0 0"/></clipPath><clipPath id="e"><path d="M41 18h114v114H41zm0 0"/></clipPath><clipPath id="f"><path d="M150 0a150 150 0 100 300 150 150 0 000-300zm0 0"/></clipPath><clipPath id="g"><path d="M65 21h108v108H65zm0 0"/></clipPath><clipPath id="h"><path d="M150 0a150 150 0 100 300 150 150 0 000-300zm0 0"/></clipPath><clipPath id="i"><path d="M84 51h26v26H84zm0 0"/></clipPath><clipPath id="j"><path d="M150 0a150 150 0 100 300 150 150 0 000-300zm0 0"/></clipPath><clipPath id="k"><path d="M144 51h26v26h-26zm0 0"/></clipPath><clipPath id="l"><path d="M150 0a150 150 0 100 300 150 150 0 000-300zm0 0"/></clipPath><clipPath id="m"><path d="M114 29h26v26h-26zm0 0"/></clipPath><clipPath id="n"><path d="M150 0a150 150 0 100 300 150 150 0 000-300zm0 0"/></clipPath><clipPath id="o"><path d="M96 87h25v26H96zm0 0"/></clipPath><clipPath id="p"><path d="M150 0a150 150 0 100 300 150 150 0 000-300zm0 0"/></clipPath><clipPath id="q"><path d="M133 87h26v26h-26zm0 0"/></clipPath><clipPath id="r"><path d="M150 0a150 150 0 100 300 150 150 0 000-300zm0 0"/></clipPath></defs><g clip-path="url(#a)"><g clip-path="url(#b)"><path d="M0 150h450V0H0zm0 0" fill="#ec2939"/></g></g><g clip-path="url(#c)"><g clip-path="url(#d)"><path d="M0 300h450V150H0zm0 0" fill="#fff"/></g></g><g clip-path="url(#e)"><g clip-path="url(#f)"><path d="M154.3 75a56.4 56.4 0 11-112.8 0 56.4 56.4 0 01112.8 0" fill="#fff"/></g></g><g clip-path="url(#g)"><g clip-path="url(#h)"><path d="M172 75a53.3 53.3 0 11-106.5 0A53.3 53.3 0 01172 75" fill="#ec2939"/></g></g><g clip-path="url(#i)"><g clip-path="url(#j)"><path d="M105 76.4l-7.7-6-7.7 6 3-9.5-7.7-5.9h9.4l3-9.4 2.9 9.5h9.4l-7.6 5.8" fill="#fff"/></g></g><g clip-path="url(#k)"><g clip-path="url(#l)"><path d="M165 76.4l-7.6-6-7.7 6 3-9.5L145 61h9.5l2.9-9.4 2.9 9.5h9.5l-7.7 5.8" fill="#fff"/></g></g><g clip-path="url(#m)"><g clip-path="url(#n)"><path d="M135 54l-7.7-5.8-7.6 5.9 3-9.5-7.8-5.9h9.5l3-9.4 2.9 9.4h9.4l-7.6 5.9" fill="#fff"/></g></g><g clip-path="url(#o)"><g clip-path="url(#p)"><path d="M116.2 112l-7.7-5.8-7.7 5.9 3-9.5-7.7-5.9h9.5l2.9-9.4 3 9.5h9.4l-7.7 5.8" fill="#fff"/></g></g><g clip-path="url(#q)"><g clip-path="url(#r)"><path d="M153.8 112l-7.7-5.8-7.6 5.9 3-9.5-7.8-5.9h9.5l3-9.4 2.8 9.5h9.5l-7.7 5.8" fill="#fff"/></g></g></svg>