<svg xmlns="http://www.w3.org/2000/svg" width="400" height="400" viewBox="0 0 300 300"><defs><clipPath id="a"><path d="M150 0a150 150 0 100 300 150 150 0 000-300zm0 0"/></clipPath><clipPath id="b"><path d="M0 0h300v200H0zm0 0"/></clipPath><clipPath id="c"><path d="M150 0a150 150 0 100 300 150 150 0 000-300zm0 0"/></clipPath><clipPath id="d"><path d="M0 0h300v100H0zm0 0"/></clipPath><clipPath id="e"><path d="M150 0a150 150 0 100 300 150 150 0 000-300zm0 0"/></clipPath><clipPath id="f"><path d="M61 50h78v100H61zm0 0"/></clipPath><clipPath id="g"><path d="M150 0a150 150 0 100 300 150 150 0 000-300zm0 0"/></clipPath><clipPath id="h"><path d="M71 82h59v63H71zm0 0"/></clipPath><clipPath id="i"><path d="M150 0a150 150 0 100 300 150 150 0 000-300zm0 0"/></clipPath><clipPath id="j"><path d="M72 116h56v9H72zm0 0"/></clipPath><clipPath id="k"><path d="M150 0a150 150 0 100 300 150 150 0 000-300zm0 0"/></clipPath><clipPath id="l"><path d="M72 121h56v9H72zm0 0"/></clipPath><clipPath id="m"><path d="M150 0a150 150 0 100 300 150 150 0 000-300zm0 0"/></clipPath><clipPath id="n"><path d="M97 69h7v8h-7zm0 0"/></clipPath><clipPath id="o"><path d="M150 0a150 150 0 100 300 150 150 0 000-300zm0 0"/></clipPath><clipPath id="p"><path d="M86 54h7v8h-7zm0 0"/></clipPath><clipPath id="q"><path d="M150 0a150 150 0 100 300 150 150 0 000-300zm0 0"/></clipPath><clipPath id="r"><path d="M107 54h8v8h-8zm0 0"/></clipPath><clipPath id="s"><path d="M150 0a150 150 0 100 300 150 150 0 000-300zm0 0"/></clipPath><clipPath id="t"><path d="M61 57h78v93H61zm0 0"/></clipPath><clipPath id="u"><path d="M150 0a150 150 0 100 300 150 150 0 000-300zm0 0"/></clipPath></defs><g clip-path="url(#a)"><path fill="#eb2127" d="M0 0h300v300H0z"/></g><g clip-path="url(#b)"><g clip-path="url(#c)"><path d="M-50 200h600V0H-50zm0 0" fill="#005ea4"/></g></g><g clip-path="url(#d)"><g clip-path="url(#e)"><path d="M-50 100h600V0H-50zm0 0" fill="#fff"/></g></g><g clip-path="url(#f)"><g clip-path="url(#g)"><path d="M135.8 105.2l3.2-46.5a90.6 90.6 0 00-77.7 0l3.2 46.5a50.3 50.3 0 0035.7 44.8c20-6 34.2-23.9 35.6-44.8" fill="#005ea4"/></g></g><g clip-path="url(#h)"><g clip-path="url(#i)"><path d="M71 111.5a44.7 44.7 0 0029.2 32.6 44.7 44.7 0 0029-32.6l-14.5-19.4-5.8 7.8-8.7-17.5-8.8 17.5-5.8-7.8L71 111.5" fill="#fff"/></g></g><g clip-path="url(#j)"><g clip-path="url(#k)"><path d="M72.3 116.4a9.7 9.7 0 0013.3 3.5 9.7 9.7 0 019.7 0 9.7 9.7 0 009.7 0 9.7 9.7 0 019.7 0 9.7 9.7 0 0013.3-3.5v2.8a9.7 9.7 0 01-13.3 3.5 9.7 9.7 0 00-9.7 0 9.7 9.7 0 01-9.7 0 9.7 9.7 0 00-9.7 0 9.7 9.7 0 01-13.3-3.5" fill="#005ea4"/></g></g><g clip-path="url(#l)"><g clip-path="url(#m)"><path d="M72.3 122a9.7 9.7 0 0013.3 3.5 9.7 9.7 0 019.7 0 9.7 9.7 0 009.7 0 9.7 9.7 0 019.7 0A9.7 9.7 0 00128 122v2.8a9.7 9.7 0 01-13.3 3.5 9.7 9.7 0 00-9.7 0 9.7 9.7 0 01-9.7 0 9.7 9.7 0 00-9.7 0 9.7 9.7 0 01-13.3-3.5" fill="#005ea4"/></g></g><g clip-path="url(#n)"><g clip-path="url(#o)"><path d="M100.2 69l.7 2.5 2.4-.6-1.7 1.8 1.7 1.8-2.4-.5-.7 2.4-.8-2.4-2.4.5 1.7-1.8L97 71l2.4.6" fill="#fcdb00"/></g></g><g clip-path="url(#p)"><g clip-path="url(#q)"><path d="M89.2 54.5L90 57l2.4-.6-1.7 1.9 1.7 1.8-2.4-.6-.8 2.4-.7-2.4-2.4.6 1.7-1.8-1.7-1.9 2.4.6" fill="#fcdb00"/></g></g><g clip-path="url(#r)"><g clip-path="url(#s)"><path d="M111 54.5l.8 2.4 2.4-.6-1.7 1.9 1.7 1.8-2.4-.6-.7 2.4-.8-2.4-2.4.6 1.7-1.8-1.7-1.9 2.4.6" fill="#fcdb00"/></g></g><g clip-path="url(#t)"><g clip-path="url(#u)"><path d="M64 57.5l3.3 47.5a47.5 47.5 0 0032.9 42 47.5 47.5 0 0032.8-42l3.2-47.5 2.8 1.2-3.2 46.5a50.3 50.3 0 01-35.6 44.8c-20-6-34.3-23.9-35.7-44.8l-3.2-46.5a89.5 89.5 0 002.8-1.2" fill="#eb2127"/></g></g></svg>