<svg xmlns="http://www.w3.org/2000/svg" width="400" height="400" viewBox="0 0 300 300"><defs><clipPath id="a"><path d="M150 0a150 150 0 100 300 150 150 0 000-300zm0 0"/></clipPath><clipPath id="b"><path d="M0 0h300v200H0zm0 0"/></clipPath><clipPath id="c"><path d="M150 0a150 150 0 100 300 150 150 0 000-300zm0 0"/></clipPath><clipPath id="d"><path d="M0 0h300v100H0zm0 0"/></clipPath><clipPath id="e"><path d="M150 0a150 150 0 100 300 150 150 0 000-300zm0 0"/></clipPath><clipPath id="f"><path d="M47 68h132v164H47zm0 0"/></clipPath><clipPath id="g"><path d="M150 0a150 150 0 100 300 150 150 0 000-300zm0 0"/></clipPath><clipPath id="h"><path d="M53 75h121v150H53zm0 0"/></clipPath><clipPath id="i"><path d="M150 0a150 150 0 100 300 150 150 0 000-300zm0 0"/></clipPath><clipPath id="j"><path d="M76 80h74v88H76zm0 0"/></clipPath><clipPath id="k"><path d="M113.1 75H55.4s-2.2 21.2-2.2 67.9 35.3 70.2 60 82.1c24.6-11.9 59.9-35.5 59.9-82.1S170.9 75 170.9 75zm0 0"/></clipPath><clipPath id="l"><path d="M60 164h106v61H60zm0 0"/></clipPath><clipPath id="m"><path d="M113.1 75H55.4s-2.2 21.2-2.2 67.9 35.3 70.2 60 82.1c24.6-11.9 59.9-35.5 59.9-82.1S170.9 75 170.9 75zm0 0"/></clipPath></defs><g clip-path="url(#a)"><path fill="#ed1c24" d="M0 0h300v300H0z"/></g><g clip-path="url(#b)"><g clip-path="url(#c)"><path d="M-45 200h450V0H-45zm0 0" fill="#0a4ea1"/></g></g><g clip-path="url(#d)"><g clip-path="url(#e)"><path d="M-45 100h450V0H-45zm0 0" fill="#fff"/></g></g><g clip-path="url(#f)"><g clip-path="url(#g)"><path d="M113.1 231.8c-26.9-13-65.3-38.7-65.3-89.6 0-50.8 2.4-74 2.4-74h125.9s2.4 23.2 2.4 74c0 50.9-38.5 76.6-65.4 89.5" fill="#fff"/></g></g><g clip-path="url(#h)"><g clip-path="url(#i)"><path d="M113.1 225c-24.6-11.9-60-35.5-60-82.1S55.5 75 55.5 75h115.5s2.2 21.2 2.2 67.9-35.3 70.2-60 82.1" fill="#ed1c24"/></g></g><g clip-path="url(#j)"><g clip-path="url(#k)"><path d="M118.4 130.6c6.7.1 19.7.4 31.3-3.5 0 0-.3 4.2-.3 9 0 4.9.3 9 .3 9a100.7 100.7 0 00-31.3-3.5v25.7h-10.5v-25.7c-7.6-.1-20.7 0-31.4 3.5 0 0 .3-4.1.3-9 0-4.8-.3-9-.3-9 11.6 4 24.7 3.6 31.4 3.5v-16.1c-6.1-.1-15 .2-24.8 3.5 0 0 .3-4.1.3-9 0-4.8-.3-9-.3-9a74 74 0 0024.7 3.6c-.3-10.3-3.3-23.2-3.3-23.2s6.2.5 8.6.5c2.5 0 8.6-.5 8.6-.5s-3 13-3.3 23.2c6.1 0 14.9-.3 24.8-3.6 0 0-.3 4.2-.3 9 0 4.9.3 9 .3 9a74 74 0 00-24.8-3.5" fill="#fff"/></g></g><g clip-path="url(#l)"><g clip-path="url(#m)"><path d="M112 240.3l-51-45.6s6.5-21 19.2-21c10.1 0 13.9 8 13.9 8s6.6-17.1 19-17.1c12.5 0 19.1 17.2 19.1 17.2s3.7-8.2 13.8-8.2c12.8 0 19.3 21.1 19.3 21.1" fill="#0a4ea1"/></g></g></svg>