<svg xmlns="http://www.w3.org/2000/svg" width="400" height="400" viewBox="0 0 300 300"><defs><clipPath id="a"><path d="M150 0a150 150 0 100 300 150 150 0 000-300zm0 0"/></clipPath><clipPath id="b"><path d="M0 150a150 150 0 10300 0 150 150 0 00-300 0"/></clipPath><clipPath id="c"><path d="M0 9h25v55H0zm0 0"/></clipPath><clipPath id="d"><path d="M150 0a150 150 0 100 300 150 150 0 000-300zm0 0"/></clipPath><clipPath id="e"><path d="M85 9h58v55H85zm0 0"/></clipPath><clipPath id="f"><path d="M150 0a150 150 0 100 300 150 150 0 000-300zm0 0"/></clipPath><clipPath id="g"><path d="M26 60h58v55H26zm0 0"/></clipPath><clipPath id="h"><path d="M150 0a150 150 0 100 300 150 150 0 000-300zm0 0"/></clipPath><clipPath id="i"><path d="M0 110h25v56H0zm0 0"/></clipPath><clipPath id="j"><path d="M150 0a150 150 0 100 300 150 150 0 000-300zm0 0"/></clipPath><clipPath id="k"><path d="M85 110h58v56H85zm0 0"/></clipPath><clipPath id="l"><path d="M150 0a150 150 0 100 300 150 150 0 000-300zm0 0"/></clipPath></defs><g clip-path="url(#a)"><path fill="#205b33" d="M0 0h300v300H0z"/><path d="M-50 300V0h600" fill="#0051b9"/></g><g clip-path="url(#b)"><path d="M550 0L-50 300" fill="none" stroke-width="30" stroke="#fbd115"/></g><g clip-path="url(#c)"><g clip-path="url(#d)"><path d="M-32.8 30L-15 42.8-22 63.5l17.7-12.8 17.6 12.8-6.7-20.7L24.3 30H2.5L-4.2 9.2-11 30" fill="#fff"/></g></g><g clip-path="url(#e)"><g clip-path="url(#f)"><path d="M85.7 30l17.6 12.8-6.7 20.7 17.6-12.8L132 63.5 125 42.8 142.8 30H121l-6.8-20.8-6.7 20.8" fill="#fff"/></g></g><g clip-path="url(#g)"><g clip-path="url(#h)"><path d="M26.5 80.7L44 93.5l-6.7 20.8L55 101.5l17.6 12.8L66 93.5l17.6-12.8H61.7L55 60l-6.7 20.7" fill="#fff"/></g></g><g clip-path="url(#i)"><g clip-path="url(#j)"><path d="M-32.8 131.5l17.7 12.8L-22 165l17.7-12.8L13.4 165l-6.7-20.7 17.6-12.8H2.5l-6.7-20.7-6.8 20.7" fill="#fff"/></g></g><g clip-path="url(#k)"><g clip-path="url(#l)"><path d="M85.7 131.5l17.6 12.8-6.7 20.7 17.6-12.8L132 165l-6.8-20.7 17.7-12.8H121l-6.8-20.7-6.7 20.7" fill="#fff"/></g></g></svg>