<svg xmlns="http://www.w3.org/2000/svg" width="400" height="400" viewBox="0 0 300 300"><defs><clipPath id="a"><path d="M150 0a150 150 0 100 300 150 150 0 000-300zm0 0"/></clipPath><clipPath id="b"><path d="M45 69h57v61H45zm0 0"/></clipPath><clipPath id="c"><path d="M150 0a150 150 0 100 300 150 150 0 000-300zm0 0"/></clipPath><clipPath id="d"><path d="M50 70h37v52H50zm0 0"/></clipPath><clipPath id="e"><path d="M150 0a150 150 0 100 300 150 150 0 000-300zm0 0"/></clipPath><clipPath id="f"><path d="M61 77h36v52H61zm0 0"/></clipPath><clipPath id="g"><path d="M150 0a150 150 0 100 300 150 150 0 000-300zm0 0"/></clipPath><clipPath id="h"><path d="M198 170h57v61h-57zm0 0"/></clipPath><clipPath id="i"><path d="M150 0a150 150 0 100 300 150 150 0 000-300zm0 0"/></clipPath><clipPath id="j"><path d="M203 171h36v52h-36zm0 0"/></clipPath><clipPath id="k"><path d="M150 0a150 150 0 100 300 150 150 0 000-300zm0 0"/></clipPath><clipPath id="l"><path d="M213 178h37v52h-37zm0 0"/></clipPath><clipPath id="m"><path d="M150 0a150 150 0 100 300 150 150 0 000-300zm0 0"/></clipPath><clipPath id="n"><path d="M207 187h38v28h-38zm0 0"/></clipPath><clipPath id="o"><path d="M150 0a150 150 0 100 300 150 150 0 000-300zm0 0"/></clipPath><clipPath id="p"><path d="M99 99h102v102H99zm0 0"/></clipPath><clipPath id="q"><path d="M150 0a150 150 0 100 300 150 150 0 000-300zm0 0"/></clipPath><clipPath id="r"><path d="M99 122h97v79H99zm0 0"/></clipPath><clipPath id="s"><path d="M150 0a150 150 0 100 300 150 150 0 000-300zm0 0"/></clipPath><clipPath id="t"><path d="M45 170h57v61H45zm0 0"/></clipPath><clipPath id="u"><path d="M150 0a150 150 0 100 300 150 150 0 000-300zm0 0"/></clipPath><clipPath id="v"><path d="M50 178h37v52H50zm0 0"/></clipPath><clipPath id="w"><path d="M150 0a150 150 0 100 300 150 150 0 000-300zm0 0"/></clipPath><clipPath id="x"><path d="M61 171h36v52H61zm0 0"/></clipPath><clipPath id="y"><path d="M150 0a150 150 0 100 300 150 150 0 000-300zm0 0"/></clipPath><clipPath id="z"><path d="M198 69h57v61h-57zm0 0"/></clipPath><clipPath id="A"><path d="M150 0a150 150 0 100 300 150 150 0 000-300zm0 0"/></clipPath><clipPath id="B"><path d="M203 77h36v52h-36zm0 0"/></clipPath><clipPath id="C"><path d="M150 0a150 150 0 100 300 150 150 0 000-300zm0 0"/></clipPath><clipPath id="D"><path d="M213 70h37v52h-37zm0 0"/></clipPath><clipPath id="E"><path d="M150 0a150 150 0 100 300 150 150 0 000-300zm0 0"/></clipPath><clipPath id="F"><path d="M207 85h38v28h-38zm0 0"/></clipPath><clipPath id="G"><path d="M150 0a150 150 0 100 300 150 150 0 000-300zm0 0"/></clipPath><clipPath id="H"><path d="M220 93h13v12h-13zm0 0"/></clipPath><clipPath id="I"><path d="M150 0a150 150 0 100 300 150 150 0 000-300zm0 0"/></clipPath><clipPath id="J"><path d="M65 194h17v14H65zm0 0"/></clipPath><clipPath id="K"><path d="M150 0a150 150 0 100 300 150 150 0 000-300zm0 0"/></clipPath></defs><g clip-path="url(#a)"><path fill="#fff" d="M0 0h300v300H0z"/></g><g clip-path="url(#b)"><g clip-path="url(#c)"><path d="M46 110.7l27.7-41.6 27.8 18.5-27.8 41.6zm0 0"/></g></g><g clip-path="url(#d)"><g clip-path="url(#e)"><path d="M50.6 118.8L83 70.3l3.4 2.3L54.1 121zm0 0" fill="#fff"/></g></g><g clip-path="url(#f)"><g clip-path="url(#g)"><path d="M61 125.7l32.4-48.5 3.4 2.3L64.5 128zm0 0" fill="#fff"/></g></g><g clip-path="url(#h)"><g clip-path="url(#i)"><path d="M198.5 212.4l27.8-41.6 27.7 18.5-27.7 41.6zm0 0"/></g></g><g clip-path="url(#j)"><g clip-path="url(#k)"><path d="M203.2 220.5l32.3-48.5 3.5 2.3-32.4 48.5zm0 0" fill="#fff"/></g></g><g clip-path="url(#l)"><g clip-path="url(#m)"><path d="M213.6 227.4l32.3-48.5 3.5 2.3-32.4 48.5zm0 0" fill="#fff"/></g></g><g clip-path="url(#n)"><g clip-path="url(#o)"><path d="M207.8 191l2.3-3.4 34.7 23-2.4 3.5zm0 0" fill="#fff"/></g></g><g clip-path="url(#p)"><g clip-path="url(#q)"><path d="M108.4 122.3a50 50 0 1183.2 55.4 50 50 0 01-83.2-55.4" fill="#c50b2f"/></g></g><g clip-path="url(#r)"><g clip-path="url(#s)"><path d="M108.4 122.3A25 25 0 10150 150a25 25 0 1141.6 27.7 50 50 0 01-83.2-55.4" fill="#003478"/></g></g><g clip-path="url(#t)"><g clip-path="url(#u)"><path d="M73.7 230.9L46 189.3l27.7-18.5 27.8 41.6zm0 0"/></g></g><g clip-path="url(#v)"><g clip-path="url(#w)"><path d="M83 229.7l-32.4-48.5 3.5-2.3 32.3 48.5zm0 0" fill="#fff"/></g></g><g clip-path="url(#x)"><g clip-path="url(#y)"><path d="M93.4 222.8L61 174.3l3.5-2.3 32.3 48.5zm0 0" fill="#fff"/></g></g><g clip-path="url(#z)"><g clip-path="url(#A)"><path d="M226.3 129.2l-27.8-41.6 27.8-18.5 27.7 41.6zm0 0"/></g></g><g clip-path="url(#B)"><g clip-path="url(#C)"><path d="M235.5 128l-32.3-48.5 3.4-2.3 32.4 48.5zm0 0" fill="#fff"/></g></g><g clip-path="url(#D)"><g clip-path="url(#E)"><path d="M246 121.1l-32.4-48.5 3.4-2.3 32.4 48.5zm0 0" fill="#fff"/></g></g><g clip-path="url(#F)"><g clip-path="url(#G)"><path d="M210 112.4l-2.2-3.4 34.6-23.1 2.4 3.4zm0 0" fill="#fff"/></g></g><g clip-path="url(#H)"><g clip-path="url(#I)"><path d="M225.1 105l-4.6-7 7-4.6 4.6 7zm0 0"/></g></g><g clip-path="url(#J)"><g clip-path="url(#K)"><path d="M68 207.2l-2.4-3.5 14-9.2 2.2 3.5zm0 0" fill="#fff"/></g></g></svg>