<svg xmlns="http://www.w3.org/2000/svg" width="400" height="400" viewBox="0 0 300 300"><defs><clipPath id="a"><path d="M0 150a150 150 0 10300 0 150 150 0 00-300 0"/></clipPath><clipPath id="b"><path d="M0 0h300v150H0zm0 0"/></clipPath><clipPath id="c"><path d="M0 150a150 150 0 10300 0 150 150 0 00-300 0"/></clipPath><clipPath id="d"><path d="M0 150a150 150 0 10300 0 150 150 0 00-300 0"/></clipPath><clipPath id="e"><path d="M0 45h200v210H0zm0 0"/></clipPath><clipPath id="f"><path d="M0 150c0 40.8 16.3 77.8 42.7 104.8L200 150 42.7 45.2C16.3 72.2 0 109.2 0 150"/></clipPath><clipPath id="g"><path d="M0 150a150 150 0 10300 0 150 150 0 00-300 0"/></clipPath></defs><g clip-path="url(#a)"><path fill="#002294" d="M0 0h300v300H0z"/></g><g clip-path="url(#b)"><g clip-path="url(#c)"><path d="M-25 150h450V0H-25zm0 0" fill="#de3830"/></g></g><g clip-path="url(#d)"><path d="M194 150h231M-25 0l225 150-225 150" stroke-width="100" stroke="#fff"/></g><g clip-path="url(#e)"><g clip-path="url(#f)"><path d="M-25 0l225 150-225 150" stroke-width="90" stroke="#ffb612"/></g></g><g clip-path="url(#g)"><path d="M200 150h225M-25 0l225 150-225 150" fill="none" stroke-width="60" stroke="#00794d"/></g></svg>