<svg xmlns="http://www.w3.org/2000/svg" width="400" height="400" viewBox="0 0 300 300"><defs><clipPath id="a"><path d="M150 0a150 150 0 100 300 150 150 0 000-300zm0 0"/></clipPath><clipPath id="b"><path d="M0 25h40v250H0zm0 0"/></clipPath><clipPath id="c"><path d="M150 0a150 150 0 100 300 150 150 0 000-300zm0 0"/></clipPath><clipPath id="d"><path d="M65 25h235v250H65zm0 0"/></clipPath><clipPath id="e"><path d="M150 0a150 150 0 100 300 150 150 0 000-300zm0 0"/></clipPath><clipPath id="f"><path d="M68 28h32v39H68zm0 0"/></clipPath><clipPath id="g"><path d="M150 0a150 150 0 100 300 150 150 0 000-300zm0 0"/></clipPath><clipPath id="h"><path d="M62 22h44v51H62zm0 0"/></clipPath><clipPath id="i"><path d="M150 0a150 150 0 100 300 150 150 0 000-300zm0 0"/></clipPath><clipPath id="j"><path d="M68 233h32v39H68zm0 0"/></clipPath><clipPath id="k"><path d="M150 0a150 150 0 100 300 150 150 0 000-300zm0 0"/></clipPath><clipPath id="l"><path d="M62 227h44v51H62zm0 0"/></clipPath><clipPath id="m"><path d="M150 0a150 150 0 100 300 150 150 0 000-300zm0 0"/></clipPath><clipPath id="n"><path d="M132 51h168v191H132zm0 0"/></clipPath><clipPath id="o"><path d="M150 0a150 150 0 100 300 150 150 0 000-300zm0 0"/></clipPath><clipPath id="p"><path d="M116 35h184v222H116zm0 0"/></clipPath><clipPath id="q"><path d="M150 0a150 150 0 100 300 150 150 0 000-300zm0 0"/></clipPath><clipPath id="r"><path d="M132 51h168v191H132zm0 0"/></clipPath><clipPath id="s"><path d="M150 0a150 150 0 100 300 150 150 0 000-300zm0 0"/></clipPath></defs><g clip-path="url(#a)"><path fill="#ffb700" d="M0 0h300v300H0z"/></g><g clip-path="url(#b)"><g clip-path="url(#c)"><path d="M-42.5 275H40V25h-82.5zm0 0" fill="#ff5b00"/></g></g><g clip-path="url(#d)"><g clip-path="url(#e)"><path d="M65 275h362.5V25H65zm0 0" fill="#8d1f29"/></g></g><g clip-path="url(#f)"><g clip-path="url(#g)"><path d="M99.5 67s-3.4-7-7.2-9.8c-5.5-4.2-17-3.8-21.8-8.7-5.8-5.8.5-13.4.4-14l-.3-4s3.9 0 5.5-.3c2.5-.4 3.5-2.4 8.1-2.1 11.6.7 11.1 11.2 11.8 20 .6 3.5 2 8 2.7 11.3.6 3 .8 7.6.8 7.6" fill="#ffb700"/></g></g><g clip-path="url(#h)"><g clip-path="url(#i)"><path d="M99.5 67s-3.4-7-7.2-9.8c-5.5-4.2-17-3.8-21.8-8.7-5.8-5.8.5-13.4.4-14l-.3-4s3.9 0 5.5-.3c2.5-.4 3.5-2.4 8.1-2.1 11.6.7 11.1 11.2 11.8 20 .6 3.5 2 8 2.7 11.3.6 3 .8 7.6.8 7.6zm0 0" fill="none" stroke-width="1.1" stroke="#000"/></g></g><g clip-path="url(#j)"><g clip-path="url(#k)"><path d="M99.5 233s-3.4 7-7.2 9.8c-5.6 4.1-17 3.8-21.8 8.7-5.8 5.8.4 13.4.4 14l-.3 4s3.9 0 5.5.3c2.5.4 3.5 2.4 8 2.1 11.7-.7 11.2-11.2 11.9-20 .6-3.5 2-8 2.7-11.3.6-3 .8-7.6.8-7.6" fill="#ffb700"/></g></g><g clip-path="url(#l)"><g clip-path="url(#m)"><path d="M99.5 233s-3.4 7-7.2 9.8c-5.6 4.1-17 3.8-21.8 8.7-5.8 5.8.4 13.4.4 14l-.3 4s3.9 0 5.5.3c2.5.4 3.5 2.4 8 2.1 11.7-.7 11.2-11.2 11.9-20 .6-3.5 2-8 2.7-11.3.6-3 .8-7.6.8-7.6zm0 0" fill="none" stroke-width="1.1" stroke="#000"/></g></g><g clip-path="url(#n)"><g clip-path="url(#o)"><path d="M206.7 116.6c.2-.3-.3-1.8-1-3.3-1.1-2.5-1.6-2.9-3.2-2.9a61 61 0 01-21.5-6c-4.9-2.1-6.5-2.6-7.1-2-1.5 1.3 1 4.7 4.8 6.4a60 60 0 0017 3.5c2.6 0 2.7 0 1.2 2.1l-1 1.6h2.8c1.6 0 3.7.3 4.8.6 2.8.6 2.8.6 3.2 0zM154 149.8c.3-.3.2-.9-.5-1.3-1.3-1-1.2-2.6.3-4.4 1-1.4 1.2-3.4 1.6-23.6.6-34.8 3.2-61 6.6-67.2 1.4-2.5 1.2-2.5-2.3-.1-4.6 3-8 7-11 12.8-5.8 10.8-7.8 25.4-7.8 56.5 0 17.6.1 20 1.1 21.6 1 1.6 1 2.1.4 3.8-.5 1.1-.7 2.2-.5 2.3 1.3 1.3 10.7 1 12-.4m4 5.4c6.2-2.8 6.8-9.8.8-11.6-2.4-.8-4-.4-4.9 1.3-.7 1.2-.2 3.5.7 3.5.4 0 .6.5.6 1 0 2.4-9.5 3.5-13.4 1.6-1.4-.7-2-2.6-.9-2.6.9 0 1.5-1.8 1-3.1-.6-1.8-2.3-2.4-5-1.7-5.8 1.5-5.7 8.4.3 11.3a31.6 31.6 0 0020.7.3m-4.7 7c.2-1.5-2.3-2.9-7.2-3.9-3.6-.8-5.1-.3-4.9 1.3.2 1 1.4 1.6 4.8 2.7 5.4 1.7 7 1.6 7.3-.1m3.4.3c1-1 1.9-2.3 1.9-2.8 0-1.5-4.1 1.2-4.6 3-.6 2.2.4 2.2 2.7-.2m-3.4 4.6c.2-1.3-.7-1.8-7.5-4.2-5.1-1.8-7.4-1-5.8 2.2.6 1 1.6 1.5 3.7 1.9 1.6.2 3.8.7 4.8 1 2.9.9 4.5.6 4.8-.9m0 5c.1-1-.5-1.6-2.2-2.4-3.6-1.6-8-2.4-9.1-1.6-2 1.6-.7 3.6 2.5 4 1.3.1 3 .5 3.8.9 2.4.9 4.7.5 5-1m3.5 4.8c1.6-1.4 2.4-3.2 1.4-3.2-1.1 0-4.2 2.7-4.2 3.7 0 1.6.6 1.5 2.8-.5m-3.7.2c0-1.6-3.4-3.4-7.4-3.8-3.3-.4-3.3-.4-3.3 1.3 0 1.3.5 1.8 2.7 2.8 3.6 1.6 8 1.4 8-.3m31.2 24.5c2.5-1 8-5.6 8-6.7 0-.4-1.5-2-3.4-3.7-3.8-3.5-8-9.3-9-12.7-.6-1.8-3.4-4.9-11-12.3l-10.3-10-3 .8a26 26 0 01-4.3.8c-1.4 0-1.4 0 .5 1.5l1.9 1.5 2.7-1.5c2.6-1.5 2.7-1.5 3-.3.2.7-.2 1.8-1 2.7-.6.9-1 1.8-.8 2.1.2.4-.5 1-1.5 1.6-2 .9-3.3 4-1.7 4 1.3 0 4.3-3.7 4-5-.2-.6-.1-1.3.2-1.4 1.1-.7 1 2.2-.1 3.6-.7.9-1.1 1.8-1 2.2.3.3-.4 1-1.4 1.5-2 .9-3.3 4-1.8 4 1.5 0 4.5-3.5 4.1-4.9-.2-.7-.1-1.4.2-1.5.8-.5 1.2 1.8.5 3-.3.5-.3 1.4 0 2 .7 1.2 0 3.5-1.2 4.2-.5.3-.2.9 1.1 1.8 1.8 1.4 1.8 1.5 1.8 7.6 0 5 .3 6.3 1.2 7.2 1 1 1.1 1 1.1 0s1.8-2.2 3.3-2.2a33 33 0 016.1 5.1c3 2.9 6 5.3 6.9 5.5l2 .3c.3 0 1.6-.3 3-.8zM148.4 217c.6-.8 1-2 1-2.7 0-1.1.5-1.4 3-1.7l2.8-.5-1.9-1.5c-2.3-1.8-2.5-3.3-.5-3.3s5.5-2 6-3.7c.2-.7 0-1.6-.3-2.1-1.2-1.3-3.3-1.1-3.7.3-.4 1.5-1.2 1.5-2.8 0-2.4-2.3-2.5-7 0-9.9 1-1.3 1-1.3-.4-2.7-1.5-1.5-2.6-4.3-2-5 .3-.2 1.5 0 2.8.4 1.8.6 2.5.6 3.2 0 2.2-1.7-.2-4-3.8-3.5-1.4.2-2 0-2.2-.7-.1-.6-1.4-1.3-2.8-1.7-2.5-.6-2.6-.6-2.6 1.1 0 2-1 2.3-3.1 1-1.7-1-3.3-.2-3.3 1.6 0 1.7 1.6 2.5 4.7 2.3 2.3-.1 2.4 1.6.2 4l-1.6 1.8 1.2 1.8c1.9 2.7 1.7 7.1-.3 9.3l-1.6 1.7-1-1.4c-1.5-1.9-3.4-1.7-4 .3-.3 1.3 0 2 1.6 3.4 1.2 1 2.8 1.7 3.7 1.7 2.2 0 2 1.7-.2 3.5l-1.8 1.3 2.8.5c1.5.2 2.7.6 2.7 1 0 1.1 2 4.8 2.6 4.8.3 0 1-.7 1.6-1.4zm133.3 22.5l2.4-1.5 1.6 1.5c2 2 4.5 2 6.5 0 .9-1 1.7-1.6 1.8-1.5l.8 1.5c.5.9 1.6 1.3 3.4 1.4 2.2.2 2.8 0 3.7-1.3l1-1.5 2.4 1.5c6.3 4 9.7-.2 6.8-8.8-1.4-4.3-.6-6.7 4-12.2 2-2.3 3.6-4.8 3.6-5.5 0-1.1-.4-1.3-3-1.2-2.5 0-3.2-.3-4.5-1.7-2.1-2.4-2-5 .4-8l1.9-2.4-3.4-2.3a56.2 56.2 0 01-7.4-6.6c-5-5.4-10-8-16.5-8.5l-4.4-.4v3.3c0 4.3 2 8.4 7.5 15.3 6.2 7.9 6.6 9.1 6.8 19.4l.3 8.7-1.8 1.7c-1.7 1.6-2.4 1.8-7.6 2-5 .4-6 .6-7.5 2a8.1 8.1 0 00-3.1 5c-.4 1.3-.2 1.6.8 1.6.6 0 2.2-.6 3.5-1.5M236.6 83c-1-.9-.2-1 4-1.2a21 21 0 0012.2-3.3c3-2 3.9-1.5 1 .4a24.6 24.6 0 01-10.6 3.6l-4.8.7c-.8.1-1.6 0-1.8-.2m-29.8 7.7c-1.4-1.9-1.3-3 .3-5 1.2-1.5 1.8-1.7 3.9-1.5 1.3.2 4.2 1.4 6.4 2.7 2.5 1.5 5.1 2.4 7.2 2.7l3.2.2L226 87c-2-3.1-2-3.5.4-1.6 2.4 2 5.4 2.5 11.9 2.3h3.2l-1.9-1.9c-2.5-2.6-1.8-2.8 1.1-.3 2.7 2.3 2.5 2.5-3.1 3-2.4.3-5 .1-7.2-.4-3.2-.8-3.3-.8-2.7.3.4.6 1 1 1.3 1s.6.4.6.8c0 1.2-7 .1-10.3-1.6-7.5-3.8-8.5-4.1-10.3-3.6a4 4 0 00-2.3 2.2c-1.2 3.1 3.2 5.5 5 2.8.5-.8.4-1.4-.5-2.3-1.3-1.3-1.2-1.5.5-1 1.3.5 1.4 3.4.3 4.5-1.3 1.2-4.2.9-5.3-.6m48.7 5c-1.5-1.3-2.5-2.6-2.3-2.8.3-.3.5-.3.6-.2a63 63 0 002.7 2.9c3.3 3.3 2.6 3.4-1 .1M219 108.5c-4.1-3.4-4.7-4.2-4.6-5.8v-1.8l.3 1.7c.2 1 1.3 2.4 2.7 3.5l2.3 1.9 1.5-1.7c.8-1 1.4-2 1.5-2.5 0-1 .2-1 3 1.5 2.5 2.1 2.5 2.1 2.9.7.2-.8 0-2.2-.2-3.2-.8-2.8-.7-3.2.6-1.5l2.2 2.6c1 1 1 1 1.4-.3.2-.8.4-2.2.4-3.2v-1.7l2.3 2.5c2 2.4 2.2 2.4 2.9 1.3a9 9 0 00.7-3.5c0-1.7.2-2.1.6-1.5.7 1 .2 4-1.1 6.4l-1 1.8-1.2-2c-1.5-2.4-2-2.3-3 .3-1 2.5-1.6 2.7-2.6.8-.6-1.3-.7-1.1-1.1 1.5l-.5 2.9-5.7-4.4-1.2 1.4c-.7.8-1.3 1.8-1.3 2.2 0 1-.8 1-1.8.1m17.3 23.8c0-.9-2.7-3.3-5.3-4.9-2.1-1.2-2.5-1.3-2.5-.3 0 1.6-1.4 5.4-1.9 5.4-.3 0-.7-.7-1-1.7-.2-.9-1.2-2.7-2.2-4l-1.9-2.3-1.4 2.2c-1.3 2-3.6 4-4.6 4-.3 0-.3-1.1-.1-2.4.2-1.4 0-2.5-.4-2.8-.4-.2-.7-.2-.7.2 0 .7-3.2 4.4-3.9 4.4-.3 0-.7-1-.9-2.3a202.2 202.2 0 00-.7-4.5c-.2-1.2.2-.4 1 1.8l1.4 4 1.5-2.5c.9-1.3 1.6-2.7 1.6-3.2 0-.4.2-.6.6-.4.3.2.8 1.8 1 3.5l.5 3.2 1.7-1.9c1-1 2-2.4 2.4-3 .7-1.2.7-1.2 2.2 0 .8.7 2 2.3 2.7 3.6.7 1.3 1.3 2.3 1.5 2.2l.5-3 .4-2.9c.1-.4 5.1 2.9 7 4.5 1.1 1 2.2 1.8 2.4 1.6.2-.2.4-1.7.4-3.5 0-2.6-.3-3.3-2-4.8-1.8-1.6-1.9-1.7-2.6-.4-.8 1.5-1.9 1.6-1.9 0 0-1.1-3.5-5.5-4.5-5.5-.2 0-1 1-1.6 2.1-.7 1.2-1.4 2.2-1.6 2.2-1 0-5.9-5.6-5.9-6.6 0-.8.3-.6 1.2.7.7 1 2 2.6 3 3.4 1.9 1.7 2.6 1.3 3.3-2 .3-1 .6-1.7.9-1.7.8 0 5.1 4.6 5.7 6.2l.7 1.5.4-1.7c.6-2 1.2-2.1 2.1-.3.4.8 2.3 2.5 4.2 3.7l3.4 2.2.7-2.2c.4-1.3 1-2 1.1-1.6.4.6-.5 4.2-1.2 5 0 .1-1.2-.5-2.5-1.4l-2.3-1.7v3c0 1.6-.2 3.6-.4 4.3-.4 1.5-1.5 2-1.5.6zm-45.4 107.5l2.1-1.3 1 1.3c1.2 1.7 4.7 1.6 7 0l1.7-1.4 1.4 1.3c2 1.7 5.6 1.8 7.8 0 1.6-1.1 1.9-1.2 3-.3a10 10 0 004 1.4c3 .4 3 .4 4.8-2.2 1.4-2.2 1.6-3 1.3-5.1a57 57 0 01-.6-5c-.1-2.5 0-2.5 3.5-3.7a48 48 0 005-2c1.4-.8 5.3-5.4 5.3-6.3 0-.2-1.5-.6-3.4-.8-7.4-.8-8.6-4.8-3.8-12.2 7.8-12 12.6-23.8 12.6-31.3 0-3.4.2-4.5.7-3.8 1.7 3-1.4 15.5-6.2 24.4l-2 3.6 2-.4c1-.2 6.8-2.7 13-5.5 17.1-7.8 23-9.3 34-8.8 9.3.4 13.2 2.2 19.7 9a60 60 0 0013 10c13 8.2 13.5 9 14 18.5.7 9.7.4 10.2-7 11.8-6.2 1.4-10.1 4.3-11.2 8.4-.5 2.1.6 2.2 3.8.2l2.3-1.5 1 1.5c1.4 2 4.3 2 6.7 0l1.8-1.5 1.8 1.5c2.9 2.3 6.7 1.7 7.8-1.2.2-.5.7-.3 1.8.6 2.1 1.9 7.5 2.6 8 1.2.3-.5-.1-1.9-.9-3-3-4.7-4-6.9-4.1-9.4 0-3.6 1-5.3 5-8.2 5-3.5 6.4-8 2.7-8-2.3 0-4.6-2-6-5.3-3-6.8-2.5-14.3 2-26.9 4.6-12.7 5.1-15 5.1-23.6 0-6.9-.1-8-1.7-11.9-1-2.3-3-5.7-4.3-7.6l-2.6-3.4 3.3-2.8c10.1-8.4 8-22-4.1-27.4-3.8-1.6-4.7-1.7-11.2-1.7-4 0-10 .5-13.3 1.2-3.4.6-9.3 1-13.3 1-6.3.1-7.4 0-9.9-1.4-2.5-1.3-3-2-3.5-5.1 0-.7-.5-1.3-1-1.4-.9-.3-4.9 3.2-5.5 4.7-.3.8-.5.7-1.4-.3-.5-.7-1.3-2.2-1.7-3.4-1-3.1.2-5.4 3.8-7.1l2.8-1.4-1.6-1c-3.4-2.1-9.2-.7-11.3 2.8-.6 1-1.3 1.8-1.5 1.8-.2 0-1.3-1-2.5-2-4.4-4.4-2.8-10.7 3-12.7 3.2-1 6-.2 6.5 1.9.9 3.2 3.6-1 3.2-4.8-.4-2.5-.3-2.6 1.4-2.6 2.4 0 7.6 3.2 9.2 5.7 1.8 2.8 1.7 7.4-.3 10.7l-1.6 2.7 2-.4c3.1-.6 6.1-2.5 7.6-4.9 1.6-2.4 1.8-7.2.4-9.7-1.4-2.5-1.2-3 .8-2 3.4 1.3 5.3 3 6.7 5.6 1.2 2.5 1.3 3 .6 5.6a16 16 0 01-2 4.6c-1.2 1.5-1.2 1.7-.3 1.7a12 12 0 006.3-2.9c.6-.6 1.5-2.2 2-3.6l1-2.4 1 1.9c1.3 2.6 4.1 4.9 7.5 6.3 3.7 1.6 5.2 1.7 3.3.2-1.3-1-3.7-7.9-3-8.6.5-.4 5.4 3.4 11 8.5 5.4 4.8 8.8 6.4 13.7 6.4 6.3 0 10-5.5 7-10.7-1.6-3-5.2-3.4-7.4-.8-1 1.2-1.2 2.1-1 3.4.4 1.5.3 1.7-1 1.7-2 0-5.5-2.3-11.9-7.7A95.3 95.3 0 00307.4 65a66.2 66.2 0 00-22.8-1.2c-6 1.1-13.1 4.5-17 8.2-7 6.6-7 15.3-.3 23.2l2 2.3-1.4 2c-1.9 3-1.7 7 .4 9.8a9 9 0 002.1 2.4c.2 0 .5-.9.5-1.9.2-2.5 1.3-4.2 3.2-4.9 1.7-.6 2.8-.3 10.5 2.8a68.7 68.7 0 0035.8.6c7-1.4 15.2-1.4 18.9.1 6.6 2.8 8.1 10 3.3 15.6-2.2 2.3-4.2 3.3-11 5.2a51.2 51.2 0 01-18.3 1.4c-10.1-.1-13.8 0-17.9 1-4.5.9-7.2 1-20.4.6l-15.2-.3 1.7 1.4c1 .7 2.2 1.7 3 2 1 .7 1 .8-.7 1.4-1 .4-3.2.7-5 .7h-3l-.5 2.7a9.5 9.5 0 000 3.8c.4.9.3 1-.7.7-.6-.3-2.5-.8-4-1-1.6-.4-3.7-1.1-4.8-1.6-1.7-.8-1.9-.8-2.5.3-.6 1-5.8 5-6.6 5a24.5 24.5 0 00-2-7c-1-2.1-1.8-4.4-2-5-.4-1-.6-1.1-1-.3-.3.5-.7 1.8-1 3-.2 1.2-1 3.1-1.7 4.3l-1.4 2.1-.8-1.8c-1-2-2.5-4-3-4-.3 0-.6.7-.8 1.4-.4 1.6-4.1 6-5 6-.3 0-.6-1.2-.6-2.8 0-1.5-.3-2.7-.6-2.7-.4 0-.7.4-.7.9 0 1.1-3.1 4.6-4.2 4.6-.4 0-1.2.4-1.6 1-1.2 1.2-2.1 1-1.6-.4.2-.7 0-2.3-.4-3.5l-1-3c0-.5-1.2-.4-3.6.4-3.8 1.2-5.1 1-3.1-.5.7-.6 1.8-2.6 2.4-4.4.6-1.8 1.5-3.4 2-3.6.7-.2.7 0-.1 1.2-.6.8-1.1 1.8-1.1 2.4 0 .5-.4 1.7-1 2.7-.5 1-.9 1.8-.7 2 0 0 1.6-.5 3.2-1.3l3-1.4v1.3c0 .7.4 2.6.9 4.2l.8 2.8 2-.9c2.1-1 4.1-4.4 4.1-7 0-1.4.8-1.2 1 .2l1.1 3.4 1 2.7 1.3-1.7c.8-1 1.8-2.7 2.2-4 .7-2.3 1.8-3.3 1.8-1.6 0 1.1 3.3 5.4 3.9 5 .3-.1.9-1.7 1.3-3.5 1-3.7 2.4-6.2 3.3-5.7.3.2.5.6.3 1-.2.2.5 2.6 1.6 5.2l2.5 6c.4 1 .7.8 3-1.3 1.5-1.2 2.8-2.7 3-3.2.2-.7.6-.6 2 .2 1.8 1.2 8.2 3 8.7 2.6.2-.2.4-1.8.4-3.7l.1-3.4 1.9.3c1 .3 3.1.2 4.7 0l2.9-.4-2.6-1.8c-1.4-1-2.8-2.2-3.2-2.8-.3-.6-1.6-1-3-1.2-3.9-.3-10.7-4.2-10.7-6 0-.3 1 .3 2.1 1.3 2.6 2.4 6.1 3.8 9.2 3.8h2.4l-1.5-1.9c-.8-1-1.5-3.2-1.7-4.9-.3-2.7-.6-3.2-3.4-5.2-1.8-1.1-3.9-3-4.8-4l-1.6-1.7-.8 2.1c-.4 1.2-1 2.2-1.2 2.2-.2 0-1.1-.7-2-1.6a6.8 6.8 0 00-1.8-1.5c-.2 0-1 1.1-1.7 2.5l-1.3 2.5-1-1.4c-.5-.8-1.8-2.2-2.8-3.2-1-.9-1.5-1.6-1.2-1.6.4 0 1.6 1 2.8 2.1l2.2 2.2.8-1.6c.6-1 .7-2.4.5-3.5-.3-1.7-.3-1.8.4-.8.4.7 1.6 2 2.7 2.9l2 1.6 1.5-2.5c1.4-2.6 1.4-2.6 2-1 .9 2 7 7 12.2 10 .8.4.5-1.1-1-4.7-.4-1-.7-2.7-.7-3.8 0-1.7-.5-2.5-2.7-4.1-3-2.4-4.1-4.1-4.7-8a11 11 0 00-1.2-3.8c-.6-.8-.8-.4-.6 2.5.1 2-.1 4.4-.5 5.4l-.8 1.9-.6-1.6a9.7 9.7 0 00-3.2-3.2c-1.5-1-2.5-2-2.3-2.1.2-.2 1.7.6 3.3 1.9 2.5 2 3 2.1 3.3 1.3.4-1 0-5.3-.7-8.3-.4-1.5-.4-1.5 1.5.4 1.3 1.3 2 3 2.7 5.8.7 3.6 1 4.2 4.4 7.1 2 1.8 3.8 3.1 3.9 3 .1-.1.4-4.7.5-10.1.4-10.4 0-13-2.5-16.1l-1.3-1.7 2-2.2a15 15 0 004.4-8.2l.4-2.6-2.2 2.2c-2 1.8-2.8 2.2-5 2.2-2.1 0-3-.4-4.4-2a18.6 18.6 0 00-7.8-4.4c-1-.4-1.4-.2-1.4.5 0 .6-.6 2.1-1.4 3.5l-1.3 2.5-2.8-2.8c-1.8-1.7-3.8-3-5.3-3.4-4-1-4.1-1-4.1 2 0 4.3-2 5.2-5.3 2.2-2.6-2.2-4.7-2.7-9.6-2.1l-3.8.4.7 1.7c.6 1.4.5 2-.8 3.6-2 2.6-4.5 3.8-8.4 3.8-1.8 0-4.1.4-5 .8-1 .5-3.4 1-5.4 1.2-2 .2-4 .5-4.6.7-1 .4-1 0-.8-2 .5-3.2-1.8-5.6-5.3-5.6-4.5 0-6.6 4-4.8 9.4a42.1 42.1 0 011 3.7c.2 1 2.2 3.6 4.7 6.1 2.5 2.4 4.8 5 5.1 5.6.4.7 1.6 1.8 2.8 2.4l2 1.1-.2-2.2c-.3-2.4.2-2.8 1.5-1 .5.5 1.7 1.5 2.7 2.1 1.5 1 1.7 1 1.7.2 0-.6.4-1.8.7-2.7l.7-1.7 1.2 2.3c.7 1.3 2.9 4.2 4.9 6.5 3.8 4.5 6.2 9.5 5 10.6-.5.5-1.9.4-4.6-.1-2.1-.4-4.8-.7-5.9-.5-2.2.3-2.4 0-1-1.7 1.4-1.8 1.2-2.1-1.6-2.1a59 59 0 01-14.6-2.8c-3-1.2-3.8-1-4.7 2l-1.6 5.2-1 2.9 3.4-.4c1.8-.1 4.1-.5 5.2-.8l2-.4c.2.1-.3 1.2-1 2.5l-1.2 2.3 2-.4c1.2-.3 2.9-.8 3.8-1.3 1.7-.8 1.8-.7 3.1 1.4 1.6 2.5 2.9 2.4 3.2-.3.3-2.8 1.2-2.4 3 1.3 1.6 3.6 3.4 4.9 3.7 2.8.1-.7 1-1.9 2-2.6 2-1.4 3.5-1 4.4 1.2.9 2.3-1.1 4.7-7 8.2a40.3 40.3 0 00-20.3 29.1c-1.8 11.1 3.7 22.6 14.6 30.9 5.3 3.9 13.6 8 13 6.5-2.2-6.8-2.1-19.7.2-21.8.3-.4.2 1-.3 3-1.8 7.3-1 13.1 3.6 26.8 4.3 12.4 3.7 17.7-2.3 21.2-2 1.1-3.1 1.3-8.3 1.3-5.6-.1-6.2 0-8 1.4-1.8 1.4-4 6-4 8.1 0 1.2 1.2 1 3.8-.4"/></g></g><g clip-path="url(#p)"><g clip-path="url(#q)"><path d="M206.7 116.6c.2-.3-.3-1.8-1-3.3-1.1-2.5-1.6-2.9-3.2-2.9a61 61 0 01-21.5-6c-4.9-2.1-6.5-2.6-7.1-2-1.5 1.3 1 4.7 4.8 6.4a60 60 0 0017 3.5c2.6 0 2.7 0 1.2 2.1l-1 1.6h2.8c1.6 0 3.7.3 4.8.6 2.8.6 2.8.6 3.2 0zM154 149.8c.3-.3.2-.9-.5-1.3-1.3-1-1.2-2.6.3-4.4 1-1.4 1.2-3.4 1.6-23.6.6-34.8 3.2-61 6.6-67.2 1.4-2.5 1.2-2.5-2.3-.1-4.6 3-8 7-11 12.8-5.8 10.8-7.8 25.4-7.8 56.5 0 17.6.1 20 1.1 21.6 1 1.6 1 2.1.4 3.8-.5 1.1-.7 2.2-.5 2.3 1.3 1.3 10.7 1 12-.4zm3.8 5.4c6.3-2.8 6.9-9.8 1-11.6-2.5-.8-4-.4-5 1.3-.7 1.2-.2 3.5.7 3.5.4 0 .6.5.6 1 0 2.4-9.5 3.5-13.4 1.6-1.4-.7-2-2.6-.9-2.6.9 0 1.5-1.8 1-3.1-.6-1.8-2.3-2.4-5-1.7-5.8 1.5-5.7 8.4.3 11.3a31.6 31.6 0 0020.7.3zm-4.7 7c.2-1.5-2.3-2.9-7.2-3.9-3.6-.8-5.1-.3-4.9 1.3.2 1 1.4 1.6 4.8 2.7 5.4 1.7 7 1.6 7.3-.1zm3.4.3c1-1 1.9-2.3 1.9-2.8 0-1.5-4.1 1.2-4.6 3-.6 2.2.4 2.2 2.7-.2zm-3.4 4.6c.2-1.3-.7-1.8-7.5-4.2-5.1-1.8-7.4-1-5.8 2.2.6 1 1.6 1.5 3.7 1.9 1.6.2 3.8.7 4.8 1 2.9.9 4.5.6 4.8-.9zm0 5c.1-1-.5-1.6-2.2-2.4-3.6-1.6-8-2.4-9.1-1.6-2 1.6-.7 3.6 2.5 4 1.3.1 3 .5 3.8.9 2.4.9 4.7.5 5-1zm3.5 4.7c1.6-1.4 2.4-3.2 1.4-3.2-1.1 0-4.2 2.7-4.2 3.7 0 1.6.6 1.5 2.8-.5zm-3.7.2c0-1.6-3.4-3.4-7.4-3.8-3.3-.4-3.3-.4-3.3 1.3 0 1.3.5 1.8 2.7 2.8 3.6 1.6 8 1.4 8-.3zm31.2 24.5c2.5-1 8-5.6 8-6.7 0-.4-1.5-2-3.4-3.7-3.8-3.5-8-9.3-9-12.7-.6-1.8-3.4-4.9-11-12.3l-10.3-10-3 .8a26 26 0 01-4.3.8c-1.4 0-1.4 0 .5 1.5l1.9 1.5 2.7-1.5c2.6-1.5 2.7-1.5 3-.3.2.7-.2 1.8-1 2.7-.6.9-1 1.8-.8 2.1.2.4-.5 1-1.5 1.6-2 .9-3.3 4-1.7 4 1.3 0 4.3-3.7 4-5-.2-.6-.1-1.3.2-1.4 1.1-.7 1 2.2-.1 3.6-.7.9-1.1 1.8-1 2.2.3.3-.4 1-1.4 1.5-2 .9-3.3 4-1.8 4 1.5 0 4.5-3.5 4.1-4.9-.2-.7-.1-1.4.2-1.5.8-.5 1.2 1.8.5 3-.3.5-.3 1.4 0 2 .7 1.2 0 3.5-1.2 4.2-.5.3-.2.9 1.1 1.8 1.8 1.4 1.8 1.5 1.8 7.6 0 5 .3 6.3 1.2 7.2 1 1 1.1 1 1.1 0s1.8-2.2 3.3-2.2a33 33 0 016.1 5.1c3 2.9 6 5.3 6.9 5.5l2 .3c.3 0 1.6-.3 3-.8zM148.4 217c.6-.8 1-2 1-2.7 0-1.1.5-1.4 3-1.7l2.9-.5-2-1.5c-2.3-1.8-2.5-3.3-.5-3.3s5.5-2 6-3.7c.2-.7 0-1.6-.3-2.1-1.2-1.3-3.3-1.1-3.7.3-.4 1.5-1.2 1.5-2.8 0-2.4-2.3-2.5-7 0-9.9 1-1.3 1-1.3-.4-2.7-1.5-1.5-2.6-4.3-2-5 .3-.2 1.5 0 2.8.4 1.8.6 2.5.6 3.2 0 2.2-1.7-.2-4-3.8-3.5-1.4.2-2 0-2.2-.7-.1-.6-1.4-1.3-2.8-1.7-2.5-.6-2.6-.6-2.6 1.1 0 2-1 2.3-3.1 1-1.7-1-3.3-.2-3.3 1.6 0 1.7 1.6 2.5 4.7 2.3 2.3-.1 2.4 1.6.2 4l-1.6 1.8 1.2 1.8c1.9 2.7 1.7 7.1-.3 9.3l-1.6 1.7-1-1.4c-1.5-1.9-3.4-1.7-4 .3-.3 1.3 0 2 1.6 3.4 1.2 1 2.8 1.7 3.7 1.7 2.2 0 2 1.7-.2 3.5l-1.8 1.3 2.8.5c1.5.2 2.7.6 2.7 1 0 1.1 2 4.8 2.6 4.8.3 0 1-.7 1.6-1.4zm133.3 22.5l2.4-1.5 1.6 1.5c2 2 4.5 2 6.5 0 .9-1 1.7-1.6 1.8-1.5l.8 1.5c.5.9 1.6 1.3 3.4 1.4 2.2.2 2.8 0 3.7-1.3l1-1.5 2.4 1.5c6.3 4 9.7-.2 6.8-8.8-1.4-4.3-.6-6.7 4-12.2 2-2.3 3.6-4.8 3.6-5.5 0-1.1-.4-1.3-3-1.2-2.5 0-3.2-.3-4.5-1.7-2.1-2.4-2-5 .4-8l1.9-2.4-3.4-2.3a56.2 56.2 0 01-7.4-6.6c-5-5.4-10-8-16.5-8.5l-4.4-.4v3.3c0 4.3 2 8.4 7.5 15.3 6.2 7.9 6.6 9.1 6.8 19.4l.3 8.7-1.8 1.7c-1.7 1.6-2.4 1.8-7.6 2-5 .4-6 .6-7.5 2a8.1 8.1 0 00-3.1 5c-.4 1.3-.2 1.6.8 1.6.6 0 2.2-.6 3.5-1.5zM236.6 83c-1-.9-.2-1 4-1.2a21 21 0 0012.2-3.3c3-2 3.9-1.5 1 .4a24.6 24.6 0 01-10.6 3.6l-4.8.7c-.8.1-1.6 0-1.8-.2zm-29.8 7.7c-1.4-1.9-1.3-3 .3-5 1.2-1.5 1.8-1.7 3.9-1.5 1.3.2 4.2 1.4 6.4 2.7 2.5 1.5 5.1 2.4 7.2 2.7l3.2.2L226 87c-2-3.1-2-3.5.4-1.6 2.4 2 5.4 2.5 11.9 2.3h3.2l-1.9-1.9c-2.5-2.6-1.8-2.8 1.1-.3 2.7 2.3 2.5 2.5-3.1 3-2.4.3-5 .1-7.2-.4-3.2-.8-3.3-.8-2.7.3.4.6 1 1 1.3 1s.6.4.6.8c0 1.2-7 .1-10.3-1.6-7.5-3.8-8.5-4.1-10.3-3.6a4 4 0 00-2.3 2.2c-1.2 3.1 3.2 5.5 5 2.8.5-.8.4-1.4-.5-2.3-1.3-1.3-1.2-1.5.5-1 1.3.5 1.4 3.4.3 4.5-1.3 1.2-4.2.9-5.3-.6zm48.7 5c-1.5-1.3-2.5-2.6-2.3-2.8.3-.3.5-.3.6-.2a63 63 0 002.7 2.9c3.3 3.3 2.6 3.4-1 .1zM219 108.5c-4.1-3.4-4.7-4.2-4.6-5.8v-1.8l.3 1.7c.2 1 1.3 2.4 2.7 3.5l2.3 1.9 1.5-1.7c.8-1 1.4-2 1.5-2.5 0-1 .2-1 3 1.5 2.5 2.1 2.5 2.1 2.9.7.2-.8 0-2.2-.2-3.2-.8-2.8-.7-3.2.6-1.5l2.2 2.6c1 1 1 1 1.4-.3.2-.8.4-2.2.4-3.2v-1.7l2.3 2.5c2 2.4 2.2 2.4 2.9 1.3a9 9 0 00.7-3.5c0-1.7.2-2.1.6-1.5.7 1 .2 4-1.1 6.4l-1 1.8-1.2-2c-1.5-2.4-2-2.3-3 .3-1 2.5-1.6 2.7-2.6.8-.6-1.3-.7-1.1-1.1 1.5l-.5 2.9-5.7-4.4-1.2 1.4c-.7.8-1.3 1.8-1.3 2.2 0 1-.7 1-1.8.1zm17.3 23.8c0-.9-2.7-3.3-5.3-4.9-2.1-1.2-2.5-1.3-2.5-.3 0 1.6-1.4 5.4-1.9 5.4-.3 0-.7-.7-1-1.7-.2-.9-1.2-2.7-2.2-4l-1.9-2.3-1.4 2.2c-1.3 2-3.6 4-4.6 4-.3 0-.3-1.1-.1-2.4.2-1.4 0-2.5-.4-2.8-.4-.2-.7-.2-.7.2 0 .7-3.2 4.4-3.9 4.4-.3 0-.7-1-.9-2.3a202.2 202.2 0 00-.7-4.5c-.2-1.2.2-.4 1 1.8l1.4 4 1.5-2.5c.9-1.3 1.6-2.7 1.6-3.2 0-.4.2-.6.6-.4.3.2.8 1.8 1 3.5l.5 3.2 1.7-1.9c1-1 2-2.4 2.4-3 .7-1.2.7-1.2 2.2 0 .8.7 2 2.3 2.7 3.6.7 1.3 1.3 2.3 1.5 2.2l.5-3 .4-2.9c.1-.4 5.1 2.9 7 4.5 1.1 1 2.2 1.8 2.4 1.6.2-.2.4-1.7.4-3.5 0-2.6-.3-3.3-2-4.8-1.8-1.6-1.9-1.7-2.6-.4-.8 1.5-1.9 1.6-1.9 0 0-1.1-3.5-5.5-4.5-5.5-.2 0-1 1-1.6 2.1-.7 1.2-1.4 2.2-1.6 2.2-1 0-5.9-5.6-5.9-6.6 0-.8.3-.6 1.2.7.7 1 2 2.6 3 3.4 1.9 1.7 2.6 1.3 3.3-2 .3-1 .6-1.7.9-1.7.8 0 5.1 4.6 5.7 6.2l.7 1.5.4-1.7c.6-2 1.2-2.1 2.1-.3.4.8 2.3 2.5 4.2 3.7l3.4 2.2.7-2.2c.4-1.3 1-2 1.1-1.6.4.6-.5 4.2-1.2 5 0 .1-1.2-.5-2.5-1.4l-2.3-1.7v3c0 1.6-.2 3.6-.4 4.3-.4 1.5-1.5 2-1.5.6zm-45.4 107.5l2.1-1.3 1 1.3c1.2 1.7 4.7 1.6 7 0l1.7-1.4 1.4 1.3c2 1.7 5.6 1.8 7.8 0 1.6-1.1 1.9-1.2 3-.3a10 10 0 004 1.4c3 .4 3 .4 4.8-2.2 1.4-2.2 1.6-3 1.3-5.1a57 57 0 01-.6-5c-.1-2.5 0-2.5 3.5-3.7a48 48 0 005-2c1.4-.8 5.3-5.4 5.3-6.3 0-.2-1.5-.6-3.4-.8-7.4-.8-8.6-4.8-3.8-12.2 7.8-12 12.6-23.8 12.6-31.3 0-3.4.2-4.5.7-3.8 1.7 3-1.4 15.5-6.2 24.4l-2 3.6 2-.4c1-.2 6.8-2.7 13-5.5 17.1-7.8 23-9.3 34-8.8 9.3.4 13.2 2.2 19.7 9a60 60 0 0013 10c13 8.2 13.5 9 14 18.5.7 9.7.4 10.2-7 11.8-6.2 1.4-10.1 4.3-11.2 8.4-.5 2.1.6 2.2 3.8.2l2.3-1.5 1 1.5c1.4 2 4.3 2 6.7 0l1.8-1.5 1.8 1.5c2.9 2.3 6.7 1.7 7.8-1.2.2-.5.7-.3 1.8.6 2.1 1.9 7.5 2.6 8 1.2.3-.5-.1-1.9-.9-3-3-4.7-4-6.9-4.1-9.4 0-3.6 1-5.3 5-8.2 5-3.5 6.4-8 2.7-8-2.3 0-4.6-2-6-5.3-3-6.8-2.5-14.3 2-26.9 4.6-12.7 5.1-15 5.1-23.6 0-6.9-.1-8-1.7-11.9-1-2.3-3-5.7-4.3-7.6l-2.6-3.4 3.3-2.8c10.1-8.4 8-22-4.1-27.4-3.8-1.6-4.7-1.7-11.2-1.7-4 0-10 .5-13.3 1.2-3.4.6-9.3 1-13.3 1-6.3.1-7.4 0-9.9-1.4-2.5-1.3-3-2-3.5-5.1 0-.7-.5-1.3-1-1.4-.9-.3-4.9 3.2-5.5 4.7-.3.8-.5.7-1.4-.3-.5-.7-1.3-2.2-1.7-3.4-1-3.1.2-5.4 3.8-7.1l2.8-1.4-1.6-1c-3.4-2.1-9.2-.7-11.3 2.8-.6 1-1.3 1.8-1.5 1.8-.2 0-1.3-1-2.5-2-4.4-4.4-2.8-10.7 3-12.7 3.2-1 6-.2 6.5 1.9.9 3.2 3.6-1 3.2-4.8-.4-2.5-.3-2.6 1.4-2.6 2.4 0 7.6 3.2 9.2 5.7 1.8 2.8 1.7 7.4-.3 10.7l-1.6 2.7 2-.4c3.1-.6 6.1-2.5 7.6-4.9 1.6-2.4 1.8-7.2.4-9.7-1.4-2.5-1.2-3 .8-2 3.4 1.3 5.3 3 6.7 5.6 1.2 2.5 1.3 3 .6 5.6a16 16 0 01-2 4.6c-1.2 1.5-1.2 1.7-.3 1.7a12 12 0 006.3-2.9c.6-.6 1.5-2.2 2-3.6l1-2.4 1 1.9c1.3 2.6 4.1 4.9 7.5 6.3 3.7 1.6 5.2 1.7 3.3.2-1.3-1-3.7-7.9-3-8.6.5-.4 5.4 3.4 11 8.5 5.4 4.8 8.8 6.4 13.7 6.4 6.3 0 10-5.5 7-10.7-1.6-3-5.2-3.4-7.4-.8-1 1.2-1.2 2.1-1 3.4.4 1.5.3 1.7-1 1.7-2 0-5.5-2.3-11.9-7.7A95.3 95.3 0 00307.4 65a66.2 66.2 0 00-22.8-1.2c-6 1.1-13.1 4.5-17 8.2-7 6.6-7 15.3-.3 23.2l2 2.3-1.4 2c-1.9 3-1.7 7 .4 9.8a9 9 0 002.1 2.4c.2 0 .5-.9.5-1.9.2-2.5 1.3-4.2 3.2-4.9 1.7-.6 2.8-.3 10.5 2.8a68.7 68.7 0 0035.8.6c7-1.4 15.2-1.4 18.9.1 6.6 2.8 8.1 10 3.3 15.6-2.2 2.3-4.2 3.3-11 5.2a51.2 51.2 0 01-18.3 1.4c-10.1-.1-13.8 0-17.9 1-4.5.9-7.2 1-20.4.6l-15.2-.3 1.7 1.4c1 .7 2.2 1.7 3 2 1 .7 1 .8-.7 1.4-1 .4-3.2.7-5 .7h-3l-.5 2.7a9.5 9.5 0 000 3.8c.4.9.3 1-.7.7a42 42 0 00-4-1c-1.6-.4-3.7-1.1-4.8-1.6-1.7-.8-1.9-.8-2.5.3-.6 1-5.8 5-6.6 5a24.5 24.5 0 00-2-7c-1-2.1-1.8-4.4-2-5-.4-1-.6-1.1-1-.3-.3.5-.7 1.8-1 3-.2 1.2-1 3.1-1.7 4.3l-1.4 2.1-.8-1.8c-1-2-2.5-4-3-4-.3 0-.6.7-.8 1.4-.4 1.6-4.1 6-5 6-.3 0-.6-1.2-.6-2.8 0-1.5-.3-2.7-.6-2.7-.4 0-.7.4-.7.9 0 1.1-3.1 4.6-4.2 4.6-.4 0-1.2.4-1.6 1-1.2 1.2-2.1 1-1.6-.4.2-.7 0-2.3-.4-3.5l-1-3c0-.5-1.2-.4-3.6.4-3.8 1.2-5.1 1-3.1-.5.7-.6 1.8-2.6 2.4-4.4.6-1.8 1.5-3.4 2-3.6.7-.2.7 0-.1 1.2-.6.8-1.1 1.8-1.1 2.4 0 .5-.4 1.7-1 2.7-.5 1-.9 1.8-.7 2 0 0 1.6-.5 3.2-1.3l3-1.4v1.3c0 .7.4 2.6.9 4.2l.8 2.8 2-.9c2.1-1 4.1-4.4 4.1-7 0-1.4.8-1.2 1 .2l1.1 3.4 1 2.7 1.3-1.7c.8-1 1.8-2.7 2.2-4 .7-2.3 1.8-3.3 1.8-1.6 0 1.1 3.3 5.4 3.9 5 .3-.1.9-1.7 1.3-3.5 1-3.7 2.4-6.2 3.3-5.7.3.2.5.6.3 1-.2.2.5 2.6 1.6 5.2l2.5 6c.4 1 .7.8 3-1.3 1.5-1.2 2.8-2.7 3-3.2.2-.7.6-.6 2 .2 1.8 1.2 8.2 3 8.7 2.6.2-.2.4-1.8.4-3.7l.1-3.4 1.9.3c1 .3 3.1.2 4.7 0l2.9-.4-2.6-1.8c-1.4-1-2.8-2.2-3.2-2.8-.3-.6-1.6-1-3-1.2-3.9-.3-10.7-4.2-10.7-6 0-.3 1 .3 2.1 1.3 2.6 2.4 6.1 3.8 9.2 3.8h2.4l-1.5-1.9c-.8-1-1.5-3.2-1.7-4.9-.3-2.7-.6-3.2-3.4-5.2-1.8-1.1-3.9-3-4.8-4l-1.6-1.7-.8 2.1c-.4 1.2-1 2.2-1.2 2.2-.2 0-1.1-.7-2-1.6a6.8 6.8 0 00-1.8-1.5c-.2 0-1 1.1-1.7 2.5l-1.3 2.5-1-1.4c-.5-.8-1.8-2.2-2.8-3.2-1-.9-1.5-1.6-1.2-1.6.4 0 1.6 1 2.8 2.1l2.2 2.2.8-1.6c.6-1 .7-2.4.5-3.5-.3-1.7-.3-1.8.4-.8.4.7 1.6 2 2.7 2.9l2 1.6 1.5-2.5c1.4-2.6 1.4-2.6 2-1 .9 2 7 7 12.2 10 .8.4.5-1.1-1-4.7-.4-1-.7-2.7-.7-3.8 0-1.7-.5-2.5-2.7-4.1-3-2.4-4.1-4.1-4.7-8a11 11 0 00-1.2-3.8c-.6-.8-.8-.4-.6 2.5.1 2-.1 4.4-.5 5.4l-.8 1.8-.6-1.5a9.7 9.7 0 00-3.2-3.2c-1.5-1-2.5-2-2.3-2.1.2-.2 1.7.6 3.3 1.9 2.5 2 3 2.1 3.3 1.3.4-1 0-5.3-.7-8.3-.4-1.5-.4-1.5 1.5.4 1.3 1.3 2 3 2.7 5.8.7 3.6 1 4.2 4.4 7.1 2 1.8 3.8 3.1 3.9 3 .1-.1.4-4.7.5-10.1.4-10.4 0-13-2.5-16.1l-1.3-1.7 2-2.2a15 15 0 004.4-8.2l.4-2.6-2.2 2.2c-2 1.8-2.8 2.2-5 2.2-2.1 0-3-.4-4.4-2a18.6 18.6 0 00-7.8-4.4c-1-.4-1.4-.2-1.4.5 0 .6-.6 2.1-1.4 3.5l-1.3 2.5-2.8-2.8c-1.8-1.7-3.8-3-5.3-3.4-4-1-4.1-1-4.1 2 0 4.3-2 5.2-5.3 2.2-2.6-2.2-4.7-2.7-9.6-2.1l-3.8.4.7 1.7c.6 1.4.5 2-.8 3.6-2 2.6-4.5 3.8-8.4 3.8-1.8 0-4.1.4-5 .8-1 .5-3.4 1-5.4 1.2-2 .2-4 .5-4.6.7-1 .4-1 0-.8-2 .5-3.2-1.8-5.6-5.3-5.6-4.5 0-6.6 4-4.8 9.4a42.1 42.1 0 011 3.7c.2 1 2.2 3.6 4.7 6.1 2.5 2.4 4.8 5 5.1 5.6.4.7 1.6 1.7 2.8 2.4l2 1.1-.2-2.2c-.3-2.4.2-2.8 1.5-1 .5.5 1.7 1.5 2.7 2.1 1.5 1 1.7 1 1.7.2 0-.6.4-1.8.7-2.7l.7-1.7 1.2 2.3c.7 1.3 2.9 4.2 4.9 6.5 3.8 4.5 6.2 9.5 5 10.6-.5.5-1.9.4-4.6-.1-2.1-.4-4.8-.7-5.9-.5-2.2.3-2.4 0-1-1.7 1.4-1.8 1.2-2.1-1.6-2.1-3.3 0-11.5-1.6-14.6-2.8-3-1.2-3.8-1-4.7 2l-1.6 5.2-1 2.9 3.4-.4c1.8-.1 4.1-.5 5.2-.8l2-.4c.2.1-.3 1.2-1 2.5l-1.2 2.3 2-.4c1.2-.3 2.9-.8 3.8-1.3 1.7-.8 1.8-.7 3.1 1.4 1.6 2.5 2.9 2.4 3.2-.3.3-2.8 1.2-2.4 3 1.3 1.6 3.6 3.4 4.9 3.7 2.8.1-.7 1-1.9 2-2.6 2-1.4 3.5-1 4.4 1.2.9 2.3-1.1 4.7-7 8.2a40.3 40.3 0 00-20.3 29.1c-1.8 11.1 3.7 22.6 14.6 30.9 5.3 3.9 13.6 8 13 6.5-2.2-6.8-2.1-19.7.2-21.8.3-.4.2 1-.3 3-1.8 7.3-1 13.1 3.6 26.8 4.3 12.4 3.7 17.7-2.3 21.2-2 1.1-3.1 1.3-8.3 1.3-5.6-.1-6.2 0-8 1.4-1.8 1.4-4 6-4 8.1 0 1.2 1.2 1 3.8-.4zm0 0" fill="none" stroke-width="2.8" stroke="#000"/></g></g><g clip-path="url(#r)"><g clip-path="url(#s)"><path d="M206.7 116.6c.2-.3-.3-1.8-1-3.3-1.1-2.5-1.6-2.9-3.2-2.9a61 61 0 01-21.5-6c-4.9-2.1-6.5-2.6-7.1-2-1.5 1.3 1 4.7 4.8 6.4a60 60 0 0017 3.5c2.6 0 2.7 0 1.2 2.1l-1 1.6h2.8c1.6 0 3.7.3 4.8.6 2.8.6 2.8.6 3.2 0zM154 149.8c.3-.3.2-.9-.5-1.3-1.3-1-1.2-2.6.3-4.4 1-1.4 1.2-3.4 1.6-23.6.6-34.8 3.2-61 6.6-67.2 1.4-2.5 1.2-2.5-2.3-.1-4.6 3-8 7-11 12.8-5.8 10.8-7.8 25.4-7.8 56.5 0 17.6.1 20 1.1 21.6 1 1.6 1 2.1.4 3.8-.5 1.1-.7 2.2-.5 2.3 1.3 1.3 10.7 1 12-.4m4 5.4c6.2-2.8 6.8-9.8.8-11.6-2.4-.8-4-.4-4.9 1.3-.7 1.2-.2 3.5.7 3.5.4 0 .6.5.6 1 0 2.4-9.5 3.5-13.4 1.6-1.4-.7-2-2.6-.9-2.6.9 0 1.5-1.8 1-3.1-.6-1.8-2.3-2.4-5-1.7-5.8 1.5-5.7 8.4.3 11.3a31.6 31.6 0 0020.7.3m-4.7 7c.2-1.5-2.3-2.9-7.2-3.9-3.6-.8-5.1-.3-4.9 1.3.2 1 1.4 1.6 4.8 2.7 5.4 1.7 7 1.6 7.3-.1m3.4.3c1-1 1.9-2.3 1.9-2.8 0-1.5-4.1 1.2-4.6 3-.6 2.2.4 2.2 2.7-.2m-3.4 4.6c.2-1.3-.7-1.8-7.5-4.2-5.1-1.8-7.4-1-5.8 2.2.6 1 1.6 1.5 3.7 1.9 1.6.2 3.8.7 4.8 1 2.9.9 4.5.6 4.8-.9m0 5c.1-1-.5-1.6-2.2-2.4-3.6-1.6-8-2.4-9.1-1.6-2 1.6-.7 3.6 2.5 4 1.3.1 3 .5 3.8.9 2.4.9 4.7.5 5-1m3.5 4.8c1.6-1.4 2.4-3.2 1.4-3.2-1.1 0-4.2 2.7-4.2 3.7 0 1.6.6 1.5 2.8-.5m-3.7.2c0-1.6-3.4-3.4-7.4-3.8-3.3-.4-3.3-.4-3.3 1.3 0 1.3.5 1.8 2.7 2.8 3.6 1.6 8 1.4 8-.3m31.2 24.5c2.5-1 8-5.6 8-6.7 0-.4-1.5-2-3.4-3.7-3.8-3.5-8-9.3-9-12.7-.6-1.8-3.4-4.9-11-12.3l-10.3-10-3 .8a26 26 0 01-4.3.8c-1.4 0-1.4 0 .5 1.5l1.9 1.5 2.7-1.5c2.6-1.5 2.7-1.5 3-.3.2.7-.2 1.8-1 2.7-.6.9-1 1.8-.8 2.1.2.4-.5 1-1.5 1.6-2 .9-3.3 4-1.7 4 1.3 0 4.3-3.7 4-5-.2-.6-.1-1.3.2-1.4 1.1-.7 1 2.2-.1 3.6-.7.9-1.1 1.8-1 2.2.3.3-.4 1-1.4 1.5-2 .9-3.3 4-1.8 4 1.5 0 4.5-3.5 4.1-4.9-.2-.7-.1-1.4.2-1.5.8-.5 1.2 1.8.5 3-.3.5-.3 1.4 0 2 .7 1.2 0 3.5-1.2 4.2-.5.3-.2.9 1.1 1.8 1.8 1.4 1.8 1.5 1.8 7.6 0 5 .3 6.3 1.2 7.2 1 1 1.1 1 1.1 0s1.8-2.2 3.3-2.2a33 33 0 016.1 5.1c3 2.9 6 5.3 6.9 5.5l2 .3c.3 0 1.6-.3 3-.8zM148.4 217c.6-.8 1-2 1-2.7 0-1.1.5-1.4 3-1.7l2.8-.5-1.9-1.5c-2.3-1.8-2.5-3.3-.5-3.3s5.5-2 6-3.7c.2-.7 0-1.6-.3-2.1-1.2-1.3-3.3-1.1-3.7.3-.4 1.5-1.2 1.5-2.8 0-2.4-2.3-2.5-7 0-9.9 1-1.3 1-1.3-.4-2.7-1.5-1.5-2.6-4.3-2-5 .3-.2 1.5 0 2.8.4 1.8.6 2.5.6 3.2 0 2.2-1.7-.2-4-3.8-3.5-1.4.2-2 0-2.2-.7-.1-.6-1.4-1.3-2.8-1.7-2.5-.6-2.6-.6-2.6 1.1 0 2-1 2.3-3.1 1-1.7-1-3.3-.2-3.3 1.6 0 1.7 1.6 2.5 4.7 2.3 2.3-.1 2.4 1.6.2 4l-1.6 1.8 1.2 1.8c1.9 2.7 1.7 7.1-.3 9.3l-1.6 1.7-1-1.4c-1.5-1.9-3.4-1.7-4 .3-.3 1.3 0 2 1.6 3.4 1.2 1 2.8 1.7 3.7 1.7 2.2 0 2 1.7-.2 3.5l-1.8 1.3 2.8.5c1.5.2 2.7.6 2.7 1 0 1.1 2 4.8 2.6 4.8.3 0 1-.7 1.6-1.4zm133.3 22.5l2.4-1.5 1.6 1.5c2 2 4.5 2 6.5 0 .9-1 1.7-1.6 1.8-1.5l.8 1.5c.5.9 1.6 1.3 3.4 1.4 2.2.2 2.8 0 3.7-1.3l1-1.5 2.4 1.5c6.3 4 9.7-.2 6.8-8.8-1.4-4.3-.6-6.7 4-12.2 2-2.3 3.6-4.8 3.6-5.5 0-1.1-.4-1.3-3-1.2-2.5 0-3.2-.3-4.5-1.7-2.1-2.4-2-5 .4-8l1.9-2.4-3.4-2.3a56.2 56.2 0 01-7.4-6.6c-5-5.4-10-8-16.5-8.5l-4.4-.4v3.3c0 4.3 2 8.4 7.5 15.3 6.2 7.9 6.6 9.1 6.8 19.4l.3 8.7-1.8 1.7c-1.7 1.6-2.4 1.8-7.6 2-5 .4-6 .6-7.5 2a8.1 8.1 0 00-3.1 5c-.4 1.3-.2 1.6.8 1.6.6 0 2.2-.6 3.5-1.5M236.6 83c-1-.9-.2-1 4-1.2a21 21 0 0012.2-3.3c3-2 3.9-1.5 1 .4a24.6 24.6 0 01-10.6 3.6l-4.8.7c-.8.1-1.6 0-1.8-.2m-29.8 7.7c-1.4-1.9-1.3-3 .3-5 1.2-1.5 1.8-1.7 3.9-1.5 1.3.2 4.2 1.4 6.4 2.7 2.5 1.5 5.1 2.4 7.2 2.7l3.2.2L226 87c-2-3.1-2-3.5.4-1.6 2.4 2 5.4 2.5 11.9 2.3h3.2l-1.9-1.9c-2.5-2.6-1.8-2.8 1.1-.3 2.7 2.3 2.5 2.5-3.1 3-2.4.3-5 .1-7.2-.4-3.2-.8-3.3-.8-2.7.3.4.6 1 1 1.3 1s.6.4.6.8c0 1.2-7 .1-10.3-1.6-7.5-3.8-8.5-4.1-10.3-3.6a4 4 0 00-2.3 2.2c-1.2 3.1 3.2 5.5 5 2.8.5-.8.4-1.4-.5-2.3-1.3-1.3-1.2-1.5.5-1 1.3.5 1.4 3.4.3 4.5-1.3 1.2-4.2.9-5.3-.6m48.7 5c-1.5-1.3-2.5-2.6-2.3-2.8.3-.3.5-.3.6-.2a63 63 0 002.7 2.9c3.3 3.3 2.6 3.4-1 .1M219 108.5c-4.1-3.4-4.7-4.2-4.6-5.8v-1.8l.3 1.7c.2 1 1.3 2.4 2.7 3.5l2.3 1.9 1.5-1.7c.8-1 1.4-2 1.5-2.5 0-1 .2-1 3 1.5 2.5 2.1 2.5 2.1 2.9.7.2-.8 0-2.2-.2-3.2-.8-2.8-.7-3.2.6-1.5l2.2 2.6c1 1 1 1 1.4-.3.2-.8.4-2.2.4-3.2v-1.7l2.3 2.5c2 2.4 2.2 2.4 2.9 1.3a9 9 0 00.7-3.5c0-1.7.2-2.1.6-1.5.7 1 .2 4-1.1 6.4l-1 1.8-1.2-2c-1.5-2.4-2-2.3-3 .3-1 2.5-1.6 2.7-2.6.8-.6-1.3-.7-1.1-1.1 1.5l-.5 2.9-5.7-4.4-1.2 1.4c-.7.8-1.3 1.8-1.3 2.2 0 1-.8 1-1.8.1m17.3 23.8c0-.9-2.7-3.3-5.3-4.9-2.1-1.2-2.5-1.3-2.5-.3 0 1.6-1.4 5.4-1.9 5.4-.3 0-.7-.7-1-1.7-.2-.9-1.2-2.7-2.2-4l-1.9-2.3-1.4 2.2c-1.3 2-3.6 4-4.6 4-.3 0-.3-1.1-.1-2.4.2-1.4 0-2.5-.4-2.8-.4-.2-.7-.2-.7.2 0 .7-3.2 4.4-3.9 4.4-.3 0-.7-1-.9-2.3a202.2 202.2 0 00-.7-4.5c-.2-1.2.2-.4 1 1.8l1.4 4 1.5-2.5c.9-1.3 1.6-2.7 1.6-3.2 0-.4.2-.6.6-.4.3.2.8 1.8 1 3.5l.5 3.2 1.7-1.9c1-1 2-2.4 2.4-3 .7-1.2.7-1.2 2.2 0 .8.7 2 2.3 2.7 3.6.7 1.3 1.3 2.3 1.5 2.2l.5-3 .4-2.9c.1-.4 5.1 2.9 7 4.5 1.1 1 2.2 1.8 2.4 1.6.2-.2.4-1.7.4-3.5 0-2.6-.3-3.3-2-4.8-1.8-1.6-1.9-1.7-2.6-.4-.8 1.5-1.9 1.6-1.9 0 0-1.1-3.5-5.5-4.5-5.5-.2 0-1 1-1.6 2.1-.7 1.2-1.4 2.2-1.6 2.2-1 0-5.9-5.6-5.9-6.6 0-.8.3-.6 1.2.7.7 1 2 2.6 3 3.4 1.9 1.7 2.6 1.3 3.3-2 .3-1 .6-1.7.9-1.7.8 0 5.1 4.6 5.7 6.2l.7 1.5.4-1.7c.6-2 1.2-2.1 2.1-.3.4.8 2.3 2.5 4.2 3.7l3.4 2.2.7-2.2c.4-1.3 1-2 1.1-1.6.4.6-.5 4.2-1.2 5 0 .1-1.2-.5-2.5-1.4l-2.3-1.7v3c0 1.6-.2 3.6-.4 4.3-.4 1.5-1.5 2-1.5.6zm-45.4 107.5l2.1-1.3 1 1.3c1.2 1.7 4.7 1.6 7 0l1.7-1.4 1.4 1.3c2 1.7 5.6 1.8 7.8 0 1.6-1.1 1.9-1.2 3-.3a10 10 0 004 1.4c3 .4 3 .4 4.8-2.2 1.4-2.2 1.6-3 1.3-5.1a57 57 0 01-.6-5c-.1-2.5 0-2.5 3.5-3.7a48 48 0 005-2c1.4-.8 5.3-5.4 5.3-6.3 0-.2-1.5-.6-3.4-.8-7.4-.8-8.6-4.8-3.8-12.2 7.8-12 12.6-23.8 12.6-31.3 0-3.4.2-4.5.7-3.8 1.7 3-1.4 15.5-6.2 24.4l-2 3.6 2-.4c1-.2 6.8-2.7 13-5.5 17.1-7.8 23-9.3 34-8.8 9.3.4 13.2 2.2 19.7 9a60 60 0 0013 10c13 8.2 13.5 9 14 18.5.7 9.7.4 10.2-7 11.8-6.2 1.4-10.1 4.3-11.2 8.4-.5 2.1.6 2.2 3.8.2l2.3-1.5 1 1.5c1.4 2 4.3 2 6.7 0l1.8-1.5 1.8 1.5c2.9 2.3 6.7 1.7 7.8-1.2.2-.5.7-.3 1.8.6 2.1 1.9 7.5 2.6 8 1.2.3-.5-.1-1.9-.9-3-3-4.7-4-6.9-4.1-9.4 0-3.6 1-5.3 5-8.2 5-3.5 6.4-8 2.7-8-2.3 0-4.6-2-6-5.3-3-6.8-2.5-14.3 2-26.9 4.6-12.7 5.1-15 5.1-23.6 0-6.9-.1-8-1.7-11.9-1-2.3-3-5.7-4.3-7.6l-2.6-3.4 3.3-2.8c10.1-8.4 8-22-4.1-27.4-3.8-1.6-4.7-1.7-11.2-1.7-4 0-10 .5-13.3 1.2-3.4.6-9.3 1-13.3 1-6.3.1-7.4 0-9.9-1.4-2.5-1.3-3-2-3.5-5.1 0-.7-.5-1.3-1-1.4-.9-.3-4.9 3.2-5.5 4.7-.3.8-.5.7-1.4-.3-.5-.7-1.3-2.2-1.7-3.4-1-3.1.2-5.4 3.8-7.1l2.8-1.4-1.6-1c-3.4-2.1-9.2-.7-11.3 2.8-.6 1-1.3 1.8-1.5 1.8-.2 0-1.3-1-2.5-2-4.4-4.4-2.8-10.7 3-12.7 3.2-1 6-.2 6.5 1.9.9 3.2 3.6-1 3.2-4.8-.4-2.5-.3-2.6 1.4-2.6 2.4 0 7.6 3.2 9.2 5.7 1.8 2.8 1.7 7.4-.3 10.7l-1.6 2.7 2-.4c3.1-.6 6.1-2.5 7.6-4.9 1.6-2.4 1.8-7.2.4-9.7-1.4-2.5-1.2-3 .8-2 3.4 1.3 5.3 3 6.7 5.6 1.2 2.5 1.3 3 .6 5.6a16 16 0 01-2 4.6c-1.2 1.5-1.2 1.7-.3 1.7a12 12 0 006.3-2.9c.6-.6 1.5-2.2 2-3.6l1-2.4 1 1.9c1.3 2.6 4.1 4.9 7.5 6.3 3.7 1.6 5.2 1.7 3.3.2-1.3-1-3.7-7.9-3-8.6.5-.4 5.4 3.4 11 8.5 5.4 4.8 8.8 6.4 13.7 6.4 6.3 0 10-5.5 7-10.7-1.6-3-5.2-3.4-7.4-.8-1 1.2-1.2 2.1-1 3.4.4 1.5.3 1.7-1 1.7-2 0-5.5-2.3-11.9-7.7A95.3 95.3 0 00307.4 65a66.2 66.2 0 00-22.8-1.2c-6 1.1-13.1 4.5-17 8.2-7 6.6-7 15.3-.3 23.2l2 2.3-1.4 2c-1.9 3-1.7 7 .4 9.8a9 9 0 002.1 2.4c.2 0 .5-.9.5-1.9.2-2.5 1.3-4.2 3.2-4.9 1.7-.6 2.8-.3 10.5 2.8a68.7 68.7 0 0035.8.6c7-1.4 15.2-1.4 18.9.1 6.6 2.8 8.1 10 3.3 15.6-2.2 2.3-4.2 3.3-11 5.2a51.2 51.2 0 01-18.3 1.4c-10.1-.1-13.8 0-17.9 1-4.5.9-7.2 1-20.4.6l-15.2-.3 1.7 1.4c1 .7 2.2 1.7 3 2 1 .7 1 .8-.7 1.4-1 .4-3.2.7-5 .7h-3l-.5 2.7a9.5 9.5 0 000 3.8c.4.9.3 1-.7.7-.6-.3-2.5-.8-4-1-1.6-.4-3.7-1.1-4.8-1.6-1.7-.8-1.9-.8-2.5.3-.6 1-5.8 5-6.6 5a24.5 24.5 0 00-2-7c-1-2.1-1.8-4.4-2-5-.4-1-.6-1.1-1-.3-.3.5-.7 1.8-1 3-.2 1.2-1 3.1-1.7 4.3l-1.4 2.1-.8-1.8c-1-2-2.5-4-3-4-.3 0-.6.7-.8 1.4-.4 1.6-4.1 6-5 6-.3 0-.6-1.2-.6-2.8 0-1.5-.3-2.7-.6-2.7-.4 0-.7.4-.7.9 0 1.1-3.1 4.6-4.2 4.6-.4 0-1.2.4-1.6 1-1.2 1.2-2.1 1-1.6-.4.2-.7 0-2.3-.4-3.5l-1-3c0-.5-1.2-.4-3.6.4-3.8 1.2-5.1 1-3.1-.5.7-.6 1.8-2.6 2.4-4.4.6-1.8 1.5-3.4 2-3.6.7-.2.7 0-.1 1.2-.6.8-1.1 1.8-1.1 2.4 0 .5-.4 1.7-1 2.7-.5 1-.9 1.8-.7 2 0 0 1.6-.5 3.2-1.3l3-1.4v1.3c0 .7.4 2.6.9 4.2l.8 2.8 2-.9c2.1-1 4.1-4.4 4.1-7 0-1.4.8-1.2 1 .2l1.1 3.4 1 2.7 1.3-1.7c.8-1 1.8-2.7 2.2-4 .7-2.3 1.8-3.3 1.8-1.6 0 1.1 3.3 5.4 3.9 5 .3-.1.9-1.7 1.3-3.5 1-3.7 2.4-6.2 3.3-5.7.3.2.5.6.3 1-.2.2.5 2.6 1.6 5.2l2.5 6c.4 1 .7.8 3-1.3 1.5-1.2 2.8-2.7 3-3.2.2-.7.6-.6 2 .2 1.8 1.2 8.2 3 8.7 2.6.2-.2.4-1.8.4-3.7l.1-3.4 1.9.3c1 .3 3.1.2 4.7 0l2.9-.4-2.6-1.8c-1.4-1-2.8-2.2-3.2-2.8-.3-.6-1.6-1-3-1.2-3.9-.3-10.7-4.2-10.7-6 0-.3 1 .3 2.1 1.3 2.6 2.4 6.1 3.8 9.2 3.8h2.4l-1.5-1.9c-.8-1-1.5-3.2-1.7-4.9-.3-2.7-.6-3.2-3.4-5.2-1.8-1.1-3.9-3-4.8-4l-1.6-1.7-.8 2.1c-.4 1.2-1 2.2-1.2 2.2-.2 0-1.1-.7-2-1.6a6.8 6.8 0 00-1.8-1.5c-.2 0-1 1.1-1.7 2.5l-1.3 2.5-1-1.4c-.5-.8-1.8-2.2-2.8-3.2-1-.9-1.5-1.6-1.2-1.6.4 0 1.6 1 2.8 2.1l2.2 2.2.8-1.6c.6-1 .7-2.4.5-3.5-.3-1.7-.3-1.8.4-.8.4.7 1.6 2 2.7 2.9l2 1.6 1.5-2.5c1.4-2.6 1.4-2.6 2-1 .9 2 7 7 12.2 10 .8.4.5-1.1-1-4.7-.4-1-.7-2.7-.7-3.8 0-1.7-.5-2.5-2.7-4.1-3-2.4-4.1-4.1-4.7-8a11 11 0 00-1.2-3.8c-.6-.8-.8-.4-.6 2.5.1 2-.1 4.4-.5 5.4l-.8 1.9-.6-1.6a9.7 9.7 0 00-3.2-3.2c-1.5-1-2.5-2-2.3-2.1.2-.2 1.7.6 3.3 1.9 2.5 2 3 2.1 3.3 1.3.4-1 0-5.3-.7-8.3-.4-1.5-.4-1.5 1.5.4 1.3 1.3 2 3 2.7 5.8.7 3.6 1 4.2 4.4 7.1 2 1.8 3.8 3.1 3.9 3 .1-.1.4-4.7.5-10.1.4-10.4 0-13-2.5-16.1l-1.3-1.7 2-2.2a15 15 0 004.4-8.2l.4-2.6-2.2 2.2c-2 1.8-2.8 2.2-5 2.2-2.1 0-3-.4-4.4-2a18.6 18.6 0 00-7.8-4.4c-1-.4-1.4-.2-1.4.5 0 .6-.6 2.1-1.4 3.5l-1.3 2.5-2.8-2.8c-1.8-1.7-3.8-3-5.3-3.4-4-1-4.1-1-4.1 2 0 4.3-2 5.2-5.3 2.2-2.6-2.2-4.7-2.7-9.6-2.1l-3.8.4.7 1.7c.6 1.4.5 2-.8 3.6-2 2.6-4.5 3.8-8.4 3.8-1.8 0-4.1.4-5 .8-1 .5-3.4 1-5.4 1.2-2 .2-4 .5-4.6.7-1 .4-1 0-.8-2 .5-3.2-1.8-5.6-5.3-5.6-4.5 0-6.6 4-4.8 9.4a42.1 42.1 0 011 3.7c.2 1 2.2 3.6 4.7 6.1 2.5 2.4 4.8 5 5.1 5.6.4.7 1.6 1.8 2.8 2.4l2 1.1-.2-2.2c-.3-2.4.2-2.8 1.5-1 .5.5 1.7 1.5 2.7 2.1 1.5 1 1.7 1 1.7.2 0-.6.4-1.8.7-2.7l.7-1.7 1.2 2.3c.7 1.3 2.9 4.2 4.9 6.5 3.8 4.5 6.2 9.5 5 10.6-.5.5-1.9.4-4.6-.1-2.1-.4-4.8-.7-5.9-.5-2.2.3-2.4 0-1-1.7 1.4-1.8 1.2-2.1-1.6-2.1a59 59 0 01-14.6-2.8c-3-1.2-3.8-1-4.7 2l-1.6 5.2-1 2.9 3.4-.4c1.8-.1 4.1-.5 5.2-.8l2-.4c.2.1-.3 1.2-1 2.5l-1.2 2.3 2-.4c1.2-.3 2.9-.8 3.8-1.3 1.7-.8 1.8-.7 3.1 1.4 1.6 2.5 2.9 2.4 3.2-.3.3-2.8 1.2-2.4 3 1.3 1.6 3.6 3.4 4.9 3.7 2.8.1-.7 1-1.9 2-2.6 2-1.4 3.5-1 4.4 1.2.9 2.3-1.1 4.7-7 8.2a40.3 40.3 0 00-20.3 29.1c-1.8 11.1 3.7 22.6 14.6 30.9 5.3 3.9 13.6 8 13 6.5-2.2-6.8-2.1-19.7.2-21.8.3-.4.2 1-.3 3-1.8 7.3-1 13.1 3.6 26.8 4.3 12.4 3.7 17.7-2.3 21.2-2 1.1-3.1 1.3-8.3 1.3-5.6-.1-6.2 0-8 1.4-1.8 1.4-4 6-4 8.1 0 1.2 1.2 1 3.8-.4" fill="#ffb700"/></g></g></svg>