<svg xmlns="http://www.w3.org/2000/svg" width="400" height="400" viewBox="0 0 300 300"><defs><clipPath id="a"><path d="M150 0a150 150 0 100 300 150 150 0 000-300zm0 0"/></clipPath><clipPath id="b"><path d="M32 84h236v132H32zm0 0"/></clipPath><clipPath id="c"><path d="M150 0a150 150 0 100 300 150 150 0 000-300zm0 0"/></clipPath><clipPath id="d"><path d="M0 10h144v134H0zm0 0"/></clipPath><clipPath id="e"><path d="M150 0a150 150 0 100 300 150 150 0 000-300zm0 0"/></clipPath><clipPath id="f"><path d="M156 10h144v134H156zm0 0"/></clipPath><clipPath id="g"><path d="M150 0a150 150 0 100 300 150 150 0 000-300zm0 0"/></clipPath><clipPath id="h"><path d="M0 156h144v134H0zm0 0"/></clipPath><clipPath id="i"><path d="M150 0a150 150 0 100 300 150 150 0 000-300zm0 0"/></clipPath><clipPath id="j"><path d="M156 156h144v134H156zm0 0"/></clipPath><clipPath id="k"><path d="M150 0a150 150 0 100 300 150 150 0 000-300zm0 0"/></clipPath><clipPath id="l"><path d="M132 99h36v34h-36zm0 0"/></clipPath><clipPath id="m"><path d="M150 0a150 150 0 100 300 150 150 0 000-300zm0 0"/></clipPath><clipPath id="n"><path d="M65 133h182v55H65zm0 0"/></clipPath><clipPath id="o"><path d="M150 0a150 150 0 100 300 150 150 0 000-300zm0 0"/></clipPath></defs><g clip-path="url(#a)"><path fill="#dc161d" d="M0 0h300v300H0z"/></g><g clip-path="url(#b)"><g clip-path="url(#c)"><path d="M150 84.4L32.8 150 150 215.6 267.2 150zm0 0" fill="#fff"/></g></g><g clip-path="url(#d)"><g clip-path="url(#e)"><path d="M19 144h-84V10h209v64" fill="#012a86"/></g></g><g clip-path="url(#f)"><g clip-path="url(#g)"><path d="M281 144h84V10H156v64" fill="#012a86"/></g></g><g clip-path="url(#h)"><g clip-path="url(#i)"><path d="M19 156h-84v134h209v-64" fill="#012a86"/></g></g><g clip-path="url(#j)"><g clip-path="url(#k)"><path d="M281 156h84v134H156v-64" fill="#012a86"/></g></g><g clip-path="url(#l)"><g clip-path="url(#m)"><path d="M150 99.8l4 12.4h13l-10.5 7.6 4 12.5-10.5-7.7-10.6 7.7 4-12.5-10.5-7.6h13" fill="#f8d90f"/></g></g><g clip-path="url(#n)"><g clip-path="url(#o)"><path d="M65.7 168.4C67.1 164 70 162 74 163c2.5-9.3 14-11 18.4-6.4l11.2 11.2a23 23 0 008.6 1.5c3.2 0 2.8 1.5 5.5 1.6 7 .1 25.6.2 29 0 1.3-.1 32-34 32-34 2.5-3.1 9.2-4.1 12.8-1.6 3.4 3.3 7 3.6 9.5 1.5 2.2-3.3 7.2-3.7 10.4-1.8l34.7 26.9-46.9 26.2h-98.5" fill="#00872f"/></g></g></svg>