<svg xmlns="http://www.w3.org/2000/svg" width="400" height="400" viewBox="0 0 300 300"><defs><clipPath id="a"><path d="M150 0a150 150 0 100 300 150 150 0 000-300zm0 0"/></clipPath><clipPath id="b"><path d="M0 0h300v150H0zm0 0"/></clipPath><clipPath id="c"><path d="M150 0a150 150 0 100 300 150 150 0 000-300zm0 0"/></clipPath><clipPath id="d"><path d="M0 0h200v300H0zm0 0"/></clipPath><clipPath id="e"><path d="M150 0a150 150 0 100 300 150 150 0 000-300zm0 0"/></clipPath><clipPath id="f"><path d="M51 90h51v24H51zm0 0"/></clipPath><clipPath id="g"><path d="M150 0a150 150 0 100 300 150 150 0 000-300zm0 0"/></clipPath><clipPath id="h"><path d="M51 89h51v25H51zm0 0"/></clipPath><clipPath id="i"><path d="M150 0a150 150 0 100 300 150 150 0 000-300zm0 0"/></clipPath><clipPath id="j"><path d="M33 107h87v85H33zm0 0"/></clipPath><clipPath id="k"><path d="M150 0a150 150 0 100 300 150 150 0 000-300zm0 0"/></clipPath><clipPath id="l"><path d="M39 114h74v70H39zm0 0"/></clipPath><clipPath id="m"><path d="M150 0a150 150 0 100 300 150 150 0 000-300zm0 0"/></clipPath><clipPath id="n"><path d="M50 119h52v37H50zm0 0"/></clipPath><clipPath id="o"><path d="M150 0a150 150 0 100 300 150 150 0 000-300zm0 0"/></clipPath><clipPath id="p"><path d="M49 118h54v39H49zm0 0"/></clipPath><clipPath id="q"><path d="M150 0a150 150 0 100 300 150 150 0 000-300zm0 0"/></clipPath><clipPath id="r"><path d="M47 171h59v5H47zm0 0"/></clipPath><clipPath id="s"><path d="M150 0a150 150 0 100 300 150 150 0 000-300zm0 0"/></clipPath><clipPath id="t"><path d="M46 170h61v6H46zm0 0"/></clipPath><clipPath id="u"><path d="M150 0a150 150 0 100 300 150 150 0 000-300zm0 0"/></clipPath><clipPath id="v"><path d="M49 155h54v17H49zm0 0"/></clipPath><clipPath id="w"><path d="M150 0a150 150 0 100 300 150 150 0 000-300zm0 0"/></clipPath><clipPath id="x"><path d="M49 144h54v28H49zm0 0"/></clipPath><clipPath id="y"><path d="M150 0a150 150 0 100 300 150 150 0 000-300zm0 0"/></clipPath><clipPath id="z"><path d="M66 151h21v21H66zm0 0"/></clipPath><clipPath id="A"><path d="M150 0a150 150 0 100 300 150 150 0 000-300zm0 0"/></clipPath><clipPath id="B"><path d="M57 126h38v46H57zm0 0"/></clipPath><clipPath id="C"><path d="M150 0a150 150 0 100 300 150 150 0 000-300zm0 0"/></clipPath><clipPath id="D"><path d="M70 126h12v7H70zm0 0"/></clipPath><clipPath id="E"><path d="M150 0a150 150 0 100 300 150 150 0 000-300zm0 0"/></clipPath><clipPath id="F"><path d="M68 120h16v12H68zm0 0"/></clipPath><clipPath id="G"><path d="M150 0a150 150 0 100 300 150 150 0 000-300zm0 0"/></clipPath><clipPath id="H"><path d="M92 118h17v16H92zm0 0"/></clipPath><clipPath id="I"><path d="M150 0a150 150 0 100 300 150 150 0 000-300zm0 0"/></clipPath><clipPath id="J"><path d="M66 118h44v38H66zm0 0"/></clipPath><clipPath id="K"><path d="M150 0a150 150 0 100 300 150 150 0 000-300zm0 0"/></clipPath><clipPath id="L"><path d="M45 192h63v18H45zm0 0"/></clipPath><clipPath id="M"><path d="M150 0a150 150 0 100 300 150 150 0 000-300zm0 0"/></clipPath><clipPath id="N"><path d="M44 192h64v19H44zm0 0"/></clipPath><clipPath id="O"><path d="M150 0a150 150 0 100 300 150 150 0 000-300zm0 0"/></clipPath><clipPath id="P"><path d="M17 147h12v18H17zm0 0"/></clipPath><clipPath id="Q"><path d="M150 0a150 150 0 100 300 150 150 0 000-300zm0 0"/></clipPath><clipPath id="R"><path d="M18 157h9v8h-9zm0 0"/></clipPath><clipPath id="S"><path d="M150 0a150 150 0 100 300 150 150 0 000-300zm0 0"/></clipPath><clipPath id="T"><path d="M17 157h10v8H17zm0 0"/></clipPath><clipPath id="U"><path d="M150 0a150 150 0 100 300 150 150 0 000-300zm0 0"/></clipPath><clipPath id="V"><path d="M14 157h43v46H14zm0 0"/></clipPath><clipPath id="W"><path d="M150 0a150 150 0 100 300 150 150 0 000-300zm0 0"/></clipPath><clipPath id="X"><path d="M14 156h43v49H14zm0 0"/></clipPath><clipPath id="Y"><path d="M150 0a150 150 0 100 300 150 150 0 000-300zm0 0"/></clipPath><clipPath id="Z"><path d="M123 147h12v18h-12zm0 0"/></clipPath><clipPath id="aa"><path d="M150 0a150 150 0 100 300 150 150 0 000-300zm0 0"/></clipPath><clipPath id="ab"><path d="M123 147h12v19h-12zm0 0"/></clipPath><clipPath id="ac"><path d="M150 0a150 150 0 100 300 150 150 0 000-300zm0 0"/></clipPath><clipPath id="ad"><path d="M126 157h9v8h-9zm0 0"/></clipPath><clipPath id="ae"><path d="M150 0a150 150 0 100 300 150 150 0 000-300zm0 0"/></clipPath><clipPath id="af"><path d="M126 157h9v9h-9zm0 0"/></clipPath><clipPath id="ag"><path d="M150 0a150 150 0 100 300 150 150 0 000-300zm0 0"/></clipPath><clipPath id="ah"><path d="M96 157h42v46H96zm0 0"/></clipPath><clipPath id="ai"><path d="M150 0a150 150 0 100 300 150 150 0 000-300zm0 0"/></clipPath><clipPath id="aj"><path d="M96 157h42v48H96zm0 0"/></clipPath><clipPath id="ak"><path d="M150 0a150 150 0 100 300 150 150 0 000-300zm0 0"/></clipPath><clipPath id="al"><path d="M17 102h119v105H17zm0 0"/></clipPath><clipPath id="am"><path d="M150 0a150 150 0 100 300 150 150 0 000-300zm0 0"/></clipPath><clipPath id="an"><path d="M46 95h65v14H46zm0 0"/></clipPath><clipPath id="ao"><path d="M150 0a150 150 0 100 300 150 150 0 000-300zm0 0"/></clipPath><clipPath id="ap"><path d="M41 117h23v18H41zm0 0"/></clipPath><clipPath id="aq"><path d="M150 0a150 150 0 100 300 150 150 0 000-300zm0 0"/></clipPath><clipPath id="ar"><path d="M46 119h11v9H46zm0 0"/></clipPath><clipPath id="as"><path d="M150 0a150 150 0 100 300 150 150 0 000-300zm0 0"/></clipPath><clipPath id="at"><path d="M51 123h6v3h-6zm0 0"/></clipPath><clipPath id="au"><path d="M150 0a150 150 0 100 300 150 150 0 000-300zm0 0"/></clipPath><clipPath id="av"><path d="M51 123h7v6h-7zm0 0"/></clipPath><clipPath id="aw"><path d="M150 0a150 150 0 100 300 150 150 0 000-300zm0 0"/></clipPath><clipPath id="ax"><path d="M53 125h2v3h-2zm0 0"/></clipPath><clipPath id="ay"><path d="M150 0a150 150 0 100 300 150 150 0 000-300zm0 0"/></clipPath><clipPath id="az"><path d="M53 126h2v1h-2zm0 0"/></clipPath><clipPath id="aA"><path d="M150 0a150 150 0 100 300 150 150 0 000-300zm0 0"/></clipPath></defs><g clip-path="url(#a)"><path fill="#fff" d="M0 0h300v300H0z"/><path fill="#012a86" d="M0 0h300v300H0z"/></g><g clip-path="url(#b)"><g clip-path="url(#c)"><path d="M0 150h450V0H0zm0 0" fill="#dc161d"/></g></g><g clip-path="url(#d)"><g clip-path="url(#e)"><path d="M0 0v300l200-150" fill="#fff"/></g></g><g clip-path="url(#f)"><g clip-path="url(#g)"><path d="M101 113.2V111s-1.2-2 .3-4.1c0 0-3.1-1.7-2.4-4.2 0 0-2.8-.7-2.6-3.8 0 0-3-.2-3.3-2.7 0 0-3 .5-4.3-2 0 0-3 .5-3.8-1.5 0 0-2.8 1-4.5-1.4 0 0-3 1.2-4.2-1.1-1.3 2.3-4.3 1-4.3 1-1.7 2.5-4.5 1.5-4.5 1.5-.8 2-3.7 1.4-3.7 1.4-1.4 2.5-4.4 2-4.4 2-.3 2.6-3.3 2.8-3.3 2.8.3 3-2.5 3.8-2.5 3.8.7 2.5-2.3 4.1-2.3 4.1 1.5 2.2.2 4.1.2 4.1v2.2l49.6.2" fill="#ff0"/><path d="M101 113.2V111s-1.2-2 .3-4.1c0 0-3.1-1.7-2.4-4.2 0 0-2.8-.7-2.6-3.8 0 0-3-.2-3.3-2.7 0 0-3 .5-4.3-2 0 0-3 .5-3.8-1.5 0 0-2.8 1-4.5-1.4 0 0-3 1.2-4.2-1.1-1.3 2.3-4.3 1-4.3 1-1.7 2.5-4.5 1.5-4.5 1.5-.8 2-3.7 1.4-3.7 1.4-1.4 2.5-4.4 2-4.4 2-.3 2.6-3.3 2.8-3.3 2.8.3 3-2.5 3.8-2.5 3.8.7 2.5-2.3 4.1-2.3 4.1 1.5 2.2.2 4.1.2 4.1v2.2l49.6.2" fill="#f8d90f"/></g></g><g clip-path="url(#h)"><g clip-path="url(#i)"><path d="M51.4 112.9l49.5.2V111a4 4 0 01.2-4.1c-.5-.3-2.9-1.9-2.3-4.1-1-.3-2.7-1.4-2.6-3.8-.5 0-3-.5-3.3-2.7-.5 0-3 .2-4.2-2-.5 0-3 .3-3.8-1.5-.5.1-3 .7-4.5-1.4-.5.1-3 1-4.2-1-1.2 2-3.8 1.1-4.3 1-1.5 2.1-4 1.5-4.5 1.4-.8 1.8-3.3 1.5-3.7 1.4-1.2 2.3-3.8 2.1-4.3 2-.3 2.3-2.8 2.7-3.3 2.8a3.6 3.6 0 01-2.5 3.7c.6 2.3-1.8 3.9-2.3 4.2a4 4 0 01.2 4zm49.6.4l-49.7-.2v-2.3a3.8 3.8 0 00-.2-4v-.1s3-1.7 2.3-4.1v-.1a3.6 3.6 0 001.4-.8c.9-.7 1.3-1.7 1.2-2.9v-.1s3-.2 3.2-2.7h.2s2.9.4 4.2-2c.1 0 3 .5 3.7-1.5h.1s2.8 1 4.4-1.4h.1s3 1.1 4.2-1v-.2l.1.2c1.2 2.1 4.2 1 4.2 1 1.7 2.3 4.5 1.4 4.5 1.4h.1c.8 2 3.7 1.5 3.7 1.5 1.4 2.4 4.3 2 4.3 2h.1c.1 1 .7 1.8 1.7 2.3a4.7 4.7 0 001.5.4h.1v.1c0 1.3.3 2.3 1.2 3a3.8 3.8 0 001.3.7h.1v.1c-.7 2.5 2.3 4 2.3 4l.1.1v.1c-1.5 2-.3 4-.3 4v2.4"/></g></g><g clip-path="url(#j)"><g clip-path="url(#k)"><path d="M99.8 110.3c-7.8-.8-16.7-2.6-23.7 1.3-4.6-2.8-11-2.6-16.6-2-3 .5-6.5.5-9.6 1h-.5a33 33 0 01-15.8-3.4c1.6 8.8 3.3 18 4.2 27.3 1.8 13.7-6.6 25.3-3.1 39 2 6.5 9.2 10.3 15.8 11 6.4.4 13 1.4 18.8 2.7 1.2.2 2.5.8 3.3 1 1.6.8 2.8 1.8 3.8 2.8 3.6-3.7 8.8-4.7 14-5.2 9.2-1.1 20.6-.5 26.3-9v-.4c3-4.7 2.7-11.7 1.3-17 0-1.8-.5-3.5-.8-5.2-5.7-15-.8-31.8 1.6-46.8-3 1.6-6.3 2.3-9.6 3.2-2.6.3-5.6.2-8.2 0l-1.2-.3" fill="#dc161d"/></g></g><g clip-path="url(#l)"><g clip-path="url(#m)"><path d="M111.5 153.2c0 1 .5 1.8.7 2.7 1 6.5 2.1 15.2-4.6 19.2-7.5 4.8-17.2 2.8-25.8 5.3-1.8.4-4.1 2-5.3 3.1-.8-.5-1.6-1.3-2.6-1.7-7-3.8-16.3-2.5-24.3-4.6-4-1.2-8.2-4.4-9.2-8.5-2.6-10.8 3.6-20 2.9-30.7-.5-8.1-1.9-16-3.8-23.7 6.3 3 13.5 3.4 20.6 2 5.2-.7 11.2-.7 16.1 1.5 2.7-1.2 5.9-1.7 8.8-2 5.5.5 11.4 1.5 17 1.5 3.9-.2 7.3-1.3 10.6-2.8-2 12.7-5.7 26-1.1 38.7" fill="#61aee0"/></g></g><g clip-path="url(#n)"><g clip-path="url(#o)"><path d="M100.3 155.8l-.1-12h1.5l-18.3-11.7V126h1.8l-9.1-6.6L67 126h1.8v6l-18.1 11.8H52v12h48.1" fill="#fff"/></g></g><g clip-path="url(#p)"><g clip-path="url(#q)"><path d="M52.6 155.3h47.3l-.1-11.8h.5l-17.2-11.2v-6.7h.9l-8-5.7-7.8 5.7h1v6.7L52 143.4h.5zm47.9.9H51.8v-12h-2.4l19-12.3v-5.5h-2.6l10.3-7.4 10.3 7.4h-2.6v5.5l19.2 12.3h-2.4v11.6"/></g></g><g clip-path="url(#r)"><g clip-path="url(#s)"><path d="M105.8 171.4v3.7H47.3v-3.7h58.7" fill="#fff"/></g></g><g clip-path="url(#t)"><g clip-path="url(#u)"><path d="M47.6 174.7h57.9v-3h-58zm58.6.8H46.8V171H105.9v.4h.3"/></g></g><g clip-path="url(#v)"><g clip-path="url(#w)"><path d="M51 171.2v-12.6h2.4l-.1 12.7.1-12.6-3.4-.1v-2.7h52.4v2.7h-3.2v12.8-12.8h2.4v12.6" fill="#fff"/></g></g><g clip-path="url(#x)"><g clip-path="url(#y)"><path d="M57.5 151.5H60v-4.3h-2.5zm3.3.8h-4v-5.9h4zm9.5-.8h2.4v-4.3h-2.4zm3.2.8h-4v-5.9h4zm6.6-.8h2.5v-4.3H80zm3.2.8h-4v-5.5h.4v-.4h3.6zm8.7-.8h2.4v-4.3h-2.5zm3.2.8h-4v-5.9h4zm-39.6 1H62v-8h-6.3zm6.7.8h-7.4v-9.5h7.7v9.1h-.3zm6-.7h6.3v-8h-6.2zm6.7.7h-7.4v-9.5h7.8v9.2H75zm3.2-.7h6.3v-8h-6.3zm6.7.8h-7.5v-9.6h7.8v9.2H85zm5.2-.8h6.2v-8H90zm6.6.8h-7.4v-9.6H97v9.2h-.4zm-39.1 11.6H60v-4.3h-2.4zm3.2.8h-4v-5.9h4zm31.2-.8h2.5v-4.3H92zm3.3.8h-4v-5.8h4zm-39.6 1H62v-8h-6.3zm7 .9H55v-9.6h7.8zm27.4-.8h6.3v-8H90zm7 .8h-7.7v-9.6H97zm1.8 2.9l-.1-13.2h3.3v-1.9H50.3v1.9H53.8l-.1 13.1h-.8L53 159h-1.6v12.2h-.7V159h-1.1v-3.5h53.2v3.5h-.8v12.2h-.8V159h-1.6v12.4"/></g></g><g clip-path="url(#z)"><g clip-path="url(#A)"><path d="M86.6 151v20.4H66.4V151h20.3" fill="#fff"/></g></g><g clip-path="url(#B)"><g clip-path="url(#C)"><path d="M71 131.8h10.1v-4.3h-10zm11 .8H70.2v-5.9h11.6zM59.4 142h33.3l-10.4-7.6H69.8zm34.5.8H57.1l12.4-9.1h13.2l11.6 8.4-.3.3zm-27.4 13.7h19.6v-5H66.6zm0 14.4h1.7v-13.6h-1.7zm2.5 0h14.7v-13.6H69zm15.5 0h1.7v-13.6h-1.8zm2.5.8H65.9v-21h21v.4"/></g></g><g clip-path="url(#D)"><g clip-path="url(#E)"><path d="M71 131.8h10.1v-4.3h-10zm11 .8H70.2v-5.9h11.6"/></g></g><g clip-path="url(#F)"><g clip-path="url(#G)"><path d="M71.3 125.2h9.6l-4.8-3.4zm12 .7H69l7-5 .2.4.2-.3zm-9.3 4.6h4.2v-1.7H74zm5 .8h-5.8V128H79"/></g></g><g clip-path="url(#H)"><g clip-path="url(#I)"><path d="M100.5 118.4c1.7 0 2.1 7 2.1 10.6 1.5.4 4.7 2.4 6.2 4.3H92.2a16 16 0 016.2-4.3c0-3.6.3-10.6 2-10.6" fill="#fff"/></g></g><g clip-path="url(#J)"><g clip-path="url(#K)"><path d="M93 132.9h15a15.9 15.9 0 00-5.5-3.6h-.3v-.3c0-4.3-.5-9.1-1.5-10l-.2-.2v-.4.4l-.3.1c-1 1-1.5 6-1.5 10v.4h-.2c-1.2.4-3.9 2-5.4 3.6m16.5.8H91.4l.5-.7c1.4-1.8 4.5-3.7 6-4.3 0-2 .2-8.9 1.8-10.3.3-.3.6-.4.8-.4.2 0 .5.1.7.4 1.6 1.5 1.8 8.6 1.8 10.3 1.6.6 4.6 2.5 6 4.4zM67.8 152l.1.2.1-.2zm.1.7c-.5.5 0 1.4 0 1.5a1.3 1.3 0 000-1.5m0 2zm1.4.8h-2.8l.7-1c-.2-.5-.5-1.4 0-2.1l-.7-1.1h2.8l-.6 1.1c.2.5.4 1.2 0 2zm1.6-3.5v.2l.1-.2zm0 .7c-.5.5 0 1.4 0 1.5.6-.8 0-1.5 0-1.5zm0 2h.1zm1.4.8h-2.7l.6-1c-.2-.5-.5-1.4 0-2.1l-.3-.6.3-.2v-.3h2.1l-.6 1.1c.3.5.4 1.2 0 2zm5.6-3.5v.2l.2-.2zm0 .7c-.4.5 0 1.3 0 1.5.6-.8.1-1.4 0-1.5m0 2h.1zm1.4.9h-2.7l.6-1.1c-.2-.4-.5-1.3 0-2l-.3-.7.3-.1v-.4h2.2l-.7 1.1a2 2 0 010 2zm1.9-3.6v.2l.2-.2zm0 .7c-.4.5 0 1.4 0 1.5.6-.8.2-1.4 0-1.5m0 2h.1zm1.4.9H80l.6-1.1c-.2-.4-.5-1.3 0-2l-.6-1.2h2.8l-.7 1.1a2 2 0 010 2zm1.9-3.6v.2l.2-.2zm0 .7c-.4.5 0 1.4 0 1.5a1.3 1.3 0 000-1.5m0 2h.1zm1.4.9h-2.7l.6-1.1c-.2-.4-.5-1.3 0-2l-.6-1.2H86l-.7 1.1a2 2 0 010 2zM74.2 152v.2l.1-.2zm0 .7c-.5.5 0 1.3 0 1.5.6-.8 0-1.5 0-1.5m0 2h.1zm1.4.9h-2.7l.6-1.2c-.2-.4-.5-1.3 0-2l-.7-1.1h2.8l-.6 1.1a2 2 0 010 2"/></g></g><g clip-path="url(#L)"><g clip-path="url(#M)"><path d="M76.5 197.4c7.6 0 17-1.6 21.4-3.9l9.7-.8.2 11.8c-8.2 4.5-27.1 5.4-31.2 5.4-4.2 0-23.3-1-31.5-5.5v-11.8l9.7 1a58 58 0 0021.7 3.8" fill="#f8d90f"/></g></g><g clip-path="url(#N)"><g clip-path="url(#O)"><path d="M76.5 197.3zm-31.3 7c8.3 4.6 27.3 5.5 31.2 5.5h.3c3.9 0 22.7-.9 31-5.4l-.2-11.6-9.6.8a55.4 55.4 0 01-21.2 3.8h-.2c-8 0-17.5-1.6-21.7-3.8l-9.5-.9zm31.2 5.7c-4 0-23-.9-31.4-5.5v-12h.2l9.7 1a57.9 57.9 0 0021.6 3.8h.2c7.9 0 17-1.7 21.2-3.8l9.8-1 .2 12c-8.4 4.6-27.3 5.5-31.2 5.5"/></g></g><g clip-path="url(#P)"><g clip-path="url(#Q)"><path d="M20.2 147.1l8.5 2.7-2.6 13.8-8 1.2s-1.4-7.2 2.1-17.7" fill="#f8d90f"/><path d="M20.3 147.2a39.7 39.7 0 00-2.1 17.5l7.9-1.2 2.5-13.6zM18 165c0-.1-1.3-7.4 2.1-17.8h.1l8.6 2.7-2.6 13.9"/></g></g><g clip-path="url(#R)"><g clip-path="url(#S)"><path d="M26.1 163.4l-8 1.4 5-7.2" fill="#7d7d7d"/><path d="M26.1 163.4l-8 1.4 5-7.2" fill="#f8b60f"/></g></g><g clip-path="url(#T)"><g clip-path="url(#U)"><path d="M23.2 157.8l-5 7 7.8-1.4zm-5.3 7.2l5.3-7.6 3 6.1"/></g></g><g clip-path="url(#V)"><g clip-path="url(#W)"><path d="M15.1 157l8.2.6c.2 7 1 33.5 32.7 35l-1 9.6c-38.5.4-41.4-32.6-39.9-45.2" fill="#f8d90f"/></g></g><g clip-path="url(#X)"><g clip-path="url(#Y)"><path d="M15.2 157.1c-1.1 9.4.6 23.8 9.2 33.5 6.8 7.6 16.8 11.5 29.8 11.5l.7-.2v.2l1-9.5c-13.4-.6-22.9-5.8-28.1-15.4a43.3 43.3 0 01-4.6-19.5zm30 47.1v-.2l8.2-1.8c-12.6-.1-22.4-4-29-11.5A44.7 44.7 0 0115 157h.1l8.3.5v.1c.1 3.2.3 11.8 4.5 19.5 5.3 9.6 14.7 14.7 28.1 15.3h.1l-1 9.8h-.9"/></g></g><g clip-path="url(#Z)"><g clip-path="url(#aa)"><path d="M132.1 147.2l-8.4 2.7 2.7 13.7 8 1.3s1.3-7.2-2.3-17.7" fill="#ff0"/><path d="M132.1 147.2l-8.4 2.7 2.7 13.7 8 1.3s1.3-7.2-2.3-17.7" fill="#f8d90f"/></g></g><g clip-path="url(#ab)"><g clip-path="url(#ac)"><path d="M126.4 163.6l8 1.2c0-.8 1-7.8-2.3-17.5l-8.3 2.7zm8 1.4l-8.1-1.3-2.7-13.9 8.5-2.7h.1a39.3 39.3 0 012.3 17.8"/></g></g><g clip-path="url(#ad)"><g clip-path="url(#ae)"><path d="M126.4 163.5l8 1.4-5.1-7.2" fill="#7d7d7d"/><path d="M126.4 163.5l8 1.4-5.1-7.2" fill="#f8b60f"/></g></g><g clip-path="url(#af)"><g clip-path="url(#ag)"><path d="M126.5 163.4l7.7 1.4-5-7zm8.1 1.7l-8.4-1.5 3-6"/></g></g><g clip-path="url(#ah)"><g clip-path="url(#ai)"><path d="M137.3 157.1l-8.2.6c-.1 7-.7 33.5-32.4 34.9l1.1 9.6c38.5.4 41.2-32.5 39.5-45" fill="#f8d90f"/></g></g><g clip-path="url(#aj)"><g clip-path="url(#ak)"><path d="M98 202l.6.1c13 0 23-3.8 29.6-11.4 8.6-9.7 10.3-24 9-33.5l-8 .6c0 3.3-.2 11.8-4.4 19.4-5.1 9.7-14.6 14.8-28 15.4l1 9.5h.1zm9.6 2.3l-9-2h-.8l-1.2-9.8h.1c13.4-.6 22.8-5.8 28-15.3 4.1-7.8 4.3-16.3 4.3-19.5h.1l8.2-.6h.1c1.3 9.5-.4 24-9 33.7-6.6 7.5-16.4 11.3-29 11.5l8.3 1.8"/></g></g><g clip-path="url(#al)"><g clip-path="url(#am)"><path d="M38.4 197.8l.8-2.3 1.6.6c.3 0 .6.2.7.3.2.2.2.4.1.8l-.2.9-.1.4v.2l.9.3v-.2l-.1-.3v-.5l.3-.7v-.7a1.1 1.1 0 00-.3-.5c.3 0 .5-.1.7-.3l.5-.7c.2-.6 0-1.1-.4-1.5a3 3 0 00-1-.5l-2.5-.8-1.7 5.2.7.3m1.6-4.6l1.8.5.5.3c.3.2.3.6.2 1-.1.3-.3.5-.6.6l-.8-.1-1.7-.6.6-1.7m-8.8.9l3-4.7 3.5 2.1-.4.6-2.9-1.7-.9 1.4 2.7 1.6-.4.5-2.6-1.6-1 1.6 2.9 1.8-.4.5-3.5-2.1m-5-4.4l1.7-1.6 1.3 1.2c.4.4.8.6 1.2.6a1.7 1.7 0 001.1-.5c.4-.3.6-.7.6-1.1 0-.4-.2-.8-.6-1.2l-1.7-1.8-4.1 3.8.5.6m4-.5c-.3-.1-.5-.2-.7-.5l-1-1 1.3-1.4 1 1.1c.3.2.4.4.5.6 0 .3 0 .6-.3.9l-.8.3m-9.3-7.4l5-2.6.5 1-3.4 3.5 5-.8.5.9-5 2.6-.3-.6 3-1.5.4-.3.8-.4-5 .9-.3-.7 3.4-3.6h-.2l-.5.4a5 5 0 01-.6.3l-3 1.5-.3-.6m-2.4-6.6l5.4-1.6 1.3 3.8-.7.2-1-3.1-1.6.5 1 2.9-.7.2-1-3-1.8.6 1 3.2-.6.2-1.3-3.9m.4-7.2l.1.7c-.3 0-.5.2-.7.3-.4.3-.5.8-.4 1.4l.3.7c.3.4.6.6 1 .5.3 0 .5-.1.6-.4l.1-.9v-.8l.3-1c.1-.4.4-.6 1-.7.4-.1.9 0 1.2.3.4.3.7.7.8 1.3.1.6 0 1.1-.2 1.6-.2.4-.6.7-1.2.8l-.1-.7c.2-.1.5-.2.6-.4.2-.2.3-.6.2-1.2 0-.4-.2-.7-.4-.8a.9.9 0 00-.7-.2.6.6 0 00-.6.4v1l-.1.8-.2 1c-.2.3-.6.6-1 .6-.7.1-1.2 0-1.5-.4a3 3 0 01-.7-1.5c-.1-.6 0-1.2.2-1.6.3-.5.8-.7 1.4-.8m114.6.3v-.7l.8-.1c.4-.2.7-.7.7-1.3a2 2 0 000-.7c-.1-.5-.4-.7-.8-.8-.3 0-.5 0-.7.2l-.4.9-.3.7a3 3 0 01-.4 1c-.3.3-.7.5-1.1.4-.5 0-1-.2-1.2-.6-.3-.4-.5-.9-.4-1.5 0-.6.2-1 .6-1.4.3-.4.8-.5 1.4-.5v.7c-.4 0-.6 0-.8.2-.3.2-.5.5-.5 1s0 .8.2 1a1 1 0 00.6.4c.3 0 .5 0 .6-.3.1-.1.3-.4.4-1l.3-.7.4-.8c.3-.3.7-.5 1.2-.4.6 0 1 .3 1.3.8.2.4.3 1 .3 1.5-.1.7-.3 1.2-.7 1.6-.4.3-1 .5-1.5.4m.4 7l-5.5-1.2.2-.8 5-1.8-4.4-1 .2-.6 5.5 1.2-.2.8-5.1 1.8 4.5 1-.2.6m-2.4 6.5l-5.3-2.1 1.6-3.7.6.2-1.2 3 1.6.7 1.1-2.8.6.3-1.1 2.8 1.7.7 1.3-3.1.7.2-1.6 3.8m-2 3.3l-4.8-2.8.4-.7 4.9 2.9-.4.6m-3.3 4.3c.7-.7.8-1.5.4-2.3a3.8 3.8 0 00-1-1.3 3 3 0 00-1.8-.9c-.7 0-1.3.2-1.8.8l-1.5 1.6 4.2 3.7 1.5-1.6m-4.7-2.2l.9-1c.4-.4.8-.6 1.3-.5.5 0 1 .2 1.5.7l.4.4.5.8a1.5 1.5 0 01-.1 1l-.4.5-.9 1-3.2-2.9m-2.8 8.1l-3.1-4.6 3.4-2.2.4.6-2.8 1.8 1 1.4 2.6-1.7.3.6-2.6 1.6 1 1.6 3-1.9.3.6-3.5 2.2m-6.4 2.7l-.9-2.2 1.7-.6h.6c.3 0 .6.1.7.5l.4.8.2.4v.2l1-.4c-.2 0-.3-.2-.4-.3l-.2-.4-.3-.7-.5-.6a1.4 1.4 0 00-.5-.2l.3-.6v-.9c-.3-.6-.7-.9-1.3-1l-1 .3-2.5.9 2 5.1.7-.2m-1.8-4.6l1.8-.6c.2-.1.4-.2.6-.1.3 0 .6.2.7.6.1.3.1.6 0 .8l-.7.5-1.7.6-.7-1.8m-5.5.4l1.4.1c.6.2 1 .6 1.3 1.3l-.8.1c-.2-.3-.4-.6-.7-.7a2 2 0 00-1.1-.1 1.8 1.8 0 00-1.3.7c-.2.5-.3 1-.2 1.8.1.6.3 1.1.7 1.5.4.4.9.5 1.5.4.5 0 1-.3 1.2-.6.3-.4.4-.9.3-1.5l-1.8.3v-.6l2.4-.4.5 2.9h-.5l-.3-.6-.6.7c-.3.2-.7.4-1.2.4a2.5 2.5 0 01-1.8-.3 3 3 0 01-1.2-2 3 3 0 01.4-2.3c.4-.6 1-1 1.8-1m-25.8 7.8c-.4.6-.5 1.2-.5 2s.3 1.5.8 2 1.2.7 2 .7c1 0 1.7-.4 2.2-1 .4-.6.6-1.3.5-2.2a3 3 0 00-.7-1.8c-.5-.6-1.2-.8-2.2-.8-1 0-1.7.4-2.1 1.1m.9 3.5c-.4-.4-.6-1-.6-1.5 0-.8.1-1.4.5-1.8.3-.4.8-.6 1.4-.6.6 0 1 .1 1.4.5.4.4.6.9.6 1.5a3 3 0 01-.3 1.6c-.3.5-.8.8-1.5.8s-1.2-.1-1.5-.5m-5.9 1.1v-2.3h1.8l.7.1c.3.1.4.4.4.7v1.4l.1.2h1v-.1a.5.5 0 01-.3-.4 1.9 1.9 0 010-.4v-.8l-.2-.7a1 1 0 00-.5-.3l.6-.5.2-.8c0-.7-.3-1-.8-1.3l-1-.2h-2.7v5.4h.7m0-4.8h2l.6.1c.2.2.4.4.4.8s-.1.6-.3.8l-.9.2h-1.8v-2m0 0l2 .1m-2 0h2m-2 0h2m-2 0h2m-7.5 4.6l.2-2.4 1.8.2c.5 0 1-.1 1.2-.4.3-.3.5-.7.5-1.1 0-.5 0-1-.4-1.2-.2-.3-.6-.5-1.1-.5l-2.6-.2-.3 5.5h.7m2.6-3c-.2.2-.5.2-.9.2H69l.1-2 1.6.1c.3 0 .5 0 .6.2.3.1.5.4.5.8s-.2.6-.4.8" fill="#012a86"/></g></g><g clip-path="url(#an)"><g clip-path="url(#ao)"><path d="M46 102.9c.7-1.6 6.7-5.8 26.3-4 0 0 3.3 2 5.3 1.8 1-.1-.7 0-2.1-1.1-1.5-1.2-1.8-3.7 1.6-3.6 3.3 0 16 .8 16.2 1.9.2 1.1-6.7 1.6-9.3 1.6-2.5-.1-2.2 1.2.3 1 8-.2 16.7-3 26 3.5 1 .8-2.8 1-5.8-.3 0 0-8.1.4-11.7-.2 0 0-2.7 2.2-6.2 2 .5 1.1-1.3 5.4-12.4 2.2-1.8.5-8.4 1.7-7.7-.3-1.8 0-4.8.5-5.3-.5-.4-1 5.4-2.4 6.4-3.5 0 0-12.3.1-14.7-.7 0 0-7.3 1.6-6.9.2" fill="#bb705f"/></g></g><g clip-path="url(#ap)"><g clip-path="url(#aq)"><path d="M50 120.2c.3-.3.4-1 1-1 1.2.4 2 2.6 3.5 1.2.5-.1.7.6 1.2.7.3 1.2 1.3-.3 2-.2 1.6-.7 3.6-.9 5.5-.5 0 1.2-1 2.5-2.1 3.2 0 1.3 1.1 2 1.1 3.3-.2.5 0 1.2-.7 1.3-1-.1-1.8-.2-2.5-.7-.1-.1-.2-.3-.4-.2 0 .4.6.8.8 1.2-.4.8-1.1 0-1.8.1-.2.4 0 1-.4 1.3-.8 0-1-1-1.5-1.3-.5.5.4.8.5 1.2-.3 1.7-.3 3.2-1.9 4.3l-1 .5c-.3-.8-.2-2-.4-2.9-.6 1-1 2-2 2.9-1.1-.4-1.8-1.7-2-2.8-.5-1.2-.2-2.7.8-3.6-.3-.7-1.5-.5-1.7-1.4-1.7-1.2-2.6 2-3.7.3a5 5 0 011.1-4.5c-.2-.6-1-.4-1.5-.8-1-.9-2.7-1.9-2.6-3.5 3-1.1 6.5-.3 8.7 2" fill="#00872f"/></g></g><g clip-path="url(#ar)"><g clip-path="url(#as)"><path d="M50.6 123.2c.3.4 0 1 .3 1.5.6-1.2 1.2.2 2 0 .2.4 0 .7 0 1-.8.3-1.9.5-2.7-.2l-.2.3c.5.4 1 .9.5 1.6-.6.2-1.6.2-2-.5-.1-.6.4-1-.2-1.4-.4.5-.4 1.3-1.3.8-.6-.4-.7-1-.4-1.5.5-1 1.6 0 2.2-.5.1-.8-.2-1.5.5-1.9.7-.1 1 .4 1.3.8m4.6-2c0 .3-.1.6.2.8.5-.2 1 0 1.2.4 0 .2 0 .5-.3.7l-.6-.2-.3-.3c-.3-.1-.5.1-.7.3.2.2.5.4.5.7-.5.4-.7-.3-1.1-.1-.3-.2.1-.8-.4-1-.6 0-.2 1-.9.6-.3-.3-.5-.7-.2-1a1 1 0 011 0c.5-.4.5-2.3 1.6-1m-3.7-1c0 1.3 1 .3 1.7 1.2-.6-.3-1 1-1.6.3l-.3.3c.2.5.6.5.2 1-.6.3-.8-.5-1-.8-.1-.1 0-.4-.2-.5-.3.3-.7.4-1.2.4-.1-.3-.4-.6-.1-.8.5-.7 1.2.2 1.6-.3 0-.3-.3-.8.1-1 .3 0 .7-.2.8.2" fill="#f8d90f"/></g></g><g clip-path="url(#at)"><g clip-path="url(#au)"><path d="M56.3 125.1c-.7.2-.6-.7-1-1l.3-.3c.3.3.5 1 .7 1.3m-3.2-1.5c-.3 1.4-1.3 0-1.8 0 .7-1.2 1 .3 1.8 0" fill="#fff"/></g></g><g clip-path="url(#av)"><g clip-path="url(#aw)"><path d="M55.4 124.9c.2.4-.5.8 0 1.1l.6-.4c.4.1 1 .2 1.3.7.4 1-.6 1-1.2 1.3h-.5c0-.3-.3-.5-.4-.7a.5.5 0 00-.6.3c.1.6.9 1.1 0 1.7-.6 0-1.6.2-1.6-.7-.2-.6.7-1.4-.3-1.4-.3.7-.7 1.4-1.5.7v-1c.9 0 1.9.2 2.2-.8.3-.6-.4-1.2.2-1.8.8-.2 1.3.4 1.8 1" fill="#f8d90f"/></g></g><g clip-path="url(#ax)"><g clip-path="url(#ay)"><path d="M54.7 126.4c.3.5-.3.5-.6.8a1 1 0 01-.8-.4c-.2-.6.3-.7.6-1 .4 0 .6.4.8.6"/></g></g><g clip-path="url(#az)"><g clip-path="url(#aA)"><path d="M54.3 126.7l-.4.1-.1-.6c.2 0 .6.1.5.5" fill="#fff"/></g></g></svg>