<svg xmlns="http://www.w3.org/2000/svg" width="400" height="400" viewBox="0 0 300 300"><defs><clipPath id="a"><path d="M150 0a150 150 0 100 300 150 150 0 000-300zm0 0"/></clipPath><clipPath id="b"><path d="M0 53h300v194H0zm0 0"/></clipPath><clipPath id="c"><path d="M150 0a150 150 0 100 300 150 150 0 000-300zm0 0"/></clipPath><clipPath id="d"><path d="M0 75h300v150H0zm0 0"/></clipPath><clipPath id="e"><path d="M150 0a150 150 0 100 300 150 150 0 000-300zm0 0"/></clipPath><clipPath id="f"><path d="M0 146h300v8H0zm0 0"/></clipPath><clipPath id="g"><path d="M150 0a150 150 0 100 300 150 150 0 000-300zm0 0"/></clipPath><clipPath id="h"><path d="M0 141h300v18H0zm0 0"/></clipPath><clipPath id="i"><path d="M150 0a150 150 0 100 300 150 150 0 000-300zm0 0"/></clipPath><clipPath id="j"><path d="M276 115h24v14h-24zm0 0"/></clipPath><clipPath id="k"><path d="M150 0a150 150 0 100 300 150 150 0 000-300zm0 0"/></clipPath><clipPath id="l"><path d="M259 99h41v47h-41zm0 0"/></clipPath><clipPath id="m"><path d="M150 0a150 150 0 100 300 150 150 0 000-300zm0 0"/></clipPath><clipPath id="n"><path d="M17 120h268v5H17zm0 0"/></clipPath><clipPath id="o"><path d="M150 0a150 150 0 100 300 150 150 0 000-300zm0 0"/></clipPath><clipPath id="p"><path d="M11 114h280v16H11zm0 0"/></clipPath><clipPath id="q"><path d="M150 0a150 150 0 100 300 150 150 0 000-300zm0 0"/></clipPath><clipPath id="r"><path d="M267 109h25v26h-25zm0 0"/></clipPath><clipPath id="s"><path d="M150 0a150 150 0 100 300 150 150 0 000-300zm0 0"/></clipPath><clipPath id="t"><path d="M265 109h25v26h-25zm0 0"/></clipPath><clipPath id="u"><path d="M150 0a150 150 0 100 300 150 150 0 000-300zm0 0"/></clipPath><clipPath id="v"><path d="M263 109h25v26h-25zm0 0"/></clipPath><clipPath id="w"><path d="M150 0a150 150 0 100 300 150 150 0 000-300zm0 0"/></clipPath><clipPath id="x"><path d="M259 128h37v14h-37zm0 0"/></clipPath><clipPath id="y"><path d="M150 0a150 150 0 100 300 150 150 0 000-300zm0 0"/></clipPath><clipPath id="z"><path d="M242 111h58v48h-58zm0 0"/></clipPath><clipPath id="A"><path d="M150 0a150 150 0 100 300 150 150 0 000-300zm0 0"/></clipPath><clipPath id="B"><path d="M0 132h268v6H0zm0 0"/></clipPath><clipPath id="C"><path d="M150 0a150 150 0 100 300 150 150 0 000-300zm0 0"/></clipPath><clipPath id="D"><path d="M0 127h274v16H0zm0 0"/></clipPath><clipPath id="E"><path d="M150 0a150 150 0 100 300 150 150 0 000-300zm0 0"/></clipPath><clipPath id="F"><path d="M250 122h25v26h-25zm0 0"/></clipPath><clipPath id="G"><path d="M150 0a150 150 0 100 300 150 150 0 000-300zm0 0"/></clipPath><clipPath id="H"><path d="M248 122h25v26h-25zm0 0"/></clipPath><clipPath id="I"><path d="M150 0a150 150 0 100 300 150 150 0 000-300zm0 0"/></clipPath><clipPath id="J"><path d="M246 122h24v26h-24zm0 0"/></clipPath><clipPath id="K"><path d="M150 0a150 150 0 100 300 150 150 0 000-300zm0 0"/></clipPath><clipPath id="L"><path d="M291 147h9v43h-9zm0 0"/></clipPath><clipPath id="M"><path d="M150 0a150 150 0 100 300 150 150 0 000-300zm0 0"/></clipPath><clipPath id="N"><path d="M286 143h14v52h-14zm0 0"/></clipPath><clipPath id="O"><path d="M150 0a150 150 0 100 300 150 150 0 000-300zm0 0"/></clipPath><clipPath id="P"><path d="M296 164h4v12h-4zm0 0"/></clipPath><clipPath id="Q"><path d="M150 0a150 150 0 100 300 150 150 0 000-300zm0 0"/></clipPath><clipPath id="R"><path d="M0 148h10v40H0zm0 0"/></clipPath><clipPath id="S"><path d="M150 0a150 150 0 100 300 150 150 0 000-300zm0 0"/></clipPath><clipPath id="T"><path d="M0 144h15v48H0zm0 0"/></clipPath><clipPath id="U"><path d="M150 0a150 150 0 100 300 150 150 0 000-300zm0 0"/></clipPath><clipPath id="V"><path d="M0 155h4v10H0zm0 0"/></clipPath><clipPath id="W"><path d="M150 0a150 150 0 100 300 150 150 0 000-300zm0 0"/></clipPath><clipPath id="X"><path d="M0 165h3v10H0zm0 0"/></clipPath><clipPath id="Y"><path d="M150 0a150 150 0 100 300 150 150 0 000-300zm0 0"/></clipPath><clipPath id="Z"><path d="M42 85h216v130H42zm0 0"/></clipPath><clipPath id="aa"><path d="M150 0a150 150 0 100 300 150 150 0 000-300zm0 0"/></clipPath><clipPath id="ab"><path d="M34 77h232v146H34zm0 0"/></clipPath><clipPath id="ac"><path d="M150 0a150 150 0 100 300 150 150 0 000-300zm0 0"/></clipPath><clipPath id="ad"><path d="M42 85h131v130H42zm0 0"/></clipPath><clipPath id="ae"><path d="M150 0a150 150 0 100 300 150 150 0 000-300zm0 0"/></clipPath><clipPath id="af"><path d="M82 127h7v18h-7zm0 0"/></clipPath><clipPath id="ag"><path d="M150 0a150 150 0 100 300 150 150 0 000-300zm0 0"/></clipPath><clipPath id="ah"><path d="M82 155h7v18h-7zm0 0"/></clipPath><clipPath id="ai"><path d="M150 0a150 150 0 100 300 150 150 0 000-300zm0 0"/></clipPath><clipPath id="aj"><path d="M93 127h6v18h-6zm0 0"/></clipPath><clipPath id="ak"><path d="M150 0a150 150 0 100 300 150 150 0 000-300zm0 0"/></clipPath><clipPath id="al"><path d="M93 155h6v18h-6zm0 0"/></clipPath><clipPath id="am"><path d="M150 0a150 150 0 100 300 150 150 0 000-300zm0 0"/></clipPath><clipPath id="an"><path d="M103 127h6v18h-6zm0 0"/></clipPath><clipPath id="ao"><path d="M150 0a150 150 0 100 300 150 150 0 000-300zm0 0"/></clipPath><clipPath id="ap"><path d="M103 155h6v18h-6zm0 0"/></clipPath><clipPath id="aq"><path d="M150 0a150 150 0 100 300 150 150 0 000-300zm0 0"/></clipPath><clipPath id="ar"><path d="M114 127h6v18h-6zm0 0"/></clipPath><clipPath id="as"><path d="M150 0a150 150 0 100 300 150 150 0 000-300zm0 0"/></clipPath><clipPath id="at"><path d="M114 155h6v18h-6zm0 0"/></clipPath><clipPath id="au"><path d="M150 0a150 150 0 100 300 150 150 0 000-300zm0 0"/></clipPath><clipPath id="av"><path d="M124 127h6v18h-6zm0 0"/></clipPath><clipPath id="aw"><path d="M150 0a150 150 0 100 300 150 150 0 000-300zm0 0"/></clipPath><clipPath id="ax"><path d="M124 155h6v18h-6zm0 0"/></clipPath><clipPath id="ay"><path d="M150 0a150 150 0 100 300 150 150 0 000-300zm0 0"/></clipPath><clipPath id="az"><path d="M134 127h6v18h-6zm0 0"/></clipPath><clipPath id="aA"><path d="M150 0a150 150 0 100 300 150 150 0 000-300zm0 0"/></clipPath><clipPath id="aB"><path d="M134 155h6v18h-6zm0 0"/></clipPath><clipPath id="aC"><path d="M150 0a150 150 0 100 300 150 150 0 000-300zm0 0"/></clipPath><clipPath id="aD"><path d="M161 127h6v18h-6zm0 0"/></clipPath><clipPath id="aE"><path d="M150 0a150 150 0 100 300 150 150 0 000-300zm0 0"/></clipPath><clipPath id="aF"><path d="M161 155h6v18h-6zm0 0"/></clipPath><clipPath id="aG"><path d="M150 0a150 150 0 100 300 150 150 0 000-300zm0 0"/></clipPath><clipPath id="aH"><path d="M171 127h7v18h-7zm0 0"/></clipPath><clipPath id="aI"><path d="M150 0a150 150 0 100 300 150 150 0 000-300zm0 0"/></clipPath><clipPath id="aJ"><path d="M171 155h7v18h-7zm0 0"/></clipPath><clipPath id="aK"><path d="M150 0a150 150 0 100 300 150 150 0 000-300zm0 0"/></clipPath><clipPath id="aL"><path d="M182 127h6v18h-6zm0 0"/></clipPath><clipPath id="aM"><path d="M150 0a150 150 0 100 300 150 150 0 000-300zm0 0"/></clipPath><clipPath id="aN"><path d="M182 155h6v18h-6zm0 0"/></clipPath><clipPath id="aO"><path d="M150 0a150 150 0 100 300 150 150 0 000-300zm0 0"/></clipPath><clipPath id="aP"><path d="M192 127h6v18h-6zm0 0"/></clipPath><clipPath id="aQ"><path d="M150 0a150 150 0 100 300 150 150 0 000-300zm0 0"/></clipPath><clipPath id="aR"><path d="M192 155h6v18h-6zm0 0"/></clipPath><clipPath id="aS"><path d="M150 0a150 150 0 100 300 150 150 0 000-300zm0 0"/></clipPath><clipPath id="aT"><path d="M202 127h7v18h-7zm0 0"/></clipPath><clipPath id="aU"><path d="M150 0a150 150 0 100 300 150 150 0 000-300zm0 0"/></clipPath><clipPath id="aV"><path d="M202 155h7v18h-7zm0 0"/></clipPath><clipPath id="aW"><path d="M150 0a150 150 0 100 300 150 150 0 000-300zm0 0"/></clipPath><clipPath id="aX"><path d="M213 127h6v18h-6zm0 0"/></clipPath><clipPath id="aY"><path d="M150 0a150 150 0 100 300 150 150 0 000-300zm0 0"/></clipPath><clipPath id="aZ"><path d="M213 155h6v18h-6zm0 0"/></clipPath><clipPath id="ba"><path d="M150 0a150 150 0 100 300 150 150 0 000-300zm0 0"/></clipPath><clipPath id="bb"><path d="M99 97h41v43H99zm0 0"/></clipPath><clipPath id="bc"><path d="M150 0a150 150 0 100 300 150 150 0 000-300zm0 0"/></clipPath><clipPath id="bd"><path d="M95 92h49v52H95zm0 0"/></clipPath><clipPath id="be"><path d="M150 0a150 150 0 100 300 150 150 0 000-300zm0 0"/></clipPath><clipPath id="bf"><path d="M108 109h5v17h-5zm0 0"/></clipPath><clipPath id="bg"><path d="M150 0a150 150 0 100 300 150 150 0 000-300zm0 0"/></clipPath><clipPath id="bh"><path d="M115 118h4v15h-4zm0 0"/></clipPath><clipPath id="bi"><path d="M150 0a150 150 0 100 300 150 150 0 000-300zm0 0"/></clipPath><clipPath id="bj"><path d="M121 127h9v12h-9zm0 0"/></clipPath><clipPath id="bk"><path d="M150 0a150 150 0 100 300 150 150 0 000-300zm0 0"/></clipPath><clipPath id="bl"><path d="M118 105h16v8h-16zm0 0"/></clipPath><clipPath id="bm"><path d="M150 0a150 150 0 100 300 150 150 0 000-300zm0 0"/></clipPath><clipPath id="bn"><path d="M123 115h13v9h-13zm0 0"/></clipPath><clipPath id="bo"><path d="M150 0a150 150 0 100 300 150 150 0 000-300zm0 0"/></clipPath></defs><g clip-path="url(#a)"><path fill="#3d5eb8" d="M0 0h300v300H0z"/></g><g clip-path="url(#b)"><g clip-path="url(#c)"><path d="M-75 246.4h450V53.6H-75zm0 0" fill="#ffd900"/></g></g><g clip-path="url(#d)"><g clip-path="url(#e)"><path d="M-75 225h450V75H-75zm0 0" fill="#b00b0b"/></g></g><g clip-path="url(#f)"><g clip-path="url(#g)"><path d="M-27 146.8h358c1.7 0 3.1 1.4 3.1 3.2 0 1.8-1.4 3.2-3.1 3.2H-27A3.2 3.2 0 01-30 150c0-1.8 1.4-3.2 3.1-3.2" fill="#ffd900"/></g></g><g clip-path="url(#h)"><g clip-path="url(#i)"><path d="M-27 146.8h358c1.7 0 3.1 1.4 3.1 3.2 0 1.8-1.4 3.2-3.1 3.2H-27A3.2 3.2 0 01-30 150c0-1.8 1.4-3.2 3.1-3.2zm0 0" fill="none" stroke="#000"/></g></g><g clip-path="url(#j)"><g clip-path="url(#k)"><path d="M294.6 115.7l-18.2 6.4 18.2 6.5L313 122zm0 0" fill="#fff"/></g></g><g clip-path="url(#l)"><g clip-path="url(#m)"><path d="M294.6 115.7l-18.2 6.4 18.2 6.5L313 122zm0 0" fill="none" stroke-width="2.9" stroke="#000"/></g></g><g clip-path="url(#n)"><g clip-path="url(#o)"><path d="M19.5 120h263.2c1.3 0 2.3 1 2.3 2.1 0 1.2-1 2.2-2.3 2.2H19.5c-1.3 0-2.4-1-2.4-2.2 0-1.1 1-2.1 2.4-2.1" fill="#ffd900"/></g></g><g clip-path="url(#p)"><g clip-path="url(#q)"><path d="M19.5 120h263.2c1.3 0 2.3 1 2.3 2.1 0 1.2-1 2.2-2.3 2.2H19.5c-1.3 0-2.4-1-2.4-2.2 0-1.1 1-2.1 2.4-2.1zm0 0" fill="none" stroke-width=".9" stroke="#000"/></g></g><g clip-path="url(#r)"><g clip-path="url(#s)"><path d="M278.6 124.3c1 0 2.1-1 2.1-2.2s-1-2.1-2.1-2.1" fill="none" stroke-width="1.9" stroke="#000"/></g></g><g clip-path="url(#t)"><g clip-path="url(#u)"><path d="M276.4 124.3c1.1 0 2.2-1 2.2-2.2s-1-2.1-2.2-2.1" fill="none" stroke-width="1.9" stroke="#000"/></g></g><g clip-path="url(#v)"><g clip-path="url(#w)"><path d="M274.3 124.3c1 0 2.1-1 2.1-2.2s-1-2.1-2.1-2.1" fill="none" stroke-width="1.9" stroke="#000"/></g></g><g clip-path="url(#x)"><g clip-path="url(#y)"><path d="M277.5 128.6l-18.2 6.4 18.2 6.4 18.2-6.4zm0 0" fill="#fff"/></g></g><g clip-path="url(#z)"><g clip-path="url(#A)"><path d="M277.5 128.6l-18.2 6.4 18.2 6.4 18.2-6.4zm0 0" fill="none" stroke-width="2.9" stroke="#000"/></g></g><g clip-path="url(#B)"><g clip-path="url(#C)"><path d="M2.3 132.9h263.2c1.3 0 2.4 1 2.4 2.1 0 1.2-1 2.1-2.4 2.1H2.3c-1.3 0-2.3-1-2.3-2.1 0-1.2 1-2.1 2.3-2.1" fill="#ffd900"/></g></g><g clip-path="url(#D)"><g clip-path="url(#E)"><path d="M2.3 132.9h263.2c1.3 0 2.4 1 2.4 2.1 0 1.2-1 2.1-2.4 2.1H2.3c-1.3 0-2.3-1-2.3-2.1 0-1.2 1-2.1 2.3-2.1zm0 0" fill="none" stroke-width=".9" stroke="#000"/></g></g><g clip-path="url(#F)"><g clip-path="url(#G)"><path d="M261.4 137.1c1.1 0 2.2-1 2.2-2.1 0-1-1-2.1-2.2-2.1" fill="none" stroke-width="1.9" stroke="#000"/></g></g><g clip-path="url(#H)"><g clip-path="url(#I)"><path d="M259.3 137.1c1 0 2.1-1 2.1-2.1 0-1-1-2.1-2.1-2.1" fill="none" stroke-width="1.9" stroke="#000"/></g></g><g clip-path="url(#J)"><g clip-path="url(#K)"><path d="M257.2 137.1c1 0 2.1-1 2.1-2.1 0-1-1-2.1-2.1-2.1" fill="none" stroke-width="1.9" stroke="#000"/></g></g><g clip-path="url(#L)"><g clip-path="url(#M)"><path d="M308.5 147.4c-3.2 5.7 2.5-1.8 16.5 7.6 2.6 1.7 4.9 6.4 4.9 9.6-.7-.5-1.2-1.5-1.9-2.1-1 1 1 5.7 1.3 7.9-2.2-1.2-2-1.8-2.7-3.3.1 1.8-.4 6.8.4 8.7-1.7-.5-1.6-1.8-2.5-2.1.6 2.2-.5 4.5-.2 7l-2.5-2.2c-.1 1.2-2 4.3-2 5.4-.9-.6-1.1-1.4-1.3-1.9-1 1.3-4.8 6.3-5 7.8-3-2.6-10.4-8.9-11.4-12.2-.8 1.9-2 2.5-4.5 4-1-5.4-4.6-11.3-2.7-15.8-1.4.8-2.5 1.6-3.9 2.6 1.3-7.6 8-16.5 17.5-21" fill="#3c5da7"/></g></g><g clip-path="url(#N)"><g clip-path="url(#O)"><path d="M308.5 147.4c-3.2 5.7 2.5-1.8 16.5 7.6 2.6 1.7 4.9 6.4 4.9 9.6-.7-.5-1.2-1.5-1.9-2.1-1 1 1 5.7 1.3 7.9-2.2-1.2-2-1.8-2.7-3.3.1 1.8-.4 6.8.4 8.7-1.7-.5-1.6-1.8-2.5-2.1.6 2.2-.5 4.5-.2 7l-2.5-2.2c-.1 1.2-2 4.3-2 5.4-.9-.6-1.1-1.4-1.3-1.9-1 1.3-4.8 6.3-5 7.8-3-2.6-10.4-8.9-11.4-12.2-.8 1.9-2 2.5-4.5 4-1-5.4-4.6-11.3-2.7-15.8-1.4.8-2.5 1.6-3.9 2.6 1.3-7.6 8-16.5 17.5-21zm0 0" fill="none" stroke-width=".8" stroke="#000"/></g></g><g clip-path="url(#P)"><g clip-path="url(#Q)"><path d="M296.4 175.3c1.4-2.7 2.6-3.6 3.5-5.3 1.5-3 1.7-5.5 3-5.1 1.4.3 1.4 1.6-.3 4.6-1.8 3-2.6 3.6-6.2 5.8" fill="#a70000"/></g></g><g clip-path="url(#R)"><g clip-path="url(#S)"><path d="M-14.4 152.9c-.2-1.7.2-1.9-.8-3.1 1.4.6 1.5 2.2 3.3 1 .6-.3.9-.3.1-2 1.9 0 8 2 9 2.1 2.5.2 7.2-2.7 10.4.8 3.1 3.1 2 6.4 2 10.8-1.2-.6-.6-1-1.9-2.5 1 3.8 0 10.7 0 14.7-.6-1-.5-.5-1-1.5-1.3 3.7-3 4.4-3 8.8-.4-1.7 0-1.4-.5-2.3-1.2 2.8-9.9 5.2-6.6 8-3-1.7-4.3-1.5-5.7-3.1-.6.4-1 1-1.6 2-5.3-2.4-3.4-7.6-7.5-11.1-.7 1.4-.4 1.2-1.2 3.6-.8-3.3-1-5.4-2-7.9-.8 1.4-.7.9-2.2 3-.6-4.1-1.6-5-1.2-7.8-1.6 1.1-.6.7-2.1 2 1.4-10.3 7.9-18 12.5-15.5" fill="#3c5da7"/></g></g><g clip-path="url(#T)"><g clip-path="url(#U)"><path d="M-14.4 152.9c-.2-1.7.2-1.9-.8-3.1 1.4.6 1.5 2.2 3.3 1 .6-.3.9-.3.1-2 1.9 0 8 2 9 2.1 2.5.2 7.2-2.7 10.4.8 3.1 3.1 2 6.4 2 10.8-1.2-.6-.6-1-1.9-2.5 1 3.8 0 10.7 0 14.7-.6-1-.5-.5-1-1.5-1.3 3.7-3 4.4-3 8.8-.4-1.7 0-1.4-.5-2.3-1.2 2.8-9.9 5.2-6.6 8-3-1.7-4.3-1.5-5.7-3.1-.6.4-1 1-1.6 2-5.3-2.4-3.4-7.6-7.5-11.1-.7 1.4-.4 1.2-1.2 3.6-.8-3.3-1-5.4-2-7.9-.8 1.4-.7.9-2.2 3-.6-4.1-1.6-5-1.2-7.8-1.6 1.1-.6.7-2.1 2 1.4-10.3 7.9-18 12.5-15.5zm0 0" fill="none" stroke-width=".8" stroke="#000"/></g></g><g clip-path="url(#V)"><g clip-path="url(#W)"><path d="M3.7 165c-2.6-2.5-4-3-5.7-4.6-3-2.9-4.3-5.6-5.3-4.6s-.4 2.4 2.6 5c3 2.8 4 3.2 8.4 4.2" fill="#a70000"/></g></g><g clip-path="url(#X)"><g clip-path="url(#Y)"><path d="M2.1 174.8c-1.6-2.6-2.8-3.2-3.9-4.9-1.9-2.8-2.5-5.3-3.6-4.7-1 .6-.8 1.9 1.2 4.7 2 2.8 2.9 3.3 6.3 4.8" fill="#a70000"/></g></g><g clip-path="url(#Z)"><g clip-path="url(#aa)"><path d="M257.1 150c-21.4 21.4-50 64.3-107.1 64.3-50 0-85.7-42.9-107.1-64.3C64.3 128.6 100 85.7 150 85.7c57.1 0 85.7 42.9 107.1 64.3" fill="#fff"/></g></g><g clip-path="url(#ab)"><g clip-path="url(#ac)"><path d="M257.1 150c-21.4 21.4-50 64.3-107.1 64.3-50 0-85.7-42.9-107.1-64.3C64.3 128.6 100 85.7 150 85.7c57.1 0 85.7 42.9 107.1 64.3zm0 0" fill="none" stroke-width="1.5" stroke="#000"/></g></g><g clip-path="url(#ad)"><g clip-path="url(#ae)"><path d="M142.5 108c5.7 6.5 1 9 7 9.5 6.4.5 2.8 6.8 8.1 7 3.7.2-.4 15.1 3.2 20 3.7 5.2 6.8 1.5 6.8 5.3.1 3.8-10 3.4-10.1 15.3-.3 6.8-8.5 7.2-8.9 11.6-.5 4.1 16.1 6.4 16 10.1-.3 3.7-18 3.1-18.8 7.4-.4 3.7 24.3 6.8 26.3 17.7a98.7 98.7 0 01-22.1 2.4c-50 0-85.7-42.9-107.1-64.3C64.3 128.6 100 85.7 150 85.7c0 0-14.8 13.6-7.5 22.4"/></g></g><g clip-path="url(#af)"><g clip-path="url(#ag)"><path d="M82.9 144.3H88V127h-5.2zm0 0" fill="#fff"/></g></g><g clip-path="url(#ah)"><g clip-path="url(#ai)"><path d="M82.9 172.9H88v-17.2h-5.2zm0 0" fill="#fff"/></g></g><g clip-path="url(#aj)"><g clip-path="url(#ak)"><path d="M93.2 144.3h5.2V127h-5.2zm0 0" fill="#fff"/></g></g><g clip-path="url(#al)"><g clip-path="url(#am)"><path d="M93.2 172.9h5.2v-17.2h-5.2zm0 0" fill="#fff"/></g></g><g clip-path="url(#an)"><g clip-path="url(#ao)"><path d="M103.6 144.3h5.2V127h-5.2zm0 0" fill="#fff"/></g></g><g clip-path="url(#ap)"><g clip-path="url(#aq)"><path d="M103.6 172.9h5.2v-17.2h-5.2zm0 0" fill="#fff"/></g></g><g clip-path="url(#ar)"><g clip-path="url(#as)"><path d="M114 144.3h5.2V127H114zm0 0" fill="#fff"/></g></g><g clip-path="url(#at)"><g clip-path="url(#au)"><path d="M114 172.9h5.2v-17.2H114zm0 0" fill="#fff"/></g></g><g clip-path="url(#av)"><g clip-path="url(#aw)"><path d="M124.4 144.3h5.2V127h-5.2zm0 0" fill="#fff"/></g></g><g clip-path="url(#ax)"><g clip-path="url(#ay)"><path d="M124.4 172.9h5.2v-17.2h-5.2zm0 0" fill="#fff"/></g></g><g clip-path="url(#az)"><g clip-path="url(#aA)"><path d="M134.8 144.3h5.2V127h-5.2zm0 0" fill="#fff"/></g></g><g clip-path="url(#aB)"><g clip-path="url(#aC)"><path d="M134.8 172.9h5.2v-17.2h-5.2zm0 0" fill="#fff"/></g></g><g clip-path="url(#aD)"><g clip-path="url(#aE)"><path d="M161.4 144.3h5.2V127h-5.2zm0 0"/></g></g><g clip-path="url(#aF)"><g clip-path="url(#aG)"><path d="M161.4 172.9h5.2v-17.2h-5.2zm0 0"/></g></g><g clip-path="url(#aH)"><g clip-path="url(#aI)"><path d="M171.8 144.3h5.2V127h-5.2zm0 0"/></g></g><g clip-path="url(#aJ)"><g clip-path="url(#aK)"><path d="M171.8 172.9h5.2v-17.2h-5.2zm0 0"/></g></g><g clip-path="url(#aL)"><g clip-path="url(#aM)"><path d="M182.2 144.3h5.2V127h-5.2zm0 0"/></g></g><g clip-path="url(#aN)"><g clip-path="url(#aO)"><path d="M182.2 172.9h5.2v-17.2h-5.2zm0 0"/></g></g><g clip-path="url(#aP)"><g clip-path="url(#aQ)"><path d="M192.6 144.3h5.2V127h-5.2zm0 0"/></g></g><g clip-path="url(#aR)"><g clip-path="url(#aS)"><path d="M192.6 172.9h5.2v-17.2h-5.2zm0 0"/></g></g><g clip-path="url(#aT)"><g clip-path="url(#aU)"><path d="M203 144.3h5.2V127H203zm0 0"/></g></g><g clip-path="url(#aV)"><g clip-path="url(#aW)"><path d="M203 172.9h5.2v-17.2H203zm0 0"/></g></g><g clip-path="url(#aX)"><g clip-path="url(#aY)"><path d="M213.4 144.3h5.2V127h-5.2zm0 0"/></g></g><g clip-path="url(#aZ)"><g clip-path="url(#ba)"><path d="M213.4 172.9h5.2v-17.2h-5.2zm0 0"/></g></g><g clip-path="url(#bb)"><g clip-path="url(#bc)"><path d="M115.4 97.1c-3 5.8 5.2-1.9 18 7.7 2.3 1.8 5.7 8.9 5.7 12.1-2.7-.5-7.5-3.2-7.5-3.2s5.6 5.6 5.6 12.2c-2-1.3-3-1-3.6-2.6 0 2.1 1.7 3.4 1.7 6.7a26.8 26.8 0 00-3.8-2.6c1.8 3.3-3.5 9.6-.8 11.8-4.7-.7-9.4-3.7-11.3-7-1 .7-1.1 1.8-1.2 2.9.2.1-7-5.4-6.4-7.5a6.7 6.7 0 00-1.4 3.6 19.8 19.8 0 01-6-8.6l-2.4 3c-.9-5.3-.9-5.1 1-9.7a44 44 0 00-3.6 2.7c1.2-7.8 7.2-17 16-21.5" fill="#3c5da7"/></g></g><g clip-path="url(#bd)"><g clip-path="url(#be)"><path d="M115.4 97.1c-3 5.8 5.2-1.9 18 7.7 2.3 1.8 5.7 8.9 5.7 12.1-2.7-.5-7.5-3.2-7.5-3.2s5.6 5.6 5.6 12.2c-2-1.3-3-1-3.6-2.6 0 2.1 1.7 3.4 1.7 6.7a26.8 26.8 0 00-3.8-2.6c1.8 3.3-3.5 9.6-.8 11.8-4.7-.7-9.4-3.7-11.3-7-1 .7-1.1 1.8-1.2 2.9.2.1-7-5.4-6.4-7.5a6.7 6.7 0 00-1.4 3.6 19.8 19.8 0 01-6-8.6l-2.4 3c-.9-5.3-.9-5.1 1-9.7a44 44 0 00-3.6 2.7c1.2-7.8 7.2-17 16-21.5zm0 0" fill="none" stroke-width=".8" stroke="#000"/></g></g><g clip-path="url(#bf)"><g clip-path="url(#bg)"><path d="M108 125.2c.5-4 1.5-5.5 1.9-8 .5-4.5-.2-7.8 1.4-7.7 1.6 0 2 1.7 1.3 6.2-.8 4.5-1.5 5.6-4.6 9.5" fill="#a70000"/></g></g><g clip-path="url(#bh)"><g clip-path="url(#bi)"><path d="M116.3 132.4c-.3-3.3.3-4.7.1-6.9-.3-3.8-1.5-6.3-.1-6.6 1.4-.2 2 1 2.2 4.9.2 3.8-.2 4.8-2.2 8.6" fill="#a70000"/></g></g><g clip-path="url(#bj)"><g clip-path="url(#bk)"><path d="M129.3 138.3c-1.4-2.9-2.7-3.7-3.6-5.6-1.6-3.2-1.9-6-3.1-5.4-1.3.5-1.2 1.8.6 5 1.8 3.2 2.6 3.9 6 6" fill="#a70000"/></g></g><g clip-path="url(#bl)"><g clip-path="url(#bm)"><path d="M133.7 112.5c-3.6-2-5.4-2-7.7-3.2-4-2-6.4-4.5-7.3-3.2-.8 1.4.3 2.7 4.5 4.6 4.2 2 5.5 2 10.5 1.8" fill="#a70000"/></g></g><g clip-path="url(#bn)"><g clip-path="url(#bo)"><path d="M135 123.3c-2.6-2.2-4.1-2.5-5.8-4-3-2.4-4.4-4.8-5.4-3.8s-.3 2.3 2.8 4.6c3 2.3 4.1 2.6 8.4 3.2" fill="#a70000"/></g></g></svg>