<svg xmlns="http://www.w3.org/2000/svg" width="400" height="400" viewBox="0 0 300 300"><defs><clipPath id="a"><path d="M150 0a150 150 0 100 300 150 150 0 000-300zm0 0"/></clipPath><clipPath id="b"><path d="M0 0h300v200H0zm0 0"/></clipPath><clipPath id="c"><path d="M150 0a150 150 0 100 300 150 150 0 000-300zm0 0"/></clipPath><clipPath id="d"><path d="M0 0h300v100H0zm0 0"/></clipPath><clipPath id="e"><path d="M150 0a150 150 0 100 300 150 150 0 000-300zm0 0"/></clipPath><clipPath id="f"><path d="M209 117h62v60h-62zm0 0"/></clipPath><clipPath id="g"><path d="M150 0a150 150 0 100 300 150 150 0 000-300zm0 0"/></clipPath><clipPath id="h"><path d="M29 117h62v60H29zm0 0"/></clipPath><clipPath id="i"><path d="M150 0a150 150 0 100 300 150 150 0 000-300zm0 0"/></clipPath></defs><g clip-path="url(#a)"><path d="M0 0h300v300H0z"/></g><g clip-path="url(#b)"><g clip-path="url(#c)"><path d="M-75 200h450V0H-75zm0 0" fill="#fff"/></g></g><g clip-path="url(#d)"><g clip-path="url(#e)"><path d="M-75 100h450V0H-75zm0 0" fill="#ce1125"/></g></g><g clip-path="url(#f)"><g clip-path="url(#g)"><path d="M209 140l19.1 13.8-7.2 22.5 19.1-13.9 19.1 13.9-7.3-22.5 19.1-13.8h-23.6l-7.3-22.5-7.3 22.5" fill="#00793c"/></g></g><g clip-path="url(#h)"><g clip-path="url(#i)"><path d="M29 140l19.1 13.8-7.2 22.5L60 162.4l19.1 13.9-7.3-22.5L91 140H67.3L60 117.5 52.7 140" fill="#00793c"/></g></g></svg>