<svg xmlns="http://www.w3.org/2000/svg" width="400" height="400" viewBox="0 0 300 300"><defs><clipPath id="a"><path d="M150 0a150 150 0 100 300 150 150 0 000-300zm0 0"/></clipPath><clipPath id="b"><path d="M0 0h225v150H0zm0 0"/></clipPath><clipPath id="c"><path d="M150 0a150 150 0 100 300 150 150 0 000-300zm0 0"/></clipPath><clipPath id="d"><path d="M84 46h57v58H84zm0 0"/></clipPath><clipPath id="e"><path d="M150 0a150 150 0 100 300 150 150 0 000-300zm0 0"/></clipPath><clipPath id="f"><path d="M105 18h15v26h-15zm0 0"/></clipPath><clipPath id="g"><path d="M150 0a150 150 0 100 300 150 150 0 000-300zm0 0"/></clipPath><clipPath id="h"><path d="M84 26h19v25H84zm0 0"/></clipPath><clipPath id="i"><path d="M150 0a150 150 0 100 300 150 150 0 000-300zm0 0"/></clipPath><clipPath id="j"><path d="M63 46h26v19H63zm0 0"/></clipPath><clipPath id="k"><path d="M150 0a150 150 0 100 300 150 150 0 000-300zm0 0"/></clipPath><clipPath id="l"><path d="M56 68h25v14H56zm0 0"/></clipPath><clipPath id="m"><path d="M150 0a150 150 0 100 300 150 150 0 000-300zm0 0"/></clipPath><clipPath id="n"><path d="M63 85h26v19H63zm0 0"/></clipPath><clipPath id="o"><path d="M150 0a150 150 0 100 300 150 150 0 000-300zm0 0"/></clipPath><clipPath id="p"><path d="M84 99h19v25H84zm0 0"/></clipPath><clipPath id="q"><path d="M150 0a150 150 0 100 300 150 150 0 000-300zm0 0"/></clipPath><clipPath id="r"><path d="M105 106h15v26h-15zm0 0"/></clipPath><clipPath id="s"><path d="M150 0a150 150 0 100 300 150 150 0 000-300zm0 0"/></clipPath><clipPath id="t"><path d="M122 98h19v26h-19zm0 0"/></clipPath><clipPath id="u"><path d="M150 0a150 150 0 100 300 150 150 0 000-300zm0 0"/></clipPath><clipPath id="v"><path d="M136 85h26v19h-26zm0 0"/></clipPath><clipPath id="w"><path d="M150 0a150 150 0 100 300 150 150 0 000-300zm0 0"/></clipPath><clipPath id="x"><path d="M143 68h26v14h-26zm0 0"/></clipPath><clipPath id="y"><path d="M150 0a150 150 0 100 300 150 150 0 000-300zm0 0"/></clipPath><clipPath id="z"><path d="M136 46h26v19h-26zm0 0"/></clipPath><clipPath id="A"><path d="M150 0a150 150 0 100 300 150 150 0 000-300zm0 0"/></clipPath><clipPath id="B"><path d="M122 26h19v25h-19zm0 0"/></clipPath><clipPath id="C"><path d="M150 0a150 150 0 100 300 150 150 0 000-300zm0 0"/></clipPath></defs><g clip-path="url(#a)"><path fill="#eb1e23" d="M0 0h300v300H0z"/></g><g clip-path="url(#b)"><g clip-path="url(#c)"><path d="M0 150h225V0H0zm0 0" fill="#2b2e83"/></g></g><g clip-path="url(#d)"><g clip-path="url(#e)"><path d="M112.5 103a28 28 0 100-56 28 28 0 000 56" fill="#fff"/></g></g><g clip-path="url(#f)"><g clip-path="url(#g)"><path d="M119 43.4L112.5 19l-6.6 24.6c3.4-.9 8.7-1 13.1 0" fill="#fff"/></g></g><g clip-path="url(#h)"><g clip-path="url(#i)"><path d="M102.4 44.4l-18-18L91 51a32 32 0 0111.4-6.6" fill="#fff"/></g></g><g clip-path="url(#j)"><g clip-path="url(#k)"><path d="M88.4 53.5L64 46.9l18 18c1-3.4 3.4-8 6.5-11.4" fill="#fff"/></g></g><g clip-path="url(#l)"><g clip-path="url(#m)"><path d="M80.9 68.4L56.3 75 81 81.6a32 32 0 010-13.2" fill="#fff"/></g></g><g clip-path="url(#n)"><g clip-path="url(#o)"><path d="M81.8 85l-18 18 24.7-6.5A32 32 0 0181.8 85" fill="#fff"/></g></g><g clip-path="url(#p)"><g clip-path="url(#q)"><path d="M91 99l-6.6 24.6 18-18A32 32 0 0191 99" fill="#fff"/></g></g><g clip-path="url(#r)"><g clip-path="url(#s)"><path d="M105.9 106.6l6.6 24.5 6.6-24.6a32 32 0 01-13.2 0" fill="#fff"/></g></g><g clip-path="url(#t)"><g clip-path="url(#u)"><path d="M122.6 105.6l18 18-6.7-24.6a32 32 0 01-11.3 6.6" fill="#fff"/></g></g><g clip-path="url(#v)"><g clip-path="url(#w)"><path d="M136.5 96.5l24.6 6.6-18-18c-1 3.4-3.5 8-6.6 11.4" fill="#fff"/></g></g><g clip-path="url(#x)"><g clip-path="url(#y)"><path d="M144 81.6l24.6-6.6-24.6-6.6a32 32 0 010 13.2" fill="#fff"/></g></g><g clip-path="url(#z)"><g clip-path="url(#A)"><path d="M143.1 64.9l18-18-24.6 6.6A32 32 0 01143 65" fill="#fff"/></g></g><g clip-path="url(#B)"><g clip-path="url(#C)"><path d="M134 51l6.5-24.6-18 18c3.4 1 8.1 3.5 11.4 6.5" fill="#fff"/></g></g></svg>