<svg xmlns="http://www.w3.org/2000/svg" width="400" height="400" viewBox="0 0 300 300"><defs><clipPath id="a"><path d="M150 0a150 150 0 100 300 150 150 0 000-300zm0 0"/></clipPath><clipPath id="b"><path d="M0 0h300v215H0zm0 0"/></clipPath><clipPath id="c"><path d="M150 0a150 150 0 100 300 150 150 0 000-300zm0 0"/></clipPath><clipPath id="d"><path d="M0 0h300v86H0zm0 0"/></clipPath><clipPath id="e"><path d="M150 0a150 150 0 100 300 150 150 0 000-300zm0 0"/></clipPath><clipPath id="f"><path d="M137 129h26v41h-26zm0 0"/></clipPath><clipPath id="g"><path d="M150 0a150 150 0 100 300 150 150 0 000-300zm0 0"/></clipPath><clipPath id="h"><path d="M140 132h20v13h-20zm0 0"/></clipPath><clipPath id="i"><path d="M150 0a150 150 0 100 300 150 150 0 000-300zm0 0"/></clipPath><clipPath id="j"><path d="M95 161h55v29H95zm0 0"/></clipPath><clipPath id="k"><path d="M150 0a150 150 0 100 300 150 150 0 000-300zm0 0"/></clipPath><clipPath id="l"><path d="M150 161h55v29h-55zm0 0"/></clipPath><clipPath id="m"><path d="M150 0a150 150 0 100 300 150 150 0 000-300zm0 0"/></clipPath><clipPath id="n"><path d="M116 183h17v13h-17zm0 0"/></clipPath><clipPath id="o"><path d="M150 0a150 150 0 100 300 150 150 0 000-300zm0 0"/></clipPath><clipPath id="p"><path d="M142 181h16v13h-16zm0 0"/></clipPath><clipPath id="q"><path d="M150 0a150 150 0 100 300 150 150 0 000-300zm0 0"/></clipPath><clipPath id="r"><path d="M167 183h17v13h-17zm0 0"/></clipPath><clipPath id="s"><path d="M150 0a150 150 0 100 300 150 150 0 000-300zm0 0"/></clipPath><clipPath id="t"><path d="M63 153h174v98H63zm0 0"/></clipPath><clipPath id="u"><path d="M150 0a150 150 0 100 300 150 150 0 000-300zm0 0"/></clipPath><clipPath id="v"><path d="M139 92h22v20h-22zm0 0"/></clipPath><clipPath id="w"><path d="M150 0a150 150 0 100 300 150 150 0 000-300zm0 0"/></clipPath><clipPath id="x"><path d="M109 100h22v20h-22zm0 0"/></clipPath><clipPath id="y"><path d="M150 0a150 150 0 100 300 150 150 0 000-300zm0 0"/></clipPath><clipPath id="z"><path d="M87 122h22v20H87zm0 0"/></clipPath><clipPath id="A"><path d="M150 0a150 150 0 100 300 150 150 0 000-300zm0 0"/></clipPath><clipPath id="B"><path d="M79 152h22v20H79zm0 0"/></clipPath><clipPath id="C"><path d="M150 0a150 150 0 100 300 150 150 0 000-300zm0 0"/></clipPath><clipPath id="D"><path d="M169 100h22v20h-22zm0 0"/></clipPath><clipPath id="E"><path d="M150 0a150 150 0 100 300 150 150 0 000-300zm0 0"/></clipPath><clipPath id="F"><path d="M191 122h22v20h-22zm0 0"/></clipPath><clipPath id="G"><path d="M150 0a150 150 0 100 300 150 150 0 000-300zm0 0"/></clipPath><clipPath id="H"><path d="M199 152h22v20h-22zm0 0"/></clipPath><clipPath id="I"><path d="M150 0a150 150 0 100 300 150 150 0 000-300zm0 0"/></clipPath></defs><g clip-path="url(#a)"><path fill="#060" d="M0 0h300v300H0z"/></g><g clip-path="url(#b)"><g clip-path="url(#c)"><path d="M-150 214.3h600V0h-600zm0 0" fill="#fff"/></g></g><g clip-path="url(#d)"><g clip-path="url(#e)"><path d="M-150 85.7h600V0h-600zm0 0" fill="#c00"/></g></g><g clip-path="url(#f)"><g clip-path="url(#g)"><path d="M138 146a5.4 5.4 0 0110 2.5V170h4v-21.5a5.4 5.4 0 0110-2.5 12.6 12.6 0 10-24-8 12.7 12.7 0 000 8" fill="#f8c300"/></g></g><g clip-path="url(#h)"><g clip-path="url(#i)"><path d="M140.9 140.4a8.6 8.6 0 019.1 4.1 8.6 8.6 0 019.1-4 9.2 9.2 0 00-18.2 0" fill="#fff"/></g></g><g clip-path="url(#j)"><g clip-path="url(#k)"><path d="M148 161.4c-.8 9-8.7 15.6-17.7 14.8a16.3 16.3 0 01-9.7-4.4 17 17 0 01-22 9.5 17 17 0 01-3.6-2c1.6 15.6 25 12.4 26.7-2.7 7.4 12.9 23.5 9.2 28.3-6.6" fill="#f8c300"/></g></g><g clip-path="url(#l)"><g clip-path="url(#m)"><path d="M152 161.4c.8 9 8.7 15.6 17.7 14.8a16.3 16.3 0 009.7-4.4 17 17 0 0022 9.5 17.1 17.1 0 003.6-2c-1.6 15.6-25 12.4-26.7-2.7-7.4 12.9-23.6 9.2-28.3-6.6" fill="#f8c300"/></g></g><g clip-path="url(#n)"><g clip-path="url(#o)"><path d="M132.4 189.1c-3.3 7-9.8 8.3-15.5 2.6 0 0 2.3-1.6 4.7-2-.4-2 .5-4.7 1.8-6.2 1.4 1 3.4 2.9 3.9 5 3.4-.4 5 .6 5 .6" fill="#f8c300"/></g></g><g clip-path="url(#p)"><g clip-path="url(#q)"><path d="M157.9 188.3c-4.4 6.5-11 6.6-15.7 0 0 0 2.5-1.2 5-1.2-.1-2 1.3-4.6 2.8-5.8a9.4 9.4 0 013 5.7c3.4 0 4.9 1.3 4.9 1.3" fill="#f8c300"/></g></g><g clip-path="url(#r)"><g clip-path="url(#s)"><path d="M183.2 191.7c-5.3 5.6-11.9 4.7-15.5-2.5 0 0 2.7-.8 5.2-.5.2-2 2-4.2 3.7-5.2 1 1.4 2.2 3.8 2 6 3.4.7 4.6 2.2 4.6 2.2" fill="#f8c300"/></g></g><g clip-path="url(#t)"><g clip-path="url(#u)"><path d="M108.4 204.9a145.7 145.7 0 0183.2 0" fill="none" stroke-width="8" stroke="#f8c300"/></g></g><g clip-path="url(#v)"><g clip-path="url(#w)"><path d="M150 92.1l6.3 19.4-16.5-12h20.4l-16.5 12" fill="#f8c300"/></g></g><g clip-path="url(#x)"><g clip-path="url(#y)"><path d="M120 100.2l6.3 19.4-16.5-12h20.4l-16.5 12" fill="#f8c300"/></g></g><g clip-path="url(#z)"><g clip-path="url(#A)"><path d="M98 122.1l6.3 19.4-16.5-12h20.4l-16.5 12" fill="#f8c300"/></g></g><g clip-path="url(#B)"><g clip-path="url(#C)"><path d="M90 152.1l6.3 19.4-16.5-12h20.4l-16.5 12" fill="#f8c300"/></g></g><g clip-path="url(#D)"><g clip-path="url(#E)"><path d="M180 100.2l-6.3 19.4 16.5-12h-20.4l16.5 12" fill="#f8c300"/></g></g><g clip-path="url(#F)"><g clip-path="url(#G)"><path d="M202 122.1l-6.3 19.4 16.5-12h-20.4l16.5 12" fill="#f8c300"/></g></g><g clip-path="url(#H)"><g clip-path="url(#I)"><path d="M210 152.1l-6.3 19.4 16.5-12h-20.4l16.5 12" fill="#f8c300"/></g></g></svg>