<svg xmlns="http://www.w3.org/2000/svg" width="400" height="400" viewBox="0 0 300 300"><defs><clipPath id="a"><path d="M150 0a150 150 0 100 300 150 150 0 000-300zm0 0"/></clipPath><clipPath id="b"><path d="M0 60h300v60H0zm0 0"/></clipPath><clipPath id="c"><path d="M150 0a150 150 0 100 300 150 150 0 000-300zm0 0"/></clipPath><clipPath id="d"><path d="M0 180h300v60H0zm0 0"/></clipPath><clipPath id="e"><path d="M150 0a150 150 0 100 300 150 150 0 000-300zm0 0"/></clipPath><clipPath id="f"><path d="M0 0h173v180H0zm0 0"/></clipPath><clipPath id="g"><path d="M150 0a150 150 0 100 300 150 150 0 000-300zm0 0"/></clipPath><clipPath id="h"><path d="M28 33h109v104H28zm0 0"/></clipPath><clipPath id="i"><path d="M150 0a150 150 0 100 300 150 150 0 000-300zm0 0"/></clipPath></defs><g clip-path="url(#a)"><path fill="#006a4e" d="M0 0h300v300H0z"/></g><g clip-path="url(#b)"><g clip-path="url(#c)"><path d="M-7.6 120h485.2V60H-7.6zm0 0" fill="#ffce00"/></g></g><g clip-path="url(#d)"><g clip-path="url(#e)"><path d="M-7.6 240h485.2v-60H-7.6zm0 0" fill="#ffce00"/></g></g><g clip-path="url(#f)"><g clip-path="url(#g)"><path d="M-7.6 180h180V0h-180zm0 0" fill="#d21034"/></g></g><g clip-path="url(#h)"><g clip-path="url(#i)"><path d="M28.2 72.4l33.5 24.3-12.8 39.4 33.5-24.3 33.5 24.3L103 96.7l33.5-24.3H95.2L82.4 33 69.6 72.4" fill="#fff"/></g></g></svg>