<svg xmlns="http://www.w3.org/2000/svg" width="400" height="400" viewBox="0 0 300 300"><defs><clipPath id="a"><path d="M150 0a150 150 0 100 300 150 150 0 000-300zm0 0"/></clipPath><clipPath id="b"><path d="M75 75h150v150H75zm0 0"/></clipPath><clipPath id="c"><path d="M150 0a150 150 0 100 300 150 150 0 000-300zm0 0"/></clipPath><clipPath id="d"><path d="M93 93h114v114H93zm0 0"/></clipPath><clipPath id="e"><path d="M150 0a150 150 0 100 300 150 150 0 000-300zm0 0"/></clipPath><clipPath id="f"><path d="M120 105h90v90h-90zm0 0"/></clipPath><clipPath id="g"><path d="M150 0a150 150 0 100 300 150 150 0 000-300zm0 0"/></clipPath><clipPath id="h"><path d="M131 117h62v66h-62zm0 0"/></clipPath><clipPath id="i"><path d="M150 0a150 150 0 100 300 150 150 0 000-300zm0 0"/></clipPath></defs><g clip-path="url(#a)"><path fill="#e70013" d="M0 0h300v300H0z"/></g><g clip-path="url(#b)"><g clip-path="url(#c)"><path d="M150 75a75 75 0 110 150 75 75 0 010-150" fill="#fff"/></g></g><g clip-path="url(#d)"><g clip-path="url(#e)"><path d="M150 93.8a56.3 56.3 0 110 112.5 56.3 56.3 0 010-112.6" fill="#e70013"/></g></g><g clip-path="url(#f)"><g clip-path="url(#g)"><path d="M165 105a45 45 0 110 90 45 45 0 010-90" fill="#fff"/></g></g><g clip-path="url(#h)"><g clip-path="url(#i)"><path d="M131.3 150l61-19.8-37.7 51.9v-64.2l37.7 52" fill="#e70013"/></g></g></svg>