<svg xmlns="http://www.w3.org/2000/svg" width="400" height="400" viewBox="0 0 300 300"><defs><clipPath id="a"><path d="M150 0a150 150 0 100 300 150 150 0 000-300zm0 0"/></clipPath><clipPath id="b"><path d="M9 75h151v150H9zm0 0"/></clipPath><clipPath id="c"><path d="M150 0a150 150 0 100 300 150 150 0 000-300zm0 0"/></clipPath><clipPath id="d"><path d="M43 90h121v120H43zm0 0"/></clipPath><clipPath id="e"><path d="M150 0a150 150 0 100 300 150 150 0 000-300zm0 0"/></clipPath><clipPath id="f"><path d="M143 114h69v72h-69zm0 0"/></clipPath><clipPath id="g"><path d="M150 0a150 150 0 100 300 150 150 0 000-300zm0 0"/></clipPath></defs><g clip-path="url(#a)"><path fill="#e20916" d="M0 0h300v300H0z"/></g><g clip-path="url(#b)"><g clip-path="url(#c)"><path d="M84.4 75a75 75 0 110 150 75 75 0 010-150" fill="#fff"/></g></g><g clip-path="url(#d)"><g clip-path="url(#e)"><path d="M103.1 90a60 60 0 110 120 60 60 0 010-120" fill="#e20916"/></g></g><g clip-path="url(#f)"><g clip-path="url(#g)"><path d="M143.8 150l67.8 22-42-57.7v71.4l42-57.7" fill="#fff"/></g></g></svg>