<svg xmlns="http://www.w3.org/2000/svg" width="400" height="400" viewBox="0 0 300 300"><defs><clipPath id="a"><path d="M150 0a150 150 0 100 300 150 150 0 000-300zm0 0"/></clipPath><clipPath id="b"><path d="M0 0h180v150H0zm0 0"/></clipPath><clipPath id="c"><path d="M150 0a150 150 0 100 300 150 150 0 000-300zm0 0"/></clipPath><clipPath id="d"><path d="M0 0h180v150H0zm0 0"/></clipPath><clipPath id="e"><path d="M0 150h180V3A150 150 0 000 150"/></clipPath><clipPath id="f"><path d="M0 0h180v150H0zm0 0"/></clipPath><clipPath id="g"><path d="M30 60v15l-7.6-3.8A149.6 149.6 0 0020 75H30l-13.6 6.8A149.4 149.4 0 000 150h30V75l150 75V75H30L175.6 2.2A150.7 150.7 0 00150 0C101 0 57.4 23.6 30 60"/></clipPath><clipPath id="h"><path d="M0 0h210v180H0zm0 0"/></clipPath><clipPath id="i"><path d="M150 0a150 150 0 100 300 150 150 0 000-300zm0 0"/></clipPath><clipPath id="j"><path d="M0 0h198v168H0zm0 0"/></clipPath><clipPath id="k"><path d="M150 0a150 150 0 100 300 150 150 0 000-300zm0 0"/></clipPath><clipPath id="l"><path d="M178 245h49v46h-49zm0 0"/></clipPath><clipPath id="m"><path d="M150 0a150 150 0 100 300 150 150 0 000-300zm0 0"/></clipPath><clipPath id="n"><path d="M250 171h48v46h-48zm0 0"/></clipPath><clipPath id="o"><path d="M150 0a150 150 0 100 300 150 150 0 000-300zm0 0"/></clipPath><clipPath id="p"><path d="M250 232h48v46h-48zm0 0"/></clipPath><clipPath id="q"><path d="M150 0a150 150 0 100 300 150 150 0 000-300zm0 0"/></clipPath></defs><g clip-path="url(#a)"><path fill="#5b96b0" d="M0 0h300v300H0z"/></g><g clip-path="url(#b)"><g clip-path="url(#c)"><path d="M-120 150h300V0h-300zm0 0" fill="#00237c"/></g></g><g clip-path="url(#d)"><g clip-path="url(#e)"><path d="M180 0l-300 150m0-150l300 150" fill="none" stroke-width="36" stroke="#fff"/></g></g><g clip-path="url(#f)"><g clip-path="url(#g)"><path d="M180 0l-300 150m0-150l300 150" fill="none" stroke-width="24" stroke="#cf132b"/></g></g><g clip-path="url(#h)"><g clip-path="url(#i)"><path d="M-120 75h300M30 0v150" fill="none" stroke-width="60" stroke="#fff"/></g></g><g clip-path="url(#j)"><g clip-path="url(#k)"><path d="M-120 75h300M30 0v150" fill="none" stroke-width="36" stroke="#cf132b"/></g></g><g clip-path="url(#l)"><g clip-path="url(#m)"><path d="M197 262.8l5.7-17.3 5.6 17.3h18.1l-14.7 10.6 5.7 17.4-14.7-10.8-14.7 10.8 5.6-17.4-14.7-10.6" fill="#ffce00"/></g></g><g clip-path="url(#n)"><g clip-path="url(#o)"><path d="M279.6 199l-5.6 17.3-5.6-17.3h-18.2l14.8-10.7-5.7-17.3 14.7 10.7 14.7-10.7-5.6 17.3 14.7 10.7" fill="#ffce00"/></g></g><g clip-path="url(#p)"><g clip-path="url(#q)"><path d="M279.6 260l-5.6 17.3-5.6-17.3h-18.2l14.8-10.7-5.7-17.3 14.7 10.7 14.7-10.7-5.6 17.3 14.7 10.7" fill="#ffce00"/></g></g></svg>