<svg xmlns="http://www.w3.org/2000/svg" width="400" height="400" viewBox="0 0 300 300"><defs><clipPath id="a"><path d="M150 0a150 150 0 100 300 150 150 0 000-300zm0 0"/></clipPath><clipPath id="b"><path d="M0 50h300v50H0zm0 0"/></clipPath><clipPath id="c"><path d="M150 0a150 150 0 100 300 150 150 0 000-300zm0 0"/></clipPath><clipPath id="d"><path d="M0 100h300v50H0zm0 0"/></clipPath><clipPath id="e"><path d="M150 0a150 150 0 100 300 150 150 0 000-300zm0 0"/></clipPath><clipPath id="f"><path d="M0 200h300v50H0zm0 0"/></clipPath><clipPath id="g"><path d="M150 0a150 150 0 100 300 150 150 0 000-300zm0 0"/></clipPath><clipPath id="h"><path d="M0 250h300v50H0zm0 0"/></clipPath><clipPath id="i"><path d="M150 0a150 150 0 100 300 150 150 0 000-300zm0 0"/></clipPath><clipPath id="j"><path d="M103 103h94v94h-94zm0 0"/></clipPath><clipPath id="k"><path d="M150 0a150 150 0 100 300 150 150 0 000-300zm0 0"/></clipPath><clipPath id="l"><path d="M138 106h8v9h-8zm0 0"/></clipPath><clipPath id="m"><path d="M150 0a150 150 0 100 300 150 150 0 000-300zm0 0"/></clipPath><clipPath id="n"><path d="M135 103h13v15h-13zm0 0"/></clipPath><clipPath id="o"><path d="M150 0a150 150 0 100 300 150 150 0 000-300zm0 0"/></clipPath><clipPath id="p"><path d="M144 106h11v10h-11zm0 0"/></clipPath><clipPath id="q"><path d="M150 0a150 150 0 100 300 150 150 0 000-300zm0 0"/></clipPath><clipPath id="r"><path d="M141 103h17v15h-17zm0 0"/></clipPath><clipPath id="s"><path d="M150 0a150 150 0 100 300 150 150 0 000-300zm0 0"/></clipPath><clipPath id="t"><path d="M151 110h7v8h-7zm0 0"/></clipPath><clipPath id="u"><path d="M150 0a150 150 0 100 300 150 150 0 000-300zm0 0"/></clipPath><clipPath id="v"><path d="M148 107h13v14h-13zm0 0"/></clipPath><clipPath id="w"><path d="M150 0a150 150 0 100 300 150 150 0 000-300zm0 0"/></clipPath><clipPath id="x"><path d="M131 112h35v83h-35zm0 0"/></clipPath><clipPath id="y"><path d="M150 0a150 150 0 100 300 150 150 0 000-300zm0 0"/></clipPath><clipPath id="z"><path d="M128 109h41v88h-41zm0 0"/></clipPath><clipPath id="A"><path d="M150 0a150 150 0 100 300 150 150 0 000-300zm0 0"/></clipPath><clipPath id="B"><path d="M137 125h9v23h-9zm0 0"/></clipPath><clipPath id="C"><path d="M150 0a150 150 0 100 300 150 150 0 000-300zm0 0"/></clipPath><clipPath id="D"><path d="M134 123h14v28h-14zm0 0"/></clipPath><clipPath id="E"><path d="M150 0a150 150 0 100 300 150 150 0 000-300zm0 0"/></clipPath><clipPath id="F"><path d="M145 115h6v9h-6zm0 0"/></clipPath><clipPath id="G"><path d="M150 0a150 150 0 100 300 150 150 0 000-300zm0 0"/></clipPath><clipPath id="H"><path d="M142 112h12v15h-12zm0 0"/></clipPath><clipPath id="I"><path d="M150 0a150 150 0 100 300 150 150 0 000-300zm0 0"/></clipPath><clipPath id="J"><path d="M143 118h2v2h-2zm0 0"/></clipPath><clipPath id="K"><path d="M150 0a150 150 0 100 300 150 150 0 000-300zm0 0"/></clipPath><clipPath id="L"><path d="M139 122h5v6h-5zm0 0"/></clipPath><clipPath id="M"><path d="M150 0a150 150 0 100 300 150 150 0 000-300zm0 0"/></clipPath><clipPath id="N"><path d="M136 119h11v12h-11zm0 0"/></clipPath><clipPath id="O"><path d="M150 0a150 150 0 100 300 150 150 0 000-300zm0 0"/></clipPath><clipPath id="P"><path d="M147 152h6v6h-6zm0 0"/></clipPath><clipPath id="Q"><path d="M150 0a150 150 0 100 300 150 150 0 000-300zm0 0"/></clipPath><clipPath id="R"><path d="M144 149h12v12h-12zm0 0"/></clipPath><clipPath id="S"><path d="M150 0a150 150 0 100 300 150 150 0 000-300zm0 0"/></clipPath><clipPath id="T"><path d="M152 164h5v7h-5zm0 0"/></clipPath><clipPath id="U"><path d="M150 0a150 150 0 100 300 150 150 0 000-300zm0 0"/></clipPath><clipPath id="V"><path d="M149 161h10v13h-10zm0 0"/></clipPath><clipPath id="W"><path d="M150 0a150 150 0 100 300 150 150 0 000-300zm0 0"/></clipPath><clipPath id="X"><path d="M145 138h24v28h-24zm0 0"/></clipPath><clipPath id="Y"><path d="M150 0a150 150 0 100 300 150 150 0 000-300zm0 0"/></clipPath><clipPath id="Z"><path d="M142 136h30v33h-30zm0 0"/></clipPath><clipPath id="aa"><path d="M150 0a150 150 0 100 300 150 150 0 000-300zm0 0"/></clipPath><clipPath id="ab"><path d="M158 147h22v32h-22zm0 0"/></clipPath><clipPath id="ac"><path d="M150 0a150 150 0 100 300 150 150 0 000-300zm0 0"/></clipPath><clipPath id="ad"><path d="M155 144h28v37h-28zm0 0"/></clipPath><clipPath id="ae"><path d="M150 0a150 150 0 100 300 150 150 0 000-300zm0 0"/></clipPath><clipPath id="af"><path d="M149 143h21v11h-21zm0 0"/></clipPath><clipPath id="ag"><path d="M150 0a150 150 0 100 300 150 150 0 000-300zm0 0"/></clipPath><clipPath id="ah"><path d="M146 141h27v16h-27zm0 0"/></clipPath><clipPath id="ai"><path d="M150 0a150 150 0 100 300 150 150 0 000-300zm0 0"/></clipPath><clipPath id="aj"><path d="M133 121h8v2h-8zm0 0"/></clipPath><clipPath id="ak"><path d="M150 0a150 150 0 100 300 150 150 0 000-300zm0 0"/></clipPath><clipPath id="al"><path d="M131 118h13v8h-13zm0 0"/></clipPath><clipPath id="am"><path d="M150 0a150 150 0 100 300 150 150 0 000-300zm0 0"/></clipPath></defs><g clip-path="url(#a)"><path d="M0 0h300v300H0z"/></g><g clip-path="url(#b)"><g clip-path="url(#c)"><path d="M-75 100h450V50H-75zm0 0" fill="#fbdc04"/></g></g><g clip-path="url(#d)"><g clip-path="url(#e)"><path d="M-75 150h450v-50H-75zm0 0" fill="#d90000"/></g></g><g clip-path="url(#f)"><g clip-path="url(#g)"><path d="M-75 250h450v-50H-75zm0 0" fill="#fbdc04"/></g></g><g clip-path="url(#h)"><g clip-path="url(#i)"><path d="M-75 300h450v-50H-75zm0 0" fill="#d90000"/></g></g><g clip-path="url(#j)"><g clip-path="url(#k)"><path d="M150 103.3a46.7 46.7 0 110 93.4 46.7 46.7 0 010-93.4" fill="#fff"/></g></g><g clip-path="url(#l)"><g clip-path="url(#m)"><path d="M141.8 114.2l-3-5.6c1.1-1.2 3-2 6.2-2l-.3 6" fill="#d90000"/></g></g><g clip-path="url(#n)"><g clip-path="url(#o)"><path d="M141.8 114.2l-3-5.6c1.1-1.2 3-2 6.2-2l-.3 6zm0 0" fill="none" stroke-width=".5" stroke="#000"/></g></g><g clip-path="url(#p)"><g clip-path="url(#q)"><path d="M144.7 112.7l.4-6.2s6.3-.3 9.7 3.8l-3.4 4.7" fill="#fbdc04"/></g></g><g clip-path="url(#r)"><g clip-path="url(#s)"><path d="M144.7 112.7l.4-6.2s6.3-.3 9.7 3.8l-3.4 4.7zm0 0" fill="none" stroke-width=".5" stroke="#000"/></g></g><g clip-path="url(#t)"><g clip-path="url(#u)"><path d="M151.5 115l3.1-4.8c2.1 2.2 3 3.7 3.3 6l-5 1.2-1.4-2.4" fill="#d90000"/></g></g><g clip-path="url(#v)"><g clip-path="url(#w)"><path d="M151.5 115l3.1-4.8c2.1 2.2 3 3.7 3.3 6l-5 1.2-1.4-2.4zm0 0" fill="none" stroke-width=".5" stroke="#000"/></g></g><g clip-path="url(#x)"><g clip-path="url(#y)"><path d="M143.3 194s5.8-6.6 17-5.2c-1.6-2.7-7.1-2.4-7.1-2.4s-1.7-13-.4-13.6c1.4-.6 7 0 7 0 .7 0 2-2 1-3.2-1-1.3-4-6.2-2.8-7.2 1.3-1 8 .6 8 .6L147 139s-1.9-9.1 2-13.5c4.6-3.8 4-8 4-7.9-.7-4.2-7-7.2-11.4-3.4-2.5 3.1-.8 5.5-.8 5.5s-6.7 1.8-7 3c-.3 1.1 7.5-.3 7.5-.3l-.7 5.4s-15.2 13.8-3.6 25.8l.4-.5s4.1 5 8.4 6.1c4 4.2 3.7 3.6 3.7 3.6s.8 6.5 0 7.8a61 61 0 00-12.8-.1c-1.4.4-6.7.1-5.4 8.8l1.9-4.4s-.2 3.1 1.1 4.2c-.2-3.3 1.2-5.5 1.2-5.5s.3 3.6 1.1 4.2c.8.5.8-5.9 5.2-5.4 4.4.6 7.6.4 7.6.4s1.5 12.5 1 13.7c-3.2-.8-10.8.3-11.2 2.2 4.4-.2 6.5.3 6.5.3s-3.6 3.2-2.5 5"/></g></g><g clip-path="url(#z)"><g clip-path="url(#A)"><path d="M143.3 194s5.8-6.6 17-5.2c-1.6-2.7-7.1-2.4-7.1-2.4s-1.7-13-.4-13.6c1.4-.6 7 0 7 0 .7 0 2-2 1-3.2-1-1.3-4-6.2-2.8-7.2 1.3-1 8 .6 8 .6L147 139s-1.9-9.1 2-13.5c4.6-3.8 4-8 4-7.9-.7-4.2-7-7.2-11.4-3.4-2.5 3.1-.8 5.5-.8 5.5s-6.7 1.8-7 3c-.3 1.1 7.5-.3 7.5-.3l-.7 5.4s-15.2 13.8-3.6 25.8l.4-.5s4.1 5 8.4 6.1c4 4.2 3.7 3.6 3.7 3.6s.8 6.5 0 7.8a61 61 0 00-12.8-.1c-1.4.4-6.7.1-5.4 8.8l1.9-4.4s-.2 3.1 1.1 4.2c-.2-3.3 1.2-5.5 1.2-5.5s.3 3.6 1.1 4.2c.8.5.8-5.9 5.2-5.4 4.4.6 7.6.4 7.6.4s1.5 12.5 1 13.7c-3.2-.8-10.8.3-11.2 2.2 4.4-.2 6.5.3 6.5.3s-3.6 3.2-2.5 5zm0 0" fill="none" stroke-width=".5" stroke="#000"/></g></g><g clip-path="url(#B)"><g clip-path="url(#C)"><path d="M145.1 125.8s-11 12.2-6.3 21.6c.3-1.3.1-2.2.3-2.1-.3-.2 1.4 1.1 1.3.9a8 8 0 00-.5-2.1l1.5.3-1-1.6c.8 0 1.5.2 2.2.3 0 0-.7-2-.5-2h1.7c-3.1-5.6-.1-10.3 1.3-15.3" fill="#9ca69c"/></g></g><g clip-path="url(#D)"><g clip-path="url(#E)"><path d="M145.1 125.8s-11 12.2-6.3 21.6c.3-1.3.1-2.2.3-2.1-.3-.2 1.4 1.1 1.3.9a8 8 0 00-.5-2.1l1.5.3-1-1.6c.8 0 1.5.2 2.2.3 0 0-.7-2-.5-2h1.7c-3.1-5.6-.1-10.3 1.3-15.3zm0 0" fill="none" stroke-width=".5" stroke="#9ca69c"/></g></g><g clip-path="url(#F)"><g clip-path="url(#G)"><path d="M149 115.4s.5 4.2-1.8 5.4c-.3.3-1.8.7-1.6 1.6.3 1.2 1 1 1.9.7 2.3-.4 5.1-5.5 1.4-7.7" fill="#9ca69c"/></g></g><g clip-path="url(#H)"><g clip-path="url(#I)"><path d="M149 115.4s.5 4.2-1.8 5.4c-.3.3-1.8.7-1.6 1.6.3 1.2 1 1 1.9.7 2.3-.4 5.1-5.5 1.4-7.7zm0 0" fill="none" stroke-width=".5" stroke="#9ca69c"/></g></g><g clip-path="url(#J)"><g clip-path="url(#K)"><path d="M144 118.1a.9.9 0 110 1.8.9.9 0 010-1.8" fill="#fff"/></g></g><g clip-path="url(#L)"><g clip-path="url(#M)"><path d="M141.3 122.5c-.6.5-3.7 3.7-.7 4.8 3.2-.8 2.3-1.4 3-2 0-1.5-1.5-1.9-2.3-2.8" fill="#d90000"/></g></g><g clip-path="url(#N)"><g clip-path="url(#O)"><path d="M141.3 122.5c-.6.5-3.7 3.7-.7 4.8 3.2-.8 2.3-1.4 3-2 0-1.5-1.5-1.9-2.3-2.8zm0 0" fill="none" stroke-width=".5" stroke="#000"/></g></g><g clip-path="url(#P)"><g clip-path="url(#Q)"><path d="M148 152.7c-.2.6-.9 3.2 0 5.2 2.8-1.2 4-.8 4.9-.2-2.2-1.8-3-2.5-5-5" fill="#9ca69c"/></g></g><g clip-path="url(#R)"><g clip-path="url(#S)"><path d="M148 152.7c-.2.6-.9 3.2 0 5.2 2.8-1.2 4-.8 4.9-.2-2.2-1.8-3-2.5-5-5zm0 0" fill="none" stroke-width=".5" stroke="#9ca69c"/></g></g><g clip-path="url(#T)"><g clip-path="url(#U)"><path d="M152.6 164.7l.1 6s2 .4 3 0 0-4.2-3.1-6" fill="#fff"/></g></g><g clip-path="url(#V)"><g clip-path="url(#W)"><path d="M152.6 164.7l.1 6s2 .4 3 0 0-4.2-3.1-6zm0 0" fill="none" stroke-width=".5" stroke="#fff"/></g></g><g clip-path="url(#X)"><g clip-path="url(#Y)"><path d="M167.6 165.5s-3.8-9.3-13.6-11.6c-9.8-2.4-8.5-12.8-7.7-13.4.4-1 .7-2.3 3.5-1 2.9 1.3 15.8 7.9 17.7 8.2 1.9.3.3 18 .1 17.8" fill="#9ca69c"/></g></g><g clip-path="url(#Z)"><g clip-path="url(#aa)"><path d="M167.6 165.5s-3.8-9.3-13.6-11.6c-9.8-2.4-8.5-12.8-7.7-13.4.4-1 .7-2.3 3.5-1 2.9 1.3 15.8 7.9 17.7 8.2 1.9.3.3 18 .1 17.8zm0 0" fill="none" stroke-width=".5" stroke="#000"/></g></g><g clip-path="url(#ab)"><g clip-path="url(#ac)"><path d="M158.3 153.8c-.2.1 13 7.8 9.1 14.5 3.8-2.5 2.6-6.9 2.6-6.9s3 8-4.5 12c.8.7 1.4.5 1.4.5l-1.3 1.3s-.6 1 4.5-1.5c-1.4 1.1-1.5 2-1.5 2s.3 1 3.6-1.9c-2.6 2.9-3.2 4.4-3.2 4.3 7.2-.6 22.8-24-5-30.9l1.3 1.4" fill="#d90000"/></g></g><g clip-path="url(#ad)"><g clip-path="url(#ae)"><path d="M158.3 153.8c-.2.1 13 7.8 9.1 14.5 3.8-2.5 2.6-6.9 2.6-6.9s3 8-4.5 12c.8.7 1.4.5 1.4.5l-1.3 1.3s-.6 1 4.5-1.5c-1.4 1.1-1.5 2-1.5 2s.3 1 3.6-1.9c-2.6 2.9-3.2 4.4-3.2 4.3 7.2-.6 22.8-24-5-30.9l1.3 1.4zm0 0" fill="none" stroke-width=".5" stroke="#000"/></g></g><g clip-path="url(#af)"><g clip-path="url(#ag)"><path d="M158.9 151.5c1.8 1.3 2.4 1.7 2.6 2.4-1.6-.4-3-.3-3-.3s-3.7-3.4-4.3-3.7c-.5 0-3.2-1.7-3.2-1.7-1.4-.7-2.7-5.5 2.4-4.1 5.3 2.5 6 2.7 6 2.7l6.3 2 3.6 4s-6.4-3.2-7.2-3.2c1.7 1.4 2.7 3.4 2.7 3.4-2-.6-3.8-1.1-6-1.5" fill="#fff"/></g></g><g clip-path="url(#ah)"><g clip-path="url(#ai)"><path d="M158.9 151.5c1.8 1.3 2.4 1.7 2.6 2.4-1.6-.4-3-.3-3-.3s-3.7-3.4-4.3-3.7c-.5 0-3.2-1.7-3.2-1.7-1.4-.7-2.7-5.5 2.4-4.1 5.3 2.5 6 2.7 6 2.7l6.3 2 3.6 4s-6.4-3.2-7.2-3.2c1.7 1.4 2.7 3.4 2.7 3.4-2-.6-3.8-1.1-6-1.5zm0 0" fill="none" stroke-width=".5" stroke="#000"/></g></g><g clip-path="url(#aj)"><g clip-path="url(#ak)"><path d="M133.8 123s6.2-1.5 7-1.3"/></g></g><g clip-path="url(#al)"><g clip-path="url(#am)"><path d="M133.8 123s6.2-1.5 7-1.3" fill="none" stroke-width=".5" stroke="#fff"/></g></g></svg>