<svg xmlns="http://www.w3.org/2000/svg" width="400" height="400" viewBox="0 0 300 300"><defs><clipPath id="a"><path d="M150 0a150 150 0 100 300 150 150 0 000-300zm0 0"/></clipPath><clipPath id="b"><path d="M199 0h101v98H199zm0 0"/></clipPath><clipPath id="c"><path d="M150 0a150 150 0 100 300 150 150 0 000-300zm0 0"/></clipPath><clipPath id="d"><path d="M199 202h101v98H199zm0 0"/></clipPath><clipPath id="e"><path d="M150 0a150 150 0 100 300 150 150 0 000-300zm0 0"/></clipPath><clipPath id="f"><path d="M0 202h100v98H0zm0 0"/></clipPath><clipPath id="g"><path d="M150 0a150 150 0 100 300 150 150 0 000-300zm0 0"/></clipPath><clipPath id="h"><path d="M0 0h100v98H0zm0 0"/></clipPath><clipPath id="i"><path d="M150 0a150 150 0 100 300 150 150 0 000-300zm0 0"/></clipPath><clipPath id="j"><path d="M216 0h84v100h-84zm0 0"/></clipPath><clipPath id="k"><path d="M150 0a150 150 0 100 300 150 150 0 000-300zm0 0"/></clipPath><clipPath id="l"><path d="M0 199h84v101H0zm0 0"/></clipPath><clipPath id="m"><path d="M150 0a150 150 0 100 300 150 150 0 000-300zm0 0"/></clipPath><clipPath id="n"><path d="M0 0h50v101H0zm0 0"/></clipPath><clipPath id="o"><path d="M150 0a150 150 0 100 300 150 150 0 000-300zm0 0"/></clipPath><clipPath id="p"><path d="M249 199h51v101h-51zm0 0"/></clipPath><clipPath id="q"><path d="M150 0a150 150 0 100 300 150 150 0 000-300zm0 0"/></clipPath></defs><g clip-path="url(#a)"><path d="M-150 300h599.7V0H-150zm0 0" fill="#fff"/><path d="M119.9 179.9v120h60V180h269.8v-60H179.8V0h-60v120H-150v59.9" fill="#cf132b"/></g><g clip-path="url(#b)"><g clip-path="url(#c)"><path d="M199.8 97.1V0H394" fill="#00237c"/></g></g><g clip-path="url(#d)"><g clip-path="url(#e)"><path d="M199.8 202.9v97H394" fill="#00237c"/></g></g><g clip-path="url(#f)"><g clip-path="url(#g)"><path d="M99.9 202.9v97H-94.3" fill="#00237c"/></g></g><g clip-path="url(#h)"><g clip-path="url(#i)"><path d="M99.9 97.1V0H-94.3" fill="#00237c"/></g></g><g clip-path="url(#j)"><g clip-path="url(#k)"><path d="M449.7 0h-33.3L216.8 100h33.3L450 0" fill="#cf132b"/></g></g><g clip-path="url(#l)"><g clip-path="url(#m)"><path d="M82.9 200H49.6L-150 300h33.3L83.2 200" fill="#cf132b"/></g></g><g clip-path="url(#n)"><g clip-path="url(#o)"><path d="M16.5 100h33.3L-150 0v16.8zm0 0" fill="#cf132b"/></g></g><g clip-path="url(#p)"><g clip-path="url(#q)"><path d="M283 200h-33.3l199.9 100v-16.8zm0 0" fill="#cf132b"/></g></g></svg>