<svg xmlns="http://www.w3.org/2000/svg" width="400" height="400" viewBox="0 0 300 300"><defs><clipPath id="a"><path d="M150 0a150 150 0 100 300 150 150 0 000-300zm0 0"/></clipPath><clipPath id="b"><path d="M0 0h300v24H0zm0 0"/></clipPath><clipPath id="c"><path d="M150 0a150 150 0 100 300 150 150 0 000-300zm0 0"/></clipPath><clipPath id="d"><path d="M0 46h300v24H0zm0 0"/></clipPath><clipPath id="e"><path d="M150 0a150 150 0 100 300 150 150 0 000-300zm0 0"/></clipPath><clipPath id="f"><path d="M0 92h300v24H0zm0 0"/></clipPath><clipPath id="g"><path d="M150 0a150 150 0 100 300 150 150 0 000-300zm0 0"/></clipPath><clipPath id="h"><path d="M0 138h300v24H0zm0 0"/></clipPath><clipPath id="i"><path d="M150 0a150 150 0 100 300 150 150 0 000-300zm0 0"/></clipPath><clipPath id="j"><path d="M0 184h300v24H0zm0 0"/></clipPath><clipPath id="k"><path d="M150 0a150 150 0 100 300 150 150 0 000-300zm0 0"/></clipPath><clipPath id="l"><path d="M0 230h300v24H0zm0 0"/></clipPath><clipPath id="m"><path d="M150 0a150 150 0 100 300 150 150 0 000-300zm0 0"/></clipPath><clipPath id="n"><path d="M0 276h300v24H0zm0 0"/></clipPath><clipPath id="o"><path d="M150 0a150 150 0 100 300 150 150 0 000-300zm0 0"/></clipPath><clipPath id="p"><path d="M0 0h228v162H0zm0 0"/></clipPath><clipPath id="q"><path d="M150 0a150 150 0 100 300 150 150 0 000-300zm0 0"/></clipPath><clipPath id="r"><path d="M10 6h19v18H10zm0 0"/></clipPath><clipPath id="s"><path d="M150 0a150 150 0 100 300 150 150 0 000-300zm0 0"/></clipPath><clipPath id="t"><path d="M48 6h19v18H48zm0 0"/></clipPath><clipPath id="u"><path d="M150 0a150 150 0 100 300 150 150 0 000-300zm0 0"/></clipPath><clipPath id="v"><path d="M86 6h18v18H86zm0 0"/></clipPath><clipPath id="w"><path d="M150 0a150 150 0 100 300 150 150 0 000-300zm0 0"/></clipPath><clipPath id="x"><path d="M124 6h18v18h-18zm0 0"/></clipPath><clipPath id="y"><path d="M150 0a150 150 0 100 300 150 150 0 000-300zm0 0"/></clipPath><clipPath id="z"><path d="M161 6h19v18h-19zm0 0"/></clipPath><clipPath id="A"><path d="M150 0a150 150 0 100 300 150 150 0 000-300zm0 0"/></clipPath><clipPath id="B"><path d="M199 6h19v18h-19zm0 0"/></clipPath><clipPath id="C"><path d="M150 0a150 150 0 100 300 150 150 0 000-300zm0 0"/></clipPath><clipPath id="D"><path d="M29 22h19v18H29zm0 0"/></clipPath><clipPath id="E"><path d="M150 0a150 150 0 100 300 150 150 0 000-300zm0 0"/></clipPath><clipPath id="F"><path d="M67 22h18v18H67zm0 0"/></clipPath><clipPath id="G"><path d="M150 0a150 150 0 100 300 150 150 0 000-300zm0 0"/></clipPath><clipPath id="H"><path d="M105 22h18v18h-18zm0 0"/></clipPath><clipPath id="I"><path d="M150 0a150 150 0 100 300 150 150 0 000-300zm0 0"/></clipPath><clipPath id="J"><path d="M143 22h18v18h-18zm0 0"/></clipPath><clipPath id="K"><path d="M150 0a150 150 0 100 300 150 150 0 000-300zm0 0"/></clipPath><clipPath id="L"><path d="M180 22h19v18h-19zm0 0"/></clipPath><clipPath id="M"><path d="M150 0a150 150 0 100 300 150 150 0 000-300zm0 0"/></clipPath><clipPath id="N"><path d="M10 39h19v17H10zm0 0"/></clipPath><clipPath id="O"><path d="M150 0a150 150 0 100 300 150 150 0 000-300zm0 0"/></clipPath><clipPath id="P"><path d="M48 39h19v17H48zm0 0"/></clipPath><clipPath id="Q"><path d="M150 0a150 150 0 100 300 150 150 0 000-300zm0 0"/></clipPath><clipPath id="R"><path d="M86 39h18v17H86zm0 0"/></clipPath><clipPath id="S"><path d="M150 0a150 150 0 100 300 150 150 0 000-300zm0 0"/></clipPath><clipPath id="T"><path d="M124 39h18v17h-18zm0 0"/></clipPath><clipPath id="U"><path d="M150 0a150 150 0 100 300 150 150 0 000-300zm0 0"/></clipPath><clipPath id="V"><path d="M161 39h19v17h-19zm0 0"/></clipPath><clipPath id="W"><path d="M150 0a150 150 0 100 300 150 150 0 000-300zm0 0"/></clipPath><clipPath id="X"><path d="M199 39h19v17h-19zm0 0"/></clipPath><clipPath id="Y"><path d="M150 0a150 150 0 100 300 150 150 0 000-300zm0 0"/></clipPath><clipPath id="Z"><path d="M30 55h18v18H30zm0 0"/></clipPath><clipPath id="aa"><path d="M150 0a150 150 0 100 300 150 150 0 000-300zm0 0"/></clipPath><clipPath id="ab"><path d="M67 55h19v18H67zm0 0"/></clipPath><clipPath id="ac"><path d="M150 0a150 150 0 100 300 150 150 0 000-300zm0 0"/></clipPath><clipPath id="ad"><path d="M105 55h19v18h-19zm0 0"/></clipPath><clipPath id="ae"><path d="M150 0a150 150 0 100 300 150 150 0 000-300zm0 0"/></clipPath><clipPath id="af"><path d="M143 55h19v18h-19zm0 0"/></clipPath><clipPath id="ag"><path d="M150 0a150 150 0 100 300 150 150 0 000-300zm0 0"/></clipPath><clipPath id="ah"><path d="M181 55h18v18h-18zm0 0"/></clipPath><clipPath id="ai"><path d="M150 0a150 150 0 100 300 150 150 0 000-300zm0 0"/></clipPath><clipPath id="aj"><path d="M11 71h18v18H11zm0 0"/></clipPath><clipPath id="ak"><path d="M150 0a150 150 0 100 300 150 150 0 000-300zm0 0"/></clipPath><clipPath id="al"><path d="M49 71h18v18H49zm0 0"/></clipPath><clipPath id="am"><path d="M150 0a150 150 0 100 300 150 150 0 000-300zm0 0"/></clipPath><clipPath id="an"><path d="M86 71h19v18H86zm0 0"/></clipPath><clipPath id="ao"><path d="M150 0a150 150 0 100 300 150 150 0 000-300zm0 0"/></clipPath><clipPath id="ap"><path d="M124 71h19v18h-19zm0 0"/></clipPath><clipPath id="aq"><path d="M150 0a150 150 0 100 300 150 150 0 000-300zm0 0"/></clipPath><clipPath id="ar"><path d="M162 71h19v18h-19zm0 0"/></clipPath><clipPath id="as"><path d="M150 0a150 150 0 100 300 150 150 0 000-300zm0 0"/></clipPath><clipPath id="at"><path d="M200 71h18v18h-18zm0 0"/></clipPath><clipPath id="au"><path d="M150 0a150 150 0 100 300 150 150 0 000-300zm0 0"/></clipPath><clipPath id="av"><path d="M11 103h19v18H11zm0 0"/></clipPath><clipPath id="aw"><path d="M150 0a150 150 0 100 300 150 150 0 000-300zm0 0"/></clipPath><clipPath id="ax"><path d="M49 103h19v18H49zm0 0"/></clipPath><clipPath id="ay"><path d="M150 0a150 150 0 100 300 150 150 0 000-300zm0 0"/></clipPath><clipPath id="az"><path d="M87 103h18v18H87zm0 0"/></clipPath><clipPath id="aA"><path d="M150 0a150 150 0 100 300 150 150 0 000-300zm0 0"/></clipPath><clipPath id="aB"><path d="M125 103h18v18h-18zm0 0"/></clipPath><clipPath id="aC"><path d="M150 0a150 150 0 100 300 150 150 0 000-300zm0 0"/></clipPath><clipPath id="aD"><path d="M162 103h19v18h-19zm0 0"/></clipPath><clipPath id="aE"><path d="M150 0a150 150 0 100 300 150 150 0 000-300zm0 0"/></clipPath><clipPath id="aF"><path d="M200 103h19v18h-19zm0 0"/></clipPath><clipPath id="aG"><path d="M150 0a150 150 0 100 300 150 150 0 000-300zm0 0"/></clipPath><clipPath id="aH"><path d="M11 135h18v18H11zm0 0"/></clipPath><clipPath id="aI"><path d="M150 0a150 150 0 100 300 150 150 0 000-300zm0 0"/></clipPath><clipPath id="aJ"><path d="M48 135h19v18H48zm0 0"/></clipPath><clipPath id="aK"><path d="M150 0a150 150 0 100 300 150 150 0 000-300zm0 0"/></clipPath><clipPath id="aL"><path d="M86 135h19v18H86zm0 0"/></clipPath><clipPath id="aM"><path d="M150 0a150 150 0 100 300 150 150 0 000-300zm0 0"/></clipPath><clipPath id="aN"><path d="M124 135h19v18h-19zm0 0"/></clipPath><clipPath id="aO"><path d="M150 0a150 150 0 100 300 150 150 0 000-300zm0 0"/></clipPath><clipPath id="aP"><path d="M162 135h18v18h-18zm0 0"/></clipPath><clipPath id="aQ"><path d="M150 0a150 150 0 100 300 150 150 0 000-300zm0 0"/></clipPath><clipPath id="aR"><path d="M200 135h18v18h-18zm0 0"/></clipPath><clipPath id="aS"><path d="M150 0a150 150 0 100 300 150 150 0 000-300zm0 0"/></clipPath><clipPath id="aT"><path d="M30 87h18v17H30zm0 0"/></clipPath><clipPath id="aU"><path d="M150 0a150 150 0 100 300 150 150 0 000-300zm0 0"/></clipPath><clipPath id="aV"><path d="M67 87h19v17H67zm0 0"/></clipPath><clipPath id="aW"><path d="M150 0a150 150 0 100 300 150 150 0 000-300zm0 0"/></clipPath><clipPath id="aX"><path d="M105 87h19v17h-19zm0 0"/></clipPath><clipPath id="aY"><path d="M150 0a150 150 0 100 300 150 150 0 000-300zm0 0"/></clipPath><clipPath id="aZ"><path d="M143 87h19v17h-19zm0 0"/></clipPath><clipPath id="ba"><path d="M150 0a150 150 0 100 300 150 150 0 000-300zm0 0"/></clipPath><clipPath id="bb"><path d="M181 87h18v17h-18zm0 0"/></clipPath><clipPath id="bc"><path d="M150 0a150 150 0 100 300 150 150 0 000-300zm0 0"/></clipPath><clipPath id="bd"><path d="M30 119h18v18H30zm0 0"/></clipPath><clipPath id="be"><path d="M150 0a150 150 0 100 300 150 150 0 000-300zm0 0"/></clipPath><clipPath id="bf"><path d="M67 119h19v18H67zm0 0"/></clipPath><clipPath id="bg"><path d="M150 0a150 150 0 100 300 150 150 0 000-300zm0 0"/></clipPath><clipPath id="bh"><path d="M105 119h19v18h-19zm0 0"/></clipPath><clipPath id="bi"><path d="M150 0a150 150 0 100 300 150 150 0 000-300zm0 0"/></clipPath><clipPath id="bj"><path d="M143 119h19v18h-19zm0 0"/></clipPath><clipPath id="bk"><path d="M150 0a150 150 0 100 300 150 150 0 000-300zm0 0"/></clipPath><clipPath id="bl"><path d="M181 119h18v18h-18zm0 0"/></clipPath><clipPath id="bm"><path d="M150 0a150 150 0 100 300 150 150 0 000-300zm0 0"/></clipPath></defs><g clip-path="url(#a)"><path fill="#fff" d="M0 0h300v300H0z"/></g><g clip-path="url(#b)"><g clip-path="url(#c)"><path d="M0 23h570V0H0zm0 0" fill="#b12134"/></g></g><g clip-path="url(#d)"><g clip-path="url(#e)"><path d="M0 69.2h570v-23H0zm0 0" fill="#b12134"/></g></g><g clip-path="url(#f)"><g clip-path="url(#g)"><path d="M0 115.4h570v-23H0zm0 0" fill="#b12134"/></g></g><g clip-path="url(#h)"><g clip-path="url(#i)"><path d="M0 161.5h570v-23H0zm0 0" fill="#b12134"/></g></g><g clip-path="url(#j)"><g clip-path="url(#k)"><path d="M0 207.7h570v-23H0zm0 0" fill="#b12134"/></g></g><g clip-path="url(#l)"><g clip-path="url(#m)"><path d="M0 253.8h570v-23H0zm0 0" fill="#b12134"/></g></g><g clip-path="url(#n)"><g clip-path="url(#o)"><path d="M0 300h570v-23H0zm0 0" fill="#b12134"/></g></g><g clip-path="url(#p)"><g clip-path="url(#q)"><path d="M0 161.5h228V0H0zm0 0" fill="#3b3a6d"/></g></g><g clip-path="url(#r)"><g clip-path="url(#s)"><path d="M10.7 13.1l5.4 4-2 6.3 5.4-3.9 5.4 4-2-6.4 5.4-4h-6.7l-2.1-6.4-2 6.4" fill="#fff"/></g></g><g clip-path="url(#t)"><g clip-path="url(#u)"><path d="M48.5 13.1l5.4 4-2 6.3 5.4-3.9 5.4 4-2-6.4 5.4-4h-6.7l-2.1-6.4-2 6.4" fill="#fff"/></g></g><g clip-path="url(#v)"><g clip-path="url(#w)"><path d="M86.3 13.1l5.4 4-2 6.3 5.4-3.9 5.4 4-2-6.4 5.4-4h-6.7L95 6.7l-2 6.4" fill="#fff"/></g></g><g clip-path="url(#x)"><g clip-path="url(#y)"><path d="M124.1 13.1l5.4 4-2 6.3 5.4-3.9 5.4 4-2-6.4 5.4-4H135l-2.1-6.4-2 6.4" fill="#fff"/></g></g><g clip-path="url(#z)"><g clip-path="url(#A)"><path d="M162 13.1l5.3 4-2 6.3 5.4-3.9 5.4 4-2-6.4 5.4-4h-6.7l-2.1-6.4-2 6.4" fill="#fff"/></g></g><g clip-path="url(#B)"><g clip-path="url(#C)"><path d="M199.7 13.1l5.4 4-2 6.3 5.4-3.9 5.4 4-2-6.4 5.4-4h-6.7l-2.1-6.4-2 6.4" fill="#fff"/></g></g><g clip-path="url(#D)"><g clip-path="url(#E)"><path d="M29.6 29.3l5.4 4-2 6.3 5.4-3.9 5.4 4-2-6.4 5.4-4h-6.7L38.4 23l-2 6.4" fill="#fff"/></g></g><g clip-path="url(#F)"><g clip-path="url(#G)"><path d="M67.4 29.3l5.4 4-2 6.3 5.4-3.9 5.4 4-2-6.4 5.4-4h-6.7L76.2 23l-2 6.4" fill="#fff"/></g></g><g clip-path="url(#H)"><g clip-path="url(#I)"><path d="M105.2 29.3l5.4 4-2 6.3 5.4-3.9 5.4 4-2-6.4 5.4-4H116L114 23l-2 6.4" fill="#fff"/></g></g><g clip-path="url(#J)"><g clip-path="url(#K)"><path d="M143 29.3l5.4 4-2 6.3 5.4-3.9 5.4 4-2-6.4 5.4-4h-6.7l-2.1-6.4-2 6.4" fill="#fff"/></g></g><g clip-path="url(#L)"><g clip-path="url(#M)"><path d="M180.8 29.3l5.4 4-2 6.3 5.4-3.9 5.4 4-2-6.4 5.4-4h-6.7l-2.1-6.4-2 6.4" fill="#fff"/></g></g><g clip-path="url(#N)"><g clip-path="url(#O)"><path d="M10.7 45.5l5.4 4-2 6.3 5.4-3.9 5.4 4-2-6.4 5.4-4h-6.7l-2.1-6.4-2 6.4" fill="#fff"/></g></g><g clip-path="url(#P)"><g clip-path="url(#Q)"><path d="M48.5 45.5l5.4 4-2 6.3 5.4-3.9 5.4 4-2-6.4 5.4-4h-6.7l-2.1-6.4-2 6.4" fill="#fff"/></g></g><g clip-path="url(#R)"><g clip-path="url(#S)"><path d="M86.3 45.5l5.4 4-2 6.3L95 52l5.4 4-2-6.4 5.4-4h-6.7L95 39.1l-2 6.4" fill="#fff"/></g></g><g clip-path="url(#T)"><g clip-path="url(#U)"><path d="M124.1 45.5l5.4 4-2 6.3 5.4-3.9 5.4 4-2-6.4 5.4-4H135l-2.1-6.4-2 6.4" fill="#fff"/></g></g><g clip-path="url(#V)"><g clip-path="url(#W)"><path d="M162 45.5l5.3 4-2 6.3 5.4-3.9 5.4 4-2-6.4 5.4-4h-6.7l-2.1-6.4-2 6.4" fill="#fff"/></g></g><g clip-path="url(#X)"><g clip-path="url(#Y)"><path d="M199.7 45.5l5.4 4-2 6.3 5.4-3.9 5.4 4-2-6.4 5.4-4h-6.7l-2.1-6.4-2 6.4" fill="#fff"/></g></g><g clip-path="url(#Z)"><g clip-path="url(#aa)"><path d="M30 61.8l5.5 4-2 6.3 5.4-4 5.4 4-2-6.4 5.4-4h-6.8l-2-6.3-2.1 6.4" fill="#fff"/></g></g><g clip-path="url(#ab)"><g clip-path="url(#ac)"><path d="M67.9 61.8l5.4 4-2 6.3 5.4-4 5.4 4-2-6.4 5.4-4h-6.8l-2-6.3-2.1 6.4" fill="#fff"/></g></g><g clip-path="url(#ad)"><g clip-path="url(#ae)"><path d="M105.7 61.8l5.4 4-2 6.3 5.4-4 5.4 4-2-6.4 5.4-4h-6.8l-2-6.3-2.1 6.4" fill="#fff"/></g></g><g clip-path="url(#af)"><g clip-path="url(#ag)"><path d="M143.5 61.8l5.4 4-2 6.3 5.4-4 5.4 4-2-6.4 5.4-4h-6.8l-2-6.3-2.1 6.4" fill="#fff"/></g></g><g clip-path="url(#ah)"><g clip-path="url(#ai)"><path d="M181.3 61.8l5.4 4-2 6.3 5.4-4 5.4 4-2-6.4 5.4-4H192l-2-6.3-2.1 6.4" fill="#fff"/></g></g><g clip-path="url(#aj)"><g clip-path="url(#ak)"><path d="M11.3 77.8l5.4 4-2 6.4 5.4-4 5.4 4-2-6.4 5.4-4H22l-2-6.4-2.1 6.4" fill="#fff"/></g></g><g clip-path="url(#al)"><g clip-path="url(#am)"><path d="M49 77.8l5.5 4-2 6.4 5.4-4 5.4 4-2-6.4 5.4-4h-6.8l-2-6.4-2.1 6.4" fill="#fff"/></g></g><g clip-path="url(#an)"><g clip-path="url(#ao)"><path d="M86.9 77.8l5.4 4-2 6.4 5.4-4 5.4 4-2-6.4 5.4-4h-6.8l-2-6.4-2.1 6.4" fill="#fff"/></g></g><g clip-path="url(#ap)"><g clip-path="url(#aq)"><path d="M124.7 77.8l5.4 4-2 6.4 5.4-4 5.4 4-2-6.4 5.4-4h-6.8l-2-6.4-2.1 6.4" fill="#fff"/></g></g><g clip-path="url(#ar)"><g clip-path="url(#as)"><path d="M162.5 77.8l5.4 4-2 6.4 5.4-4 5.4 4-2-6.4 5.4-4h-6.8l-2-6.4-2.1 6.4" fill="#fff"/></g></g><g clip-path="url(#at)"><g clip-path="url(#au)"><path d="M200.3 77.8l5.4 4-2 6.4 5.4-4 5.4 4-2-6.4 5.4-4H211l-2-6.4-2.1 6.4" fill="#fff"/></g></g><g clip-path="url(#av)"><g clip-path="url(#aw)"><path d="M11.6 109.7l5.5 4L15 120l5.4-4 5.5 4-2.1-6.4 5.4-4h-6.7l-2-6.4-2.1 6.4" fill="#fff"/></g></g><g clip-path="url(#ax)"><g clip-path="url(#ay)"><path d="M49.4 109.7l5.5 4-2.1 6.4 5.4-4 5.5 4-2.1-6.4 5.4-4h-6.7l-2-6.4-2.1 6.4" fill="#fff"/></g></g><g clip-path="url(#az)"><g clip-path="url(#aA)"><path d="M87.2 109.7l5.5 4-2.1 6.4 5.4-4 5.5 4-2.1-6.4 5.4-4h-6.7l-2-6.4-2.1 6.4" fill="#fff"/></g></g><g clip-path="url(#aB)"><g clip-path="url(#aC)"><path d="M125 109.7l5.5 4-2.1 6.4 5.4-4 5.5 4-2.1-6.4 5.4-4H136l-2-6.4-2.1 6.4" fill="#fff"/></g></g><g clip-path="url(#aD)"><g clip-path="url(#aE)"><path d="M162.8 109.7l5.5 4-2.1 6.4 5.4-4 5.5 4-2.1-6.4 5.4-4h-6.7l-2-6.4-2.1 6.4" fill="#fff"/></g></g><g clip-path="url(#aF)"><g clip-path="url(#aG)"><path d="M200.6 109.7l5.5 4-2.1 6.4 5.4-4 5.5 4-2.1-6.4 5.4-4h-6.7l-2-6.4-2.1 6.4" fill="#fff"/></g></g><g clip-path="url(#aH)"><g clip-path="url(#aI)"><path d="M11.2 142l5.4 4-2 6.3 5.4-4 5.4 4-2-6.4 5.4-4H22l-2-6.3-2.1 6.4" fill="#fff"/></g></g><g clip-path="url(#aJ)"><g clip-path="url(#aK)"><path d="M49 142l5.4 4-2 6.3 5.4-4 5.4 4-2-6.4 5.4-4h-6.8l-2-6.3-2.1 6.4" fill="#fff"/></g></g><g clip-path="url(#aL)"><g clip-path="url(#aM)"><path d="M86.8 142l5.4 4-2 6.3 5.4-4 5.4 4-2-6.4 5.4-4h-6.8l-2-6.3-2.1 6.4" fill="#fff"/></g></g><g clip-path="url(#aN)"><g clip-path="url(#aO)"><path d="M124.6 142l5.4 4-2 6.3 5.4-4 5.4 4-2-6.4 5.4-4h-6.8l-2-6.3-2.1 6.4" fill="#fff"/></g></g><g clip-path="url(#aP)"><g clip-path="url(#aQ)"><path d="M162.4 142l5.4 4-2 6.3 5.4-4 5.4 4-2-6.4 5.4-4h-6.8l-2-6.3-2.1 6.4" fill="#fff"/></g></g><g clip-path="url(#aR)"><g clip-path="url(#aS)"><path d="M200.2 142l5.4 4-2 6.3 5.4-4 5.4 4-2-6.4 5.4-4H211l-2-6.3-2.1 6.4" fill="#fff"/></g></g><g clip-path="url(#aT)"><g clip-path="url(#aU)"><path d="M30.2 93.6l5.4 4-2 6.3L39 100l5.4 4-2-6.4 5.4-4H41l-2-6.4-2.1 6.4" fill="#fff"/></g></g><g clip-path="url(#aV)"><g clip-path="url(#aW)"><path d="M68 93.6l5.4 4-2 6.3 5.4-3.9 5.4 4-2-6.4 5.4-4h-6.7l-2.1-6.4-2.1 6.4" fill="#fff"/></g></g><g clip-path="url(#aX)"><g clip-path="url(#aY)"><path d="M105.8 93.6l5.4 4-2 6.3 5.4-3.9 5.4 4-2-6.4 5.4-4h-6.7l-2.1-6.4-2.1 6.4" fill="#fff"/></g></g><g clip-path="url(#aZ)"><g clip-path="url(#ba)"><path d="M143.6 93.6l5.4 4-2 6.3 5.4-3.9 5.4 4-2-6.4 5.4-4h-6.7l-2.1-6.4-2 6.4" fill="#fff"/></g></g><g clip-path="url(#bb)"><g clip-path="url(#bc)"><path d="M181.4 93.6l5.4 4-2 6.3 5.4-3.9 5.4 4-2-6.4 5.4-4h-6.7l-2.1-6.4-2.1 6.4" fill="#fff"/></g></g><g clip-path="url(#bd)"><g clip-path="url(#be)"><path d="M30 125.8l5.5 4-2 6.4 5.4-4 5.4 4-2-6.4 5.4-4h-6.8l-2-6.4-2.1 6.4" fill="#fff"/></g></g><g clip-path="url(#bf)"><g clip-path="url(#bg)"><path d="M67.9 125.8l5.4 4-2 6.4 5.4-4 5.4 4-2-6.4 5.4-4h-6.8l-2-6.4-2.1 6.4" fill="#fff"/></g></g><g clip-path="url(#bh)"><g clip-path="url(#bi)"><path d="M105.7 125.8l5.4 4-2 6.4 5.4-4 5.4 4-2-6.4 5.4-4h-6.8l-2-6.4-2.1 6.4" fill="#fff"/></g></g><g clip-path="url(#bj)"><g clip-path="url(#bk)"><path d="M143.5 125.8l5.4 4-2 6.4 5.4-4 5.4 4-2-6.4 5.4-4h-6.8l-2-6.4-2.1 6.4" fill="#fff"/></g></g><g clip-path="url(#bl)"><g clip-path="url(#bm)"><path d="M181.3 125.8l5.4 4-2 6.4 5.4-4 5.4 4-2-6.4 5.4-4H192l-2-6.4-2.1 6.4" fill="#fff"/></g></g></svg>