<svg xmlns="http://www.w3.org/2000/svg" width="400" height="400" viewBox="0 0 300 300"><defs><clipPath id="a"><path d="M150 0a150 150 0 100 300 150 150 0 000-300zm0 0"/></clipPath><clipPath id="b"><path d="M166 33h134v34H166zm0 0"/></clipPath><clipPath id="c"><path d="M150 0a150 150 0 100 300 150 150 0 000-300zm0 0"/></clipPath><clipPath id="d"><path d="M166 100h134v34H166zm0 0"/></clipPath><clipPath id="e"><path d="M150 0a150 150 0 100 300 150 150 0 000-300zm0 0"/></clipPath><clipPath id="f"><path d="M0 166h300v34H0zm0 0"/></clipPath><clipPath id="g"><path d="M150 0a150 150 0 100 300 150 150 0 000-300zm0 0"/></clipPath><clipPath id="h"><path d="M0 233h300v34H0zm0 0"/></clipPath><clipPath id="i"><path d="M150 0a150 150 0 100 300 150 150 0 000-300zm0 0"/></clipPath><clipPath id="j"><path d="M60 99h26v41H60zm0 0"/></clipPath><clipPath id="k"><path d="M150 0a150 150 0 100 300 150 150 0 000-300zm0 0"/></clipPath><clipPath id="l"><path d="M51 91h43v57H51zm0 0"/></clipPath><clipPath id="m"><path d="M150 0a150 150 0 100 300 150 150 0 000-300zm0 0"/></clipPath><clipPath id="n"><path d="M51 93h34v55H51zm0 0"/></clipPath><clipPath id="o"><path d="M150 0a150 150 0 100 300 150 150 0 000-300zm0 0"/></clipPath><clipPath id="p"><path d="M72 83h23v61H72zm0 0"/></clipPath><clipPath id="q"><path d="M150 0a150 150 0 100 300 150 150 0 000-300zm0 0"/></clipPath><clipPath id="r"><path d="M63 74h40v79H63zm0 0"/></clipPath><clipPath id="s"><path d="M150 0a150 150 0 100 300 150 150 0 000-300zm0 0"/></clipPath><clipPath id="t"><path d="M27 89h43v20H27zm0 0"/></clipPath><clipPath id="u"><path d="M150 0a150 150 0 100 300 150 150 0 000-300zm0 0"/></clipPath><clipPath id="v"><path d="M18 80h60v38H18zm0 0"/></clipPath><clipPath id="w"><path d="M150 0a150 150 0 100 300 150 150 0 000-300zm0 0"/></clipPath><clipPath id="x"><path d="M18 82h56v34H18zm0 0"/></clipPath><clipPath id="y"><path d="M150 0a150 150 0 100 300 150 150 0 000-300zm0 0"/></clipPath><clipPath id="z"><path d="M40 75h52v52H40zm0 0"/></clipPath><clipPath id="A"><path d="M150 0a150 150 0 100 300 150 150 0 000-300zm0 0"/></clipPath><clipPath id="B"><path d="M32 67h68v68H32zm0 0"/></clipPath><clipPath id="C"><path d="M150 0a150 150 0 100 300 150 150 0 000-300zm0 0"/></clipPath><clipPath id="D"><path d="M27 60h41v26H27zm0 0"/></clipPath><clipPath id="E"><path d="M150 0a150 150 0 100 300 150 150 0 000-300zm0 0"/></clipPath><clipPath id="F"><path d="M18 51h58v43H18zm0 0"/></clipPath><clipPath id="G"><path d="M150 0a150 150 0 100 300 150 150 0 000-300zm0 0"/></clipPath><clipPath id="H"><path d="M18 51h56v34H18zm0 0"/></clipPath><clipPath id="I"><path d="M150 0a150 150 0 100 300 150 150 0 000-300zm0 0"/></clipPath><clipPath id="J"><path d="M22 72h62v23H22zm0 0"/></clipPath><clipPath id="K"><path d="M150 0a150 150 0 100 300 150 150 0 000-300zm0 0"/></clipPath><clipPath id="L"><path d="M14 63h78v40H14zm0 0"/></clipPath><clipPath id="M"><path d="M150 0a150 150 0 100 300 150 150 0 000-300zm0 0"/></clipPath><clipPath id="N"><path d="M58 27h20v43H58zm0 0"/></clipPath><clipPath id="O"><path d="M150 0a150 150 0 100 300 150 150 0 000-300zm0 0"/></clipPath><clipPath id="P"><path d="M49 18h37v60H49zm0 0"/></clipPath><clipPath id="Q"><path d="M150 0a150 150 0 100 300 150 150 0 000-300zm0 0"/></clipPath><clipPath id="R"><path d="M50 18h35v56H50zm0 0"/></clipPath><clipPath id="S"><path d="M150 0a150 150 0 100 300 150 150 0 000-300zm0 0"/></clipPath><clipPath id="T"><path d="M40 40h52v52H40zm0 0"/></clipPath><clipPath id="U"><path d="M150 0a150 150 0 100 300 150 150 0 000-300zm0 0"/></clipPath><clipPath id="V"><path d="M32 32h68v68H32zm0 0"/></clipPath><clipPath id="W"><path d="M150 0a150 150 0 100 300 150 150 0 000-300zm0 0"/></clipPath><clipPath id="X"><path d="M81 27h26v41H81zm0 0"/></clipPath><clipPath id="Y"><path d="M150 0a150 150 0 100 300 150 150 0 000-300zm0 0"/></clipPath><clipPath id="Z"><path d="M73 18h42v58H73zm0 0"/></clipPath><clipPath id="aa"><path d="M150 0a150 150 0 100 300 150 150 0 000-300zm0 0"/></clipPath><clipPath id="ab"><path d="M82 18h33v56H82zm0 0"/></clipPath><clipPath id="ac"><path d="M150 0a150 150 0 100 300 150 150 0 000-300zm0 0"/></clipPath><clipPath id="ad"><path d="M72 22h23v62H72zm0 0"/></clipPath><clipPath id="ae"><path d="M150 0a150 150 0 100 300 150 150 0 000-300zm0 0"/></clipPath><clipPath id="af"><path d="M63 14h40v78H63zm0 0"/></clipPath><clipPath id="ag"><path d="M150 0a150 150 0 100 300 150 150 0 000-300zm0 0"/></clipPath><clipPath id="ah"><path d="M97 58h43v20H97zm0 0"/></clipPath><clipPath id="ai"><path d="M150 0a150 150 0 100 300 150 150 0 000-300zm0 0"/></clipPath><clipPath id="aj"><path d="M89 49h59v37H89zm0 0"/></clipPath><clipPath id="ak"><path d="M150 0a150 150 0 100 300 150 150 0 000-300zm0 0"/></clipPath><clipPath id="al"><path d="M93 50h55v35H93zm0 0"/></clipPath><clipPath id="am"><path d="M150 0a150 150 0 100 300 150 150 0 000-300zm0 0"/></clipPath><clipPath id="an"><path d="M75 40h52v52H75zm0 0"/></clipPath><clipPath id="ao"><path d="M150 0a150 150 0 100 300 150 150 0 000-300zm0 0"/></clipPath><clipPath id="ap"><path d="M67 32h68v68H67zm0 0"/></clipPath><clipPath id="aq"><path d="M150 0a150 150 0 100 300 150 150 0 000-300zm0 0"/></clipPath><clipPath id="ar"><path d="M99 81h41v26H99zm0 0"/></clipPath><clipPath id="as"><path d="M150 0a150 150 0 100 300 150 150 0 000-300zm0 0"/></clipPath><clipPath id="at"><path d="M91 73h57v42H91zm0 0"/></clipPath><clipPath id="au"><path d="M150 0a150 150 0 100 300 150 150 0 000-300zm0 0"/></clipPath><clipPath id="av"><path d="M93 82h55v33H93zm0 0"/></clipPath><clipPath id="aw"><path d="M150 0a150 150 0 100 300 150 150 0 000-300zm0 0"/></clipPath><clipPath id="ax"><path d="M83 72h61v23H83zm0 0"/></clipPath><clipPath id="ay"><path d="M150 0a150 150 0 100 300 150 150 0 000-300zm0 0"/></clipPath><clipPath id="az"><path d="M74 63h79v40H74zm0 0"/></clipPath><clipPath id="aA"><path d="M150 0a150 150 0 100 300 150 150 0 000-300zm0 0"/></clipPath><clipPath id="aB"><path d="M89 97h20v43H89zm0 0"/></clipPath><clipPath id="aC"><path d="M150 0a150 150 0 100 300 150 150 0 000-300zm0 0"/></clipPath><clipPath id="aD"><path d="M80 89h38v59H80zm0 0"/></clipPath><clipPath id="aE"><path d="M150 0a150 150 0 100 300 150 150 0 000-300zm0 0"/></clipPath><clipPath id="aF"><path d="M82 93h34v55H82zm0 0"/></clipPath><clipPath id="aG"><path d="M150 0a150 150 0 100 300 150 150 0 000-300zm0 0"/></clipPath><clipPath id="aH"><path d="M75 75h52v52H75zm0 0"/></clipPath><clipPath id="aI"><path d="M150 0a150 150 0 100 300 150 150 0 000-300zm0 0"/></clipPath><clipPath id="aJ"><path d="M67 67h68v68H67zm0 0"/></clipPath><clipPath id="aK"><path d="M150 0a150 150 0 100 300 150 150 0 000-300zm0 0"/></clipPath><clipPath id="aL"><path d="M63 63h41v41H63zm0 0"/></clipPath><clipPath id="aM"><path d="M150 0a150 150 0 100 300 150 150 0 000-300zm0 0"/></clipPath><clipPath id="aN"><path d="M54 54h58v58H54zm0 0"/></clipPath><clipPath id="aO"><path d="M150 0a150 150 0 100 300 150 150 0 000-300zm0 0"/></clipPath><clipPath id="aP"><path d="M85 72h14v9H85zm0 0"/></clipPath><clipPath id="aQ"><path d="M150 0a150 150 0 100 300 150 150 0 000-300zm0 0"/></clipPath><clipPath id="aR"><path d="M86 76h12v5H86zm0 0"/></clipPath><clipPath id="aS"><path d="M150 0a150 150 0 100 300 150 150 0 000-300zm0 0"/></clipPath><clipPath id="aT"><path d="M82 76h13v20H82zm0 0"/></clipPath><clipPath id="aU"><path d="M150 0a150 150 0 100 300 150 150 0 000-300zm0 0"/></clipPath><clipPath id="aV"><path d="M68 72h14v9H68zm0 0"/></clipPath><clipPath id="aW"><path d="M150 0a150 150 0 100 300 150 150 0 000-300zm0 0"/></clipPath><clipPath id="aX"><path d="M69 76h11v5H69zm0 0"/></clipPath><clipPath id="aY"><path d="M150 0a150 150 0 100 300 150 150 0 000-300zm0 0"/></clipPath><clipPath id="aZ"><path d="M71 76h14v20H71zm0 0"/></clipPath><clipPath id="ba"><path d="M150 0a150 150 0 100 300 150 150 0 000-300zm0 0"/></clipPath><clipPath id="bb"><path d="M81 97h5v1h-5zm0 0"/></clipPath><clipPath id="bc"><path d="M150 0a150 150 0 100 300 150 150 0 000-300zm0 0"/></clipPath></defs><g clip-path="url(#a)"><path fill="#fff" d="M0 0h300v300H0z"/></g><g clip-path="url(#b)"><g clip-path="url(#c)"><path d="M166.7 66.7H450V33.3H166.7zm0 0" fill="#0038a8"/></g></g><g clip-path="url(#d)"><g clip-path="url(#e)"><path d="M166.7 133.3H450V100H166.7zm0 0" fill="#0038a8"/></g></g><g clip-path="url(#f)"><g clip-path="url(#g)"><path d="M0 200h450v-33.3H0zm0 0" fill="#0038a8"/></g></g><g clip-path="url(#h)"><g clip-path="url(#i)"><path d="M0 266.7h450v-33.4H0zm0 0" fill="#0038a8"/></g></g><g clip-path="url(#j)"><g clip-path="url(#k)"><path d="M79.6 99.6L85 108c-22.7 16.4-8.9 26-25 31.3 10-9.7-1.5-10.5 7-30.9" fill="#fbd115"/></g></g><g clip-path="url(#l)"><g clip-path="url(#m)"><path d="M79.6 99.6L85 108c-22.7 16.4-8.9 26-25 31.3 10-9.7-1.5-10.5 7-30.9" fill="none" stroke-width=".3" stroke-linecap="square" stroke="#000" stroke-miterlimit="20"/></g></g><g clip-path="url(#n)"><g clip-path="url(#o)"><path d="M75.6 102c-12.5 20.6-4.3 32-15.4 37.2" fill="none" stroke-width=".3" stroke="#000" stroke-miterlimit="20"/></g></g><g clip-path="url(#p)"><g clip-path="url(#q)"><path d="M83.3 83.3h11l-11 60.5-11-60.5h11v60.5" fill="#fbd115"/></g></g><g clip-path="url(#r)"><g clip-path="url(#s)"><path d="M83.3 83.3h11l-11 60.5-11-60.5h11v60.5" fill="none" stroke-width=".3" stroke="#000" stroke-miterlimit="20"/></g></g><g clip-path="url(#t)"><g clip-path="url(#u)"><path d="M69.1 92.2l-1.9 9.7c-27.6-4.4-24.7 12.2-39.8 4.6 14 .2 6.4-8.6 26.7-17" fill="#fbd115"/></g></g><g clip-path="url(#v)"><g clip-path="url(#w)"><path d="M69.1 92.2l-1.9 9.7c-27.6-4.4-24.7 12.2-39.8 4.6 14 .2 6.4-8.6 26.7-17" fill="none" stroke-width=".3" stroke-linecap="square" stroke="#000" stroke-miterlimit="20"/></g></g><g clip-path="url(#x)"><g clip-path="url(#y)"><path d="M64.7 91c-23.4 5.8-25.6 19.6-37.3 15.5" fill="none" stroke-width=".3" stroke="#000" stroke-miterlimit="20"/></g></g><g clip-path="url(#z)"><g clip-path="url(#A)"><path d="M83.3 83.3l7.8 7.8-50.5 35 35-50.5 7.7 7.7-42.7 42.8" fill="#fbd115"/></g></g><g clip-path="url(#B)"><g clip-path="url(#C)"><path d="M83.3 83.3l7.8 7.8-50.5 35 35-50.5 7.7 7.7-42.7 42.8" fill="none" stroke-width=".3" stroke="#000" stroke-miterlimit="20"/></g></g><g clip-path="url(#D)"><g clip-path="url(#E)"><path d="M67 79.6L58.8 85c-16.4-22.7-26.1-8.9-31.4-25 9.8 10 10.6-1.5 31 7" fill="#fbd115"/></g></g><g clip-path="url(#F)"><g clip-path="url(#G)"><path d="M67 79.6L58.8 85c-16.4-22.7-26.1-8.9-31.4-25 9.8 10 10.6-1.5 31 7" fill="none" stroke-width=".3" stroke-linecap="square" stroke="#000" stroke-miterlimit="20"/></g></g><g clip-path="url(#H)"><g clip-path="url(#I)"><path d="M64.7 75.6c-20.6-12.5-32-4.3-37.3-15.4" fill="none" stroke-width=".3" stroke="#000" stroke-miterlimit="20"/></g></g><g clip-path="url(#J)"><g clip-path="url(#K)"><path d="M83.3 83.3v11l-60.5-11 60.5-11v11H22.8" fill="#fbd115"/></g></g><g clip-path="url(#L)"><g clip-path="url(#M)"><path d="M83.3 83.3v11l-60.5-11 60.5-11v11H22.8" fill="none" stroke-width=".3" stroke="#000" stroke-miterlimit="20"/></g></g><g clip-path="url(#N)"><g clip-path="url(#O)"><path d="M74.5 69.1l-9.8-1.9c4.5-27.6-12.2-24.7-4.5-39.8-.2 14 8.6 6.4 17 26.7" fill="#fbd115"/></g></g><g clip-path="url(#P)"><g clip-path="url(#Q)"><path d="M74.5 69.1l-9.8-1.9c4.5-27.6-12.2-24.7-4.5-39.8-.2 14 8.6 6.4 17 26.7" fill="none" stroke-width=".3" stroke-linecap="square" stroke="#000" stroke-miterlimit="20"/></g></g><g clip-path="url(#R)"><g clip-path="url(#S)"><path d="M75.6 64.7C70 41.3 56.1 39.1 60.2 27.4" fill="none" stroke-width=".3" stroke="#000" stroke-miterlimit="20"/></g></g><g clip-path="url(#T)"><g clip-path="url(#U)"><path d="M83.3 83.3l-7.7 7.8-35-50.5 50.5 35-7.8 7.7-42.7-42.7" fill="#fbd115"/></g></g><g clip-path="url(#V)"><g clip-path="url(#W)"><path d="M83.3 83.3l-7.7 7.8-35-50.5 50.5 35-7.8 7.7-42.7-42.7" fill="none" stroke-width=".3" stroke="#000" stroke-miterlimit="20"/></g></g><g clip-path="url(#X)"><g clip-path="url(#Y)"><path d="M87.1 67l-5.5-8.2c22.7-16.4 8.8-26.1 24.9-31.4-10 9.8 1.6 10.6-6.9 31" fill="#fbd115"/></g></g><g clip-path="url(#Z)"><g clip-path="url(#aa)"><path d="M87.1 67l-5.5-8.2c22.7-16.4 8.8-26.1 24.9-31.4-10 9.8 1.6 10.6-6.9 31" fill="none" stroke-width=".3" stroke-linecap="square" stroke="#000" stroke-miterlimit="20"/></g></g><g clip-path="url(#ab)"><g clip-path="url(#ac)"><path d="M91 64.7c12.6-20.6 4.4-32 15.5-37.3" fill="none" stroke-width=".3" stroke="#000" stroke-miterlimit="20"/></g></g><g clip-path="url(#ad)"><g clip-path="url(#ae)"><path d="M83.3 83.3h-11l11-60.5 11 60.5h-11V22.8" fill="#fbd115"/></g></g><g clip-path="url(#af)"><g clip-path="url(#ag)"><path d="M83.3 83.3h-11l11-60.5 11 60.5h-11V22.8" fill="none" stroke-width=".3" stroke="#000" stroke-miterlimit="20"/></g></g><g clip-path="url(#ah)"><g clip-path="url(#ai)"><path d="M97.5 74.5l2-9.7c27.6 4.4 24.7-12.3 39.7-4.6-14-.2-6.3 8.6-26.7 17" fill="#fbd115"/></g></g><g clip-path="url(#aj)"><g clip-path="url(#ak)"><path d="M97.5 74.5l2-9.7c27.6 4.4 24.7-12.3 39.7-4.6-14-.2-6.3 8.6-26.7 17" fill="none" stroke-width=".3" stroke-linecap="square" stroke="#000" stroke-miterlimit="20"/></g></g><g clip-path="url(#al)"><g clip-path="url(#am)"><path d="M102 75.6c23.4-5.7 25.6-19.5 37.2-15.4" fill="none" stroke-width=".3" stroke="#000" stroke-miterlimit="20"/></g></g><g clip-path="url(#an)"><g clip-path="url(#ao)"><path d="M83.3 83.3l-7.7-7.7 50.5-35-35 50.5-7.8-7.8 42.8-42.7" fill="#fbd115"/></g></g><g clip-path="url(#ap)"><g clip-path="url(#aq)"><path d="M83.3 83.3l-7.7-7.7 50.5-35-35 50.5-7.8-7.8 42.8-42.7" fill="none" stroke-width=".3" stroke="#000" stroke-miterlimit="20"/></g></g><g clip-path="url(#ar)"><g clip-path="url(#as)"><path d="M99.6 87.1l8.3-5.5c16.4 22.7 26 8.8 31.3 24.9-9.7-10-10.5 1.6-30.9-6.9" fill="#fbd115"/></g></g><g clip-path="url(#at)"><g clip-path="url(#au)"><path d="M99.6 87.1l8.3-5.5c16.4 22.7 26 8.8 31.3 24.9-9.7-10-10.5 1.6-30.9-6.9" fill="none" stroke-width=".3" stroke-linecap="square" stroke="#000" stroke-miterlimit="20"/></g></g><g clip-path="url(#av)"><g clip-path="url(#aw)"><path d="M102 91c20.6 12.6 32 4.4 37.2 15.5" fill="none" stroke-width=".3" stroke="#000" stroke-miterlimit="20"/></g></g><g clip-path="url(#ax)"><g clip-path="url(#ay)"><path d="M83.3 83.3v-11l60.5 11-60.5 11v-11h60.5" fill="#fbd115"/></g></g><g clip-path="url(#az)"><g clip-path="url(#aA)"><path d="M83.3 83.3v-11l60.5 11-60.5 11v-11h60.5" fill="none" stroke-width=".3" stroke="#000" stroke-miterlimit="20"/></g></g><g clip-path="url(#aB)"><g clip-path="url(#aC)"><path d="M92.2 97.5l9.7 2c-4.4 27.6 12.2 24.7 4.6 39.7.2-14-8.6-6.3-17-26.7" fill="#fbd115"/></g></g><g clip-path="url(#aD)"><g clip-path="url(#aE)"><path d="M92.2 97.5l9.7 2c-4.4 27.6 12.2 24.7 4.6 39.7.2-14-8.6-6.3-17-26.7" fill="none" stroke-width=".3" stroke-linecap="square" stroke="#000" stroke-miterlimit="20"/></g></g><g clip-path="url(#aF)"><g clip-path="url(#aG)"><path d="M91 102c5.8 23.4 19.6 25.6 15.5 37.2" fill="none" stroke-width=".3" stroke="#000" stroke-miterlimit="20"/></g></g><g clip-path="url(#aH)"><g clip-path="url(#aI)"><path d="M83.3 83.3l7.8-7.7 35 50.5-50.5-35 7.7-7.8 42.8 42.8" fill="#fbd115"/></g></g><g clip-path="url(#aJ)"><g clip-path="url(#aK)"><path d="M83.3 83.3l7.8-7.7 35 50.5-50.5-35 7.7-7.8 42.8 42.8" fill="none" stroke-width=".3" stroke="#000" stroke-miterlimit="20"/></g></g><g clip-path="url(#aL)"><g clip-path="url(#aM)"><path d="M83.3 63.2a20.2 20.2 0 110 40.3 20.2 20.2 0 010-40.3" fill="#fbd115"/></g></g><g clip-path="url(#aN)"><g clip-path="url(#aO)"><path d="M83.3 63.2a20.2 20.2 0 110 40.3 20.2 20.2 0 010-40.3zm0 0" fill="none" stroke-width=".3" stroke="#000" stroke-miterlimit="20"/></g></g><g clip-path="url(#aP)"><g clip-path="url(#aQ)"><path d="M92.9 77c1.2 1 .2 3.4-1.1 3.4s-3.7-2.2-2.6-3.7m9-1.4c-1.3 1.4-2-1.1-6.6-1.1s-5.3 2.7-6 2.2c-.8-.6 3.8-3.9 5.2-4a13 13 0 017.4 2.9"/></g></g><g clip-path="url(#aR)"><g clip-path="url(#aS)"><path d="M87.4 79.1c.7-1 1.6 1.1 3.6 1.1s3.1-.5 4.4-1.4c1.3-1-1.8 2.2-3.8 2.2s-4.8-1.1-4.2-1.9m-.6-.5c.2-2.2 2-2.6 5-2.6 2.9 0 4.2 2.2 5.3 2.8-1.3 0-2.4-1.9-5.3-1.9-3 0-3 0-5 1.9"/></g></g><g clip-path="url(#aT)"><g clip-path="url(#aU)"><path d="M83.3 88.8c1.3 0 1.7-.9 3.1-.9s3.5.6 4.5 1.3c.1.2-.6-1.5-2-1.6-1.5-.2-1-2.6-2.6-3 0 .8.5.6.7 1.7 0 .9-1.6.9-2 0 .4 1.4-.8 1.4-1.7 1.4m0 8c4.6 0 3.9-1 10-3.6-4.5.6-5.4 2-10 2h-.9m11.6-.3l-2-3c1.4 1.1 1.8 1.7 2 3m-10.7-2.6c1.1 0 1.5-.3 3-.3 1.4 0 5 2 7 1.2-4.3 1.7-2.6.6-10 .6h-.9m11.2-12.5c2.4-1.3 1-3.1 0-3.5.4.4 1.8 2.2 0 3.5"/></g></g><g clip-path="url(#aV)"><g clip-path="url(#aW)"><path d="M73.8 77c-1.3 1-.2 3.4 1.1 3.4s3.7-2.2 2.6-3.7m-9-1.4c1.3 1.4 2-1.1 6.6-1.1s5.3 2.7 6 2.2c.8-.6-3.8-3.9-5.3-4a13 13 0 00-7.3 2.9"/></g></g><g clip-path="url(#aX)"><g clip-path="url(#aY)"><path d="M79.3 79.1c-.7-1-1.7 1.1-3.7 1.1s-3-.5-4.4-1.4c-1.3-1 1.9 2.2 3.9 2.2s4.7-1.1 4.2-1.9m.5-.5c-.1-2.2-2-2.6-4.9-2.6-3 0-4.2 2.2-5.3 2.8 1.3 0 2.4-1.9 5.3-1.9 3 0 3 0 5 1.9"/></g></g><g clip-path="url(#aZ)"><g clip-path="url(#ba)"><path d="M83.3 88.8c-1.2 0-1.6-.9-3-.9-1.6 0-3.6.6-4.5 1.3-.2.2.6-1.5 2-1.6 1.5-.2 1-2.6 2.6-3 0 .8-.5.6-.7 1.7 0 .9 1.6.9 2 0-.4 1.4.7 1.4 1.6 1.4m0 8c-4.6 0-3.8-1-9.9-3.6 4.4.6 5.3 2 10 2h.8m-11.5-.3c.7-1.3.6-1 2-3-1.4 1.1-1.8 1.7-2 3m10.6-2.6c-1 0-1.4-.3-2.9-.3s-5 2-7 1.2c4.2 1.7 2.6.6 10 .6h.8M73.2 80.2c-2.4-1.3-1-3.1 0-3.5-.4.4-1.9 2.2 0 3.5"/></g></g><g clip-path="url(#bb)"><g clip-path="url(#bc)"><path d="M83.3 97.3c-.9 0-3.3.5 0 .5s1-.5 0-.5"/></g></g></svg>