<svg xmlns="http://www.w3.org/2000/svg" width="400" height="400" viewBox="0 0 300 300"><defs><clipPath id="a"><path d="M0 0h300v96H0zm0 0"/></clipPath><clipPath id="b"><path d="M150 0a150 150 0 100 300 150 150 0 000-300zm0 0"/></clipPath><clipPath id="c"><path d="M0 96h300v108H0zm0 0"/></clipPath><clipPath id="d"><path d="M150 0a150 150 0 100 300 150 150 0 000-300zm0 0"/></clipPath><clipPath id="e"><path d="M0 102h300v96H0zm0 0"/></clipPath><clipPath id="f"><path d="M150 0a150 150 0 100 300 150 150 0 000-300zm0 0"/></clipPath><clipPath id="g"><path d="M0 204h300v96H0zm0 0"/></clipPath><clipPath id="h"><path d="M150 0a150 150 0 100 300 150 150 0 000-300zm0 0"/></clipPath><clipPath id="i"><path d="M48 12h72v72H48zm0 0"/></clipPath><clipPath id="j"><path d="M150 0a150 150 0 100 300 150 150 0 000-300zm0 0"/></clipPath><clipPath id="k"><path d="M60 12h72v72H60zm0 0"/></clipPath><clipPath id="l"><path d="M150 0a150 150 0 100 300 150 150 0 000-300zm0 0"/></clipPath><clipPath id="m"><path d="M156 12h14v14h-14zm0 0"/></clipPath><clipPath id="n"><path d="M150 0a150 150 0 100 300 150 150 0 000-300zm0 0"/></clipPath><clipPath id="o"><path d="M184 12h15v14h-15zm0 0"/></clipPath><clipPath id="p"><path d="M150 0a150 150 0 100 300 150 150 0 000-300zm0 0"/></clipPath><clipPath id="q"><path d="M213 12h15v14h-15zm0 0"/></clipPath><clipPath id="r"><path d="M150 0a150 150 0 100 300 150 150 0 000-300zm0 0"/></clipPath><clipPath id="s"><path d="M156 40h15v14h-15zm0 0"/></clipPath><clipPath id="t"><path d="M150 0a150 150 0 100 300 150 150 0 000-300zm0 0"/></clipPath><clipPath id="u"><path d="M185 40h15v14h-15zm0 0"/></clipPath><clipPath id="v"><path d="M150 0a150 150 0 100 300 150 150 0 000-300zm0 0"/></clipPath><clipPath id="w"><path d="M214 40h14v14h-14zm0 0"/></clipPath><clipPath id="x"><path d="M150 0a150 150 0 100 300 150 150 0 000-300zm0 0"/></clipPath><clipPath id="y"><path d="M127 40h15v14h-15zm0 0"/></clipPath><clipPath id="z"><path d="M150 0a150 150 0 100 300 150 150 0 000-300zm0 0"/></clipPath><clipPath id="A"><path d="M156 69h15v14h-15zm0 0"/></clipPath><clipPath id="B"><path d="M150 0a150 150 0 100 300 150 150 0 000-300zm0 0"/></clipPath><clipPath id="C"><path d="M185 69h14v14h-14zm0 0"/></clipPath><clipPath id="D"><path d="M150 0a150 150 0 100 300 150 150 0 000-300zm0 0"/></clipPath><clipPath id="E"><path d="M213 69h15v14h-15zm0 0"/></clipPath><clipPath id="F"><path d="M150 0a150 150 0 100 300 150 150 0 000-300zm0 0"/></clipPath><clipPath id="G"><path d="M127 69h15v14h-15zm0 0"/></clipPath><clipPath id="H"><path d="M150 0a150 150 0 100 300 150 150 0 000-300zm0 0"/></clipPath><clipPath id="I"><path d="M98 69h15v14H98zm0 0"/></clipPath><clipPath id="J"><path d="M150 0a150 150 0 100 300 150 150 0 000-300zm0 0"/></clipPath></defs><g clip-path="url(#a)"><g clip-path="url(#b)"><path d="M0 96h600V0H0zm0 0" fill="#0099b5"/></g></g><g clip-path="url(#c)"><g clip-path="url(#d)"><path d="M0 204h600V96H0zm0 0" fill="#ce1125"/></g></g><g clip-path="url(#e)"><g clip-path="url(#f)"><path d="M0 198h600v-96H0zm0 0" fill="#fff"/></g></g><g clip-path="url(#g)"><g clip-path="url(#h)"><path d="M0 300h600v-96H0zm0 0" fill="#1eb539"/></g></g><g clip-path="url(#i)"><g clip-path="url(#j)"><path d="M84 12a36 36 0 110 72 36 36 0 010-72" fill="#fff"/></g></g><g clip-path="url(#k)"><g clip-path="url(#l)"><path d="M96 12a36 36 0 110 72 36 36 0 010-72" fill="#0099b5"/></g></g><g clip-path="url(#m)"><g clip-path="url(#n)"><path d="M156.2 17l4.2 3-1.6 5 4.2-3 4.3 3-1.6-5 4.2-3h-5.2l-1.7-5-1.6 5" fill="#fff"/></g></g><g clip-path="url(#o)"><g clip-path="url(#p)"><path d="M185 17l4.2 3-1.6 5 4.2-3 4.3 3-1.6-5 4.2-3h-5.2l-1.7-5-1.6 5" fill="#fff"/></g></g><g clip-path="url(#q)"><g clip-path="url(#r)"><path d="M213.8 17l4.2 3-1.6 5 4.2-3 4.3 3-1.6-5 4.2-3h-5.2l-1.7-5-1.6 5" fill="#fff"/></g></g><g clip-path="url(#s)"><g clip-path="url(#t)"><path d="M156.7 45.8l4.2 3-1.6 5 4.3-3 4.2 3-1.6-5 4.2-3h-5.2l-1.6-5-1.7 5" fill="#fff"/></g></g><g clip-path="url(#u)"><g clip-path="url(#v)"><path d="M185.5 45.8l4.2 3-1.6 5 4.3-3 4.2 3-1.6-5 4.2-3H194l-1.6-5-1.7 5" fill="#fff"/></g></g><g clip-path="url(#w)"><g clip-path="url(#x)"><path d="M214.3 45.8l4.2 3-1.6 5 4.3-3 4.2 3-1.6-5 4.2-3h-5.2l-1.6-5-1.7 5" fill="#fff"/></g></g><g clip-path="url(#y)"><g clip-path="url(#z)"><path d="M127.9 45.8l4.2 3-1.6 5 4.3-3 4.2 3-1.6-5 4.2-3h-5.2l-1.6-5-1.7 5" fill="#fff"/></g></g><g clip-path="url(#A)"><g clip-path="url(#B)"><path d="M156.4 74.6l4.2 3-1.6 5 4.2-3 4.2 3-1.6-5 4.2-3h-5.2l-1.6-5-1.6 5" fill="#fff"/></g></g><g clip-path="url(#C)"><g clip-path="url(#D)"><path d="M185.2 74.6l4.2 3-1.6 5 4.2-3 4.2 3-1.6-5 4.2-3h-5.2l-1.6-5-1.6 5" fill="#fff"/></g></g><g clip-path="url(#E)"><g clip-path="url(#F)"><path d="M214 74.6l4.2 3-1.6 5 4.2-3 4.2 3-1.6-5 4.2-3h-5.2l-1.6-5-1.6 5" fill="#fff"/></g></g><g clip-path="url(#G)"><g clip-path="url(#H)"><path d="M127.5 74.6l4.3 3-1.6 5 4.2-3 4.2 3-1.6-5 4.2-3H136l-1.6-5-1.6 5" fill="#fff"/></g></g><g clip-path="url(#I)"><g clip-path="url(#J)"><path d="M98.8 74.6l4.2 3-1.6 5 4.2-3 4.2 3-1.6-5 4.2-3h-5.2l-1.6-5-1.6 5" fill="#fff"/></g></g></svg>