<svg xmlns="http://www.w3.org/2000/svg" width="400" height="400" viewBox="0 0 300 300"><defs><clipPath id="a"><path d="M0 19h300v262H0zm0 0"/></clipPath><clipPath id="b"><path d="M150 0a150 150 0 100 300 150 150 0 000-300zm0 0"/></clipPath><clipPath id="c"><path d="M0 0h300v127H0zm0 0"/></clipPath><clipPath id="d"><path d="M150 0a150 150 0 100 300 150 150 0 000-300zm0 0"/></clipPath><clipPath id="e"><path d="M0 173h300v127H0zm0 0"/></clipPath><clipPath id="f"><path d="M150 0a150 150 0 100 300 150 150 0 000-300zm0 0"/></clipPath><clipPath id="g"><path d="M0 37h300v226H0zm0 0"/></clipPath><clipPath id="h"><path d="M150 0a150 150 0 100 300 150 150 0 000-300zm0 0"/></clipPath><clipPath id="i"><path d="M26 110h71v80H26zm0 0"/></clipPath><clipPath id="j"><path d="M150 0a150 150 0 100 300 150 150 0 000-300zm0 0"/></clipPath><clipPath id="k"><path d="M45 147h3v6h-3zm0 0"/></clipPath><clipPath id="l"><path d="M150 0a150 150 0 100 300 150 150 0 000-300zm0 0"/></clipPath><clipPath id="m"><path d="M47 145h3v6h-3zm0 0"/></clipPath><clipPath id="n"><path d="M150 0a150 150 0 100 300 150 150 0 000-300zm0 0"/></clipPath><clipPath id="o"><path d="M49 143h3v7h-3zm0 0"/></clipPath><clipPath id="p"><path d="M150 0a150 150 0 100 300 150 150 0 000-300zm0 0"/></clipPath><clipPath id="q"><path d="M51 141h3v6h-3zm0 0"/></clipPath><clipPath id="r"><path d="M150 0a150 150 0 100 300 150 150 0 000-300zm0 0"/></clipPath><clipPath id="s"><path d="M53 139h3v5h-3zm0 0"/></clipPath><clipPath id="t"><path d="M150 0a150 150 0 100 300 150 150 0 000-300zm0 0"/></clipPath><clipPath id="u"><path d="M55 137h3v5h-3zm0 0"/></clipPath><clipPath id="v"><path d="M150 0a150 150 0 100 300 150 150 0 000-300zm0 0"/></clipPath><clipPath id="w"><path d="M58 135h2v5h-2zm0 0"/></clipPath><clipPath id="x"><path d="M150 0a150 150 0 100 300 150 150 0 000-300zm0 0"/></clipPath><clipPath id="y"><path d="M60 133h3v5h-3zm0 0"/></clipPath><clipPath id="z"><path d="M150 0a150 150 0 100 300 150 150 0 000-300zm0 0"/></clipPath><clipPath id="A"><path d="M62 132h3v5h-3zm0 0"/></clipPath><clipPath id="B"><path d="M150 0a150 150 0 100 300 150 150 0 000-300zm0 0"/></clipPath><clipPath id="C"><path d="M64 130h3v5h-3zm0 0"/></clipPath><clipPath id="D"><path d="M150 0a150 150 0 100 300 150 150 0 000-300zm0 0"/></clipPath><clipPath id="E"><path d="M66 130h4v4h-4zm0 0"/></clipPath><clipPath id="F"><path d="M150 0a150 150 0 100 300 150 150 0 000-300zm0 0"/></clipPath><clipPath id="G"><path d="M68 130h3v3h-3zm0 0"/></clipPath><clipPath id="H"><path d="M150 0a150 150 0 100 300 150 150 0 000-300zm0 0"/></clipPath><clipPath id="I"><path d="M46 151h7v4h-7zm0 0"/></clipPath><clipPath id="J"><path d="M150 0a150 150 0 100 300 150 150 0 000-300zm0 0"/></clipPath><clipPath id="K"><path d="M48 149h6v3h-6zm0 0"/></clipPath><clipPath id="L"><path d="M150 0a150 150 0 100 300 150 150 0 000-300zm0 0"/></clipPath><clipPath id="M"><path d="M49 146h6v5h-6zm0 0"/></clipPath><clipPath id="N"><path d="M150 0a150 150 0 100 300 150 150 0 000-300zm0 0"/></clipPath><clipPath id="O"><path d="M51 144h7v4h-7zm0 0"/></clipPath><clipPath id="P"><path d="M150 0a150 150 0 100 300 150 150 0 000-300zm0 0"/></clipPath><clipPath id="Q"><path d="M54 141h6v4h-6zm0 0"/></clipPath><clipPath id="R"><path d="M150 0a150 150 0 100 300 150 150 0 000-300zm0 0"/></clipPath><clipPath id="S"><path d="M56 139h7v3h-7zm0 0"/></clipPath><clipPath id="T"><path d="M150 0a150 150 0 100 300 150 150 0 000-300zm0 0"/></clipPath><clipPath id="U"><path d="M59 137h6v2h-6zm0 0"/></clipPath><clipPath id="V"><path d="M150 0a150 150 0 100 300 150 150 0 000-300zm0 0"/></clipPath><clipPath id="W"><path d="M61 135h6v2h-6zm0 0"/></clipPath><clipPath id="X"><path d="M150 0a150 150 0 100 300 150 150 0 000-300zm0 0"/></clipPath><clipPath id="Y"><path d="M63 134h7v2h-7zm0 0"/></clipPath><clipPath id="Z"><path d="M150 0a150 150 0 100 300 150 150 0 000-300zm0 0"/></clipPath><clipPath id="aa"><path d="M66 132h6v2h-6zm0 0"/></clipPath><clipPath id="ab"><path d="M150 0a150 150 0 100 300 150 150 0 000-300zm0 0"/></clipPath><clipPath id="ac"><path d="M45 132h24v25H45zm0 0"/></clipPath><clipPath id="ad"><path d="M150 0a150 150 0 100 300 150 150 0 000-300zm0 0"/></clipPath><clipPath id="ae"><path d="M69 147h3v6h-3zm0 0"/></clipPath><clipPath id="af"><path d="M150 0a150 150 0 100 300 150 150 0 000-300zm0 0"/></clipPath><clipPath id="ag"><path d="M67 145h3v6h-3zm0 0"/></clipPath><clipPath id="ah"><path d="M150 0a150 150 0 100 300 150 150 0 000-300zm0 0"/></clipPath><clipPath id="ai"><path d="M65 143h3v7h-3zm0 0"/></clipPath><clipPath id="aj"><path d="M150 0a150 150 0 100 300 150 150 0 000-300zm0 0"/></clipPath><clipPath id="ak"><path d="M63 141h3v6h-3zm0 0"/></clipPath><clipPath id="al"><path d="M150 0a150 150 0 100 300 150 150 0 000-300zm0 0"/></clipPath><clipPath id="am"><path d="M61 139h3v5h-3zm0 0"/></clipPath><clipPath id="an"><path d="M150 0a150 150 0 100 300 150 150 0 000-300zm0 0"/></clipPath><clipPath id="ao"><path d="M59 137h3v5h-3zm0 0"/></clipPath><clipPath id="ap"><path d="M150 0a150 150 0 100 300 150 150 0 000-300zm0 0"/></clipPath><clipPath id="aq"><path d="M57 135h2v5h-2zm0 0"/></clipPath><clipPath id="ar"><path d="M150 0a150 150 0 100 300 150 150 0 000-300zm0 0"/></clipPath><clipPath id="as"><path d="M54 133h3v5h-3zm0 0"/></clipPath><clipPath id="at"><path d="M150 0a150 150 0 100 300 150 150 0 000-300zm0 0"/></clipPath><clipPath id="au"><path d="M52 132h3v5h-3zm0 0"/></clipPath><clipPath id="av"><path d="M150 0a150 150 0 100 300 150 150 0 000-300zm0 0"/></clipPath><clipPath id="aw"><path d="M50 130h3v5h-3zm0 0"/></clipPath><clipPath id="ax"><path d="M150 0a150 150 0 100 300 150 150 0 000-300zm0 0"/></clipPath><clipPath id="ay"><path d="M47 130h4v4h-4zm0 0"/></clipPath><clipPath id="az"><path d="M150 0a150 150 0 100 300 150 150 0 000-300zm0 0"/></clipPath><clipPath id="aA"><path d="M46 130h3v3h-3zm0 0"/></clipPath><clipPath id="aB"><path d="M150 0a150 150 0 100 300 150 150 0 000-300zm0 0"/></clipPath><clipPath id="aC"><path d="M64 151h7v4h-7zm0 0"/></clipPath><clipPath id="aD"><path d="M150 0a150 150 0 100 300 150 150 0 000-300zm0 0"/></clipPath><clipPath id="aE"><path d="M63 149h6v3h-6zm0 0"/></clipPath><clipPath id="aF"><path d="M150 0a150 150 0 100 300 150 150 0 000-300zm0 0"/></clipPath><clipPath id="aG"><path d="M62 146h6v5h-6zm0 0"/></clipPath><clipPath id="aH"><path d="M150 0a150 150 0 100 300 150 150 0 000-300zm0 0"/></clipPath><clipPath id="aI"><path d="M59 144h7v4h-7zm0 0"/></clipPath><clipPath id="aJ"><path d="M150 0a150 150 0 100 300 150 150 0 000-300zm0 0"/></clipPath><clipPath id="aK"><path d="M57 141h6v4h-6zm0 0"/></clipPath><clipPath id="aL"><path d="M150 0a150 150 0 100 300 150 150 0 000-300zm0 0"/></clipPath><clipPath id="aM"><path d="M54 139h7v3h-7zm0 0"/></clipPath><clipPath id="aN"><path d="M150 0a150 150 0 100 300 150 150 0 000-300zm0 0"/></clipPath><clipPath id="aO"><path d="M52 137h6v2h-6zm0 0"/></clipPath><clipPath id="aP"><path d="M150 0a150 150 0 100 300 150 150 0 000-300zm0 0"/></clipPath><clipPath id="aQ"><path d="M50 135h6v2h-6zm0 0"/></clipPath><clipPath id="aR"><path d="M150 0a150 150 0 100 300 150 150 0 000-300zm0 0"/></clipPath><clipPath id="aS"><path d="M47 134h7v2h-7zm0 0"/></clipPath><clipPath id="aT"><path d="M150 0a150 150 0 100 300 150 150 0 000-300zm0 0"/></clipPath><clipPath id="aU"><path d="M45 132h6v2h-6zm0 0"/></clipPath><clipPath id="aV"><path d="M150 0a150 150 0 100 300 150 150 0 000-300zm0 0"/></clipPath><clipPath id="aW"><path d="M48 132h24v25H48zm0 0"/></clipPath><clipPath id="aX"><path d="M150 0a150 150 0 100 300 150 150 0 000-300zm0 0"/></clipPath></defs><g clip-path="url(#a)"><g clip-path="url(#b)"><path d="M0 280.6h447.7V19.4H0zm0 0"/></g></g><g clip-path="url(#c)"><g clip-path="url(#d)"><path d="M0 19.4V0h300v126.6h-86" fill="#d21034"/></g></g><g clip-path="url(#e)"><g clip-path="url(#f)"><path d="M342.9 173.4l-43 126.6H0l.1-19.4 214-107.2" fill="#009443"/></g></g><g clip-path="url(#g)"><g clip-path="url(#h)"><path d="M447.7 143.1V157H209.8L0 262.1v-15.5L192.7 150 0 53.4V38l211.9 106.3" fill="#fcce12"/></g></g><g clip-path="url(#i)"><g clip-path="url(#j)"><path d="M57.4 174.8s26-.3 25.9-32c0 0-4-23.3-29.1-20.7 0 0-27.4 8.2-14 33.3 0 0 4.3 7.7 18 8.3 0 0 17 .4 20.1-17.3 0 0 3.8 19.6-19.5 23.8 0 0-31.7 1.2-32.3-28.4 0 0-1.5-25 27-31 0 0 31.2-5.6 42 25.6 0 0 6.8 26.1-10.8 42 0 0-11 11-27.3 11.2" fill="#fcce12"/></g></g><g clip-path="url(#k)"><g clip-path="url(#l)"><path d="M46.9 153s-2.2-4.8.3-5.9c0 0 1-.3.4 5.2" fill="#fcce12"/></g></g><g clip-path="url(#m)"><g clip-path="url(#n)"><path d="M48.5 151s-1.7-4.9.3-6c0 0 .8-.3.3 5.3" fill="#fcce12"/></g></g><g clip-path="url(#o)"><g clip-path="url(#p)"><path d="M50.2 149s-1.5-4.9.5-5.8c0 0 .8-.3 0 5.2" fill="#fcce12"/></g></g><g clip-path="url(#q)"><g clip-path="url(#r)"><path d="M51.7 146.9s-1-5 1.2-5.8c0 0 1-.1-.4 5.2" fill="#fcce12"/></g></g><g clip-path="url(#s)"><g clip-path="url(#t)"><path d="M53.9 143.9s-1-4.3 1-4.9c0 0 1-.1-.4 4.5" fill="#fcce12"/></g></g><g clip-path="url(#u)"><g clip-path="url(#v)"><path d="M56 142s-.8-4 1-4.5c0 0 .8-.1-.4 4" fill="#fcce12"/></g></g><g clip-path="url(#w)"><g clip-path="url(#x)"><path d="M58.4 140s-.8-4 1-4.4c0 0 .8-.1-.4 4" fill="#fcce12"/></g></g><g clip-path="url(#y)"><g clip-path="url(#z)"><path d="M60.4 137.9s-.3-4 1.6-4.2c0 0 .8 0-1 3.9" fill="#fcce12"/></g></g><g clip-path="url(#A)"><g clip-path="url(#B)"><path d="M62.3 136.3s.5-3.8 2.2-3.7c0 0 .6 0-1.6 3.4" fill="#fcce12"/></g></g><g clip-path="url(#C)"><g clip-path="url(#D)"><path d="M64.6 134.6s.5-3.7 2.2-3.6c0 0 .6 0-1.6 3.4" fill="#fcce12"/></g></g><g clip-path="url(#E)"><g clip-path="url(#F)"><path d="M66.6 133.4s1-3.4 2.5-3c0 0 .6.2-1.8 2.9" fill="#fcce12"/></g></g><g clip-path="url(#G)"><g clip-path="url(#H)"><path d="M68 132.5s1.6-2.7 2.9-2.2c0 0 .5.3-2.3 2.2" fill="#fcce12"/></g></g><g clip-path="url(#I)"><g clip-path="url(#J)"><path d="M47.5 153s3.7-2.4 4.5-1.4c0 0 .4.8-3.3 2l-2 .5" fill="#fcce12"/></g></g><g clip-path="url(#K)"><g clip-path="url(#L)"><path d="M49 151s3.6-2.4 4.4-1.5c0 0 .4.9-3.3 2l-2 .5" fill="#fcce12"/></g></g><g clip-path="url(#M)"><g clip-path="url(#N)"><path d="M50.2 148.9s3.3-2.9 4.3-2c0 0 .5.8-3 2.3l-2 .8" fill="#fcce12"/></g></g><g clip-path="url(#O)"><g clip-path="url(#P)"><path d="M52.7 146.2s3.5-2.6 4.4-1.7c0 0 .4.9-3.2 2.1l-2 .6" fill="#fcce12"/></g></g><g clip-path="url(#Q)"><g clip-path="url(#R)"><path d="M54.9 143.4s3.7-2.3 4.5-1.3c0 0 .4.8-3.3 1.8l-2 .5" fill="#fcce12"/></g></g><g clip-path="url(#S)"><g clip-path="url(#T)"><path d="M57.6 140.7s3.8-2.1 4.6-1.1c0 0 .3.9-3.5 1.7l-2 .4" fill="#fcce12"/></g></g><g clip-path="url(#U)"><g clip-path="url(#V)"><path d="M60.5 138s3.8-1.4 4.3-.4c0 0 .3.9-3.3 1.2h-2" fill="#fcce12"/></g></g><g clip-path="url(#W)"><g clip-path="url(#X)"><path d="M62.6 136.3s3.7-1.2 4.3-.3c0 0 .2.7-3.3.9h-2" fill="#fcce12"/></g></g><g clip-path="url(#Y)"><g clip-path="url(#Z)"><path d="M64.8 134.7s3.6-1 4.3-.2c0 0 .2.7-3.3.7h-2" fill="#fcce12"/></g></g><g clip-path="url(#aa)"><g clip-path="url(#ab)"><path d="M67.5 132.9s3.5-1.4 4.2-.6c0 0 .3.6-3.2 1l-1.9.2" fill="#fcce12"/></g></g><g clip-path="url(#ac)"><g clip-path="url(#ad)"><path d="M45.3 155.4s8-15 23.4-23.2c0 0-16.8 10.6-22.7 24" fill="#fcce12"/></g></g><g clip-path="url(#ae)"><g clip-path="url(#af)"><path d="M70.1 153s2.2-4.8-.3-5.9c0 0-1-.3-.4 5.2" fill="#fcce12"/></g></g><g clip-path="url(#ag)"><g clip-path="url(#ah)"><path d="M68.4 151s1.8-4.9-.2-6c0 0-.8-.3-.3 5.3" fill="#fcce12"/></g></g><g clip-path="url(#ai)"><g clip-path="url(#aj)"><path d="M66.8 149s1.5-4.9-.5-5.8c0 0-.9-.3-.1 5.2" fill="#fcce12"/></g></g><g clip-path="url(#ak)"><g clip-path="url(#al)"><path d="M65.3 146.9s1-5-1.2-5.8c0 0-1-.1.4 5.2" fill="#fcce12"/></g></g><g clip-path="url(#am)"><g clip-path="url(#an)"><path d="M63.1 143.9s1-4.3-1.1-4.9c0 0-.9-.1.5 4.5" fill="#fcce12"/></g></g><g clip-path="url(#ao)"><g clip-path="url(#ap)"><path d="M61 142s.8-4-1-4.5c0 0-.9-.1.3 4" fill="#fcce12"/></g></g><g clip-path="url(#aq)"><g clip-path="url(#ar)"><path d="M58.6 140s.8-4-1-4.4c0 0-.8-.1.4 4" fill="#fcce12"/></g></g><g clip-path="url(#as)"><g clip-path="url(#at)"><path d="M56.6 137.9s.3-4-1.6-4.2c0 0-.8 0 1 3.9" fill="#fcce12"/></g></g><g clip-path="url(#au)"><g clip-path="url(#av)"><path d="M54.7 136.3s-.6-3.8-2.2-3.7c0 0-.7 0 1.6 3.4" fill="#fcce12"/></g></g><g clip-path="url(#aw)"><g clip-path="url(#ax)"><path d="M52.4 134.6s-.6-3.7-2.2-3.6c0 0-.7 0 1.6 3.4" fill="#fcce12"/></g></g><g clip-path="url(#ay)"><g clip-path="url(#az)"><path d="M50.3 133.4s-.8-3.4-2.4-3c0 0-.7.2 1.8 2.9" fill="#fcce12"/></g></g><g clip-path="url(#aA)"><g clip-path="url(#aB)"><path d="M49 132.5s-1.6-2.7-3-2.2c0 0-.4.3 2.4 2.2" fill="#fcce12"/></g></g><g clip-path="url(#aC)"><g clip-path="url(#aD)"><path d="M69.5 153s-3.7-2.4-4.5-1.4c0 0-.5.8 3.3 2l2 .5" fill="#fcce12"/></g></g><g clip-path="url(#aE)"><g clip-path="url(#aF)"><path d="M68 151s-3.6-2.4-4.4-1.5c0 0-.5.9 3.3 2l2 .5" fill="#fcce12"/></g></g><g clip-path="url(#aG)"><g clip-path="url(#aH)"><path d="M66.8 148.9s-3.3-2.9-4.3-2c0 0-.5.8 3 2.3l2 .8" fill="#fcce12"/></g></g><g clip-path="url(#aI)"><g clip-path="url(#aJ)"><path d="M64.3 146.2s-3.5-2.6-4.4-1.7c0 0-.5.9 3.2 2.1l2 .6" fill="#fcce12"/></g></g><g clip-path="url(#aK)"><g clip-path="url(#aL)"><path d="M62 143.4s-3.6-2.3-4.5-1.3c0 0-.4.8 3.4 1.8l2 .5" fill="#fcce12"/></g></g><g clip-path="url(#aM)"><g clip-path="url(#aN)"><path d="M59.4 140.7s-3.8-2.1-4.6-1.1c0 0-.4.9 3.5 1.7l2 .4" fill="#fcce12"/></g></g><g clip-path="url(#aO)"><g clip-path="url(#aP)"><path d="M56.5 138s-3.8-1.4-4.4-.4c0 0-.2.9 3.4 1.2h2" fill="#fcce12"/></g></g><g clip-path="url(#aQ)"><g clip-path="url(#aR)"><path d="M54.4 136.3s-3.7-1.2-4.3-.3c0 0-.3.7 3.3.9h2" fill="#fcce12"/></g></g><g clip-path="url(#aS)"><g clip-path="url(#aT)"><path d="M52.2 134.7s-3.7-1-4.3-.2c0 0-.2.7 3.3.7h1.9" fill="#fcce12"/></g></g><g clip-path="url(#aU)"><g clip-path="url(#aV)"><path d="M49.5 132.9s-3.5-1.4-4.2-.6c0 0-.4.6 3.2 1l1.8.2" fill="#fcce12"/></g></g><g clip-path="url(#aW)"><g clip-path="url(#aX)"><path d="M71.7 155.4s-8-15-23.4-23.2c0 0 16.8 10.6 22.7 24" fill="#fcce12"/></g></g></svg>