<svg xmlns="http://www.w3.org/2000/svg" width="400" height="400" viewBox="0 0 300 300"><defs><clipPath id="a"><path d="M150 0a150 150 0 100 300 150 150 0 000-300zm0 0"/></clipPath><clipPath id="b"><path d="M0 0h300v200H0zm0 0"/></clipPath><clipPath id="c"><path d="M150 0a150 150 0 100 300 150 150 0 000-300zm0 0"/></clipPath><clipPath id="d"><path d="M0 0h300v100H0zm0 0"/></clipPath><clipPath id="e"><path d="M150 0a150 150 0 100 300 150 150 0 000-300zm0 0"/></clipPath><clipPath id="f"><path d="M53 166h25v24H53zm0 0"/></clipPath><clipPath id="g"><path d="M150 0a150 150 0 100 300 150 150 0 000-300zm0 0"/></clipPath><clipPath id="h"><path d="M70 140h24v25H70zm0 0"/></clipPath><clipPath id="i"><path d="M150 0a150 150 0 100 300 150 150 0 000-300zm0 0"/></clipPath><clipPath id="j"><path d="M92 121h25v24H92zm0 0"/></clipPath><clipPath id="k"><path d="M150 0a150 150 0 100 300 150 150 0 000-300zm0 0"/></clipPath><clipPath id="l"><path d="M122 108h24v25h-24zm0 0"/></clipPath><clipPath id="m"><path d="M150 0a150 150 0 100 300 150 150 0 000-300zm0 0"/></clipPath><clipPath id="n"><path d="M154 109h25v24h-25zm0 0"/></clipPath><clipPath id="o"><path d="M150 0a150 150 0 100 300 150 150 0 000-300zm0 0"/></clipPath><clipPath id="p"><path d="M183 121h25v24h-25zm0 0"/></clipPath><clipPath id="q"><path d="M150 0a150 150 0 100 300 150 150 0 000-300zm0 0"/></clipPath><clipPath id="r"><path d="M206 140h24v25h-24zm0 0"/></clipPath><clipPath id="s"><path d="M150 0a150 150 0 100 300 150 150 0 000-300zm0 0"/></clipPath><clipPath id="t"><path d="M222 166h25v24h-25zm0 0"/></clipPath><clipPath id="u"><path d="M150 0a150 150 0 100 300 150 150 0 000-300zm0 0"/></clipPath></defs><g clip-path="url(#a)"><path fill="#cf132b" d="M0 0h300v300H0z"/></g><g clip-path="url(#b)"><g clip-path="url(#c)"><path d="M-75 200h450V0H-75zm0 0" fill="#00237c"/></g></g><g clip-path="url(#d)"><g clip-path="url(#e)"><path d="M-75 100h450V0H-75zm0 0" fill="#fc0"/></g></g><g clip-path="url(#f)"><g clip-path="url(#g)"><path d="M53.5 175.1l7.2 5.6-3 8.5 7.5-5.1 7.2 5.5-2.6-8.7 7.5-5.1-9.1-.3-2.6-8.7-3 8.6" fill="#fff"/></g></g><g clip-path="url(#h)"><g clip-path="url(#i)"><path d="M71.3 144l4.8 7.7-5.8 7 8.8-2.2 4.8 7.7.6-9 8.9-2.3-8.5-3.4.7-9-5.8 7" fill="#fff"/></g></g><g clip-path="url(#j)"><g clip-path="url(#k)"><path d="M92.6 134.6l9 1 2 8.9 3.6-8.3 9 1-6.7-6.1 3.7-8.3-7.8 4.5-6.8-6.1 1.9 8.9" fill="#fff"/></g></g><g clip-path="url(#l)"><g clip-path="url(#m)"><path d="M122 119.5l8.2 4-1.3 9 6.4-6.6 8.1 4-4.3-8 6.3-6.6-8.9 1.6-4.3-8-1.2 9" fill="#fff"/></g></g><g clip-path="url(#n)"><g clip-path="url(#o)"><path d="M154.6 115.5l6.3 6.5-4.3 8 8.2-4 6.3 6.6-1.3-9 8.2-4-9-1.5-1.2-9-4.3 8" fill="#fff"/></g></g><g clip-path="url(#p)"><g clip-path="url(#q)"><path d="M186.7 123l3.7 8.4-6.8 6 9-.9 3.8 8.3 1.9-8.9 9-1-7.9-4.5 2-8.8-6.8 6" fill="#fff"/></g></g><g clip-path="url(#r)"><g clip-path="url(#s)"><path d="M206.6 153.2l8.9 2.1.6 9 4.8-7.7 8.8 2.2-5.8-7 4.7-7.7-8.4 3.5-5.9-7 .7 9.1" fill="#fff"/></g></g><g clip-path="url(#t)"><g clip-path="url(#u)"><path d="M222.5 175.5l7.5 5.2-2.7 8.7 7.3-5.5 7.4 5.2-3-8.6 7.3-5.5-9 .2-3-8.6-2.7 8.7" fill="#fff"/></g></g></svg>