<svg xmlns="http://www.w3.org/2000/svg" width="400" height="400" viewBox="0 0 300 300"><defs><clipPath id="a"><path d="M150 0a150 150 0 100 300 150 150 0 000-300zm0 0"/></clipPath><clipPath id="b"><path d="M0 0h300v149H0zm0 0"/></clipPath><clipPath id="c"><path d="M150 0a150 150 0 100 300 150 150 0 000-300zm0 0"/></clipPath><clipPath id="d"><path d="M39 92h51v11H39zm0 0"/></clipPath><clipPath id="e"><path d="M150 0a150 150 0 100 300 150 150 0 000-300zm0 0"/></clipPath><clipPath id="f"><path d="M38 92h53v12H38zm0 0"/></clipPath><clipPath id="g"><path d="M150 0a150 150 0 100 300 150 150 0 000-300zm0 0"/></clipPath><clipPath id="h"><path d="M24 64h238v164H24zm0 0"/></clipPath><clipPath id="i"><path d="M150 0a150 150 0 100 300 150 150 0 000-300zm0 0"/></clipPath><clipPath id="j"><path d="M24 63h239v165H24zm0 0"/></clipPath><clipPath id="k"><path d="M150 0a150 150 0 100 300 150 150 0 000-300zm0 0"/></clipPath><clipPath id="l"><path d="M243 79h33v47h-33zm0 0"/></clipPath><clipPath id="m"><path d="M150 0a150 150 0 100 300 150 150 0 000-300zm0 0"/></clipPath><clipPath id="n"><path d="M242 79h35v47h-35zm0 0"/></clipPath><clipPath id="o"><path d="M150 0a150 150 0 100 300 150 150 0 000-300zm0 0"/></clipPath><clipPath id="p"><path d="M46 114h6v10h-6zm0 0"/></clipPath><clipPath id="q"><path d="M150 0a150 150 0 100 300 150 150 0 000-300zm0 0"/></clipPath><clipPath id="r"><path d="M46 113h6v11h-6zm0 0"/></clipPath><clipPath id="s"><path d="M150 0a150 150 0 100 300 150 150 0 000-300zm0 0"/></clipPath><clipPath id="t"><path d="M34 107h9v9h-9zm0 0"/></clipPath><clipPath id="u"><path d="M150 0a150 150 0 100 300 150 150 0 000-300zm0 0"/></clipPath><clipPath id="v"><path d="M33 107h10v9H33zm0 0"/></clipPath><clipPath id="w"><path d="M150 0a150 150 0 100 300 150 150 0 000-300zm0 0"/></clipPath><clipPath id="x"><path d="M22 114h10v7H22zm0 0"/></clipPath><clipPath id="y"><path d="M150 0a150 150 0 100 300 150 150 0 000-300zm0 0"/></clipPath><clipPath id="z"><path d="M19 157h11v7H19zm0 0"/></clipPath><clipPath id="A"><path d="M150 0a150 150 0 100 300 150 150 0 000-300zm0 0"/></clipPath><clipPath id="B"><path d="M42 206h9v6h-9zm0 0"/></clipPath><clipPath id="C"><path d="M150 0a150 150 0 100 300 150 150 0 000-300zm0 0"/></clipPath><clipPath id="D"><path d="M41 206h11v6H41zm0 0"/></clipPath><clipPath id="E"><path d="M150 0a150 150 0 100 300 150 150 0 000-300zm0 0"/></clipPath><clipPath id="F"><path d="M37 215h11v6H37zm0 0"/></clipPath><clipPath id="G"><path d="M150 0a150 150 0 100 300 150 150 0 000-300zm0 0"/></clipPath><clipPath id="H"><path d="M36 214h13v7H36zm0 0"/></clipPath><clipPath id="I"><path d="M150 0a150 150 0 100 300 150 150 0 000-300zm0 0"/></clipPath><clipPath id="J"><path d="M42 222h9v8h-9zm0 0"/></clipPath><clipPath id="K"><path d="M150 0a150 150 0 100 300 150 150 0 000-300zm0 0"/></clipPath><clipPath id="L"><path d="M41 221h10v10H41zm0 0"/></clipPath><clipPath id="M"><path d="M150 0a150 150 0 100 300 150 150 0 000-300zm0 0"/></clipPath><clipPath id="N"><path d="M91 219h8v7h-8zm0 0"/></clipPath><clipPath id="O"><path d="M150 0a150 150 0 100 300 150 150 0 000-300zm0 0"/></clipPath><clipPath id="P"><path d="M90 219h10v8H90zm0 0"/></clipPath><clipPath id="Q"><path d="M150 0a150 150 0 100 300 150 150 0 000-300zm0 0"/></clipPath><clipPath id="R"><path d="M118 203h10v6h-10zm0 0"/></clipPath><clipPath id="S"><path d="M150 0a150 150 0 100 300 150 150 0 000-300zm0 0"/></clipPath><clipPath id="T"><path d="M118 202h10v7h-10zm0 0"/></clipPath><clipPath id="U"><path d="M150 0a150 150 0 100 300 150 150 0 000-300zm0 0"/></clipPath><clipPath id="V"><path d="M113 212h9v8h-9zm0 0"/></clipPath><clipPath id="W"><path d="M150 0a150 150 0 100 300 150 150 0 000-300zm0 0"/></clipPath><clipPath id="X"><path d="M113 212h10v8h-10zm0 0"/></clipPath><clipPath id="Y"><path d="M150 0a150 150 0 100 300 150 150 0 000-300zm0 0"/></clipPath><clipPath id="Z"><path d="M120 221h9v7h-9zm0 0"/></clipPath><clipPath id="aa"><path d="M150 0a150 150 0 100 300 150 150 0 000-300zm0 0"/></clipPath><clipPath id="ab"><path d="M120 220h9v9h-9zm0 0"/></clipPath><clipPath id="ac"><path d="M150 0a150 150 0 100 300 150 150 0 000-300zm0 0"/></clipPath><clipPath id="ad"><path d="M165 220h10v7h-10zm0 0"/></clipPath><clipPath id="ae"><path d="M150 0a150 150 0 100 300 150 150 0 000-300zm0 0"/></clipPath><clipPath id="af"><path d="M165 220h10v8h-10zm0 0"/></clipPath><clipPath id="ag"><path d="M150 0a150 150 0 100 300 150 150 0 000-300zm0 0"/></clipPath><clipPath id="ah"><path d="M195 205h10v5h-10zm0 0"/></clipPath><clipPath id="ai"><path d="M150 0a150 150 0 100 300 150 150 0 000-300zm0 0"/></clipPath><clipPath id="aj"><path d="M195 204h10v6h-10zm0 0"/></clipPath><clipPath id="ak"><path d="M150 0a150 150 0 100 300 150 150 0 000-300zm0 0"/></clipPath><clipPath id="al"><path d="M193 214h8v7h-8zm0 0"/></clipPath><clipPath id="am"><path d="M150 0a150 150 0 100 300 150 150 0 000-300zm0 0"/></clipPath><clipPath id="an"><path d="M192 213h10v8h-10zm0 0"/></clipPath><clipPath id="ao"><path d="M150 0a150 150 0 100 300 150 150 0 000-300zm0 0"/></clipPath><clipPath id="ap"><path d="M199 222h10v8h-10zm0 0"/></clipPath><clipPath id="aq"><path d="M150 0a150 150 0 100 300 150 150 0 000-300zm0 0"/></clipPath><clipPath id="ar"><path d="M245 220h9v7h-9zm0 0"/></clipPath><clipPath id="as"><path d="M150 0a150 150 0 100 300 150 150 0 000-300zm0 0"/></clipPath><clipPath id="at"><path d="M27 83h23v23H27zm0 0"/></clipPath><clipPath id="au"><path d="M150 0a150 150 0 100 300 150 150 0 000-300zm0 0"/></clipPath><clipPath id="av"><path d="M26 83h24v23H26zm0 0"/></clipPath><clipPath id="aw"><path d="M150 0a150 150 0 100 300 150 150 0 000-300zm0 0"/></clipPath><clipPath id="ax"><path d="M67 92h3v3h-3zm0 0"/></clipPath><clipPath id="ay"><path d="M150 0a150 150 0 100 300 150 150 0 000-300zm0 0"/></clipPath><clipPath id="az"><path d="M67 91h4v4h-4zm0 0"/></clipPath><clipPath id="aA"><path d="M150 0a150 150 0 100 300 150 150 0 000-300zm0 0"/></clipPath><clipPath id="aB"><path d="M69 91h3v3h-3zm0 0"/></clipPath><clipPath id="aC"><path d="M150 0a150 150 0 100 300 150 150 0 000-300zm0 0"/></clipPath><clipPath id="aD"><path d="M69 90h4v5h-4zm0 0"/></clipPath><clipPath id="aE"><path d="M150 0a150 150 0 100 300 150 150 0 000-300zm0 0"/></clipPath><clipPath id="aF"><path d="M71 89h3v4h-3zm0 0"/></clipPath><clipPath id="aG"><path d="M150 0a150 150 0 100 300 150 150 0 000-300zm0 0"/></clipPath><clipPath id="aH"><path d="M71 89h4v5h-4zm0 0"/></clipPath><clipPath id="aI"><path d="M150 0a150 150 0 100 300 150 150 0 000-300zm0 0"/></clipPath><clipPath id="aJ"><path d="M73 88h4v4h-4zm0 0"/></clipPath><clipPath id="aK"><path d="M150 0a150 150 0 100 300 150 150 0 000-300zm0 0"/></clipPath><clipPath id="aL"><path d="M73 87h4v5h-4zm0 0"/></clipPath><clipPath id="aM"><path d="M150 0a150 150 0 100 300 150 150 0 000-300zm0 0"/></clipPath><clipPath id="aN"><path d="M67 99h3v3h-3zm0 0"/></clipPath><clipPath id="aO"><path d="M150 0a150 150 0 100 300 150 150 0 000-300zm0 0"/></clipPath><clipPath id="aP"><path d="M70 99h3v3h-3zm0 0"/></clipPath><clipPath id="aQ"><path d="M150 0a150 150 0 100 300 150 150 0 000-300zm0 0"/></clipPath><clipPath id="aR"><path d="M73 99h3v3h-3zm0 0"/></clipPath><clipPath id="aS"><path d="M150 0a150 150 0 100 300 150 150 0 000-300zm0 0"/></clipPath><clipPath id="aT"><path d="M72 99h4v3h-4zm0 0"/></clipPath><clipPath id="aU"><path d="M150 0a150 150 0 100 300 150 150 0 000-300zm0 0"/></clipPath><clipPath id="aV"><path d="M76 99h3v3h-3zm0 0"/></clipPath><clipPath id="aW"><path d="M150 0a150 150 0 100 300 150 150 0 000-300zm0 0"/></clipPath><clipPath id="aX"><path d="M76 98h3v4h-3zm0 0"/></clipPath><clipPath id="aY"><path d="M150 0a150 150 0 100 300 150 150 0 000-300zm0 0"/></clipPath><clipPath id="aZ"><path d="M79 97h3v4h-3zm0 0"/></clipPath><clipPath id="ba"><path d="M150 0a150 150 0 100 300 150 150 0 000-300zm0 0"/></clipPath><clipPath id="bb"><path d="M78 97h4v4h-4zm0 0"/></clipPath><clipPath id="bc"><path d="M150 0a150 150 0 100 300 150 150 0 000-300zm0 0"/></clipPath><clipPath id="bd"><path d="M81 96h3v4h-3zm0 0"/></clipPath><clipPath id="be"><path d="M150 0a150 150 0 100 300 150 150 0 000-300zm0 0"/></clipPath><clipPath id="bf"><path d="M84 96h3v3h-3zm0 0"/></clipPath><clipPath id="bg"><path d="M150 0a150 150 0 100 300 150 150 0 000-300zm0 0"/></clipPath><clipPath id="bh"><path d="M84 95h3v4h-3zm0 0"/></clipPath><clipPath id="bi"><path d="M150 0a150 150 0 100 300 150 150 0 000-300zm0 0"/></clipPath><clipPath id="bj"><path d="M62 83h5v7h-5zm0 0"/></clipPath><clipPath id="bk"><path d="M150 0a150 150 0 100 300 150 150 0 000-300zm0 0"/></clipPath><clipPath id="bl"><path d="M67 78h4v10h-4zm0 0"/></clipPath><clipPath id="bm"><path d="M150 0a150 150 0 100 300 150 150 0 000-300zm0 0"/></clipPath><clipPath id="bn"><path d="M97 74h3v5h-3zm0 0"/></clipPath><clipPath id="bo"><path d="M150 0a150 150 0 100 300 150 150 0 000-300zm0 0"/></clipPath><clipPath id="bp"><path d="M102 70h14v13h-14zm0 0"/></clipPath><clipPath id="bq"><path d="M150 0a150 150 0 100 300 150 150 0 000-300zm0 0"/></clipPath><clipPath id="br"><path d="M46 149h35v35H46zm0 0"/></clipPath><clipPath id="bs"><path d="M150 0a150 150 0 100 300 150 150 0 000-300zm0 0"/></clipPath><clipPath id="bt"><path d="M71 66h173v146H71zm0 0"/></clipPath><clipPath id="bu"><path d="M150 0a150 150 0 100 300 150 150 0 000-300zm0 0"/></clipPath><clipPath id="bv"><path d="M48 211h18v4H48zm0 0"/></clipPath><clipPath id="bw"><path d="M150 0a150 150 0 100 300 150 150 0 000-300zm0 0"/></clipPath><clipPath id="bx"><path d="M48 217h12v4H48zm0 0"/></clipPath><clipPath id="by"><path d="M150 0a150 150 0 100 300 150 150 0 000-300zm0 0"/></clipPath><clipPath id="bz"><path d="M123 216h18v5h-18zm0 0"/></clipPath><clipPath id="bA"><path d="M150 0a150 150 0 100 300 150 150 0 000-300zm0 0"/></clipPath><clipPath id="bB"><path d="M202 147h21v17h-21zm0 0"/></clipPath><clipPath id="bC"><path d="M150 0a150 150 0 100 300 150 150 0 000-300zm0 0"/></clipPath><clipPath id="bD"><path d="M257 99h5v12h-5zm0 0"/></clipPath><clipPath id="bE"><path d="M150 0a150 150 0 100 300 150 150 0 000-300zm0 0"/></clipPath><clipPath id="bF"><path d="M264 99h3v12h-3zm0 0"/></clipPath><clipPath id="bG"><path d="M150 0a150 150 0 100 300 150 150 0 000-300zm0 0"/></clipPath><clipPath id="bH"><path d="M78 80h9v5h-9zm0 0"/></clipPath><clipPath id="bI"><path d="M150 0a150 150 0 100 300 150 150 0 000-300zm0 0"/></clipPath><clipPath id="bJ"><path d="M78 80h9v6h-9zm0 0"/></clipPath><clipPath id="bK"><path d="M150 0a150 150 0 100 300 150 150 0 000-300zm0 0"/></clipPath><clipPath id="bL"><path d="M80 80h5v4h-5zm0 0"/></clipPath><clipPath id="bM"><path d="M150 0a150 150 0 100 300 150 150 0 000-300zm0 0"/></clipPath><clipPath id="bN"><path d="M79 80h7v4h-7zm0 0"/></clipPath><clipPath id="bO"><path d="M150 0a150 150 0 100 300 150 150 0 000-300zm0 0"/></clipPath><clipPath id="bP"><path d="M75 79h21v4H75zm0 0"/></clipPath><clipPath id="bQ"><path d="M150 0a150 150 0 100 300 150 150 0 000-300zm0 0"/></clipPath></defs><g clip-path="url(#a)"><path fill="#00ab39" d="M0 0h300v300H0z"/></g><g clip-path="url(#b)"><g clip-path="url(#c)"><path d="M-102.7 148.2h505.4V0h-505.4zm0 0" fill="#fff"/></g></g><g clip-path="url(#d)"><g clip-path="url(#e)"><path d="M87.7 93l2 6.3s-10.7 6.4-23.1 2.3c0 0-18.6-.3-23-.6H42l-2.8-6.6 2 1s25.1 2 46.5-2.5" fill="#d21034"/></g></g><g clip-path="url(#f)"><g clip-path="url(#g)"><path d="M42.2 100.7h1.5c4.3.3 22.7.6 22.9.6a27 27 0 008.5 1.4c7.4 0 13.1-3 14.3-3.6l-1.9-5.9a164 164 0 01-31.9 2.9c-8.4 0-14.3-.5-14.3-.5h-.1l-1.5-.7zm32.9 2.6c-3 0-5.8-.4-8.6-1.3-1 0-18.6-.3-22.8-.6H42a.3.3 0 01-.3-.2L39 94.5a.3.3 0 010-.3.3.3 0 01.4 0l2 .8c.6 0 6.4.5 14.3.5 8.4 0 20.7-.5 32-2.9l.4.2 2 6.4a.3.3 0 01-.1.3c-.1 0-6.4 3.8-14.8 3.8"/></g></g><g clip-path="url(#h)"><g clip-path="url(#i)"><path d="M236.2 132.3c-2.3-1-3.5-4-1.3-5.9 1.5-1.4 4.5-1.8 6.5-1.4 2.4.5 4.7 2.1 6.2 4.2-2 3.7-8 4.7-11.4 3.1m24.7-4c-2.4-7.5-10.2-10.5-10.2-10.5-9.5-3.6-15.6-1.7-15.6-1.7-10.4 3-10.9 10.8-10.9 10.8-.5 9.1 7.9 11.5 7.9 11.5 9.8 3 17-1.6 17-1.6s.6-1.4.1-3.8a9.5 9.5 0 000 .5c.8 6.6-4.6 8.8-4.6 8.8a21.5 21.5 0 01-8 2.2c-2.4.3-5 .4-7.4.3-2.4 0-4.8 0-7-.6-2-.4-3.8-1.2-5.7-1.6-2.6-.6-5.4-.9-8-1a100.6 100.6 0 00-3.5-.3 179 179 0 00-8.7-.1c-.1 0-1.5-.1-1.6 0 7.8-12.6 21.3-8.1 21.3-8.1-7.8-7.4-3.9-16.8-3.9-16.8 5.4-13.7 22-18 22-18-2.8-.8-6.8-2.4-8-5.1-2.6-5.8 3-11 6.7-14.6 3.5-3.4 7.4-6.5 11.4-9.2a654.2 654.2 0 01-6.5 2.5l-6.5 2.6c-7.6 2.9-15.3 5.7-22.9 8.9-4.3 1.8-10.6 2.4-12.6-3.2-2.5-7 3.8-16 3.8-16a215.7 215.7 0 00-15 8.4c-8 4.9-15.8 10-23.4 15.6-5.1 3.7-10 7.8-15 11.7-4.4 3.4-9 6.8-9.9 12.7-.2 1-.1 2-.2 3.1 0 4.9.8 9.8-1 14.5-.6 1.4-1.5 2.7-2.9 3.3-1.8.8-4 1-5.8 1.3a433 433 0 00-12.6 2.7c-.2-1.7-1.6-3-1.7-4.8 0-1 .4-2 1.3-2.7.4-.3 1.1-.5 1.7-.6 1.3-.3 3.2.3 4.3 1 0-1-.1-2-.4-3-.5-2-3-2.3-4.7-3.1a8 8 0 01-1.9-1.3c-.9-.8-1-2.1-1.1-3.3 0-.9 0-2 .8-2.7 1.8-1.5 5.3.5 6.9 1.6l1.9 1.4.7.5-.6-3.8a7 7 0 00-4.5-5c-.8-.4-1.8-.8-2.4-1.5-.6-.7-.8-2-.8-3 0-1.3.7-2.4 2-2.8 1.5-.6 3.3.2 4.7.8l3 1.2a9.7 9.7 0 00-.3-2.4c-.4-2-2-4.4-4-5.3-1.2-.5-2.7-.4-3.4-1.5-.5-.8-.2-2 .7-2.5 1-.6 2.8-.5 4-.5.8 0 1.6 0 2.4.2-1.7-4-7.7-6-7.7-6l-2.7-4.7c-.8-1.5-.9-2.7.2-4l1.5-1.5c2-1.7 4.4-3 6.8-4 .2-.1.9-.6 1.2-.6l-3.2-.4v-.8l.5-7c-.4.6-.8 1-1.4 1.4-2 1.2-4.4 1.8-6.7 2.2l-3.4.9c-1.5.4-3 .9-4.3 1.6l-1.9 1.3-1 1.1-2.4-.1-6.5-.4L84 73a23.6 23.6 0 00-5.4.3 8.5 8.5 0 00-5.7 3.3s-1.1 2.3-.8 2.3c-22.8-.2-27.6 9.5-27.6 9.5 3-1.1 12.2-1.1 12.2-1.1 8.9.4 8.9 5.2 8.9 5.2 4.6.7 10.3-4.3 10.3-4.3 2.2 0 4.4.5 6.4 1.3.7.3 1.3.7 2 1.2 2 1.6 3.2 4.4 4 6.8l.3 1H87c-.7 0-1.5-.2-2.2 0-.7 0-1.3.4-2 .7-1.2.7-2.5 1.1-3.8 1.6-1.3.5-2.5.9-3.8 1h-8.8c.4 4.9 2.5 6.9 2.5 6.9-1 5.9 1.7 6.2 1.7 6.2l3.1-9 2.1 4.8c3-9.7 9.8-9 9.8-9 .2 1.4 1.5 4 1.5 4-5.9 2.4-4.1 8.2-4.1 8.2-5 2.6-3.8 8.2-3.8 8.2-5.7 3.4-4.4 9.4-4.4 9.4-4.4 1.3-3.4 11.4-3.4 11.4a9.6 9.6 0 00.9 14.5c-2.7 1.3-2.8 4-2.8 4-2.7-1-3.5 1.2-3.5 1.2-2.9-4-6.6-2.2-6.6-2.2-2-4.8-6.6-4.4-6.6-4.4-.3-5.4-4.5-6.1-4.5-6.1-.1-8.8-4.3-15.4-4.3-15.4-.8-2.8 1-3.7 1-3.7 1.8-.7 4-2.6 4-2.6 1.7-1.8 1-4.3 1-4.3-.4-1.6-3.6-2.6-3.6-2.6-1.7-.9-3.7 3-3.7 3-.3-1.2 0-2 .5-3 .4-.9.8-2 1-3 .2-3.8-1.2-4.3-1.2-4.3-2.7-.7-5 1.6-5 1.6-3 5.3-.9 14-.9 14l-1.5-4.3c-2-5-3.1-6.9-3.1-6.9-1.2-1.4-2.6.3-3.8.8l-.7.4c-.3.2-.8 0-1.2.3l-.5.7c-.9 1.6 0 3.3 1.3 4.3-.2 6 5.4 7.5 5.4 7.5l-.3 3.4-.3 3-.6 5.5c0 .3-.2 3.8-.4 3.8-1.4.2-2 2.1-2 2.1-.3 1.1-1 2.1-1.8 3-.7.8-1.6 1.4-2.5 2.1-.4.4-.5.7-.4 1.2 0 .6.8.8 1.2 1.2.6.5.9 1.3 1.4 1.8.8 1 1.9 1.5 3 .7.9-.8 1.4-2.1 1.6-3.3l.3-1.6c.2-.6.5-.9 1-1.3 1-1 1.5-2.5 2-3.9l.8-2.4a32.3 32.3 0 0011.3 20.5 48.8 48.8 0 015 5 90 90 0 013.8 4.6c1.2 1.6 2.5 3 3.5 4.7 1.9 3 3 6.3 3.3 9.7a24.7 24.7 0 01.1 3.6l-.1 1.5c4.7-4 6.7-12.2 6.7-12.2 2.3-.3 10.1-1.8 10.1-1.8.9.4 5.5.3 5.5.3-2 1.2-1.3 4.8-1.3 4.8-5.6 2.8-2.7 7-2.7 7-5.2 2.4-4.3 8.8-4.3 8.8-3.9 7.3-12 7.8-12 7.8-4.5.2-8.1-2.2-8.1-2.2-2-1.3-4.7-2.7-7-1.3-.9.5-1.4 1.2-2 2-1.5 1.8.4 3.2.4 3.2-2.3 1.2-2.2 3.9-2.2 3.9 0 2.4 2 2.3 2 2.3a7 7 0 001 5.2c1.5 2.3 4.6 2.1 4.6 2.1a8 8 0 001.6-.1c2-.4 3.9-1.4 5.5-2.5.8-.5 1.5-1.2 2.4-1.7.9-.5 2-.6 3-.4l3 .5 1.7.2c1 0 1.8-.6 2.5-1 .8-.5 1.5-1.2 2.3-1.4 1-.4 2.2-.2 3.2 0 1.9.7 3.3 2.1 5 3.2a8 8 0 003 1c1.2.3 2.8.6 4 0a2 2 0 001-1.4v-.6c0-.8 0-1.6.2-2.4 0-.6 0-1.3-.3-1.8-.6-.9-2.1-.7-3-.7h-2.4c-.8-.1-1.5-.3-2.3-.6l-2.4-.8c.6-2.7 1.7-5.4 1.7-5.4 1.6-4 5.9-8.8 5.9-8.8 5.7-5.4 13.7-15 13.7-15-.6 2.2 0 4.5 1 6.4.5 1.3 1.2 2.5 1.8 3.8a61.3 61.3 0 011.5 3l.4 1c3-4 4.1-10.5 4.1-10.5 1.6.5 6.4-4.1 6.4-4.1 1.6 1.5 6 0 6 0 2-.8 8.6-5.8 8.6-5.8.7 2.3 6.5 1 6.5 1-2.5 8.8 8 10.5 8 10.5-.3 6.5 11.2 5.2 11.2 5.2-.7 2.3 3 3.2 3 3.2-3.4.9-2.7 4.4-2.7 4.4-4.6-.6-5 3.6-5 3.6-3.5 0-6.5.4-6.5.4-2.1.3-3.9 1.7-3.9 1.7-.5-.3-1.1-.4-1.7-.5-.7-.2-1.5-.3-2.1-.6-2-.7-3.7-2-5-3.4-1.2-1.3-2.6-2.3-4-3.3-.5-.4-1-1-1.7-1-.6 0-1.3.4-1.7.8-.6.6-1 1.3-1.5 2l-.4 1.2c-.1 1 .3 2 1 2.5.8.6 1.9.7 2.8 1l1.6.4a8.5 8.5 0 015.6 4.5c-.7.4-1.6.5-2.4.5-.9 0-1.8.1-2.7-.1a9.4 9.4 0 01-3.3-1.7 5.7 5.7 0 00-4.6-1.4 5 5 0 00-1.7.6 4.4 4.4 0 00-1.1 1c-.5.5-.8 1.4-1 2.2-.3.7-.3 1.8.3 2.4.8.8 2.2 1.4 3.3 1.7.3 0 .4 0 .5.4 0 .4.2.9.5 1.2a7 7 0 002.6 2c.2.6.8 1.7 1.6 1.8.9 0 1.6-.9 2.2-1.4.8-.7 1.7-1.2 2.7-1.7a18 18 0 015.8-1.3 37.5 37.5 0 012.3-.2h.9c1 0 2-.2 3.1-.1.8 0 2.1 0 2.7.8 0 .2.2.4.4.5.4 0 .8-.2 1-.4l1.2-.5c1.7-.8 3.6-.8 5.3 0 .5.1 1 .4 1.4.6l2.6 1.5c1.7 1 3.4 2.5 5.5 2.2.7-.1 1.4-.5 1.3-1.2a3 3 0 00-.4-1s-.5-.7-.4-.8c.7-1.2.6-2.6-.5-3.5-.6-.4-1.6-.6-2.3-.6-1.4 0-2.7.3-4 0a8 8 0 01-1.3-.5l-.4-.2c11-3.2 16.9-8.2 16.9-8.2 6.4-4.8 11.7-13 11.7-13 1.7 0 10.8 4 10.8 4 .3-1 0-2.9 0-2.9a10.7 10.7 0 00-.9-2.5c-.5-1.1-1.3-2-2.3-2.7a6.5 6.5 0 00-2.4-1.1c-1-.3-2-.3-3-.5a32.9 32.9 0 01-1.9-.3 16.6 16.6 0 01-1.7-.5c-2-.6-3.9-1.5-5.8-2.2l-1.4-.7c-1.7-1-2.5-2.5-3-4.3a7.3 7.3 0 01-.2-1.8c0-1.8.7-3.5 1.9-4.8l2.1-2c.8-.6 1.5-1.4 2.2-2.2l1-1.2c1.4.8 6.4 2.4 6.4 2.4 2.3 5.3 10.2 4.6 10.2 4.6 4.4 3.8 11.5 1.3 11.5 1.3 3.4 4.8 10 1.7 10 1.7 1.7 2.5 6.3 1.5 6.3 1.5.5 2.3 3.8 4 3.8 4-1.6 3.8.8 8.3.8 8.3-1.6 3.5-.4 6.6-.4 6.6-5.1 2.3-2 6.7-2 6.7-4.7 7.7-11.4 4.7-11.4 4.7a18 18 0 01-3.1-1.3c-1.4-.7-2.8-1.7-4-2.8-1-1-1.8-2-2.6-3a5.1 5.1 0 00-2-1.7c-.7-.2-1.5 0-2 .7-.4.9-.7 2-.8 3-.1 1-.6 2-.3 3 .2.5.8.6 1.3.6l3.3 1c2 .6 3.8 1.5 5.6 2.5l2.4 1.3a46.3 46.3 0 00-3.2-1.4c-1.4-.6-2.8-1.1-4.3-1.5-1.8-.4-3.6-.6-5.4-.6-1.5.1-2 1.4-2.3 2.6-.2.5-.2 1.2-.1 1.7 0 .8.3 1.6 1 2 .6.4 1.5.5 2.1.3.6-.2 1-.6 1.5-1 .5-.3 1.1-.3 1.7-.2 2.4.2 4.7.4 7 1l1 .3.5.2c-1.3 0-2.6.2-3.9.4-1 .2-2.2.4-3.3.9-.8.3-1.5 1-1.6 1.8-.1 1.3.6 2.5 1.6 3.3 1 .9 2.3 1 3.5.3l3.5-2.4c1-.7 1.8-1.4 2.8-1.8 1-.3 2.3-.5 3.4-.3a5.6 5.6 0 011.8.7l1.5 1.1a6 6 0 002.2.8c2.4.3 4.6-1.9 6.8-2.5.9-.3 1.8-.6 2.8-.6 1.7.1 3.5 1 5 1.7 1 .4 1.8.9 2.6 1.4.6.5 1.5 1.4 2.3 1.4 1.2 0 2-2.4 2.1-3.3.2-.7.4-1.4 0-2-.2-.6-.7-1-1.2-1.2-1.6-.8-3.3-1.2-4.9-1.8-1.2-.5-1.6-1.5-2-2.6l-.6-1.6s-.3-.5-.2-.6c.6-1 1.3-2 1.6-3 .6-2.5.9-5 1.4-7.3 3-12.8-1.4-24-1.4-24 1.7.6 6 4.5 6 4.5 3.6 2.5 7 1.3 7 1.3-1.7-4-6.5-6.8-6.5-6.8-8.7-6.4-24-14.4-24-14.4 25.8-1.4 36.1-17.3 36.1-17.3 5.9-6.6 2.6-17 2.6-17" fill="#d21034"/></g></g><g clip-path="url(#j)"><g clip-path="url(#k)"><path d="M239.8 125.2c-1.9 0-3.7.6-4.7 1.5s-1 1.8-1 2.5c.2 1.1 1 2.2 2.3 2.8 1 .4 2.2.7 3.5.7 2.7 0 5.9-1 7.3-3.5a10 10 0 00-5.9-3.8 7.6 7.6 0 00-1.5-.2M53.7 226.8a7.5 7.5 0 001.6 0c1.7-.4 3.4-1.2 5.3-2.5l.9-.6 1.5-1.1a4.8 4.8 0 013.2-.5l1.3.3 1.7.3h.1l1.6.1a5 5 0 002.3-1l.7-.4c.5-.4 1-.8 1.7-1l1.4-.2c.6 0 1.4.1 2 .3 1.3.5 2.5 1.3 3.6 2a26.7 26.7 0 001.5 1.2c.9.5 1.8.8 2.8 1h.3c.6.2 1.3.3 2 .3.6 0 1.1 0 1.5-.3.4-.2.8-.7.8-1.1v-.7l.1-1v-1.3l.1-.2c0-.5.1-1-.2-1.4-.3-.5-1.1-.6-1.8-.6h-2.4a9.2 9.2 0 01-3.3-.5h-.2l-2.2-1a.4.4 0 01-.2-.3c.5-2.7 1.6-5.3 1.7-5.4a40 40 0 016-9c5.6-5.3 13.5-14.8 13.6-14.9a.4.4 0 01.6.4 9.4 9.4 0 001 6.1l1.2 2.4.6 1.3a60.8 60.8 0 011.5 3v.2l.2.3c2.7-4 3.6-9.8 3.6-9.9a.4.4 0 01.2-.2.4.4 0 01.3 0 .5.5 0 00.2 0c1.3 0 4.7-3 5.8-4a.4.4 0 01.5 0c.5.3 1.2.5 2.1.5 1.7 0 3.5-.6 3.5-.6a75 75 0 008.6-5.8.4.4 0 01.5.2c.3.9 1.7 1 2.9 1 1.6 0 3.2-.3 3.3-.3a.4.4 0 01.3.1c0 .1.1.3 0 .4-.6 2.3-.4 4.3.6 5.9 2.1 3.3 7 4.2 7 4.2.3 0 .4.2.4.3 0 1.1.3 2 1 2.8 1.8 1.8 5.5 2.1 7.6 2.1l2.3-.1a.4.4 0 01.3.5c0 .4 0 .8.2 1.1.6 1.1 2.6 1.6 2.6 1.6a.4.4 0 01.3.4.4.4 0 01-.3.3c-3 .8-2.5 4-2.5 4a.4.4 0 010 .4.4.4 0 01-.4.1 6.7 6.7 0 00-.8 0c-3.4 0-3.8 3-3.8 3.2a.4.4 0 01-.4.3c-3.4 0-6.4.5-6.4.5-2 .3-3.7 1.5-3.7 1.6a.4.4 0 01-.4 0c-.3-.2-.8-.3-1.3-.4a6.4 6.4 0 01-.3 0l-.6-.2-1.6-.4c-2.2-.8-4-2.4-5.1-3.6a34.9 34.9 0 00-3.8-3.2c-.2 0-.2-.2-.3-.2-.4-.4-.8-.7-1.3-.7s-1 .3-1.5.7l-1.1 1.5-.3.5c-.2.2-.3.6-.4 1 0 .8.3 1.7 1 2 .6.5 1.3.7 2.1.9l.5.1 1.6.4c2.3.7 3.8 1.8 5 3.3 1 1.4.9 1.6.8 1.7a.4.4 0 01-.1.3c-.8.4-1.7.5-2.6.5h-1c-.7 0-1.3 0-1.8-.2a10 10 0 01-3.4-1.7 5.2 5.2 0 00-4.4-1.4 4.7 4.7 0 00-1.5.6l-1 .8a6 6 0 00-1 2.2c-.2.7-.2 1.6.3 2 .8.9 2.3 1.4 3.1 1.6.3.1.6.2.7.7 0 .3.2.8.5 1.1.6.9 1.8 1.5 2.4 1.8a.3.3 0 01.2.2c.2.5.7 1.6 1.3 1.6.6 0 1-.4 1.5-.9l.4-.4c.9-.7 2-1.3 2.8-1.7 2-.9 4-1.2 6-1.4l2.3-.2h1.1a26.8 26.8 0 013 0h.2c.8 0 2 0 2.7 1l.2.2.6-.2.2-.1 1-.5h.1c1.9-.8 3.9-.8 5.7-.1l1.4.7 2.6 1.5.9.6c1.2.7 2.4 1.6 3.8 1.6h.5c.5-.2 1-.4 1-.9a3 3 0 00-.3-.8l-.1-.2c-.4-.6-.5-.7-.3-1 .7-1 .5-2.2-.4-3a4 4 0 00-2-.6h-1.5l-1.2.1a6.1 6.1 0 01-1.6-.1 8.4 8.4 0 01-1.2-.5 1.6 1.6 0 01-.2 0l-.2-.1a.4.4 0 01-.2-.3.4.4 0 01.2-.4c10.9-3.2 16.7-8.2 16.7-8.2a58.5 58.5 0 0011.7-13 .4.4 0 01.3-.1c1.6 0 8.6 3 10.6 3.9l-.1-2.3c-.2-.9-.5-1.7-.9-2.4-.5-1-1.2-1.9-2.2-2.6a6.2 6.2 0 00-2.3-1l-1.7-.3-1.3-.2a34.3 34.3 0 01-1.9-.3 16.4 16.4 0 01-1.7-.5 59.7 59.7 0 01-5.8-2.3 11.7 11.7 0 01-1.5-.7c-2-1-2.7-3-3.1-4.5a7.7 7.7 0 01-.3-1.9c0-1.8.7-3.6 2-5l1.5-1.5.7-.5a19.5 19.5 0 002.5-2.7c.7-1 .7-1 .9-1l.2.1c1.3.9 6.3 2.4 6.3 2.4a.4.4 0 01.3.2c1.7 4 6.8 4.5 9 4.5h.8a.4.4 0 01.2 0c1.6 1.4 3.7 2 6.2 2 2.7 0 5-.7 5-.7a.4.4 0 01.4.1c1.2 1.7 3 2.5 5.2 2.5 2.3 0 4.4-1 4.4-1a.4.4 0 01.5.2c.8 1.3 2.6 1.5 3.9 1.5l1.9-.1a.4.4 0 01.4.2c.5 2.2 3.6 3.7 3.7 3.7.1.1.2.3.1.5-1.5 3.6.8 8 .9 8a.3.3 0 010 .4 8.5 8.5 0 00-.5 6.3.4.4 0 01-.2.4c-1.4.7-2.3 1.5-2.6 2.6-.4 1.8.8 3.5.8 3.5a.4.4 0 010 .4c-2.7 4.6-6.2 5.5-8.6 5.5a18.6 18.6 0 01-10.4-4.8c-.8-.7-1.4-1.5-2-2.2l-.7-.8a4.8 4.8 0 00-1.8-1.6 1 1 0 00-.4 0c-.5 0-.9.2-1.1.6-.4.7-.8 1.8-.9 3 0 .2 0 .6-.2 1-.1.5-.2 1.1 0 1.6 0 .3.4.4 1 .5 1 .1 2 .5 3 .8l.3.1c2.2.7 4.2 1.8 5.7 2.6l.3.1 2 1.2a.4.4 0 01.2.5.4.4 0 01-.5.1 45.8 45.8 0 00-3.1-1.4c-1.2-.5-2.7-1-4.3-1.4a20.6 20.6 0 00-5.3-.6c-1.2 0-1.6 1-2 2.3v1.5c0 .5.1 1.4.8 1.9a2.2 2.2 0 001.8.2l1-.6.4-.4c.4-.2.8-.3 1.4-.3h.8c2.3.2 4.6.4 6.8 1l1 .4a4 4 0 01.4.1.4.4 0 01.4.3.4.4 0 01-.4.4h-.1l-3.7.4c-1 .2-2.2.5-3.2 1-.4 0-1.3.5-1.4 1.5-.1 1 .4 2.1 1.4 3 1 .7 2 .8 3.1.2l3.5-2.4.2-.2c.8-.6 1.7-1.2 2.7-1.6 1-.4 2.5-.6 3.6-.4a6 6 0 011.9.8l.8.6.7.5a5.7 5.7 0 002.5.7c1.2 0 2.5-.7 3.7-1.3.8-.5 1.6-1 2.5-1.2.8-.3 1.8-.6 2.9-.5 1.7 0 3.6 1 5.1 1.6h.1a18.9 18.9 0 013.2 2c.5.4 1 .9 1.5.9.8 0 1.6-2 1.8-3v-.3c.1-.6.2-1 0-1.6-.2-.5-.8-.8-1-1-1-.4-2-.8-2.9-1a30.4 30.4 0 01-2-.8c-1.3-.5-1.8-1.7-2.2-2.8-.3-.5-.5-1-.6-1.6-.3-.5-.3-.7-.2-1 .7-1 1.2-1.8 1.5-2.8a57.5 57.5 0 001.5-7.3c2.8-12.5-1.4-23.6-1.4-23.8a.4.4 0 01.4-.4c1.8.6 5.9 4.2 6.2 4.5a8.1 8.1 0 004.7 1.5l1.5-.1a17.6 17.6 0 00-6.2-6.3c-8.6-6.3-23.7-14.3-23.9-14.4a.4.4 0 01-.2-.4.4.4 0 01.3-.2 51.6 51.6 0 0027.5-9.2c5.7-4 8.3-8 8.3-8 5.7-6.4 2.6-16.7 2.6-16.8-2.3-7.2-10-10.2-10-10.3a31.6 31.6 0 00-11-2.1c-2.8 0-4.4.5-4.4.5-10 2.8-10.6 10-10.6 10.4-.5 8.7 7.2 11 7.6 11.1a22 22 0 006.7 1c5.4 0 9.2-2 9.9-2.4v-.1c.2-1 .2-2 .1-3a12 12 0 000-.4c-.3-1.4-.6-2-1.3-3.2-1.7 2.6-5.1 3.5-7.7 3.5-1.4 0-2.8-.3-3.8-.8-1.5-.6-2.5-2-2.7-3.3-.2-1.2.3-2.3 1.2-3.2a8.3 8.3 0 015.2-1.6 10.8 10.8 0 018 4.5 9.7 9.7 0 011.7 7.6 8.5 8.5 0 01-4.7 6c-2.6 1.5-5.5 2-8 2.3a48 48 0 01-6 .3h-2c-2.2 0-4.5 0-6.8-.6l-2.7-.8-2.9-.9c-2.7-.6-5.5-.8-8-1a107.4 107.4 0 00-3.4-.2l-6.8-.1h-1.9-1.1a2 2 0 00-.3 0 .4.4 0 01-.4 0 .4.4 0 01-.1-.6c4.6-7.5 11.3-9 16-9 1.9 0 3.4.2 4.4.4a16.2 16.2 0 01-3-16.3c4.5-11.5 17-16.5 21-17.8-2.3-.8-5.8-2.3-7-5-2.6-5.7 2.5-10.8 6.3-14.5l.4-.4c2.6-2.6 5.6-5.1 9-7.6l-3.6 1.5-6.6 2.5-5.8 2.2-17 6.7a16 16 0 01-6 1.3c-2.5 0-5.8-.8-7.1-4.6-2-5.7 1.5-12.6 3-15.3a220.6 220.6 0 00-13.8 7.8 341.1 341.1 0 00-34 23.9 909.6 909.6 0 01-4.3 3.4l-.4.3c-4.2 3.3-8.5 6.6-9.3 12.1-.2.9-.2 1.8-.2 2.7V119.4c.2 3.6.3 7.4-1 11a6 6 0 01-3.1 3.5c-1.3.5-2.8.7-4.2 1l-1.7.2-12.6 2.7a.4.4 0 01-.5-.3c0-.7-.4-1.4-.8-2-.4-1-.8-1.8-.8-2.8-.1-1.1.4-2.3 1.3-3 .7-.4 1.6-.6 2-.7 1-.2 2.7.1 4 .8 0-.7-.2-1.4-.4-2.2-.4-1.5-1.8-2-3.2-2.5l-1.3-.5a8.3 8.3 0 01-2-1.3c-.8-.7-1.2-2-1.3-3.6 0-1 0-2.2 1-3a3 3 0 011.9-.6c2 0 4.2 1.4 5.4 2.2l1.5 1.1.4.3c0-.7-.3-2-.5-3a6.5 6.5 0 00-4.2-4.7c-.8-.3-1.9-.7-2.6-1.5-.7-.9-1-2.3-.9-3.3 0-1.5.9-2.7 2.2-3.2a4.1 4.1 0 011.3-.2c1.3 0 2.5.5 3.6 1h.2l2.4 1a9.4 9.4 0 00-.2-1.7 7.5 7.5 0 00-4-5l-1-.4c-.9-.2-1.8-.4-2.4-1.3a2 2 0 01-.2-1.6 2.3 2.3 0 011-1.4c1-.6 2.6-.6 3.8-.6h.4a14.7 14.7 0 011.8.1c-2-3.4-7.2-5-7.2-5.1a.4.4 0 01-.2-.2l-1.2-2-1.5-2.7c-1-1.7-.9-3.1.2-4.5a11.5 11.5 0 011.6-1.5c2.2-1.8 4.8-3.1 6.8-4l-1.9-.3a.4.4 0 01-.3-.4V72.3a287.6 287.6 0 01.5-5.9l-.8.7c-2 1.3-4.6 1.8-6.8 2.3l-3.4.8-4.2 1.6c-.8.5-1.4.8-1.8 1.3l-.3.3c-.7.8-.8.9-1 .9l-2.4-.2-6.6-.4-4.7-.2-2.4-.2a24 24 0 00-5.3.3c-1.7.3-4 1.1-5.5 3.2l-.8 1.9a.4.4 0 01-.3.5h-.5c-18 0-24.5 6.3-26.2 8.6a67 67 0 0111.3-.9c7.9.4 9 4.1 9.2 5.3a5.8 5.8 0 00.5 0c4.3 0 9.2-4.3 9.3-4.3a.3.3 0 01.2-.1h.3c2 0 4 .5 6.2 1.4.7.3 1.4.7 2 1.2a14.9 14.9 0 014.3 7.2l.2.7a.3.3 0 010 .2.4.4 0 01-.3.3H84.9c-.6.1-1.2.4-1.8.7-1.1.6-2.4 1.1-3.6 1.6h-.3a13.6 13.6 0 01-6.3 1h-6c.4 4.5 2.3 6.3 2.3 6.3a.4.4 0 01.1.4c-.5 3 0 4.4.5 5 .2.4.5.6.7.7l3-8.7a.4.4 0 01.3-.3.4.4 0 01.4.2l1.7 4c2.7-7.7 8-8.3 9.5-8.3h.4a.4.4 0 01.3.3c.1 1.3 1.4 3.8 1.4 3.8v.3a.4.4 0 01-.2.2c-5.5 2.2-4 7.5-3.9 7.8a.4.4 0 01-.2.4c-4.7 2.4-3.6 7.8-3.6 7.9a.4.4 0 01-.1.3c-5.4 3.2-4.2 9-4.2 9a.4.4 0 01-.3.4c-4 1.3-3.1 11-3.1 11a.3.3 0 01-.1.3c-2.2 2.6-3.1 5.3-2.8 7.8a10 10 0 003.6 6.2.4.4 0 010 .6 4.7 4.7 0 00-2.7 3.8.4.4 0 01-.2.3.4.4 0 01-.3 0l-1.2-.3a2 2 0 00-1.8 1.2.4.4 0 01-.3.2.4.4 0 01-.3-.1c-1.2-1.6-2.6-2.5-4.2-2.5a4.7 4.7 0 00-2 .4.4.4 0 01-.2 0 .4.4 0 01-.2-.2 6.5 6.5 0 00-6.2-4.1.4.4 0 01-.4-.3c-.4-5.1-4.1-5.8-4.3-5.9a.4.4 0 01-.3-.3 32.2 32.2 0 00-4.2-15.3c-.9-3 1.2-4 1.2-4 1.7-.8 3.7-2.6 3.8-2.6 1.6-1.7 1-4 1-4-.3-1.2-2.6-2.1-3.4-2.4h-.1a.7.7 0 00-.3-.1c-1 0-2.2 1.7-2.8 2.9a.4.4 0 01-.4.2.4.4 0 01-.3-.3c-.4-1.2 0-2 .4-3 .4-.9.9-2 1-3 .2-3.2-.8-3.9-.9-4a4 4 0 00-1 0 5.5 5.5 0 00-3.5 1.5c-3 5.2-1 13.7-1 13.8a.4.4 0 01-.2.4.4.4 0 01-.4-.2l-1.5-4.4c-1.8-4.6-3-6.6-3.1-6.8-.3-.2-.5-.4-.8-.4-.5 0-1 .4-1.6.8l-.9.6a5.9 5.9 0 00-.3.1l-.4.3h-.7l-.5.2-.4.5c-1 1.9.7 3.5 1.3 4a.4.4 0 010 .3c0 5.5 5 7 5.2 7a.4.4 0 01.3.4l-1.2 12v.4c-.3 3.6-.3 3.6-.7 3.6-1.2.2-1.7 1.9-1.7 2a7.7 7.7 0 01-1.9 3 14.1 14.1 0 01-2.5 2.2c-.4.3-.4.4-.4.8 0 .3.3.4.6.6l.6.4.8 1.1.5.8c.3.3 1 1 1.7 1 .3 0 .6-.2.8-.4 1-.8 1.4-2.2 1.5-3l.1-.6.2-1.1c.2-.7.6-1 1-1.5 1-.9 1.6-2.3 2-3.6l.9-2.5a.4.4 0 01.4-.3.4.4 0 01.3.4c.2 5.5 4.5 12.4 4.5 12.4 1.5 2.7 3.7 5.2 6.7 7.8a49.8 49.8 0 012.6 2.5 62.4 62.4 0 012.4 2.5 93.5 93.5 0 013.8 4.7l1 1.2 2.5 3.5a22.5 22.5 0 013.5 13.5v.5a29 29 0 005.9-11.3.4.4 0 01.3-.3l10-1.8a.3.3 0 01.2 0c.2.1 1 .3 4.1.3h1.3a.4.4 0 01.3.2.4.4 0 01-.1.5c-1.7 1-1.1 4.4-1.1 4.5a.4.4 0 01-.2.4c-1.8.8-2.8 1.9-3.2 3.2-.4 1.6.5 3.1.6 3.1a.4.4 0 01-.2.5c-4.8 2.4-4 8.5-4 8.5a.3.3 0 010 .2 16 16 0 01-13 8c-4.2 0-7.6-2-7.7-2.2-2.7-1.8-5-2.3-6.6-1.3-.7.4-1.1.9-1.6 1.5l-.3.4c-.4.5-.6 1-.5 1.4 0 .7.8 1.3.8 1.3a.4.4 0 01.2.3.4.4 0 01-.2.3c-2 1-2 3.5-2 3.6 0 1.7 1 1.9 1.5 1.9h.1a.4.4 0 01.4.4c-.6 3 .8 5 .8 5 1.3 1.9 3.8 2 4.3 2m.3.7h-.2-.1c-.6 0-3.4-.1-4.9-2.3 0 0-1.5-2-1-5.1-.6-.1-2-.6-2-2.6 0-.1 0-2.6 2-4-.3-.3-.7-.8-.7-1.4-.1-.7.1-1.3.6-2l.4-.4c.5-.6 1-1.2 1.7-1.6 2-1.2 4.4-.7 7.4 1.3 0 0 3.6 2.3 7.8 2.1.1 0 8-.5 11.8-7.5-.1-.9-.5-6.5 4-9-.3-.5-.8-1.8-.4-3.3.4-1.4 1.5-2.6 3.3-3.6 0-.7-.2-2.9.8-4.3H84c-2.2 0-3.6 0-4.2-.3-1 .2-7.4 1.5-9.8 1.8-.4 1.4-2.5 8.4-6.8 12.1a.4.4 0 01-.5-.5v-1-.2a24.4 24.4 0 00-3.3-13c-.7-1.3-1.7-2.5-2.5-3.6l-1-1.1a90.3 90.3 0 00-3.8-4.7 61 61 0 00-2.3-2.5 48 48 0 00-2.6-2.5 35.4 35.4 0 01-11.2-19l-.3.9c-.5 1.3-1.1 3-2.2 4-.5.4-.7.6-.9 1.1l-.2 1v.6c-.2.9-.7 2.6-1.8 3.5-.4.3-.9.4-1.3.4-.8 0-1.5-.4-2.2-1.1a6 6 0 01-.6-.9l-.7-1a2.5 2.5 0 00-.4-.2c-.4-.3-.9-.5-1-1.1 0-.7 0-1.1.6-1.6l.8-.6 1.7-1.5c1-1 1.4-2 1.7-2.8 0 0 .6-2 2-2.3.2-.6.3-2.4.3-3v-.5l1.2-11.7a7.8 7.8 0 01-5.3-7.5c-1.6-1.4-2.1-3.2-1.3-4.7.1-.4.4-.6.7-.8.2-.2.5-.2.8-.2l.4-.1.4-.2.3-.2.7-.5c.7-.4 1.4-.9 2.1-.9.5 0 1 .2 1.3.7.1 0 1.3 2 3.2 7l.3.6c-.3-3-.2-7.3 1.6-10.4.1-.1 1.8-1.9 4.1-1.9.4 0 .8 0 1.2.2.2 0 1.7.7 1.4 4.6a10 10 0 01-1 3.2c-.3.6-.5 1.1-.5 1.6.6-1 1.7-2.3 2.9-2.3l.6.1c.4.1 3.4 1.2 4 2.9 0 .1.6 2.8-1.3 4.7-.1 0-2.2 2-4 2.7 0 0-1.5.8-.8 3.1.3.6 4 7 4.2 15.3 1 .3 4.1 1.5 4.6 6 1 0 4.5.4 6.4 4.3a5.7 5.7 0 011.9-.3c1.2 0 2.9.4 4.4 2.3.4-.5 1-1 2.2-1h1c.2-.7.7-2.4 2.5-3.5-.9-.9-3-3.1-3.4-6.4-.4-2.7.6-5.5 2.8-8.2 0-1.3-.7-10 3.4-11.5A9.4 9.4 0 0179 122c-.2-1.2-.6-5.9 3.7-8.3-.2-1.2-.9-6 4.1-8.2-.3-.7-1-2.3-1.3-3.4-1.5 0-6.6.6-9.1 8.7a.4.4 0 01-.3.3.4.4 0 01-.4-.2l-1.7-4L71 115a.4.4 0 01-.4.2s-.8-.1-1.5-1c-.8-1.1-1-3-.6-5.5a12 12 0 01-2.4-7 .4.4 0 010-.3.4.4 0 01.3-.1 231.7 231.7 0 008.8 0 13 13 0 003.6-.9l.3-.1 3.6-1.5a7 7 0 012-.8h3.4l-.1-.3v-.1c-.9-2.5-2-5.2-4-6.8a8.3 8.3 0 00-1.8-1c-2.2-1-4.3-1.4-6.1-1.4-.8.7-5.5 4.4-9.7 4.4h-.9a.4.4 0 01-.3-.4c0-.2-.1-4.4-8.5-4.9 0 0-9.1 0-12 1.2a.4.4 0 01-.5-.1.3.3 0 010-.4c0-.1 1.3-2.5 5.3-5a42.5 42.5 0 0122.1-4.8h.1c.2-.8 1-2.1 1-2.1a9 9 0 015.9-3.5 23.8 23.8 0 014-.3h1.4l2.5.1 4.7.3a684 684 0 018.8.6 20.6 20.6 0 001-1c.4-.5 1-1 1.8-1.4 1.4-.8 3-1.3 4.4-1.7a98.8 98.8 0 013.4-.8c2.2-.5 4.7-1 6.6-2.2.6-.4 1-.9 1.4-1.3a.4.4 0 01.4-.1l.2.3c0 1.7-.2 3.4-.3 5l-.2 2v.5l2.8.4c.2 0 .4.2.3.4a.4.4 0 01-.4.3l-.6.3a4.1 4.1 0 01-.4.2c-2 1-4.5 2.2-6.6 4-.6.4-1.1.9-1.5 1.4-1 1.1-1 2.2-.2 3.6l1.5 2.7 1.1 2c1 .3 6.2 2.2 7.8 6a.4.4 0 010 .4.4.4 0 01-.4.2 16.1 16.1 0 00-2.4-.3h-.3a31.3 31.3 0 00-.6 0c-1 0-2.1 0-2.8.5-.4.2-.6.6-.7 1-.1.4 0 .7.1 1 .4.7 1.2.8 2 1l1.2.4c2 .9 3.8 3.2 4.3 5.6.2.8.2 1.6.2 2.4a.4.4 0 01-.2.3.4.4 0 01-.3 0 45.8 45.8 0 00-2.9-1.2h-.1c-1-.5-2.3-1-3.4-1l-1 .2c-1 .3-1.7 1.3-1.8 2.5 0 .9.2 2 .8 2.8.6.7 1.6 1 2.3 1.3 2.3.7 4 2.8 4.6 5.3l.7 3.9a.4.4 0 01-.4.4c-.2 0-1-.6-1-.6l-.4-.3-1.4-1.1c-1-.6-3.2-2-5-2-.6 0-1.1.1-1.5.4-.7.5-.7 1.6-.6 2.4 0 1.5.3 2.5 1 3 .5.6 1.2 1 1.8 1.3l1.2.4c1.5.6 3.2 1.2 3.7 3 .3 1.1.4 2.2.3 3a.4.4 0 01-.2.4.3.3 0 01-.3 0c-1.1-.8-3-1.3-4-1-.6 0-1.2.2-1.6.5-.7.5-1.2 1.5-1.1 2.4 0 .8.4 1.6.8 2.4l.8 2c3.6-.9 8-1.8 12.2-2.7l1.8-.3a17 17 0 004-1c1.5-.5 2.3-2.1 2.7-3 1.3-3.5 1.2-7.1 1-10.7v-4.2l.1-2.7c1-5.8 5.4-9.2 9.6-12.6l.5-.3 4.2-3.4L161 88a342 342 0 0123.3-15.6 217.6 217.6 0 0115.1-8.4.4.4 0 01.4 0c.2.2.2.4 0 .5 0 .1-6 9-3.7 15.7 1.3 3.5 4.2 4.2 6.5 4.2 1.7 0 3.8-.5 5.7-1.3l17-6.7a1543.8 1543.8 0 0012.4-4.7l6.5-2.6c.1 0 .3 0 .4.2a.4.4 0 010 .5c-4.4 3-8.3 6-11.5 9.2l-.4.4c-3.6 3.6-8.5 8.5-6.2 13.8 1.3 2.8 5.8 4.3 7.7 4.8a.4.4 0 010 .7c-.1 0-16.4 4.5-21.7 17.8 0 0-3.7 9.3 3.9 16.4v.5a.4.4 0 01-.4.1s-2.3-.7-5.5-.7c-4.4 0-10.6 1.4-15 8l.7.1h2.1a156.3 156.3 0 0110.3.4c2.4.1 5.3.4 8 1l3 .9 2.7.8c2.2.5 4.4.5 6.6.6h2c2.2 0 4.1-.1 5.9-.3 2.4-.3 5.3-.8 7.8-2.2a8 8 0 004-4.4 21.2 21.2 0 01-16.5 1.1c-.1 0-8.7-2.5-8.1-11.8 0-.1.6-8.2 11-11.1.1 0 1.8-.5 4.7-.5 3.5 0 7.3.7 11.2 2.1.3.2 8 3.2 10.5 10.8 0 .1 3.2 10.7-2.7 17.4-.2.4-2.8 4.2-8.5 8.2a52 52 0 01-26.5 9.2c3.7 2 15.6 8.5 22.8 13.8.4.2 5 3 6.7 7a.4.4 0 01-.2.5s-1 .3-2.2.3a8.8 8.8 0 01-5.1-1.7s-3.4-3-5.3-4c1 2.7 3.6 12.5 1.2 23.2l-.6 3.2c-.3 1.3-.5 2.8-.9 4.1-.3 1.2-1 2.2-1.5 3v.4l.1.1.6 1.5c.5 1 .8 2 1.8 2.4l2 .7 3 1.1a3 3 0 011.4 1.4c.3.7.2 1.4 0 2v.2s-.7 3.7-2.5 3.7c-.8 0-1.4-.6-2-1a7.6 7.6 0 00-.5-.5 18.2 18.2 0 00-2.5-1.4c-1.6-.7-3.3-1.5-5-1.6-.9 0-1.8.2-2.6.5-.8.2-1.5.7-2.3 1.1a8.8 8.8 0 01-4.1 1.5h-.5a6.3 6.3 0 01-2.3-.8 6.3 6.3 0 01-.9-.7l-.7-.5a5.3 5.3 0 00-1.7-.6c-1-.2-2.2 0-3.2.3-.9.3-1.7 1-2.5 1.5l-.1.2-3.6 2.4c-1.3.8-2.7.7-4-.3-1.2-1-1.8-2.3-1.6-3.6 0-1 .8-1.7 1.8-2.2a16 16 0 013.4-.9 26.2 26.2 0 012-.2c-2-.6-4.2-.8-6.3-1h-.3a6 6 0 00-.5 0c-.4 0-.7 0-1 .3l-.4.3a5 5 0 01-1.2.6l-.8.2a3 3 0 01-1.6-.4c-.7-.5-1.1-1.3-1.2-2.4l.1-1.8c.3-1 .7-2.7 2.6-2.8a19.9 19.9 0 015.6.6h.2a17.8 17.8 0 00-1-.3h-.2l-3-.9c-.5 0-1.2-.2-1.5-1-.3-.6-.1-1.4 0-2l.2-1a8 8 0 011-3.2 2 2 0 012.3-.8c.9.3 1.6 1 2.1 1.7l.7.8a17.8 17.8 0 009 6.2s1.2.6 3 .6c2 0 5.2-.9 7.8-5-.4-.5-1.2-2.2-.8-3.9.4-1.2 1.3-2.2 2.7-2.9-.2-.9-.8-3.5.5-6.4-.4-.8-2.1-4.7-.9-8.2-.8-.4-3-1.8-3.6-3.7l-1.7.2c-1.4 0-3.3-.3-4.3-1.7-.7.3-2.5 1-4.5 1-2.4 0-4.3-1-5.7-2.6-.6.2-2.6.7-4.9.7a10 10 0 01-6.5-2.1h-.8c-2.2 0-7.6-.5-9.5-4.7a50 50 0 01-6.1-2.3l-.5.6-.3.5a21.4 21.4 0 01-2.9 2.8l-1.5 1.3a6.8 6.8 0 00-1.5 6.3c.6 2.1 1.4 3.4 2.8 4.1l1.3.6a103.9 103.9 0 012.1.9l3.7 1.4a17.3 17.3 0 003.5.8l1.3.1 1.7.3c1 .2 1.8.6 2.6 1.2a8 8 0 012.4 2.8c.5.8.8 1.7 1 2.6 0 .2.2 2 0 3a.4.4 0 01-.5.3c-2.4-1-8.8-3.8-10.5-4a59 59 0 01-11.7 13s-5.6 4.7-16 8l.6.2 1.4.1h2.6c.8 0 1.9.1 2.5.6 1.2 1 1.5 2.5.7 3.9l.2.3.1.3c.2.3.4.6.4 1 .1.8-.4 1.4-1.5 1.6h-.7c-1.6 0-3-.8-4.2-1.6l-.8-.6a40.2 40.2 0 00-2.6-1.5 16.3 16.3 0 00-1.4-.6 6.5 6.5 0 00-5 0h-.1l-1 .5h-.2c-.3.3-.6.5-1 .5a.9.9 0 01-.1 0c-.4-.1-.6-.4-.7-.6-.4-.6-1.5-.7-2.2-.7h-4.2l-2.3.2c-1.9.2-3.9.5-5.7 1.4a11.2 11.2 0 00-3 2c-.5.5-1.2 1.1-2 1-1 0-1.6-1.2-2-2-.6-.3-1.8-1-2.5-1.8-.4-.5-.5-1-.6-1.5a1.3 1.3 0 00-.1 0h-.1c-.9-.3-2.5-.9-3.4-1.9-.7-.7-.7-2-.5-2.7.2-.7.5-1.7 1.1-2.4a4.8 4.8 0 011.2-1 5.3 5.3 0 011.8-.7 6 6 0 015 1.5c.9.8 2 1.3 3.1 1.6.5.2 1 .2 1.6.2h1c.7 0 1.3 0 2-.3a24 24 0 00-.8-1 8 8 0 00-4.5-3l-1.6-.5a20.2 20.2 0 00-.4 0c-.9-.3-1.7-.5-2.5-1a3 3 0 01-1.2-2.8 3.6 3.6 0 01.7-1.8l1.3-1.7a3 3 0 012-.8c.7 0 1.3.4 1.7.8l.3.2c1.3 1 2.7 2 3.9 3.3 1 1.1 2.8 2.6 4.9 3.4l1.4.4.7.1h.3l1.3.4c.5-.3 2-1.3 3.8-1.5 0 0 3-.4 6.2-.5.2-1 1.1-3.6 4.5-3.6h.5c0-.9 0-3 2-4-.7-.3-1.6-.8-2-1.6a2.1 2.1 0 01-.3-1.2h-2c-2.6 0-6.2-.4-8-2.3a4.3 4.3 0 01-1.2-3c-1.2-.2-5.3-1.3-7.3-4.4a7.5 7.5 0 01-.8-6c-.6.1-1.7.3-2.8.3-1.7 0-2.8-.4-3.3-1.1-1.4 1-6.6 4.8-8.4 5.6-.1 0-2 .7-3.8.7a4 4 0 01-2.3-.6c-1 .9-4.4 4-6.1 4-.3 1.4-1.4 6.7-4.1 10.3a.4.4 0 01-.5 0 .4.4 0 01-.2-.2 6.9 6.9 0 00-.3-.7v-.1a65 65 0 00-1.5-3l-.7-1.3-1.2-2.5c-.9-2-1.3-3.7-1.2-5.3a205 205 0 01-12.8 14c-.3.2-4.3 4.9-5.9 8.7 0 0-1 2.5-1.5 5l1.8.6.2.1a10.5 10.5 0 003.8.5h1.7c.8 0 1.9.1 2.4.8.4.6.4 1.4.3 2v1.5l-.1 1V223.6c-.1.6-.7 1.4-1.3 1.7-.4.3-1 .4-1.8.4l-2.1-.2h-.3a8.5 8.5 0 01-3-1.2 31.9 31.9 0 01-1.7-1.1c-1-.8-2.1-1.5-3.4-2a5 5 0 00-2.9-.1l-1.5.9-.7.4c-.9.6-1.7 1.1-2.7 1.1h-1.7l-.1-.1-1.8-.3-1.2-.3c-1-.1-2 0-2.7.4l-1.5 1-.9.7c-2 1.4-3.8 2.2-5.6 2.5a8.8 8.8 0 01-1.5.2"/></g></g><g clip-path="url(#l)"><g clip-path="url(#m)"><path d="M253.5 119s3.2-5.8 3.8-8.3c0 0-8 1.4-14.3.4 0 0 23.9-22 29.2-31.4 0 0-3.4 26.4 3.7 41 0 0-9.2-3.6-11.4-9.8 0 0-4.2 14-4.8 14.5 0 0-2.4-4-6.2-6.3" fill="#d21034"/></g></g><g clip-path="url(#n)"><g clip-path="url(#o)"><path d="M254 119c2.9 1.8 5 4.5 5.7 5.7.8-2 3-9.3 4.4-14a.4.4 0 01.4-.2.4.4 0 01.3.2c1.8 5 8 8.2 10.4 9.2-5.6-12.5-4.1-32.8-3.5-38.7-6 9.2-24.3 26.4-27.9 29.7l4.3.2c4.7 0 9.1-.8 9.2-.8a.4.4 0 01.3.1c0 .1.1.2 0 .4-.5 2.2-3 7-3.6 8.2m5.7 6.7a.4.4 0 01-.3-.1s-2.4-4-6-6.2a.4.4 0 01-.2-.5s2.7-5.1 3.6-7.8a60.4 60.4 0 01-13.8.4.4.4 0 01-.2-.7c.2-.2 23.9-22 29.1-31.3a.4.4 0 01.4-.2.4.4 0 01.3.4c0 .3-3.3 26.5 3.6 40.8a.4.4 0 010 .4.4.4 0 01-.4 0c-.4 0-8.5-3.2-11.3-9-1.4 4.7-4 13.3-4.5 13.8a.4.4 0 01-.3 0"/></g></g><g clip-path="url(#p)"><g clip-path="url(#q)"><path d="M48.5 114.2s1.5 4.3-2 7c0 0 1.2 3.2 3.3 2 .6-.4 1-2.1 1.2-2.7.6-2.4.2-5.4-2.5-6.3" fill="#d21034"/></g></g><g clip-path="url(#r)"><g clip-path="url(#s)"><path d="M47 121.4c.2.5.9 1.7 1.9 1.7.2 0 .5 0 .7-.2.4-.3.8-1.7 1-2.2v-.3c.6-2 .3-4.5-1.6-5.5.3 1.3.5 4.3-2 6.5m1.9 2.4c-1.8 0-2.7-2.3-2.7-2.4a.4.4 0 010-.4c3.4-2.6 2-6.6 2-6.6a.4.4 0 010-.4.4.4 0 01.4-.1c2.8 1 3.5 4 2.7 6.7v.3c-.4 1.1-.7 2.2-1.3 2.6l-1.1.3"/></g></g><g clip-path="url(#t)"><g clip-path="url(#u)"><path d="M38.5 115s-.3-7-4.4-7c0 0 5.4-1.2 8.5 5.4 0 0-2.1 2.7-4 1.7" fill="#d21034"/></g></g><g clip-path="url(#v)"><g clip-path="url(#w)"><path d="M38.9 114.9h.6c1.1 0 2.3-1 2.7-1.5-1.7-3.6-4.1-4.8-6-5 2.2 1.6 2.6 5.5 2.7 6.5m.6.8c-.4 0-.8-.1-1.1-.3a.4.4 0 01-.2-.3s-.4-6.7-4.1-6.8a.4.4 0 01-.4-.4.4.4 0 01.3-.3 5.1 5.1 0 011-.1c1.6 0 5.5.5 8 5.8a.4.4 0 01-.1.3c0 .1-1.6 2-3.4 2"/></g></g><g clip-path="url(#x)"><g clip-path="url(#y)"><path d="M27.2 120s-.9-5-4.6-5c0 0 4.4-1.6 8.6 2.8 0 0-.5 3.4-4 2.2" fill="#d21034"/><path d="M27.5 119.7c.4.2.7.2 1 .2 1.7 0 2.2-1.5 2.3-2a8.5 8.5 0 00-6.4-2.8c2.2 1 3 3.8 3.1 4.6m1 1l-1.4-.3a.4.4 0 01-.3-.3s-.8-4.7-4.2-4.7a.4.4 0 01-.3-.3.4.4 0 01.2-.4s.9-.3 2.1-.3c1.8 0 4.3.5 6.9 3.1a.3.3 0 010 .3c0 1-.9 2.8-3 2.8"/></g></g><g clip-path="url(#z)"><g clip-path="url(#A)"><path d="M26.1 157.5s-1 6-6.6 5c0 0 5.9 3.2 9.4-1.8 0 0 .8-3-2.8-3.2" fill="#d21034"/><path d="M21.7 162.9l2 .2a6 6 0 005-2.6c0-.2 0-1-.4-1.8-.4-.5-1-.7-1.9-.8-.3 1-1.4 4.4-4.7 5m2 1c-2.4 0-4.3-1-4.4-1a.4.4 0 01.3-.8l1.1.2c4.2 0 5-4.7 5-4.9a.4.4 0 01.4-.3c1.3 0 2.2.5 2.8 1.2.8 1 .4 2.4.4 2.5-1.5 2-3.4 3-5.7 3"/></g></g><g clip-path="url(#B)"><g clip-path="url(#C)"><path d="M50.7 208.5c-.6-1-1.9-1.4-2.9-1.5-1.4-.2-2.7-.2-3.9.7-1 .8-1.5 2.3-1.9 3.5.2-.8 1.4-1.4 2-1.7 1.5-.6 2.5 0 3.6 1 1 .7 2.6.8 3.2-.5a1.7 1.7 0 00-.1-1.5" fill="#d21034"/></g></g><g clip-path="url(#D)"><g clip-path="url(#E)"><path d="M45.1 208.9c1 0 1.8.5 2.7 1.2.5.3 1 .5 1.4.5.4 0 1-.1 1.2-.8.2-.3.2-.7 0-1.1-.5-1-1.9-1.3-2.6-1.4a9 9 0 00-1.2 0c-1 0-1.8.2-2.4.7-.6.4-1 1-1.3 1.7a7 7 0 011-.5 3 3 0 011.2-.3m-3 2.7a.3.3 0 01-.2 0 .4.4 0 01-.2-.5c.3-1.4.9-2.9 2-3.7.8-.6 1.8-.9 2.9-.9h1.3c.9.2 2.4.6 3 1.8h.1a2 2 0 01-1.8 3 3 3 0 01-1.8-.6c-.8-.6-1.5-1.1-2.3-1.1-.3 0-.6 0-1 .2-1 .5-1.5 1-1.8 1.5 0 0-.1.3-.3.3"/></g></g><g clip-path="url(#F)"><g clip-path="url(#G)"><path d="M46.7 215.4a7 7 0 00-3.5-.2 6.8 6.8 0 00-5.9 5l.4-.3c.4-.4.8-.8 1.3-1a6 6 0 014.8-.5c.6.2 1.1.5 1.7.6.4.1 1.1.2 1.4 0 1.1-1 1.3-3-.2-3.6" fill="#d21034"/></g></g><g clip-path="url(#H)"><g clip-path="url(#I)"><path d="M45 215.4l-1.8.2a6.6 6.6 0 00-5 3.5l.6-.5a6.8 6.8 0 013.2-.9c.7 0 1.4.1 2 .4l.4.2 1.2.4h1.1a2 2 0 00.7-1.9 1.4 1.4 0 00-.9-1.1c-.4-.2-.9-.3-1.5-.3m-7.7 5.3a.4.4 0 01-.4-.5c.6-2.8 3.1-5 6.2-5.3l1.9-.2c.7 0 1.3.1 1.8.3a2.1 2.1 0 011.3 1.7c.1 1-.2 2-1 2.5-.2.2-.5.3-1 .3a4 4 0 01-.7-.1l-1.3-.5-.4-.2c-1.3-.5-3.1-.3-4.5.5l-1 .7-.2.2-.2.2h-.2a.4.4 0 01-.3.4"/></g></g><g clip-path="url(#J)"><g clip-path="url(#K)"><path d="M48.3 222.3c-2.2-.3-4 1.4-4.8 3.2-.6 1.3-1 2.8-1.5 4.2.2-.6.8-1.2 1.2-1.6 1.5-1.7 3.3-3.1 5.6-2.5.6 0 1.2 0 1.5-.5.7-1.4-.7-2.7-2-2.8" fill="#d21034"/></g></g><g clip-path="url(#L)"><g clip-path="url(#M)"><path d="M47.8 222.6c-1.9 0-3.3 1.6-4 3a18.8 18.8 0 00-.8 2.1c1-1.2 2.7-2.6 4.8-2.6l1.1.1h.4c.5 0 .6-.2.6-.2.2-.5.2-.9 0-1.3-.3-.5-1-1-1.7-1a3.6 3.6 0 00-.4-.1M42 230a.4.4 0 01-.3-.5l.2-.6c.3-1.2.7-2.5 1.3-3.7.8-1.6 2.4-3.4 4.6-3.4h.5a3 3 0 012.3 1.5 2 2 0 010 1.9c-.2.4-.7.7-1.3.7a2.6 2.6 0 01-.6-.1 4 4 0 00-1-.1c-1.8 0-3.3 1.4-4.2 2.5l-.1.1c-.4.4-.9 1-1 1.4a.4.4 0 01-.4.3"/></g></g><g clip-path="url(#N)"><g clip-path="url(#O)"><path d="M92.3 219.7c.7-.2 1.5 0 2.2.2.6.1 1.2.3 1.7.6 1.7 1.1 2.1 3.3 2.5 5.2-1.1-1.3-2.4-2.8-4.3-2.4-1 .2-1.6.7-2.5 1l-.5-1.2a3.1 3.1 0 01-.2-1c0-1.7 1-2.4 1-2.4" fill="#d21034"/></g></g><g clip-path="url(#P)"><g clip-path="url(#Q)"><path d="M95 222.8c1.3 0 2.2.7 3 1.6-.3-1.4-.8-2.8-2-3.6l-1.6-.6h-.2a5 5 0 00-1.8-.2c-.1.2-.8.8-.8 2l.1 1 .4.8.7-.3 1.5-.6h.7m3.7 3.1a.4.4 0 01-.3-.1c-1-1.2-2-2.3-3.4-2.3h-.5c-.5.1-1 .3-1.4.6a10 10 0 01-1 .4.4.4 0 01-.5-.1l-.6-1.3a3.4 3.4 0 01-.2-1.2c.1-1.8 1.2-2.6 1.3-2.6a.4.4 0 01.1 0l.7-.1c.5 0 1 0 1.4.2h.3l1.8.7c1.8 1.1 2.2 3.4 2.6 5.2v.2a.4.4 0 01-.2.4.3.3 0 01-.1 0"/></g></g><g clip-path="url(#R)"><g clip-path="url(#S)"><path d="M126.7 203.9c-1.2-.9-2.8-1-4.1-.6-.6.2-1.5.6-2 1.1a6.7 6.7 0 00-1.6 2.5l-.2.7-.1.5a7.8 7.8 0 011.3-1.3c.8-.7 1.9-1.5 3-1.4.9.2 1.6.7 2.2 1.3.6.5 1.4 1 2 .2a3 3 0 00.3-1.7c-.1-.5-.4-1-.8-1.3" fill="#d21034"/></g></g><g clip-path="url(#T)"><g clip-path="url(#U)"><path d="M122.7 205h.3c1 .2 1.9.9 2.5 1.4.3.4.7.6 1 .6 0 0 .2 0 .4-.3s.2-1 .2-1.4c0-.6-.4-1-.7-1.1-.6-.5-1.4-.7-2.3-.7-.5 0-1 0-1.4.2a5 5 0 00-1.8 1 6.4 6.4 0 00-1.4 2l.2-.2c.9-.7 1.9-1.5 3-1.5m-4 3.5a.4.4 0 01-.3-.6v-.2-.2l.3-.7a7.1 7.1 0 011.7-2.6c.6-.7 1.8-1.1 2-1.2a5.3 5.3 0 011.7-.3c1 0 2 .3 2.7.9.6.4 1 1 1 1.6 0 .5 0 1.4-.3 1.9s-.8.6-1 .6c-.5 0-1-.2-1.5-.7-.6-.6-1.2-1-2-1.2a1.6 1.6 0 00-.3 0c-.9 0-1.7.6-2.5 1.2a7.6 7.6 0 00-1.2 1.4.4.4 0 01-.3.1"/></g></g><g clip-path="url(#V)"><g clip-path="url(#W)"><path d="M121.4 213.2c-.5-.3-1.5-.2-2-.1a5.9 5.9 0 00-4.5 2.6 8.3 8.3 0 00-1 2.5c0 .3 0 .7-.2 1 .7-1.5 1.9-2.7 3.6-3a3.7 3.7 0 011.5.3c.4.1 1 .4 1.4.4.6 0 1-.5 1.3-1 0 0 .9-2-.1-2.7" fill="#d21034"/></g></g><g clip-path="url(#X)"><g clip-path="url(#Y)"><path d="M120.4 213.4h-1a5.5 5.5 0 00-4.9 3.9c.8-.8 1.7-1.3 2.7-1.4.5 0 1 0 1.7.2l.4.2 1 .2c.5 0 .8-.6.9-.8 0 0 .7-1.6 0-2.2l-.8-.1m-6.7 6a.4.4 0 01-.3-.4v-.5l.1-.4.3-.8a8.7 8.7 0 01.7-1.7c1-1.6 2.8-2.7 4.8-2.9h1.1c.5 0 1 0 1.2.2 1.2 1 .3 3 .3 3.1-.4.8-1 1.2-1.7 1.2-.4 0-.8-.1-1.1-.3l-.5-.1a3.2 3.2 0 00-1.3-.2c-1.9.2-2.8 1.8-3.2 2.7a.4.4 0 01-.4.2"/></g></g><g clip-path="url(#Z)"><g clip-path="url(#aa)"><path d="M124 221s2.7-.3 3.8 1.6c0 0 1 2-.9 2l-1.5-.3a4 4 0 00-1.5.1 5 5 0 00-2.9 2.3c-.1.3-.4 1-.3 1.2 0 0-1.6-6.4 3.2-6.8" fill="#d21034"/></g></g><g clip-path="url(#ab)"><g clip-path="url(#ac)"><path d="M124.5 221.4h-.5c-1 .1-1.9.5-2.4 1.3-.8 1-.9 2.6-.8 3.7.6-1 1.8-2 3-2.3a4.5 4.5 0 011.6-.2l.8.2h.7c.4.1.6 0 .7-.1.2-.3 0-1-.2-1.3-.7-1.1-2.1-1.3-3-1.3m-3.8 6.9a.3.3 0 01-.3-.2.6.6 0 010-.2c-.2-.7-.6-3.4.4-5.3a3.8 3.8 0 013.2-1.9h.6c1 0 2.7.2 3.6 1.7 0 .1.6 1.2.1 2-.1.2-.5.5-1.2.5h-.1l-.9-.1-.7-.2a3.7 3.7 0 00-1.3.1c-1 .4-2.2 1.2-2.6 2.2-.4.7-.4 1-.4 1a.4.4 0 01-.2.4.4.4 0 01-.2 0"/></g></g><g clip-path="url(#ad)"><g clip-path="url(#ae)"><path d="M166.1 225.2s-1.8-3.2.8-4.6h.5l1.1.1c1.5.2 3.2.8 4.2 2 .4.5.7 1.1.9 1.8a33.7 33.7 0 01.7 2.4l-.4-.5a12.5 12.5 0 00-1-1c-1.2-1-2.5-1.8-4.1-1.5-.7 0-1.3.2-1.8.6-.1 0-1 .5-.9.7" fill="#d21034"/></g></g><g clip-path="url(#af)"><g clip-path="url(#ag)"><path d="M169.3 223.5c1.6 0 2.9.9 3.8 1.7l.4.4-.3-1c-.2-.6-.4-1.2-.8-1.7-1-1.3-3-1.7-4-1.8a13.9 13.9 0 00-1-.1h-.2-.2a2 2 0 00-1 1.2c-.3.8 0 1.8.2 2.3.2 0 .3-.2.5-.3.7-.4 1.4-.6 2-.7h.6m5 3.8a.4.4 0 01-.4-.3 1.6 1.6 0 00-.2-.2l-.1-.1a12.3 12.3 0 00-1-1c-1.4-1.2-2.5-1.6-3.8-1.4-.5 0-1.1.1-1.6.5a5 5 0 00-.7.5.3.3 0 01-.2.2.4.4 0 01-.5-.1c0-.1-1-1.8-.5-3.4.2-.7.7-1.3 1.4-1.7a.7.7 0 01.3 0h1.6c1 .2 3.1.7 4.4 2.2.5.6.7 1.2 1 1.9l.5 1.6.2.9c0 .2-.1.3-.3.4h-.1"/></g></g><g clip-path="url(#ah)"><g clip-path="url(#ai)"><path d="M195.7 209.6s.2-4.4 5-4.5c0 0 1.7 0 2.7.5.6.2.8 1.1.7 1.7-.2.8-1 1.9-2 1.7-.2 0-.6-.4-.8-.5-.5-.3-1.1-.5-1.8-.6a4.2 4.2 0 00-2.2.4c-.3.2-1.6.8-1.6 1.3" fill="#d21034"/></g></g><g clip-path="url(#aj)"><g clip-path="url(#ak)"><path d="M199.1 207.5h.5a5.5 5.5 0 012.2.9l.4.2h.1c.7 0 1.3-.7 1.4-1.4 0-.4-.1-1.1-.5-1.3-.9-.5-2.4-.4-2.5-.4-2.9 0-4 1.7-4.4 3a7.4 7.4 0 01.9-.5 4.7 4.7 0 012-.5m-3.5 2.5a.4.4 0 01-.2-.1l-.2-.2v-.1s.3-4.8 5.4-4.8h.2c.7 0 1.8 0 2.7.4.7.4 1 1.5.8 2.1-.2 1-1 2-2 2h-.4l-.6-.3-.2-.2c-.6-.3-1.2-.5-1.7-.5-.7-.1-1.3 0-2 .3-.6.3-1.3.8-1.3 1 0 .2-.3.4-.5.4"/></g></g><g clip-path="url(#al)"><g clip-path="url(#am)"><path d="M199.4 214s-6 .9-6.3 6.6c0 0 1.7-4.7 6.8-2.7 0 0 2.3-1.5-.5-3.9" fill="#d21034"/></g></g><g clip-path="url(#an)"><g clip-path="url(#ao)"><path d="M199.3 214.4c-.8.2-4.3 1-5.5 4.4.8-.9 2-1.7 3.7-1.7.8 0 1.5 0 2.3.4.2-.2.6-.6.6-1.1 0-.6-.3-1.3-1-2M193 221a.4.4 0 01-.4-.4c.4-6 6.6-7 6.7-7a.4.4 0 01.2.2c1 .8 1.6 1.7 1.5 2.6 0 1.1-1 1.8-1 1.8a.4.4 0 01-.3 0c-.8-.3-1.6-.4-2.3-.4-3 0-4 2.8-4 3a.4.4 0 01-.4.2"/></g></g><g clip-path="url(#ap)"><g clip-path="url(#aq)"><path d="M205.2 222.8s-4-.4-5.8 6.5c0 0 3-3.8 8.6-3.3 0 0 1.1-2.7-2.8-3.2" fill="#d21034"/><path d="M205.1 223.1c-.6 0-3.3.3-5 5a10.6 10.6 0 017.6-2.5c0-.3.1-.8-.1-1.3-.4-.6-1.2-1-2.4-1.2m-5.8 6.6a.4.4 0 01-.3-.5c1.6-6.5 5.3-6.8 6-6.8h.2c1.5.2 2.4.8 3 1.6.5 1 0 2.1 0 2.2a.4.4 0 01-.4.2h-1c-4.6 0-7.2 3-7.2 3.1a.4.4 0 01-.3.2"/></g></g><g clip-path="url(#ar)"><g clip-path="url(#as)"><path d="M246 224.6s-1-2.7 1.2-4c0 0 4.7.4 5.9 6 0 0-3.5-4-7.1-2" fill="#d21034"/><path d="M248 223.7a7 7 0 014.4 1.8 6.4 6.4 0 00-5-4.5c-1.5.9-1.4 2.4-1.2 3a4.6 4.6 0 011.9-.3m5 3.3a.4.4 0 01-.3-.1s-2.2-2.5-4.7-2.5a4 4 0 00-2 .5.4.4 0 01-.2 0 .3.3 0 01-.3-.2c-.4-1-.6-3.2 1.5-4.4a.4.4 0 01.2 0s4.9.4 6.1 6.3a.4.4 0 01-.2.4.4.4 0 01-.1 0"/></g></g><g clip-path="url(#at)"><g clip-path="url(#au)"><path d="M27 83.6s5.3 15 18.9 21.7L40.8 96s5.5-2 8.8-3.5c0 0-17-2.6-22.6-9" fill="#d21034"/></g></g><g clip-path="url(#av)"><g clip-path="url(#aw)"><path d="M28 85a42 42 0 0017 19.5l-4.5-8.3a.3.3 0 010-.3.3.3 0 01.1-.2s4.5-1.6 7.7-3c-3.6-.7-14.8-3-20.3-7.7M46 105.7a.3.3 0 01-.2 0 43 43 0 01-19-22 .4.4 0 01.1-.5.4.4 0 01.5.1c5.5 6.2 22.2 8.8 22.3 8.8a.4.4 0 01.3.3.4.4 0 01-.2.4c-2.7 1.3-7 3-8.4 3.4l5 9-.1.4a.4.4 0 01-.3.1"/></g></g><g clip-path="url(#ax)"><g clip-path="url(#ay)"><path d="M67.7 92.9l1.7 1.5.4-2.3" fill="#d21034"/></g></g><g clip-path="url(#az)"><g clip-path="url(#aA)"><path d="M68.2 93l1 .8.2-1.3zm1.2 1.7a.3.3 0 01-.2 0L67.5 93a.3.3 0 01-.1-.3.3.3 0 01.2-.2l2.1-.8a.3.3 0 01.3 0 .3.3 0 010 .3l-.3 2.3a.3.3 0 01-.3.3"/></g></g><g clip-path="url(#aB)"><g clip-path="url(#aC)"><path d="M69.9 92.1l2 1.6v-2.5" fill="#d21034"/></g></g><g clip-path="url(#aD)"><g clip-path="url(#aE)"><path d="M70.5 92.2l1.1 1v-1.5zm1.4 1.8a.3.3 0 01-.2 0l-2-1.6a.3.3 0 01-.1-.3.3.3 0 01.1-.2l2-1h.4l.1.3v2.5c0 .1 0 .2-.2.3a.3.3 0 01-.1 0"/></g></g><g clip-path="url(#aF)"><g clip-path="url(#aG)"><path d="M74 89.8v3.1l-2-1.7" fill="#d21034"/></g></g><g clip-path="url(#aH)"><g clip-path="url(#aI)"><path d="M72.4 91.2l1.3 1.1v-2zm1.5 2a.3.3 0 01-.2 0l-2-1.8a.3.3 0 01-.1-.2.3.3 0 01.1-.2l2-1.5a.3.3 0 01.4 0l.1.3v3.1l-.1.3a.4.4 0 01-.2 0"/></g></g><g clip-path="url(#aJ)"><g clip-path="url(#aK)"><path d="M76 88.2l.2 3.2-2.3-1.5" fill="#d21034"/></g></g><g clip-path="url(#aL)"><g clip-path="url(#aM)"><path d="M74.4 90l1.5.8-.1-2zm1.8 1.6a.3.3 0 01-.2 0l-2.2-1.4a.3.3 0 010-.5l2-1.7a.3.3 0 01.3 0 .3.3 0 01.2.2l.2 3.1a.3.3 0 01-.2.3.3.3 0 01-.1 0"/></g></g><g clip-path="url(#aN)"><g clip-path="url(#aO)"><path d="M67.7 101.6l.8-2 .6 2" fill="#d21034"/><path d="M68.1 101.3h.6l-.2-.9zm1 .6h-1.4l-.3-.1a.2.2 0 010-.3l.9-2a.3.3 0 01.2-.1.3.3 0 01.3.2l.6 2v.2H69"/></g></g><g clip-path="url(#aP)"><g clip-path="url(#aQ)"><path d="M70.4 101.6l.8-2.2.8 2.2" fill="#d21034"/><path d="M70.8 101.3h.8l-.4-1zm1.2.6h-1.6l-.2-.1a.2.2 0 010-.3l.7-2.1.3-.2.3.2.8 2.2v.2H72"/></g></g><g clip-path="url(#aR)"><g clip-path="url(#aS)"><path d="M73.1 101.6l.8-2.3 1.2 2.3" fill="#d21034"/></g></g><g clip-path="url(#aT)"><g clip-path="url(#aU)"><path d="M73.5 101.3h1L74 100zm1.6.6h-2l-.2-.1a.2.2 0 010-.3l.7-2.2a.3.3 0 01.6 0l1.1 2.2v.3h-.2"/></g></g><g clip-path="url(#aV)"><g clip-path="url(#aW)"><path d="M76.4 101.6l.4-2.6 1.6 2.2" fill="#d21034"/></g></g><g clip-path="url(#aX)"><g clip-path="url(#aY)"><path d="M77 99.7l-.3 1.5 1.2-.2zm-.6 2.2a.3.3 0 01-.3-.4l.4-2.5a.3.3 0 01.5-.2l1.6 2.2a.3.3 0 010 .3.3.3 0 01-.1.2l-2 .4h-.1"/></g></g><g clip-path="url(#aZ)"><g clip-path="url(#ba)"><path d="M81.2 99.7l-2 .9.2-3 1.8 2zm0 0" fill="#d21034"/></g></g><g clip-path="url(#bb)"><g clip-path="url(#bc)"><path d="M79.6 98.3l-.1 1.8 1.3-.5zm-.5 2.6a.3.3 0 01-.1 0 .3.3 0 01-.2-.3l.3-3a.3.3 0 01.2-.2h.3l1.8 2 .1.2v.1c0 .1 0 .2-.2.3l-2 .9a.3.3 0 01-.2 0"/></g></g><g clip-path="url(#bd)"><g clip-path="url(#be)"><path d="M81.6 99.5l2-.8-1.4-2" fill="#d21034"/><path d="M82.4 97.5L82 99l1.1-.4zm-.8 2.3a.3.3 0 01-.1 0 .3.3 0 01-.1-.3l.5-2.8a.3.3 0 01.3-.2.3.3 0 01.3.1l1.3 2v.2a.3.3 0 01-.1.2l-2 .8"/></g></g><g clip-path="url(#bf)"><g clip-path="url(#bg)"><path d="M84.5 98.6l1.8-.4-1.2-2-.7 2.3zm0 0" fill="#d21034"/></g></g><g clip-path="url(#bh)"><g clip-path="url(#bi)"><path d="M85.2 96.9l-.4 1.3 1-.2zm-.7 2a.3.3 0 01-.2-.1v-.1a.3.3 0 01-.2-.3l.7-2.4a.3.3 0 01.5 0l1.2 2.1a.3.3 0 010 .3.3.3 0 01-.1.1l-1.8.4"/></g></g><g clip-path="url(#bj)"><g clip-path="url(#bk)"><path d="M66.9 83.6h-.7c-.2 3.7-3.4 4.7-3.5 4.7l.2.7s3.8-1.1 4-5.4"/></g></g><g clip-path="url(#bl)"><g clip-path="url(#bm)"><path d="M70.2 85c-.2.7-.8 1.6-1.5 2l.3.6c.8-.4 1.7-1.4 2-2.4.4-1.7-1.4-4.5-3-6.4l-.6.4c2 2.6 3.1 4.7 2.8 5.8"/></g></g><g clip-path="url(#bn)"><g clip-path="url(#bo)"><path d="M99.7 74l-.7.2c0 .1.4 2-1.5 3.7l.5.5c2.2-2 1.7-4.2 1.7-4.3"/></g></g><g clip-path="url(#bp)"><g clip-path="url(#bq)"><path d="M102.8 82.1c1 .5 2.1.6 3.2.6h.7l.1-.6h-.8c-1-.2-2-.2-2.8-.6-.5-.3-.5-1-.3-1.5.3-.8 1.3-1.3 2.2-1.8l1.3-.6c.7-.4 1.5-.7 2.2-1.2 2.2-1.3 4.3-3 6.4-5l-.5-.5-2.5 2.2c-3-1-4 .8-4 .9l.7.3s.6-1.1 2.6-.7a36 36 0 01-3 2.2l-2.2 1.1-1.3.6c-1 .6-2.1 1.2-2.6 2.2-.4.8-.2 2 .6 2.4"/></g></g><g clip-path="url(#br)"><g clip-path="url(#bs)"><path d="M80.5 183c-.1 0-8-3.9-7-12.1a.4.4 0 000-.5 14.6 14.6 0 01-3.6-8.8h-.7c0 .2 0 4.4 3.2 8.7a42.7 42.7 0 01-5.4-.9c.7-2.5-.6-6.8-.6-7l-.7.2c0 .1 1.2 4.4.6 6.7-3.6-.9-6.4-2-8.7-3.3 1-1.8 2.2-5.3 2.3-5.5l-.7-.2s-1.3 3.6-2.2 5.4c-4-2.2-5.8-4.4-5.8-4.5a33.3 33.3 0 01-1-1.2c2.3-1.4 3-3.7 3-3.9l-.6-.2s-.8 2.3-2.9 3.5c-1.8-2.4-2.6-4.7-2.4-6.6.1-1.8 1.2-2.6 1.2-2.7l-.4-.5s-1.3 1-1.6 3.1c-.2 2.6 1.2 5.6 4.2 9 0 .1 6.8 8.1 22 9.3-.8 8.6 7.4 12.7 7.5 12.7"/></g></g><g clip-path="url(#bt)"><g clip-path="url(#bu)"><path d="M225 92c.7 3.6 4.3 5.4 6.5 6.2-9.4 1.3-51.6 7-71.2 11.9 13-6.5 62-30.8 80-38.6C229 80 223.8 86.7 224.8 92m-13.8 25.2c-1.5 6.1.9 11.4 2.5 14-1.8-1-5.4-3-11.3-4.8-8.4-2.7-23.4-6.1-47.1-7 9-3 47.5-15.5 75-20.1-10.9 4.8-17.3 10.8-19 17.9m-12 18.5c-3.2 2.3-4.7 5-4.9 5.4-3.6 3.9-3.3 7.4-2.5 9.6-3.9-4-15.5-14.3-38.8-24.7 5.2-.4 24.9-1.2 57.4 6-5.2 0-8.9 2-11.3 3.7m-26.4 22.9a12 12 0 00-3.5 4.8c-1.3-3.4-7-18-20.2-29.4 6.5 2.2 29 10.3 43 18.4-10.8.7-16.4 3.7-19.3 6.2M170 166l.2.3.5.7c-1 1-5.7 5.5-13.6 2.4.5-1.2 1-2.7 1.1-4.4h4.5l6.4-.3a7.9 7.9 0 00.9 1.3m-13.1 14.3c-3.7-2.2-11.4-2-14-1.9l.6-.7c1.5 0 9.8-.5 13.3-7.6 1.1.5 2.2.7 3.3 1-.6.9-2.6 4.7-3.2 9.2m-10-9a6 6 0 001.6-1 25 25 0 002.3-1.8l2.5-2c1.2-.7 2.6-1.2 4.2-1.4-.6 5-3.1 8.5-7.5 10.4-2.4 1.1-4.9 1.4-6 1.4 1-1.6 2-3.6 2.8-5.7m-4-33.6c3.8 3.2 19.1 16.5 25.8 26.2-2 .2-4 .2-6 .2l-4 .1c-2.2.1-4 .7-5.7 1.7-1 .6-1.8 1.3-2.7 2a23.3 23.3 0 01-3.1 2.3c2-7.4-3-27.5-4.3-32.5m29 55.8c1.3 0 4 .4 4.6 2 0 0 .8 2-1.7 4.4l-2.4 2.2c-.7-.2-3.6-1-7.2-1.2 5.3-1.9 6.7-7.2 6.7-7.4M135.8 167c-6.1 0-8.6 3-9.6 5.2.3-9 8.5-27.2 10.3-31 3.8 8.4 8.6 25.5 9.5 29a17.7 17.7 0 00-10.2-3.2m-19 2.6c-3.1.1-5.4 1.7-6.4 2.6l-.2-6a.2.2 0 000-.2 60 60 0 0117.5-21.2c-4 8.2-2.7 23.9-2.2 28.6v.2c-2.8-2.7-5.8-4-8.7-4M110 163a.4.4 0 00-.2-.3.4.4 0 00-.4 0c-3.8 1.6-7.7 5-9.1 6.5v-9a.5.5 0 00-.2-.3.5.5 0 00-.4-.1c-6.2 1.1-11.2.8-12.9.7 18.5-14.8 29.5-16.8 32.3-17-4.3 6-7.8 16.1-9 20.4v-.9m-2.8 12.5a1 1 0 01-.8-.3c-.8-.6-1-2.4-1.1-3 0-.7 0-1.2.3-1.5.4-.5 1-.5 1-.5l2.6-.9.2 3.9c-1.1 2.2-2.2 2.3-2.2 2.3m-3.7 2.8h-.6c-2-1.2-1.4-3.8-1.4-4 .1-1.4.5-1.8.7-1.9l.4.4.1.1c.6.3 1.5.3 2 .3.2.8.5 1.9 1.1 2.5-1.3.6-2 2-2.3 2.6m-3.4.8c-1.4.4-2 .1-2 0a.4.4 0 01-.2-.3c.3-1.5.8-2.6 1.6-3a2 2 0 011.2-.4c0 .8.2 2 1 2.8l-1.6.9m-1.4 3.8c-.2.4-.4.8-.7.9-.2 0-.4 0-.7-.2-.3-.3-.5-.8-.7-1.4l-.2-.6c-.5-1-1-1.8-1.6-2.5l-.1-1.8c-.1-1.2.5-1.6.6-1.6.8-.7 2.2.2 2.7.7a7 7 0 00-.8 2.3c0 .2 0 .6.4 1 .2.2.6.3 1.2.3v1.2l-.1 1.7m-7.4 2.3c-3-.2-5.5-1.6-6-2-.7-2.4-.7-4.3.2-5.8 1-1.6 2.6-2.2 3-2.4a9.5 9.5 0 005.5 2.6l.1 1.5c-.7 1.8-1.7 3.8-2.8 6m-3-41.2l1.8-.7c.2 1 1 3.1 2.1 4.3a77.2 77.2 0 01-4 2.7l.1-6.3m.2-3c.4.5 1 1.1 1.3 1.7l-1.4.5a95.5 95.5 0 010-2.3m.2-1.8l3.5-2.4c.2 1 .7 2.7 1.4 3.9a19.5 19.5 0 01-3 1.8 20 20 0 00-2-2.5l.1-.8m.6-6.3c.4-.2 1.1-.6 2-1.4l1 4.2A39.5 39.5 0 0189 138l.5-5.4m.7-4.7l1.9 2a25 25 0 01-2.4 1.8l.5-3.8m.4-2c.4-.3 1.3-.8 2.7-2l1.7 3a23 23 0 01-2.4 2.5l-2.2-2.4.2-1.2M92 119h.4c.4 0 1 0 1.5-.4.3 1 .4 2 .5 3.3-1.8 1.7-3 2.5-3.7 3 .3-2 .8-4 1.3-6m.8-3l1 2a3 3 0 01-1.6.3l.6-2.3m3.9-10.9c0 2 0 5.7.4 10-1 1.3-2 2-2.7 2.6-.5-1.4-1-2.2-1.3-2.6a89.2 89.2 0 013.6-10m.7 13.8a59.9 59.9 0 01-2.3 2.4 15.7 15.7 0 00-.5-3c.7-.3 1.6-1 2.5-2.2l.3 2.8m.4 3c-.6 1.7-1.4 3.2-2.4 4.5l-1.6-2.9c1-.9 2.3-2 3.7-3.6l.3 2m1.1 5.8c-.4 1.3-1.2 2.6-2.2 3.8l-2-3.2a19 19 0 003.4-5 73.7 73.7 0 00.8 4.4m1.2 4.4a17 17 0 01-2 4l-2.3-2.6c1.4-1.4 2.6-3 3.4-4.6l1 3.2m2 5.1c-.3 1.2-1.2 2.4-2.2 3.7l-2-3.4a17.6 17.6 0 002.5-4.3 31.3 31.3 0 001.7 4m2.7 4a45.7 45.7 0 00-3.5 2.3l-1.3-1.6c1.1-1.3 2-2.6 2.6-3.8.7 1.1 1.4 2.2 2.2 3m-7.4 5.4l-1-1.3a39 39 0 003-2.8l1.3 1.5a70.9 70.9 0 00-3.3 2.6m-1.8-1.5a64.7 64.7 0 01-2.7 2c-1-1-1.8-3.3-2-4a20 20 0 003.1-2zm3.8-3.5l-3.2 3-1.6-3.9a18.3 18.3 0 002.7-2.5c.5.8 1.6 2.5 2 3.4m-7.3-10.7a25.8 25.8 0 002.2-2l1.9 3.2c-1 1.1-2 2.1-3.1 3zm3.2 3.2c.5.6 1.5 2 2.4 2.7a17.7 17.7 0 01-3.4 3.4c-.8-1.3-1.3-3.3-1.4-4a32.8 32.8 0 002.4-2m.6 13.7a48.2 48.2 0 00-2 2l-1.2-1.6a67.7 67.7 0 003.3-2.5l1 1.2-1 .9m-4.6 4.5c-.8-.5-1-1.8-1-2.5a58.1 58.1 0 001.8-1.2l1.1 1.7a43.2 43.2 0 00-2 2m-2.6 3.4a90.8 90.8 0 01-.2-4.7l1.2-.8c.1.8.3 2 1.2 2.7a41 41 0 00-2.2 2.8M243.8 70l-.1-.2a.3.3 0 00-.3-.4l-.1-.2-.4.4-91.6 36c4.8-4.9 23.9-24 46.7-38.3l-.4-.7c-26.4 16.7-47.8 39.6-48 39.8-3 3.1-4.5 8.5-4.6 8.7l.4.1h-.4a29 29 0 01-9.9 16.4c-2.3 1.7-4.6 2-4.6 2v.7c.2 0 2.6-.3 5-2.2 2.3-1.6 7.6-6.5 10.2-16.8 0 0 1.5-5.3 4.4-8.4l78.1-30.8a3913 3913 0 00-71.5 34.9.4.4 0 00-.2.4c0 .2.3.3.4.2a597 597 0 0161.6-11c-29.8 6.4-65 18.4-65.5 18.5a.4.4 0 00.1.8c24.8.7 40.3 4.2 48.9 7a55 55 0 0111.2 4.8c-39.9-9.1-61.4-6.6-61.6-6.5a.4.4 0 00-.4.3.4.4 0 00.3.4c23.8 10.5 35.7 21 39.7 25a318.8 318.8 0 00-43.8-18.5.4.4 0 00-.5.2.4.4 0 00.1.5c12.3 10 18.6 23 20.8 28.5-8.4-11-25.4-25.2-25.5-25.3a.4.4 0 00-.6.4c0 .2 6.3 23.4 4.8 32.3-1.3-4.8-6-21.4-9.7-29a.4.4 0 00-.3-.2 143.4 143.4 0 00-10.6 28.8c-.5-7.1-.6-19 3-24.9a.3.3 0 000-.4.4.4 0 00-.4-.1c-.1 0-8.8 4.9-17.3 19.3 1.6-4.9 5-14.2 9-19.5a.4.4 0 00-.2-.6c-.5 0-11.4-.1-32.7 16.7a33.7 33.7 0 011.7-2.8 59.3 59.3 0 0116.5-14.8c2.2-1.3 4-2.2 5.7-2.8 0 0 2-.8 3-1l-.1-.8c-1.2.3-3 1.1-3.1 1.2-1.6.5-3.3 1.3-5.4 2.5-3.9-4.1-5.9-11.6-7-18.8v-.1c-1.3-8.9-1.2-17.3-1.2-18.4l2.2-3.7 4 2.6a.4.4 0 00.3 0 .4.4 0 00.2-.4l-1.5-5 3.3-.2a.4.4 0 00.2-.2.4.4 0 000-.4s-.9-2.2-3.7-3l3-2.2a.4.4 0 00.2-.4c0-.1-1-2-3.8-2.2.7-1 1.3-2 1.4-2.8h1.7c2 0 4.5-.2 6.7-1.1l-.3-.7a21 21 0 01-11 .7l-.1.7 2.3.3c0 .4-.8 1.8-1.7 3a.4.4 0 00.3.6c2.2 0 3.3 1 3.6 1.5l-3.4 2.4a.4.4 0 00-.1.3c0 .2.1.3.3.3a6 6 0 013.7 2.5l-3.1.1a.4.4 0 00-.3.2.4.4 0 000 .3l1.3 4.5-3.5-2.2a.4.4 0 00-.2 0 .4.4 0 00-.3.1l-2 3.5-1.3-2.1a.4.4 0 00-.3-.2.4.4 0 00-.4.2l-2.7 4-3.5-6.7-.7.4 3.9 7c0 .2.2.3.3.3.1 0 .2 0 .3-.2l2.7-4 1.2 2.1a83.5 83.5 0 00-2 4.8c-4.5.1-7.2-2.7-7.2-2.7l-.5.5c0 .1 2.7 3 7.4 3a95.2 95.2 0 00-2.6 8.3c-6.3-.6-8.3-3.5-8.3-3.5l-.6.4s2.1 3.1 8.7 3.8a110.5 110.5 0 00-1.8 8.2c-6 .6-10-4-10-4l-.6.4a13.7 13.7 0 0010.5 4.3 120.7 120.7 0 00-1.2 8.4c-10.2.2-13.1-3.9-13.1-3.9l-.6.4c.1.2 3 4.2 13 4.2h.6a128 128 0 00-.5 10c-9.7 1.6-15.9-3-16-3l-.4.5s4.8 3.6 12.4 3.6c1.3 0 2.6 0 4-.3-.1 4.5 0 7.8.2 9.2a17.7 17.7 0 01-15.6 1l-.3.7s3 1.4 7.2 1.4c2.5 0 5.6-.5 8.6-2.2-.8 1.1-1.6 2.5-2.3 4l.6.4s5.8.8 13.3-.6v9.6c0 .2.1.3.3.4a.4.4 0 00.4-.1s4.5-4.7 9-6.9l.1 4.8-2.6 1c-.1 0-1 0-1.4.7-.5.5-.6 1.2-.5 2v.3c-.5 0-1.1 0-1.5-.2-.1-.1-.4-.5-.8-.6l-.6.2c-.5.3-.8 1-.9 2.3v.5a2.8 2.8 0 00-1.6.4 3.4 3.4 0 00-.8.7c-.7-.6-2.3-1.7-3.5-.7-.2 0-.9.6-1 1.7a9 9 0 01-5-2.4.4.4 0 00-.3-.1 6 6 0 00-3.7 2.7c-1 1.7-1.1 4-.2 6.6l.3-.1-.2.3a14 14 0 006.2 2 442.5 442.5 0 01-1.8 3.8 12 12 0 01-5.2-1.4l-.4.7c.1 0 2 1.2 5.3 1.4a783.5 783.5 0 01-3.6 7.1c-3 0-3.9-2-4-2.2l-.6.3a5 5 0 004.3 2.6 758 758 0 01-2.7 5.3c-1.5 3.6-3.2 3.5-3.2 3.5-.4 0-.7 0-1-.3-.8-.7-.9-2.3-.9-2.3h-.7s.1 2 1.1 2.8c.4.4.8.5 1.3.5h.2c.3 0 2.3 0 3.8-3.9.3-.6 8.1-15.7 11.7-23.8l1.1 2 .2.6c.2.6.5 1.2 1 1.6.3.3.6.4 1 .4h.3c.5-.2 1-.7 1.2-1.4v-2l.1-1.1a7.8 7.8 0 00.9-.2l1.9-1.1.2.1c.1 0 .3.2 1.1.3.2 0 .4-.1.4-.3 0 0 1-2.3 2.7-2.6a1.8 1.8 0 00.6 0c.2 0 1.6-.2 3-2.9a9.8 9.8 0 012.4-1.8 19 19 0 01-1.8 10.4c-1.7 3-1.6 6.5.3 9.6l.6-.4a8.4 8.4 0 01-.3-8.8 20 20 0 002-11.1 8.7 8.7 0 013-.7c1 0 1.9.1 2.8.4.2 4 .4 14.7-1.6 16.1l.4.6c2.6-1.8 2-13.8 2-16.5 1.8.7 3.6 2 5.4 3.9a.4.4 0 00.5 0 .4.4 0 00.3-.3c0-.3.3-5 5.7-6.4.5 1 4.2 9.5.1 13.1l.5.6c4.3-3.9.8-12.3.2-13.9l2.8-.2c.1 0 4.8-.4 10.2 3.3-2.2 6.3-6.9 10.9-7 11l.6.4s1.2-1.2 2.7-3.2c1.6 0 10.7-.5 14.3 1.9-.1 1.6-.1 3.2.2 4.8 0 .1.2 1.2 1 2.4-.7.8-3.7 3.6-10.6 4v.8c7-.5 10.1-3.2 11-4.2 1 1.1 2.4 2.3 4.7 3.2 0 .8-.4 3.5-4.8 5.4l.3.7c4.4-2 5.1-4.7 5.2-5.8 1.9.6 4.3 1 7.4 1-.3 1-2.3 7-9.5 7.4v.7c4.5-.2 8.5.7 10 1.1a26.8 26.8 0 01-6.4 4.2c-.7.4-3 1-3.9.3a14 14 0 01-2.1-1.8l-.6.4c.3.5 2 1.7 2.3 2 .4.3 1 .4 1.5.4-.7 1.3-1.6 2.2-2.7 2.4-2.6.7-5.6-1.6-5.6-1.7l-.5.6c.1.1 2.5 2 5.1 2 .4 0 .8 0 1.2-.2 1.4-.3 2.6-1.4 3.4-3 1.1-.2 2.1-.7 2.2-.7 4.2-1.6 9.5-7 9.7-7.1 2.8-2.8 2-5.2 2-5.3-1.1-2.5-5.8-2.4-6-2.4-12.4 0-13.6-6.6-13.6-6.9-1.2-7.1 3.2-14.6 3.2-14.7l1.5.1c5 0 8-2.7 8.9-3.7.6.8 1.4 1.6 2.3 2a6 6 0 003.3 0c.8-.2 1.6-.3 2.3-.2.6.1 1 .3 1.4.7.3.2.6.6.7 1l.7-.4a3.4 3.4 0 00-2.7-2c-.9-.1-1.7 0-2.5.2-1 .1-2 .3-2.9 0-1.3-.5-2.2-1.8-3-3l-.2-.3-.3-.4a7.6 7.6 0 01-.5-.7.4.4 0 000-.1c0-.1 1.6-8.6 18.1-10.8 0 5.7 3.9 9.4 7.4 11.5a8.8 8.8 0 01-7.5 7.6v.8c.1 0 6.8-.8 8.1-8a23.2 23.2 0 007 2.6c.6 2.7-3.4 7.7-5 9.5l.5.5c.2-.3 5.7-6 5.2-9.8l9.6 2.2c.2 5-3.9 8.5-4 8.5l.5.6c.2-.2 4.3-3.7 4.2-9a479.5 479.5 0 008 1.7c-.2 7.1-2.5 8.3-2.5 8.3l.3.6c.1 0 2.7-1.1 2.8-8.6 3 1 5.3 2.2 6.8 3.3-1.7 4.3-3.8 6.2-3.8 6.2l.5.5s2.1-2 4-6.2c1.9 1.5 2.7 2.9 2.7 2.9 1 1.2 1.8 3 2.2 5-1.6 2.2-5.2 1.5-5.2 1.5l-.1.7 1.4.1c1.2 0 2.9-.2 4.1-1.4.4 2.2.5 4.6.6 6.8-1.7 2.6-4.7 2.3-4.9 2.3v.7h.4c1 0 3-.1 4.5-1.8a39.9 39.9 0 01-.6 7.3 4 4 0 01-4.8.4l-.4.6s1.1.7 2.6.7a4.3 4.3 0 002.4-.7c-1 5.2-2.7 6.2-2.7 6.2-2 1.4-3.8 0-3.8-.1l-.5.5s1 1 2.5 1c.7 0 1.4-.2 2.1-.7.3-.2 2.7-1.8 3.6-9.9 0-.6 1.6-14.5-2.8-19.6-.3-.6-4.2-6.6-16.2-8.3-.1 0-12.3-2.6-16.3-3.8-.1 0-12.3-3.5-12.2-13.3a59.4 59.4 0 015-.4.4.4 0 00.4-.3.4.4 0 000-.4c-.2-.2-4.4-5 1.1-10.9 0-.1 1.5-2.9 4.7-5.2 4.2-3.2 9.5-4.3 15.5-3.1a.4.4 0 00.4-.7c0-.1-5.7-7-3.6-15.2 1.8-7.4 9.1-13.6 21.7-18.6a.4.4 0 00.2-.4.4.4 0 00-.3-.4s-6.8-1.4-7.8-6.2c-.8-3.6 1.7-10.3 18-21.6"/></g></g><g clip-path="url(#bv)"><g clip-path="url(#bw)"><path d="M58.7 213.8c-4.1.8-6.9-.5-6.9-.5-1.8-.7-3.6 0-3.6 0l.2.7s1.6-.6 3.1 0c.2 0 2 .8 4.6.8a15.3 15.3 0 002.8-.3l6.6-2.2-.3-.7c-2.3 1-6.1 2.1-6.5 2.2"/></g></g><g clip-path="url(#bx)"><g clip-path="url(#by)"><path d="M57 218.6l-1.2-.5-1-.4c-.7-.3-1.6-.4-2.4-.2-2.3.5-4.3 2-4.4 2.1l.5.6s2-1.6 4-2a4 4 0 012.1.1l1 .4 1.2.6a6 6 0 002.5.2v-.7c-1 0-1.6 0-2.3-.2"/></g></g><g clip-path="url(#bz)"><g clip-path="url(#bA)"><path d="M134.8 218.3c-1.5.4-2.8.8-4.2 0-1.3-.6-2.5-1-3.9-.5-1.2.5-2.3 1.4-3.2 2.3l.5.5c.8-.8 1.8-1.7 3-2.1 1.1-.5 2.1 0 3.3.5 1.6.8 3.2.4 4.7 0 2-.5 3.9-1 5.6-1.8l-.3-.7c-1.7.8-3.5 1.3-5.5 1.8"/></g></g><g clip-path="url(#bB)"><g clip-path="url(#bC)"><path d="M212.7 153.5c-5.3-6.3-9.6-6-9.7-6v.8s4-.3 9.1 5.7c.3.3 7.5 7.5 10 9l.4-.5c-2.4-1.5-9.5-8.7-9.8-9"/></g></g><g clip-path="url(#bD)"><g clip-path="url(#bE)"><path d="M257 110.5l.7.3s2.7-6.6 4.2-11l-.7-.1c-1.5 4.3-4.2 10.8-4.2 10.8"/></g></g><g clip-path="url(#bF)"><g clip-path="url(#bG)"><path d="M266 99.3a47.1 47.1 0 01-.3 4.6l-.5 2.8c-.5 2.5-1 4-1 4l.6.3s1.7-4.8 2-11.6"/></g></g><g clip-path="url(#bH)"><g clip-path="url(#bI)"><path d="M78.5 80.6s.2 4 3.9 4.1c0 0 2.9 0 4.2-3 0 0-2.4-1.9-8-1.1" fill="#fff"/></g></g><g clip-path="url(#bJ)"><g clip-path="url(#bK)"><path d="M78.8 80.8c.1.9.7 3.6 3.6 3.7.1 0 2.6 0 3.8-2.7-.5-.3-2.2-1.1-5.2-1.1l-2.2.1m3.6 4.2c-4-.3-4.2-4.4-4.2-4.4a.3.3 0 01.3-.3L81 80c4 0 5.7 1.3 5.8 1.4v.3a5 5 0 01-4.4 3.2"/></g></g><g clip-path="url(#bL)"><g clip-path="url(#bM)"><path d="M80.1 80.8s.4 2.1 2.1 2.4c0 0 1.2.2 2.8-2 0 0-2.4-.4-4.9-.4"/></g></g><g clip-path="url(#bN)"><g clip-path="url(#bO)"><path d="M80.5 81c.2.7.7 1.7 1.8 1.9.3 0 1.1-.1 2.2-1.5-.8 0-2.3-.3-4-.3m1.8 2.4h-.1c-1.9-.3-2.4-2.6-2.4-2.7a.3.3 0 010-.2.3.3 0 01.3-.1c2.5 0 4.9.4 5 .4a.3.3 0 01.1.2v.3c-1.3 1.9-2.4 2-2.9 2"/></g></g><g clip-path="url(#bP)"><g clip-path="url(#bQ)"><path d="M89.6 82.3a4.2 4.2 0 01-.4 0c-1.2-.1-2.3-.5-3.4-.8l-2-.5a20.5 20.5 0 00-1.8-.3c-2.1-.2-4.2-.2-6 0l-.2-.6a27.6 27.6 0 018.2.3l2 .6c1 .3 2.1.6 3.2.7l1.5-.1c1.5-.4 3-1 4-1.6l.3.5a14 14 0 01-4.2 1.6 5.5 5.5 0 01-1.2.2"/></g></g></svg>