<svg xmlns="http://www.w3.org/2000/svg" width="400" height="400" viewBox="0 0 300 300"><defs><clipPath id="a"><path d="M150 0a150 150 0 100 300 150 150 0 000-300zm0 0"/></clipPath><clipPath id="b"><path d="M246 107h54v193h-54zm0 0"/></clipPath><clipPath id="c"><path d="M150 0a150 150 0 100 300 150 150 0 000-300zm0 0"/></clipPath><clipPath id="d"><path d="M192 107h55v193h-55zm0 0"/></clipPath><clipPath id="e"><path d="M150 0a150 150 0 100 300 150 150 0 000-300zm0 0"/></clipPath><clipPath id="f"><path d="M139 107h54v193h-54zm0 0"/></clipPath><clipPath id="g"><path d="M150 0a150 150 0 100 300 150 150 0 000-300zm0 0"/></clipPath><clipPath id="h"><path d="M217 27h74v35h-74zm0 0"/></clipPath><clipPath id="i"><path d="M150 0a150 150 0 100 300 150 150 0 000-300zm0 0"/></clipPath><clipPath id="j"><path d="M216 27h75v35h-75zm0 0"/></clipPath><clipPath id="k"><path d="M150 0a150 150 0 100 300 150 150 0 000-300zm0 0"/></clipPath><clipPath id="l"><path d="M207 63h14v19h-14zm0 0"/></clipPath><clipPath id="m"><path d="M150 0a150 150 0 100 300 150 150 0 000-300zm0 0"/></clipPath><clipPath id="n"><path d="M222 53h26v14h-26zm0 0"/></clipPath><clipPath id="o"><path d="M150 0a150 150 0 100 300 150 150 0 000-300zm0 0"/></clipPath><clipPath id="p"><path d="M219 32h45v15h-45zm0 0"/></clipPath><clipPath id="q"><path d="M150 0a150 150 0 100 300 150 150 0 000-300zm0 0"/></clipPath><clipPath id="r"><path d="M219 31h45v16h-45zm0 0"/></clipPath><clipPath id="s"><path d="M150 0a150 150 0 100 300 150 150 0 000-300zm0 0"/></clipPath><clipPath id="t"><path d="M219 64h14v17h-14zm0 0"/></clipPath><clipPath id="u"><path d="M150 0a150 150 0 100 300 150 150 0 000-300zm0 0"/></clipPath><clipPath id="v"><path d="M148 25h93v47h-93zm0 0"/></clipPath><clipPath id="w"><path d="M150 0a150 150 0 100 300 150 150 0 000-300zm0 0"/></clipPath><clipPath id="x"><path d="M176 37h30v15h-30zm0 0"/></clipPath><clipPath id="y"><path d="M150 0a150 150 0 100 300 150 150 0 000-300zm0 0"/></clipPath><clipPath id="z"><path d="M176 36h30v17h-30zm0 0"/></clipPath><clipPath id="A"><path d="M150 0a150 150 0 100 300 150 150 0 000-300zm0 0"/></clipPath><clipPath id="B"><path d="M218 51h5v7h-5zm0 0"/></clipPath><clipPath id="C"><path d="M150 0a150 150 0 100 300 150 150 0 000-300zm0 0"/></clipPath><clipPath id="D"><path d="M217 50h6v8h-6zm0 0"/></clipPath><clipPath id="E"><path d="M150 0a150 150 0 100 300 150 150 0 000-300zm0 0"/></clipPath><clipPath id="F"><path d="M217 38h10v16h-10zm0 0"/></clipPath><clipPath id="G"><path d="M150 0a150 150 0 100 300 150 150 0 000-300zm0 0"/></clipPath><clipPath id="H"><path d="M203 41h10v21h-10zm0 0"/></clipPath><clipPath id="I"><path d="M150 0a150 150 0 100 300 150 150 0 000-300zm0 0"/></clipPath><clipPath id="J"><path d="M202 40h12v22h-12zm0 0"/></clipPath><clipPath id="K"><path d="M150 0a150 150 0 100 300 150 150 0 000-300zm0 0"/></clipPath><clipPath id="L"><path d="M211 53h9v6h-9zm0 0"/></clipPath><clipPath id="M"><path d="M150 0a150 150 0 100 300 150 150 0 000-300zm0 0"/></clipPath><clipPath id="N"><path d="M211 53h10v6h-10zm0 0"/></clipPath><clipPath id="O"><path d="M150 0a150 150 0 100 300 150 150 0 000-300zm0 0"/></clipPath><clipPath id="P"><path d="M213 31h5v2h-5zm0 0"/></clipPath><clipPath id="Q"><path d="M150 0a150 150 0 100 300 150 150 0 000-300zm0 0"/></clipPath><clipPath id="R"><path d="M212 30h6v3h-6zm0 0"/></clipPath><clipPath id="S"><path d="M150 0a150 150 0 100 300 150 150 0 000-300zm0 0"/></clipPath><clipPath id="T"><path d="M229 40h34v18h-34zm0 0"/></clipPath><clipPath id="U"><path d="M150 0a150 150 0 100 300 150 150 0 000-300zm0 0"/></clipPath><clipPath id="V"><path d="M228 39h35v19h-35zm0 0"/></clipPath><clipPath id="W"><path d="M150 0a150 150 0 100 300 150 150 0 000-300zm0 0"/></clipPath><clipPath id="X"><path d="M246 48h6v1h-6zm0 0"/></clipPath><clipPath id="Y"><path d="M150 0a150 150 0 100 300 150 150 0 000-300zm0 0"/></clipPath><clipPath id="Z"><path d="M178 35h20v9h-20zm0 0"/></clipPath><clipPath id="aa"><path d="M150 0a150 150 0 100 300 150 150 0 000-300zm0 0"/></clipPath><clipPath id="ab"><path d="M178 35h21v10h-21zm0 0"/></clipPath><clipPath id="ac"><path d="M150 0a150 150 0 100 300 150 150 0 000-300zm0 0"/></clipPath></defs><g clip-path="url(#a)"><path fill="#188900" d="M0 0h300v300H0z"/></g><g clip-path="url(#b)"><g clip-path="url(#c)"><path d="M246.4 300H300V107.1h-53.6zm0 0" fill="#ee7c00"/></g></g><g clip-path="url(#d)"><g clip-path="url(#e)"><path d="M192.9 300h53.5V107.1H193zm0 0"/></g></g><g clip-path="url(#f)"><g clip-path="url(#g)"><path d="M139.3 300h53.6V107.1h-53.6zm0 0" fill="#de1f10"/></g></g><g clip-path="url(#h)"><g clip-path="url(#i)"><path d="M260.7 36s18.4-7.2 20.2-8.6c.8.9-7.4 10-23.3 13.3 14.4-3.1 26.8-13 29.3-12.7.7.2.6 9.6-32.6 17.8 23-5.5 36.2-15.6 36-14.5.2.2-2.2 8-22.2 14 5.6-1.2 20.7-9.7 20.6-8 .5.6-14.7 18.5-42.2 12.7 22 5.2 36.2-7.4 38.2-7.2.4.1-4 11-31.7 11.7 13.3-1.2 9.4 0 9.4 0s-7.7 5.5-17.2 1.8c7.4 1.8 8.2 1.9 8.4 2.5-.5.7-6.6 1.8-12.4-1 4.7 1.7 9 2 9 2.7 0 .2-3.1 1.8-5.8.7-2.7-1.2-27.3-15-27.3-15l42-10.6" fill="#ee7c00"/></g></g><g clip-path="url(#j)"><g clip-path="url(#k)"><path d="M260.7 36s18.4-7.2 20.2-8.6c.8.9-7.4 10-23.3 13.3 14.4-3.1 26.8-13 29.3-12.7.7.2.6 9.6-32.6 17.8 23-5.5 36.2-15.6 36-14.5.2.2-2.2 8-22.2 14 5.6-1.2 20.7-9.7 20.6-8 .5.6-14.7 18.5-42.2 12.7 22 5.2 36.2-7.4 38.2-7.2.4.1-4 11-31.7 11.7 13.3-1.2 9.4 0 9.4 0s-7.7 5.5-17.2 1.8c7.4 1.8 8.2 1.9 8.4 2.5-.5.7-6.6 1.8-12.4-1 4.7 1.7 9 2 9 2.7 0 .2-3.1 1.8-5.8.7-2.7-1.2-27.3-15-27.3-15l42-10.6zm0 0" fill="none" stroke-width=".5" stroke-linecap="round" stroke-linejoin="round" stroke="#000"/></g></g><g clip-path="url(#l)"><g clip-path="url(#m)"><path d="M211.2 73.7c-3.7 0-3.8 3-3.8 3s-.3.3 0 1.7l.8-1.3c.4 0 2.1.6 4.8-1.4-2.4 2.4-1 3.2-1 3.2s-.5 1.9 1.3 2.2c-.6-.7-.2-1.4-.2-1.4s2.6-.2 2.4-3.1c.1 2.6 1.7 3.3 1.7 3.3s0 1.4 1.7 1.6c-1-.8-.7-2-.7-2s2.2-1.4.3-3.9c1.1-.6 2-2.2 2-2.2s-1.5-.6-2.2-1.1c-.3-.7 0-4.3 0-4.3l-1-4.6-2.5 7.2c0-1 .1 3.1-3.6 3.1" fill="#ee7c00"/><path d="M211.2 73.7c-3.7 0-3.8 3-3.8 3s-.3.3 0 1.7l.8-1.3c.4 0 2.1.6 4.8-1.4-2.4 2.4-1 3.2-1 3.2s-.5 1.9 1.3 2.2c-.6-.7-.2-1.4-.2-1.4s2.6-.2 2.4-3.1c.1 2.6 1.7 3.3 1.7 3.3s0 1.4 1.7 1.6c-1-.8-.7-2-.7-2s2.2-1.4.3-3.9c1.1-.6 2-2.2 2-2.2s-1.5-.6-2.2-1.1c-.3-.7 0-4.3 0-4.3l-1-4.6-2.5 7.2c0-1 .1 3.1-3.6 3.1zm0 0" fill="none" stroke-width=".5" stroke-linecap="round" stroke-linejoin="round" stroke="#000"/></g></g><g clip-path="url(#n)"><g clip-path="url(#o)"><path d="M229.5 63.3c0 .1 2.7 2.9 5.3 2.7 1-.7-2-2.4-2-2.7 1 .8 5.5 4.3 8.4 3 1.1-1.4-2-1.2-5.5-5.2 2.4 1.5 8.5 4.8 11.3 3.5 1.2-1.2-6.3-5-8.8-7.8l-6.5-3-8.9 6.5" fill="#ee7c00"/><path d="M229.5 63.3c0 .1 2.7 2.9 5.3 2.7 1-.7-2-2.4-2-2.7 1 .8 5.5 4.3 8.4 3 1.1-1.4-2-1.2-5.5-5.2 2.4 1.5 8.5 4.8 11.3 3.5 1.2-1.2-6.3-5-8.8-7.8l-6.5-3-8.9 6.5zm0 0" fill="none" stroke-width=".5" stroke-linecap="round" stroke-linejoin="round" stroke="#000"/></g></g><g clip-path="url(#p)"><g clip-path="url(#q)"><path d="M219.5 40.7s3-1.6 15-.8c1.3.1 8.2-2.2 10.4-2.9 3.5-.6 14.6-2.8 17.6-4.9 2.1-.2-.5 3.6-3.2 4.5a56.1 56.1 0 01-16.8 4c4.4 0 2 3.4-5.4 1.8 3.5 1.8 2.2 2 2.2 2s-6.2.4-7.8-.9c4.2 1.4 2.5 2 2.5 2s-4.3.3-6.2-.5c3 .8 1.4 1.3 1.4 1.3s-2.4.4-4.4-.2c-2-.7-5.1-5.4-5.3-5.4" fill="#ee7c00"/></g></g><g clip-path="url(#r)"><g clip-path="url(#s)"><path d="M219.5 40.7s3-1.6 15-.8c1.3.1 8.2-2.2 10.4-2.9 3.5-.6 14.6-2.8 17.6-4.9 2.1-.2-.5 3.6-3.2 4.5a56.1 56.1 0 01-16.8 4c4.4 0 2 3.4-5.4 1.8 3.5 1.8 2.2 2 2.2 2s-6.2.4-7.8-.9c4.2 1.4 2.5 2 2.5 2s-4.3.3-6.2-.5c3 .8 1.4 1.3 1.4 1.3s-2.4.4-4.4-.2c-2-.7-5.1-5.4-5.3-5.4zm0 0" fill="none" stroke-width=".5" stroke-linecap="round" stroke-linejoin="round" stroke="#000"/></g></g><g clip-path="url(#t)"><g clip-path="url(#u)"><path d="M224.3 64.9l.5 7.2-.5.6c-.2.3-5.6-.7-4.9 3 0 1.6 0 2 1.2 2.9-.3-1-.2-1.8-.2-1.8s1.5.9 3-1.4c-1 2.3-.3 3 0 3.1.2.4-.4 2.3 1.6 2.2-.8-.6-.4-1.6-.4-1.6s2.1-.4 1.4-3.9c.8-.7 1 0 1 0s.3 2 2.2 1.6c.8.5-.2 1.6-.2 1.6s1.4 0 1.8-1c.4-1 .9-3-1.4-3.7-.2-.8 1-.8 1-.8s1.3.4 1.8 1c.4.7.2-1.7-1.5-2-2.2 0-2.3-.4-2.3-.5l-.6-6.8" fill="#ee7c00"/><path d="M224.3 64.9l.5 7.2-.5.6c-.2.3-5.6-.7-4.9 3 0 1.6 0 2 1.2 2.9-.3-1-.2-1.8-.2-1.8s1.5.9 3-1.4c-1 2.3-.3 3 0 3.1.2.4-.4 2.3 1.6 2.2-.8-.6-.4-1.6-.4-1.6s2.1-.4 1.4-3.9c.8-.7 1 0 1 0s.3 2 2.2 1.6c.8.5-.2 1.6-.2 1.6s1.4 0 1.8-1c.4-1 .9-3-1.4-3.7-.2-.8 1-.8 1-.8s1.3.4 1.8 1c.4.7.2-1.7-1.5-2-2.2 0-2.3-.4-2.3-.5l-.6-6.8zm0 0" fill="none" stroke-width=".5" stroke-linecap="round" stroke-linejoin="round" stroke="#000"/></g></g><g clip-path="url(#v)"><g clip-path="url(#w)"><path d="M231.9 71c0-.3-3.7-4.9-2.8-5.5 1 .2 2.5 2.3 3.8 1.6-.4-.8-1.5-.3-2.8-2.4-1.3-2.4-1.5-6-6-9.8 3 4.1 9.5 6.5 9.8 5.3.3-1.2-5.8-5.7-5.5-6.8 1.2 2.2 7.3 7.2 11.8 6.8.3-1-3.7-2.9-4.7-4.7a43.7 43.7 0 01-10.7-9.2 17.1 17.1 0 00-5.3-5.3c-.3-.3-.4-.7-.5-.9-1.7-3.7.6-5 2-5 1-.2 1.4 0 2.2-.4l-2.9-1c1.3.8 4.4.1 3.7 2.5 1.4-.5 4.3-3.7-3.3-4.4-2.5-2.6-12.6-4.1-15.2 7.3l1 .7c-3.2-1.4-11.9-2.5-15-3-8.5-2.2-17.2-7.6-18-7-1.2.5 5 5.8 4.7 6-5.4-3-10.3-5-14.9-6.9-3.2-1-6.5-3.6-6.8-3.2-1.2 2.3 5.2 8 6.3 8.6 1.2.7 10.5 4.6 10.4 4.7-14-5.8-16.4-6.9-17-7.6-1.3-.2-4.3-4-5.2-3.7-.4.4.5 6.3 7.2 9 1 .7 14.3 5 14.2 5.4l-15.8-6c-2.9-1-6.5-4.7-7.1-4.3-.7.4 1.6 4.4 4.6 5.6 1.5.6 7.4 3.3 12.8 5l-14.4-5.2c-2.2-1.1-3.2-2.5-3.5-2.2-.5.3.8 6.1 16.1 9.5.4.1 5.4-1.1 5.2-1a67.7 67.7 0 01-8.6 1.5c-.2.4 1 2.5 8.9 2 1 0 6.5-1.8 6-1.4-.2.2-7.4 2.3-8 2.4-.5 0-3 .3-3.1.5-.1.4 1.9 1.9 6.1 2.1 3.8.2 11-2.1 10.8-2-.1.2-6.9 2.3-7 2.4-.3.2-2.8.3-2.9.5-.2.4 3.6 3.6 14.8.2-1.2 1.4-6.6 2.3-6.6 2.6 0 .2 1.2 1.2 3.1 1.6 1 .2 2.3.2 3.5 0 2-.4 4.3-1.2 7.2-3.6.3.8-7.1 4.2-6.8 4.6 1.6 1.3 7-.2 7.3-.4a85 85 0 0010.3-6c.2.8-12.8 7.3-12.7 7.6.8 1.2 5.3 0 5.5-.2l5.8-2.9c.2 0-6.4 3.5-5.8 4.1-.3 2.3 10.3-1.6 11-2.1.5-.3-5 2.2-5 3.4 1.8 2.7 7.4 1.8 8.3 1.2.4-.3-.5 2-.2 1.8a9 9 0 001.6-2c-.1.7-.7 1.9-1 3.3-.4 1.3-.5 2.9-1 4.6-.2.7 3.4-1.5 3-6.6.2 2.7-1.2 7.7-.8 8 .7.4 2.8-2.6 3-4.6.6 1 2 3.2 3 3.7 0-1.6 0-1.5-.4-3 .3-2 .3-4.9.4-8 3 5.3 4.2 7.6 3.4 11.6.9.4 2.3-2.8 2.2-4.5 1.2 4.6 6.2 5.3 6.3 5.2" fill="#ee7c00"/><path d="M231.9 71c0-.3-3.7-4.9-2.8-5.5 1 .2 2.5 2.3 3.8 1.6-.4-.8-1.5-.3-2.8-2.4-1.3-2.4-1.5-6-6-9.8 3 4.1 9.5 6.5 9.8 5.3.3-1.2-5.8-5.7-5.5-6.8 1.2 2.2 7.3 7.2 11.8 6.8.3-1-3.7-2.9-4.7-4.7a43.7 43.7 0 01-10.7-9.2 17.1 17.1 0 00-5.3-5.3c-.3-.3-.4-.7-.5-.9-1.7-3.7.6-5 2-5 1-.2 1.4 0 2.2-.4l-2.9-1c1.3.8 4.4.1 3.7 2.5 1.4-.5 4.3-3.7-3.3-4.4-2.5-2.6-12.6-4.1-15.2 7.3l1 .7c-3.2-1.4-11.9-2.5-15-3-8.5-2.2-17.2-7.6-18-7-1.2.5 5 5.8 4.7 6-5.4-3-10.3-5-14.9-6.9-3.2-1-6.5-3.6-6.8-3.2-1.2 2.3 5.2 8 6.3 8.6 1.2.7 10.5 4.6 10.4 4.7-14-5.8-16.4-6.9-17-7.6-1.3-.2-4.3-4-5.2-3.7-.4.4.5 6.3 7.2 9 1 .7 14.3 5 14.2 5.4l-15.8-6c-2.9-1-6.5-4.7-7.1-4.3-.7.4 1.6 4.4 4.6 5.6 1.5.6 7.4 3.3 12.8 5l-14.4-5.2c-2.2-1.1-3.2-2.5-3.5-2.2-.5.3.8 6.1 16.1 9.5.4.1 5.4-1.1 5.2-1a67.7 67.7 0 01-8.6 1.5c-.2.4 1 2.5 8.9 2 1 0 6.5-1.8 6-1.4-.2.2-7.4 2.3-8 2.4-.5 0-3 .3-3.1.5-.1.4 1.9 1.9 6.1 2.1 3.8.2 11-2.1 10.8-2-.1.2-6.9 2.3-7 2.4-.3.2-2.8.3-2.9.5-.2.4 3.6 3.6 14.8.2-1.2 1.4-6.6 2.3-6.6 2.6 0 .2 1.2 1.2 3.1 1.6 1 .2 2.3.2 3.5 0 2-.4 4.3-1.2 7.2-3.6.3.8-7.1 4.2-6.8 4.6 1.6 1.3 7-.2 7.3-.4a85 85 0 0010.3-6c.2.8-12.8 7.3-12.7 7.6.8 1.2 5.3 0 5.5-.2l5.8-2.9c.2 0-6.4 3.5-5.8 4.1-.3 2.3 10.3-1.6 11-2.1.5-.3-5 2.2-5 3.4 1.8 2.7 7.4 1.8 8.3 1.2.4-.3-.5 2-.2 1.8 0 0 1.2-1.2 1.6-2-.1.7-.7 1.9-1 3.3-.4 1.3-.5 2.9-1 4.6-.2.7 3.4-1.5 3-6.6.2 2.7-1.2 7.7-.8 8 .7.4 2.8-2.6 3-4.6.6 1 2 3.2 3 3.7 0-1.6 0-1.5-.4-3 .3-2 .3-4.9.4-8 3 5.3 4.2 7.6 3.4 11.6.9.4 2.3-2.8 2.2-4.5 1.2 4.6 6.2 5.3 6.3 5.2zm0 0" fill="none" stroke-width=".5" stroke-linecap="round" stroke-linejoin="round" stroke="#000"/></g></g><g clip-path="url(#x)"><g clip-path="url(#y)"><path d="M181.2 37.1s-2 1.5-4.7 1.4c.7 2.3 6 .5 6 .5s-2.5 2.6-4.4 3c1.1 1 5.8.6 6.5.2.8-.4 2.2-2 2.2-2s-4.8 5-5.5 5c0 .5 5 .3 6.1-.6 1-.8 3.7-2.2 3.7-2.2s-7 4.5-7.3 4.5c2.6.7 7.9-.7 11.2-2.6-5 3-5.4 3.6-8 4.6 2.3.4 3.5 1.8 11.1-1.2 4.4-2 6.9-5.4 6.9-5.4-2.7 3.4-7 6.2-11.7 9-.3.5 5 2.5 11.8-4" fill="#ee7c00"/></g></g><g clip-path="url(#z)"><g clip-path="url(#A)"><path d="M181.2 37.1s-2 1.5-4.7 1.4c.7 2.3 6 .5 6 .5s-2.5 2.6-4.4 3c1.1 1 5.8.6 6.5.2.8-.4 2.2-2 2.2-2s-4.8 5-5.5 5c0 .5 5 .3 6.1-.6 1-.8 3.7-2.2 3.7-2.2s-7 4.5-7.3 4.5c2.6.7 7.9-.7 11.2-2.6-5 3-5.4 3.6-8 4.6 2.3.4 3.5 1.8 11.1-1.2 4.4-2 6.9-5.4 6.9-5.4-2.7 3.4-7 6.2-11.7 9-.3.5 5 2.5 11.8-4" fill="none" stroke-width=".5" stroke-linecap="round" stroke-linejoin="round" stroke="#000"/></g></g><g clip-path="url(#B)"><g clip-path="url(#C)"><path d="M218.2 51.2s.5 2 2.3 3.5c1.8 1.6 2 3 2 3" fill="#ee7c00"/></g></g><g clip-path="url(#D)"><g clip-path="url(#E)"><path d="M218.2 51.2s.5 2 2.3 3.5c1.8 1.6 2 3 2 3" fill="none" stroke-width=".5" stroke-linecap="round" stroke-linejoin="round" stroke="#000"/></g></g><g clip-path="url(#F)"><g clip-path="url(#G)"><path d="M217.3 38.3s.6 1.8 2.5 3a20 20 0 015 5.3 58 58 0 011.3 6.9" fill="#ee7c00" stroke-width=".5" stroke-linecap="round" stroke-linejoin="round" stroke="#000"/></g></g><g clip-path="url(#H)"><g clip-path="url(#I)"><path d="M205.5 41c.2.7-2.7 4.2 1.2 8.2-3.5 4-3.5 4.4-3.5 4.4s2 1 5.5-1.7c5.9 6.5 4 9.6 4 9.6" fill="#ee7c00"/></g></g><g clip-path="url(#J)"><g clip-path="url(#K)"><path d="M205.5 41c.2.7-2.7 4.2 1.2 8.2-3.5 4-3.5 4.4-3.5 4.4s2 1 5.5-1.7c5.9 6.5 4 9.6 4 9.6" fill="none" stroke-width=".5" stroke-linecap="round" stroke-linejoin="round" stroke="#000"/></g></g><g clip-path="url(#L)"><g clip-path="url(#M)"><path d="M212.1 56.8s-.5-.7.5-3.3c.8 1 1.8 1.1 2.2 1.5.4.4 4.8 1 5.1 3.7" fill="#ee7c00"/></g></g><g clip-path="url(#N)"><g clip-path="url(#O)"><path d="M212.1 56.8s-.5-.7.5-3.3c.8 1 1.8 1.1 2.2 1.5.4.4 4.8 1 5.1 3.7" fill="none" stroke-width=".5" stroke-linecap="round" stroke-linejoin="round" stroke="#000"/></g></g><g clip-path="url(#P)"><g clip-path="url(#Q)"><path d="M217.3 32c0-.2-.9-2-4.2.3 1.8 0 3.6 1 4.2-.3" fill="#ee7c00"/></g></g><g clip-path="url(#R)"><g clip-path="url(#S)"><path d="M217.3 32c0-.2-.9-2-4.2.3 1.8 0 3.6 1 4.2-.3zm0 0" fill="none" stroke-width=".5" stroke-linecap="round" stroke-linejoin="round" stroke="#000"/></g></g><g clip-path="url(#T)"><g clip-path="url(#U)"><path d="M249 40c.1 0 9.9 2 13.1 1-4.1 5.1-12.4 1.7-12.4 1.7 4 1.1 4.2 1 5.5 2 .4 1-7.4.6-10-.7 7.2 2 7.3 1.9 7.6 2.7.3 1.1-11.9-.3-13-1.8 3.3 2.3 5.1 2.8 6.9 3.8-2.2 1-6.3 1.8-13.7-3 9.8 8.2 18.7 7.6 20 9.1-3.4 4.7-16.6-2.7-22.7-6.4-6-3.8 13.3 9 15.1 8.7-.9 1.3-7.3.2-7.7-.4" fill="#ee7c00"/></g></g><g clip-path="url(#V)"><g clip-path="url(#W)"><path d="M249 40c.1 0 9.9 2 13.1 1-4.1 5.1-12.4 1.7-12.4 1.7 4 1.1 4.2 1 5.5 2 .4 1-7.4.6-10-.7 7.2 2 7.3 1.9 7.6 2.7.3 1.1-11.9-.3-13-1.8 3.3 2.3 5.1 2.8 6.9 3.8-2.2 1-6.3 1.8-13.7-3 9.8 8.2 18.7 7.6 20 9.1-3.4 4.7-16.6-2.7-22.7-6.4-6-3.8 13.3 9 15.1 8.7-.9 1.3-7.3.2-7.7-.4" fill="none" stroke-width=".5" stroke-linecap="round" stroke-linejoin="round" stroke="#000"/></g></g><g clip-path="url(#X)"><g clip-path="url(#Y)"><path d="M251.5 48.6h-5" fill="#ee7c00" stroke-width=".5" stroke-linecap="round" stroke-linejoin="round" stroke="#000"/></g></g><g clip-path="url(#Z)"><g clip-path="url(#aa)"><path d="M178.3 35.8s7.4 3.6 10.6 3.3c-.8.7-2 1-2 1 .7.3 2.9 1.4 6.1.7l-1.8 1.5s2.8 1 6-.5c-1 1-1.5 1.9-1.5 1.9l2.2.1" fill="#ee7c00"/></g></g><g clip-path="url(#ab)"><g clip-path="url(#ac)"><path d="M178.3 35.8s7.4 3.6 10.6 3.3c-.8.7-2 1-2 1 .7.3 2.9 1.4 6.1.7l-1.8 1.5s2.8 1 6-.5c-1 1-1.5 1.9-1.5 1.9l2.2.1" fill="none" stroke-width=".5" stroke-linecap="round" stroke-linejoin="round" stroke="#000"/></g></g></svg>