<svg xmlns="http://www.w3.org/2000/svg" width="400" height="400" viewBox="0 0 300 300"><defs><clipPath id="a"><path d="M150 0a150 150 0 100 300 150 150 0 000-300zm0 0"/></clipPath><clipPath id="b"><path d="M0 42h300v216H0zm0 0"/></clipPath><clipPath id="c"><path d="M150 0a150 150 0 100 300 150 150 0 000-300zm0 0"/></clipPath><clipPath id="d"><path d="M0 85h300v130H0zm0 0"/></clipPath><clipPath id="e"><path d="M150 0a150 150 0 100 300 150 150 0 000-300zm0 0"/></clipPath><clipPath id="f"><path d="M0 128h300v44H0zm0 0"/></clipPath><clipPath id="g"><path d="M150 0a150 150 0 100 300 150 150 0 000-300zm0 0"/></clipPath><clipPath id="h"><path d="M0 0h211v300H0zm0 0"/></clipPath><clipPath id="i"><path d="M150 0a150 150 0 100 300 150 150 0 000-300zm0 0"/></clipPath><clipPath id="j"><path d="M0 0h200v300H0zm0 0"/></clipPath><clipPath id="k"><path d="M150 0a150 150 0 100 300 150 150 0 000-300zm0 0"/></clipPath><clipPath id="l"><path d="M8 73h146v130H8zm0 0"/></clipPath><clipPath id="m"><path d="M150 0a150 150 0 100 300 150 150 0 000-300zm0 0"/></clipPath><clipPath id="n"><path d="M38 85h97v110H38zm0 0"/></clipPath><clipPath id="o"><path d="M150 0a150 150 0 100 300 150 150 0 000-300zm0 0"/></clipPath><clipPath id="p"><path d="M37 85h98v111H37zm0 0"/></clipPath><clipPath id="q"><path d="M150 0a150 150 0 100 300 150 150 0 000-300zm0 0"/></clipPath><clipPath id="r"><path d="M45 167h80v7H45zm0 0"/></clipPath><clipPath id="s"><path d="M150 0a150 150 0 100 300 150 150 0 000-300zm0 0"/></clipPath><clipPath id="t"><path d="M49 137h14v33H49zm0 0"/></clipPath><clipPath id="u"><path d="M150 0a150 150 0 100 300 150 150 0 000-300zm0 0"/></clipPath><clipPath id="v"><path d="M59 145h28v24H59zm0 0"/></clipPath><clipPath id="w"><path d="M150 0a150 150 0 100 300 150 150 0 000-300zm0 0"/></clipPath><clipPath id="x"><path d="M69 157h59v8H69zm0 0"/></clipPath><clipPath id="y"><path d="M150 0a150 150 0 100 300 150 150 0 000-300zm0 0"/></clipPath><clipPath id="z"><path d="M77 148h21v8H77zm0 0"/></clipPath><clipPath id="A"><path d="M150 0a150 150 0 100 300 150 150 0 000-300zm0 0"/></clipPath><clipPath id="B"><path d="M83 147h10v9H83zm0 0"/></clipPath><clipPath id="C"><path d="M150 0a150 150 0 100 300 150 150 0 000-300zm0 0"/></clipPath><clipPath id="D"><path d="M63 167h61v29H63zm0 0"/></clipPath><clipPath id="E"><path d="M150 0a150 150 0 100 300 150 150 0 000-300zm0 0"/></clipPath><clipPath id="F"><path d="M64 180h59v5H64zm0 0"/></clipPath><clipPath id="G"><path d="M150 0a150 150 0 100 300 150 150 0 000-300zm0 0"/></clipPath><clipPath id="H"><path d="M53 110h25v13H53zm0 0"/></clipPath><clipPath id="I"><path d="M150 0a150 150 0 100 300 150 150 0 000-300zm0 0"/></clipPath><clipPath id="J"><path d="M61 171h64v17H61zm0 0"/></clipPath><clipPath id="K"><path d="M150 0a150 150 0 100 300 150 150 0 000-300zm0 0"/></clipPath><clipPath id="L"><path d="M77 157h13v13H77zm0 0"/></clipPath><clipPath id="M"><path d="M150 0a150 150 0 100 300 150 150 0 000-300zm0 0"/></clipPath><clipPath id="N"><path d="M88 158h13v13H88zm0 0"/></clipPath><clipPath id="O"><path d="M150 0a150 150 0 100 300 150 150 0 000-300zm0 0"/></clipPath><clipPath id="P"><path d="M47 88h12v12H47zm0 0"/></clipPath><clipPath id="Q"><path d="M150 0a150 150 0 100 300 150 150 0 000-300zm0 0"/></clipPath></defs><g clip-path="url(#a)"><path fill="#309207" d="M0 0h300v300H0z"/></g><g clip-path="url(#b)"><g clip-path="url(#c)"><path d="M0 257.1h600V43H0zm0 0" fill="#ffd200"/></g></g><g clip-path="url(#d)"><g clip-path="url(#e)"><path d="M0 214.3h600V85.7H0zm0 0" fill="#de1f10"/></g></g><g clip-path="url(#f)"><g clip-path="url(#g)"><path d="M0 171.4h600v-42.8H0zm0 0"/></g></g><g clip-path="url(#h)"><g clip-path="url(#i)"><path d="M11 0l200 150L11 300H0V0"/></g></g><g clip-path="url(#j)"><g clip-path="url(#k)"><path d="M0 0l200 150L0 300" fill="#fff"/></g></g><g clip-path="url(#l)"><g clip-path="url(#m)"><path d="M8.5 126.5L52 157.2 42.5 203 81 181l38.4 22-9.5-45.7 43.5-30.8-50-7.3L81 73.8l-22.4 45.4" fill="#de1f10"/></g></g><g clip-path="url(#n)"><g clip-path="url(#o)"><path d="M68.2 131.2c4.7 10.3 5.9 11 17.6 15 11.8 4 45 7.8 48.3 8.2A1916 1916 0 0086.8 119c-7.7-5.6-9.8-8-9.8-8s-7-12.6-9.3-16.2C65.3 91 60.9 86 55 86s-9.4 3.4-11 9.4c-1 .3-6 3.3-5.7 6.4 1.4-.2 10.4-2.7 13.5 7.5a66 66 0 010 35c-3.1 8.3-8 14.5-8 21.7 0 1 .6 3 2.3 3l5.3 26h67l10.7-41.2" fill="#ffc517"/></g></g><g clip-path="url(#p)"><g clip-path="url(#q)"><path d="M68.2 131.2c4.7 10.3 5.9 11 17.6 15 11.8 4 45 7.8 48.3 8.2A1916 1916 0 0086.8 119c-7.7-5.6-9.8-8-9.8-8s-7-12.6-9.3-16.2C65.3 91 60.9 86 55 86s-9.4 3.4-11 9.4c-1 .3-6 3.3-5.7 6.4 1.4-.2 10.4-2.7 13.5 7.5a66 66 0 010 35c-3.1 8.3-8 14.5-8 21.7 0 1 .6 3 2.3 3l5.3 26h67l10.7-41.2" fill="none" stroke-width=".1" stroke="#000"/></g></g><g clip-path="url(#r)"><g clip-path="url(#s)"><path d="M46.2 169s14.2-.8 18.1-.8c3.9 0 39.9 0 60 4.7" fill="none" stroke-width=".1" stroke="#000"/></g></g><g clip-path="url(#t)"><g clip-path="url(#u)"><path d="M51.2 168.7s-1.4-1.7-.5-5.1c1-3.5 11-12.4 11-25" fill="none" stroke-width=".1" stroke="#000"/></g></g><g clip-path="url(#v)"><g clip-path="url(#w)"><path d="M59.9 168.2s-1.2-5.6 11.6-10.4c3.7-1.1 14-7 14.3-11.6" fill="none" stroke-width=".1" stroke="#000"/></g></g><g clip-path="url(#x)"><g clip-path="url(#y)"><path d="M70.2 158.3s31.5.1 56.5 5.2" fill="none" stroke-width=".1" stroke="#000"/></g></g><g clip-path="url(#z)"><g clip-path="url(#A)"><path d="M78 154.5s11 .4 12.7-.1a8.6 8.6 0 006.1-5.5" fill="none" stroke-width=".1" stroke="#000"/></g></g><g clip-path="url(#B)"><g clip-path="url(#C)"><path d="M84.5 154.7s5.8-3 7-7" fill="none" stroke-width=".1" stroke="#000"/></g></g><g clip-path="url(#D)"><g clip-path="url(#E)"><path d="M67 195s-2.5-17.2-3-26.8l6.5 6.2 6.8-6 6 6.3 6.7-5.8 6 6.6 6.6-5.7 5.4 6.2 6.7-4.9 8 7.6" fill="none" stroke-width=".1" stroke="#000"/></g></g><g clip-path="url(#F)"><g clip-path="url(#G)"><path d="M121.3 184.2c-24-3.5-56.1-3.3-56.1-3.3" fill="none" stroke-width=".1" stroke="#000"/></g></g><g clip-path="url(#H)"><g clip-path="url(#I)"><path d="M54 121.6s19.6-9.4 23-10.7" fill="none" stroke-width=".1" stroke="#000"/></g></g><g clip-path="url(#J)"><g clip-path="url(#K)"><path d="M64.6 175l6.5 6 6-6 6 6.2 6.4-5.7 6 6.3 6.7-5.6 5.5 6.4 6.7-5 7 6.1" fill="none" stroke-width=".6" stroke="#000"/></g></g><g clip-path="url(#L)"><g clip-path="url(#M)"><path d="M83.2 161a2.6 2.6 0 012.6 2.6 2.6 2.6 0 01-2.6 2.7 2.6 2.6 0 01-2.6-2.7 2.6 2.6 0 012.6-2.6zm0 0" fill="none" stroke-width=".6" stroke="#000"/></g></g><g clip-path="url(#N)"><g clip-path="url(#O)"><path d="M94.2 161.8a2.6 2.6 0 110 5.2 2.6 2.6 0 01-2.6-2.6 2.6 2.6 0 012.6-2.6zm0 0" fill="none" stroke-width=".6" stroke="#000"/></g></g><g clip-path="url(#P)"><g clip-path="url(#Q)"><path d="M53.2 92a2 2 0 110 4 2 2 0 01-2-2c0-1 1-2 2-2zm0 0" fill="none" stroke-width=".6" stroke="#000"/></g></g></svg>